<svg width="1330" height="730" viewBox="0 0 1330 730" fill="none" xmlns="http://www.w3.org/2000/svg">
<g clip-path="url(#clip0_2_775)">
<path d="M0 0H1330V730H0V0Z" fill="#FEFEFE"/>
<path d="M693.236 37C694.617 37.2064 695.997 37.4257 697.377 37.6579C690.114 45.6562 681.316 54.7123 677.717 65.0455C682.71 62.3364 686.928 58.7372 692.114 56.3635C698.358 53.319 704.976 51.5388 711.761 50.2229C712.355 51.2421 712.948 52.2612 713.542 53.2803C702.215 55.8604 691.714 58.9049 683.393 67.5482C689.147 66.6968 693.843 64.6585 699.57 64.6585C704.124 64.5811 708.665 64.7617 713.219 64.8262C713.142 66.0389 713.064 67.2515 713 68.477C707.685 68.477 702.267 68.1158 696.977 68.5931C692.385 69.1737 687.741 71.2635 683.432 72.9406C683.355 73.9468 683.29 74.9402 683.213 75.9464C697.984 76.0883 713.206 80.4615 727.848 83.2609C737.42 86.228 746.954 89.1822 755.881 93.8006C765.595 97.374 774.341 102.689 782.881 108.443C788.454 112.571 794.234 115.693 799.368 120.298C808.244 128.529 819.403 136.075 827.13 145.428C833.077 152.988 839.23 160.251 843.9 168.713C854.376 184.284 862.722 201.171 868.024 219.206C871.894 230.971 875.236 242.865 877.042 255.146C880.112 270.291 881.97 285.72 882.486 301.162C883.453 307.793 883.621 314.411 883.827 321.106C888.781 317.236 891.18 312.927 892.896 306.929C894.16 307.019 895.438 307.109 896.702 307.199C896.07 314.566 891.748 319.184 887.62 324.821C889.129 325.363 890.626 325.918 892.135 326.46C895.786 324.189 898.701 320.397 903.358 321.054C909.46 321.287 914.208 326.769 919.136 329.865C919.574 326.408 920.503 322.241 919.471 318.836C917.717 315.662 914.272 313.159 910.828 312.114C907.809 311.727 904.61 312.385 901.591 312.579C902.081 311.121 902.572 309.676 903.075 308.219C910.402 307.38 917.51 310.579 922.529 315.804C926.528 320.358 924.231 326.189 922.825 331.285C920.452 337.915 921.367 344.095 917.807 350.248C913.279 358.027 908.764 365.187 900.082 368.76C893.361 370.489 887.349 368.838 881.144 366.283C880.912 374.462 880.151 382.564 878.99 390.652C876.629 403.656 872.501 415.976 868.424 428.425C865.947 435.688 862.941 442.796 859.807 449.801C851.537 465.604 842.365 480.697 830.187 493.83C823.337 501.119 817.222 509.297 809.547 515.709C796.491 527.745 782.159 539.072 766.433 547.405C753.933 554.114 740.594 557.997 727.384 562.937C727.41 568.962 727.255 574.986 727.448 581.024C738.814 578.663 750.656 573.658 762.266 576.354C774.922 578.366 789.396 583.939 796.659 595.15C800.632 600.607 802.735 606.696 802.387 613.494C802.322 624.408 796.517 632.019 789.654 639.798C801.226 641.669 813.301 641.437 824.924 640.198C829.091 639.927 825.053 645.074 823.015 644.842C809.921 645.719 796.607 644.3 783.501 645.332C778.856 646.571 774.483 649.512 770.832 652.582C781.037 653.073 791.305 652.286 801.522 652.711C804.09 652.75 806.244 653.769 808.566 654.737C805.354 658.039 801.806 656.749 797.73 656.711C786.094 656.22 774.47 657.136 762.834 656.491C756.487 656.001 751.03 658.594 744.851 659.059C735.33 659.317 725.913 659.768 716.444 658.568C706.73 659.833 696.797 659.033 687.018 659.291C687.07 658.039 687.121 656.801 687.173 655.55C692.475 655.408 697.803 655.317 703.092 654.905C700.448 652.673 697.042 649.074 693.456 648.699C689.005 650.931 685.122 654.208 680.568 656.337C674.995 659.381 668.867 660.078 663.088 662.632C668.248 663.703 673.434 664.219 678.698 664.386C678.594 665.78 678.478 667.186 678.375 668.579C671.731 668.476 664.984 668.398 658.392 667.534C647.414 666.45 635.894 667.715 625.032 666.115C618.491 665.354 612.015 665.78 605.462 665.406C590.278 663.883 574.449 665.547 559.175 663.703C549.732 662.684 540.018 663.238 530.588 662.761C525.892 662.284 521.235 661.948 516.513 661.845C506.18 661.303 496.35 662.709 486.081 660.529C486.107 659.162 486.133 657.807 486.172 656.44C499.562 659.936 512.617 656.84 526.15 658.813C533.645 659.317 541.205 658.904 548.713 659.342C555.111 659.2 561.342 660.4 567.715 660.619C574.269 660.89 580.886 660.903 587.453 660.839C596.148 660.4 604.507 661.471 613.15 660.284C611.383 659.691 609.616 659.11 607.848 658.543C602.392 656.582 597.206 654.002 591.852 651.821C587.143 650.647 581.919 651.667 577.081 651.163C563.123 649.783 549.151 649.68 535.142 650.08C535.038 648.854 534.935 647.642 534.832 646.416C547.668 645.887 560.465 645.99 573.262 647.255C576.681 647.526 580.061 647.268 583.428 646.739C577.507 640.624 569.276 633.851 566.206 625.737C562.336 614.268 566.632 601.303 573.598 591.95C580.925 584.468 590.936 579.244 600.947 576.405C614.195 573.232 629.366 572.329 642.357 577.012C642.189 572.78 642.447 567.956 640.848 563.995C639.867 563.221 638.693 562.731 637.326 562.55C627.534 561.17 617.937 558.59 608.3 556.461C597.76 554.255 588.549 549.689 578.513 546.077C554.544 536.685 530.768 523.527 512.024 505.698C499.575 492.359 488.661 477.704 480.018 461.617C472.446 446.963 465.376 432.192 460.59 416.363C456.165 403.088 454.114 388.949 452.14 375.12C449.457 376.488 446.838 377.971 444.142 379.287C442.658 379.171 441.175 379.029 439.691 378.874C440.775 378.087 441.872 377.3 442.968 376.539C449.07 373.404 449.341 367.677 451.495 361.807C449.096 364.026 448.141 365.948 447.238 369.083C442.555 368.657 437.872 369.65 433.241 369.083C430.081 368.386 428.932 365.858 427.384 363.342C431.177 364.013 435.099 366.58 438.943 366.309C444.116 364.516 448.231 359.214 451.353 354.983C445.535 354.686 441.188 358.234 435.241 357.318C430.726 356.479 426.572 354.608 421.915 354.312C421.747 357.279 421.115 360.749 421.979 363.652C424.52 368.902 429.487 372.992 434.041 376.462C435.176 377.416 436.286 378.41 437.369 379.416C435.847 379.3 434.325 379.145 432.803 378.964C427.178 375.662 422.289 370.966 418.831 365.419C416.458 362.052 417.941 356.724 418.315 352.893C412.742 349.384 408.872 344.056 406.331 338.057C405.776 334.6 406.099 330.962 406.047 327.466C407.363 327.414 408.666 327.35 409.982 327.285C409.84 330.381 409.582 333.336 410.072 336.432C411.143 342.134 414.536 346.842 419.399 349.939C417.103 342.753 415.271 336.496 417.722 328.962C418.986 329.053 420.25 329.13 421.515 329.195C420.586 333.877 419.605 338.896 421.411 343.488C422.83 347.139 424.907 350.519 428.765 351.925C430.816 351.964 432.919 351.422 434.944 351.048C431.887 347.075 428.713 344.03 428.184 338.754C427.552 335.18 429.061 332.51 430.493 329.388C433.022 335.503 430.945 340.895 435.408 346.301C436.956 348.726 440.414 349.603 442.491 347.371C445.909 343.875 449.289 340.805 450.412 335.813C446.271 335.361 442.233 336.677 439.033 333.542C435.06 330.472 434.441 326.421 434.325 321.687C435.55 321.558 436.776 321.416 438.001 321.287C438.492 324.641 438.685 327.84 440.543 330.807C441.639 333.748 446.296 332.639 448.838 333.207C450.334 326.847 449.56 320.642 449.87 314.191C450.179 304.993 452.218 296.299 453.585 287.333C455.985 272.059 459.042 256.939 463.377 242.091C469.311 223.424 477.683 205.673 488.068 189.096C496.053 178.273 504.322 167.539 513.146 157.4C522.215 148.756 530.304 139.055 540.224 131.56C549.268 123.833 558.517 115.951 568.696 109.758C578.603 104.495 588.794 99.4123 599.179 95.168C620.013 85.8281 642.37 79.7262 665.023 77.0042C660.56 67.703 651.284 60.3369 642.486 55.2928C636.836 51.7323 630.708 51.6033 625.87 46.7398C636.371 47.5783 645.053 52.5192 653.413 58.5695C657.967 61.8591 661.45 66.1163 665.733 69.7155C664.688 61.1367 661.527 53.448 658.366 45.5143C660.714 46.8817 662.972 47.7203 664.288 50.2745C667.294 55.6798 668.184 62.6202 669.938 68.5415C672.389 65.0068 674.298 61.1883 676.53 57.5375C681.02 49.9391 686.657 42.8826 693.236 37Z" fill="#09151B"/>
<path d="M680.491 89.5692C687.547 97.6062 689.366 106.972 691.972 116.996C694.307 127.045 697.636 136.733 699.442 146.912C700.719 147.079 701.983 147.26 703.26 147.428C701.635 133.534 696.139 120.337 694.772 106.262C700.512 114.235 703.725 123.046 707.775 131.87C709.504 135.856 711.878 139.029 715.064 141.958C714.29 134.36 710.73 128.554 707.75 121.704C704.421 114.119 700.229 107.153 697.326 99.4123C706.318 108.223 710.639 120.298 716.109 131.38C717.386 133.947 719.192 136.114 721.179 138.165C721.011 134.36 720.482 130.747 718.792 127.303C715.812 120.982 712.471 114.79 709.027 108.726C705.144 101.85 699.932 96.0453 695.778 89.3757C699.803 90.4981 703.505 91.3108 706.511 94.4456C713.426 101.283 717.425 111.371 722.546 119.769C726.3 125.845 728.829 132.437 732.08 138.759C732.867 135.714 734.286 133.392 732.699 130.322C730.016 124.387 726.21 119.098 724.004 112.893C733.125 121.549 739.317 133.843 743.406 145.583C744.658 149.143 746.889 151.981 749.366 154.742C752.179 145.518 747.96 136.217 745.909 127.109C743.755 117.434 739.059 108.713 736.776 99.1285C744.58 106.237 747.496 117.112 751.856 126.593C755.7 135.056 758.977 143.274 759.545 152.678C760.809 152.575 762.086 152.485 763.363 152.381C763.918 142.242 759.196 134.501 755.739 125.278C752.501 116.815 748.076 108.907 745.393 100.277C752.05 103.644 756.036 108.701 759.067 115.383C764.15 126.581 768.033 138.578 770.846 150.55C772.007 150.769 773.155 150.975 774.303 151.195C773.967 136.682 766.73 126.129 763.131 112.635C771.903 119.047 774.754 128.322 777.36 138.397C779.308 145.957 778.47 153.697 780.405 161.27C781.733 159.257 783.062 156.793 783.101 154.316C783.359 147.518 782.946 140.655 781.643 133.96C780.495 127.587 778.431 121.524 777.734 115.048C788.016 123.407 789.525 135.804 794.35 147.324C795.614 150.795 798.104 152.91 801.007 155C800.065 150.369 798.723 145.854 797.691 141.248C801.807 146.589 805.573 152.188 809.637 157.567C810.798 157.374 811.946 157.193 813.107 157C808.308 148.821 802.8 141.687 800.246 132.347C809.263 141.558 812.101 153.31 822.086 162.07C824.305 164.043 828.111 163.863 830.923 164.34C830.704 166.507 830.458 168.688 830.187 170.855C834.857 173.59 838.934 176.518 841.488 181.433C848.042 193.224 850.764 207.686 855.485 220.289C857.588 225.849 860.865 230.339 861.613 236.428C863.29 247.806 863.419 259.429 864.554 270.872C866.167 281.205 868.489 291.448 869.947 301.82C870.966 307.754 867.599 311.998 867.354 317.997C867.625 330.639 869.521 343.037 871.766 355.447C872.617 374.153 869.289 393.348 863.948 411.241C857.743 432.501 849.035 453.619 836.702 472.106C829.981 482.065 822.15 490.502 814.359 499.88C806.141 509.697 796.492 516.457 786.636 525.049C773.271 536.556 757.687 543.896 741.11 549.534C735.718 551.366 730.183 551.585 724.649 552.643C720.082 553.778 715.864 557.506 717.206 562.654C718.883 571.258 718.534 579.373 717.386 588.016C716.87 591.241 719.476 594.182 722.791 593.628C727.539 592.312 731.551 588.571 736.118 586.661C748.36 581.462 762.563 581.798 774.6 587.448C782.727 590.893 789.061 598.388 791.925 606.644C794.221 613.172 792.428 619.79 789.306 625.685C785.255 632.638 780.121 638.74 772.91 642.546C763.712 647.461 752.837 651.757 742.271 651.615C736.208 651.667 730.106 651.899 724.069 651.473C715.361 650.609 708.266 646.158 701.196 641.398C701.919 632.29 704.125 624.189 702.151 614.952C700.254 606.154 695.868 599.097 692.488 590.983C689.121 582.791 688.696 574.432 688.67 565.698C688.773 560.628 686.864 556.423 684.335 552.153C681.523 554.694 678.633 556.449 678.659 560.641C679.059 569.194 680.323 577.786 681.523 586.249C683.239 596.762 689.521 604.296 692.23 614.475C694.798 623.195 694.436 632.69 689.057 640.288C684.787 646.674 678.027 649.835 670.996 652.26C659.244 656.13 646.421 657.652 634.114 656.272C625.393 654.879 616.04 653.408 607.874 649.99C598.573 646.132 590.02 640.611 582.899 633.477C579.339 629.8 575.856 625.092 575.262 619.867C574.798 614.126 575.869 608.179 577.816 602.787C580.745 594.556 589.079 588.571 596.832 585.281C608.79 580.495 622.052 576.934 634.63 581.604C638.913 583.578 641.454 589.177 645.234 591.925C647.969 592.905 652.471 593.163 653.529 589.693C653.387 583.862 651.388 578.108 651.452 572.2C651.413 567.646 653.078 563.26 653.323 558.796C652.149 555.984 648.949 555.507 646.279 555.12C626.567 554.552 606.752 548.876 588.563 541.471C577.675 536.866 566.89 533.021 556.557 527.152C535.077 515.425 515.572 500.087 502.13 479.381C485.553 453.903 471.13 425.974 465.338 395.916C463.403 385.763 460.629 376.088 461.442 365.69C461.713 362.349 463.867 359.02 465.389 356.092C468.163 351.177 470.304 345.965 471.646 340.483C474.807 329.053 472.691 315.946 473.065 304C473.052 292.738 474.394 281.553 474.42 270.291C475 255.598 479.967 240.324 484.017 226.236C487.359 214.303 493.461 204.667 499.343 193.869C503.704 185.858 509.947 179.201 514.23 171.164C515.688 168.636 517.094 165.669 519.223 163.631C521.854 161.386 525.402 160.212 528.124 158.032C539.18 148.266 544.224 136.217 557.15 129.096C552.815 139.739 546.417 147.621 543.824 158.767C549.371 155.658 551.009 150.588 554.028 145.441C556.402 140.99 561.446 139.262 565.613 136.914C563.123 143.764 560.207 150.317 558.943 157.554C560.156 157.593 561.381 157.632 562.594 157.683C565.522 149.324 569.405 141.442 572.979 133.366C575.765 127.251 576.913 121.42 582.254 116.879C589.001 111.242 596.406 105.256 604.649 102.044C600.973 107.398 596.006 111.19 591.349 115.602C583.48 123.601 576.784 132.179 574.359 143.39C575.572 143.403 576.797 143.403 578.023 143.416C582.022 134.824 586.64 127.264 593.607 120.724C588.717 131.147 583.08 141.235 578.384 151.736C576.913 154.884 576.514 157.929 576.604 161.386C583.157 155.207 585.466 145.634 590.033 137.585C596.961 123.717 606.094 111.577 619.949 104.031C615.189 111.332 608.803 117.176 604.378 124.749C599.966 132.399 594.755 139.442 594.045 148.46C600.805 143.222 602.379 135.972 607.178 128.877C613.512 119.021 621.433 108.701 631.534 102.495C628.967 107.63 625.535 112.132 622.039 116.66C614.583 126.4 610.532 138.178 607.217 149.853C611.899 147.815 618.621 145.802 620.839 140.874C626.825 129.999 629.844 118.505 638.629 109.333C639.455 115.925 636.759 120.775 634.359 126.606C631.534 133.921 627.806 141.493 628.747 149.53C632.798 146.047 634.449 141.842 635.843 136.823C639.145 126.348 642.731 115.628 649.956 107.14C646.344 119.576 640.177 130.386 638.887 143.57C640.048 143.48 641.196 143.39 642.344 143.312C646.202 132.037 648.188 121.395 655.167 111.474C652.974 125.42 648.614 138.771 645.647 152.523C646.808 153.039 647.956 153.542 649.104 154.046C651.942 145.054 654.458 135.959 656.47 126.735C658.792 116.789 660.418 107.527 666.326 98.922C668.365 116.26 660.947 134.024 663.359 151.13C665.978 146.215 667.204 140.965 667.836 135.469C668.868 126.09 669.745 116.699 671.332 107.398C672.467 111.822 673.486 116.131 672.944 120.75C672.325 128.722 669.977 137.185 674.041 144.615C677.395 134.979 677.15 125.51 677.266 115.473C677.305 108.907 676.879 102.521 675.963 96.0066C682.813 110.816 683.071 126.645 684.851 142.525C685.109 145.802 686.632 148.447 688.296 151.182C688.85 146.021 688.941 140.848 688.438 135.675C687.496 127.238 686.954 118.827 685.161 110.494C683.768 103.36 681.2 96.858 680.491 89.5692Z" fill="#039DD1"/>
<path d="M715.967 88.9371C719.643 89.9304 723.088 90.3562 725.874 93.1814C731.383 98.7027 734.634 106.456 736.736 113.861C731.86 109.333 728.364 103.902 723.965 98.9478C721.127 95.7485 718.353 92.4976 715.967 88.9371Z" fill="#039DD1"/>
<path d="M654.909 175.176C661.179 172.674 668.442 175.151 670.454 181.82C671.615 188.735 669.654 196.243 666.429 202.358C663.772 206.937 658.895 212.033 653.18 211.852C647.453 212.446 642.834 207.608 641.222 202.551C639.738 195.766 641.828 188.528 645.634 182.839C647.917 179.356 650.858 176.466 654.909 175.176Z" fill="#09151B"/>
<path d="M696.474 175.783C703.234 173.732 709.749 177.782 711.942 184.245C714.251 191.921 714.187 201.016 709.13 207.634C705.582 212.588 698.216 214.445 692.927 211.182C688.85 209.014 686.606 205.015 686.154 200.513C685.651 195.069 685.496 188.825 688.076 183.858C689.844 180.388 692.591 176.892 696.474 175.783Z" fill="#09151B"/>
<path d="M793.382 223.102C803.677 226.727 809.005 236.544 814.126 245.445C805.883 252.618 797.562 258.423 786.081 258.062C776.934 258.371 770.058 253.327 762.963 248.309C757.274 244.439 754.642 236.582 755.971 229.99C764.743 219.851 781.488 218.509 793.382 223.102Z" fill="#FEFEFE"/>
<path d="M530.743 227.294C540.469 226.675 549.616 226.185 558.491 230.971C565.354 234.867 570.295 241.807 571.108 249.728C569.934 253.934 567.212 258.165 564 261.132C559.123 265.325 552.002 265.054 546.03 264.112C537.077 261.945 528.291 260.655 522.564 252.631C519.222 247.935 514.862 240.917 515.959 234.944C518.771 230.223 525.634 228.146 530.743 227.294Z" fill="#FEFEFE"/>
<path d="M855.756 229.565C856.53 242.026 858.491 254.256 860.052 266.628C860.787 276.251 863.367 285.333 865.599 294.66C864.709 295.099 863.818 295.525 862.941 295.95C860.413 288.158 858.774 280.599 857.833 272.459C856.749 263.041 854.775 253.727 853.885 244.297C853.408 239.059 853.885 234.467 855.756 229.565Z" fill="#09151B"/>
<path d="M664.223 237.898C670.209 236.879 676.582 236.879 682.632 237.369C689.676 238.53 696.358 241.459 701.106 246.942C705.105 251.379 709.207 257.7 709.13 263.854C708.523 271.594 704.215 278.406 699.261 284.146C693.946 290.648 685.896 294.996 677.962 297.382C668.029 299.704 656.973 297.795 648.794 291.538C643.441 287.384 638.023 282.392 637.107 275.31C636.475 268.73 636.513 261.674 639.842 255.753C644.808 246.309 653.98 240.272 664.223 237.898Z" fill="#09151B"/>
<path d="M669.228 243.858C677.227 241.369 683.819 244.607 690.669 248.399C695.378 251.276 699.261 256.294 700.28 261.764C701.273 268.73 697.132 275.181 692.578 280.044C686.76 286.443 678.568 290.571 669.964 291.409C662.185 291.513 654.083 288.197 648.549 282.714C645.285 279.502 643.221 275.206 643.711 270.549C644.46 263.609 647.117 256.269 652.6 251.676C657.218 247.703 663.346 245.277 669.228 243.858Z" fill="#039DD1"/>
<path d="M468.872 283.759C470.82 295.821 467.569 306.451 466.744 318.294C466.241 323.712 468.459 328.305 468.911 333.555C468.588 336.458 467.273 339.425 466.202 342.121C463.931 334.793 463.015 326.937 462.087 319.339C461.519 315.34 462.693 311.818 463.828 308.051C466.421 299.975 465.763 291.758 468.872 283.759Z" fill="#039DD1"/>
<path d="M759.325 325.531C767.066 325.157 773.013 329.659 778.47 334.548C781.501 331.788 784.584 328.717 788.055 326.537C791.331 324.305 796.337 324.757 800.104 324.989C804.18 325.247 807.083 327.698 809.521 330.756C813.198 335.49 815.919 341.502 815.004 347.616C813.817 355.653 808.721 363.11 803.845 369.418C800.916 373.262 796.737 376.823 794.698 381.183C797.511 390.343 803.703 397.631 805.264 407.397C803.225 407.603 801.174 407.81 799.136 408.016C795.163 401.127 791.86 393.929 788.158 386.924C786.906 384.279 785.062 381.003 785.345 378.023C788.777 373.753 793.524 370.708 796.943 366.374C800.749 361.588 804.554 356.337 806.67 350.558C809.095 343.708 806.36 336.096 800.736 331.762C795.524 330.343 791.344 333.078 788.132 336.935C783.875 341.902 783.578 349.41 782.301 355.615C780.314 354.441 776.818 353.744 776.367 351.177C774.07 344.74 773.684 336.922 766.911 333.336C760.796 330.265 753.972 337.696 756.087 343.669C757.816 349.177 761.26 354.363 764.073 359.369C762.679 360.775 761.273 362.181 759.88 363.6C755.146 359.227 752.062 353.357 747.263 349.152C742.374 345.281 736.556 348.803 733.086 352.751C729.732 356.647 730.854 362.439 734.647 365.613C739.536 369.676 745.07 372.321 748.979 377.584C743.961 379.068 738.981 379.145 733.795 379.197C728.726 379.171 723.798 381.454 720.843 385.621C720.701 388.24 722.288 389.994 724.146 391.607C728.622 395.271 735.511 395.903 740.813 393.916C746.502 391.207 750.592 386.511 756.823 384.641C760.009 392.407 762.305 400.147 766.124 407.655C769.362 414.234 773.813 419.859 776.199 426.877C774.174 426.915 772.071 427.096 770.059 426.799C768.214 425.909 766.717 424.129 765.453 422.555C759.699 415.073 756.307 405.604 752.424 397.038C746.773 399.218 741.807 401.631 735.601 401.643C729.061 401.966 722.701 399.657 717.734 395.438C713.903 392.226 712.123 386.344 713.761 381.622C717.076 376.475 724.791 373.972 730.106 371.34C727.693 368.154 724.714 364.58 723.759 360.633C723.036 355.718 723.217 350.429 727.345 347.01C732.879 341.798 739.42 341.282 746.618 340.508C749.237 333.929 751.598 327.298 759.325 325.531Z" fill="#09151B"/>
<path d="M902.623 324.86C906.119 324.292 909.486 326.769 911.924 328.988C914.13 331.297 916.813 333.4 915.807 336.974C913.098 344.43 908.183 350.88 901.023 354.544C903.41 349.551 908.002 344.894 909.267 339.567C910.621 334.768 905.332 332.239 902.804 328.885C899.901 331.994 896.702 336.793 891.928 336.625C888.187 336.341 885.065 331.904 882.73 329.311C886.226 329.13 889.71 329.401 893.206 329.246C896.805 329.401 899.398 326.228 902.623 324.86Z" fill="#FEFEFE"/>
<path d="M617.356 332.02C622.064 336.135 622.555 341.398 623.393 347.217C628.166 347.075 633.069 346.688 637.829 347.165C641.015 347.5 643.66 349.074 645.337 351.822C647.994 355.86 647.827 360.994 647.453 365.613C646.911 370.721 643.698 374.94 640.886 379.042C643.041 385.105 644.666 390.91 643.35 397.399C641.983 402.443 637.996 406.017 633.159 407.707C625.29 410.313 616.982 409.513 609.112 407.333C604.959 416.918 602.198 426.941 597.67 436.384C595.619 435.765 593.555 435.172 591.49 434.617C592.174 425.767 596.909 419.214 599.192 410.803C600.921 405.681 601.837 399.321 605.088 394.961C610.854 394.806 614.905 403.759 620.903 403.617C625.186 403.204 630.23 402.018 633.52 399.063C636.319 396.483 636.19 392.807 635.881 389.298C635.558 386.731 634.423 384.357 631.856 383.402C627.741 381.919 623.406 381.029 619.226 379.687C620.31 378.307 621.445 376.771 622.877 375.726C626.876 373.804 632.166 374.075 635.971 371.714C639.08 369.379 640.615 364.722 640.628 360.968C640.009 357.795 639.041 353.151 634.887 353.473C625.367 352.648 619.884 360.31 613.408 365.806C611.912 364.503 610.415 363.2 608.919 361.897C611.177 357.034 614.066 351.719 614.969 346.417C615.485 342.947 614.969 339.347 612.247 336.909C608.983 334.265 603.772 337.257 600.998 339.399C592.6 346.804 591.387 356.079 589.375 366.451C587.53 366.464 585.672 366.49 583.815 366.503C581.815 361.407 580.602 355.602 577.7 350.958C573.249 344.353 562.168 343.85 556.453 349.01C552.531 352.299 548.88 356.466 549.177 361.936C549.048 367.057 552.647 371.766 556.543 374.733C562.477 379.042 570.605 380.887 577.468 383.351C575.984 388.188 574.385 390.794 570.45 394.006C564.903 398.328 560.297 403.643 554.931 408.158C552.299 410.429 549.396 410.158 546.145 410.583C546.984 406.868 547.977 403.978 550.983 401.489C556.376 396.78 561.523 392.058 565.638 386.15C558.065 382.241 550.803 379.945 545.513 372.824C540.779 367.406 540.198 359.665 542.817 353.164C546.945 344.636 555.627 337.606 565.483 338.096C573.443 338.38 579.067 342.392 585.492 346.455C590.097 340.276 594.212 334.174 601.411 330.743C606.661 328.382 612.97 327.453 617.356 332.02Z" fill="#09151B"/>
<path d="M904.765 334.587C905.113 341.515 901.759 346.959 896.638 351.267C893.916 353.538 888.923 353.125 886.898 350.093C884.176 346.404 883.337 342.25 883.26 337.722C888.007 338.844 891.942 340.56 896.883 339.128C899.643 337.98 902.185 336.122 904.765 334.587Z" fill="#FEFEFE"/>
<path d="M459.403 336.625C461.196 340.599 462.796 344.985 463.209 349.345C463.415 351.345 461.519 353.383 460.513 354.983C458.797 348.881 458.668 342.882 459.403 336.625Z" fill="#039DD1"/>
<path d="M882.537 352.402C885.324 353.525 888.02 355.434 890.961 356.028C894.354 356.247 897.76 356.079 901.153 356.402C904.7 356.931 908.364 353.912 911.473 352.428C908.132 358.079 903.513 364.168 896.999 366.206C891.18 367.367 886.756 364.851 882.008 361.962C882.112 358.801 882.099 355.537 882.537 352.402Z" fill="#FEFEFE"/>
<path d="M435.241 357.318C441.188 358.234 445.535 354.686 451.353 354.983C448.231 359.214 444.116 364.516 438.943 366.309C435.099 366.58 431.177 364.013 427.384 363.342C428.932 365.858 430.08 368.386 433.241 369.083C437.872 369.65 442.555 368.657 447.238 369.083C448.141 365.948 449.096 364.026 451.495 361.807C449.341 367.677 449.07 373.404 442.968 376.539C439.988 376.862 437.021 376.9 434.041 376.462C429.487 372.992 424.52 368.902 421.979 363.652C421.115 360.749 421.747 357.279 421.914 354.312C426.571 354.608 430.725 356.479 435.241 357.318Z" fill="#FEFEFE"/>
<path d="M434.041 376.462C437.021 376.9 439.988 376.862 442.968 376.539C441.872 377.3 440.775 378.087 439.692 378.874C441.175 379.029 442.659 379.171 444.142 379.287C440.04 380.9 436.75 381.08 432.803 378.965C434.325 379.145 435.847 379.3 437.369 379.416C436.286 378.41 435.176 377.416 434.041 376.462Z" fill="#039DD1"/>
<path d="M852.169 651.163L850.815 651.912C840.417 650.57 829.774 652.299 819.286 651.628C818.602 652.982 817.932 654.35 817.261 655.704C822.485 655.859 827.71 655.679 832.935 655.601C827.452 656.969 822.395 657.614 816.732 657.523C816.822 655.704 816.925 653.873 817.054 652.054C828.046 649.215 840.83 650.867 852.169 651.163Z" fill="#FEFEFE"/>
<path d="M819.287 651.628C829.775 652.299 840.418 650.57 850.815 651.912C849.745 652.995 848.661 654.04 847.551 655.059C842.791 655.911 837.76 655.317 832.935 655.601C827.711 655.679 822.486 655.859 817.261 655.704C817.932 654.35 818.603 652.982 819.287 651.628Z" fill="#09151B"/>
<path d="M607.849 658.542C609.616 659.11 611.383 659.691 613.151 660.284C604.507 661.471 596.148 660.4 587.453 660.839C580.887 660.903 574.269 660.89 567.715 660.619C581.158 658.917 594.497 660.877 607.849 658.542Z" fill="#FEFEFE"/>
<path d="M694.939 665.78C711.942 666.231 729.113 666.373 746.051 664.696C762.215 664.09 778.353 664.928 794.518 664.141C794.518 665.638 794.505 667.147 794.492 668.656C780.508 668.721 766.511 668.36 752.527 668.605C738.311 669.843 724.249 669.972 709.981 669.869C704.898 669.779 700.009 669.985 694.965 669.16C694.926 668.037 694.926 666.902 694.939 665.78Z" fill="#09151B"/>
<path d="M817.029 665.509C831.942 665.896 847.138 664.76 861.974 665.87L863.045 667.779C861.897 670.991 857.175 669.456 854.517 669.701C837.966 668.579 818.874 671.404 803.083 666.334C807.753 665.638 812.307 665.289 817.029 665.509Z" fill="#09151B"/>
<path d="M519.932 671.301C544.985 671.185 569.109 670.024 593.89 672.539C602.624 673.739 611.603 673.21 620.414 673.507C643.583 674.268 666.726 673.017 689.908 673.817C689.895 675.429 689.882 677.029 689.87 678.628C679.33 678.448 668.881 678.474 658.367 677.648C645.105 678.925 631.65 679.002 618.388 677.635C610.803 677.145 603.179 677.39 595.593 676.861C569.676 673.52 544.25 675.584 518.668 674.913C519.068 673.7 519.481 672.501 519.932 671.301Z" fill="#09151B"/>
<path d="M746.515 677.506C769.465 677.171 792.531 677.519 815.468 677.648L817.854 678.706C805.225 680.409 793.524 678.229 780.92 678.216C774.044 678.164 767.156 678.164 760.28 678.19C749.482 678.216 738.839 679.764 728.029 679.506C720.869 679.325 713.761 679.196 706.666 680.305C711.723 681.583 716.367 682.008 721.604 681.75C728.596 681.415 735.537 681.931 742.516 682.124C730.596 682.744 718.573 682.395 706.627 682.266C706.601 680.989 706.562 679.712 706.511 678.435C719.94 678.19 733.176 678.964 746.515 677.506Z" fill="#09151B"/>
<path d="M815.468 677.648C821.763 676.938 827.71 675.468 834.109 676.113C833.696 677.545 833.025 678.796 832.135 679.841C827.646 681.131 822.756 680.899 818.125 681.66C812.63 682.499 807.082 682.473 801.561 682.047C791.331 680.963 780.882 681.608 770.6 681.454C761.183 681.66 751.907 681.067 742.516 682.124C735.537 681.931 728.596 681.415 721.604 681.75C716.367 682.008 711.722 681.583 706.666 680.305C713.761 679.196 720.869 679.325 728.029 679.506C738.839 679.764 749.482 678.216 760.28 678.19C767.156 678.164 774.044 678.164 780.92 678.216C793.524 678.229 805.225 680.409 817.854 678.706L815.468 677.648Z" fill="#09151B"/>
<path d="M644.215 684.214C648.278 683.569 652.084 684.756 656.148 685.414C656.186 686.73 656.238 688.046 656.289 689.374C642.886 688.407 629.56 689.439 616.156 689.245C616.44 687.968 616.724 686.704 617.033 685.427C626.219 684.588 635.133 685.775 644.215 684.214Z" fill="#09151B"/>
<path d="M671.809 687.517C694.333 688.162 716.805 687.865 739.343 687.543C745.367 687.427 751.327 687.027 757.364 687.53C756.448 690.51 754.81 691.838 752.475 691.516C742.181 691.684 731.886 691.671 721.592 691.813C716.328 691.813 711.336 692.987 706.047 692.445C694.578 690.884 683.148 692.522 671.641 691.039C671.667 689.865 671.719 688.691 671.809 687.517Z" fill="#09151B"/>
</g>
<defs>
<clipPath id="clip0_2_775">
<rect width="1330" height="730" fill="white"/>
</clipPath>
</defs>
</svg>
