<svg width="1330" height="730" viewBox="0 0 1330 730" fill="none" xmlns="http://www.w3.org/2000/svg">
<g clip-path="url(#clip0_2_1233)">
<path d="M0 0H1330V730H0V0Z" fill="#FEFEFE"/>
<path d="M365.927 8.2424C367.405 6.5833 371.173 7.64512 369.888 9.9413C368.425 11.6402 364.671 10.5386 365.927 8.2424Z" fill="#C5C5C5"/>
<path d="M854.909 8.12293C856.609 6.55675 859.343 8.13621 858.072 10.1271C856.387 11.7066 853.668 10.1006 854.909 8.12293Z" fill="#D1D1D1"/>
<path d="M792.452 31.3866C796.905 32.84 800.305 36.0266 801.385 40.72C797.412 39.0933 793.252 35.88 788.972 35.4666C785.412 35.6 781.825 37.28 778.505 38.4666C780.412 41.8 783.692 45.4533 784.172 49.32C784.305 53.2667 782.825 58.2933 778.319 59.0666C775.319 59.48 769.039 61.08 767.305 57.76C764.425 52.1333 767.479 47.1733 768.612 41.5066C761.825 42.4533 756.412 45.9466 752.199 51.2666C750.465 53.6933 748.252 55.72 750.265 58.7733C753.599 64.0267 755.705 68.5066 757.225 74.5866C766.999 69.08 777.252 62.8666 788.959 64.8C797.505 66.5333 806.479 72.2133 809.745 80.6266C811.785 85.4133 810.332 89.7066 809.612 94.56C816.212 93.7866 822.265 91.72 829.052 92.3467C837.292 92.2 843.279 96.16 850.132 100.093C848.559 91.5733 846.799 83.8533 849.505 75.2933C851.679 66.44 858.452 59.6667 866.692 56.2C872.119 54.24 878.825 55.1333 884.372 56.2133C892.292 57.72 900.132 59.8667 906.225 65.4133C908.319 67.5333 910.759 69.1867 909.665 72.5333C904.919 77.1733 899.012 80.5733 894.385 85.4133C891.012 88.96 887.385 92.1733 883.745 95.44C886.825 98.7467 889.532 102.413 892.679 105.64C894.572 106.987 896.519 104.773 898.185 103.933C906.585 97.9866 914.759 91.6933 922.972 85.4933C928.679 94.3067 928.892 107.08 928.599 117.213C928.425 127.12 923.012 135.36 915.385 141.293C917.559 143.76 920.385 146.347 921.385 149.52C920.732 158.147 915.212 162.587 908.945 167.547C911.559 170.08 914.092 172.6 917.652 173.76C920.812 174.56 924.239 174.507 927.465 174.2C931.852 173.973 935.772 170.147 939.492 168.067C939.039 170.293 939.679 172.6 937.532 173.947C931.372 178.56 923.492 180.627 916.039 177.947C910.545 176.44 908.119 172.36 904.012 168.96C899.305 167.867 894.652 167.4 890.159 165.44C887.039 169.72 883.732 173.84 880.465 178C883.865 179.467 887.425 180.653 890.732 182.333C899.759 187.307 906.719 196.68 908.492 206.84C908.772 214.613 909.332 225.893 903.692 232.04C897.279 238.733 887.239 242.427 878.452 244.72C879.505 247.96 880.892 251.24 881.479 254.613C881.812 258.053 881.412 261.6 881.399 265.067C888.012 261.307 894.452 257.333 900.665 252.947C904.732 250.027 909.332 248.573 914.145 247.373C927.172 244.08 940.039 239.72 953.039 236.627C955.919 236.333 959.759 241.16 959.345 244.107C959.519 247.547 957.039 250.2 954.945 252.627C948.025 259.92 940.679 266.813 933.785 274.147C929.039 279.2 925.772 284.48 919.519 287.973C910.865 292.693 901.772 296.427 893.425 301.773C888.879 304.76 883.959 307.307 879.665 310.64C878.145 314.067 876.865 317.213 874.345 320.08C878.879 333.773 883.252 346.707 884.185 361.267C884.279 368.867 884.492 376.493 884.132 384.08C883.425 390.787 881.959 397.387 881.479 404.133C879.399 421.307 875.332 438.147 868.399 454.027C861.185 469.813 854.345 484.84 843.732 498.747C840.372 502.92 836.959 507.08 833.359 511.067C824.372 520.68 814.092 528.227 803.319 535.68C791.639 544.253 779.172 551.547 765.319 556.04C757.425 558.64 749.412 559.64 741.399 561.787C739.985 562.093 738.745 562.813 737.692 563.947C737.052 569.92 738.252 575.493 738.892 581.373C739.359 585.2 738.572 589.16 740.625 592.413C751.039 592.88 762.052 591.373 772.585 593.2C782.092 595.08 791.052 598.867 798.492 605.147C800.772 607.027 802.772 609.267 805.145 611C810.959 611.813 817.025 610.853 822.852 611.373C824.159 612.547 825.412 613.787 826.585 615.107C820.039 616.053 813.265 615.493 806.652 615.733C806.652 620.507 808.185 626.973 805.479 631.16C801.199 638.507 794.425 643.933 786.559 647.067C773.599 652.427 760.025 651.627 746.252 651.333C735.772 650.293 725.372 647.613 715.279 644.68C708.719 642.773 703.052 639.36 697.199 635.973C685.612 643.04 675.492 651.08 662.705 654.067C652.559 657.307 642.185 658.307 631.652 659.333C620.039 660.16 608.185 658.187 597.185 654.52C589.545 651.133 580.065 647.48 576.665 639.187C575.492 635.4 576.052 630.907 576.452 627.013C576.959 623.24 580.185 620.453 582.252 617.453C583.399 615.773 583.305 613.293 584.252 611.573C587.239 611.04 590.159 611.827 593.105 610.44C609.545 602.627 628.172 601.387 646.119 601.893C646.185 593.493 642.905 585.72 641.439 577.12C640.199 572.373 639.985 566.56 637.292 562.4C617.012 560.707 597.465 558.467 578.505 550.507C566.959 545.493 555.052 540.693 544.265 534.16C529.305 525.52 515.719 513.613 503.439 501.533C489.319 485.84 477.945 468.64 473.239 447.773C471.612 441.747 471.745 434.88 469.132 429.213C463.652 426.92 456.745 427.24 450.839 426.893C450.265 432.093 450.252 438.253 447.799 442.947C445.332 448.053 441.612 452.68 437.612 456.667C433.265 460.747 428.625 464.133 422.319 463.667C413.985 464.587 405.452 458.267 402.092 450.907C399.305 445.32 400.279 439.907 400.265 433.893C395.732 433.987 390.825 434.76 386.385 433.827C382.732 432.493 379.199 429.867 376.719 426.88C373.879 423.787 374.519 418.493 374.999 414.653C376.265 407.52 381.252 404.573 384.999 399.027C381.412 397.253 377.559 395.867 374.692 392.987C371.759 389.947 370.052 385.667 371.559 381.507C373.532 375.72 378.999 371.987 384.519 370C390.052 367.573 396.732 368.827 402.732 368.747C400.639 363.613 398.185 359.12 398.545 353.347C397.865 344.76 407.359 338.773 415.172 340.693C423.519 342.8 430.612 349.36 435.559 356.173C439.145 361.213 439.719 366.693 442.132 372.2C442.599 373.64 443.599 374.56 445.119 374.973C449.092 375.68 453.279 375.64 457.305 375.467C456.932 356.4 459.719 337.387 465.345 319.16C466.985 313.867 469.225 309.2 470.225 303.8C466.439 302.427 462.692 300.96 459.012 299.32C458.919 297.853 458.825 296.387 458.719 294.907C463.652 295 468.479 295.693 473.305 296.627C476.959 292.08 478.799 286.467 482.652 282.133C488.265 278.293 493.292 273.6 499.039 269.987C501.719 268.187 503.652 269.48 506.172 270.76C510.025 273.48 513.159 276.72 518.239 276.627C529.279 276.427 540.439 270.96 546.625 261.68C549.572 257.28 550.425 252.053 552.932 247.6C554.132 245.467 557.972 246.36 560.052 246.133C560.785 251.387 560.599 258.88 564.985 262.613C569.012 266.187 574.279 268.973 579.652 269.64C585.052 269.64 590.772 267.8 595.319 264.867C599.452 262.253 601.825 257.493 604.185 253.36C604.852 252.107 605.519 250.853 606.172 249.6C614.065 253.427 613.919 262.373 621.572 266.053C626.092 268.253 631.652 270.253 636.732 269.613C643.785 268.36 650.345 263.2 655.505 258.453C659.759 254.733 659.745 248 663.812 244.493C665.212 245.24 667.199 246.067 667.839 247.627C670.292 252.733 670.892 259.56 674.292 264.093C678.225 268.933 684.145 272.413 690.265 273.573C694.532 274.293 699.385 272.907 703.599 272.08C705.545 271.733 707.519 271.44 709.479 271.16C706.785 274.067 703.985 276.867 700.852 279.307C692.172 280.2 683.692 278.667 676.332 273.867C670.732 269.76 667.905 264.227 661.825 260.933C661.625 262.24 661.412 263.533 661.199 264.827C665.772 268.507 670.772 272.773 673.759 277.893C677.119 283.56 678.292 290.507 679.265 296.933C683.385 296.84 687.545 296.84 691.639 296.413C693.625 296.173 695.199 295.68 696.212 293.84C699.012 289.76 700.199 285.52 704.305 282.427C711.345 277.827 717.972 272.8 725.412 268.827C724.439 264.307 723.519 261.547 719.479 258.987C718.839 258.533 718.185 258.08 717.545 257.627C718.145 256.373 718.745 255.12 719.332 253.867C721.345 253.813 723.359 253.787 725.385 253.747C726.305 258.32 727.092 263.027 728.612 267.44C729.625 271.333 734.799 273.2 738.345 273.653C744.652 273.667 751.305 271.48 755.572 266.627C759.319 262.373 762.305 257.347 765.412 252.613C766.625 252.507 767.825 252.4 769.039 252.293C770.999 258.773 771.372 265.947 774.172 272.08C780.972 284.587 800.479 289.6 811.652 280.08C817.239 275.96 816.585 268.093 819.425 262.253C820.265 261.987 821.132 261.813 822.012 261.733C827.399 265.267 829.919 272.853 835.292 276.2C840.039 278.707 846.492 278.28 851.652 277.627C859.079 276.16 867.292 273.133 870.945 265.973C874.439 259.8 875.465 251.08 869.785 245.827C865.679 242.133 860.612 240.013 856.959 235.693C865.532 235.453 875.079 237.96 883.452 236.16C890.972 233.48 899.652 227.04 901.119 218.693C902.612 211.413 900.732 203.387 897.185 196.947C893.492 190.88 886.905 185.92 879.719 185.12C874.492 184.56 869.185 184.76 863.932 184.52C864.199 182.347 863.172 179.12 865.332 177.827C869.679 174.16 875.065 171.853 878.932 167.36C882.799 162.827 883.999 156.467 882.679 150.72C880.905 144.8 875.652 141.213 870.425 138.533C859.705 149.013 849.412 160 838.865 170.667C840.452 173.893 841.959 177.053 843.839 180.12C843.332 181.613 842.812 183.107 842.305 184.6C841.159 183.027 840.012 181.44 838.919 179.827C832.812 170.04 825.559 161.027 817.625 152.667C811.852 146.6 804.719 142 796.559 139.947C796.079 138.133 795.625 136.32 795.265 134.48C801.732 137.373 808.079 140.507 814.425 143.653C820.519 136.133 826.532 128.627 833.612 121.973C837.865 117.413 843.185 113.68 847.025 108.787C847.692 105.627 845.052 103.853 842.825 102.24C836.159 98 827.479 96.8666 819.865 98.7866C812.025 100.693 807.879 107.413 799.385 107.867C798.412 105.947 797.479 104 796.572 102.053C799.039 97.84 802.332 92.92 802.865 87.9733C803.745 81.0533 797.505 74.28 791.465 71.88C783.439 69.6533 773.945 72.4533 766.932 76.6C761.452 79.8666 758.812 84.88 754.199 88.9466C752.825 88.2 750.772 87.32 750.172 85.7733C748.639 80.3733 749.012 74.4533 747.665 69.0133C745.999 63.48 741.292 58.5067 735.639 57.0267C726.172 55.12 716.852 58.64 709.639 64.72C703.759 69.6533 700.839 76 696.945 82.4266C694.812 80.8666 692.025 79.4533 690.492 77.2533C688.665 73.32 688.265 68.7333 686.492 64.7467C680.825 53.9867 665.505 50.2533 655.612 57.3333C649.625 61.92 648.452 68.1333 646.479 74.96C645.225 77.9333 645.532 81.7733 641.065 80.6C634.865 76.92 631.092 67.9466 624.212 65.0133C618.505 62.7866 610.985 62.4133 605.785 66.1333C601.972 68.8133 598.385 72.48 596.412 76.7333C595.185 81.68 596.479 87.3866 596.545 92.4533C587.345 88.8666 583.532 80.4266 574.119 77.6266C562.439 73.8933 548.959 81.16 543.279 91.4666C539.212 99.2933 544.399 108 545.625 116.053L543.239 115.56C534.692 113.96 525.652 111.373 516.932 111.707C507.185 112.28 499.145 118.36 494.172 126.48C491.372 131.28 491.319 137.813 494.652 142.373C497.305 146.16 501.385 149.24 504.572 152.64L505.719 154.28C496.625 154.6 487.345 153.373 478.332 154.413C471.292 155.493 466.212 159.293 462.119 164.96C473.719 174.387 485.785 183.067 498.985 190.16C500.519 190.84 502.745 192.053 504.425 191.413C508.105 190.12 511.465 187.64 514.439 185.173C515.612 185.093 516.772 185.013 517.945 184.933C518.759 185.893 519.572 186.853 520.372 187.813C510.625 192.413 502.132 198.613 497.839 208.867C492.559 219.667 493.892 230.027 493.825 241.587C488.879 238.307 489.812 230.573 489.092 225.307C476.999 218.707 466.492 209.64 454.279 203.4C444.705 207.733 435.199 217.013 433.785 227.787C435.345 233.733 443.479 236.32 448.972 235.173C455.665 233.76 461.999 231.093 468.732 229.773C469.252 231 469.772 232.227 470.292 233.453C466.025 237.893 460.825 241.773 457.212 246.76C452.519 253.733 452.412 262.827 455.999 270.293C457.265 272.853 459.399 274.84 462.305 275.293C468.679 276.4 475.772 273.56 481.545 271.067C482.319 274.307 482.265 275.52 480.679 278.453C473.865 282.787 465.612 283.627 458.252 280.133C452.665 277.653 448.932 272.44 447.265 266.68C445.785 258.307 446.745 250.027 450.065 242.213C442.905 240.293 433.839 239.653 429.012 233.32C425.052 228.68 426.812 222.427 429.279 217.533C433.279 209.107 440.039 203.8 447.572 198.707C439.385 193.093 431.119 187.613 422.852 182.12C416.265 177.787 411.985 172.133 406.372 166.613C400.679 160.627 393.665 154.613 389.505 147.467C387.705 144.813 387.185 140.52 389.825 138.24C392.225 135.413 396.972 136.173 400.159 136.933C408.452 139.533 416.585 142.547 424.772 145.4C430.185 147.307 436.519 148.493 441.305 151.587C445.852 154.493 450.292 157.533 454.545 160.84C459.319 156.653 463.772 152.587 469.852 150.373C476.185 147.76 482.532 148.667 489.199 148.693C488.452 145.347 487.399 142.107 486.359 138.853C484.825 134.187 485.639 128.587 485.852 123.747C482.132 121.307 479.012 118.72 474.359 118.453C471.679 118.68 469.012 119.267 466.359 119.72C466.679 126.507 472.052 131.613 468.212 137.84C465.719 142.653 459.319 143.893 455.279 140.32C451.772 137.36 451.572 132.933 452.412 128.733C453.732 125.467 456.332 122.68 458.265 119.76C455.279 118.667 452.132 117.453 448.985 116.96C445.025 116.56 440.799 117.72 436.772 117.987C438.079 116.587 439.439 113.933 441.465 113.6C447.719 112.013 453.879 113.24 459.599 116C463.732 118.427 468.385 114.973 473.025 115C479.079 114.587 483.345 117.427 488.452 120.067C493.932 113 501.505 107.933 510.252 106C518.612 105.44 526.745 107.893 535.172 107.64C534.972 101.827 533.959 95.16 535.545 89.52C538.145 82.0266 545.279 77.4267 551.932 73.84C557.625 70.7467 563.985 70.64 570.265 71.48C576.092 72.4 581.159 76.1733 586.919 76.9866C590.679 71.3066 592.799 65.6667 598.905 61.8667C608.772 55.9067 623.225 55.7467 632.399 63.2C634.652 64.96 636.892 66.72 639.452 68.0267C642.305 61.4267 644.879 55.4133 651.359 51.5733C658.319 47.6933 667.465 46.3467 675.079 48.9867C684.425 52.1733 692.252 58.7466 696.999 67.4266C701.892 61.9466 706.972 56.9866 713.892 54.16C723.999 49.28 735.265 49.92 745.372 54.4C750.132 47.4133 755.665 41.4666 763.799 38.52C767.785 37.24 771.492 39.1866 775.039 36.6133C780.465 33.24 785.825 30.5066 792.452 31.3866Z" fill="#040302"/>
<path d="M776.132 42.9999C777.826 45.7199 779.679 48.7599 780.239 51.9466C778.652 54.1333 777.332 55.96 774.346 55.8133C771.026 56.08 768.892 52.6266 770.412 49.7466C771.799 46.7733 772.039 42.9066 776.132 42.9999Z" fill="white"/>
<path d="M686.492 64.7467C688.266 68.7333 688.666 73.32 690.492 77.2533C692.026 79.4533 694.812 80.8667 696.946 82.4267C700.839 76 703.759 69.6533 709.639 64.72C716.852 58.64 726.172 55.12 735.639 57.0267C741.292 58.5067 745.999 63.48 747.666 69.0133C749.012 74.4533 748.639 80.3733 750.172 85.7733C750.772 87.32 752.826 88.2 754.199 88.9467C758.812 84.88 761.452 79.8667 766.932 76.6C773.946 72.4533 783.439 69.6533 791.466 71.88C797.506 74.28 803.746 81.0533 802.866 87.9733C802.332 92.92 799.039 97.84 796.572 102.053C795.386 102.053 794.186 102.053 792.999 102.053C794.626 96.7867 797.532 91.24 797.799 85.7067C796.652 79.3067 789.212 73.3333 782.572 74.96C777.546 75.9467 772.639 78.12 768.292 80.8267C763.146 84.1467 760.172 90.04 755.266 93.3733C752.172 94.3467 748.146 91.72 747.452 88.5867C745.799 82.5467 746.359 75.0267 743.652 69.36C741.679 65.24 738.172 62.5333 733.666 61.6933C726.652 60.4133 718.866 62.64 713.239 66.92C707.599 71.2267 705.799 79.2533 700.386 83.4C696.572 86.0533 691.959 84.56 689.039 81.36C684.586 75.92 683.639 66.2 677.892 61.7333C671.519 56.96 660.439 56.9867 655.186 63.4933C652.359 67.2533 651.626 72.8933 650.172 77.3333C649.332 79.72 648.679 82.7867 645.959 83.6933C643.719 84.5467 640.852 85.1733 638.772 83.56C633.906 80.0133 630.306 73.7467 625.066 70.72C620.692 68.5333 615.079 68.4933 610.332 69.2C605.719 69.76 602.239 74.44 600.946 78.5867C600.292 82.7067 602.226 87.1467 601.666 91.2933C599.586 94.7067 594.386 96.7733 590.946 94.04C584.332 89.6667 576.946 81.7067 568.826 80.4C563.172 80.6933 557.412 83.5867 552.586 86.4133C548.666 88.72 547.239 92.7333 547.012 97.0933C546.772 103.627 548.359 110.28 549.026 116.787C547.892 116.533 546.759 116.293 545.626 116.053C544.399 108 539.212 99.2933 543.279 91.4667C548.959 81.16 562.439 73.8933 574.119 77.6267C583.532 80.4267 587.346 88.8667 596.546 92.4533C596.479 87.3867 595.186 81.68 596.412 76.7333C598.386 72.48 601.972 68.8133 605.786 66.1333C610.986 62.4133 618.506 62.7867 624.212 65.0133C631.092 67.9467 634.866 76.92 641.066 80.6C645.532 81.7733 645.226 77.9333 646.479 74.96C648.452 68.1333 649.626 61.92 655.612 57.3333C665.506 50.2533 680.826 53.9867 686.492 64.7467Z" fill="#2DA268"/>
<path d="M677.892 61.7333C683.639 66.2 684.586 75.92 689.039 81.36C691.959 84.56 696.572 86.0533 700.386 83.4C705.799 79.2533 707.599 71.2267 713.239 66.92C718.866 62.64 726.652 60.4133 733.666 61.6933C738.172 62.5333 741.679 65.24 743.652 69.36C746.359 75.0267 745.799 82.5467 747.452 88.5867C748.146 91.72 752.172 94.3467 755.266 93.3733C760.172 90.04 763.146 84.1467 768.292 80.8267C772.639 78.12 777.546 75.9467 782.572 74.96C789.212 73.3333 796.652 79.3067 797.799 85.7067C797.532 91.24 794.626 96.7867 792.999 102.053C794.186 102.053 795.386 102.053 796.572 102.053C797.479 104 798.412 105.947 799.386 107.867C801.012 108.453 802.879 109.227 804.626 109.093C811.559 108.107 817.852 102.813 824.719 101.907C830.892 101.32 836.146 104.747 841.226 107.72C834.359 115.867 825.932 122.107 819.666 130.68C817.759 133.2 815.919 135.773 814.079 138.347C807.586 136 801.359 133.133 794.719 131.213C794.892 132.307 795.079 133.4 795.266 134.48C795.626 136.32 796.079 138.133 796.559 139.947C795.546 140.44 794.546 140.933 793.546 141.44C800.346 144.76 806.866 147.173 812.399 152.587C818.439 158.52 824.346 164.893 828.946 172.04C831.426 175.88 833.959 179.707 836.586 183.467C837.359 182.253 838.132 181.04 838.919 179.827C840.012 181.44 841.159 183.027 842.306 184.6C842.812 183.107 843.332 181.613 843.839 180.12C844.906 181.56 846.026 182.947 847.159 184.333C846.626 179.96 845.452 175.907 843.799 171.827C849.559 163.36 857.639 157.64 864.332 150.04C866.626 147.733 869.199 144.48 872.666 144.227C879.372 148.44 880.666 160.36 874.732 165.773C870.959 169.613 865.586 171.72 861.879 175.533C859.519 178.347 859.092 184.36 862.119 186.867C868.959 190.32 878.546 187.973 885.426 191.56C891.812 195.053 895.879 202.587 896.959 209.587C897.812 219.293 890.999 229.48 881.746 232.507C873.466 233.773 865.132 233.307 856.959 235.693C856.652 237.333 856.359 239.04 856.359 240.72C859.439 243.773 864.146 245.453 866.826 248.827C872.692 257.453 865.679 270.907 855.812 272.453C850.212 273.573 843.439 274.4 837.999 272.333C832.266 269.253 829.132 260.68 822.946 258.12C820.719 256.907 818.772 258.8 817.159 260.173C812.999 264.347 813.132 272.307 809.879 276.84C801.332 283.307 786.946 280.707 780.052 272.933C776.106 266.947 777.039 258.267 772.799 252.12C771.119 249.52 768.586 247.813 765.372 248.2C759.532 252.147 757.106 260.8 751.159 264.907C746.906 267.853 740.599 268.187 735.599 268.88C732.119 262.32 728.586 255.8 724.799 249.427C722.132 250.04 719.172 250.48 716.679 251.613C713.279 255.36 711.746 262.013 707.479 265.12C702.466 268.733 695.679 269.96 689.652 268.867C682.639 267.547 676.786 261.44 674.252 254.973C672.239 249.907 670.626 244.693 668.679 239.6C666.199 240.16 663.546 240.547 661.212 241.56C657.279 246.24 655.799 252.387 651.039 256.733C646.719 260.6 641.279 264.453 635.506 265.56C628.359 265.613 621.132 261.733 617.252 255.693C614.159 251.173 611.012 247.92 606.386 244.947C606.306 246.493 606.226 248.04 606.172 249.6C605.519 250.853 604.852 252.107 604.186 253.36C603.506 252.533 602.826 251.72 602.146 250.893C598.492 255.32 595.212 259.88 589.892 262.427C583.292 265.907 574.306 265.173 568.506 260.467C564.186 255.613 565.066 246.667 560.532 241.773C558.252 239.4 554.786 240.053 552.772 242.413C547.559 248.173 545.346 257.827 539.012 263.347C535.199 266.6 530.332 269.573 525.679 271.44C520.986 273.493 515.506 271.413 510.772 270.32C510.172 265.12 510.092 259.68 508.812 254.573C508.026 250.907 503.506 248.44 500.786 246.213C496.252 250.773 492.599 255.973 488.612 260.987C483.879 267.347 474.372 269.467 466.999 271.04C462.199 272.613 460.079 266.8 458.692 263.36C456.052 256.613 459.452 250.493 463.732 245.387C466.812 241.64 471.919 238.173 473.452 233.52C471.652 231.08 469.506 229.093 466.399 228.667C459.146 227.627 451.026 231.173 444.172 231.107C441.732 230.933 438.172 229.453 438.546 226.48C438.492 222.267 441.239 217.92 443.812 214.747C446.826 211.053 451.546 207.693 456.559 208.693C460.786 209.747 464.746 212.947 468.319 215.387C472.452 218.4 476.959 220.933 480.959 224.12C484.679 227.08 486.586 231.973 488.639 236.16C488.759 232.547 488.919 228.92 489.092 225.307C489.812 230.573 488.879 238.307 493.826 241.587C494.959 242.107 496.079 242.613 497.212 243.133C498.492 235.387 497.852 227.68 498.279 219.893C498.612 212.827 503.252 206.587 507.732 201.44C513.092 195.333 520.506 193.187 524.999 186.12L523.572 186.507C522.479 186.893 521.426 187.347 520.372 187.813C519.572 186.853 518.759 185.893 517.946 184.933C516.772 185.013 515.612 185.093 514.439 185.173C515.799 183.853 517.066 182.467 518.346 181.08C513.279 182.28 508.546 184.613 503.506 185.8C500.039 185.96 496.279 183.8 493.212 182.333C484.039 177.28 475.412 171.467 468.266 163.747C474.919 160.48 483.066 156.773 490.612 157.12C496.506 157.907 501.932 159.72 507.999 158.88C507.252 157.333 506.532 155.8 505.719 154.28L504.572 152.64C505.972 152.4 507.359 152.16 508.759 151.92C504.959 147.08 497.146 142.387 497.172 135.827C496.132 127.6 503.319 120.08 510.666 117.72C520.532 114.667 532.666 117.707 542.746 118.933C542.906 117.813 543.079 116.68 543.239 115.56L545.626 116.053C546.759 116.293 547.892 116.533 549.026 116.787C548.359 110.28 546.772 103.627 547.012 97.0933C547.239 92.7333 548.666 88.72 552.586 86.4133C557.412 83.5867 563.172 80.6933 568.826 80.4C576.946 81.7067 584.332 89.6667 590.946 94.04C594.386 96.7733 599.586 94.7067 601.666 91.2933C602.226 87.1467 600.292 82.7067 600.946 78.5867C602.239 74.44 605.719 69.76 610.332 69.2C615.079 68.4933 620.692 68.5333 625.066 70.72C630.306 73.7467 633.906 80.0133 638.772 83.56C640.852 85.1733 643.719 84.5467 645.959 83.6933C648.679 82.7867 649.332 79.72 650.172 77.3333C651.626 72.8933 652.359 67.2533 655.186 63.4933C660.439 56.9867 671.519 56.96 677.892 61.7333Z" fill="#00AB56"/>
<path d="M875.612 61.8667C884.572 61.9067 893.732 64.92 901.786 68.72C901.759 69.64 901.732 70.5467 901.706 71.4534C895.079 76.8134 888.746 82.5067 881.999 87.7467C880.292 89.2667 877.559 91.16 877.346 93.6134C876.719 96.4934 879.439 99.12 881.012 101.24C885.079 105.973 889.066 110.787 893.106 115.547C902.346 109.16 911.599 102.813 920.666 96.2C922.599 103.533 925.732 112.2 923.186 119.64C920.319 130.027 910.492 138.693 899.666 139.453C888.732 139.533 880.999 131.587 873.852 124.413C870.292 128.187 866.626 131.773 862.706 135.173C865.706 131.08 868.546 126.893 871.599 122.84L870.439 123.773C870.879 120.2 870.639 116.667 870.212 113.107C875.519 119.733 881.372 125.787 887.986 131.107C889.012 127.453 890.599 123.12 890.026 119.293C889.626 116.653 887.279 114.24 885.732 112.133C884.666 113.773 883.612 115.413 882.559 117.067C882.239 109.76 878.626 104.707 874.239 99.2C872.572 99.68 870.892 100.173 869.226 100.653C868.186 97.8 867.146 94.9467 866.106 92.1067C867.599 93.5334 869.106 94.96 870.599 96.4C872.279 92.28 873.492 88.4134 876.906 85.3334C882.332 80.3467 888.666 76.4134 894.239 71.5734C886.946 66.9067 878.572 66.5467 870.239 67.6134C863.706 68.3334 859.092 75.4934 858.092 81.4667C856.999 84.84 861.426 87.6267 863.466 89.8267C861.986 89.96 860.519 90.0934 859.052 90.2267C860.812 94.4667 862.399 99.7734 865.679 103.093C868.586 105.173 872.359 106.173 875.652 107.547C871.492 107.987 867.626 107.96 863.492 107.253C862.052 108.72 860.612 110.187 859.252 111.72C859.892 110.6 860.506 109.467 861.106 108.333C859.546 108.92 857.999 109.533 856.479 110.2C858.039 108.2 859.439 106.133 860.866 104.027C856.986 97.3734 852.532 92.2667 853.306 84C852.719 71.52 863.666 62.16 875.612 61.8667Z" fill="#D0D3D4"/>
<path d="M894.239 71.5733C888.666 76.4133 882.332 80.3466 876.906 85.3333C873.492 88.4133 872.279 92.28 870.599 96.4C869.106 94.96 867.599 93.5333 866.106 92.1066C867.146 94.9466 868.186 97.8 869.226 100.653C870.892 100.173 872.572 99.68 874.239 99.2C878.626 104.707 882.239 109.76 882.559 117.067C883.612 115.413 884.666 113.773 885.732 112.133C887.279 114.24 889.626 116.653 890.026 119.293C890.599 123.12 889.012 127.453 887.986 131.107C881.372 125.787 875.519 119.733 870.212 113.107C870.639 116.667 870.879 120.2 870.439 123.773C868.612 125.2 866.626 126.747 864.319 127.267C863.279 126.027 862.359 124.747 861.412 123.44C860.986 125.747 860.599 128.027 860.012 130.293C859.492 127.733 859.092 125.053 858.186 122.6C856.306 121.507 853.932 121.067 851.826 120.573C854.239 119.707 856.719 119.12 859.212 118.52C858.452 117.32 857.719 116.093 856.959 114.893C857.719 113.827 858.479 112.773 859.252 111.72C860.612 110.187 862.052 108.72 863.492 107.253C867.626 107.96 871.492 107.987 875.652 107.547C872.359 106.173 868.586 105.173 865.679 103.093C862.399 99.7733 860.812 94.4666 859.052 90.2266C860.519 90.0933 861.986 89.96 863.466 89.8266C861.426 87.6266 856.999 84.84 858.092 81.4666C859.092 75.4933 863.706 68.3333 870.239 67.6133C878.572 66.5466 886.946 66.9066 894.239 71.5733Z" fill="#B9BDBF"/>
<path d="M819.865 98.7867C827.479 96.8667 836.159 98 842.825 102.24C845.052 103.853 847.692 105.627 847.025 108.787C843.185 113.68 837.865 117.413 833.612 121.973C826.532 128.627 820.519 136.133 814.425 143.653C808.079 140.507 801.732 137.373 795.265 134.48C795.079 133.4 794.892 132.307 794.719 131.213C801.359 133.133 807.585 136 814.079 138.347C815.919 135.773 817.759 133.2 819.665 130.68C825.932 122.107 834.359 115.867 841.225 107.72C836.145 104.747 830.892 101.32 824.719 101.907C817.852 102.813 811.559 108.107 804.625 109.093C802.879 109.227 801.012 108.453 799.385 107.867C807.879 107.413 812.025 100.693 819.865 98.7867Z" fill="#2BA76A"/>
<path d="M861.106 108.333C860.506 109.467 859.892 110.6 859.252 111.72C858.479 112.773 857.719 113.827 856.959 114.893C857.719 116.093 858.452 117.32 859.212 118.52C856.719 119.12 854.239 119.707 851.826 120.573C841.012 129.12 829.532 137.467 822.106 149.093C820.772 148.88 819.439 148.667 818.092 148.467C829.412 133.827 843.599 123.347 856.479 110.2C857.999 109.533 859.546 108.92 861.106 108.333Z" fill="#F5F3F7"/>
<path d="M911.106 109.68C913.559 109.76 916.039 110.213 918.466 110.573C918.292 114.347 918.399 118.773 916.812 122.253C915.146 125.92 911.799 128.987 909.026 131.813C907.386 129.707 905.772 127.587 904.146 125.467C904.306 128.387 904.452 131.32 904.586 134.253C901.759 134.173 898.759 134.28 895.972 133.667C893.559 132.96 891.386 131.08 889.306 129.707C891.492 127.533 893.692 125.387 895.919 123.267C894.319 122.213 892.719 121.16 891.119 120.093C892.212 119.64 893.306 119.16 894.399 118.693C896.892 120.027 899.386 121.347 901.892 122.667C900.572 120.72 899.252 118.773 897.946 116.813C899.946 115.387 901.972 113.733 904.239 112.733C906.319 112.787 908.426 113.36 910.452 113.827C910.639 112.427 910.826 111.053 911.106 109.68Z" fill="#B7BCBE"/>
<path d="M516.932 111.707C525.652 111.373 534.692 113.96 543.239 115.56C543.079 116.68 542.905 117.813 542.745 118.933C532.665 117.707 520.532 114.667 510.665 117.72C503.319 120.08 496.132 127.6 497.172 135.827C497.145 142.387 504.959 147.08 508.759 151.92C507.359 152.16 505.972 152.4 504.572 152.64C501.386 149.24 497.306 146.16 494.652 142.373C491.319 137.813 491.372 131.28 494.172 126.48C499.145 118.36 507.185 112.28 516.932 111.707Z" fill="#30A46C"/>
<path d="M461.319 122.44C462.986 125.507 465.079 128.787 465.772 132.24C466.572 135.56 463.332 138.827 460.026 138.133C457.319 137.467 455.706 134.573 455.852 131.853C455.479 127.907 458.906 125.093 461.319 122.44Z" fill="white"/>
<path d="M861.412 123.44C862.359 124.747 863.279 126.027 864.319 127.267C866.626 126.747 868.612 125.2 870.439 123.773L871.599 122.84C868.546 126.893 865.706 131.08 862.706 135.173C853.106 144.907 843.652 154.827 833.879 164.387L832.172 161.36C836.252 155.227 841.946 150.04 846.786 144.493C851.012 139.587 855.652 135.08 860.012 130.293C860.599 128.027 860.986 125.747 861.412 123.44Z" fill="white"/>
<path d="M854.252 125.2C853.292 131.88 848.679 134.867 844.652 139.68C838.932 145.933 833.199 153 826.172 157.8C826.052 155.507 825.265 153.04 826.505 150.947C829.545 144.8 834.665 140.533 839.692 136.067C844.385 132.04 848.585 127.88 854.252 125.2Z" fill="#96A0A3"/>
<path d="M870.426 138.533C875.652 141.213 880.906 144.8 882.679 150.72C883.999 156.467 882.799 162.827 878.932 167.36C875.066 171.853 869.679 174.16 865.332 177.827C863.172 179.12 864.199 182.347 863.932 184.52C869.186 184.76 874.492 184.56 879.719 185.12C886.906 185.92 893.492 190.88 897.186 196.947C900.732 203.387 902.612 211.413 901.119 218.693C899.652 227.04 890.972 233.48 883.452 236.16C875.079 237.96 865.532 235.453 856.959 235.693C865.132 233.307 873.466 233.773 881.746 232.507C890.999 229.48 897.812 219.293 896.959 209.587C895.879 202.587 891.812 195.053 885.426 191.56C878.546 187.973 868.959 190.32 862.119 186.867C859.092 184.36 859.519 178.347 861.879 175.533C865.586 171.72 870.959 169.613 874.732 165.773C880.666 160.36 879.372 148.44 872.666 144.227C869.199 144.48 866.626 147.733 864.332 150.04C857.639 157.64 849.559 163.36 843.799 171.827C845.452 175.907 846.626 179.96 847.159 184.333C846.026 182.947 844.906 181.56 843.839 180.12C841.959 177.053 840.452 173.893 838.866 170.667C849.412 160 859.706 149.013 870.426 138.533Z" fill="#2DA669"/>
<path d="M796.559 139.947C804.719 142 811.852 146.6 817.625 152.667C825.559 161.027 832.812 170.04 838.919 179.827C838.132 181.04 837.359 182.253 836.585 183.467C833.959 179.707 831.425 175.88 828.945 172.04C824.345 164.893 818.439 158.52 812.399 152.587C806.865 147.173 800.345 144.76 793.545 141.44C794.545 140.933 795.545 140.44 796.559 139.947Z" fill="#2EAC6B"/>
<path d="M399.039 142.76C401.359 143.64 403.652 144.6 405.932 145.56C405.825 147.28 405.719 149 405.612 150.707C403.665 150.133 400.119 150.36 398.905 148.627C396.839 146.453 398.412 145.173 399.039 142.76Z" fill="#81A7C6"/>
<path d="M913.586 145.96C915.239 147.253 916.572 148.96 917.946 150.52C915.666 156.387 913.252 160.72 907.092 163.027C906.746 159 906.172 154.253 907.439 150.36C908.919 147.893 910.146 144.893 913.586 145.96Z" fill="white"/>
<path d="M888.959 145.493C893.932 146.64 898.452 147.6 903.572 147.053C902.839 152.6 902.706 158.147 902.559 163.733C898.652 163.427 895.306 163.813 892.692 160.32C891.146 155.493 890.266 150.413 888.959 145.493Z" fill="white"/>
<path d="M413.066 148.427C419.666 150.267 426.039 152.8 432.652 154.56C432.559 157.187 432.679 160.027 431.986 162.573C429.866 167.013 426.186 169.253 422.252 171.88C418.559 168.067 415.052 164.053 411.572 160.04C410.306 158.413 408.919 157.253 409.279 154.973C409.852 152.6 411.772 150.467 413.066 148.427Z" fill="#FFFCD2"/>
<path d="M427.465 159.973C426.519 162.147 425.052 164.147 423.705 166.107C419.732 162.987 416.225 159.613 413.465 155.347C417.745 154.36 425.905 155.067 427.465 159.973Z" fill="#F2D497"/>
<path d="M478.332 154.413C487.345 153.373 496.625 154.6 505.719 154.28C506.532 155.8 507.252 157.333 507.999 158.88C501.932 159.72 496.505 157.907 490.612 157.12C483.065 156.773 474.919 160.48 468.265 163.747C475.412 171.467 484.039 177.28 493.212 182.333C496.279 183.8 500.039 185.96 503.505 185.8C508.545 184.613 513.279 182.28 518.345 181.08C517.065 182.467 515.799 183.853 514.439 185.173C511.465 187.64 508.105 190.12 504.425 191.413C502.745 192.053 500.519 190.84 498.985 190.16C485.785 183.067 473.719 174.387 462.119 164.96C466.212 159.293 471.292 155.493 478.332 154.413Z" fill="#29A164"/>
<path d="M440.892 160.707C443.292 160.173 445.839 162.64 447.812 163.76C456.692 170.147 466.292 175.4 475.172 181.787C482.559 187.307 490.199 192.333 498.092 197.107C495.119 203.76 492.826 211 488.906 217.16C484.532 215.36 480.479 212.413 476.479 209.893C460.132 199.173 443.986 188.213 428.132 176.787C430.399 174.493 432.852 172.387 435.079 170.04C437.732 167.213 438.932 163.973 440.892 160.707Z" fill="#FCF278"/>
<path d="M443.719 166.373C446.626 167.053 449.466 168.693 451.999 170.24C463.119 177.28 474.012 184.627 484.959 191.947C487.639 193.893 491.066 196.107 492.612 199.107C493.212 203.947 489.212 208.747 486.612 212.493C476.746 207.2 467.946 200.493 458.546 194.453C450.212 189.053 442.359 183.013 434.559 176.893C436.919 172.733 438.866 168.12 443.719 166.373Z" fill="#FACB19"/>
<path d="M523.572 186.507L524.999 186.12C520.506 193.187 513.092 195.333 507.732 201.44C503.252 206.587 498.612 212.827 498.279 219.893C497.852 227.68 498.492 235.387 497.212 243.133C496.079 242.613 494.959 242.107 493.826 241.587C493.892 230.027 492.559 219.667 497.839 208.867C502.132 198.613 510.626 192.413 520.372 187.813C521.426 187.347 522.479 186.893 523.572 186.507Z" fill="#309E63"/>
<path d="M454.279 203.4C466.492 209.64 476.999 218.707 489.092 225.307C488.919 228.92 488.759 232.547 488.639 236.16C486.586 231.973 484.679 227.08 480.959 224.12C476.959 220.933 472.452 218.4 468.319 215.387C464.746 212.947 460.786 209.747 456.559 208.693C451.546 207.693 446.826 211.053 443.812 214.747C441.239 217.92 438.492 222.267 438.546 226.48C438.172 229.453 441.732 230.933 444.172 231.107C451.026 231.173 459.146 227.627 466.399 228.667C469.506 229.093 471.652 231.08 473.452 233.52C471.919 238.173 466.812 241.64 463.732 245.387C459.452 250.493 456.052 256.613 458.692 263.36C460.079 266.8 462.199 272.613 466.999 271.04C474.372 269.467 483.879 267.347 488.612 260.987C492.599 255.973 496.252 250.773 500.786 246.213C503.506 248.44 508.026 250.907 508.812 254.573C510.092 259.68 510.172 265.12 510.772 270.32C515.506 271.413 520.986 273.493 525.679 271.44C530.332 269.573 535.199 266.6 539.012 263.347C545.346 257.827 547.559 248.173 552.772 242.413C554.786 240.053 558.252 239.4 560.532 241.773C565.066 246.667 564.186 255.613 568.506 260.467C574.306 265.173 583.292 265.907 589.892 262.427C595.212 259.88 598.492 255.32 602.146 250.893C602.826 251.72 603.506 252.533 604.186 253.36C601.826 257.493 599.452 262.253 595.319 264.867C590.772 267.8 585.052 269.64 579.652 269.64C574.279 268.973 569.012 266.187 564.986 262.613C560.599 258.88 560.786 251.387 560.052 246.133C557.972 246.36 554.132 245.467 552.932 247.6C550.426 252.053 549.572 257.28 546.626 261.68C540.439 270.96 529.279 276.427 518.239 276.627C513.159 276.72 510.026 273.48 506.172 270.76C506.599 266.013 507.159 261.08 506.666 256.333C506.572 253.653 503.706 251.44 501.146 251.533C498.252 253.533 496.132 256.973 493.946 259.693C490.506 264.227 486.226 267.853 481.546 271.067C475.772 273.56 468.679 276.4 462.306 275.293C459.399 274.84 457.266 272.853 455.999 270.293C452.412 262.827 452.519 253.733 457.212 246.76C460.826 241.773 466.026 237.893 470.292 233.453C469.772 232.227 469.252 231 468.732 229.773C461.999 231.093 455.666 233.76 448.972 235.173C443.479 236.32 435.346 233.733 433.786 227.787C435.199 217.013 444.706 207.733 454.279 203.4Z" fill="#2DA167"/>
<path d="M856.959 235.693C860.612 240.013 865.679 242.133 869.786 245.827C875.466 251.08 874.439 259.8 870.946 265.973C867.292 273.133 859.079 276.16 851.652 277.627C846.492 278.28 840.039 278.707 835.292 276.2C829.919 272.853 827.399 265.267 822.012 261.733C821.132 261.813 820.266 261.987 819.426 262.253C816.586 268.093 817.239 275.96 811.652 280.08C800.479 289.6 780.972 284.587 774.172 272.08C771.372 265.947 770.999 258.773 769.039 252.293C767.826 252.4 766.626 252.507 765.412 252.613C762.306 257.347 759.319 262.373 755.572 266.627C751.306 271.48 744.652 273.667 738.346 273.653C734.799 273.2 729.626 271.333 728.612 267.44C727.092 263.027 726.306 258.32 725.386 253.747C723.359 253.787 721.346 253.813 719.332 253.867C718.746 255.12 718.146 256.373 717.546 257.627C714.599 264.453 710.012 268.56 703.599 272.08C699.386 272.907 694.532 274.293 690.266 273.573C684.146 272.413 678.226 268.933 674.292 264.093C670.892 259.56 670.292 252.733 667.839 247.627C667.199 246.067 665.212 245.24 663.812 244.493C659.746 248 659.759 254.733 655.506 258.453C650.346 263.2 643.786 268.36 636.732 269.613C631.652 270.253 626.092 268.253 621.572 266.053C613.919 262.373 614.066 253.427 606.172 249.6C606.226 248.04 606.306 246.493 606.386 244.947C611.012 247.92 614.159 251.173 617.252 255.693C621.132 261.733 628.359 265.613 635.506 265.56C641.279 264.453 646.719 260.6 651.039 256.733C655.799 252.387 657.279 246.24 661.212 241.56C663.546 240.547 666.199 240.16 668.679 239.6C670.626 244.693 672.239 249.907 674.252 254.973C676.786 261.44 682.639 267.547 689.652 268.867C695.679 269.96 702.466 268.733 707.479 265.12C711.746 262.013 713.279 255.36 716.679 251.613C719.172 250.48 722.132 250.04 724.799 249.427C728.586 255.8 732.119 262.32 735.599 268.88C740.599 268.187 746.906 267.853 751.159 264.907C757.106 260.8 759.532 252.147 765.372 248.2C768.586 247.813 771.119 249.52 772.799 252.12C777.039 258.267 776.106 266.947 780.052 272.933C786.946 280.707 801.332 283.307 809.879 276.84C813.132 272.307 812.999 264.347 817.159 260.173C818.772 258.8 820.719 256.907 822.946 258.12C829.132 260.68 832.266 269.253 837.999 272.333C843.439 274.4 850.212 273.573 855.812 272.453C865.679 270.907 872.692 257.453 866.826 248.827C864.146 245.453 859.439 243.773 856.359 240.72C856.359 239.04 856.652 237.333 856.959 235.693Z" fill="#2EA468"/>
<path d="M949.359 244.507C947.919 250.453 944.159 253.053 939.279 256.12C938.705 253.893 938.065 251.6 937.732 249.333C941.305 246.88 945.239 245.667 949.359 244.507Z" fill="#84A8CC"/>
<path d="M929.852 249.987C931.319 253.147 935.719 257.387 935.079 260.88C932.279 265.347 928.252 269.187 924.852 273.227C922.719 275.133 921.079 278.387 917.786 276.64C915.026 274.347 912.706 271.267 911.546 267.853C910.706 263.933 910.999 259.707 910.866 255.707C917.212 253.787 923.599 252.2 929.852 249.987Z" fill="#FFFBD2"/>
<path d="M501.145 251.533C503.705 251.44 506.572 253.653 506.665 256.333C507.159 261.08 506.599 266.013 506.172 270.76C503.652 269.48 501.719 268.187 499.039 269.987C493.292 273.6 488.265 278.293 482.652 282.133C482.012 280.893 481.359 279.667 480.679 278.453C482.265 275.52 482.319 274.307 481.545 271.067C486.225 267.853 490.505 264.227 493.945 259.693C496.132 256.973 498.252 253.533 501.145 251.533Z" fill="#171D19"/>
<path d="M904.439 255C904.812 258.8 905.039 262.6 905.399 266.387C903.466 265.107 901.412 263.973 899.306 263C900.172 259.52 901.852 257.427 904.439 255Z" fill="#43222B"/>
<path d="M931.226 257.253C928.839 263.627 924.292 267.653 919.119 271.76C917.599 269.44 915.479 267.013 914.919 264.227C914.746 262.2 914.039 260.187 916.159 258.987C920.892 255.36 925.786 256.08 931.226 257.253Z" fill="#F1DA9F"/>
<path d="M717.545 257.627C718.185 258.08 718.839 258.533 719.479 258.987C723.519 261.547 724.439 264.307 725.412 268.827C717.972 272.8 711.345 277.827 704.305 282.427C703.852 281.387 703.385 280.347 702.905 279.32L700.852 279.307C703.985 276.867 706.785 274.067 709.479 271.16C707.519 271.44 705.545 271.733 703.599 272.08C710.012 268.56 714.599 264.453 717.545 257.627Z" fill="#1F2018"/>
<path d="M661.825 260.933C667.905 264.227 670.732 269.76 676.332 273.867C683.692 278.667 692.172 280.2 700.852 279.307L702.905 279.32C703.385 280.347 703.852 281.387 704.305 282.427C700.199 285.52 699.012 289.76 696.212 293.84C695.199 295.68 693.625 296.173 691.639 296.413C687.545 296.84 683.385 296.84 679.265 296.933C678.292 290.507 677.119 283.56 673.759 277.893C670.772 272.773 665.772 268.507 661.199 264.827C661.412 263.533 661.625 262.24 661.825 260.933Z" fill="#F9E66C"/>
<path d="M556.599 262.373C560.319 265.387 563.946 268.52 567.492 271.747C563.426 276.427 559.666 281 557.439 286.867C555.932 290.413 555.172 294.693 552.946 297.84C542.332 298.44 531.612 298.12 520.972 298.12C508.946 297.707 497.172 298.253 485.226 296.453L484.519 294.573C488.039 286.467 493.199 279.627 498.906 272.96C503.666 275.733 508.092 279.333 513.092 281.627C521.826 283.2 530.932 282.587 538.626 277.76C545.826 273.733 550.292 267.36 556.599 262.373Z" fill="#FBE565"/>
<path d="M607.546 262.64C611.879 266.16 615.759 269.787 620.972 272.053C627.906 275.507 636.092 276.16 643.626 274.693C648.052 273.853 651.319 270.973 655.426 269.573C666.426 276.013 670.372 287.76 669.999 300C670.759 312.8 665.306 324.173 657.812 334.16C650.906 343 641.212 348.907 630.479 351.947C619.772 355.453 608.439 356.467 597.399 353.92C583.186 349.867 570.732 340.48 565.359 326.373C561.852 317.867 562.332 308.987 562.706 299.92C563.679 290.827 568.412 280.373 576.532 275.56C582.479 274.613 588.172 275.493 593.959 272.933C599.719 270.773 603.146 266.613 607.546 262.64Z" fill="#FEFEFE"/>
<path d="M899.306 263C901.412 263.973 903.466 265.107 905.399 266.387C907.226 271.813 909.972 276.733 912.826 281.667C906.026 287.12 898.492 291.067 890.999 295.44C883.426 299.747 876.399 304.347 868.439 308C863.839 301.613 859.652 295.013 856.146 287.947C864.172 281.787 873.452 278.2 881.959 272.867C887.639 269.373 893.666 266.573 899.306 263Z" fill="#EB1C3E"/>
<path d="M557.092 267.733C558.599 269.333 561.746 270.453 560.679 273.107C559.572 276.747 557.172 280.08 555.439 283.453C553.679 286.587 552.266 290.2 549.946 292.96C547.692 294.04 544.852 294.12 542.399 294.307C534.466 294.667 526.519 294.64 518.586 294.227C509.106 293.667 499.679 294.293 490.226 293.173C492.319 287.173 494.866 282.787 499.306 278.213C507.506 282.4 513.906 287.44 523.706 286.44C537.506 285.533 546.452 275.027 557.092 267.733Z" fill="#FBCB16"/>
<path d="M764.146 268.827C767.346 273.107 768.999 277.64 773.119 281.187C777.359 284.787 782.866 287.2 787.999 289.253C792.159 291 796.906 290.64 801.066 292.067C804.519 294.333 806.212 298.773 806.826 302.693C809.106 321.773 799.292 342.533 782.666 352.387C774.359 356.893 765.212 360.507 755.666 360.907C742.719 361.627 730.106 360.147 719.439 352.227C710.786 345.88 703.999 337.56 702.559 326.627C701.399 317.72 700.412 307.347 704.132 298.96C707.532 289.827 713.786 279.56 722.826 275.133C727.372 274.053 732.519 278.8 737.172 279.293C742.039 279.747 747.546 279.907 752.066 277.813C756.959 275.827 760.399 272.373 764.146 268.827Z" fill="#FEFEFE"/>
<path d="M824.932 276.48C829.559 279.533 834.252 282.133 839.519 283.92C843.972 285.307 846.119 288.693 848.732 292.24C852.666 297.933 856.226 303.893 859.586 309.933C845.252 310.52 830.946 310.253 816.599 310.213C815.946 302.693 813.879 296.147 810.706 289.36C817.066 286.467 821.052 282.133 824.932 276.48Z" fill="#FDEB70"/>
<path d="M679.732 281.573C685.625 281.36 691.759 282.347 697.585 283.173C695.625 289.04 692.132 294.053 685.279 293.6C681.172 290.733 680.012 286.32 679.732 281.573Z" fill="#F7C914"/>
<path d="M626.692 282.467C629.919 281.347 633.852 284 635.892 286.36C638.359 289.013 637.879 292.547 637.946 295.92C638.266 300.813 634.399 305.147 630.212 307.093C621.466 309.52 611.466 296.973 617.026 289.28C619.159 285.92 622.906 283.547 626.692 282.467Z" fill="#010101"/>
<path d="M824.332 283.187C825.599 282.267 827.772 283.333 829.159 283.653C837.279 286.787 844.759 289.213 848.999 297.493C850.132 299.92 853.372 305.373 848.759 305.973C841.959 307.187 831.946 307.533 825.186 306.613C819.559 306.16 818.186 300 817.052 295.493C815.266 289.96 820.159 285.8 824.332 283.187Z" fill="#F9CB18"/>
<path d="M631.212 286.827C632.559 291.867 633.012 296.013 631.212 300.987C629.732 299.6 628.265 298.187 626.799 296.787C626.132 298.653 625.452 300.507 624.759 302.373C622.345 299.293 618.985 297.067 620.159 292.68C621.479 287.307 626.719 287.293 631.212 286.827Z" fill="#272626"/>
<path d="M741.639 288.707C748.092 285.667 756.559 288.813 760.185 294.76C762.852 303.12 754.759 312.373 746.305 311.64C741.812 311.84 737.572 309.507 735.159 305.773C733.545 299.093 734.799 291.76 741.639 288.707Z" fill="black"/>
<path d="M745.426 292C750.292 290.6 756.866 294.107 755.612 299.733C754.119 306.8 744.292 309.2 739.452 304.2C737.212 302.347 738.652 298.373 739.466 296.093C740.439 293.413 742.879 292.587 745.426 292Z" fill="#212121"/>
<path d="M691.919 301.667C694.572 307.32 693.639 312.64 693.799 318.693C693.626 325.867 695.292 333.733 699.479 339.68C699.079 340.92 698.706 342.16 698.332 343.413C693.892 341.627 689.946 339.787 684.999 340.64C679.639 341.693 674.279 343.067 668.972 344.4C667.452 342.747 665.932 341.107 664.359 339.52C670.026 332.507 674.079 324.253 676.279 315.52C677.172 312.147 677.599 308.587 678.772 305.307C682.839 303.373 687.532 302.56 691.919 301.667Z" fill="#F8DD5D"/>
<path d="M479.572 304.653C493.719 304.107 508.145 304.88 522.305 304.707C532.732 304.44 542.905 306.453 553.359 305.907C554.732 316.04 556.132 327.827 561.745 336.587C567.612 346.44 578.079 353.453 588.612 357.493C599.252 361.587 609.852 361.32 621.052 360.68C631.465 359.52 641.652 355.973 650.812 350.933C651.505 353.133 652.185 355.28 652.732 357.52C651.652 363.853 650.239 369.56 652.225 375.933C653.759 383.547 659.452 388.96 666.732 391.227C674.145 393.573 682.679 393.6 690.305 392.333C698.452 389.84 706.599 384.04 710.279 376.173C713.319 369.613 712.172 363.28 711.985 356.32L713.879 356.747C728.092 366.627 746.972 368.653 763.799 367.027C773.372 365.52 782.652 361.627 790.879 356.573C799.319 351.533 805.412 342.693 809.332 333.853C811.665 328.827 812.759 323.4 814.839 318.307C817.199 317.707 819.812 317.76 822.225 317.747C836.079 317.96 849.919 317.813 863.772 317.96C871.639 332.693 875.559 349.987 875.385 366.667C875.865 388.4 873.439 410.8 867.092 431.627C863.105 443.627 858.825 455.253 852.919 466.467C847.199 477.147 841.879 487.747 833.959 497.027C826.279 505.96 818.039 515.28 808.439 522.067C793.052 532.92 780.012 544.08 761.585 549.707C754.319 552.067 746.879 553.4 739.399 554.813C736.252 555.6 731.959 556.067 729.879 558.787C728.932 565.293 729.732 572.227 730.599 578.72C731.345 585.36 731.199 592.533 732.785 599.04C733.625 600.013 734.585 600.573 735.652 600.72C741.212 601.467 747.292 599.533 752.959 599.307C759.132 599.04 765.465 598.88 771.599 599.733C778.559 601.253 785.865 603.693 791.612 608.027C795.372 610.973 798.945 614.907 799.065 619.96C799.399 625.533 796.265 630.36 792.372 634.053C787.759 638.587 781.132 640.387 775.052 641.96C767.292 644.213 758.465 643.333 750.305 643.48C739.505 643.8 729.159 640.733 718.585 638.133C711.332 635.88 704.159 634.76 699.865 627.787C695.132 619.573 693.879 609.027 692.119 599.813C690.225 590.987 691.025 582.387 690.732 573.48C690.652 568.813 687.559 565.827 685.292 562.053C684.705 560.933 684.132 559.813 683.585 558.693C688.279 561.36 692.745 563.56 694.332 569.187C696.012 576.16 694.719 584.04 694.985 591.213C695.025 601.333 697.812 610.467 700.919 619.973C702.359 624.16 704.052 627.947 708.119 630.173C713.999 633.267 721.052 634.387 727.412 636.307C738.959 639.707 750.345 639.787 762.279 639.587C770.732 639.227 780.159 637.627 787.412 633.027C792.532 629.8 795.972 623.853 794.905 617.72C793.959 613.84 789.599 610.973 786.332 609.133C775.812 603 762.052 603.16 750.265 603.96C745.079 604.2 738.399 605.667 733.492 603.547C729.652 601.827 729.119 596.213 728.372 592.6C727.132 583.213 724.932 573.493 725.385 564.027C725.599 559.227 727.959 553.733 732.879 552.173C739.025 550.36 745.519 549.973 751.719 548.24C768.759 544.253 784.839 534.973 798.545 524.28C807.052 517.853 815.585 512.48 822.625 504.293C829.639 496.067 837.252 487.947 842.172 478.453C847.652 468.04 853.425 458.173 857.412 447.04C860.892 437.147 865.785 429.107 866.999 418.533C867.999 409.04 871.305 400.24 871.625 390.707C872.092 378.56 872.212 366.333 871.305 354.213C870.839 346.76 867.985 340.72 866.319 333.36C865.212 329.333 863.932 323.307 859.879 321.24C856.119 320.107 851.745 320.587 847.852 320.587C837.732 320.8 827.759 320.2 817.705 321.8C814.545 332.16 810.012 341.92 803.519 350.627C799.959 355.333 795.279 358.413 790.199 361.253C783.745 364.747 777.932 368.253 770.505 369.2C763.145 370.093 755.345 371.253 747.972 370.333C742.559 369.68 737.092 369.413 731.679 368.667C726.745 367.96 722.225 365.88 717.612 364.067C716.212 370.173 715.239 376 711.639 381.28C707.905 386.707 702.065 390.867 696.505 394.24C690.799 397.787 683.399 397.4 676.932 397.173C665.932 396.84 653.705 390.427 649.092 380.093C646.385 373.16 647.732 364.32 647.665 356.973C640.492 359.8 634.199 363.173 626.372 364C611.705 365.573 596.559 365.84 582.999 359.2C574.359 354.973 565.279 349.08 560.305 340.627C554.279 330.947 551.812 320.507 548.665 309.707C526.799 308.68 504.825 308.52 482.919 308.627C480.279 313.027 477.985 317.52 476.865 322.573C474.945 331.333 472.052 339.187 471.319 348C470.652 355.907 469.932 364.093 470.532 372C470.705 375.56 471.265 379.453 470.585 382.973C466.785 386.8 459.292 386.4 454.319 386.4C447.732 386 439.759 385.947 435.119 380.507C429.345 374.493 429.839 367.04 425.972 360.333C423.532 356.653 419.092 352.307 414.452 352.08C410.745 352.24 409.692 356.333 410.985 359.28C414.119 365.453 422.612 368.96 426.625 374.293C428.385 378.28 427.719 384.893 422.092 384.853C415.785 384.027 410.225 380.227 403.732 379.667C396.719 378.573 390.185 380.133 383.719 382.76C385.039 385.28 385.319 387.893 388.412 388.773C395.812 391.467 402.052 388.96 409.372 389.28C414.692 389.32 419.319 397.053 415.812 401.373C409.559 406.387 398.999 405.947 392.132 409.84C388.905 412.307 387.159 417.013 385.225 420.48C387.892 421.773 390.492 424.133 393.652 423.267C403.225 421.16 408.292 414.813 415.825 409.56C418.785 407.227 421.959 409.213 424.519 411.093C427.599 413.067 426.332 418.533 424.492 421.013C419.799 427.507 413.145 431.587 411.532 440.133C410.292 446.067 413.545 452.133 419.652 453.36C428.212 451.373 434.852 443.053 437.452 434.987C439.465 429.773 436.252 423.56 434.545 418.627C437.252 416.867 440.372 414.133 443.745 414.16C449.452 414.107 455.239 415.4 460.865 416.333C466.545 417.453 473.639 418.893 477.985 422.987C481.025 425.76 481.265 429.6 481.905 433.427C483.612 449.36 490.945 464.96 500.732 477.533C509.199 489.827 518.972 501.027 530.959 510.013C538.679 515.573 546.425 521.96 555.039 526.013C568.972 532.507 581.892 539.387 596.665 544.147C603.812 546.227 611.159 547.667 618.452 549.12C625.759 550.56 633.359 549.88 640.572 551.493C644.652 552.413 647.639 556 649.252 559.667C651.052 564.107 651.479 569.253 652.465 573.933C654.399 583.507 656.999 592.907 660.039 602.173C660.452 603.587 660.732 605 660.892 606.44C659.252 610.347 655.465 612.293 651.492 613.053C637.879 615.573 622.185 612.36 609.132 617.333C601.079 620.307 593.359 622.613 588.772 630.52C585.612 634.907 591.092 640.173 594.812 641.973C609.599 647.6 625.372 650.333 641.039 646.787C650.625 644.493 660.572 643.267 669.119 638.787C674.212 636.093 679.719 633.52 684.119 629.773C686.119 628.133 685.999 625.773 685.865 623.413C685.225 616.987 681.972 610.84 680.679 604.4C679.479 598.667 680.052 592.48 679.852 586.6C679.679 579.467 678.012 572.107 676.865 564.973C678.292 564.493 679.719 564 681.145 563.493C681.625 568.52 682.519 573.6 682.599 578.6C682.772 586.56 682.319 594.267 684.239 602.013C686.412 611.253 689.025 620.387 691.479 629.547C681.199 636.667 669.732 644.173 657.505 647.253C648.559 649.8 639.665 651.76 630.305 651.587C616.052 651.813 602.865 651.307 590.172 644.093C586.372 642.067 583.279 637.627 583.252 633.307C584.305 627.56 589.452 622.76 594.319 619.947C600.812 616.307 607.932 613.653 615.105 611.693C629.119 607.987 643.052 611.64 656.879 608.44C656.612 604.827 655.985 601.56 654.745 598.147C650.545 586.187 648.932 573.573 645.852 561.453C644.079 555.547 638.545 554.147 633.039 554.027C613.425 553.613 594.305 548.64 576.505 540.533C566.105 535.667 555.892 531.64 546.172 525.44C534.759 518.24 524.945 509.693 514.892 500.733C508.119 494.653 503.932 487.56 497.972 480.333C487.945 468.12 481.612 452.64 478.279 437.32C477.279 433.147 478.332 427.733 474.932 424.707C471.585 421.44 465.305 421.28 460.919 420.6C454.105 420.053 447.505 417.707 440.705 417.733C438.892 420.613 440.825 423.8 441.319 426.813C443.452 434.947 439.412 443.133 433.879 448.907C429.692 453.08 424.599 457.467 418.252 456.84C414.572 456.947 411.692 454.067 409.852 451.16C407.585 447.213 407.999 441.667 408.612 437.32C410.812 428.027 417.785 424.147 423.145 417.227C423.705 414.027 422.012 412.853 419.665 411.187C413.852 414.427 410.065 419.853 404.172 423.187C400.212 425.387 395.852 427.147 391.439 428.173C386.119 428.973 382.199 425.08 381.705 419.96C383.279 411.947 389.705 405.453 397.505 403.267C403.025 401.52 409.865 401.573 414.839 398.627C414.932 397.04 414.985 395.453 414.959 393.867C407.105 393.533 399.319 394.573 391.532 393.907C387.319 393.373 382.679 392.227 379.959 388.68C378.319 386.813 378.545 383.907 380.465 382.32C384.879 378 390.559 374.8 396.932 375.187C405.425 374.96 412.385 378.213 420.265 380.613C422.532 381.32 424.319 380.04 426.425 379.32C420.425 373.253 412.372 368.493 407.479 361.507C403.972 356.267 405.999 349.173 412.132 347.32C418.479 345.84 423.839 351.76 427.652 356C433.625 362.733 433.319 372.013 437.865 379C441.839 381.333 447.119 381.76 451.585 382.653C456.972 383.693 461.959 383.387 467.239 382C463.185 367.32 467.079 352.2 469.319 337.56C470.972 325.76 475.479 315.787 479.572 304.653Z" fill="#F8DA5C"/>
<path d="M548.665 309.707C551.812 320.507 554.279 330.947 560.305 340.627C565.279 349.08 574.359 354.973 582.999 359.2C596.559 365.84 611.705 365.573 626.372 364C634.199 363.173 640.492 359.8 647.665 356.973C647.732 364.32 646.385 373.16 649.092 380.093C653.705 390.427 665.932 396.84 676.932 397.173C683.399 397.4 690.799 397.787 696.505 394.24C702.065 390.867 707.905 386.707 711.639 381.28C715.239 376 716.212 370.173 717.612 364.067C722.225 365.88 726.745 367.96 731.679 368.667C737.092 369.413 742.559 369.68 747.972 370.333C755.345 371.253 763.145 370.093 770.505 369.2C777.932 368.253 783.745 364.747 790.199 361.253C795.279 358.413 799.959 355.333 803.519 350.627C810.012 341.92 814.545 332.16 817.705 321.8C827.759 320.2 837.732 320.8 847.852 320.587C851.745 320.587 856.119 320.107 859.879 321.24C863.932 323.307 865.212 329.333 866.319 333.36C867.985 340.72 870.839 346.76 871.305 354.213C872.212 366.333 872.092 378.56 871.625 390.707C871.305 400.24 867.999 409.04 866.999 418.533C865.785 429.107 860.892 437.147 857.412 447.04C853.425 458.173 847.652 468.04 842.172 478.453C837.252 487.947 829.639 496.067 822.625 504.293C815.585 512.48 807.052 517.853 798.545 524.28C784.839 534.973 768.759 544.253 751.719 548.24C745.519 549.973 739.025 550.36 732.879 552.173C727.959 553.733 725.599 559.227 725.385 564.027C724.932 573.493 727.132 583.213 728.372 592.6C729.119 596.213 729.652 601.827 733.492 603.547C738.399 605.667 745.079 604.2 750.265 603.96C762.052 603.16 775.812 603 786.332 609.133C789.599 610.973 793.959 613.84 794.905 617.72C795.972 623.853 792.532 629.8 787.412 633.027C780.159 637.627 770.732 639.227 762.279 639.587C750.345 639.787 738.959 639.707 727.412 636.307C721.052 634.387 713.999 633.267 708.119 630.173C704.052 627.947 702.359 624.16 700.919 619.973C697.812 610.467 695.025 601.333 694.985 591.213C694.719 584.04 696.012 576.16 694.332 569.187C692.745 563.56 688.279 561.36 683.585 558.693C684.132 559.813 684.705 560.933 685.292 562.053C683.905 562.533 682.519 563.013 681.145 563.493C679.719 564 678.292 564.493 676.865 564.973C678.012 572.107 679.679 579.467 679.852 586.6C680.052 592.48 679.479 598.667 680.679 604.4C681.972 610.84 685.225 616.987 685.865 623.413C685.999 625.773 686.119 628.133 684.119 629.773C679.719 633.52 674.212 636.093 669.119 638.787C660.572 643.267 650.625 644.493 641.039 646.787C625.372 650.333 609.599 647.6 594.812 641.973C591.092 640.173 585.612 634.907 588.772 630.52C593.359 622.613 601.079 620.307 609.132 617.333C622.185 612.36 637.879 615.573 651.492 613.053C655.465 612.293 659.252 610.347 660.892 606.44C660.732 605 660.452 603.587 660.039 602.173C656.999 592.907 654.399 583.507 652.465 573.933C651.479 569.253 651.052 564.107 649.252 559.667C647.639 556 644.652 552.413 640.572 551.493C633.359 549.88 625.759 550.56 618.452 549.12C611.159 547.667 603.812 546.227 596.665 544.147C581.892 539.387 568.972 532.507 555.039 526.013C546.425 521.96 538.679 515.573 530.959 510.013C518.972 501.027 509.199 489.827 500.732 477.533C490.945 464.96 483.612 449.36 481.905 433.427C481.265 429.6 481.025 425.76 477.985 422.987C473.639 418.893 466.545 417.453 460.865 416.333C455.239 415.4 449.452 414.107 443.745 414.16C440.372 414.133 437.252 416.867 434.545 418.627C436.252 423.56 439.465 429.773 437.452 434.987C434.852 443.053 428.212 451.373 419.652 453.36C413.545 452.133 410.292 446.067 411.532 440.133C413.145 431.587 419.799 427.507 424.492 421.013C426.332 418.533 427.599 413.067 424.519 411.093C421.959 409.213 418.785 407.227 415.825 409.56C408.292 414.813 403.225 421.16 393.652 423.267C390.492 424.133 387.892 421.773 385.225 420.48C387.159 417.013 388.905 412.307 392.132 409.84C398.999 405.947 409.559 406.387 415.812 401.373C419.319 397.053 414.692 389.32 409.372 389.28C402.052 388.96 395.812 391.467 388.412 388.773C385.319 387.893 385.039 385.28 383.719 382.76C390.185 380.133 396.719 378.573 403.732 379.667C410.225 380.227 415.785 384.027 422.092 384.853C427.719 384.893 428.385 378.28 426.625 374.293C422.612 368.96 414.119 365.453 410.985 359.28C409.692 356.333 410.745 352.24 414.452 352.08C419.092 352.307 423.532 356.653 425.972 360.333C429.839 367.04 429.345 374.493 435.119 380.507C439.759 385.947 447.732 386 454.319 386.4C459.292 386.4 466.785 386.8 470.585 382.973C471.265 379.453 470.705 375.56 470.532 372C469.932 364.093 470.652 355.907 471.319 348C472.052 339.187 474.945 331.333 476.865 322.573C477.985 317.52 480.279 313.027 482.919 308.627C504.825 308.52 526.799 308.68 548.665 309.707Z" fill="#FECB1A"/>
<path d="M688.945 307.76C690.639 314.68 691.092 322.173 691.785 329.307C691.879 331.68 692.385 334.653 691.092 336.76C684.465 338.52 677.092 338.32 670.279 338.56C673.105 333.013 676.599 327.533 678.585 321.627C679.879 317.653 679.465 313.907 679.105 309.853C682.385 309.093 685.625 308.347 688.945 307.76Z" fill="#FACE18"/>
<path d="M664.359 339.52C665.932 341.107 667.452 342.747 668.972 344.4C661.812 347.053 657.905 352.333 652.732 357.52C652.185 355.28 651.505 353.133 650.812 350.933C655.825 347.733 660.225 343.787 664.359 339.52Z" fill="#FFFE8B"/>
<path d="M699.479 339.68C706.292 343.933 709.732 350.24 713.879 356.747L711.985 356.32C709.545 355.827 707.092 355.4 704.652 354.947C705.199 360.493 705.985 366.28 705.572 371.84C705.359 376.44 702.465 380.493 698.705 382.96C696.172 384.387 692.972 384.88 690.159 385.573C696.412 380.6 702.492 375.76 704.105 367.453C704.919 362.04 701.185 356.013 698.385 351.627C699.452 351.613 700.532 351.613 701.612 351.6C700.505 348.88 699.412 346.147 698.332 343.413C698.705 342.16 699.079 340.92 699.479 339.68Z" fill="#212421"/>
<path d="M684.999 340.64C689.946 339.787 693.892 341.627 698.332 343.413C699.412 346.147 700.506 348.88 701.612 351.6C700.532 351.613 699.452 351.613 698.386 351.627C695.572 349.307 692.932 347.147 689.079 347.12C678.479 346.187 668.599 351.827 662.079 359.853C659.119 363.2 659.999 369.307 660.146 373.467C660.412 378.267 662.746 382.24 666.946 384.6C673.972 388.8 682.626 387.413 690.159 385.573C692.972 384.88 696.172 384.387 698.706 382.96C702.466 380.493 705.359 376.44 705.572 371.84C705.986 366.28 705.199 360.493 704.652 354.947C707.092 355.4 709.546 355.827 711.986 356.32C712.172 363.28 713.319 369.613 710.279 376.173C706.599 384.04 698.452 389.84 690.306 392.333C682.679 393.6 674.146 393.573 666.732 391.227C659.452 388.96 653.759 383.547 652.226 375.933C650.239 369.56 651.652 363.853 652.732 357.52C657.906 352.333 661.812 347.053 668.972 344.4C674.279 343.067 679.639 341.693 684.999 340.64Z" fill="#080404"/>
<path d="M689.079 347.12C692.932 347.147 695.572 349.307 698.385 351.627C701.185 356.013 704.919 362.04 704.105 367.453C702.492 375.76 696.412 380.6 690.159 385.573C682.625 387.413 673.972 388.8 666.945 384.6C662.745 382.24 660.412 378.267 660.145 373.467C659.999 369.307 659.119 363.2 662.079 359.853C668.599 351.827 678.479 346.187 689.079 347.12Z" fill="#458BC8"/>
<path d="M805.772 386.013L807.706 387.48C803.279 392.92 797.546 399.28 790.292 400.507C784.466 400.667 779.332 397.547 775.012 393.933C772.279 391.6 769.786 390.12 766.332 388.987C766.346 395.227 770.986 396.613 773.759 401.333C774.959 411.453 767.092 422.347 762.119 430.72C761.346 431.613 760.559 432.493 759.772 433.387C758.639 432.92 757.492 432.48 756.359 432.027C753.066 425.333 746.946 419.947 740.372 416.547C734.799 413.507 727.719 413.293 721.572 414.187C717.932 415.133 715.679 419.987 714.172 423.08C713.159 423.053 712.146 423.013 711.132 422.987C713.119 418.493 714.359 413.88 719.146 411.56C726.026 408.187 735.426 410.56 742.039 413.64C749.159 416.827 753.559 422.227 758.732 427.773C764.572 421.707 768.852 413.827 769.492 405.347C769.066 400.493 765.186 395.747 762.626 391.72C764.546 390.093 767.079 386.227 769.946 387.32C776.599 389.133 782.039 396.68 788.852 397.507C795.159 396.12 800.372 389.48 805.772 386.013Z" fill="#FEEC6B"/>
<path d="M807.705 387.48C808.572 388.187 809.425 388.907 810.265 389.64C809.892 390.773 809.492 391.88 809.079 392.987C805.599 396.893 802.012 400.467 797.239 402.747C792.799 405.04 788.319 405.24 783.479 405.96C781.679 412.173 779.719 419.76 774.825 424.293C769.412 426.987 766.065 431.427 762.545 436.16C762.385 434.347 762.239 432.533 762.119 430.72C767.092 422.347 774.959 411.453 773.759 401.333C770.985 396.613 766.345 395.227 766.332 388.987C769.785 390.12 772.279 391.6 775.012 393.933C779.332 397.547 784.465 400.667 790.292 400.507C797.545 399.28 803.279 392.92 807.705 387.48Z" fill="#0C0401"/>
<path d="M814.132 387.973C813.159 395.467 807.959 401.027 801.479 404.427C796.919 406.8 791.506 407.653 787.146 410.307C784.346 412.68 783.586 417.627 782.412 421C788.506 423.253 795.279 424.88 800.839 428.28C805.519 431.48 809.186 438.16 807.532 443.893C805.506 452.6 800.639 460.4 793.852 466.213C790.159 469.627 785.292 472.387 782.292 476.413C781.652 479.28 783.986 482.627 785.212 485.133C787.426 488.853 788.612 492.827 789.479 497.04C788.506 495.867 787.546 494.693 786.612 493.507C781.879 487.693 778.372 481.133 775.572 474.227C788.012 468.093 798.479 459.667 803.359 446.28C805.599 440.96 803.519 434.707 798.892 431.44C795.146 428.907 790.732 427.147 786.319 426.16C783.266 425.493 780.452 427.187 777.772 428.427C776.772 427.053 775.812 425.667 774.826 424.293C779.719 419.76 781.679 412.173 783.479 405.96C788.319 405.24 792.799 405.04 797.239 402.747C802.012 400.467 805.599 396.893 809.079 392.987C810.692 391.24 812.399 389.6 814.132 387.973Z" fill="#FAE05E"/>
<path d="M721.572 414.187C727.719 413.293 734.799 413.507 740.372 416.547C746.946 419.947 753.066 425.333 756.359 432.027C756.839 438.187 757.772 443.947 760.546 449.56C766.719 442.84 771.412 434.92 777.772 428.427C780.452 427.187 783.266 425.493 786.319 426.16C790.732 427.147 795.146 428.907 798.892 431.44C803.519 434.707 805.599 440.96 803.359 446.28C798.479 459.667 788.012 468.093 775.572 474.227C778.372 481.133 781.879 487.693 786.612 493.507C786.172 495.093 785.746 496.693 785.306 498.28C783.399 498.093 781.506 497.893 779.599 497.68C775.306 492.72 772.452 486.933 769.066 481.187C766.879 477.453 764.946 473.68 763.892 469.467C769.812 468.133 775.332 467.013 780.319 463.307C785.866 459.147 790.666 453.56 793.732 447.333C795.399 443.853 796.306 438.893 792.892 436.12C790.532 434.107 787.239 431.6 784.039 433.307C777.812 436.107 771.226 440.867 768.479 447.333C766.786 451.173 765.279 455.08 763.319 458.787C761.599 458.387 759.812 458.053 758.132 457.493C756.026 453.867 755.746 449.173 754.346 445.213C750.946 433.387 741.439 423.387 729.812 419.4C724.892 418.267 721.239 425.613 723.306 429.72C726.612 437.6 733.826 444.173 739.319 450.613C738.132 451.88 736.946 453.133 735.746 454.387C725.812 450.467 715.639 447.947 704.879 448.6C700.692 448.933 696.626 453.12 696.346 457.267C697.319 459.893 698.666 462.547 701.532 463.44C709.332 466 716.972 466.267 725.079 466.267C728.866 466.2 732.319 467.32 735.812 468.6C734.479 470.893 734.399 473.333 731.226 473.6C721.066 474.16 712.132 473.6 703.332 479.773C699.066 483.04 695.252 490.16 699.226 495C702.626 499.933 710.226 499.987 715.426 498.667C723.692 496.44 728.839 490.867 735.972 486.853L737.959 486.373C743.159 493.493 746.866 501.147 750.759 509.04C753.012 513.6 754.812 518.267 755.332 523.373C753.239 523.387 751.159 523.293 749.079 523.067C746.479 520.12 744.746 516.12 743.012 512.6C740.612 507.507 737.946 502.56 735.572 497.467C729.226 500.2 724.212 504.16 717.079 504.76C710.426 505.16 702.972 505.173 696.679 502.747C692.119 500.227 689.892 493.36 687.612 488.92C679.359 490.52 670.612 490.16 662.239 489.827C640.559 486.92 620.039 481.587 602.772 467.493C591.066 458.627 583.066 445.907 577.932 432.307C576.706 428.533 575.719 424.867 576.506 420.853C583.559 419.16 584.479 427.293 586.479 431.947C590.932 445 599.786 456.587 610.599 465.053C621.399 472.867 634.119 478.24 647.292 480.427C660.812 482.92 675.946 484.64 689.479 481.6C693.786 478.4 697.386 474.147 701.372 470.56C698.372 469.173 694.719 468.24 692.159 466.12C688.559 462.427 687.479 457.08 688.639 452.133C690.332 448.187 693.279 444.8 697.439 443.413C704.746 440.653 713.652 442.253 721.106 443.44C718.839 438.733 716.252 434.187 713.892 429.52C713.906 427.373 713.986 425.227 714.172 423.08C715.679 419.987 717.932 415.133 721.572 414.187Z" fill="#080301"/>
<path d="M729.812 419.4C741.439 423.387 750.946 433.387 754.346 445.213C755.746 449.173 756.026 453.867 758.132 457.493C759.812 458.053 761.599 458.387 763.319 458.787C765.279 455.08 766.786 451.173 768.479 447.333C771.226 440.867 777.812 436.107 784.039 433.307C787.239 431.6 790.532 434.107 792.892 436.12C796.306 438.893 795.399 443.853 793.732 447.333C790.666 453.56 785.866 459.147 780.319 463.307C775.332 467.013 769.812 468.133 763.892 469.467C764.946 473.68 766.879 477.453 769.066 481.187C772.452 486.933 775.306 492.72 779.599 497.68C781.812 498.613 784.079 499.467 786.319 500.333C782.719 500.32 778.786 501.173 775.999 498.347C771.159 493.293 768.239 486.28 764.612 480.347C762.572 476.333 759.639 471.707 763.026 467.507C767.306 464 773.679 463.293 778.346 460.133C783.612 456.64 788.372 451.173 790.186 445.04C791.146 441.773 789.812 439.053 787.479 436.787C783.092 437.36 778.786 439.52 775.679 442.693C770.959 447.56 769.719 456.413 764.426 460.8C761.772 463.68 756.626 460.84 754.746 458.373C751.439 451.72 751.972 444.24 747.106 437.893C741.706 431.187 736.292 424.653 727.226 423.427C727.799 428.107 728.266 432.44 731.359 436.227C734.452 440.853 740.506 445.107 741.892 450.533C740.892 453.88 736.879 456.347 734.332 458.533C725.679 454.533 717.412 451.187 707.666 451.92C705.106 452.267 702.359 452.213 701.519 455.2C700.212 457.68 702.972 459.2 704.812 460.227C712.346 463.48 720.986 463.08 728.959 463.227C731.786 463.453 734.706 463.227 736.572 465.773C739.892 469.987 736.066 476.893 731.066 477.507C723.332 478.747 715.772 476.667 708.519 480.867C705.506 482.64 700.532 486.28 701.399 490.307C702.932 495.107 709.012 496.56 713.399 495.187C721.399 492.8 728.439 487.027 735.932 483.293C735.946 484.48 735.959 485.667 735.972 486.853C728.839 490.867 723.692 496.44 715.426 498.667C710.226 499.987 702.626 499.933 699.226 495C695.252 490.16 699.066 483.04 703.332 479.773C712.132 473.6 721.066 474.16 731.226 473.6C734.399 473.333 734.479 470.893 735.812 468.6C732.319 467.32 728.866 466.2 725.079 466.267C716.972 466.267 709.332 466 701.532 463.44C698.666 462.547 697.319 459.893 696.346 457.267C696.626 453.12 700.692 448.933 704.879 448.6C715.639 447.947 725.812 450.467 735.746 454.387C736.946 453.133 738.132 451.88 739.319 450.613C733.826 444.173 726.612 437.6 723.306 429.72C721.239 425.613 724.892 418.267 729.812 419.4Z" fill="#FBE065"/>
<path d="M574.225 419.373C575.505 423.68 576.559 428.04 577.932 432.307C583.065 445.907 591.065 458.627 602.772 467.493C620.039 481.587 640.559 486.92 662.239 489.827C670.612 490.16 679.359 490.52 687.612 488.92C689.892 493.36 692.119 500.227 696.679 502.747C702.972 505.173 710.425 505.16 717.079 504.76C724.212 504.16 729.225 500.2 735.572 497.467C737.945 502.56 740.612 507.507 743.012 512.6C744.745 516.12 746.479 520.12 749.079 523.067C751.159 523.293 753.239 523.387 755.332 523.373C754.812 518.267 753.012 513.6 750.759 509.04C746.865 501.147 743.159 493.493 737.959 486.373C739.279 486.107 740.612 485.84 741.932 485.6C749.185 496.027 753.759 508.08 759.785 519.4C758.012 522.04 756.212 525.267 753.705 527.267C751.399 528.2 748.812 525.987 747.119 524.627C740.999 519.12 738.532 510.4 733.332 503.84C728.572 505.467 723.719 507.253 718.785 508.267C711.759 509.747 703.972 508.453 697.185 506.373C691.545 504.973 689.079 498.28 684.519 494.987C679.172 493.613 673.079 494.587 667.572 494.4C659.199 494.507 652.172 491.72 644.039 490.36C637.905 489.307 631.919 488.267 626.265 485.52C617.332 481.253 607.745 476.56 600.265 470.053C593.665 464.36 587.519 458.667 583.305 450.907C579.212 443.427 574.612 435.56 572.545 427.253C571.652 424.213 573.039 422.04 574.225 419.373Z" fill="#F4D859"/>
<path d="M585.439 422.307C589.732 428.08 591.519 434.667 594.559 441.04C601.319 454.147 612.559 463.667 625.826 469.813C635.906 475.36 646.372 476.16 657.412 478.333C665.146 479.68 673.612 479.947 681.412 479.2C686.226 478.733 689.306 475.853 693.039 473.147C690.186 469.133 686.239 464.693 685.052 459.853C683.839 453.653 685.999 446.133 691.719 442.787C697.959 439 706.292 437.973 713.306 436.08C712.506 432.413 711.719 428.747 710.999 425.053C711.986 426.533 712.972 428.013 713.892 429.52C716.252 434.187 718.839 438.733 721.106 443.44C713.652 442.253 704.746 440.653 697.439 443.413C693.279 444.8 690.332 448.187 688.639 452.133C687.479 457.08 688.559 462.427 692.159 466.12C694.719 468.24 698.372 469.173 701.372 470.56C697.386 474.147 693.786 478.4 689.479 481.6C675.946 484.64 660.812 482.92 647.292 480.427C634.119 478.24 621.399 472.867 610.599 465.053C599.786 456.587 590.932 445 586.479 431.947C585.919 428.76 585.639 425.547 585.439 422.307Z" fill="#F9E05E"/>
<path d="M774.826 424.293C775.812 425.667 776.772 427.053 777.772 428.427C771.412 434.92 766.719 442.84 760.546 449.56C757.772 443.947 756.839 438.187 756.359 432.027C757.492 432.48 758.639 432.92 759.772 433.387C760.559 432.493 761.346 431.613 762.119 430.72C762.239 432.533 762.386 434.347 762.546 436.16C766.066 431.427 769.412 426.987 774.826 424.293Z" fill="#221F21"/>
<path d="M763.719 583.053C779.546 583.653 795.532 583.04 811.306 583.427C814.332 585.627 811.332 587.667 808.812 587.68C801.746 587.453 794.706 587.147 787.626 587.573C778.612 588.44 768.306 589.4 759.532 586.76C760.892 584.827 760.746 582.573 763.719 583.053Z" fill="black"/>
<path d="M430.679 610.44C451.665 612.053 472.879 610.8 493.892 611.6C493.292 613.24 492.745 614.947 491.985 616.52C480.452 617.267 468.652 615.187 456.972 615.56C446.985 615 437.025 616.053 427.065 615.387C428.092 613.533 427.705 609.627 430.679 610.44Z" fill="#020202"/>
<path d="M521.479 611.507C529.666 610.373 538.079 609.907 546.319 610.667C558.119 611.613 569.852 611.173 581.639 611.4L583.306 611.933C580.826 615.693 575.639 615.32 571.666 615.413C554.346 615.2 536.986 615.573 519.666 615.28C520.239 614 520.839 612.747 521.479 611.507Z" fill="black"/>
<path d="M852.119 612.507C847.572 612.347 842.559 611.947 838.212 613.4C839.145 617.933 842.865 616.267 846.292 616.627C860.612 616.693 875.052 616.387 889.292 617.88C875.825 618.613 862.386 617.84 848.919 618.173C844.879 618.267 840.959 617.867 837.012 617.093C837.212 615.56 837.452 614.04 837.746 612.533C842.639 609.733 847.079 611.307 852.119 612.507Z" fill="#979797"/>
<path d="M838.212 613.4C842.559 611.947 847.572 612.347 852.119 612.507C871.306 613.68 890.546 612.32 909.759 613.813C909.666 615.253 909.572 616.68 909.466 618.12C902.746 618.32 896.026 617.867 889.292 617.88C875.052 616.387 860.612 616.693 846.292 616.627C842.866 616.267 839.146 617.933 838.212 613.4Z" fill="black"/>
<path d="M496.972 638.867C507.305 638.08 517.625 638.28 527.985 638.24C516.265 640.347 504.732 638.72 492.959 639.84C486.225 640.493 479.505 640.92 472.732 640.933C480.359 638.667 489.052 639.453 496.972 638.867Z" fill="#575757"/>
<path d="M527.986 638.24C529.412 638.2 530.839 638.2 532.252 638.227C532.306 639.867 532.359 641.507 532.399 643.147C518.399 643.467 504.346 642.96 490.319 643.707C484.212 644.373 478.159 645.133 471.999 645.04C472.226 643.667 472.466 642.293 472.732 640.933C479.506 640.92 486.226 640.493 492.959 639.84C504.732 638.72 516.266 640.347 527.986 638.24Z" fill="black"/>
<path d="M824.266 639.507C838.932 638.853 853.639 638.813 868.306 639.16C868.372 640.507 868.426 641.853 868.492 643.2C865.106 643.747 861.799 644.453 858.346 644.52C844.559 644.773 830.786 644.48 816.999 645.067C813.759 645.307 812.172 644.533 809.612 642.613C814.026 639.987 819.199 640 824.266 639.507Z" fill="black"/>
<path d="M511.212 663.44C516.159 661.36 522.279 663.827 527.652 663.32C534.839 662.8 541.799 664.08 548.932 664.347C559.586 663.04 570.266 663.053 580.986 663.48C587.012 663.733 592.986 662.933 599.012 663.333C599.026 664.8 599.026 666.267 599.026 667.747C593.452 668.613 587.932 668.413 582.306 668.467C562.292 668.44 542.292 668.64 522.279 668.373C517.986 668.293 513.812 667.733 509.559 667.24C510.066 665.947 510.612 664.68 511.212 663.44Z" fill="black"/>
<path d="M638.492 662.76C645.692 661.533 653.692 662.533 660.959 663.04C672.066 663.347 683.226 663.093 694.319 663.787C699.919 664.573 705.492 664.427 711.119 664.347C711.146 665.453 711.172 666.547 711.199 667.653C700.759 668.84 690.132 668.2 679.639 668.44C665.132 668.747 650.746 667.573 636.266 667.04C636.706 664.92 635.639 663.147 638.492 662.76Z" fill="black"/>
<path d="M740.559 665.693C746.012 663.867 752.599 665.12 758.306 664.907C773.892 664.787 789.399 665.853 804.972 665.613C812.346 665.853 819.626 664.747 826.999 664.813C826.986 666.6 826.972 668.387 826.972 670.173C797.932 669.68 768.906 669.667 739.866 669.88C740.066 668.48 740.292 667.08 740.559 665.693Z" fill="#0D0D0D"/>
<path d="M805.852 684.427C805.772 686.2 805.692 687.973 805.599 689.747C797.346 692.027 789.426 691.16 780.972 691.48C750.346 691.427 719.666 690.787 689.039 691.28C680.026 691.267 671.159 692.667 662.172 693.187C659.692 693.413 657.866 692.28 655.666 691.347C656.532 690.013 657.412 688.68 658.279 687.36C664.092 686.88 669.892 687.12 675.692 686.92C692.466 685.493 709.466 686.453 726.319 686.307C739.639 687.373 752.946 686.933 766.306 687.067C773.479 687.253 780.532 686.093 787.692 686.12C793.826 686.12 799.732 684.653 805.852 684.427Z" fill="#080808"/>
<path d="M589.679 685.933C605.852 685.333 621.799 687.293 637.972 687.427C637.839 689.187 637.692 690.96 637.532 692.72C633.732 692.627 629.932 692.48 626.146 692.053C617.812 691.107 609.039 691.8 600.679 690.573C596.692 690.04 592.626 690.147 588.559 689.92L589.679 685.933Z" fill="black"/>
</g>
<defs>
<clipPath id="clip0_2_1233">
<rect width="1330" height="730" fill="white"/>
</clipPath>
</defs>
</svg>
