<svg width="1330" height="730" viewBox="0 0 1330 730" fill="none" xmlns="http://www.w3.org/2000/svg">
<g clip-path="url(#clip0_2_680)">
<path d="M0 0H1330V730H0V0Z" fill="white"/>
<path d="M750.036 63.0013C764.759 70.7959 775.113 84.989 779.378 100.966C781.136 107.933 781.757 115.069 783.243 122.049C784.95 129.145 787.91 136.164 792.369 141.981C799.414 151.689 810.427 158.695 819.023 167.291C849.555 196.362 870.134 232.207 886.512 270.701C892.639 284.92 897.861 299.475 903.6 313.837C906.341 307.645 908.667 301.427 909.34 294.615C909.831 286.846 910.748 279.142 910.813 271.348C910.839 268.142 911.02 265.35 913.76 263.243C916.19 262.403 919.125 262.39 920.986 264.419C924.45 267.974 926.984 272.072 931.03 275.109C939.497 281.547 949.696 285.554 958.33 291.849C960.786 293.814 963.178 296.813 961.911 300.148C960.722 304.62 955.577 304.814 952.074 306.611C939.91 312.505 927.915 318.051 916.992 326.13C923.597 332.657 932.154 334.79 941.164 335.281C954.944 335.734 968.762 335.605 982.541 335.475C985.088 335.514 987.88 335.398 990.297 336.29C995.506 337.996 999.565 343.632 998.402 349.203C997.303 352.59 994.963 355.356 992.792 358.083C982.089 371.191 971.864 385.358 964.031 400.391C961.277 406.027 956.43 410.112 953.664 415.812C951.428 419.535 950.587 424.576 947.64 427.743C944.822 429.721 940.246 428.196 938.101 425.779C935.321 422.663 935.153 418.281 934.546 414.352C933.189 402.098 931.508 389.675 928.729 377.667C926.57 368.657 921.658 360.914 915.35 354.257C914.704 355.304 914.071 356.351 913.424 357.385C915.441 368.954 914.458 381.247 913.528 392.894C910.167 434.181 894.358 473.296 869.888 506.542C856.639 524.497 841.192 542.361 822.578 554.887C802.736 568.446 780.257 577.353 756.744 582.084C751.703 583.182 747.114 585.199 745.602 590.576C744.038 599.741 744.27 609.798 743.921 619.105C743.831 628.476 743.456 638.171 745.395 647.297C746.364 653.295 748.562 658.853 750.216 664.657C750.889 668.07 751.69 672.284 748.717 674.882C745.653 677.57 740.832 678.553 736.915 679.212C724.752 681.035 712.704 683.736 700.877 687.032C689.14 690.6 676.795 692.397 664.541 692.164C654.07 692.048 644.544 692.746 634.448 689.178C628.27 686.877 622.763 683.038 619.001 677.557C616.636 674.507 614.555 670.177 610.211 669.84C599.366 668.974 587.875 666.363 579.848 658.517C573.578 652.545 572.854 642.45 577.211 635.211C580.313 630.325 585.949 626.899 590.977 624.275C601.15 619.169 611.776 613.74 622.97 611.336C628.929 610.03 635.431 610.147 641.584 609.5C638.649 605.726 634.823 603.231 633.957 598.397C639.852 592.761 646.534 593.756 653.928 591.843C646.043 589.271 637.706 588.586 629.73 586.246C590.589 576.642 552.896 559.437 523.631 531.219C504.241 512.773 489.001 489.919 478.311 465.437C475.623 458.418 473.813 450.843 472.973 443.371C472.223 436.74 475.08 431.311 472.184 424.874C470.038 424.46 467.815 423.672 465.618 423.749C458.935 424.034 453.635 430.445 448.348 434.116C444.729 437.412 440.347 436.792 435.745 437.296C430.355 437.451 424.253 438.227 419.677 434.711C413.848 430.161 411.03 421.81 406.363 415.98C407.242 412.477 408.561 409.543 407.695 405.833C405.872 399.202 400.831 394.161 398.414 387.478C396.139 381.92 394.575 374.978 398.401 369.717C402.718 363.784 409.155 359.105 415.205 355.059C413.279 351.465 410.371 348.944 407.578 346.062C400.482 338.616 393.618 332.076 390.994 321.709C389.275 315.879 390.102 309.545 394.458 305.098C397.819 302.022 402.847 300.678 407.32 300.742C419.277 301.453 429.799 307.154 438.369 315.271C441.471 318.128 444.276 321.618 447.741 324.023C449.757 325.496 452.704 325.638 454.643 323.958C458.534 320.843 460.266 316.719 465.333 314.961C470.659 313.862 477.032 313.888 481.646 317.146C486.92 320.326 489.79 325.987 489.505 332.114C489.182 339.405 487.192 346.837 484.089 353.417C482.034 357.98 478.544 360.94 477.316 365.839C479.992 367.235 481.931 368.89 485.098 367.688C485.912 366.666 486.61 365.542 487.205 364.314C495.684 344.252 509.128 326.117 524.277 310.579C524.277 309.972 524.264 309.364 524.264 308.744C503.091 307.865 481.53 303.508 461.972 295.261C447.844 289.018 432.927 280.693 422.883 268.711C413.744 258.499 407.216 246.335 405.329 232.646C404.799 224.102 404.605 214.782 407.126 206.522C411.043 191.605 417.958 178.033 426.696 165.391C442.57 142.356 465.618 125.591 491.664 115.754C515.061 107.261 540.267 102.31 564.905 99.1174C568.912 98.5357 573.281 98.1997 576.577 95.5885C580.39 92.6026 582.446 87.3674 585.367 83.4378C591.003 75.8242 599.095 69.9169 608.958 70.0978C616.429 69.7488 623.215 72.5668 629.317 76.6644C633.117 79.1463 636.465 81.7315 641.222 81.9383C649.805 82.4425 658.685 82.9983 667.242 81.822C675.67 80.1674 683.892 76.4447 691.091 71.7783C696.249 68.5984 700.45 64.7076 705.866 61.9413C719.258 54.625 736.838 55.8142 750.036 63.0013Z" fill="#181612"/>
<path d="M750.41 75.6302C759.601 83.1145 764.642 93.3263 768.197 104.404C774.233 121.157 772.269 140.766 767.822 157.661C763.104 178.472 757.843 199.012 748.575 218.363C746.028 223.856 741.801 227.941 738.957 233.241C737.174 236.33 735.958 239.794 733.968 242.729C731.641 245.508 728.759 247.757 726.38 250.497C721.184 256.573 714.527 261.498 707.533 265.311C697.89 266.5 689.191 265.776 679.677 264.005C674.235 259.52 669.142 254.815 664.734 249.295C660.43 243.517 657.444 236.692 655.802 229.699C654.148 222.434 655.04 215.415 655.156 208.047C655.259 200.292 655.156 192.536 655.247 184.78C655.415 177.283 654.264 170.316 655.57 162.844C659.68 135.402 669.685 108.295 689.605 88.3497C697.839 80.5164 706.848 73.3035 717.836 69.9038C728.72 66.1164 741.685 67.8227 750.41 75.6302Z" fill="#BA3D49"/>
<path d="M731.538 79.508C741.077 82.2226 748.084 89.9784 752.285 98.6907C760.648 114.887 760.17 133.773 758.076 151.404C755.309 177.089 746.662 202.618 732.365 224.218C727.66 231.354 722.567 238.411 716.194 244.176C709.007 250.355 699.752 253.238 690.406 250.782C681.668 247.266 673.253 241.268 670.112 231.987C664.618 215.855 664.269 197.719 666.182 180.928C668.16 158.552 673.434 136.332 682.03 115.56C687.537 103.189 696.365 90.8832 707.909 83.541C714.928 79.4951 723.549 76.8323 731.538 79.508Z" fill="#191715"/>
<path d="M622.892 84.2136C626.537 87.0315 626.68 94.8519 621.742 96.5323C613.534 98.6135 604.744 96.2997 596.458 96.4289C595.165 93.0035 595.165 89.7719 597.647 86.9152C603.878 80.271 615.421 78.9267 622.892 84.2136Z" fill="#B83B48"/>
<path d="M652.842 90.8704C657.612 90.7541 663.959 89.888 667.255 94.1795C669.582 96.7002 667.1 100.087 666.363 102.814C663.881 102.866 661.529 103.176 659.176 102.323C653.682 100.332 648.292 98.0316 642.902 95.8212C646.133 93.6366 648.706 90.8963 652.842 90.8704Z" fill="#9B454D"/>
<path d="M646.198 106.77C650.219 107.739 653.709 109.95 655.273 113.931C657.664 119.127 655.66 123.871 654.032 128.9C648.642 144.269 646.612 159.522 643.73 175.486C641.984 190.998 642.321 206.871 645.242 222.228C645.475 229.932 647.09 237.403 650.076 244.5C655.079 253.975 661.607 262.959 669.686 270.055C673.059 272.227 677.364 272.834 680.931 274.747C683.103 275.691 685.288 277.152 687.744 276.725C692.294 276.118 696.934 276.105 701.42 275.148C717.448 271.93 730.026 261.033 740.315 248.895C746.455 242.496 750.695 234.921 754.612 227.049C756.628 223.301 758.257 219.384 762.587 217.82C767.628 217.07 773.872 218.402 778.305 220.948C782.881 223.753 784.161 228.161 785.764 232.957C791.387 251.39 800.306 268.892 812.03 284.21C816.593 290.479 822.035 295.507 827.348 301.195C829.972 304.064 833.113 305.952 836.655 307.49C846.388 311.756 854.403 318.503 864.24 322.652C869.074 324.863 874.193 325.974 879.389 326.983C875.628 330.046 871.375 332.308 866.877 334.105C861.551 336.199 854.842 335.837 849.271 336.871C844.113 339.586 846.931 344.317 848.482 348.337C854.273 360.488 857.854 372.302 859.147 385.759C862.081 387.866 864.808 391.123 868.777 389.288C873.766 386.147 875.408 379.102 878.601 374.28C884.094 365.904 891.475 358.407 898.74 351.556C898.96 360.203 900.317 368.735 900.149 377.382C900.201 383.897 899.257 390.309 898.921 396.837C896.271 422.78 888.037 447.831 875.434 470.62C870.91 478.97 865.067 486.455 860.943 494.986C856.083 504.177 849.181 512.463 841.657 519.585C835.66 525.324 830.411 531.813 823.961 536.751C819.036 540.616 813.581 543.499 808.398 547.092C800.901 552.237 792.938 556.515 784.652 560.225C785.79 558.157 786.462 556.709 788.698 555.753C794.955 552.728 801.017 549.367 806.705 545.36C811.461 541.948 815.533 537.746 820.174 534.153C824.22 530.87 828.589 528.013 832.635 524.73C839.68 518.913 843.79 511.454 849.685 504.371C853.795 499.097 858.138 494.741 861.008 488.756C866.528 477.303 874.064 467.027 879.144 455.38C884.637 444.974 886.809 434.336 890.635 423.348C891.734 420.156 892.445 416.872 892.949 413.537C894.28 403.972 896.801 394.898 896.53 385.138C896.31 377.189 897.525 368.205 895.017 360.669C890.583 362.944 888.347 366.77 885.413 370.596C882.065 375.275 878.665 379.606 876.546 385.048C875.408 387.93 874.167 390.36 871.194 391.744C865.985 393.424 860.129 392.842 857.363 387.478C854.454 379.735 852.839 371.462 850.176 363.616C848.301 358.523 846.401 353.443 844.566 348.324C843.183 344.756 842.963 340.814 843.816 337.091C847.435 332.774 851.973 332.515 857.182 332.709C860.452 333.006 862.559 331.235 865.222 329.71C857.945 322.898 849.064 319.124 840.985 313.488C837.56 311.226 833.863 309.416 830.424 307.167C824.698 303.547 821.622 297.498 816.361 292.831C810.156 287.26 804.843 280.952 800.061 274.153C797.01 269.719 795.187 264.6 792.369 259.999C788.983 254.492 787.69 248.598 785.324 242.664C782.804 235.891 779.197 229.699 776.354 223.055C771.584 221.995 767.228 220.871 762.367 222.241C758.464 227.579 755.904 233.926 752.039 239.394C747.696 247.589 741.168 253.639 734.834 260.257C729.728 264.626 724.584 270.159 718.431 272.796C712.174 275.549 706.474 278.419 699.507 278.69C694.439 278.949 689.075 280.357 684.06 279.698C679.626 278.238 675.567 275.601 671.275 273.752C665.95 271.49 662.15 266.19 658.556 261.821C651.11 252.411 644.841 242.781 642.579 230.759C642.786 226.325 642.592 222.06 641.816 217.678C639.955 206.988 640.601 196.879 640.575 186.073C640.55 179.972 640.847 173.909 642.127 167.924C643.768 160.311 644.544 152.801 647.065 145.381C648.202 142.175 648.564 138.918 648.745 135.531C650.606 129.288 655.001 121.48 652.364 115.004C651.692 112.264 648.9 110.984 646.47 110.144C640.614 108.192 634.358 110.053 628.36 110.35C612.525 110.958 597.272 109.588 581.825 111.346C568.873 111.824 556.037 113.828 543.551 117.279C519.624 121.39 496.563 128.525 475.364 140.482C470.814 143.713 466.329 147.022 461.74 150.202C457.358 153.24 455.083 157.687 451.076 161.125C448.633 163.258 446.306 165.455 444.38 168.067C441.252 172.371 437.115 177.024 435.745 182.195C432.513 194.346 422.366 205.294 421.81 218.389C419.626 229.725 421.203 241.333 427.899 250.898C432.358 257.917 438.408 262.222 444.16 268.155C447.211 271.244 450.908 272.55 454.721 274.411C460.383 277.113 465.165 280.784 471.086 283.02C482.086 287.609 494.663 288.979 506.426 291.41C514.789 293.258 523.049 291.914 531.464 293.077C535.821 293.685 540.358 293.426 544.649 294.357L545.8 296.373C533.274 296.709 520.529 297.032 508.094 295.223C487.631 293.103 467.505 287.04 449.615 276.829C434.879 268 421.914 255.138 418.372 237.739C415.528 225.938 417.816 214.317 421.836 203.123C425.818 192.097 432.061 182.764 437.994 172.772C441.394 167.084 446.138 163.038 450.222 157.868C458.754 147.449 469.677 139.784 481.595 133.682C499.433 125.022 517.892 119.722 537.087 115.043C554.37 111.242 571.859 108.605 589.542 107.714C601.176 107.377 612.836 107.701 624.469 107.726C631.837 107.287 638.714 105.71 646.198 106.77Z" fill="#EBD16B"/>
<path d="M646.47 110.144C648.9 110.984 651.692 112.264 652.364 115.004C655.001 121.48 650.606 129.288 648.745 135.531C647.685 129.779 649.805 124.737 649.998 119.115C648.37 115.081 643.393 116.141 639.942 115.65C634.513 115.521 630.001 112.587 624.508 112.677C620.152 112.832 616.468 111.85 613.637 115.844C609.5 114.371 605.713 112.832 601.202 113.065C590.731 113.53 580.39 116.258 569.894 116.697C566.585 116.814 563.237 116.529 559.941 116.788C555.791 117.279 552.172 120.407 547.906 120.278C541.314 120.226 535.251 121.881 528.801 123.018C524.6 123.846 521.084 126.043 516.935 126.987C514.712 127.555 512.372 127.904 510.2 128.693C507.848 129.973 505.896 132.002 503.556 133.295C499.652 134.135 496.136 133.514 492.414 135.247C487.864 137.418 483.456 139.874 478.919 142.072C474.705 144.204 472.856 148.225 469.211 150.823C465.281 153.369 461.171 154.365 457.836 157.868C453.35 162.172 451.166 167.136 444.379 168.066C446.305 165.455 448.632 163.258 451.075 161.125C455.082 157.687 457.357 153.24 461.739 150.202C466.328 147.022 470.814 143.713 475.364 140.482C496.563 128.525 519.624 121.39 543.55 117.279C556.037 113.828 568.873 111.824 581.825 111.346C597.272 109.588 612.525 110.958 628.36 110.35C634.358 110.053 640.614 108.192 646.47 110.144Z" fill="#F5CD29"/>
<path d="M624.508 112.677C630.002 112.587 634.513 115.521 639.942 115.65C643.393 116.141 648.37 115.081 649.999 119.114C649.805 124.737 647.685 129.779 648.745 135.531C646.095 139.086 644.027 142.757 643.729 147.268C643.187 156.252 640.472 164.667 638.895 173.47C635.754 186.81 635.844 201.003 638.714 214.394C639.864 219.966 640.317 225.459 642.579 230.759C644.841 242.781 651.11 252.411 658.556 261.821C662.149 266.19 665.95 271.49 671.275 273.752C675.567 275.601 679.626 278.237 684.06 279.698C689.075 280.357 694.439 278.948 699.506 278.69C706.474 278.418 712.174 275.549 718.431 272.795C724.584 270.159 729.728 264.626 734.834 260.257C741.168 253.639 747.696 247.589 752.039 239.394C755.904 233.926 758.463 227.579 762.367 222.241C767.227 220.87 771.584 221.995 776.353 223.055C779.197 229.699 782.804 235.891 785.324 242.664C787.69 248.597 788.983 254.492 792.369 259.998C795.187 264.6 797.01 269.719 800.06 274.153C804.843 280.952 810.156 287.26 816.36 292.831C821.621 297.498 824.698 303.547 830.424 307.167C833.863 309.416 837.56 311.225 840.985 313.488C849.064 319.123 857.944 322.898 865.222 329.71C862.559 331.235 860.452 333.006 857.182 332.709C851.973 332.515 847.435 332.774 843.816 337.091C842.963 340.814 843.183 344.756 844.566 348.324C846.401 353.443 848.301 358.523 850.176 363.616C852.839 371.462 854.454 379.735 857.363 387.478C860.129 392.842 865.985 393.424 871.194 391.744C874.167 390.36 875.408 387.93 876.545 385.048C878.665 379.606 882.065 375.275 885.413 370.596C888.347 366.77 890.583 362.944 895.017 360.669C897.525 368.205 896.31 377.188 896.529 385.138C896.801 394.898 894.28 403.972 892.949 413.537C892.445 416.872 891.734 420.156 890.635 423.348C886.809 434.336 884.637 444.974 879.144 455.38C874.064 467.026 866.528 477.303 861.008 488.756C858.138 494.74 853.795 499.097 849.684 504.371C843.79 511.454 839.68 518.913 832.635 524.73C828.589 528.013 824.22 530.87 820.174 534.153C815.533 537.746 811.461 541.947 806.704 545.36C801.017 549.367 794.954 552.728 788.698 555.753C786.462 556.709 785.79 558.157 784.652 560.225C781.537 561.776 778.292 563.16 775.087 564.504C764.216 569.493 750.837 569.842 739.552 566.146C738.066 565.719 736.566 565.357 735.067 564.969C732.688 570.502 728.306 576.758 728.5 582.898C728.5 592.825 728.423 602.753 728.397 612.68C728.332 617.631 727.272 621.677 724.842 625.981C721.417 625.917 718.159 625.994 714.902 627.184C717.125 624.909 719.736 622.297 720.628 619.169C721.404 615.266 720.99 611 721.016 607.031C718.599 604.834 716.246 602.339 712.859 601.796C709.266 601.396 706.099 602.145 702.829 600.168C702.118 592.231 701.445 584.32 700.825 576.383C700.592 575.31 700.347 574.25 700.101 573.19C695.758 571.833 692.074 569.842 687.718 572.505C681.797 575.698 682.457 581.941 681.203 587.72C676.343 584.385 671.431 581.993 667.462 577.495C664.773 574.418 661.943 572.363 657.923 571.368C649.74 569.287 641.778 567.167 633.337 566.65C628.761 566.365 625.038 564.039 620.63 563.289C616.093 562.785 611.362 563.586 606.851 562.991C602.507 562.306 598.345 559.023 594.312 557.834C592.192 557.433 589.995 557.407 587.849 557.213C581.347 554.538 574.936 551.733 569.015 547.906C556.347 540.758 544.468 532.977 534.114 522.674L531.891 523.463L531.8 523.372C532.136 519.055 529.319 517.013 526.875 514.014C522.713 509.412 519.301 504.254 514.932 499.833C508.572 493.099 505.78 485.317 501.139 477.561C496.731 470.529 494.443 461.946 492.388 453.958C490.203 443.074 488.562 432.423 490.423 421.332C491.587 407.746 494.935 394.678 498.774 381.648C504.797 366.977 510.537 351.84 520.477 339.263C523.308 335.682 525.841 331.714 529.008 328.456C534.67 322.782 541.069 318.322 547.299 313.384C552.638 309.791 553.736 300.794 549.238 296.205L546.433 296.347L545.8 296.373L544.649 294.357C540.358 293.426 535.82 293.684 531.464 293.077C523.049 291.914 514.789 293.258 506.426 291.409C494.663 288.979 482.086 287.609 471.085 283.02C465.165 280.784 460.382 277.113 454.721 274.411C450.907 272.55 447.211 271.244 444.16 268.155C438.408 262.222 432.358 257.917 427.899 250.898C421.203 241.333 419.626 229.725 421.81 218.389C422.366 205.294 432.513 194.346 435.745 182.195C437.115 177.024 441.251 172.371 444.38 168.066C451.166 167.136 453.351 162.172 457.836 157.868C461.171 154.365 465.282 153.369 469.211 150.823C472.856 148.225 474.705 144.204 478.919 142.072C483.456 139.874 487.864 137.418 492.414 135.246C496.137 133.514 499.653 134.135 503.556 133.295C505.896 132.002 507.848 129.973 510.201 128.693C512.372 127.904 514.712 127.555 516.935 126.987C521.084 126.043 524.6 123.845 528.801 123.018C535.252 121.881 541.314 120.226 547.907 120.278C552.172 120.407 555.792 117.279 559.941 116.788C563.237 116.529 566.585 116.814 569.894 116.697C580.39 116.258 590.731 113.53 601.202 113.065C605.713 112.832 609.501 114.37 613.637 115.844C616.468 111.85 620.152 112.832 624.508 112.677Z" fill="#FBCD06"/>
<path d="M694.581 117.925C697.335 123.845 698.666 131.265 702.544 136.436C708.723 144.708 721.533 146.376 729.883 140.456C736.734 135.841 741.219 127.09 745.252 120.084C747.282 127.4 746.933 134.626 746.946 142.123C746.933 152.49 744.632 163.09 741.969 173.082C735.674 195.043 726.393 216.656 711.256 234.042C705.155 241.436 692.927 242.225 685.921 235.787C683.025 233.176 681.771 229.777 680.905 226.08C679.341 218.931 678.01 211.499 677.829 204.169C677.441 190.649 677.312 177.477 680.207 164.188C683.038 148.108 688.609 133.036 694.581 117.925Z" fill="#FEFEFE"/>
<path d="M648.745 135.531C648.564 138.917 648.202 142.175 647.064 145.381C644.544 152.8 643.768 160.311 642.127 167.924C640.847 173.909 640.549 179.971 640.575 186.073C640.601 196.879 639.955 206.987 641.816 217.678C642.592 222.06 642.786 226.325 642.579 230.759C640.317 225.459 639.864 219.966 638.714 214.394C635.844 201.003 635.754 186.809 638.895 173.47C640.472 164.667 643.186 156.252 643.729 147.268C644.027 142.757 646.095 139.086 648.745 135.531Z" fill="#F0CC44"/>
<path d="M788.621 153.964C792.576 154.416 795.627 158.217 798.38 160.815C809.716 171.712 821.182 183.177 830.76 195.677C851.249 221.362 867.239 250.511 878.187 281.482C880.992 289.406 884.082 297.252 886.731 305.241C887.856 308.679 888.489 313.164 886.964 316.564C885.09 318.555 883.022 317.624 880.682 317.236C863.761 312.841 847.164 304.84 833.902 293.348C819.579 280.887 809.936 264.523 802.413 247.292C791.27 222.396 785.273 195.108 783.76 167.924C783.605 165.442 783.204 162.974 783.114 160.492C783.062 157.273 785.143 154.028 788.621 153.964Z" fill="#885D4A"/>
<path d="M652.829 176.908C654.936 180.579 654.484 182.802 652.894 186.564C651.86 182.97 651.498 180.489 652.829 176.908Z" fill="#432E2A"/>
<path d="M646.47 180.359C648.874 184.974 647.827 191.334 647.957 196.414C647.621 201.171 648.745 206.639 647.039 211.098C645.345 201.067 646.199 190.494 646.47 180.359Z" fill="#423F3D"/>
<path d="M651.834 186.835C653.877 191.269 653.101 196.207 652.649 200.912C650.283 196.388 651.201 191.657 651.834 186.835Z" fill="#3A2B27"/>
<path d="M772.191 189.847C774.983 192.407 776.289 196.724 777.246 200.292C778.228 205.437 771.261 210.633 767.525 205.501C766 199.439 769.18 194.746 772.191 189.847Z" fill="#90464F"/>
<path d="M679.678 264.005C689.192 265.776 697.891 266.5 707.534 265.311C704.212 268.194 700.929 271.05 697.245 273.506C698.641 274.062 700.024 274.605 701.42 275.148C696.934 276.104 692.294 276.117 687.744 276.725C685.288 277.151 683.103 275.691 680.932 274.747C682.147 273.545 683.362 272.343 684.577 271.141C683 268.711 681.423 266.306 679.678 264.005Z" fill="#291C11"/>
<path d="M927.979 282.865C933.047 285.463 938.747 289.005 942.974 292.792C945.65 295.442 943.414 298.131 940.789 299.501C934.042 302.991 926.777 305.486 919.888 308.731C919.655 301.867 919.965 295.003 920.198 288.152C920.728 284.287 923.869 281.146 927.979 282.865Z" fill="#508FA7"/>
<path d="M927.669 286.329C931.857 287.906 935.722 290.453 939.678 292.56C939.277 294.835 939.82 297.33 937.441 298.597C932.943 300.768 927.941 301.983 923.235 303.638C923.197 298.002 922.886 292.03 924.011 286.497C925.226 285.838 926.441 285.774 927.669 286.329Z" fill="#299BBF"/>
<path d="M730.478 292.043C734.666 297.627 733.632 306.158 733.761 312.751C733.425 324.281 735.145 334.105 732.378 345.183C731.241 350.56 727.634 354.852 724.791 359.454C726.122 352.667 730.129 347.109 730.969 340.271C732.391 329.542 731.874 318.4 731.887 307.58C731.616 302.862 732.172 297.64 728.358 294.15C725.915 291.797 723.162 292.211 720.072 292.599L718.263 294.719C717.759 295.093 717.255 295.468 716.737 295.83C715.186 297.149 713.7 297.278 714.023 299.669C714.398 310.243 715.884 320.416 713.713 331.184C711.825 339.418 710.391 347.148 705.388 354.193C706.345 348.97 708.18 344.201 709.99 339.25C711.102 333.123 710.197 326.711 711.076 320.494C712.252 312.376 709.15 303.806 710.946 296.076C714.967 290.776 724.92 287.816 730.478 292.043Z" fill="#F2CD40"/>
<path d="M720.072 292.598C723.162 292.211 725.915 291.797 728.358 294.15C732.171 297.64 731.615 302.862 731.887 307.58C731.874 318.399 732.391 329.542 730.969 340.271C730.129 347.109 726.122 352.667 724.79 359.453C719.271 368.864 712.523 377.615 705.504 385.952C701.161 390.645 697.761 395.957 695.965 402.136C694.039 409.401 696.999 416.859 692.397 423.025C687.213 430.613 679.445 430.703 672.749 436.055C670.293 438.045 667.992 439.79 667.294 443.061C665.458 448.102 670.487 453.738 670.461 458.689C669.944 461.39 667.617 463.795 666.105 466.031C662.149 465.798 658.84 466.91 655.828 463.652C650.968 458.288 649.934 448.904 648.06 442.169C647.142 438.55 645.035 434.18 645.862 430.471C647.206 426.373 649.326 422.521 654.135 422.133C661.955 420.479 673.524 417.493 676.265 408.871C677.428 406.893 675.295 405.639 674.403 403.985C668.315 406.13 662.834 409.84 656.759 411.805C654.006 411.663 649.559 408.573 648.59 405.949C647.142 398.685 648.667 392.286 649.404 385.138C649.275 378.752 647.62 372.289 645.358 366.343C641.17 366.343 639.128 366.563 636.271 369.794C632.47 372.961 632.781 376.736 632.858 381.299C632.638 389.869 642.799 396.164 640.601 404.786C638.636 407.875 634.345 409.414 630.803 409.22C624.288 406.195 621.38 400.184 616.468 395.699C611.775 392.273 605.067 390.438 599.534 393.01C596.548 394.561 595.889 397.224 594.932 400.184C603.774 406.932 614.516 405.251 622.75 413.111C622.698 415.993 622.685 418.863 622.711 421.732C619.622 424.55 617.398 426.942 612.771 425.972C604.769 424.486 597.466 422.999 589.982 427.355C582.898 430.458 577.908 435.047 575 442.298C574.199 445.607 574.858 448.567 575.543 451.799C587.28 448.322 597.957 442.932 607.497 435.24C612.486 430.781 621.78 431.272 624.779 437.709C625.917 447.637 627.248 457.293 630.376 466.858C632.38 472.778 632.535 478.983 634.384 484.929C635.03 487.424 636.064 490.229 635.185 492.775C633.285 495.942 631.204 498.903 627.054 498.489C621.69 499.109 619.544 495.348 616.442 491.832L618.665 492.439C621.16 493.732 623.396 495.929 626.033 496.834C629.665 496.912 633.673 493.861 632.936 489.893C630.299 472.895 623.81 456.375 623.189 439.403C620.384 434.465 611.827 434.62 608.311 438.756C600.09 446.629 588.883 451.476 577.947 454.152C574.754 455.031 573.307 452.898 570.851 451.411C570.683 447.081 570.347 443.138 572.531 439.196C577.585 429.036 588.715 422.081 599.844 420.84C606.204 419.897 610.703 422.844 617.062 423.581C619.105 420.491 619.777 418.643 619.854 414.83C617.928 413.498 616.364 412.025 614.012 411.508C607.613 409.905 601.292 408.186 595.269 405.316C593.433 404.476 592.231 402.369 590.964 400.843C591.946 397.845 592.27 395.052 594.493 392.674C598.513 387.71 605.7 387.426 611.31 389.442C617.321 391.769 622.763 395.983 626.524 401.218C628.153 403.312 629.717 405.303 632.083 406.634C634.939 406.622 638.546 403.532 638.068 400.507C636.982 398.09 635.34 395.996 633.879 393.799C630.816 389.442 629.381 383.897 629.265 378.636C629.575 373.983 630.751 368.657 634.784 365.761C639.063 363.112 644.117 361.03 648.137 365.387C651.86 370.311 652.674 377.822 653.308 383.807C654.07 390.464 649.585 396.642 650.761 403.015C651.873 405.445 654.652 409.323 657.78 407.979C663.326 405.949 669.013 400.74 675.011 400.378C678.798 400.637 680.905 405.122 680.763 408.457C680.026 412.464 677.144 415.476 674.016 417.867C670.112 420.685 666.48 423.348 661.555 423.982C657.392 424.835 651.925 424.344 649.753 428.881C647.879 438.058 652.946 444.651 654.704 453.35C655.466 455.961 655.738 459.697 657.845 461.597C659.784 463.588 662.136 462.967 664.722 463.329C665.446 461.882 666.531 460.356 666.777 458.728C666.182 453.337 663.377 449.02 663.907 443.281C664.037 438.64 667.785 434.517 671.586 432.254C677.325 428.713 683.723 428.273 688.028 422.818C692.487 417.376 692.578 411.223 692.332 404.527C691.919 397.857 695.758 392.881 699.713 387.995C707.456 378.804 714.139 368.851 721.74 359.57C722.838 358.212 723.549 356.959 724.015 355.265C725.734 349.099 728.009 343.735 728.655 337.349C730.116 327.435 729.276 317.74 729.56 307.58C729.444 303.715 730.142 298.532 726.703 295.843C724.092 293.516 721.404 294.486 718.262 294.718L720.072 292.598Z" fill="#E3C96F"/>
<path d="M718.262 294.719C721.403 294.486 724.092 293.517 726.703 295.843C730.142 298.532 729.444 303.715 729.56 307.58C729.276 317.74 730.116 327.435 728.655 337.35C728.009 343.735 725.734 349.1 724.015 355.266C723.549 356.959 722.838 358.213 721.739 359.57C714.139 368.851 707.456 378.804 699.713 387.995C695.758 392.881 691.918 397.858 692.332 404.528C692.578 411.224 692.487 417.377 688.028 422.819C683.723 428.273 677.325 428.713 671.585 432.255C667.785 434.517 664.036 438.64 663.907 443.281C663.377 449.02 666.182 453.338 666.777 458.728C666.531 460.357 665.445 461.882 664.721 463.33C662.136 462.968 659.784 463.588 657.845 461.598C655.738 459.697 655.466 455.962 654.704 453.351C652.946 444.651 647.878 438.059 649.753 428.881C651.924 424.344 657.392 424.835 661.555 423.982C666.479 423.349 670.112 420.686 674.015 417.868C677.144 415.476 680.026 412.465 680.763 408.457C680.905 405.122 678.798 400.637 675.011 400.378C669.013 400.74 663.325 405.95 657.78 407.979C654.652 409.323 651.873 405.446 650.761 403.015C649.585 396.643 654.07 390.464 653.308 383.807C652.674 377.822 651.86 370.312 648.137 365.387C644.117 361.031 639.063 363.112 634.784 365.762C630.751 368.657 629.575 373.983 629.265 378.636C629.381 383.897 630.816 389.443 633.879 393.799C635.34 395.996 636.982 398.091 638.067 400.508C638.546 403.533 634.939 406.622 632.083 406.635C629.717 405.303 628.153 403.313 626.524 401.219C622.763 395.984 617.321 391.77 611.31 389.443C605.7 387.426 598.513 387.711 594.493 392.674C592.269 395.053 591.946 397.845 590.964 400.844C592.231 402.369 593.433 404.476 595.268 405.316C601.292 408.186 607.613 409.905 614.012 411.508C616.364 412.025 617.928 413.499 619.854 414.83C619.777 418.643 619.104 420.492 617.062 423.581C610.702 422.844 606.204 419.897 599.844 420.841C588.715 422.082 577.585 429.036 572.531 439.196C570.346 443.139 570.682 447.081 570.851 451.412C573.307 452.898 574.754 455.031 577.947 454.152C588.883 451.476 600.09 446.629 608.311 438.757C611.827 434.62 620.384 434.465 623.189 439.403C623.81 456.375 630.299 472.895 632.936 489.893C633.672 493.862 629.665 496.912 626.033 496.835C623.396 495.93 621.16 493.732 618.665 492.44C617.592 480.573 616.765 467.712 612.59 456.479C611.646 453.557 608.776 453.454 606.605 455.121C601.021 459.077 594.428 460.46 587.797 463.032C581.903 464.506 576.202 465.579 570.101 464.493C563.185 462.67 557.86 455.651 557.976 448.49C557.963 443.41 559.967 438.201 561.931 433.586C564.711 427.265 569.493 423.465 573.423 418.062C574.56 416.459 572.738 415.774 571.419 415.399C561.104 412.335 551.603 407.423 544.119 399.564C535.471 390.723 531.193 378.972 530.068 366.796C529.706 361.625 528.284 356.507 528.336 351.336C530.74 347.238 534.23 348.402 538.276 347.846C539.931 349.824 541.676 351.31 541.896 354.063C542.555 360.113 541.805 366.227 542.994 372.38C544.196 378.249 546.2 383.846 549.871 388.641C554.214 394.51 561.285 398.646 567.8 401.71C570.566 403.093 573.268 402.783 576.254 402.822C578.49 399.344 580.313 395.777 580.972 391.653C581.049 390.929 581.075 390.218 581.088 389.507C584.901 384.932 588.392 380.705 594.363 378.972C602.934 376.155 608.738 380.898 617.023 380.64C619.208 373.621 619.143 367.455 622.918 361.6C626.162 356.313 632.276 351.775 638.675 351.956C642.411 351.84 645.81 353.585 648.822 355.615C654.406 359.596 658.633 365.18 661.231 371.501C663.817 377.383 661.193 383.523 664.217 389.417C669.168 391.304 674.171 391.899 678.979 389.21C684.964 385.746 689.876 380.097 694.517 375.043C707.068 361.25 715.625 344.11 717.383 325.419C719.167 315.336 715.729 305.952 716.737 295.83C717.254 295.468 717.758 295.094 718.262 294.719Z" fill="#1E190D"/>
<path d="M546.433 296.347L549.238 296.205C553.737 300.794 552.638 309.791 547.299 313.384C541.069 318.322 534.67 322.782 529.009 328.456C525.842 331.714 523.308 335.682 520.477 339.263C510.537 351.84 504.798 366.977 498.774 381.648C494.935 394.678 491.587 407.746 490.423 421.332C488.562 432.423 490.204 443.074 492.388 453.958C494.444 461.946 496.732 470.529 501.139 477.561C505.78 485.317 508.572 493.099 514.932 499.833C519.301 504.254 522.713 509.412 526.876 514.014C529.319 517.013 532.137 519.055 531.801 523.372C528.711 520.722 525.893 517.879 523.23 514.815C511.7 501.902 501.359 487.14 494.767 471.085C489.583 458.146 487.101 444.289 486.985 430.38C487.58 408.677 493.048 387.711 501.178 367.675C509.71 346.812 522.856 328.133 540.901 314.444C543.602 312.311 547.209 310.062 548.838 306.973C550.234 302.966 548.062 299.812 546.433 296.347Z" fill="#EDCC46"/>
<path d="M716.737 295.83C715.729 305.951 719.167 315.336 717.383 325.418C715.625 344.11 707.068 361.25 694.517 375.043C689.876 380.097 684.964 385.746 678.979 389.21C674.171 391.899 669.168 391.304 664.217 389.417C661.193 383.522 663.817 377.382 661.232 371.501C658.633 365.18 654.406 359.596 648.822 355.614C645.81 353.585 642.411 351.84 638.675 351.956C632.277 351.775 626.162 356.312 622.918 361.599C619.143 367.455 619.208 373.621 617.023 380.64C608.738 380.898 602.934 376.154 594.364 378.972C588.392 380.704 584.902 384.931 581.088 389.507C581.243 387.232 580.455 384.776 582.135 382.966C585.225 379.347 589.826 375.211 594.881 375.327C600.995 375.159 607.122 375.495 613.223 375.469C617.179 368.747 616.778 360.772 621.845 355.407C626.085 350.676 632.703 349.461 638.688 348.634C644.725 348.569 650.994 351.374 655.221 355.692C658.168 358.587 661.942 361.69 663.326 365.658C665.885 372.367 667.54 379.386 670.112 386.095C672.736 385.875 676.019 386.12 678.32 384.737C682.056 382.695 684.861 379.089 687.808 376.09C691.673 372.044 695.822 369.109 698.899 364.404C701.083 361.018 703.216 357.592 705.388 354.192C710.39 347.148 711.825 339.418 713.712 331.184C715.884 320.416 714.397 310.243 714.023 299.669C713.699 297.278 715.186 297.149 716.737 295.83Z" fill="#E5CD60"/>
<path d="M417.416 313.074C424.073 315.75 430.458 319.563 435.693 324.488C441.032 329.697 444.057 336.484 445.259 343.774C445.776 347.885 447.935 350.78 450.52 353.844C452.963 353.107 455.264 352.887 456.582 350.379C459.284 344.86 458.534 338.371 462.36 332.877C464.803 329.335 468.707 325.638 473.399 326.66C475.532 327.564 478.376 329.491 478.156 332.127C477.575 338.41 475.494 345.222 472.533 350.806C469.25 357.256 463.007 359.376 463.214 367.546C468.229 373.078 475.7 371.501 480.793 376.361C483.624 379.748 482.164 384.195 481 387.93C478.376 395.376 477.898 403.222 474.964 410.551C473.335 410.461 471.667 410.435 470.052 410.19C467.647 408.897 467.311 405.665 466.458 403.313C464.403 395.88 460.098 389.96 458.521 382.631C457.733 378.74 458.224 374.681 457.384 370.829C456.608 367.481 454.566 364.676 451.748 362.711C442.609 356.7 431.182 353.378 423.207 346.01C417.997 342.313 415.296 336.91 410.797 332.528C408.018 329.503 404.45 326.311 402.809 322.51C401.374 318.4 403.378 314.457 407.01 312.376C410.345 311.575 414.223 311.743 417.416 313.074Z" fill="#E4CE69"/>
<path d="M414.3 315.297C419.561 317.378 424.46 320.429 429.398 323.169C434.814 325.936 437.167 331.636 439.882 336.755C442.157 341.034 441.536 345.48 441.691 350.211C443.591 351.892 445.492 353.585 447.392 355.278C438.964 350.832 429.902 349.423 423.4 343.166C418.308 338.681 415.942 333.045 411.418 328.068C409.944 326.336 408.199 324.708 406.984 322.782C406.596 320.597 406.726 318.296 406.803 316.073C409.35 315.142 411.599 314.198 414.3 315.297Z" fill="#F6CD10"/>
<path d="M470.594 328.922C472.197 329.18 473.787 329.568 475.338 330.124C476.398 344.265 467.97 355.175 457.9 363.991C455.315 361.806 452.756 359.583 450.222 357.321C453.221 355.731 457.021 354.322 458.896 351.362C461.597 347.458 460.499 341.383 462.722 337.194C464.48 333.911 466.988 330.305 470.594 328.922Z" fill="#F1C90F"/>
<path d="M888.683 337.828C888.903 338.875 889.11 339.922 889.329 340.969C885.09 346.411 881.057 352.008 876.752 357.398C877.217 351.064 881.961 348.699 884.96 343.541C884.107 341.912 883.034 341.408 881.729 342.042C876.933 343.36 871.866 345.338 867.458 347.652C864.485 348.944 864.136 352.628 864.214 355.459C864.382 358.872 866.308 361.017 868.221 363.603C870.728 361.884 873.314 360.268 875.834 358.561C873.663 361.535 871.362 364.262 868.777 366.873C865.08 363.978 862.456 360.138 861.745 355.433C861.538 350.47 864.899 346.204 869.397 344.433C875.692 341.912 882.233 339.948 888.683 337.828Z" fill="#66889C"/>
<path d="M918.077 340.814C919.512 341.124 920.947 341.434 922.382 341.744C932.813 344.019 943.413 345.196 954.09 344.86C961.975 345.015 970.377 344.2 978.12 345.816C979.943 346.062 982.735 348.246 981.843 350.25C980.033 355.33 976.259 359.815 973.324 364.327C963.759 377.861 954.801 391.808 945.068 405.213C942.831 393.139 940.349 381.48 935.373 370.182C931.262 360.927 926.079 352.305 920.21 344.084C919.499 342.998 918.788 341.9 918.077 340.814Z" fill="#885D4D"/>
<path d="M881.729 342.042C883.034 341.408 884.107 341.912 884.96 343.541C881.962 348.699 877.218 351.064 876.752 357.398C876.455 357.786 876.145 358.174 875.835 358.561C873.314 360.268 870.729 361.884 868.221 363.603C866.308 361.017 864.382 358.872 864.214 355.459C864.136 352.628 864.485 348.944 867.458 347.652C871.866 345.338 876.933 343.36 881.729 342.042Z" fill="#3096BE"/>
<path d="M543.809 351.168C545.916 359.273 543.615 367.248 546.51 375.456C549.044 385.862 557.911 393.812 567.257 398.258C570.01 399.267 573.397 401.555 575.646 398.439C577.559 394.574 577.43 390.593 580.778 387.439L580.972 391.653C580.313 395.777 578.49 399.344 576.254 402.821C573.268 402.783 570.566 403.093 567.8 401.71C561.285 398.646 554.215 394.51 549.871 388.641C546.2 383.846 544.197 378.249 542.994 372.38C541.805 366.227 542.555 360.113 541.896 354.063C541.676 351.31 539.931 349.824 538.276 347.846C534.23 348.402 530.74 347.238 528.336 351.336C528.284 356.506 529.706 361.625 530.068 366.796C531.193 378.972 535.471 390.722 544.119 399.564C551.603 407.423 561.104 412.335 571.419 415.399C572.738 415.774 574.561 416.459 573.423 418.062C569.493 423.465 564.711 427.265 561.932 433.586C559.967 438.201 557.963 443.41 557.976 448.49C557.86 455.651 563.185 462.67 570.101 464.493C576.202 465.579 581.903 464.506 587.797 463.032C586.711 463.885 585.625 464.726 584.54 465.553C578.93 468.138 571.975 467.712 566.223 465.876C560.445 464.183 557.045 457.771 555.559 452.368C554.421 446.112 556.8 438.938 558.816 433.03C560.548 427.847 564.4 423.969 567.71 419.69C563.379 415.334 556.438 413.266 550.931 410.681C549.975 410.099 549.315 408.974 548.566 408.147C543.654 401.58 536.001 396.526 532.977 388.641C528.763 377.189 526.139 364.934 525.557 352.758C525.958 343.593 541.973 342.636 543.809 351.168Z" fill="#F1CF4C"/>
<path d="M431.996 367.533C435.266 368.282 438.769 368.735 441.872 370.04C446.835 372.147 448.839 378.985 445.672 383.393C439.7 392.261 427.187 395.389 417.325 391.963C409.284 389.184 408.289 376.607 414.313 371.449C419.483 367.197 425.481 365.374 431.996 367.533Z" fill="#D6C478"/>
<path d="M424.124 370.105C430.135 369.717 436.727 370.493 441.794 374.009C444.315 376.051 444.729 378.468 443.346 381.364C441.484 385.952 436.262 387.258 432.242 389.352C426.606 392.7 420.104 388.938 414.727 386.78C414.132 383.884 412.995 381.506 413.912 378.584C414.778 374.021 419.458 370.053 424.124 370.105Z" fill="#F7CC16"/>
<path d="M476.696 378.067C479.333 379.644 479.139 382.049 478.622 384.737C477.019 391.743 475.3 398.491 472.223 404.98C471.693 405.006 471.15 405.045 470.607 405.083C466.691 394.393 459.814 384.466 461.068 372.793C466.484 372.69 471.965 375.689 476.696 378.067Z" fill="#F3CE1E"/>
<path d="M450.016 397.586C451.05 398.052 452.058 398.543 453.053 399.06C456.065 404.735 453.855 409.685 451.36 414.959C448.219 421.074 442.234 425.662 435.512 427.11C431.971 427.731 428.455 427.575 425.844 424.796C421.358 420.544 420.544 415.244 420.712 409.298C423.866 405.704 425.856 404.657 430.626 403.856C437.555 402.912 443.475 399.693 450.016 397.586Z" fill="#EBCF53"/>
<path d="M450.908 401.102C453.532 406.867 450.223 411.017 447.392 415.8C444.677 420.44 438.99 423.155 433.793 423.633C431.583 423.672 428.868 423.969 427.291 422.095C424.409 419.044 422.263 414.442 423.388 410.202C426.335 407.759 430.769 406.777 434.388 405.743C440.05 404.282 444.988 401.645 450.908 401.102Z" fill="#F5CD09"/>
<path d="M612.59 456.478C616.765 467.711 617.592 480.573 618.665 492.44L616.442 491.832L616.196 491.535C614.955 484.024 615.304 476.85 613.236 469.702C612.15 465.85 611.22 461.985 610.47 458.055C607.574 458.133 604.886 458.443 602.21 459.645C596.471 462.153 590.382 463.394 584.54 465.553C585.625 464.725 586.711 463.885 587.797 463.032C594.428 460.46 601.021 459.077 606.605 455.121C608.776 453.454 611.646 453.557 612.59 456.478Z" fill="#F8ED8F"/>
<path d="M531.891 523.463L534.114 522.674C544.468 532.977 556.347 540.758 569.015 547.907C574.935 551.733 581.347 554.538 587.849 557.213C595.604 560.885 602.998 564.633 611.556 566.081C621.599 567.619 631.061 570.902 641.286 571.445C646.883 572.118 654.187 571.213 659.189 574.005C662.498 576.706 664.36 581.373 666.88 584.837C669.349 584.915 671.896 584.876 674.352 585.264C675.463 586.272 676.161 587.836 676.833 589.154C675.308 587.926 673.731 586.815 672.102 585.703C670.448 587.19 668.845 588.715 667.384 590.408C663.429 585.626 661.374 579.188 656.849 575.026C653.114 573.397 647.917 574.496 643.858 574.199C633.466 573.682 622.931 572.402 612.926 569.429C607.174 567.813 602.016 565.318 596.471 563.173C572.57 554.008 550.44 541.198 531.891 523.463Z" fill="#E9D285"/>
<path d="M587.849 557.213C589.995 557.407 592.192 557.433 594.312 557.834C598.345 559.023 602.507 562.306 606.851 562.991C611.362 563.586 616.093 562.785 620.63 563.289C625.038 564.038 628.761 566.365 633.337 566.65C641.777 567.167 649.74 569.287 657.922 571.368C661.943 572.363 664.773 574.418 667.462 577.495C671.43 581.993 676.342 584.385 681.203 587.72C682.457 581.941 681.797 575.698 687.718 572.505C692.074 569.842 695.758 571.833 700.101 573.19C700.347 574.25 700.592 575.31 700.825 576.383C695.616 574.392 691.001 572.996 686.128 576.706C685.701 583.299 684.047 589.297 685.507 595.902C685.986 599.224 687.058 604.679 682.741 605.778C677.506 606.734 678.243 600.71 677.829 597.337C677.726 594.519 677.7 591.869 676.834 589.154C676.162 587.836 675.463 586.272 674.352 585.264C671.896 584.876 669.349 584.914 666.88 584.837C664.36 581.373 662.498 576.706 659.189 574.005C654.187 571.213 646.883 572.117 641.286 571.445C631.062 570.902 621.6 567.619 611.556 566.081C602.999 564.633 595.605 560.884 587.849 557.213Z" fill="#F4CB23"/>
<path d="M739.552 566.146C735.868 570.825 732.779 575.453 732.378 581.593C731.913 589.025 732.805 596.393 731.797 603.826C730.84 610.935 732.146 620.074 728.901 626.55C725.346 631.488 715.845 629.472 710.468 630.105C712.433 624.094 718.366 618.885 718.689 612.629C719.206 607.807 713.751 605.209 710.235 603.283C708.09 603.852 705.944 604.291 703.746 604.627C702.027 602.21 700.476 599.974 700.334 596.897C699.92 590.77 699.468 584.643 699.028 578.529C696.34 577.443 693.819 576.926 690.923 576.693C690.161 577.559 689.411 578.438 688.661 579.317C685.301 583.958 687.769 592.037 687.705 597.479C688.261 601.641 686.218 607.911 681.384 608.298C677.687 608.802 676.278 605.623 673.99 603.399C675.632 601.512 676.821 599.625 677.829 597.337C678.243 600.711 677.506 606.734 682.741 605.778C687.058 604.679 685.986 599.224 685.507 595.902C684.047 589.297 685.701 583.299 686.128 576.706C691.001 572.997 695.616 574.393 700.825 576.383C701.446 584.32 702.118 592.231 702.829 600.168C706.099 602.145 709.266 601.396 712.859 601.796C716.246 602.339 718.599 604.834 721.016 607.032C720.99 611 721.404 615.266 720.628 619.169C719.736 622.297 717.125 624.909 714.902 627.184C718.159 625.994 721.417 625.917 724.842 625.982C727.272 621.677 728.332 617.631 728.397 612.68C728.423 602.753 728.5 592.825 728.5 582.898C728.306 576.758 732.688 570.502 735.067 564.969C736.566 565.357 738.066 565.719 739.552 566.146Z" fill="#D5C773"/>
<path d="M688.661 579.317C688.248 585.432 688.48 591.003 689.424 597.052C690.006 601.24 689.669 607.768 685.081 609.681C680.479 611.388 674.378 609.475 669.957 607.846C671.314 606.359 672.684 604.912 673.99 603.399C676.278 605.622 677.687 608.802 681.384 608.298C686.218 607.91 688.26 601.641 687.705 597.479C687.769 592.037 685.3 583.958 688.661 579.317Z" fill="#CDBD7E"/>
<path d="M672.103 585.703C673.731 586.815 675.308 587.926 676.834 589.154C677.7 591.869 677.726 594.519 677.829 597.337C676.821 599.625 675.632 601.512 673.99 603.399C672.684 604.912 671.314 606.359 669.957 607.846C668.393 606.747 666.958 605.454 665.523 604.188C667.617 602.908 670.978 601.809 671.999 599.405C673.266 597.169 672.878 594.532 673.02 592.011C671.159 592.308 669.311 592.593 667.449 592.877L667.385 590.408C668.845 588.715 670.448 587.19 672.103 585.703Z" fill="#422B06"/>
<path d="M673.021 592.011C672.878 594.532 673.266 597.169 671.999 599.405C670.978 601.809 667.617 602.908 665.523 604.188C664.489 599.793 665.795 596.807 667.449 592.877C669.311 592.593 671.159 592.308 673.021 592.011Z" fill="#C3C179"/>
<path d="M649.934 597.699C654.898 599.625 654.446 604.976 654.626 609.384C650.645 608.363 645.837 607.574 642.592 604.873C640.821 603.231 638.753 601.318 638.882 598.707C642.075 597.117 646.47 597.337 649.934 597.699Z" fill="#C6C6C4"/>
<path d="M713.855 608.169C714.191 611.103 714.798 613.714 713.919 616.623C712.601 619.867 710.145 622.272 707.081 623.926C707.056 621.121 706.849 618.135 707.418 615.369C708.309 612.086 711.347 610.173 713.855 608.169Z" fill="#BBB975"/>
<path d="M654.407 618.058C659.009 617.631 663.753 617.941 668.419 617.838C673.796 617.851 678.67 616.959 683.698 619.492C672.801 620.022 661.62 619.854 650.71 619.505C651.938 619.027 653.179 618.536 654.407 618.058Z" fill="#040302"/>
<path d="M649.96 619.609L650.71 619.505C661.62 619.854 672.801 620.022 683.698 619.492C686.942 619.428 690.174 619.415 693.418 619.686C694.517 623.112 695.164 625.283 693.535 628.722C683.207 627.688 672.891 628.903 662.964 631.798C658.53 633.091 654.833 636.684 650.064 635.314C646.625 632.509 644.454 627.132 644.57 622.737C645.694 620.152 647.414 619.919 649.96 619.609Z" fill="#FDFCFA"/>
<path d="M636.671 621.315C641.958 624.327 643.949 633.039 642.992 638.584C639.968 642.811 635.805 641.713 631.294 641.751C625.154 636.348 629.639 628.748 622.504 624.016C626.796 622.879 632.251 620.113 636.671 621.315Z" fill="#FDFCFC"/>
<path d="M605.558 629.937C607.897 629.29 610.03 628.515 612.215 630.066C617.889 633.272 618.717 640.368 618.794 646.25C618.549 650.205 619.764 654.652 616.131 657.328C610.47 661.529 601.37 660.301 595.449 657.224C590.744 654.691 585.987 648.796 589.103 643.341C592.412 637.382 599.25 632.354 605.558 629.937Z" fill="#1C7C50"/>
<path d="M679.329 640.42C679.497 642.993 680.841 646.534 678.152 648.241C675.632 649.999 672.71 651.627 669.712 652.351C665.394 652.894 663.83 645.371 666.648 643.044C670.009 640.162 675.154 640.097 679.329 640.42Z" fill="#DBDAD8"/>
<path d="M717.539 640.368C722.024 640.394 726.29 639.58 730.724 639.127C732.572 643.535 732.559 648.253 734.046 652.765C735.157 656.759 737.264 661.736 736.127 665.885C734.149 667.772 731.771 668.095 729.211 668.651C713.144 671.456 697.154 674.843 681.319 678.708C678.088 679.212 673.188 680.375 670.836 677.428C668.354 674.571 669.466 671.598 669.853 668.238C669.53 665.782 668.638 662.783 669.673 660.443C670.978 656.164 676.407 653.915 680.195 652.364C682.625 651.42 683.387 653.605 684.9 654.975C682.987 658.698 681.694 661.891 681.81 666.156C684.163 668.082 686.296 669.207 689.178 670.189C693.16 667.488 696.482 664.217 695.913 658.969C694.879 655.428 689.437 654.368 687.976 651.239C687.692 648.409 689.838 647.801 691.686 646.237C694.607 644.233 697.606 642.527 701.019 641.532C706.344 639.813 712.006 640.498 717.539 640.368Z" fill="#FDFDFC"/>
<path d="M655.143 651.769C658.155 654.949 657.47 660.301 657.935 664.36C658.336 669.776 659.189 674.597 656.94 679.794C654.432 682.482 651.033 681.28 647.801 681.086C642.773 680.259 635.883 679.871 632.134 676.071C628.877 672.542 626.46 667.32 629.329 662.783C632.315 657.69 638.442 652.261 643.871 649.934C647.724 648.202 652.17 648.602 655.143 651.769Z" fill="#1B7C4F"/>
</g>
<defs>
<clipPath id="clip0_2_680">
<rect width="1330" height="730" fill="white"/>
</clipPath>
</defs>
</svg>
