<svg width="1330" height="730" viewBox="0 0 1330 730" fill="none" xmlns="http://www.w3.org/2000/svg">
<g clip-path="url(#clip0_2_348)">
<path d="M0 0H1330V730H0V0Z" fill="white"/>
<path d="M674.468 55.3441C686.668 53.6908 699.201 53.6908 711.454 54.6508C722.921 56.2641 734.414 58.1175 745.681 60.7575C760.694 65.2641 774.694 72.5174 787.641 81.2774C798.041 89.3841 807.561 98.6775 816.894 107.984C824.441 115.317 829.868 124.211 837.214 131.704C837.894 132.477 838.668 132.997 839.534 133.251C843.534 132.877 847.268 131.317 851.334 131.224C857.094 130.957 862.948 131.104 868.668 131.797C876.721 135.064 881.908 142.144 886.201 149.371C890.068 155.704 891.188 163.517 891.814 170.811C891.241 179.664 887.828 188.384 882.961 195.757C878.401 202.277 872.094 205.597 865.321 209.317C867.508 216.251 868.681 223.411 870.734 230.384C874.188 244.864 875.401 259.917 877.734 274.611C882.254 274.197 885.668 273.037 889.628 270.891C885.294 260.624 880.988 251.904 883.081 240.277C884.614 235.224 887.734 230.531 892.121 227.517C899.081 223.304 907.508 222.157 915.441 223.731C920.161 224.877 923.321 228.611 925.574 232.691C928.788 238.344 929.401 244.371 929.748 250.744C937.588 249.251 944.668 247.424 952.774 248.891C957.934 250.584 962.401 254.117 964.761 259.064C966.268 264.011 965.068 269.944 963.068 274.624C961.188 279.584 956.268 283.184 952.774 287.237C958.614 291.064 963.748 294.637 965.374 301.891C966.028 308.291 966.468 314.691 961.574 319.597C956.561 325.317 950.294 325.371 943.281 326.237C944.761 331.424 947.321 336.931 946.401 342.371C945.494 348.384 943.828 354.544 939.948 359.371C936.268 363.757 930.334 365.717 924.774 366.051C917.934 366.717 911.254 363.037 906.641 358.237C901.094 353.037 898.774 345.371 895.241 338.731C887.654 341.717 879.894 342.451 871.894 343.504C871.641 348.611 872.028 353.717 871.814 358.824C870.681 371.677 868.268 384.277 866.254 396.997C861.868 419.277 852.681 440.731 840.401 459.784C832.081 472.091 822.748 483.811 812.254 494.331C803.294 503.464 794.761 512.411 783.788 519.197C772.521 526.344 760.561 534.544 747.628 537.917C740.081 541.517 731.934 543.131 724.268 546.424C723.308 551.371 722.441 555.997 723.881 560.971C729.561 560.984 734.988 560.531 740.574 559.424C751.014 557.237 761.388 559.037 772.468 559.557C781.601 561.077 790.801 563.571 799.508 566.744C805.534 568.837 810.014 572.691 814.774 576.784C821.414 582.811 825.561 591.264 826.534 600.144C826.441 606.557 824.188 613.211 820.188 618.237C817.428 621.757 813.708 623.077 812.521 627.477C817.934 628.037 823.321 627.437 828.748 627.704C838.401 628.237 847.774 626.664 857.574 627.784C858.988 628.851 859.108 630.144 857.934 631.624C840.708 631.277 823.228 632.477 806.014 631.251C801.561 631.024 797.321 633.504 792.814 633.877C777.721 635.237 763.081 634.877 748.734 629.464C739.774 625.971 732.281 620.597 724.214 615.557C723.188 624.664 723.628 633.557 725.748 642.477C720.761 645.104 716.628 643.104 711.441 642.557C700.908 640.997 690.028 642.731 680.721 647.944C671.214 650.877 660.094 651.931 650.254 650.184C646.214 649.584 641.908 648.824 638.521 646.384C633.641 643.931 637.574 636.291 634.721 631.931C631.081 635.157 628.228 638.477 624.348 641.117C619.161 644.944 612.068 646.064 606.361 649.264C606.561 651.371 606.948 653.464 607.214 655.557C591.761 656.211 576.174 655.144 560.748 654.344C550.001 653.904 539.201 654.237 528.494 653.277C503.801 652.344 479.094 652.984 454.428 652.677C454.414 651.211 454.401 649.744 454.388 648.277C458.321 647.917 462.081 648.837 466.001 648.797C483.041 648.664 500.068 648.317 517.094 648.797C534.454 648.704 551.628 650.544 569.001 650.077C566.641 646.944 563.348 646.451 559.988 644.944C555.948 643.371 552.228 641.264 548.628 638.891C539.308 642.344 527.721 640.357 518.041 639.477C514.108 639.211 510.548 639.744 507.001 637.584C508.561 636.504 510.534 634.037 512.614 634.424C522.681 635.557 533.068 637.824 543.214 635.544C545.201 634.797 543.081 632.877 542.441 631.944C531.548 620.584 529.908 600.504 538.548 587.437C540.948 583.291 543.081 578.664 546.894 575.664C552.521 570.904 558.894 568.864 565.694 566.424C574.641 563.091 584.468 561.957 593.974 562.331C606.721 563.451 619.254 566.157 631.268 570.557C632.481 561.797 630.348 552.904 630.894 544.024C624.654 542.384 618.294 541.557 611.934 540.504C600.974 538.291 590.201 534.824 579.974 530.317C568.148 523.944 555.548 517.571 545.188 509.051C538.468 504.224 532.428 498.797 526.681 492.851C519.774 485.717 511.988 478.651 506.294 470.584C501.454 463.784 496.281 457.317 492.161 450.024C483.761 435.064 476.774 419.211 471.694 402.824C467.108 387.971 465.708 372.744 463.681 356.984C452.121 356.851 440.254 355.077 430.068 349.344C428.481 348.504 426.548 347.957 425.721 350.051C422.068 359.171 414.361 368.197 404.721 371.091C393.801 372.731 381.081 364.864 379.334 353.477C377.348 344.637 380.068 336.891 384.188 329.197C378.308 327.037 372.001 326.184 368.174 320.691C364.534 316.091 364.508 310.371 365.708 304.904C368.921 297.637 374.948 295.051 381.374 291.344C378.108 287.117 374.054 282.531 372.561 277.317C371.121 271.531 373.561 266.171 376.601 261.384C379.134 257.091 385.001 257.037 389.374 256.131C395.508 254.917 400.601 256.811 406.481 258.197C406.814 252.277 405.708 244.384 409.228 239.304C411.748 234.904 416.081 232.037 420.788 230.477C425.561 229.584 430.668 229.571 435.494 229.917C442.081 231.677 446.201 236.877 448.268 243.157C452.721 254.824 451.094 267.104 447.974 278.851C451.894 281.504 456.041 283.811 460.281 285.904C462.014 286.651 462.748 286.064 462.988 284.237C466.028 258.877 471.041 233.237 479.961 209.237C475.348 206.104 470.334 203.811 466.748 199.491C461.081 192.824 458.521 183.384 458.654 174.757C458.454 168.291 461.641 161.691 464.828 156.211C470.854 147.891 481.041 141.184 491.308 139.864C498.241 139.011 504.468 140.677 511.068 142.411C514.868 139.277 517.334 134.371 520.481 130.557C529.108 118.357 540.134 108.304 552.294 99.7041C561.641 93.2108 570.708 86.8108 580.894 81.6508C599.921 71.9974 619.388 64.0641 640.361 59.7975C651.628 57.7975 663.028 55.9575 674.468 55.3441Z" fill="#080609"/>
<path d="M686.508 62.2375C697.894 61.5442 709.814 61.8108 721.041 64.0508C734.281 66.0775 748.601 68.6508 760.534 74.9975C770.654 80.2775 780.321 85.6508 788.721 93.4908C795.948 100.424 803.814 106.944 810.361 114.504C816.828 122.558 823.494 130.371 829.241 138.971C826.014 143.411 822.468 147.664 819.534 152.304C816.641 156.931 815.308 161.891 814.001 167.131C810.481 168.064 807.081 168.891 803.414 168.384C782.014 166.397 758.974 161.078 740.601 149.531C730.361 142.731 720.334 135.291 712.414 125.824C706.521 117.971 701.228 109.864 697.268 100.864C692.254 92.3708 690.028 83.1175 687.588 73.6642C686.654 69.9042 686.094 66.1175 686.508 62.2375Z" fill="#DDAD01"/>
<path d="M669.455 63.5708C666.641 72.4108 661.815 79.4908 657.548 87.6108C651.015 100.197 641.495 111.717 632.881 122.957C628.468 128.864 623.308 133.611 618.068 138.811C605.761 150.717 589.668 159.664 574.441 167.291C559.895 174.837 543.335 178.917 527.015 179.571C526.841 174.424 527.161 168.984 526.148 163.931C524.895 158.797 521.388 154.011 518.721 149.504C522.975 142.131 527.588 135.051 533.228 128.637C545.495 113.997 560.548 103.397 576.641 93.3708C584.908 88.5041 593.655 84.4108 602.388 80.4641C623.428 70.7708 646.388 65.2108 669.455 63.5708Z" fill="#DDAD01"/>
<path d="M677.001 76.1309C680.481 83.4375 681.641 91.4242 685.214 98.6642C689.588 107.384 693.681 116.064 699.681 123.824C711.428 140.664 727.854 152.238 745.814 161.704C750.574 164.198 755.588 165.664 760.694 167.264C775.588 172.238 791.134 175.651 806.734 177.464C809.548 177.998 813.054 178.358 815.428 180.051C817.721 183.251 818.974 187.198 820.974 190.598C824.401 196.838 830.721 201.704 836.588 205.571C842.121 209.184 848.428 209.011 854.561 210.744C856.961 211.304 857.494 213.518 858.361 215.504C861.708 225.384 863.814 235.451 865.241 245.771C866.628 256.371 868.574 266.758 869.081 277.464C869.121 280.358 869.854 282.811 870.961 285.464C874.761 285.118 878.334 284.464 881.868 282.958C887.828 280.518 894.041 279.064 900.281 277.491C900.321 271.464 896.908 267.704 894.668 262.451C892.401 257.398 890.574 251.504 890.974 245.918C891.854 237.371 900.721 230.731 908.894 230.118C914.401 229.611 917.694 233.758 919.588 238.371C923.041 247.238 920.548 255.318 920.081 264.184C919.641 267.238 924.388 268.998 926.574 267.371C930.348 264.811 933.228 260.171 937.281 258.078C940.521 256.624 944.214 255.958 947.748 255.798C952.254 255.478 956.721 259.464 956.321 264.078C955.974 271.758 950.788 278.424 944.481 282.411C939.268 284.944 933.454 284.331 928.521 287.944C930.641 289.838 932.988 292.584 935.814 293.318C940.508 294.531 945.694 293.544 950.361 294.731C955.121 296.558 957.948 301.758 957.561 306.744C957.588 312.624 953.081 317.344 947.614 318.851C940.108 320.851 932.521 315.771 925.214 318.424C928.028 323.091 932.161 326.504 935.414 330.771C938.174 334.304 937.868 339.571 937.294 343.758C936.401 348.224 934.401 353.811 930.481 356.464C927.001 358.544 922.494 360.118 918.534 358.464C912.268 356.504 908.734 349.518 906.348 343.904C903.614 337.678 904.214 331.931 899.774 326.811C891.761 330.651 884.401 335.718 875.254 336.624C869.788 336.238 865.454 331.984 860.281 335.758C864.281 349.118 863.254 364.224 860.481 377.758C858.694 387.838 857.854 397.918 854.708 407.744C851.361 421.864 844.668 433.998 838.001 446.718C833.494 455.384 828.108 463.078 821.761 470.491C808.361 487.544 792.748 503.078 775.268 515.931C767.574 521.758 758.468 526.131 749.748 530.224C741.308 534.118 732.454 535.438 723.388 536.958C719.281 537.531 715.948 540.158 714.894 544.224C714.134 550.051 715.281 556.251 714.228 562.038C713.081 567.304 707.668 569.838 703.281 571.971C695.414 575.318 686.348 578.664 677.708 578.198C677.241 571.091 676.974 564.104 678.188 557.051C678.788 551.424 680.454 546.771 675.374 542.624C673.694 544.531 671.281 546.504 670.654 549.024C668.028 559.264 668.121 569.051 668.121 579.478C660.934 579.558 653.121 580.264 646.094 578.584C644.068 578.064 640.668 576.771 640.494 574.318C639.561 562.011 641.001 549.531 639.948 537.238C624.774 535.864 610.134 534.078 595.681 528.944C586.348 525.851 578.508 520.971 569.881 516.411C557.388 509.744 546.614 500.891 536.521 491.024C517.668 473.904 501.708 452.864 491.348 429.544C485.801 417.091 479.988 403.784 477.481 390.384C475.881 382.304 474.468 374.104 473.841 365.891C473.441 361.184 474.321 356.291 473.534 351.651C472.321 349.878 469.348 350.198 467.454 349.958C454.281 349.491 441.041 348.304 430.201 340.024C426.401 337.491 423.601 334.998 419.374 338.678C417.294 344.118 417.494 349.731 414.174 354.891C412.028 358.131 409.094 361.918 405.374 363.371C399.334 365.064 392.414 362.531 389.534 356.811C387.548 352.704 387.574 347.464 387.961 343.011C388.628 337.278 392.121 332.958 396.268 329.211C398.241 327.038 400.748 326.051 400.188 322.651C394.041 320.664 386.628 322.958 380.388 321.558C376.294 319.931 372.374 313.438 373.628 309.024C374.841 304.984 378.668 301.038 382.721 299.824C387.854 298.904 393.294 299.398 398.494 299.144C398.614 297.624 398.761 296.091 398.894 294.571C393.281 289.958 384.388 286.411 381.814 279.331C380.494 274.331 381.321 268.184 384.761 264.171C388.694 261.624 394.374 261.598 398.854 262.251C404.321 263.224 407.454 269.944 412.134 272.544C415.014 273.704 416.508 272.238 418.708 270.664C416.881 264.411 414.468 257.318 414.974 250.771C415.468 245.998 417.121 240.931 421.348 238.198C424.668 236.064 429.174 234.811 433.068 235.878C438.308 238.011 441.308 244.664 442.254 249.918C443.014 255.491 442.974 261.838 441.908 267.371C441.134 271.771 437.574 275.704 437.321 280.078C439.534 283.651 444.388 285.678 447.948 287.704C454.761 291.144 460.414 296.038 467.654 298.704C472.348 294.184 471.921 288.798 472.121 282.798C471.988 272.584 475.054 262.158 476.814 251.931C478.188 243.571 480.601 235.544 483.041 227.451C484.521 222.918 485.548 217.078 488.748 213.424C494.161 210.238 501.294 210.518 506.921 207.451C512.321 204.478 516.708 199.078 520.148 194.078C521.361 192.464 522.628 190.424 524.401 189.384C527.388 188.064 530.921 187.731 534.134 187.278C547.014 185.718 559.748 182.491 571.801 177.664C580.921 174.184 589.374 168.664 597.988 163.998C607.228 158.078 617.334 152.158 624.881 144.291C631.841 137.264 638.908 130.851 644.801 122.851C652.494 112.544 660.321 102.611 666.801 91.4775C670.201 85.9842 672.174 80.5309 677.001 76.1309Z" fill="#C22086"/>
<path d="M850.734 138.331C855.614 137.291 861.214 138.731 865.908 140.144C870.748 141.331 874.081 146.931 876.814 150.757C882.321 158.797 882.548 168.437 880.774 177.704C877.174 187.731 869.268 199.637 858.014 201.717C844.081 204.411 828.814 194.597 825.548 180.717C822.708 172.864 824.681 165.344 827.961 158.037C832.308 148.784 841.254 141.731 850.734 138.331Z" fill="#DDAD01"/>
<path d="M488.214 147.971C493.801 146.971 501.534 146.664 506.041 150.798C510.294 154.344 515.254 158.664 516.054 164.464C516.921 171.518 516.708 178.531 513.814 185.131C511.174 192.198 505.601 197.811 498.881 201.091C488.348 205.451 475.734 200.171 470.934 189.944C467.561 182.624 466.308 172.878 470.014 165.451C473.361 157.664 480.668 151.504 488.214 147.971Z" fill="#DDAD01"/>
<path d="M649.121 172.091C653.348 171.424 659.508 174.571 660.935 178.824C664.788 187.584 662.068 198.864 655.681 205.744C652.188 209.571 647.001 209.757 642.348 208.291C638.481 206.584 635.935 202.651 634.975 198.637C633.935 193.424 635.908 187.531 638.095 182.824C640.508 177.904 643.495 173.531 649.121 172.091Z" fill="#080609"/>
<path d="M694.508 175.158C696.641 175.011 698.988 175.024 701.028 175.718C706.001 178.398 708.481 183.931 708.095 189.464C707.695 196.024 705.055 203.051 700.295 207.691C697.428 210.824 692.015 210.918 688.215 209.851C683.015 206.664 680.681 199.198 680.548 193.424C680.815 185.211 685.281 175.758 694.508 175.158Z" fill="#080609"/>
<path d="M665.121 234.691C673.201 233.424 681.175 233.464 688.401 237.797C696.348 241.811 700.895 248.851 704.468 256.731C707.188 262.877 707.481 269.517 706.655 276.117C704.908 286.557 697.801 296.011 689.695 302.517C681.441 309.131 671.175 311.811 660.721 311.677C650.281 312.144 639.761 307.744 632.081 300.797C625.935 294.264 621.535 285.024 621.588 275.957C622.108 269.771 624.668 263.331 628.188 258.251C637.428 246.331 650.161 237.517 665.121 234.691Z" fill="#080609"/>
<path d="M812.641 234.851C813.508 236.597 814.214 238.397 814.774 240.224C813.348 245.344 809.788 248.651 805.588 251.597C802.988 253.731 799.908 254.891 799.348 258.571C796.294 274.811 794.268 291.091 789.321 306.944C786.614 319.011 780.934 329.558 776.308 340.904C772.361 350.384 767.521 359.371 761.881 367.944C752.134 382.878 739.988 398.531 724.721 408.104C712.361 415.651 699.668 422.131 685.428 425.278C669.228 429.424 652.748 430.718 636.481 426.064C615.214 420.944 597.948 406.491 582.441 391.784C568.134 379.224 558.348 363.531 550.428 346.384C545.041 335.197 541.228 323.371 538.561 311.251C536.414 301.398 535.948 291.464 535.214 281.451C535.268 272.797 537.174 263.597 538.654 255.184C540.214 248.784 534.708 245.637 534.254 238.931C538.174 240.731 541.868 244.464 546.081 245.251C550.228 245.171 554.001 240.251 557.254 237.997C558.228 240.291 559.601 241.918 558.641 244.504C556.588 248.971 549.828 250.691 547.268 254.691C545.334 259.478 544.921 264.984 544.268 270.077C542.761 290.757 544.908 311.558 552.508 330.944C557.268 344.411 563.934 357.078 571.974 368.864C582.561 383.918 597.188 396.771 611.974 407.584C625.401 417.277 641.361 423.091 658.068 422.398C675.908 423.184 691.841 417.344 707.614 409.677C721.961 402.664 734.254 390.544 744.054 378.118C754.974 363.118 764.161 346.718 771.521 329.691C778.761 314.411 782.881 298.451 786.268 281.958C788.081 272.678 790.054 263.771 789.494 254.238C785.734 251.344 782.068 249.118 780.548 244.318C785.654 245.518 791.414 249.384 796.654 248.651C803.108 246.904 807.668 239.131 812.641 234.851Z" fill="#080609"/>
<path d="M663.135 243.011C667.348 241.931 672.041 241.477 676.361 242.024C688.041 244.491 697.108 256.531 697.388 268.277C698.055 278.117 692.588 287.771 685.535 294.291C680.295 299.571 673.708 303.277 666.148 303.691C657.761 303.984 650.028 304.504 642.841 299.384C632.481 292.317 629.055 278.291 634.321 267.011C640.161 255.331 650.748 246.931 663.135 243.011Z" fill="#FCCE01"/>
<path d="M745.974 566.237C763.654 565.717 783.134 567.317 799.281 575.131C802.108 576.851 798.881 579.451 797.441 580.784C783.188 592.744 764.134 599.451 745.814 601.597C736.521 602.837 728.334 600.637 719.334 598.797C714.188 597.784 709.134 595.744 704.188 593.957C699.294 591.864 693.694 589.557 690.094 585.544C700.068 582.984 709.348 580.557 718.161 574.917C720.721 573.291 722.721 570.451 725.481 569.237C732.228 567.837 739.161 567.304 745.974 566.237Z" fill="white"/>
<path d="M579.281 569.717C587.348 568.091 595.268 568.651 603.308 570.051C611.014 571.424 618.094 571.944 624.961 576.051C628.721 577.944 631.228 581.424 634.828 583.437C639.814 585.211 645.334 585.637 650.494 586.757C655.148 587.851 659.908 587.091 664.801 587.291C666.068 588.237 665.734 589.624 664.801 590.677C659.081 597.317 651.281 601.531 643.534 605.411C630.241 610.797 616.308 612.197 602.068 611.837C592.348 612.157 583.561 609.557 574.134 607.731C567.201 606.331 560.988 603.544 554.428 601.037C551.374 599.811 548.414 598.131 545.774 596.184C545.308 595.064 545.308 593.984 545.774 592.957C549.441 585.984 553.521 579.704 560.868 576.184C566.734 573.531 572.894 570.744 579.281 569.717Z" fill="white"/>
<path d="M722.001 584.291C724.014 585.477 726.254 586.637 727.748 588.464C729.468 591.637 725.588 595.211 722.374 594.291C719.521 594.051 718.561 591.717 717.214 589.571C718.614 587.584 720.161 585.891 722.001 584.291Z" fill="#080609"/>
<path d="M810.148 585.464C815.761 589.984 816.921 598.771 815.668 605.424C813.321 615.331 804.961 622.704 795.401 625.544C785.508 628.331 775.508 629.731 765.374 627.224C753.308 624.531 740.134 618.917 731.961 609.317C740.668 607.517 749.641 608.451 758.414 606.731C765.894 605.531 772.161 602.451 779.254 600.011C784.694 598.104 790.054 596.091 795.001 593.051C799.841 590.064 804.721 587.277 810.148 585.464Z" fill="#029B45"/>
<path d="M738.374 588.597C741.748 587.891 742.668 590.224 744.881 592.157C742.201 595.317 741.081 597.864 736.428 596.571C732.721 593.851 734.374 589.664 738.374 588.597Z" fill="#080609"/>
<path d="M757.094 588.064C760.494 585.451 765.921 591.051 763.494 594.517C761.668 598.584 754.201 596.011 754.374 592.157C754.134 589.944 755.548 589.251 757.094 588.064Z" fill="#080609"/>
<path d="M680.975 589.397C688.748 592.357 695.321 597.491 703.281 600.171C706.775 601.664 711.801 602.704 714.308 605.677C715.521 614.837 713.295 624.317 713.775 633.611C707.735 634.211 701.428 634.651 695.388 634.064C694.001 634.051 692.881 633.664 692.028 632.904C690.188 627.464 690.841 621.437 688.975 615.917C686.041 607.037 682.281 598.784 680.975 589.397Z" fill="#029B45"/>
<path d="M631.201 591.011C633.735 592.237 635.481 593.277 636.055 596.251C636.708 599.291 634.761 601.131 632.841 603.131C629.588 604.451 627.375 602.477 625.428 600.064C624.641 595.424 628.001 593.437 631.201 591.011Z" fill="#080609"/>
<path d="M590.028 593.757C592.574 595.077 594.601 596.717 596.588 598.771C595.014 600.477 593.388 602.131 591.708 603.744C589.894 602.771 588.068 601.797 586.254 600.837C586.348 596.984 587.054 596.131 590.028 593.757Z" fill="#080609"/>
<path d="M611.361 593.958C612.414 595.438 614.041 597.024 614.374 598.864C614.001 600.518 613.588 602.158 613.108 603.798C608.654 603.651 607.628 602.264 605.054 598.838C606.814 596.064 608.348 595.104 611.361 593.958Z" fill="#080609"/>
<path d="M670.455 595.784C674.121 599.024 675.335 603.491 676.908 607.957C679.241 615.544 681.615 624.211 680.841 632.184C680.388 636.131 679.068 639.797 675.015 641.251C668.188 643.651 659.228 644.064 652.201 642.358C649.561 641.624 646.095 640.598 645.641 637.411C644.775 629.598 646.028 621.317 647.881 613.717C648.428 610.491 652.308 609.091 654.748 607.477C660.655 604.371 665.295 599.878 670.455 595.784Z" fill="#029B45"/>
<path d="M542.601 602.771C551.588 605.397 559.574 610.064 568.841 611.971C586.601 615.864 606.694 620.451 624.734 616.917C628.361 616.344 632.001 615.957 635.668 615.997C633.935 619.211 632.081 622.304 629.548 624.957C621.681 633.011 612.934 639.811 601.734 642.357C594.121 643.984 585.988 644.157 578.268 643.437C565.148 641.131 552.961 634.477 546.255 622.597C542.428 616.437 542.214 609.797 542.601 602.771Z" fill="#029B45"/>
<path d="M737.348 636.238C746.028 636.811 754.708 636.691 763.388 637.131C779.734 638.904 796.348 637.304 812.721 638.944C816.308 639.278 820.014 639.198 823.628 639.184C823.841 640.504 823.988 641.838 824.121 643.171C814.161 643.864 804.028 643.304 794.094 642.411C782.454 641.584 770.974 642.664 759.401 641.291C752.148 640.651 744.601 641.278 737.441 640.104C737.401 638.811 737.361 637.531 737.348 636.238Z" fill="#080609"/>
<path d="M829.441 637.651C843.641 638.438 858.014 637.758 872.254 638.011C872.268 639.518 872.268 641.011 872.241 642.531C861.788 644.784 852.388 641.424 842.041 642.264C837.854 642.571 833.694 642.558 829.548 641.811C829.468 640.424 829.441 639.038 829.441 637.651Z" fill="#080609"/>
<path d="M630.628 644.251C631.628 646.611 631.228 648.451 628.401 648.664C626.108 648.851 623.761 648.797 621.455 648.771C620.948 647.491 620.441 646.197 619.935 644.917C623.495 644.691 627.055 644.304 630.628 644.251Z" fill="#080609"/>
<path d="M688.281 646.984C697.761 647.904 707.241 647.571 716.734 647.931C726.054 648.904 735.388 648.971 744.734 649.277C752.974 650.064 761.228 650.171 769.494 650.171C769.921 651.531 770.361 652.904 770.788 654.277C761.614 654.731 752.601 654.037 743.468 653.251C731.454 652.891 719.401 652.597 707.388 652.491C700.881 651.931 694.388 651.557 687.868 651.197C687.961 649.784 688.094 648.384 688.281 646.984Z" fill="#080609"/>
<path d="M784.935 648.931C790.775 648.691 796.535 649.184 802.321 649.837C810.708 650.331 819.041 650.104 827.388 651.158C846.415 651.171 865.401 651.197 884.428 651.464C884.428 653.064 884.401 654.664 884.348 656.278C879.961 656.744 875.748 656.011 871.401 655.718C850.695 655.118 829.855 656.171 809.188 655.051C802.188 653.918 795.175 654.437 788.161 653.837C786.188 653.997 785.495 650.318 784.935 648.931Z" fill="#080609"/>
<path d="M640.948 653.011C653.788 654.744 666.108 653.811 679.041 653.917C679.468 655.851 679.854 657.797 680.241 659.744C690.068 661.491 700.388 660.424 710.548 660.997C719.094 661.157 727.534 660.944 736.041 661.891C764.681 662.371 793.468 661.184 822.068 662.757C830.534 664.117 838.441 662.131 846.841 661.944C846.894 663.371 846.934 664.784 846.988 666.211C835.001 668.211 823.308 667.344 811.294 666.491C775.974 665.237 740.094 667.331 704.748 665.117C695.481 664.744 685.801 665.517 676.668 663.904C672.201 663.451 671.921 657.651 667.388 658.211C658.881 657.637 649.734 658.944 641.508 656.691C641.268 655.464 641.081 654.237 640.948 653.011Z" fill="#080609"/>
<path d="M494.268 657.891C507.441 658.104 520.588 657.891 533.774 658.078C540.561 658.278 547.268 659.397 554.081 659.397C574.134 660.291 594.214 658.637 614.068 660.597C620.508 660.944 626.788 660.491 633.161 659.597C636.414 659.571 639.668 659.571 642.921 659.784C642.908 661.131 642.894 662.478 642.881 663.824C630.041 665.478 616.788 664.464 603.854 664.637C589.948 662.851 576.228 664.224 562.068 663.771C549.561 663.744 537.188 662.718 524.721 662.118C513.788 662.491 502.841 661.931 491.908 662.371C492.108 660.451 491.388 657.797 494.268 657.891Z" fill="#080609"/>
<path d="M533.774 658.078C546.454 656.464 558.708 659.198 571.401 658.651C591.948 658.811 612.681 657.931 633.161 659.598C626.788 660.491 620.508 660.944 614.068 660.598C594.214 658.638 574.134 660.291 554.081 659.398C547.268 659.398 540.561 658.278 533.774 658.078Z" fill="white"/>
<path d="M491.908 662.371C502.841 661.931 513.788 662.491 524.721 662.117C537.188 662.717 549.561 663.744 562.068 663.771C576.228 664.224 589.948 662.851 603.854 664.637C576.761 667.117 551.428 664.171 524.561 663.784C515.708 663.651 506.788 664.691 497.961 664.211C495.774 664.131 493.828 663.357 491.908 662.371Z" fill="white"/>
<path d="M591.708 668.837C596.801 668.504 602.001 668.771 607.094 668.957C610.094 668.864 609.414 672.037 609.801 674.037C603.841 673.811 597.788 673.557 591.894 672.557C590.401 671.437 590.348 670.197 591.708 668.837Z" fill="#080609"/>
<path d="M707.348 669.157C718.255 670.344 729.441 669.904 740.415 670.037C746.148 670.317 751.855 670.291 757.588 670.251C757.508 671.984 757.428 673.717 757.335 675.451C751.215 675.584 745.335 675.251 739.281 674.464C728.335 674.037 717.255 674.664 706.308 673.811C696.228 672.277 685.695 673.077 675.401 672.891C665.641 673.131 655.815 672.864 646.095 673.824C641.828 674.091 637.641 674.197 633.388 673.757C631.495 673.437 629.601 673.064 627.721 672.704C627.868 671.384 628.015 670.064 628.188 668.744C654.681 669.971 680.881 667.397 707.348 669.157Z" fill="#080609"/>
<path d="M740.414 670.037C746.321 669.397 752.148 668.944 758.081 669.477C758.108 671.651 758.121 673.837 758.134 676.011C747.014 676.904 735.894 675.904 724.721 676.197C713.921 676.464 703.534 673.677 692.761 673.677C685.201 673.664 677.641 673.704 670.068 673.704C657.414 673.544 646.041 676.397 633.388 673.757C637.641 674.197 641.828 674.091 646.094 673.824C655.814 672.864 665.641 673.131 675.401 672.891C685.694 673.077 696.228 672.277 706.308 673.811C717.254 674.664 728.334 674.037 739.281 674.464C745.334 675.251 751.214 675.584 757.334 675.451C757.428 673.717 757.508 671.984 757.588 670.251C751.854 670.291 746.148 670.317 740.414 670.037Z" fill="white"/>
<path d="M830.494 668.491C830.641 670.317 830.748 672.144 830.828 673.984C818.868 676.077 807.521 675.024 795.414 675.384C791.081 675.544 786.761 675.451 782.468 674.837C782.534 673.211 782.641 671.571 782.788 669.944C786.548 670.144 790.294 670.344 794.068 670.251C806.601 669.797 818.108 671.584 830.494 668.491Z" fill="#080609"/>
</g>
<defs>
<clipPath id="clip0_2_348">
<rect width="1330" height="730" fill="white"/>
</clipPath>
</defs>
</svg>
