<svg width="1330" height="730" viewBox="0 0 1330 730" fill="none" xmlns="http://www.w3.org/2000/svg">
<g clip-path="url(#clip0_2_386)">
<path d="M0 0H1330V730H0V0Z" fill="#FEFEFE"/>
<path d="M759.387 41.1336C765.347 44.3057 767.271 50.6234 769.342 56.5828C771.492 62.4359 770.629 69.5234 770.749 75.7482C770.709 86.3131 767.975 96.2409 763.674 105.81C766.953 109.845 772.766 112.181 777.186 114.862C783.238 117.902 788.587 121.87 794.042 125.852C803.147 132.05 810.566 140.292 818.729 147.619C831.125 158.396 841.504 171.456 849.813 185.591C855.772 194.763 861.877 203.788 866.921 213.517C873.531 225.687 880.605 236.783 884.972 250.096C889.564 262.293 891.926 275.672 894.687 288.559C896.545 300.65 897.992 312.927 898.045 325.165C898.018 331.482 898.987 337.614 899.624 343.879C905.066 341.53 912.406 339.645 916.441 335.119C919.666 331.589 918.883 327.832 919.56 323.453C920.714 325.404 922.572 326.81 922.32 329.173C922.041 333.964 918.073 338.278 914.131 340.64C909.234 343.547 902.65 344.649 899.359 349.719C898.284 352.665 901.058 355.187 903.858 354.961C908.265 354.391 912.698 352.997 916.786 351.272C921.458 349.268 924.616 345.883 928.452 342.698L929.448 345.246C927.005 350.197 920.197 352.347 915.657 354.842C920.741 357.629 927.523 355.705 933.403 356.939C931.943 357.828 930.801 359.063 929.023 359.129C922.772 359.514 916.48 359.182 910.202 359.381C911.278 361.053 911.477 362.766 913.308 363.814C917.954 366.548 923.302 368.287 928.426 369.906C928.572 370.941 928.718 371.963 928.864 372.985C920.781 371.685 913.746 367.995 907.548 362.739C905 360.496 902.996 360.032 899.664 359.713C901.668 364.265 905.716 365.752 909.459 368.778C915.591 372.985 920.781 378.109 927.125 381.905C926.966 383.311 927.019 384.732 927.297 386.192C920.674 383.962 916.175 378.573 909.672 375.932C910.84 382.435 913.375 388.528 914.357 395.071C913.361 394.978 912.366 394.872 911.384 394.779C909.3 386.497 907.906 378.241 902.982 371.101C901.92 369.282 900.301 369.707 898.509 369.336C896.147 385.342 893.054 401.402 888.369 416.891C886.737 422.12 886.856 426.951 884.361 431.729C881.322 437.928 879.888 444.617 877.088 450.895C874.792 456.151 872.535 461.447 869.934 466.556C862.793 478.966 853.821 489.863 844.331 500.521C832.97 511.736 823.294 523.442 809.982 532.614C798.408 540.657 786.543 550.146 773.668 556.053C764.272 560.778 754.463 564.72 744.429 567.852C740.434 569.392 736.545 568.847 735.178 573.679C737.275 573.718 739.479 573.652 741.562 574.01C743.142 574.966 744.602 576.174 746.234 577.037C755.299 576.904 765.692 575.046 774.226 578.563C784.751 582.292 795.143 586.619 801.288 596.534C806.85 604.484 809.146 614.253 807.155 623.822C805.881 628.786 803.89 633.63 801.262 638.037C798.13 643.24 793.126 646.279 789.41 651.137C795.754 651.495 802.032 650.871 808.376 650.818C814.282 650.699 819.976 651.11 825.683 650.433C828.325 650.38 830.528 649.199 832.598 651.389C832.85 653.274 833.116 655.158 833.342 657.043C827.21 658.357 821.21 657.521 815.012 657.733C806.093 657.893 797.187 657.441 788.268 657.454C787.618 659.26 787.021 661.091 786.304 662.87C784.087 664.263 781.313 664.993 778.818 665.723C777.916 668.603 777.557 671.404 775.062 673.395C768.227 674.563 760.874 673.687 753.959 673.607C741.124 673.488 728.303 673.182 715.455 673.328C710.067 673.461 704.957 672.399 699.86 670.727C699.781 669.466 699.688 668.205 699.608 666.944C708.434 666.573 717.26 666.971 726.087 666.878C736.731 667.289 746.752 666.095 757.304 667.634C762.533 668.033 768.439 669.307 772.766 665.657C761.869 662.976 750.574 661.582 739.346 661.888C729.644 662.06 720.499 659.777 711.009 658.264C708.169 657.348 706.536 661.463 704.784 663.042C699.542 663.122 694.326 663.228 689.096 662.817C687.45 661.065 685.805 659.313 684.305 657.428C676.766 661.237 669.121 664.754 660.759 666.254C660.507 667.289 660.308 668.311 660.149 669.347C665.71 669.652 671.231 670.13 676.726 671.099C679.168 673.355 677.018 675.173 675.532 677.217C672.997 677.894 670.249 677.708 667.661 677.456C657.893 676.155 648.177 674.642 638.488 675.027C628.149 674.669 618.009 676.328 607.683 676.474C598.074 677.615 588.424 677.695 578.762 677.788C567.175 677.562 555.787 678.12 544.267 676.501C527.265 675.837 510.25 676.686 493.247 675.917C491.509 673.461 490.341 671.231 489.783 668.245C496.844 667.847 503.919 668.059 510.953 668.816C521.677 670.608 533.317 669.506 544.254 669.506C557.075 669.652 569.896 669.838 582.717 669.798C585.757 669.639 588.637 670.475 590.959 667.993C585.584 665.896 580.819 663.493 574.873 664.117C568.502 664.595 562.53 663.122 556.252 662.445C546.085 660.972 536.529 661.635 526.322 661.715C525.3 660.441 524.199 659.22 523.004 658.078C524.053 657.362 525.035 656.579 525.938 655.716C531.764 654.216 538.254 654.667 544.254 654.588C552.841 654.508 560.804 657.043 569.259 657.839C567.626 650.194 562.317 644.633 560.459 637.161C558.694 629.874 556.677 623.384 559.331 615.965C561.747 606.236 568.755 598.949 577.568 594.556C588.491 588.597 600.184 586.022 612.315 583.832C617.093 582.956 622.535 584.496 627.3 585.332C628.056 582.969 629.118 580.74 629.848 578.377C632.317 577.554 634.52 577.222 636.059 574.913C626.397 573.559 616.854 572.617 607.391 570.082C591.397 565.967 575.072 562.755 559.225 558.11C547.227 553.04 535.135 548.142 523.416 542.435C510.462 535.374 499.778 525.778 489.598 515.24C474.772 501.835 461.393 485.828 454.027 467.047C447.59 454.598 444.06 441.073 442.52 427.177C440.542 411.701 439.282 396.172 439.613 380.551C438.644 379.953 437.689 379.356 436.72 378.759C428.226 386.868 424.138 397.141 420.063 407.879C419.081 407.972 418.112 408.051 417.143 408.144C419.187 399.358 424.031 392.111 427.243 383.829C419.559 386.683 416.214 394.673 411.701 400.858C410.52 401.468 409.299 401.986 408.025 402.437C411.356 392.722 418.643 387.691 424.416 379.967C415.258 382.13 406.499 385.953 397.407 388.501C397.646 387.333 397.871 386.165 398.057 384.984C405.238 383.179 412.325 380.63 418.696 376.821C411.728 373.224 403.618 372.667 396.292 369.76C396.199 368.672 396.106 367.597 396 366.508C402.092 368.566 408.171 370.57 414.489 371.831C422.518 373.928 431.504 375.255 439.361 371.817L437.609 369.787C433.853 369.057 429.938 369.282 426.155 368.645C419.957 368.008 413.838 364.425 408.503 361.345C404.242 358.505 400.101 356.289 397.646 351.59C403.233 353.528 406.976 357.881 412.338 360.27C418.736 363.151 425.691 365.261 432.712 365.699C430.216 361.053 423.713 360.177 419.439 357.058C415.617 354.218 409.525 351.205 408.622 346.175C413.294 348.246 416.387 351.935 420.607 354.63C426.168 358.213 432.128 361.014 438.299 363.363C440.848 355.24 443.383 347.356 444.856 338.928C446.542 326.372 451.479 314.812 453.47 302.363C455.978 290.351 463.185 278.95 467.844 267.39C470.406 260.886 474.52 255.285 477.267 248.888C480.612 241.349 483.93 233.983 488.775 227.24C496.207 216.556 503.401 205.832 511.802 195.851C516.342 190.648 521.704 186.335 526.15 181.026C529.773 176.672 534.034 172.996 537.856 168.828C547.227 158.051 558.614 148.826 568.967 138.899C577.939 131.612 585.518 123.237 595.167 117.211C600.874 113.522 606.103 109.235 611.479 105.094C609.09 100.263 606.714 95.8959 606.953 90.3214C606.701 83.0215 609.567 77.1684 611.811 70.3729C614.08 63.4712 618.234 57.618 623.132 52.3356C628.428 46.4426 637.519 44.1863 645.178 44.5579C655.119 46.3364 660.202 54.1937 664.768 62.3696C672.917 61.8519 680.854 59.808 688.99 59.2373C695.812 58.5736 701.811 63.2057 708.593 65.2895C712.788 60.0601 717.088 54.8839 721.415 49.774C726.272 43.9474 733.24 41.3327 740.262 39.0498C746.34 36.9129 753.76 38.2535 759.387 41.1336Z" fill="#061E15"/>
<path d="M744.084 47.4247C749.22 46.0842 751.888 47.0265 755.512 50.849C750.057 53.1053 744.19 53.331 738.735 55.5475C734.342 57.0738 730.865 59.6221 725.994 59.1443C730.918 53.8353 737.368 49.973 744.084 47.4247Z" fill="#FEFEFE"/>
<path d="M639.895 56.3173C644.395 56.2377 646.704 60.0735 649.106 63.2323C644.036 62.4625 638.993 61.3609 634.042 60.0071C635.94 58.6798 637.426 56.0121 639.895 56.3173Z" fill="#FEFEFE"/>
<path d="M758.856 56.4899C758.631 58.1755 758.432 59.8743 758.246 61.5865C754.702 61.5998 751.158 61.6794 747.615 61.759C747.747 60.5247 747.893 59.2904 748.013 58.056C751.702 56.5562 754.914 56.251 758.856 56.4899Z" fill="#FEFEFE"/>
<path d="M758.856 56.4899C758.843 58.2817 758.87 60.0867 758.817 61.8918C753.773 63.2057 748.703 63.219 743.54 63.3119C743.646 62.197 743.739 61.0954 743.845 59.9805C745.252 59.37 746.632 58.6931 748.013 58.056C747.893 59.2904 747.747 60.5247 747.615 61.759C751.158 61.6794 754.702 61.5998 758.246 61.5865C758.432 59.8744 758.631 58.1755 758.856 56.4899Z" fill="#FCD34E"/>
<path d="M629.317 64.44C632.038 63.7499 635.303 64.6657 637.971 65.3691C644.01 67.1609 650.022 68.528 655.45 71.8726C655.039 73.4255 654.787 74.9917 654.707 76.5711C651.071 75.3102 647.726 73.9564 643.85 73.7441C637.732 73.4255 631.587 74.421 625.455 74.1953C624.645 73.5848 623.849 72.9875 623.052 72.3903C625.083 69.6561 626.848 66.8291 629.317 64.44Z" fill="#FEFEFE"/>
<path d="M759.347 65.6213C761.909 69.1651 761.418 72.7354 761.405 76.8764C758.923 76.1995 756.467 75.3899 753.972 74.713C750.88 73.837 747.893 72.7487 744.841 71.74C747.721 70.0942 750.641 68.528 753.667 67.1875C755.565 66.6831 757.449 66.1257 759.347 65.6213Z" fill="#FEFEFE"/>
<path d="M753.667 67.1874C750.641 68.528 747.721 70.0941 744.841 71.7399C747.893 72.7486 750.88 73.837 753.972 74.7129C749.712 73.983 745.637 74.0095 741.788 71.793C745.491 69.2978 749.353 68.1298 753.667 67.1874Z" fill="#FCD34E"/>
<path d="M677.045 69.6296C678.027 79.8096 681.279 88.2243 677.005 98.2716C677.616 92.9891 677.815 87.6005 677.35 82.2915C676.992 77.7656 675.24 74.0493 677.045 69.6296Z" fill="#CF6C45"/>
<path d="M677.045 69.6296C678.545 70.2136 680.044 70.7976 681.544 71.355C682.938 78.0311 684.968 84.7602 685.592 91.5557C685.844 95.8825 685.433 100.302 685.46 104.642L685.446 105.571C682.049 105.638 679.009 105.173 675.731 104.337C676.235 102.333 676.66 100.316 677.005 98.2716C681.279 88.2243 678.027 79.8096 677.045 69.6296Z" fill="#FEFEFE"/>
<path d="M696.516 72.3372C699.17 82.3978 697.644 93.4006 695.918 103.514C692.175 101.338 693.702 97.8071 693.45 94.2103C693.808 87.8262 692.985 82.849 690.291 77.0489C689.455 74.9917 688.579 72.9345 687.742 70.8772C691.007 70.6914 693.516 70.8772 696.516 72.3372Z" fill="#FEFEFE"/>
<path d="M623.052 72.3903C623.849 72.9876 624.645 73.5848 625.455 74.1954C631.587 74.421 637.732 73.4256 643.85 73.7441C647.726 73.9565 651.071 75.3103 654.707 76.5711C644.023 74.3414 634.214 74.3148 623.477 76.3853C623.344 75.005 623.185 73.7441 623.052 72.3903Z" fill="#FCD34E"/>
<path d="M681.544 71.355C686.349 82.1455 685.99 93.1086 685.46 104.642C685.433 100.302 685.844 95.8825 685.592 91.5557C684.968 84.7602 682.938 78.031 681.544 71.355Z" fill="#CF6C45"/>
<path d="M696.515 72.3372C700.033 75.5757 698.971 79.3451 699.143 83.6586C698.865 90.6134 699.077 97.0904 695.918 103.514C697.644 93.4006 699.17 82.3978 696.515 72.3372Z" fill="#CF6C45"/>
<path d="M670.581 76.6906C670.926 84.3887 671.537 92.0203 671.152 99.7184C670.063 99.1344 668.949 98.63 667.82 98.1522C671.51 92.4981 670.103 84.017 668.272 77.8851C669.015 77.4073 669.785 77.0092 670.581 76.6906Z" fill="#CF6C45"/>
<path d="M690.291 77.049C692.985 82.849 693.808 87.8262 693.45 94.2103C693.702 97.8071 692.175 101.338 695.918 103.514C694.591 103.262 693.211 103.129 691.817 103.129C692.733 94.1705 692.109 85.8619 690.291 77.049Z" fill="#FCD34E"/>
<path d="M668.272 77.8851C670.103 84.017 671.51 92.4981 667.82 98.1521C665.657 94.6349 663.852 90.255 663.202 86.1671C663.295 83.0083 665.657 79.5972 668.272 77.8851Z" fill="#FEFEFE"/>
<path d="M739.704 78.9601C746.075 78.4691 752.114 79.7698 758.087 81.8535C752.34 80.5396 746.752 80.0352 740.859 80.659C743.991 83.3533 747.256 85.0522 751.092 86.8175C747.442 85.4106 743.673 84.309 740.023 82.849C739.863 81.5616 739.757 80.2609 739.704 78.9601Z" fill="#FCD34E"/>
<path d="M635.887 82.0527C633.763 83.2074 631.6 84.2825 629.423 85.331C630.326 84.2161 631.228 83.0879 632.117 81.9731C628.428 81.7474 624.725 81.6147 621.022 81.6943C626.158 80.3671 630.936 79.4778 635.887 82.0527Z" fill="#FCD34E"/>
<path d="M703.085 80.6458C705.129 81.9597 707.465 82.0659 707.359 85.0389C707.638 87.9323 705.873 87.9589 704.89 90.1887C703.948 86.99 703.311 83.9771 703.085 80.6458Z" fill="#CF6C45"/>
<path d="M740.859 80.659C746.752 80.0352 752.34 80.5396 758.087 81.8536L760.436 82.5039C760.197 84.7337 760.184 87.0962 759.547 89.2596C757.224 91.1443 753.508 87.5342 751.092 86.8175C747.256 85.0522 743.991 83.3534 740.859 80.659Z" fill="#FEFEFE"/>
<path d="M621.022 81.6943C624.725 81.6146 628.428 81.7474 632.117 81.973C631.228 83.0879 630.326 84.216 629.423 85.3309C626.41 86.8705 623.384 88.4234 620.438 90.0958C619.164 86.7909 619.708 84.8266 621.022 81.6943Z" fill="#FEFEFE"/>
<path d="M739.439 89.8038C738.709 90.8789 737.992 91.9672 737.289 93.0556C734.793 91.9407 732.298 90.8523 729.816 89.7242C732.935 86.6582 735.895 88.9278 739.439 89.8038Z" fill="#CF6C45"/>
<path d="M652.477 88.4235L652.305 91.7018C643.519 96.3206 634.148 100.05 625.176 104.324C622.906 101.311 619.11 99.5856 620.69 95.2322C624.472 92.7768 628.746 90.9983 632.993 89.472C638.847 87.1493 646.226 88.45 652.477 88.4235Z" fill="#FEFEFE"/>
<path d="M720.459 89.2463C727.56 94.6349 735.603 98.5636 742.664 103.939C735.059 105.558 727.52 103.687 721.176 99.3334C719.49 97.9928 716.557 97.0505 717.075 94.4225C717.327 92.4582 719.278 90.7461 720.459 89.2463Z" fill="#FEFEFE"/>
<path d="M739.439 89.8038C744.748 91.662 749.937 93.7856 755.339 95.3385C754.184 97.1701 753.481 101.431 750.389 100.117C745.995 97.8071 741.934 94.9403 737.289 93.0556C737.992 91.9672 738.709 90.8789 739.439 89.8038Z" fill="#FEFEFE"/>
<path d="M653.672 98.6433C652.371 100.422 651.243 102.2 649.425 103.514C649.531 102.479 649.637 101.457 649.73 100.422C648.257 100.541 646.77 100.674 645.297 100.793C648.031 99.8644 650.845 99.2273 653.672 98.6433Z" fill="#CF6C45"/>
<path d="M645.297 100.793C646.77 100.674 648.257 100.541 649.73 100.422C649.637 101.457 649.531 102.479 649.425 103.514C643.956 105.877 639.749 108.425 633.577 106.461C637.241 104.072 641.116 102.094 645.297 100.793Z" fill="#FEFEFE"/>
<path d="M711.447 105.532C713.81 106.089 716 107.655 718.097 108.837C723.923 112.473 730.055 115.154 735.576 119.269C742.491 124.206 747.11 130.351 753.043 136.324C759.148 142.721 765.984 148.057 771.545 155.012C790.458 177.681 804.102 205.951 821.516 229.789C834.961 248.728 846.176 268.903 858.121 288.772C866.244 301.102 873.637 313.87 881.653 326.28C886.166 332.956 886.392 340.322 886.007 348.1C883.458 345.803 881.136 343.388 879.251 340.508C873.65 332.08 866.722 324.7 861.001 316.339C847.49 298.314 834.961 279.627 821.715 261.417C812.291 250.228 804.328 238.057 795.953 226.099C787.22 213.663 777.252 202.102 768.85 189.48C755.843 169.93 742.624 150.605 727.785 132.382C720.884 124.14 712.774 117.995 706.841 108.823C708.341 107.35 708.992 104.961 711.447 105.532Z" fill="#CF6C45"/>
<path d="M660.321 106.965C661.489 106.62 662.657 106.315 663.839 106.036C665.551 113.92 661.808 119.667 658.981 126.648C654.946 135.474 652.995 144.924 648.827 153.684C644.952 162.033 640.466 170.102 636.338 178.344C631.241 188.71 624.127 196.581 617.584 206.084C610.815 215.707 602.427 223.59 595.18 232.801C589.911 239.438 584.111 245.623 578.735 252.179C568.821 264.695 557.088 275.884 544.439 285.613C535.945 292.501 528.38 300.504 520.005 307.592C512.891 313.551 506.759 320.121 498.609 324.78C487.991 331.124 477.48 340.985 465.534 344.37C467.14 342.087 468.72 339.871 470.963 338.145C486.983 326.412 500.494 310.525 512.678 294.956C518.545 288.373 524.093 281.604 529.627 274.756C537.246 265.412 546.457 258.072 554.925 249.604C559.65 244.986 563.419 239.597 567.945 234.779C577.554 224.347 586.128 213.211 595.207 202.341C608.665 186.865 619.933 169.505 632.462 153.286C640.851 142.416 648.137 130.829 655.583 119.308C658.224 115.473 658.649 111.146 660.321 106.965Z" fill="#CF6C45"/>
<path d="M703.988 110.96C706.722 113.017 708.885 115.964 711.155 118.512C716.013 124.286 721.733 129.157 726.498 135.01C742 153.764 755.697 174.31 769.288 194.471C777.557 206.416 787.299 217.339 795.382 229.404C798.833 235.191 802.417 240.672 806.743 245.848C815.623 257.82 825.086 269.288 833.328 281.711C847.105 301.035 860.709 320.546 875.402 339.194C878.481 343.109 881.308 347.091 882.994 351.842C876.517 349.493 872.482 344.848 867.226 340.707C861.572 336.207 856.21 331.376 850.901 326.479C845.579 321.528 839.42 317.745 834.244 312.609C824.714 303.677 817.56 293.39 808.774 283.648C797.161 269.195 784.578 256.772 773.947 241.482C767.762 232.881 762.997 223.444 756.693 214.923C747.946 203.217 742.584 190.807 735.284 177.986C730.095 168.231 724.852 158.582 718.773 149.357C711.606 137.147 703.377 125.321 696.993 112.712C699.183 111.717 701.639 108.956 703.988 110.96Z" fill="#CF6C45"/>
<path d="M617.332 110.708C620.491 112.433 623.344 114.57 626.158 116.827C622.429 120.981 618.526 124.896 613.987 128.188C605.347 134.519 597.543 141.819 589.048 148.335C581.961 153.804 574.767 159.909 569.179 166.93C563.008 174.92 556.584 182.685 550.478 190.714C541.506 201.664 532.136 212.242 523.602 223.577C510.25 242.238 500.07 262.519 487.328 281.525C476.06 300.743 467.313 321.395 456.111 340.667C455.195 340.401 454.28 340.163 453.364 339.924C456.708 325.297 462.708 311.574 465.827 296.908C467.3 290.351 469.185 283.993 471.507 277.676C477.798 259.745 489.545 243.26 499.645 227.493C502.644 223.006 506.387 219.224 509.559 214.857C519.673 201.186 530.158 187.874 541.812 175.464C551.116 166.187 560.765 157.228 569.989 147.871C577.78 140.067 586.327 133.125 595.247 126.675C602.785 121.352 609.169 115.128 617.332 110.708Z" fill="#CF6C45"/>
<path d="M670.01 111.199C671.709 118.578 670.196 125.427 669.241 132.74C667.874 143.358 663.905 153.817 660.507 163.931C655.636 177.137 647.142 189.812 640.134 202.023C631.082 217.631 622.097 232.881 610.483 246.791C603.675 254.475 595.884 261.457 588.438 268.518C579.001 278.114 569.936 288.081 560.499 297.651C546.311 310.565 530.211 321.661 514.43 332.531C505.365 338.875 495.477 342.326 485.815 347.741C475.582 353.767 464.367 357.178 452.713 359.169C454.24 356.886 455.487 354.669 457.943 353.249C467.671 347.197 477.838 342.591 487.169 335.783C493.062 331.469 499.353 327.7 505.06 323.161C516.222 313.963 527.424 304.977 537.631 294.691C545.435 286.847 554.792 280.994 562.729 273.296C570.108 266.859 576.187 259.346 582.306 251.755C593.15 239.132 603.767 226.351 614.757 213.862C623.676 202.049 633.617 190.038 639.988 176.805C645.496 165.829 651.535 156.153 655.331 144.42C657.946 136.244 661.543 128.493 664.463 120.437C665.923 116.8 666.427 113.362 670.01 111.199Z" fill="#CF6C45"/>
<path d="M655.052 112.832C652.238 120.503 647.474 126.622 643.187 133.457C638.754 140.452 634.042 147.221 628.985 153.764C619.655 165.749 611.134 178.345 601.923 190.409C591.583 202.66 581.642 215.269 571.25 227.466C561.176 238.23 551.753 249.445 540.896 259.453C533.463 266.301 527.132 274.026 520.841 281.896C510.966 293.258 501.463 304.964 491.509 316.246C483.904 323.532 476.352 331.801 467.154 337.044C471.043 329.943 476.073 324.129 480.771 317.467C486.04 309.981 492.133 303.185 497.72 295.965C505.405 285.56 513.262 275.287 521.478 265.293C534.06 248.702 546.762 232.178 559.424 215.627C563.26 210.477 566.047 204.783 570.082 199.753C574.9 193.515 580.62 188.233 585.717 182.22C589.964 177.177 594.888 172.81 599.215 167.859C608.346 157.042 616.177 146.172 626.583 136.775C631.374 132.528 634.838 127.352 638.701 122.335C642.709 116.959 649.013 115.048 655.052 112.832Z" fill="#CF6C45"/>
<path d="M761.471 114.623C774.531 120.755 783.357 129.94 794.838 138.408C805.045 146.716 816.406 155.41 823.998 166.227C829.785 174.177 836.248 181.45 841.69 189.666C851.312 204.465 860.962 218.507 868.567 234.553C871.314 240.247 871.938 246.021 873.358 252.086C876.159 263.766 879.875 275.273 882.144 287.059C880.087 284.976 878.335 282.852 877.234 280.091C872.694 269.779 868.288 259.453 862.621 249.697C855.135 235.735 846.057 222.767 838.239 209.017C833.607 200.51 827.887 192.705 823.308 184.171C819.233 176.752 813.911 171.031 808.668 164.302C803.306 157.48 796.67 152.649 790.524 146.623C784.167 140.598 778.128 134.2 771.505 128.466C765.493 123.184 758.631 119.614 753.123 113.747C756.135 111.876 758.578 113.495 761.471 114.623Z" fill="#CF6C45"/>
<path d="M674.125 112.686C675.24 114.106 676.992 115.526 677.363 117.331C680.389 129.887 678.253 142.031 675.691 154.441C671.47 171.151 664.011 187.29 656.95 202.965C651.947 214.406 644.156 223.657 637.771 234.235C629.012 248.742 617.319 261.616 604.59 272.712C595.207 281.91 585.571 290.908 575.577 299.429C563.738 308.202 550.983 315.861 538.201 323.161C532.096 326.811 526.906 330.978 519.965 333.062C521.797 330.766 523.721 328.629 526.19 326.996C536.171 320.254 545.86 313.1 555.482 305.866C570.321 292.7 581.815 276.76 597.038 263.846C618.287 245.769 631.825 220.923 645.947 197.337C653.606 184.49 661.543 170.7 665.989 156.365C668.404 148.707 671.577 140.558 672.307 132.554C673.063 125.653 671.63 119.375 674.125 112.686Z" fill="#CF6C45"/>
<path d="M749.566 115.924C751.888 116.853 753.972 118.578 755.976 120.065C762.984 125.6 770.244 130.311 776.509 136.749C785.096 145.442 794.506 153.273 803.173 161.873C810.898 170.368 817.932 179.3 823.507 189.347C832.001 203.018 839.898 217.034 848.618 230.572C859.555 247.879 868.553 266.182 876.689 284.949C879.158 290.908 883.339 297.412 883.458 303.902C883.737 310.326 884.321 316.763 884.215 323.2C877.114 316.737 872.681 307.18 867.518 299.164C855.307 280.609 844.676 261.098 832.864 242.291C826.971 233.186 820.467 224.533 814.614 215.415C803.97 199.05 794.135 182.101 783.145 165.935C777.212 157.454 770.443 149.477 762.825 142.456C754.277 134.585 747.07 125.454 738.589 117.477C742.146 116.548 745.849 115.048 749.566 115.924Z" fill="#CF6C45"/>
<path d="M636.391 118.247C635.807 120.105 635.86 121.883 634.639 123.476C628.162 132.846 619.495 139.151 612.408 147.831C607.232 154.135 602.095 160.493 596.813 166.718C583.407 181.742 569.246 193.82 559.238 211.446C538.812 238.602 518.598 265.014 497.415 291.625C489.571 302.801 480.068 312.463 472.755 324.023C470.087 328.217 467.207 331.456 463.318 334.548C465.893 327.248 470.22 321.05 473.405 314.042C482.523 294.452 493.486 276.375 505.087 258.232C510.966 247.083 517.894 236.664 524.916 226.218C531.247 217.604 538.281 209.508 545.05 201.24C560.048 184.41 571.542 164.09 590.15 150.738C598.923 144.539 606.356 136.775 615.129 130.59C619.469 127.445 623.185 123.582 627.419 120.33C630.06 118.074 633.1 118.685 636.391 118.247Z" fill="#CF6C45"/>
<path d="M697.007 120.596C699.608 123.038 701.599 125.945 703.351 129.037C712.257 144.447 722.53 158.874 730.586 174.774C738.616 188.471 745.186 203.164 754.463 215.906C761.391 225.528 766.767 236.04 774.04 245.424C782.933 258.099 793.816 268.956 803.359 281.127C816.074 295.023 826.241 309.729 841.212 321.568C847.463 326.346 853.224 331.589 858.864 337.083C863.948 342.087 869.867 344.755 873.783 350.9C864.041 350.343 859.157 344.091 851.379 339.393C843.548 334.416 836.341 328.616 828.364 323.851C822.259 320.241 816.857 316.126 811.707 311.242C805.788 305.614 799.404 300.544 793.245 295.182C785.561 288.466 779.694 280.689 772.58 273.415C765.904 266.567 760.741 258.895 755.14 251.011C748.066 240.911 744.204 229.616 737.886 219.118C734.661 213.729 731.767 208.221 729.245 202.461C725.662 194.218 721.308 186.374 717.937 178.026C713.318 166.439 708.195 155.25 704.744 143.226C702.555 135.421 698.52 128.467 697.007 120.596Z" fill="#CF6C45"/>
<path d="M698.413 135.461C702.488 143.743 704.744 152.423 708.315 161.223C712.204 170.607 715.336 180.189 720.154 189.201C725.423 199.514 729.391 210.318 735.563 220.206C742.067 231.209 746.539 243.366 753.946 253.573C758.365 259.771 762.559 265.969 767.789 271.557C777.743 282.348 786.463 293.138 797.944 302.416C805.668 308.521 812.092 315.715 820.162 321.342C824.86 324.66 829.851 327.527 834.509 330.912C839.951 334.986 845.592 337.628 849.959 342.99C843.349 342.605 838.358 339.088 832.16 337.322C828.205 336.075 824.369 334.92 820.812 332.703C809.703 325.696 799.961 317.268 789.277 309.795C777.133 301.42 766.78 289.435 756.865 278.512C747.482 266.421 738.656 253.56 731.754 239.862C728.091 233.093 724.162 226.869 721.733 219.476C719.437 212.402 717.313 205.248 715.548 198.014C713.133 188.179 709.921 178.65 707.187 168.881C704.028 157.52 699.701 147.353 698.413 135.461Z" fill="#CF6C45"/>
<path d="M688.937 146.039C691.445 155.476 695.427 164.262 698.36 173.553C700.909 181.556 704.081 189.294 706.43 197.364C709.35 206.708 711.527 215.826 715.323 224.559C718.402 231.66 721.654 238.668 724.627 245.795C730.055 259.798 740.766 272.234 751.357 282.679C755.379 286.807 758.007 291.784 761.829 296.085C768.89 304.181 777.942 311.136 785.786 318.595C788.972 321.674 792.33 324.501 796.218 326.678C802.669 330.394 808.721 334.787 815.211 338.397C832.24 347.064 850.012 351.789 867.372 359.222C873.464 361.783 879.822 363.562 885.834 366.349C884.467 376.423 884.361 386.51 882.065 396.478C880.658 405.264 876.159 412.843 874.42 421.536C871.951 432.539 868.62 443.157 863.098 453.045C859.342 459.655 856.9 466.875 852.892 473.325C847.994 481.302 841.358 488.336 835.094 495.265C829.347 501.025 823.945 507.13 818.052 512.731C808.933 521.266 798.461 526.734 787.804 532.959C772.912 542.117 757.396 551.407 740.7 557.048C735.709 558.813 727.268 558.574 724.866 564.136C723.711 568.675 723.791 573.599 723.074 578.244C719.557 578.377 713.942 576.718 711.872 580.434C710.797 581.735 709.854 584.323 711.009 585.796C713.305 588.676 716.769 590.694 719.211 593.468L718.866 595.246C711.792 599.016 703.218 599.918 695.401 600.741C694.06 598.326 691.95 595.95 691.286 593.242C691.937 585.106 693.516 577.952 697.763 570.905C695.042 567.839 693.715 564.215 688.924 564.375C684.345 563.538 682.54 570.36 680.363 573.373C678.969 575.351 676.939 577.222 676.381 579.572C674.191 586.858 676.474 593.375 675.545 601.206C677.602 601.378 679.646 601.604 681.69 601.816C676.235 602.201 670.926 602.4 665.644 600.661C668.073 600.024 670.488 599.334 672.917 598.737C669.559 598.538 665.856 598.564 662.671 597.45C660.295 596.401 658.118 594.689 655.995 593.189C657.03 592.419 658.105 591.703 659.22 591.039C662.365 589.685 665.02 588.862 666.122 585.212C666.148 581.947 663.918 578.868 662.591 575.922C659.777 575.802 657.003 575.298 654.203 575.099C652.597 570.4 652.982 563.193 646.359 563.153C636.497 562.357 627.127 559.278 617.252 558.827C602.931 557.977 589.619 554.593 575.762 551.208C563.26 548.129 551.235 542.939 540.232 536.263C532.826 531.618 524.969 528.127 518.24 522.433C509.347 516.341 500.587 510.276 492.703 502.843C483.439 493.991 476.591 481.886 470.379 470.764C465.734 461.075 460.438 451.85 458.009 441.684C455.739 432.791 452.952 424.722 452.647 415.51C452.328 404.892 453.311 394.367 452.182 383.763C452.236 380.71 450.882 376.449 454.319 374.751C460.823 371.008 468.136 370.888 474.002 365.686L471.348 364.969C491.35 355.864 511.71 347.967 530.981 337.269C539.502 332.398 548.368 328.469 556.517 322.961C573.891 312.078 587.124 298.487 602.268 285.029C607.285 280.304 611.625 274.928 616.841 270.376C626.278 262.001 634.427 252.591 642.55 242.981C650.725 234.195 656.99 223.418 663.255 213.198C668.431 205.102 670.355 196.023 674.43 187.157C679.022 174.641 681.239 161.117 686.309 148.72C686.813 147.605 688.048 146.849 688.937 146.039Z" fill="#FEB84B"/>
<path d="M700.219 238.27C702.475 237.858 705.435 237.341 706.948 239.517C711.42 244.495 712.456 251.131 711.381 257.581C710.744 263.063 709.098 268.279 704.466 271.677C699.621 274.849 692.945 273.322 691.14 267.456C689.959 261.324 690.357 254.343 691.79 248.264C692.866 243.685 695.613 239.756 700.219 238.27Z" fill="#061E15"/>
<path d="M661.516 239.239C668.577 236.08 678.027 241.256 677.483 249.512C676.567 259.453 669.798 271.066 659.658 273.88C654.787 273.482 651.455 268.85 651.256 264.191C651.177 258.139 652.557 251.768 654.84 246.167C656.194 242.889 658.291 240.699 661.516 239.239Z" fill="#061E15"/>
<path d="M636.126 284.312C637.36 284.073 638.621 283.874 639.882 283.728C640.253 285.679 640.917 287.537 641.541 289.422C639.603 289.488 637.665 289.502 635.754 289.462C635.86 287.75 635.98 286.024 636.126 284.312Z" fill="#CF6C45"/>
<path d="M674.682 285.334C679.752 283.861 684.199 285.082 689.189 286.024C694.618 287.192 699.608 287.803 704.028 291.519C710.571 296.443 714.208 304.035 715.057 312.065C715.455 317.944 711.646 324.196 708.952 329.226C705.169 335.557 699.223 343.799 691.525 345.339C684.968 346.427 678.239 347.277 671.577 346.985C666.135 346.812 660.653 343.613 656.234 340.64C649.956 336.579 645.775 329.306 643.97 322.192C641.767 313.034 645.894 304.128 651.681 297.253C657.309 290.908 666.732 287.577 674.682 285.334Z" fill="#061E15"/>
<path d="M733.015 286.834C737.355 287.046 737.063 288.506 738.483 292.05C736.452 291.944 734.647 292.488 732.988 293.616C732.922 291.36 732.882 289.103 733.015 286.834Z" fill="#EE2C27"/>
<path d="M682.725 293.218C689.627 294.89 699.276 296.138 703.032 303.013C705.461 308.123 704.585 315.078 702.422 320.187C699.807 326.797 694.272 331.588 688.234 335.026C681.146 339.101 671.55 338.49 664.29 335.145C656.818 331.456 654.628 322.138 654.044 314.533C655.504 305.415 661.715 297.239 670.926 294.864C674.868 293.191 678.399 292.01 682.725 293.218Z" fill="#FCD34E"/>
<path d="M720.751 293.43C721.959 293.417 723.14 293.496 724.321 293.656C726.219 294.903 725.795 297.08 726.312 299.084C724.64 298.686 722.954 298.368 721.255 298.102C720.552 296.708 720.393 295.142 720.751 293.43Z" fill="#CF6C45"/>
<path d="M616.589 300.478C618.221 302.296 620.026 303.584 618.327 306.119C616.788 306.212 615.248 306.278 613.708 306.331C612.647 304.579 611.651 302.801 610.51 301.088C612.527 300.876 614.558 300.438 616.589 300.478Z" fill="#CF6C45"/>
<path d="M630.578 300.053C632.728 299.695 633.856 300.478 635.635 301.513C635.29 302.88 634.852 304.221 634.307 305.535C631.918 303.796 629.197 303.796 630.578 300.053Z" fill="#EE2C27"/>
<path d="M756.308 300.465C756.481 302.402 756.773 304.181 756.175 306.092C754.437 306.57 752.632 306.928 750.76 307.167C751.052 304.871 751.384 302.588 751.41 300.266C753.043 300.359 754.676 300.425 756.308 300.465Z" fill="#CF6C45"/>
<path d="M734.621 303.092C736.492 303.411 738.35 303.69 740.235 303.929C740.301 305.402 740.355 306.875 740.381 308.348C737.713 307.831 735.072 307.406 732.55 306.331C733.294 305.282 733.984 304.207 734.621 303.092Z" fill="#EE2C27"/>
<path d="M722.344 306.835C726.485 308.03 727.586 308.72 728.927 312.927C726.219 312.874 723.498 312.821 720.778 312.795C721.362 310.817 721.866 308.826 722.344 306.835Z" fill="#EE2C27"/>
<path d="M624.088 315.701C625.893 316.803 625.879 319.59 626.782 321.435C623.53 321.621 621.261 321.249 618.314 319.895C618.593 318.661 618.871 317.44 619.163 316.219C620.769 315.542 622.468 314.374 624.088 315.701Z" fill="#EE2C27"/>
<path d="M735.484 322.178C737.886 321.541 742.425 324.461 739.611 326.943C736.346 329.903 734.329 328.217 731.051 326.545C732.378 325.098 733.652 322.961 735.484 322.178Z" fill="#EE2C27"/>
<path d="M808.349 346.202C811.362 346.786 814.534 351.112 812.039 353.794C808.681 358.519 801.249 357.828 799.019 363.443C795.395 370.49 792.303 377.724 787.897 384.347C786.928 386.258 784.764 388.567 785.521 390.797C786.755 397.102 788.812 402.304 785.733 408.543C780.358 418.085 772.089 426.606 763.488 433.335C765.201 441.856 767.59 450.205 769.634 458.646C770.231 461.221 770.881 463.836 770.616 466.49C769.501 467.632 768.373 468.733 767.205 469.822C765.864 468.109 763.555 466.782 762.891 464.712C761.298 460.026 761.444 454.837 760.157 449.953C758.617 443.728 755.1 436.521 756.096 430.044C756.573 426.513 759.281 425.279 761.79 423.275C769.554 418.085 775.965 409.312 779.322 400.672C779.694 397.181 777.106 391.992 774.412 389.682C770.138 388.382 766.899 390.824 764.179 393.837C760.462 398.376 757.768 403.818 756.308 409.498C755.326 412.02 755.538 414.94 752.592 415.935C748.743 413.705 748.092 408.051 746.247 404.242C744.642 399.013 738.775 397.274 734.05 396.093C728.595 394.766 723.326 399.013 724.029 404.68C725.171 412.976 731.993 417.329 737.939 422.213C736.121 423.66 735.298 426.288 732.749 425.81C728.967 424.907 725.569 422.412 721.72 421.576C715.575 420.581 709.761 420.528 704.678 424.562C706.39 428.332 707.93 431.676 711.421 434.158C715.96 437.994 721.879 436.07 726.06 440.675C722.848 445.188 718.508 444.113 713.823 445.851C709.761 447.418 706.191 450.484 703.165 453.549C701.546 455.487 699.356 457.624 700.63 460.345C703.484 466.291 711.62 467.432 717.154 464.805C725.423 461.672 726.033 452.382 735.457 451.386C738.125 463.57 743.434 474.52 748.159 485.961C746.301 488.31 744.257 490.487 741.96 492.411C737.501 489.531 737.395 485.35 736.014 480.718C734.634 475.184 731.82 470.167 729.989 464.698C725.224 467.539 720.433 470.91 715.15 472.662C705.766 475.29 696.051 470.498 691.114 462.455C688.406 457.199 691.844 452.408 693.768 447.537C682.261 450.165 670.78 448.785 659.207 450.271C658.41 455.806 657.362 460.584 652.69 464.154C646.12 469.795 639.125 469.198 631.042 470.153C628.401 476.458 627.061 483.054 624.937 489.491C623.968 491.522 622.721 495.092 619.907 494.548C616.668 494.734 612.779 490.845 614.823 487.607C618.473 478.024 623.504 470.007 623.424 459.323C630.219 457.704 631.985 465.043 638.409 464.313C643.333 464.353 647.898 461.141 649.518 456.496C650.526 452.912 648.589 448.771 645.496 446.847C640.585 445.613 634.825 447.404 629.808 446.794C627.83 445.533 628.401 443.436 627.286 441.259C630.923 440.994 635.515 441.432 638.767 439.613C642.921 437.039 645.562 431.982 646.638 427.336C647.739 422.85 642.523 416.267 637.878 419.89C630.365 424.761 625.64 433.123 618.686 438.936C617.385 438.153 616.044 437.702 614.651 437.583C615.182 434.875 615.394 432.274 616.721 429.778C619.376 424.536 620.146 418.178 618.566 412.524C617.212 409.418 614.001 405.569 610.178 407.136C606.555 409.498 604.112 413.931 602.52 417.86C599.971 424.629 602.825 431.65 604.909 438.127C602.825 439.958 600.688 441.75 598.618 443.608C595.658 439.786 593.083 435.725 590.362 431.73C588.623 429.168 585.823 428.08 582.784 428.159C578.311 428.186 573.068 429.712 570.055 433.216C565.742 437.981 567.029 446.25 572.179 449.913C577.647 454.147 583.553 454.532 589.898 456.39C592.95 457.412 595.14 459.575 594.344 463.026C592.884 467.857 589.353 472.197 586.805 476.537C584.031 480.771 581.735 485.762 578.152 489.359C575.019 490.022 571.369 488.841 568.277 488.164C575.656 479.364 583.606 471.958 587.88 460.969C581.775 459.482 576.041 459.071 570.679 455.501C564.945 451.824 560.048 446.555 559.875 439.374C560.406 434.119 563.353 429.858 567.056 426.275C570.732 422.731 575.099 421.43 579.811 419.824C572.431 410.985 566.817 401.455 561.853 391.116C558.893 386.338 557.141 381.971 557.088 376.251C554.195 375.414 551.514 374.087 548.58 373.344C548.647 371.645 548.381 370.026 549.456 368.579C555.111 367.796 560.167 369.256 565.158 366.071C570.493 363.005 573.002 358.266 576.2 353.276C578.921 356.063 581.324 357.935 580.594 362.288C579.067 368.898 571.993 373.742 567.268 378.241C571.807 394.036 578.059 408.463 592.406 417.687C598.034 411.277 599.162 404.255 607.364 400.181C613.204 397.009 618.832 400.207 622.959 404.494C626.291 407.945 626.901 412.086 627.91 416.586C635.502 414.343 643.81 411.237 651.15 416.015C656.048 419.665 656.658 424.31 656.234 430.084C653.632 433.057 652.013 436.521 650.38 440.065C659.578 442.679 669.878 441.272 679.633 441.538C686.627 441.71 692.043 440.476 698.374 437.662C697.511 435.924 696.608 434.198 695.799 432.433C694.18 428.969 691.99 422.253 695.401 419.293C701.386 415.949 708.607 414.542 715.137 412.537C714.978 407.122 713.491 400.698 717.459 396.279C722.981 389.337 733.426 389.112 740.859 392.815C743.991 394.5 747.296 395.562 750.614 396.783C753.64 392.854 756.494 387.745 760.635 384.944C765.824 383.073 773.35 384.997 778.128 382.475C783.583 375.6 789.648 366.256 788.733 357.112C787.79 353.993 785.932 351.02 784.485 348.086C788.839 348.392 793.166 349.639 797.519 349.599C801.222 348.962 804.673 347.025 808.349 346.202Z" fill="#061E15"/>
<path d="M471.348 364.969L474.002 365.686C468.136 370.888 460.823 371.008 454.319 374.751C450.882 376.45 452.236 380.71 452.182 383.763C453.311 394.367 452.328 404.893 452.647 415.51C452.952 424.722 455.739 432.791 458.009 441.684C460.438 451.851 465.734 461.075 470.379 470.764C476.591 481.886 483.439 493.991 492.703 502.843C500.587 510.276 509.347 516.342 518.24 522.434C524.969 528.127 532.826 531.618 540.232 536.263C551.235 542.94 563.26 548.129 575.762 551.208C589.619 554.593 602.931 557.977 617.252 558.827C627.127 559.278 636.497 562.357 646.359 563.154C652.982 563.193 652.597 570.4 654.203 575.099C657.003 575.298 659.777 575.802 662.591 575.922C663.918 578.868 666.148 581.947 666.122 585.212C665.02 588.862 662.365 589.685 659.22 591.039C660.003 589.977 660.773 588.902 661.543 587.814C663.533 585.465 664.423 582.213 661.543 580.142C658.477 577.196 655.066 578.311 651.23 578.231C650.473 574.183 649.557 570.175 648.721 566.14C638.661 564.906 628.614 563.459 618.526 562.463C599.494 560.897 581.616 556.013 563.406 550.571C547.837 545.674 536.104 536.741 522.062 529.176C514.032 524.146 506.759 517.934 499.087 512.386C484.899 501.742 475.701 487.514 467.671 471.972C459.907 458.089 454.678 443.064 451.439 427.509C449.687 418.55 451.041 408.702 450.59 399.53C450.497 393.16 449.262 387.041 448.307 380.776C447.59 377.418 449.501 373.052 452.899 371.924C459.005 369.495 465.309 367.623 471.348 364.969Z" fill="#FEB84B"/>
<path d="M659.631 426.009C658.437 429.991 657.375 433.999 656.207 437.994C665.365 438.724 674.483 437.755 683.654 438.127C686.946 438.419 689.693 437.49 692.826 436.8C692.282 433.76 692.016 430.681 691.591 427.628C693.051 429.181 694.511 430.734 695.799 432.433C696.608 434.198 697.511 435.924 698.374 437.662C692.043 440.476 686.628 441.71 679.633 441.538C669.878 441.272 659.578 442.679 650.38 440.065C652.013 436.521 653.632 433.057 656.234 430.084C657.335 428.69 658.477 427.35 659.631 426.009Z" fill="#FEB84B"/>
<path d="M680.363 573.373C680.522 578.775 679.367 584.031 679.221 589.393C679.898 593.561 681.106 597.622 681.69 601.816C679.646 601.604 677.602 601.378 675.545 601.206C676.474 593.375 674.191 586.858 676.381 579.572C676.939 577.222 678.969 575.351 680.363 573.373Z" fill="#FEB84B"/>
<path d="M740.686 577.793C738.762 580.766 737.846 581.483 734.435 582.518C734.647 581.098 734.846 579.678 735.059 578.258C736.93 578.032 738.815 577.912 740.686 577.793Z" fill="#FEFEFE"/>
<path d="M636.219 581.045C638.979 582.107 637.626 586.739 637.944 589.075C635.502 588.371 632.9 588.252 631.467 585.863C631.202 584.522 631.029 583.208 630.949 581.881C632.847 581.35 634.201 580.315 636.219 581.045Z" fill="#FEFEFE"/>
<path d="M661.542 580.142C664.423 582.213 663.533 585.465 661.542 587.814C661.25 585.266 661.304 582.704 661.542 580.142Z" fill="#CF6C45"/>
<path d="M722.676 584.111C723.313 586.646 722.012 588.305 721.202 590.601C718.76 588.504 716.371 586.593 714.38 584.044C715.429 580.381 721.056 581.416 722.676 584.111Z" fill="#FCD34E"/>
<path d="M659.578 583.739C657.946 588.172 655.464 589.34 651.296 590.84C651.562 588.119 650.898 585.743 652.438 583.474C655.158 582.213 657.481 580.395 659.578 583.739Z" fill="#FCD34E"/>
<path d="M762.015 586.38C766.807 585.518 771.558 585.199 775.195 589.021C771.571 593.985 768.014 598.1 763.382 602.135C759.998 600.462 756.919 598.498 753.932 596.202C756.175 592.592 757.649 587.92 762.015 586.38Z" fill="#EE2C27"/>
<path d="M754.184 587.442C752.99 590.919 752.592 593.972 748.623 595.246C745.69 595.366 740.62 595.897 740.049 592.008C744.27 588.822 749.074 588.053 754.184 587.442Z" fill="#EE2C27"/>
<path d="M636.909 595.936C633.365 599.082 629.662 601.02 625.295 602.732C621.831 599.693 618.619 596.52 616.018 592.671C622.429 589.592 630.803 593.468 636.909 595.936Z" fill="#EE2C27"/>
<path d="M610.536 592.698C615.195 595.167 618.885 600.184 622.309 604.099C617.358 608.214 612.355 611.333 606.661 614.292C600.993 609.262 595.698 604.033 590.721 598.299C596.268 594.065 603.675 592.499 610.536 592.698Z" fill="#EE2C27"/>
<path d="M655.995 593.189C658.118 594.689 660.295 596.401 662.671 597.45C665.856 598.565 669.559 598.538 672.917 598.737C670.488 599.334 668.073 600.025 665.644 600.662C661.436 599.467 657.202 597.516 653.154 595.99C654.216 595.154 655.119 594.211 655.995 593.189Z" fill="#FEFEFE"/>
<path d="M785.813 592.738C796.471 599.109 799.258 612.116 795.86 623.437C793.909 629.131 790.206 634.374 786.37 638.966C780.69 646.12 770.297 649.292 761.498 649.663C761.564 645.775 761.405 641.952 762.32 638.13C764.112 629.795 765.002 621.141 768.997 613.708C773.164 605.758 778.287 597.888 785.813 592.738Z" fill="#EE2C27"/>
<path d="M736.559 595.114C740.58 596.136 744.336 597.835 747.973 599.812C746.075 603.873 743.301 605.214 739.532 607.205C736.24 608.705 734.939 613.682 737.249 616.522C739.664 620.716 746.831 620.384 749.38 616.562C750.256 612.965 748.491 608.559 747.694 605.041C749.313 603.608 750.641 600.887 752.791 600.33C755.883 600.024 758.989 602.414 761.763 603.621C757.29 614.173 753.202 624.021 753.149 635.727C753.242 641.435 753.043 646.956 752.273 652.623C742.89 654.229 733.506 653.459 724.268 651.376C724.335 643.213 724.653 635.435 721.043 627.897C718.004 620.968 712.15 617.093 707.664 610.709C713.425 608.426 719.464 607.271 725.37 605.506C730.188 604.285 733.121 598.511 736.559 595.114Z" fill="#EE2C27"/>
<path d="M639.762 599.162C643.067 600.078 646.133 602.254 649.08 603.98C654.402 607.404 660.401 609.913 666.082 612.806C662.193 617.557 658.025 622.243 655.636 627.99C653.699 632.688 652.119 637.732 651.044 642.709C649.876 647.832 650.885 653.473 651.309 658.729C647.819 659.844 644.819 661.383 641.09 661.489C632.37 661.795 623.902 662.06 615.368 659.976C616.336 653.353 618.088 646.345 616.788 639.789C616.044 633.325 613.085 628.096 610.55 622.256C609.833 620.331 608.638 617.491 610.523 615.859C613.855 612.753 618.009 610.39 622.163 608.559C625.057 606.926 627.87 609.554 628.839 612.156C628.375 615.168 626.702 618.022 625.959 621.008C626.583 624.021 631.295 627.817 634.427 627.207C637.639 625.853 640.771 622.296 640.492 618.632C638.581 615.673 634.666 613.987 632.038 611.651C630.047 610.205 629.224 607.338 628.096 605.227C631.48 603.144 635.621 599.122 639.762 599.162Z" fill="#EE2C27"/>
<path d="M582.173 602.307C584.204 601.338 585.08 602.958 586.619 603.98C592.167 608.758 597.025 614.186 601.073 620.291C607.271 628.826 609.289 640.479 608.877 650.831C608.665 653.619 607.616 659.711 603.953 659.671C598.339 659.392 592.685 657.813 587.296 656.247C579.758 653.765 574.263 648.15 570.6 641.262C566.551 635.09 567.122 626.211 568.157 619.23C570.546 612.633 575.67 605.333 582.173 602.307Z" fill="#EE2C27"/>
<path d="M679.659 612.766C682.022 612.673 684.384 612.753 686.734 612.832C687.503 620.955 687.265 629.078 686.866 637.214C686.734 640.651 685.685 643.532 682.964 645.722C677.469 650.181 670.223 654.163 663.454 656.18C660.375 657.521 658.331 652.504 657.972 650.194C657.773 640.293 663.122 631.268 668.484 623.318C671.285 619.243 674.642 614.213 679.659 612.766Z" fill="#EE2C27"/>
<path d="M699.289 613.177C708.753 622.681 715.761 633.922 716.876 647.566L715.429 649.518C708.713 649.425 703.55 646.558 697.697 643.784C698.865 633.644 696.33 622.906 699.289 613.177Z" fill="#EE2C27"/>
<path d="M691.498 650.38C695.002 652.053 697.883 652.809 699.794 656.432C695.772 656.698 691.963 656.605 687.955 656.233C688.658 654.017 689.999 652.119 691.498 650.38Z" fill="#FEFEFE"/>
<path d="M776.774 654.813C778.022 655.278 779.256 655.756 780.477 656.26C779.588 657.282 778.765 658.344 778.009 659.472C777.557 657.919 777.119 656.379 776.774 654.813Z" fill="#FEFEFE"/>
<path d="M711.009 658.264C720.499 659.777 729.644 662.06 739.346 661.887C750.574 661.582 761.869 662.976 772.766 665.657C768.439 669.307 762.533 668.033 757.303 667.634C746.752 666.095 736.731 667.289 726.087 666.878C717.26 666.971 708.434 666.573 699.608 666.944C699.688 668.205 699.781 669.466 699.86 670.727C699.595 668.391 698.971 666.108 698.759 663.759C695.533 663.48 692.321 663.095 689.096 662.816C694.326 663.228 699.542 663.122 704.784 663.042C706.536 661.463 708.169 657.348 711.009 658.264Z" fill="#CF6C45"/>
<path d="M711.301 659.498C720.207 660.958 728.9 662.87 737.979 662.949C747.216 663.427 755.578 661.688 764.019 666.254C751.45 667.117 738.563 666.865 725.994 665.829C719.172 665.551 712.35 665.975 705.528 665.471C707.094 663.732 708.315 658.49 711.301 659.498Z" fill="#FEFEFE"/>
<path d="M857.736 663.878C857.02 665.75 856.462 667.82 855.427 669.559C840.907 670.329 827.661 672.041 813.685 670.156C807.553 669.36 801.448 669.997 795.329 669.678C793.763 667.422 795.196 666.307 795.979 664.104C809.451 664.077 822.777 665.63 836.248 665.431C843.495 665.71 850.49 663.892 857.736 663.878Z" fill="#061E15"/>
<path d="M682.181 674.682C692.892 677.43 703.258 676.646 714.141 676.262C716.252 678.664 713.902 681.916 711.46 682.871C707.16 683.495 702.515 682.752 698.201 682.327C691.578 681.358 685.513 682.46 679.58 678.704C680.602 677.522 681.478 676.182 682.181 674.682Z" fill="#061E15"/>
<path d="M774.717 676.235C781.088 675.916 787.432 676.089 793.776 675.399C810.579 674.682 827.382 675.253 844.198 674.629C848.047 674.722 851.379 673.647 854.445 676.593C853.728 677.801 853.184 679.102 852.786 680.482C846.481 681.756 840.018 682.42 833.594 682.566C816.525 680.814 799.085 681.517 781.95 681.889C778.792 681.969 776.668 678.279 774.717 676.235Z" fill="#061E15"/>
<path d="M763.422 679.859C763.342 681.863 763.303 683.867 763.263 685.871C762.4 687.331 759.56 687.636 757.994 687.795C750.216 687.822 742.598 688.34 735.006 686.309C735.231 684.597 735.391 682.885 735.483 681.159C744.296 678.08 754.277 679.248 763.422 679.859Z" fill="#FEFEFE"/>
<path d="M763.289 681.172C763.263 683.681 762.413 685.605 760.754 686.933C758.14 687.105 755.565 687.185 752.99 686.667C747.19 685.552 741.416 685.738 735.537 685.619L736.028 681.876C744.044 678.359 754.782 680.403 763.289 681.172Z" fill="#061E15"/>
<path d="M658.795 682.778C660.759 685.088 660.348 687.609 660.693 690.423C656.844 691.591 653.207 692.587 649.133 692.255C628.295 691.658 607.431 692.626 586.672 692.069C581.841 691.273 581.032 688.711 580.62 684.265C586.354 684.836 591.557 685.871 597.344 684.982C610.218 682.938 624.22 684.305 637.161 685.34C644.355 685.313 651.84 684.716 658.795 682.778Z" fill="#061E15"/>
</g>
<defs>
<clipPath id="clip0_2_386">
<rect width="1330" height="730" fill="white"/>
</clipPath>
</defs>
</svg>
