<svg width="1330" height="730" viewBox="0 0 1330 730" fill="none" xmlns="http://www.w3.org/2000/svg">
<g clip-path="url(#clip0_2_560)">
<path d="M0 0H1330V730H0V0Z" fill="#FEFEFE"/>
<path d="M521.934 27.1549C530.547 31.3016 538.401 37.5549 544.961 44.5016C551.094 49.9549 557.187 55.275 562.974 61.1283C569.241 66.9016 574.187 74.0216 579.107 80.915C582.361 84.6216 585.267 88.475 587.547 92.8616C593.574 102.648 600.067 113.022 604.827 123.462C607.627 130.862 612.441 138.915 613.214 146.928C614.947 149.582 613.787 152.222 615.987 154.768C616.787 159.302 617.067 162.595 618.547 166.928C619.481 167.355 620.401 167.355 621.321 166.928C624.041 163.328 621.374 159.608 623.987 156.248C624.121 153.795 623.947 151.315 624.081 148.862C626.054 135.568 623.707 121.062 622.747 107.528C622.121 103.782 621.321 99.9283 621.321 96.115C619.321 92.835 620.934 89.2616 619.094 86.195C618.547 84.6483 618.627 83.3283 619.321 82.2483C622.227 80.3416 622.507 85.2883 623.987 86.7816C624.787 95.035 628.187 101.782 627.881 109.595C628.601 110.902 629.094 112.742 629.374 114.195C629.187 119.568 629.761 124.848 630.254 130.195C630.401 138.635 630.321 147.102 629.867 155.528C628.307 159.288 629.841 164.435 627.881 168.115C628.054 171.555 626.027 173.408 626.321 176.862C624.361 179.555 625.374 182.288 625.214 185.582C626.161 185.662 627.094 185.662 628.001 185.582C630.867 182.662 634.521 180.488 637.214 177.475C641.067 176.022 643.214 172.782 646.747 170.968C648.387 169.928 649.667 168.488 651.201 167.328C653.174 165.555 655.841 166.622 657.201 164.142C661.614 161.075 668.174 162.395 672.667 164.595C679.254 168.515 683.494 174.302 687.187 180.862C688.614 184.875 689.774 188.435 691.987 192.128C693.187 196.408 691.161 200.502 695.867 202.915C703.241 203.328 710.547 202.995 717.934 203.782C721.521 204.475 724.014 203.182 726.534 205.582C732.987 205.302 738.974 206.128 745.32 206.808C746.707 209.355 748.801 207.875 751.267 208.582C757.334 210.355 762.747 210.168 768.601 213.128C771.121 214.528 773.667 214.222 775.881 216.248C781.401 216.262 784.187 220.302 789.934 219.942C794.974 217.982 794.907 211.542 798.654 208.248C798.734 207.328 798.734 206.408 798.654 205.475L797.32 204.142C790.814 202.435 784.8 199.635 780.654 194.142C778.854 192.768 779.241 190.715 777.214 189.595C776.561 186.008 775.347 181.782 776.507 178.195C778.947 171.408 782.507 165.488 789.934 163.475C795.507 162.435 802.481 162.795 807.267 166.048C809.721 166.595 810.707 168.622 813.32 166.928C814.614 163.582 813.654 159.702 815.654 156.862C817.014 152.208 819.921 147.648 824.601 145.835C826.601 145.862 827.467 144.982 829.16 144.142C831.414 143.755 833.774 143.702 836.027 144.142C837.574 145.008 838.854 145.808 840.601 146.235C847.547 150.608 852.761 158.688 853.214 166.928C854.481 168.888 857.427 168.982 858.521 166.808C863.334 166.328 867.787 166.502 872.601 166.755C881.641 169.142 887.774 179.742 887.48 188.862C887.787 196.142 883.321 201.995 877.214 205.475C877.094 206.435 877.094 207.355 877.214 208.248C880.641 210.462 883.707 212.595 884.614 216.862C884.974 220.488 885.6 224.315 883.56 227.528C879.44 234.142 874.467 234.248 868.601 238.368C862.174 239.488 856.681 238.355 850.521 237.582C848.627 236.382 847.521 235.675 845.201 236.142C840.707 239.275 837.934 245.488 833.214 248.142C833.134 249.062 833.134 249.982 833.214 250.915C839.614 255.342 846.56 259.182 852.32 265.128C857.187 270.102 861.734 275.395 866.134 280.782C869.187 284.515 871.28 288.608 874.654 292.142C879.187 300.568 884.387 307.875 888.24 316.862C888.96 320.222 891.067 322.835 891.721 326.195C893.627 330.608 897.054 335.288 897.214 340.262C899.427 342.888 898.814 346.902 899.547 350.195C901.974 360.315 900.947 370.195 901.16 380.862C901.467 387.795 900.081 394.075 899.361 400.862C897.774 404.635 898.841 408.475 895.881 412.128C892.974 422.528 888.734 430.675 883.987 440.262C882.12 441.568 880.681 444.595 881.214 446.915C885.854 449.942 890.454 452.742 895.267 455.462C898.987 457.102 899.334 460.355 903.987 458.915C907.787 453.742 913.014 449.008 917.32 444.248C922 440.155 925.507 435.422 931.32 433.102C936.094 430.742 941.974 429.088 947.267 428.302C954.134 428.755 962.574 426.888 968.534 430.475C972.361 432.235 977.001 434.302 979.027 438.262C980.947 441.328 982.08 444.968 983.987 448.128C985.707 454.568 985.067 460.942 985.161 467.528C985.467 471.462 983.774 474.982 983.987 478.928C982.12 480.862 983.667 482.848 981.214 484.142C981.174 487.568 979.707 491.115 977.214 493.475C976.307 495.822 974.974 498.368 973.467 500.422C968.547 506.208 964.107 513.742 957.881 518.142C953.787 522.795 948.534 525.582 943.987 529.582C941.214 530.395 939.014 531.128 936.534 532.582C928.481 536.048 918.987 534.488 909.934 534.635C907.134 532.168 900.614 534.182 898.654 530.808C893.827 529.368 889.187 525.835 886.774 521.328C881.241 514.915 876.254 505.702 870.707 500.088C864.974 494.595 856.561 490.808 849.201 488.248C848.081 486.075 845.361 486.355 843.267 486.528C839.121 487.702 837.641 490.955 834.547 493.475C829.707 498.755 824.147 501.155 817.774 505.875C814.441 507.288 811.934 510.435 808.601 511.915C803.761 513.955 799.321 518.355 794.547 520.142C792.294 523.382 787.614 523.195 784.601 525.302C779.801 527.382 774.441 529.902 769.201 530.808C764.654 534.075 758.427 533.435 753.934 535.835C750.281 536.528 745.587 538.208 741.934 538.728C739.441 538.302 738.414 540.342 735.867 540.142C732.841 542.502 729.654 540.182 726.681 542.915C712.254 544.662 695.147 547.568 680.601 549.355C658.881 549.715 638.267 549.128 616.601 548.315C612.654 548.502 608.654 547.635 605.214 549.475C603.121 553.448 602.374 559.208 599.881 562.795C599.547 565.608 600.507 569.875 598.547 572.128C598.734 578.515 596.961 584.515 597.321 590.928L595.881 592.102C595.547 596.622 594.067 601.248 593.507 606.195C590.241 613.462 587.801 619.528 580.601 623.835C575.747 626.462 570.214 629.062 564.601 629.435C557.507 629.355 550.347 629.582 543.267 629.315C538.721 627.942 534.214 627.395 529.934 625.235C527.427 623.488 524.694 624.195 521.934 622.635C519.281 620.395 514.974 621.715 513.321 618.808C507.947 616.822 503.894 613.688 499.267 610.608C490.387 605.942 485.041 596.768 479.641 588.862C479.094 586.955 478.654 585.275 477.707 583.528C476.841 577.835 477.467 572.395 478.547 566.795C482.147 559.262 488.027 553.182 495.334 549.155C502.827 544.262 511.441 544.462 520.041 545.475C522.854 547.755 525.321 546.595 528.601 547.462C532.667 547.755 535.094 550.382 539.267 550.662C542.881 550.355 545.921 554.675 549.934 553.875C551.321 553.515 552.321 551.888 553.321 550.915C553.894 546.062 557.707 537.702 554.654 533.475C547.267 530.422 542.467 527.302 535.267 523.902C526.587 520.302 521.067 514.075 512.787 509.835C509.441 507.208 505.707 506.288 502.654 502.808C497.907 500.608 493.427 496.808 489.747 493.102C484.734 488.462 479.441 485.062 474.934 479.822C469.761 474.448 465.574 468.208 460.227 462.542C458.014 460.222 456.921 457.008 454.734 454.715C450.961 449.955 446.867 444.982 444.201 439.528C442.361 436.475 441.441 433.262 439.561 430.195C438.121 427.262 436.787 422.502 432.601 423.075C427.321 422.902 422.427 423.862 417.214 424.142C413.587 428.448 416.254 435.968 414.241 440.942C412.081 450.435 400.854 457.395 391.267 455.875C388.121 454.168 385.054 453.395 383.987 449.475C382.227 448.448 382.267 447.102 381.321 445.475C378.814 444.462 377.814 446.408 375.267 446.475C370.854 447.182 366.841 446.022 363.214 443.648C359.801 441.195 357.667 437.595 354.547 434.915C353.294 429.728 354.094 425.302 354.547 420.128C356.361 418.928 357.361 416.208 358.041 414.195C358.147 411.008 355.281 410.635 352.987 409.675C349.134 407.782 344.854 403.862 344.041 399.528C344.227 393.435 342.947 387.182 347.267 382.195C350.107 378.742 354.081 374.488 358.667 373.582C361.974 371.022 367.987 372.968 371.987 372.248C373.374 368.795 371.094 366.168 373.321 362.942C373.374 361.328 373.681 359.755 374.241 358.195C378.441 349.875 388.601 342.515 397.934 347.222C404.281 350.862 411.574 357.822 411.881 365.582C414.614 368.755 412.667 371.715 413.694 375.528C414.161 377.955 415.627 378.502 417.934 378.635C422.121 378.208 425.601 379.542 429.321 377.582C433.761 371.768 432.734 362.155 435.987 356.262C436.254 347.715 440.387 343.302 441.214 334.795C444.227 329.795 445.294 324.435 448.334 319.462C453.481 307.835 460.814 297.568 468.974 287.808C476.987 277.008 485.934 269.008 495.321 259.608C505.321 251.542 514.134 242.635 525.534 236.382C528.707 234.222 531.667 231.968 535.267 230.542C536.521 230.062 537.614 229.262 538.547 228.142C541.987 227.342 544.521 224.568 543.294 220.862C541.107 215.435 542.454 208.382 542.547 202.795C543.761 201.155 543.814 199.422 543.881 197.475C546.241 195.262 547.227 190.835 551.267 189.248C559.361 186.182 568.961 186.648 577.361 188.142C580.974 190.075 585.187 188.568 588.601 190.248C590.854 191.115 595.121 189.915 593.214 186.928C586.681 181.128 581.334 175.622 573.214 172.248C570.721 170.035 568.467 167.915 565.214 166.915C562.921 163.488 557.214 163.315 554.654 160.142C552.721 159.555 551.014 158.555 549.334 157.475C546.947 156.742 544.747 156.302 542.681 154.808C537.214 154.595 533.601 152.022 528.601 150.768C524.467 150.715 520.667 151.008 516.601 149.968C515.267 149.515 514.161 148.302 514.547 146.808C519.281 145.848 524.441 147.182 529.334 146.808C530.801 148.142 532.494 147.688 534.014 148.502C536.161 150.248 538.801 149.542 541.174 150.915C546.734 151.595 550.694 154.982 556.001 156.142C557.534 158.755 560.854 157.822 563.094 159.955C573.414 165.342 581.667 171.675 591.374 177.968C593.347 179.422 596.814 183.968 598.427 179.528C596.947 175.502 592.694 173.088 590.934 169.008C585.881 162.382 580.374 155.462 573.881 150.248C563.174 139.448 551.014 128.808 537.867 121.102C535.547 119.235 533.281 117.435 530.521 116.248C528.427 114.208 529.934 112.062 532.601 112.915C539.507 116.462 544.907 122.035 552.001 125.475C558.787 130.582 565.454 135.915 571.494 141.915C574.841 144.888 578.387 147.368 581.214 150.915C587.894 155.168 592.974 162.715 597.747 168.928C598.734 170.128 599.587 171.368 601.334 170.915C602.921 168.008 600.761 166.675 599.987 164.128C595.347 156.915 593.507 152.088 589.481 144.862C588.347 141.888 583.161 134.755 581.574 131.528C574.094 122.275 568.747 114.088 559.507 105.928C555.627 101.382 551.254 97.355 547.174 92.995C545.534 91.7416 544.254 89.0216 547.267 88.595C552.561 92.0483 557.121 98.155 561.867 102.328C569.467 109.755 577.081 117.635 583.401 126.195C585.334 128.968 588.147 131.675 589.214 134.915C593.321 138.515 594.547 143.822 597.614 147.528C599.907 153.008 604.814 157.315 606.547 162.915C608.961 164.222 607.507 166.195 609.321 168.142C609.694 169.528 610.201 173.355 612.361 172.795C612.974 171.275 612.921 169.555 612.201 167.622C610.494 163.008 609.961 159.728 609.321 154.795C606.481 151.435 607.681 146.875 605.614 143.608C603.241 136.368 600.961 128.582 596.601 122.208C594.907 121.128 595.107 118.115 594.241 116.795C587.067 101.555 578.921 89.0616 568.081 76.035C564.867 70.275 558.334 65.3549 554.654 60.1416C551.987 57.4216 548.894 55.3149 546.654 52.1416C540.974 48.1283 536.774 42.0883 530.721 38.7816C527.441 35.9683 524.281 32.6749 520.601 30.4216C517.814 29.1949 519.121 26.3016 521.934 27.1549Z" fill="#101414"/>
<path d="M838.707 152.142C842.587 154.568 845.507 159.022 847.987 162.782C848.374 165.528 848.08 168.208 847.987 170.955C846.747 172.595 846.747 174.315 846.654 176.262C844.36 177.462 845.614 178.875 844.294 180.768C842.974 182.688 843.347 187.688 846.68 186.928C848.694 185.288 849.16 182.528 851.2 180.795C854.187 177.688 857.28 174.128 861.934 174.035C865.654 173.302 868.907 174.328 872.6 174.662C875.734 175.275 877.947 177.848 880.094 180.008C884.054 185.462 882.254 194.595 876.787 198.422C873.4 201.888 869.414 204.475 865.214 206.808C864.92 207.782 864.467 208.662 863.88 209.435C864.307 210.302 865.707 211.568 866.374 212.408C870 214.968 874.36 213.422 877.334 217.422C878.094 219.942 877.614 223.022 877.32 225.595C876 226.928 874.654 228.248 873.32 229.582C870.494 229.928 867.894 230.942 865.374 232.248C860.4 233.022 853.614 233.355 849.2 230.915C847.894 229.768 845.72 227.062 843.787 228.048C838.734 234.622 834.147 241.168 828 246.942C826.547 248.635 824.52 251.488 826.667 253.448C828.88 256.248 832.374 256.155 834.774 258.728C842.814 263.408 848.96 269.968 855.12 276.862C858.587 281.195 862.267 284.995 865.054 289.862C874.76 303.768 882.827 318.528 888 334.715C889.894 337.595 889.374 340.648 891.987 342.795C892.32 345.328 891.307 348.902 893.32 350.782C893.654 353.595 892.787 357.822 894.654 360.115C894.787 369.928 894.76 379.795 894.654 389.608C891.654 393.075 895.134 398.755 892.054 402.195C892.547 405.422 891.2 406.208 890.267 408.968C887.48 415.742 885.867 419.328 883.587 426.302C882.094 430.368 879.174 432.902 877.547 436.862C876.534 440.275 872.32 443.955 872.067 447.528C872.867 452.608 879.92 452.635 882.72 456.115C886.28 457.862 889.44 459.742 892.667 462.035C895.44 464.568 899.627 465.528 903.267 465.288C907.107 463.222 910.067 458.928 912.534 455.462C916.254 451.328 920.507 448.582 924.374 444.622C926.667 442.102 930 441.595 932.52 439.328C935.667 437.022 941.414 437.848 943.867 434.808C948.8 434.728 953.747 434.702 958.68 434.808C961.067 436.688 964.587 436.808 967.267 438.288C969.734 439.355 970.947 441.635 973.334 442.795C975.6 446.622 977.08 451.515 979.987 454.808C980.12 459.035 980.014 463.288 980.04 467.528C977.974 474.195 977.507 481.275 973.654 487.528C971.6 493.222 967.707 497.275 964.68 502.275C962.534 504.502 960.014 506.795 958.667 509.595C955.987 512.248 953.374 514.955 950.667 517.582C947.667 518.688 946.307 521.488 943.36 522.462C942.094 523.448 940.507 523.795 939.347 524.982C936.107 527.502 931.067 528.222 927.267 529.635C922.134 529.635 916.987 529.728 911.854 529.582C909.68 528.155 906.414 527.035 903.8 526.915C898.587 525.382 893.32 521.315 890.094 516.862C884.427 510.355 883.534 502.968 875.867 497.595C873.894 493.262 869.774 491.462 865.84 489.195C859.094 485.915 851.774 481.675 844.6 479.622C841.6 479.195 840.787 482.408 838.12 483.822C833.2 488.342 828.907 493.062 823.267 496.768C812.387 503.048 804.707 510.448 793.934 515.128C791.12 515.582 789.907 517.582 787.36 518.462C784.44 520.462 781.16 520.795 778.04 522.542C774.04 524.702 768.307 525.982 764.04 528.248C761.84 528.422 759.427 528.662 757.4 529.582C752.04 529.502 748.254 532.448 743.267 532.528C740.934 533.368 738.12 533.635 736.04 534.915C728.307 534.462 720.334 538.595 712.6 539.195C706.88 540.488 699.52 540.982 693.934 542.968C688.307 543.275 681.574 542.062 676.6 544.302C661.92 544.328 646.534 544.355 631.854 544.248C630.934 543.448 629.84 543.062 628.6 543.088C620.6 542.835 612.6 543.008 604.6 542.968C602.094 543.675 603.427 545.622 601.32 546.915C599.04 548.742 598.64 552.195 598.654 554.915C595.76 557.222 594.907 563.448 594.654 566.955C592.387 570.848 594.48 575.888 592.44 579.528C591.92 583.328 592.094 587.115 591.987 590.928C590.174 592.768 590.907 595.262 590.654 597.595C589.307 599.635 588.067 604.342 587.987 606.915C586.214 608.555 585.16 609.635 585.32 612.248C583.427 612.275 582.667 613.902 581.414 615.022C578.934 617.675 575.8 619.168 572.467 620.448C567.454 623.875 561.374 622.875 555.267 623.582C549.094 624.168 544.32 622.088 538.52 621.582C537 619.728 535.414 620.848 533.84 619.862C529.8 618.488 523.52 616.568 519.854 614.915C517.96 613.115 516.014 614.422 514.414 612.302C508.934 610.435 505.16 606.608 499.267 604.555C494.334 601.155 491.814 597.515 487.88 593.582C485.454 588.288 480.72 581.568 481.694 575.528C483.52 572.235 482.787 566.088 486.534 562.795C488.907 560.755 490.854 557.582 493.84 556.608C497.8 553.928 502.094 553.928 505.934 552.088C510.174 552.102 514.427 552.008 518.667 552.142C521.387 554.475 525.88 554.582 529.36 554.808C531.2 556.502 533.614 555.475 535.36 556.595C541.2 558.102 545.427 561.568 551.267 562.608C554.48 561.595 553.64 559.182 555.88 557.435C558.254 553.768 557.254 548.475 559.6 544.862C559.494 542.675 560.894 542.062 561.214 540.102C563.16 537.502 563.08 532.515 560.44 530.342C558.427 528.088 555.814 528.648 553.16 526.928C540.16 522.595 530.32 512.582 517.2 506.915C514.427 504.248 511.227 502.235 508.027 500.128C503.08 496.942 498.36 492.062 493.2 489.582C490.347 486.862 487.454 483.342 483.88 481.582C481.654 479.355 479.427 477.142 477.214 474.915C476.4 472.875 474.907 470.982 473.334 469.448C469.774 464.942 466.894 460.102 462.547 456.248C457.334 448.328 451.014 441.502 447.547 432.862C446.587 430.088 443.907 426.288 443.414 423.528C441.734 421.115 441.64 418.662 438.507 417.582C436.827 416.448 434.854 415.822 433.334 417.582C427.614 418.088 420.227 416.542 415.267 418.968C412.12 418.902 409.32 418.502 408.307 422.195C410.907 428.595 410.587 435.262 407.987 441.608C405.227 444.595 401.787 446.955 398.68 449.582C395.534 449.435 392.24 450.248 389.187 449.582C386.467 448.088 385.08 445.035 384.254 442.195C383.507 437.288 386.867 434.008 385.334 429.435C383.894 427.662 382.547 427.208 381.214 429.408C380.907 432.008 379.76 433.982 378.667 436.262C375.774 437.355 374.8 439.275 371.267 440.302C368.787 440.768 367.774 438.755 365.2 438.915C363.267 436.742 360.454 438.835 359.827 435.528C358.414 431.862 357.04 428.702 358.92 424.768C361.227 419.262 363.68 415.302 368.6 411.835C370.934 410.768 372.12 408.022 370.334 405.875C369.467 404.768 366.707 403.208 365.374 404.248C360.187 404.422 354.44 405.555 350.294 401.768C346.107 399.062 347.027 393.142 349.214 389.448C351.92 385.742 355.694 382.088 359.854 380.142C365.44 378.955 371.667 378.995 376.747 381.755C380.907 382.022 379.467 376.542 377.214 374.928C377.107 371.222 376.52 367.848 377.214 364.128C379.08 362.422 379.974 359.902 381.56 357.928C382.894 355.995 385.04 355.248 386.534 353.475C388.24 353.262 390.454 353.235 391.84 352.142C394.6 351.488 397.374 353.702 399.747 354.968C404.067 357.515 406.107 361.942 408.04 366.195C408 370.328 409.227 374.115 408.054 378.195C408.227 380.408 407.334 382.555 409.334 384.142C411 385.875 413.054 384.915 415.267 385.288C420.587 385.488 425.974 385.022 431.267 385.382C433.294 385.195 436.267 386.222 436.934 383.528C437.36 378.888 436.947 374.128 437.214 369.462C439.16 367.502 438.254 365.248 438.547 362.795C440.987 360.715 438.747 357.182 440.534 355.462C442.374 351.462 442.547 347.835 444.32 343.435C447.48 332.995 453.427 321.288 458.454 311.528C460.2 308.342 465.147 301.475 467.214 298.142C469.04 296.568 470.6 295.168 471.534 292.862C472.734 289.955 476.387 288.435 477.214 285.462C484.347 278.488 490.24 272.502 497.214 265.475C499.627 264.088 500.134 261.462 503.027 260.582C507.387 256.315 511.8 254.168 515.88 249.475C518.454 248.515 520.6 246.035 522.547 244.142C526.28 242.755 529.307 238.782 533.32 238.915C536.507 235.408 541.8 232.195 546.654 233.475C547.2 237.088 550.347 239.368 550.547 242.915C551.8 244.568 553.68 244.795 554.827 246.595C556.587 249.048 559.187 250.168 561.214 252.248C563.787 252.035 564.76 254.128 567.267 253.648C570.787 254.395 571.907 251.955 575.267 252.302C577.734 251.915 580.174 249.835 582.654 249.582C585.294 246.875 587.494 243.928 590.68 241.635C593.4 238.515 595.6 235.035 598.654 232.248C598.654 230.435 600.214 229.448 601.32 228.248C601.574 225.182 605.507 222.648 607.867 225.582C612.814 225.808 617.72 225.755 622.667 225.582C624.92 223.648 627.76 222.968 629.854 220.688C631.68 218.942 633.854 219.968 635.987 220.142C639.44 224.235 645.734 224.088 649.934 226.675C651.067 226.728 652.2 226.782 653.32 226.808C654.814 228.942 656.774 227.262 658 228.795C660.427 230.088 663.947 229.075 666.68 229.475C667.947 230.542 669.24 230.542 670.52 229.475C672.974 229.062 676.88 230.315 678.534 228.142C682.014 227.048 684.067 225.635 686.547 222.808C689.92 220.742 688.254 218.235 690.36 215.528C690.027 213.168 691.76 212.888 691.88 210.808C700.867 209.955 709.72 210.728 718.694 210.808C721.84 212.888 727.04 211.728 730.694 212.142C732.827 213.728 736.16 213.262 738.68 213.475C740.334 214.888 742.014 214.715 744.027 214.808C746.374 216.782 749.187 215.835 752.014 216.142C753.507 217.675 755.2 216.955 756.68 217.902C758.307 219.155 760.694 218.115 762.014 219.355C765.56 220.835 769.48 222.622 773.347 222.808C777.214 225.795 782.454 225.315 786.214 228.382C788.88 229.462 790.707 231.235 793.76 229.835C796.534 228.155 798.44 224.648 798.547 221.448C801.48 216.195 804.027 211.475 806.827 206.195C808.36 201.555 801.707 198.315 797.934 198.968C795.294 199.462 794.72 197.182 791.854 197.582C789.84 195.662 786.867 195.782 785.214 193.582C784.294 191.262 782.68 188.955 781.214 186.928C781.12 184.728 781.12 182.342 781.214 180.128C783.24 178.648 783.254 176.262 785.2 174.768C787.347 171.648 790.36 171.488 793.187 169.475C796.627 168.542 799.267 169.008 802.694 169.475C805.214 171.008 807.84 172.555 810.654 173.475C814.094 176.462 816.067 179.595 818.24 183.528C818.76 184.822 819.787 186.008 821.32 185.582C821.334 184.155 821.92 181.915 820.88 180.768C815.6 172.408 817.587 158.728 826.787 153.635C830.134 151.008 834.734 151.435 838.707 152.142Z" fill="#F3692E"/>
<path d="M668.6 170.982C671.014 170.688 671.427 172.582 673.934 172.702C679.24 176.582 682.28 182.808 685.32 188.142C685.627 191.235 685.44 194.075 686.72 196.862C689.2 199.888 688.88 205.822 686.72 208.862C685.574 211.502 685.707 213.555 683.587 215.622C682.094 219.968 678.72 220.102 676 222.915C668.414 222.995 660.787 222.995 653.214 222.915C651.534 220.755 649.467 220.488 647.267 219.168C644.867 218.302 642.48 216.328 639.88 216.248C639.334 213.302 636.374 214.288 635.667 211.528C635.08 210.048 633.614 208.982 635.094 207.435C636.934 203.048 635.48 196.768 631.88 193.595C631.84 192.035 630.974 189.862 632.52 188.782C634.387 187.182 635.294 185.222 637.934 184.955C640.827 184.622 641.254 181.835 644 181.582C645.227 180.462 646.134 178.928 647.987 178.915C649.227 177.795 650.134 176.262 652 176.248C653.4 174.408 656.547 172.888 658.667 172.248C660.72 169.902 665.707 171.395 668.6 170.982Z" fill="#02AEE0"/>
<path d="M615.854 193.475C618.547 193.422 621.307 193.328 624.001 193.475C626.241 196.288 628.441 198.648 629.494 202.195C630.054 205.448 629.494 208.995 629.321 212.275C627.694 214.902 624.254 217.462 621.121 217.475C617.067 219.315 613.974 217.715 609.934 217.648C607.187 216.595 605.894 215.915 603.881 213.582C603.801 209.555 603.787 205.488 603.881 201.462L604.534 200.795C605.361 197.088 608.254 196.968 611.201 195.462C612.387 193.968 614.414 195.435 615.854 193.475Z" fill="#02AEE0"/>
<path d="M553.214 194.808C558.84 194.902 565.92 191.902 571.814 194.915C573.827 195.048 575.52 194.835 577.174 196.248C583.987 196.062 590.56 197.342 597.334 197.475C599.267 198.702 598.974 201.395 599.44 203.528C599.534 208.622 600.32 214.768 598.294 219.528C596.68 222.848 594.654 225.835 592.294 228.675C589.214 232.382 588.694 236.715 585.067 240.008C583.014 243.888 578.894 244.128 575.267 245.635C571.52 245.475 567.414 246.528 563.84 245.582C560.894 243.822 557.107 241.088 554.547 238.915C554.32 236.515 552.374 232.568 550.547 230.915C550.627 229.235 550.187 227.902 549.214 226.928C548.92 224.528 549.814 222.128 547.88 220.262C547.76 215.342 547.747 210.395 547.88 205.462C550.307 203.675 548.134 200.942 549.867 199.462C550.507 197.182 551.534 196.422 553.214 194.808Z" fill="#02AEE0"/>
<path d="M743.987 272.275C741.374 273.462 737.8 272.195 738.48 268.862C739.214 266.088 745.04 269.822 743.987 272.275Z" fill="#101414"/>
<path d="M757.334 269.475C758.227 270.355 759.107 271.235 759.987 272.128C760.107 273.062 760.107 273.995 760.001 274.928C756.934 275.728 756.467 274.062 754.547 272.262C754.374 268.955 754.041 269.288 757.334 269.475Z" fill="#101414"/>
<path d="M702.707 276.142C705.24 277.608 707.587 277.942 706.667 281.595C705.747 281.702 704.814 281.688 703.854 281.582C702.12 279.715 699.254 278.195 702.707 276.142Z" fill="#101414"/>
<path d="M667.267 278.462C671.027 280.035 673 284.422 673.214 288.275C675.774 291.302 675.014 296.622 674.654 300.248C673.774 301.142 672.88 302.035 671.987 302.915C669.974 303.128 667.494 304.048 665.854 302.342C659.654 296.808 658.12 288.808 659.72 280.862C659.107 276.315 664.72 276.795 667.267 278.462Z" fill="#101414"/>
<path d="M721.2 278.795C725.574 277.222 728.04 284.195 729.067 287.248C736.92 301.555 739.227 316.408 745.134 331.315C746.84 336.915 745.88 342.115 747.374 347.528C747.667 354.422 747.747 362.102 746.48 368.862C746.52 377.422 743.16 384.275 741.32 392.288C735.694 401.622 729.827 411.888 721.347 418.928C717.04 421.502 713.48 424.822 708.707 426.568C702.107 429.022 697.8 433.942 690.52 433.475C688.8 435.088 686.8 435.222 684.6 435.702C678.427 436.262 672.134 436.022 665.934 436.062C658.454 435.422 651.667 436.142 644.6 433.088C636.747 431.715 630.52 427.515 623.027 425.382C617.4 423.782 613.48 420.542 608.6 417.955C596.467 408.728 587.774 395.755 579.867 382.942C579.027 379.608 577.454 376.662 575.867 373.635C570.654 359.568 567.934 345.262 568.507 330.195C568.587 328.542 568.04 324.528 570.294 324.115C572.64 324.515 573.347 326.688 573.134 328.862C572.574 334.048 573.147 339.142 573.2 344.342C574.427 347.568 574.32 351.542 574.547 354.982C576.08 358.555 576.24 362.568 577.814 366.195C579.654 374.408 584.174 381.062 587.72 388.555C595.587 399.875 602.827 410.182 615.014 417.315C619.907 420.168 625.174 421.688 630.08 424.435C635.934 426.195 640.974 429.088 647.267 428.928C650.014 429.395 653.44 429.462 655.84 430.915C663 431.022 670.2 431.022 677.36 430.915C679.867 429.248 683.787 430.102 686.707 429.595C691.934 427.568 697.747 425.995 702.427 422.755C712.507 418.395 721.227 411.302 727.574 402.368C731.347 396.968 735.587 391.048 737.454 384.702C738.934 381.155 739.254 376.862 741.32 373.622C741.627 370.782 740.774 366.595 742.654 364.275C742.774 357.568 742.76 350.822 742.654 344.115C741.894 343.222 741.494 342.128 741.44 340.862C741.774 335.195 739.067 329.382 737.334 324.008C735.147 315.275 732.147 306.608 728.894 298.195C726.454 293.448 723.894 288.448 721.707 283.608C720.654 282.435 720.694 280.195 721.2 278.795Z" fill="#101414"/>
<path d="M747.854 284.128C750.147 283.208 753.2 285.222 753.387 287.528C753.56 288.275 751.987 290.395 751.16 289.208C748.72 288.182 747.04 287.102 747.854 284.128Z" fill="#101414"/>
<path d="M640.307 286.448C643.627 292.728 646.947 300.262 644.147 307.395C642.974 311.062 637.587 311.995 635.321 308.808C631.974 305.875 630.814 303.262 630.654 298.755C628.587 294.142 628.747 287.062 634.681 285.582C636.947 283.315 638.094 285.635 640.307 286.448Z" fill="#101414"/>
<path d="M705.334 294.808C707.454 296.515 708.587 297.302 707.987 300.262C705.094 300.848 704.24 299.662 702.534 297.622C702.347 294.302 702.04 294.635 705.334 294.808Z" fill="#101414"/>
<path d="M582.52 297.475H582.68C584.134 299.022 587.227 298.622 586.654 301.622C584.8 305.622 578.494 299.342 582.52 297.475Z" fill="#101414"/>
<path d="M549.347 309.475C551.894 311.355 554.067 310.795 553.321 314.928C552.414 315.048 551.481 315.048 550.521 314.928C548.787 313.022 546.001 311.608 549.347 309.475Z" fill="#101414"/>
<path d="M565.214 312.128C568.174 311.075 571.867 314.608 570.667 317.582C568.961 317.928 568.041 316.888 566.547 316.248C566.094 314.608 564.841 313.902 565.214 312.128Z" fill="#101414"/>
<path d="M588.027 313.475C589.6 314.608 593.814 315.648 591.347 318.275C588.84 320.728 587.6 316.555 586.547 314.955V314.782C587.094 314.142 587.574 313.702 588.027 313.475Z" fill="#101414"/>
<path d="M543.867 330.808C545.96 330.235 548.227 333.568 549.32 334.968C547.107 338.715 542.52 333.728 543.867 330.808Z" fill="#101414"/>
<path d="M625.2 640.142C627.6 640.288 632.534 638.915 631.987 642.928C629.707 643.182 627.52 642.995 625.214 642.915C625.107 641.968 625.107 641.035 625.2 640.142Z" fill="#101414"/>
<path d="M638.36 640.008C640.613 639.155 643.613 639.742 645.933 640.062C651.067 640.168 656.213 640.008 661.347 640.142C663.4 641.288 666.28 640.928 668.6 641.182C678.44 641.115 688.107 641.982 697.933 641.875C722.187 642.995 744.547 642.195 768.6 642.608C771.667 643.528 775.853 641.942 777.747 644.928C778.787 648.075 774.08 647.035 772.48 646.662C763.827 645.902 754.667 646.715 745.933 646.208C729.6 647.115 712.947 645.688 696.6 646.155C688.8 645.328 681 645.782 673.173 645.582C669.627 643.942 665.16 645.902 661.387 644.142C654.44 644.088 647.533 644.088 640.6 643.408C638.467 643.448 637.12 641.982 638.36 640.008Z" fill="#101414"/>
<path d="M790.534 644.128C794.08 643.608 797.76 643.902 801.32 644.142C801.427 645.475 801.427 646.835 801.32 648.248C798.187 648.328 795 648.328 791.867 648.248C790.294 647.075 790.2 646.008 790.534 644.128Z" fill="#F3692E"/>
<path d="M793.934 644.302C796.027 644.515 798.734 643.742 800.547 644.915C802.001 647.808 798.481 647.808 796.601 647.715C795.187 647.942 793.881 647.862 792.681 647.448C790.334 645.715 790.921 644.088 793.934 644.302Z" fill="#101414"/>
<path d="M544.6 653.315C551.04 653.608 557.547 653.288 564 653.475C564.974 654.182 567.014 656.462 564.6 656.702C557.96 656.235 551.267 656.782 544.6 656.475C543.08 656.475 539.694 657.448 539.04 655.528C538.974 652.355 542.52 653.035 544.6 653.315Z" fill="#101414"/>
<path d="M575.867 653.475C576.947 653.182 578.08 653.062 579.267 653.142C589.92 653.648 600.6 653.328 611.267 653.435L612.467 652.942C614.107 655.128 619.36 652.368 621.214 654.915C626.574 654.995 631.96 654.995 637.32 654.915C638.334 653.888 639.427 653.448 640.6 653.635C650.894 653.608 661.134 653.715 671.414 653.688C676.654 654.102 682 653.888 687.267 654.022C691.867 654.515 695.96 653.302 700.6 654.408C710.28 653.835 720.24 654.142 729.934 654.248C736.067 653.582 742.774 654.902 748.6 653.422C767.707 653.395 786.84 653.475 805.934 653.395C808.32 653.808 808.854 656.235 806.68 657.582C802.214 658.435 796.627 656.822 792.587 658.502C791.587 658.022 790.707 657.662 789.934 657.422C765.6 657.395 743.054 657.342 718.534 657.475C717.481 658.368 716.387 658.728 715.267 658.542C709.934 658.768 704.6 658.675 699.267 658.648C697.827 658.768 696.734 658.382 695.987 657.475C691.934 657.395 687.854 657.395 683.787 657.475L683.44 658.048C675.48 657.555 664.64 657.435 656.6 658.315C643.96 657.302 631.974 659.768 619.267 657.822C604.747 657.355 590.387 657.968 575.867 657.582C574.841 656.075 574.841 654.702 575.867 653.475Z" fill="#101414"/>
<path d="M612.467 652.942C618.973 652.182 625.947 653.168 632.6 652.862C644.787 652.422 656.4 652.702 668.6 652.635C669.853 652.462 670.787 652.808 671.413 653.688C661.133 653.715 650.893 653.608 640.6 653.635C639.427 653.448 638.333 653.888 637.32 654.915C631.96 654.995 626.573 654.995 621.213 654.915C619.36 652.368 614.107 655.128 612.467 652.942Z" fill="#FEFEFE"/>
<path d="M683.787 657.475C687.854 657.395 691.934 657.395 695.987 657.475C696.734 658.382 697.827 658.768 699.267 658.648C704.6 658.675 709.934 658.768 715.267 658.542C716.387 658.728 717.48 658.368 718.534 657.475C743.054 657.342 765.6 657.395 789.934 657.422C790.707 657.662 791.587 658.022 792.587 658.502L792.334 659.195C787.027 660.048 780.774 659.262 775.267 659.528C773.907 659.688 772.907 659.355 772.267 658.528C763.52 658.368 754.68 658.395 745.934 658.448C743.907 659.355 742.947 659.742 740.6 659.528C735.107 659.315 728.934 659.968 723.6 659.195C722.147 657.462 719.52 658.835 717.934 659.688C710.374 659.768 702.827 659.755 695.267 659.728C693.934 659.702 692.934 659.302 692.267 658.528C689.387 658.248 686.227 658.862 683.44 658.048L683.787 657.475Z" fill="#FEFEFE"/>
<path d="M753.934 663.555C774.947 663.648 794.187 664.022 815.267 664.022C821.534 664.782 827.654 663.968 833.934 664.662C835.707 664.568 839.16 663.368 839.307 666.195C838.96 668.248 835.494 668.022 833.934 668.088C813.734 667.488 792.56 667.728 771.267 667.355C765.347 667.595 759.04 668.075 753.2 666.915C752.414 665.062 752.654 663.942 753.934 663.555Z" fill="#101414"/>
<path d="M606.547 669.475C618.52 669.142 630.68 669.555 642.694 669.475C643.4 670.248 644.48 670.555 645.934 670.408C664.427 670.528 682.814 670.822 701.32 670.808L701.747 671.448L700.6 671.808C681.934 671.822 663.267 671.715 644.6 671.622C643.24 671.742 642.24 671.382 641.587 670.528C630.627 670.342 619.574 670.502 608.6 670.382L607.6 670.728C607.96 671.395 608.454 671.995 609.094 672.528C616.894 672.688 624.787 672.555 632.6 672.595C633.76 672.422 634.707 672.755 635.44 673.595C626.267 673.635 617.04 673.675 607.88 673.582C606.16 672.275 606.4 671.502 606.547 669.475Z" fill="#101414"/>
<path d="M607.601 670.728L608.601 670.382C619.574 670.502 630.627 670.342 641.587 670.528C642.241 671.382 643.241 671.742 644.601 671.622C663.267 671.715 681.934 671.822 700.601 671.808L701.747 671.448C703.041 672.035 703.494 673.022 703.121 674.382C700.201 674.702 698.894 677.648 695.987 674.808C685.494 674.648 674.934 674.888 664.454 674.688C654.961 673.768 645.054 674.342 635.441 673.595C634.707 672.755 633.761 672.422 632.601 672.595C624.787 672.555 616.894 672.688 609.094 672.528C608.454 671.995 607.961 671.395 607.601 670.728Z" fill="#101414"/>
<path d="M577.214 672.142C580.174 670.942 584.094 672.315 587.267 672.075C590.214 672.315 593.454 670.955 596.094 672.088C597.92 673.182 598.24 674.302 597.32 676.248C590.72 676.355 583.827 676.315 577.214 676.248C576.694 674.715 576.694 673.355 577.214 672.142Z" fill="#101414"/>
<path d="M707.88 672.142C710.934 670.408 713.44 672.262 716.6 671.208C718.267 670.795 719.347 671.342 719.827 672.862C718.187 676.262 711.067 676.182 707.88 674.915C707.774 674.022 707.774 673.088 707.88 672.142Z" fill="#101414"/>
<path d="M741.214 672.128C742.2 671.635 743.334 671.475 744.6 671.635C766.427 671.875 785.36 672.742 807.267 672.382C809.627 673.022 810 673.968 809.32 676.248C801.68 676.982 793.68 676.008 785.934 676.462C776.747 675.955 767.48 676.715 758.32 676.262C754.014 674.862 750.307 676.422 745.934 676.088C743.6 676.302 740.494 674.915 741.214 672.128Z" fill="#101414"/>
<path d="M664.454 674.688C674.934 674.888 685.494 674.648 695.987 674.808C698.894 677.648 700.201 674.702 703.121 674.382C705.001 677.928 698.321 676.888 696.601 677.075C691.281 676.288 684.921 677.902 680.601 675.782C676.161 675.755 671.707 675.782 667.267 675.782C666.001 675.955 665.054 675.595 664.454 674.688Z" fill="#FEFEFE"/>
<path d="M609.213 684.142C611.773 684.102 614.16 683.822 616.6 684.688C622.827 685.048 629.04 684.875 635.267 685.262C638.453 685.248 641.387 684.355 644.6 684.862C652.427 686.315 661.453 683.195 669.12 685.582C676.533 685.768 683.853 685.395 691.267 685.862C695.08 685.902 700.44 684.982 703.867 686.915C709.027 687.008 714.133 686.835 719.267 687.568C721.067 687.768 723 688.075 723.36 690.195C723.173 691.488 722.253 692.088 720.6 692.008C714.613 690.675 708.32 691.062 702.533 690.915L701.347 689.475C695.773 689.302 690.173 689.595 684.6 689.275C673.96 689.768 663.253 688.288 652.6 688.862C637.707 688.728 624.147 688.595 609.213 688.248C608.627 686.955 608.627 685.595 609.213 684.142Z" fill="#101414"/>
<path d="M748.601 688.662C755.027 688.768 762.121 688.448 768.481 689.208C768.854 690.408 768.454 691.022 767.267 691.048C759.081 691.088 750.747 690.968 742.534 690.915C741.401 687.622 746.827 688.235 748.601 688.662Z" fill="#101414"/>
<path d="M773.934 688.355C796.587 688.808 819.134 687.475 841.934 689.355C847.707 689.768 853.574 688.942 859.267 689.195C861.88 690.075 859.854 692.915 857.934 693.222C852.627 693.475 847.294 692.675 841.934 692.955C833.107 692.102 823.974 693.222 815.267 691.568C812.147 691.835 809.067 692.155 805.934 692.048C795.747 691.582 785.44 692.302 775.267 691.995C772.694 691.782 770.56 689.728 773.934 688.355Z" fill="#101414"/>
<path d="M649.214 697.475C657.387 695.302 664.267 697.408 672.6 697.382C683.8 699.982 693.707 697.968 704.6 698.475C709.08 698.542 713.467 698.502 717.934 698.235C736.32 699.315 753.467 698.302 772 698.808C773.68 700.008 775.667 700.528 777.214 698.808C785 698.835 792.867 698.475 800.6 698.622C802.987 699.288 803.547 701.448 801.334 702.915C792.6 703.155 783.987 702.568 775.267 703.502C764.587 702.502 753.987 702.128 743.267 702.768C722.067 702.635 701.894 701.822 680.6 702.755C670.907 701.475 660.587 704.128 651.267 701.848C648.947 701.115 648.267 699.822 649.214 697.475Z" fill="#101414"/>
</g>
<defs>
<clipPath id="clip0_2_560">
<rect width="1330" height="730" fill="white"/>
</clipPath>
</defs>
</svg>
