<svg width="1330" height="730" viewBox="0 0 1330 730" fill="none" xmlns="http://www.w3.org/2000/svg">
<g clip-path="url(#clip0_2_42)">
<path d="M0 0H1330V730H0V0Z" fill="white"/>
<path d="M519.311 63.1834C526.56 64.299 533.195 65.6306 539.193 70.117C542.487 72.6962 543.196 76.7028 544.711 80.3975C546.009 83.5284 546.61 86.4314 546.562 89.8383C546.838 98.6552 541.501 108.156 539.758 116.565C537.005 120.668 534.565 124.95 532.534 129.449C538.532 127.853 543.989 125.142 549.447 122.251C556.479 119.072 563.691 116.157 571.084 113.914C578.056 111.611 584.847 108.588 591.975 106.812C597.877 105.109 603.347 102.878 609.585 102.506C616.028 102.014 622.123 100.683 628.325 99.0151C633.879 98.4513 638.807 98.7632 643.784 95.6802C650.299 95.3084 657.235 95.9921 663.594 94.6126C668.209 93.617 672.32 94.7925 676.876 94.9965C686.276 94.8885 696.554 93.0651 705.798 95.0205C713.996 96.9638 722.061 96.304 729.983 99.6989C739.731 99.8308 748.699 102.59 758.231 104.377C772.175 108.18 785.602 114.502 798.271 121.399C799.005 121.651 799.726 121.891 800.459 122.131C808.91 126.989 817.168 132.388 824.729 138.553C825.546 138.541 826.363 138.518 827.181 138.494C824.32 133.995 823.178 129.005 821.074 124.194C819.932 116.637 816.182 107.184 818.718 99.8068C822.841 88.4227 831.412 79.3659 841.846 73.4279C849.238 70.345 856.379 66.7942 864.625 68.0897C869.962 68.7135 873.712 71.5206 878.316 73.9557C882.042 79.3898 883.461 85.7716 883.761 92.2614C883.533 101.642 878.496 108.084 876.152 116.709C880.973 115.617 885.384 114.058 889.928 112.163C894.808 110.567 900.458 107.82 905.591 109.487C914.498 111.455 922.215 116.661 927.901 123.679C930.738 127.253 931.014 131.188 931.459 135.543C933.935 144.671 928.586 154.496 923.008 161.454C915.604 170.678 905.194 174.361 893.871 176.34C893.762 176.952 893.654 177.564 893.546 178.176C910.543 190.544 925.388 205.55 936.375 223.52C944.561 235.192 949.874 247.812 957.05 260.48C960.368 269.728 965.008 278.497 968.47 287.674C970.778 294.488 973.29 301.194 975.093 308.163C976.235 312.698 977.461 317.196 979 321.61C974.805 323.686 969.828 324.406 965.248 325.389C950.644 326.889 936.003 326.049 921.374 327.572C913.308 327.68 905.47 329.348 897.405 328.88C897.537 337.625 897.861 346.37 898.198 355.103C897.176 365.947 896.371 376.636 892.861 387.048C891.286 393.466 887.608 398.96 886.202 405.402C884.11 413.739 878.653 420.564 875.383 428.65C872.282 433.688 869.385 439.962 864.168 442.901C863.952 443.896 863.723 444.88 863.507 445.876C859.78 449.175 856.27 452.569 853.494 456.72C848.601 460.931 844.358 465.717 840.476 470.839C839.754 471.259 839.033 471.679 838.312 472.099C834.946 476.237 830.823 479.476 826.988 483.171C818.766 490.764 809.715 496.138 800.652 502.436C792.838 507.379 784.243 511.169 775.745 514.792C774.928 514.96 774.11 515.14 773.305 515.308C767.511 517.323 761.861 519.65 756.548 522.757C759.157 527.208 762.174 531.31 766.213 534.573C771.742 539.144 776.659 544.29 781.563 549.496C786.011 558.049 789.965 566.182 788.691 576.175C788.318 582.317 784.652 587.079 781.936 592.561C779.652 597.288 775.529 599.279 772.187 603.525C769.771 606.8 766.525 608.936 763.376 611.431C759.097 615.509 753.675 618.113 749.288 622.143C749.3 622.935 749.312 623.715 749.324 624.506C752.942 623.895 756.152 622.923 759.878 623.511C768.256 625.43 776.647 622.371 785.121 622.203C789.076 622.419 793.163 624.242 797.093 624.134C801.553 623.99 805.796 622.779 810.28 622.887C815.833 623.043 821.363 622.695 826.892 622.959C826.472 624.266 825.943 625.526 825.33 626.726C818.009 627.433 810.484 626.642 803.116 626.797C797.25 626.75 790.662 627.457 785.049 625.706C782.08 625.862 779.123 626.126 776.178 626.414C767.92 627.157 759.77 626.246 751.524 626.594C744.047 626.702 734.971 625.154 727.939 628.057C723.432 629.844 717.782 628.933 712.962 629.161C705.461 629.341 698.369 628.873 691.241 626.342C689.245 627.913 687.262 629.509 685.279 631.104L685.122 631.116C682.562 631.488 680.014 632.088 677.525 632.807C673.655 634.403 669.964 636.406 666.082 637.954C661.298 639.885 656.682 639.561 651.585 640.209C646.416 640.917 641.223 641.313 636.006 641.289C631.198 641.408 626.27 639.393 621.57 638.362C618.168 637.666 615.067 636.118 611.761 635.183C608.239 634.835 604.645 635.363 601.099 634.871C587.9 631.992 573.788 632.508 560.469 634.379C558.017 634.007 555.553 633.671 553.125 633.191C550.084 633.647 547.187 633.431 544.158 632.939C537.378 631.944 531.668 633.719 525.334 630.624C521.559 630.312 517.845 630.06 514.202 628.981C514.19 628.189 514.178 627.397 514.166 626.606C518.506 626.965 522.497 626.762 526.728 627.985C529.481 628.849 532.149 629.485 535.058 629.449C545.372 629.401 556.082 630.984 566.323 630.288C572.875 629.88 579.414 630.264 585.965 629.844C592.24 629.916 598.298 631.236 604.525 631.752C601.496 628.009 597.577 625.466 594.019 622.311C588.417 615.521 582.443 609.787 578.969 601.498C577.322 597.372 575.591 593.209 574.353 588.939C573.476 582.677 573.884 576.163 574.077 569.865C578.428 567.358 582.996 566.206 587.756 564.755C596.315 560.916 600.762 552.147 604.921 544.266C601.748 542.886 598.791 541.435 595.233 541.459C590.244 541.315 585.52 540.739 580.892 538.76C575.904 537.032 571.48 538.76 567.249 534.765C559.688 534.093 552.764 531.094 545.276 529.271C544.398 528.755 543.509 528.251 542.619 527.736C537.895 527.424 534.012 525.444 530.13 522.925C526.187 521.51 522.388 519.794 518.362 518.619C511.486 514.42 503.673 512.789 497.013 508.23C485.498 502.172 475.977 494.171 464.978 487.309C459.124 483.543 454.617 478.541 449.64 473.778C444.652 468.98 441.202 463.198 436.574 458.064C431.249 452.366 429.181 444.88 424.301 438.75C422.895 435.943 421.368 433.148 420.286 430.209C416.584 418.237 412.293 407.153 410.622 394.605C410.033 389.387 409.311 384.169 408.53 378.975C407.725 372.509 408.602 366.043 407.857 359.565C406.15 354.035 407.376 347.534 407.16 341.776C406.535 332.707 409.275 324.13 408.71 315.049C401.895 314.737 395.295 315.205 388.504 314.329C382.854 313.441 377.181 313.717 371.567 312.47C366.17 311.318 360.737 311.354 355.724 309.531C352.743 308.079 350.591 304.6 348.5 302.105C349.966 294.872 351.613 288.046 354.546 281.244C357.142 273.471 361.59 266.561 364.198 258.836C368.959 251.783 371.843 243.841 377.205 236.98C383.179 229.182 389.309 220.593 397.171 214.547C397.399 213.768 397.615 212.976 397.832 212.196C407.857 203.367 417.594 194.106 428.184 185.949C432.655 182.29 437.247 178.848 442.368 176.125C446.034 174.217 449.183 171.662 452.213 168.891C448.655 167.416 445.145 166.288 441.37 165.484C437.692 162.593 433.966 160.206 431.045 156.451C421.512 145.523 425.599 125.526 438.894 119.456C446.551 115.521 455.518 113.026 464.149 113.314C469.823 113.398 475.4 116.637 480.882 117.873C481.206 117.057 481.507 116.217 481.783 115.377C478.357 110.303 479.199 104.017 479.307 98.2114C480.942 86.8633 487.24 78.3102 495.21 70.4769C501.785 64.7189 510.644 62.1038 519.311 63.1834Z" fill="#33373A"/>
<path d="M519.371 69.1575C525.983 70.2611 532.269 71.7126 536.777 77.0747C537.51 83.0367 540.371 89.6464 538.219 95.3685C536.128 102.158 534.637 108.66 531.344 114.922C528.591 120.38 524.949 125.202 521.102 129.929C516.907 135.039 514.791 140.485 509.743 144.923C504.682 140.569 500.8 134.727 496.232 129.833C492.89 126.294 491.075 122.047 489.116 117.669C486.82 108.78 484.776 100.779 488.839 91.9376C493.155 84.0803 499.105 76.439 506.762 71.5686C510.945 70.8729 515.128 69.3614 519.371 69.1575Z" fill="#F8CA09"/>
<path d="M860.838 74.0157C865.19 74.4836 869.144 75.9351 873.135 77.6025C874.241 81.885 875.792 86.6594 875.467 91.0979C874.482 100.011 869.902 107.232 864.997 114.478C857.292 125.778 849.371 137.102 840.343 147.406C832.722 137.426 827.313 125.154 826.123 112.606C825.366 107.712 824.981 103.118 827.614 98.6793C831.869 91.5417 837.29 85.1239 844.286 80.5295C849.287 76.6548 854.888 75.7192 860.838 74.0157Z" fill="#F8CA09"/>
<path d="M515.885 78.3224C521.018 82.8448 526.187 86.0717 526.836 93.5452C528.723 103.166 523.326 109.896 519.047 117.825C516.486 122.659 512.904 126.618 509.082 130.468C507.122 129.569 503.937 128.945 502.915 126.858C498.107 116.073 493.299 104.437 497.951 92.6814C499.646 87.3073 503.3 83.4806 507.423 79.8219C510.224 78.8862 512.94 78.3944 515.885 78.3224Z" fill="#33373A"/>
<path d="M515.393 85.7477C516.198 86.1796 517.003 86.6354 517.797 87.0913C518.422 91.4098 519.455 95.2485 518.037 99.567C516.583 104.029 514.034 108.132 512.003 112.367C510.765 114.298 510.019 117.033 507.459 117.501C504.033 115.246 504.79 111.383 504.382 107.82C504.165 102.458 503.552 96.3641 507.05 91.8416C509.418 88.9266 510.993 85.1239 515.393 85.7477Z" fill="white"/>
<path d="M848.854 88.2668C852.436 88.0389 857.509 89.4065 860.466 91.4218C863.315 93.4731 862.894 98.5833 862.509 101.606C858.771 110.207 850.729 117.885 840.62 116.469C837.795 115.066 835.8 111.623 833.648 109.356C833.708 106.8 833.768 104.245 833.84 101.702C835.259 99.483 836.629 97.2517 837.915 94.9605C841.161 92.4774 844.863 89.3585 848.854 88.2668Z" fill="#33373A"/>
<path d="M854.359 95.0565C853.818 96.9519 853.253 98.8472 852.688 100.743C849.154 104.521 846.077 108.288 841.053 110.171C840.956 107.808 840.92 105.445 840.932 103.082C845.548 99.567 847.808 94.5287 854.359 95.0565Z" fill="white"/>
<path d="M684.113 102.482C690.435 102.626 697.035 102.086 703.273 103.07C715.955 105.205 728.613 107.52 741.294 109.632C748.495 110.747 755.202 113.434 762.318 114.886C769.651 116.337 775.961 120.296 783.162 122.983C791.047 125.994 797.61 130.912 805.135 134.619C813.405 138.71 819.548 144.6 827.193 149.734C830.198 151.725 832.602 153.812 834.453 156.955C828.106 162.233 821.11 166.24 813.886 170.175C802.875 177.192 791.035 182.399 778.738 186.729C760.515 193.951 740.958 198.113 721.557 200.56C704.403 201.364 685.663 203.127 668.498 201.04C661.598 200.476 654.999 201.4 648.171 199.769C636.367 197.213 625.464 196.986 614.117 193.051C607.951 190.868 601.484 189.98 595.317 187.821C590.881 186.273 586.374 184.942 581.998 183.25C570.879 178.848 558.811 174.781 548.233 169.119C539.049 164.357 529.637 159.846 520.802 154.436C519.335 153.117 516.294 152.217 517.905 149.818C521.956 146.123 526.824 143.4 530.959 139.765C539.842 132.172 551.322 129.557 561.672 124.65C565.963 122.575 570.386 121.088 574.99 119.924C583.465 117.837 591.446 114.502 600.005 112.727C607.662 111.191 614.971 108.552 622.7 107.328C631.583 105.925 640.19 103.682 649.229 103.37C660.937 101.762 672.332 102.566 684.113 102.482Z" fill="#FC2223"/>
<path d="M916.121 122.167C919.51 124.542 922.768 127.289 922.816 131.776C923.093 137.138 923.417 143.568 920.556 148.33C914.39 158.275 905.891 166.408 893.799 168.015C882.079 169.227 869.241 167.428 859.023 161.238C854.6 158.899 851.727 156.415 848.902 152.265C863.411 138.11 878.989 123.403 899.232 118.245C905.483 116.541 910.868 118.964 916.121 122.167Z" fill="#F8CA09"/>
<path d="M460.964 121.999C467.346 120.38 474.042 123.607 479.932 125.91C489.729 130.24 494.224 139.873 501.341 147.598C495.775 150.645 490.306 154.328 484.344 156.535C476.362 159.186 467.767 161.694 459.365 162.317C452.129 163.145 444.556 160.17 439.05 155.588C434.951 151.893 434.23 146.663 434.627 141.433C434.855 135.075 438.786 129.365 444.532 126.69C449.676 124.314 455.458 123.163 460.964 121.999Z" fill="#F8CA09"/>
<path d="M894.904 126.714C899.304 128.261 902.273 132.34 903.956 136.514C905.146 139.585 906.48 142.968 905.218 146.231C903.92 150.633 899.821 153.872 896.263 156.487C891.443 159.906 885.276 159.738 879.638 160.17C876.285 157.591 873.556 154.604 870.948 151.281C871.368 147.706 871.44 143.52 873.027 140.245C875.696 136.37 880.612 133.695 884.699 131.536C888.029 129.893 891.358 127.805 894.904 126.714Z" fill="#33373A"/>
<path d="M456.913 129.893C464.498 128.789 471.614 128.885 478.297 133.024C480.665 136.058 482.252 139.705 484.38 142.92C482.589 146.603 480.293 151.281 476.771 153.572C471.602 155.576 466.024 157.303 460.639 155.072C454.509 153.213 450.734 148.606 446.719 143.964C446.743 140.677 446.755 137.402 446.779 134.115C450.037 132.124 452.946 130.097 456.913 129.893Z" fill="#33373A"/>
<path d="M893.414 134.847C894.868 136.046 896.263 137.342 897.657 138.614C897.2 140.425 897.164 142.632 896.215 144.252C893.786 147.071 890.541 149.278 887.752 151.749C884.35 151.833 881.009 151.797 877.619 151.425C878.508 147.922 879.206 144.695 881.898 142.068C885.096 138.961 889.507 136.922 893.414 134.847Z" fill="white"/>
<path d="M458.812 136.346C464.834 134.799 470.015 136.082 475.376 138.865C475.436 140.173 475.496 141.481 475.544 142.788C472.251 145.067 469.414 147.551 465.303 148.246C462.394 148.666 459.593 147.622 456.841 146.831C455.41 144.516 453.92 142.224 452.465 139.921C454.473 138.638 456.564 137.138 458.812 136.346Z" fill="white"/>
<path d="M509.791 157.903C513.469 156.667 515.513 158.515 518.073 160.818C523.002 165.796 529.925 166.828 534.914 171.746C535.815 171.926 536.717 172.106 537.618 172.286C544.326 176.185 551.454 179.567 558.654 182.446C563.282 185.253 568.451 187.077 573.331 189.44C582.479 193.831 591.807 195.198 601.411 198.149C609.657 200.836 618.216 202.06 626.486 204.687C637.485 207.974 648.315 208.142 659.579 209.641C667.584 210.997 675.686 210.169 683.752 211.285C695.736 211.788 707.937 212.256 719.898 211.297C730.259 208.741 740.849 206.834 751.415 205.323C759.529 201.88 767.92 198.929 776.731 197.957C781.839 194.85 787.068 192.235 792.91 190.82C793.403 190.22 793.896 189.632 794.389 189.032C804.69 187.881 812.36 181.283 821.387 176.604C827.409 173.558 832.037 168.975 838.468 166.696C842.543 171.614 846.702 176.568 850.212 181.919C853.386 186.669 854.6 192.883 856.463 198.377C858.158 203.487 857.22 208.501 859.792 213.348C860.778 229.698 863.086 246.205 862.605 262.591C862.75 274.191 862.834 285.779 862.605 297.391C862.497 304.456 860.514 312.602 861.584 319.667C862.413 322.39 865.466 324.574 867.329 326.673C874.482 328.16 881.646 328.064 888.906 328.016C892.416 341.872 889.279 358.018 887.38 371.945C886.538 379.431 883.16 385.705 880.84 392.746C874.794 409.06 868.471 424.211 857.196 437.731C851.138 444.076 845.164 450.53 839.43 457.152C835.715 461.866 831.256 465.753 827.049 470C820.954 476.261 813.417 481.192 806.59 486.746C800.567 491.736 793.559 494.543 786.876 498.442C776.707 504.524 764.674 507.439 754.048 512.561C750.502 514.156 748.903 518.439 746.944 521.606C749.324 529.955 755.514 533.698 761.08 539.72C765.311 544.182 770.408 548.249 774.026 553.179C778.041 558.553 780.072 565.427 779.676 572.108C779.315 578.646 775.3 584.728 771.61 589.922C766.429 597.012 759.674 601.738 752.882 607.112C749.108 610.003 744.96 611.899 740.861 614.262C732.988 617.861 724.069 620.752 715.342 620.8C709.259 620.884 703.381 621.339 697.407 619.804C701.735 613.074 705.293 605.289 706.182 597.3C705.846 592.489 705.088 587.019 701.47 583.48C696.554 578.454 691.012 574.256 684.954 570.693C691.024 564.827 698.501 562.38 705.485 557.929C702.047 549.844 699.15 539.672 691.914 534.249C686.769 534.177 681.72 534.297 676.66 535.245C670.349 536.301 663.774 534.777 657.559 535.881C654.242 537.74 652.222 542.275 650.816 545.693C647.883 554.295 644.745 562.824 641.271 571.221C642.726 572.888 644.18 574.544 645.635 576.199C659.975 571.76 675.566 572.804 688.139 581.429C692.599 584.92 697.672 589.802 696.83 596.016C696.362 602.938 691.806 609.727 686.925 614.442C680.002 620.224 673.535 625.67 664.687 628.189C656.682 630.984 649.133 630.3 640.803 630.612C632.304 630.924 624.226 629.053 616.125 626.702C610.823 625.142 606.28 621.363 601.219 618.76C597.685 615.174 594.127 611.443 591.074 607.424C588.177 603.67 586.109 599.147 583.717 594.961C583.681 592.465 583.669 589.97 583.633 587.475C583.393 589.298 583.152 591.134 582.912 592.969C581.986 587.223 581.265 581.573 581.265 575.743C584.979 573.752 588.922 572.432 592.853 570.981C598.286 568.953 602.385 564.647 606.436 560.7C606.58 559.777 606.712 558.853 606.845 557.929C610.655 553.107 612.987 547.637 615.968 542.335C616.04 541.615 616.1 540.883 616.173 540.163C613.396 538.304 610.691 535.677 607.181 535.593C601.147 535.209 595.173 534.669 589.307 533.074C579.895 530.639 569.641 529.319 560.626 525.852C554.868 523.741 549.026 521.822 543.196 519.89C532.474 516.591 522.04 511.985 511.81 507.403C509.851 506.527 507.88 505.687 505.908 504.848C499.165 500.757 492.037 497.686 485.798 492.768C474.883 485.246 463.764 478.649 454.509 468.968C444.447 459.287 438.089 447.699 431.249 435.715C425.323 420.78 420.947 404.946 418.243 389.099C417.558 378.975 416.68 368.718 415.803 358.57C415.322 352.188 416.103 345.794 415.73 339.388C415.478 335.694 416.163 332.191 417.077 328.628C418.279 323.962 417.942 319.439 417.774 314.689C426.344 314.377 434.999 315.085 443.534 314.269C447.272 314.437 451.011 314.569 454.749 314.869C456.083 315.589 457.598 317.172 459.149 317.208C460.278 316.56 461.336 315.781 462.406 315.037C461.673 306.196 463.392 297.727 463.788 288.946C465.387 271.78 469.234 255.645 472.804 238.851C475.701 225.848 480.1 213.252 485.497 201.076C489.332 192.715 492.818 184.318 497.843 176.556C501.797 170.475 504.802 163.169 509.791 157.903Z" fill="#059FEF"/>
<path d="M491.508 163.493L492.265 163.613C492.914 163.721 493.575 163.829 494.224 163.937C491.351 170.223 487.685 176.053 484.596 182.218C479.487 193.303 474.391 204.327 470.027 215.723C467.479 222.429 466.517 229.398 464.498 236.236C461.973 244.897 460.218 253.798 458.656 262.675C455.614 276.542 453.968 290.865 453.715 305.056C447.188 305.188 440.565 304.912 434.074 305.572C421.5 307.383 408.338 306.292 395.62 306.484C383.227 306.868 370.738 304.996 358.609 302.621C358.969 298.327 359.558 294.128 360.316 289.905C360.881 289.054 361.458 288.202 362.023 287.35C366.482 275.954 371.675 264.822 377.457 254.05C380.919 248.388 384.753 242.942 388.348 237.375C395.368 227.011 406.186 220.089 413.879 210.013C421.5 201.688 430.816 194.718 439.759 187.881C445.686 183.274 452.321 179.663 458.559 175.429C462.634 172.646 466.83 170.295 471.722 169.263C478.49 167.751 484.993 165.82 491.508 163.493Z" fill="#FC2223"/>
<path d="M844.406 162.186C845.163 162.329 845.909 162.497 846.654 162.677C853.422 167.788 861.079 170.979 868.892 174.121C873.015 175.789 877.463 175.849 881.61 177.264C884.386 179.064 886.598 181.799 889.183 183.898C893.57 187.545 898.21 190.808 902.285 194.838C909.089 201.532 916.361 208.31 922.023 215.915C925.172 220.09 927.684 224.6 930.641 228.931C938.202 239.979 943.924 252.898 949.79 264.966C956.209 277.91 961.366 291.513 965.838 305.248C967.064 309.759 968.602 313.394 965.068 317.28C955.235 317.196 945.21 316.836 935.438 318.024C930.197 318.492 924.98 318.216 919.751 318.924C912.647 319.895 905.386 319.463 898.078 319.511C889.291 319.391 880.72 319.955 872.029 318.288C871.44 307.552 874.217 297.319 872.955 286.643C871.248 271.888 873.352 256.845 871.284 242.21C870.695 235.648 871.549 229.602 870.238 223.101C868.327 213.456 866.993 203.847 863.916 194.466C860.622 182.83 853.987 172.118 844.875 164.117C844.707 163.481 844.55 162.833 844.406 162.186Z" fill="#FC2223"/>
<path d="M635.345 234.724C636.139 235.348 636.944 235.96 637.737 236.584C640.55 237.028 643.615 237.256 646.272 238.323C648.219 239.499 649.89 241.166 651.633 242.618C651.092 245.065 650.503 247.464 649.674 249.815C645.947 248.34 642.365 246.684 639.084 244.345C632.52 243.937 625.777 243.265 619.214 243.877C614.718 244.981 610.583 246.588 605.847 246.696C605.246 247.248 604.645 247.8 604.044 248.352C600.63 249.959 597.18 251.507 593.646 252.814C592.504 251.627 591.35 250.427 590.196 249.239C593.586 245.893 597.276 242.426 601.496 240.135C605.246 238.227 609.669 237.352 613.66 235.972C620.716 232.937 627.929 233.189 635.345 234.724Z" fill="#33373A"/>
<path d="M751.488 233.717C759.842 235.3 767.824 237.076 773.004 244.441C771.454 245.533 769.903 246.624 768.352 247.716C766.273 246.696 764.181 245.653 762.066 244.693C756.332 241.874 749.204 241.514 742.929 241.874C734.022 242.774 724.165 251.734 714.717 249.959L714.885 246.744C718.034 241.382 723.372 239.199 729.117 237.651C729.682 237.04 730.247 236.428 730.812 235.816C738.061 234.832 744.227 232.301 751.488 233.717Z" fill="#33373A"/>
<path d="M673.883 267.161C679.833 265.77 685.351 267.725 690.399 270.772C694.402 273.303 696.373 277.646 698.85 281.508C700.352 284.135 702.564 287.122 702.864 290.193C705.1 306.46 693.08 323.122 677.946 328.484C672.104 331.159 666.575 330.188 660.348 330.044C658.521 329.168 656.682 328.316 654.831 327.5C649.71 324.897 644.421 322.486 641.007 317.64C636.163 310.43 633.747 301.194 636.175 292.7C639.877 284.171 646.236 278.137 653.653 272.787C654.626 272.667 655.6 272.559 656.573 272.439C661.947 269.86 667.981 268.685 673.883 267.161Z" fill="#33373A"/>
<path d="M757.81 270.088C757.895 271.792 757.991 273.483 758.087 275.187C756.584 275.234 755.094 275.282 753.591 275.33C752.882 274.131 752.161 272.931 751.452 271.732C753.555 271.144 755.683 270.592 757.81 270.088Z" fill="#33373A"/>
<path d="M607.398 275.702C608.239 275.51 609.08 275.33 609.922 275.162C610.054 276.746 610.174 278.341 610.294 279.937C608.419 279.853 606.532 279.805 604.645 279.781C605.51 278.377 606.388 276.998 607.398 275.702Z" fill="#33373A"/>
<path d="M670.421 276.722C675.241 275.702 681.66 275.594 686.312 277.25C690.207 280.561 692.996 286.451 694.054 291.381C693.969 300.366 689.654 309.483 682.61 315.121C678.078 318.995 671.527 320.711 665.769 321.755C661.322 321.922 656.67 319.547 652.571 318.012C646.921 315.805 644.325 310.31 643.7 304.612C642.413 296.587 648.724 288.262 654.915 283.8C659.458 279.913 664.808 278.413 670.421 276.722Z" fill="#F8CA09"/>
<path d="M730.68 279.805C730.404 281.532 730.007 283.236 729.634 284.939C727.855 284.855 726.088 284.807 724.309 284.759C724.369 283.62 724.441 282.492 724.502 281.352C726.713 280.441 728.192 279.013 730.68 279.805Z" fill="#33373A"/>
<path d="M747.016 283.836L747.413 284.243C750.105 286.595 748.783 287.734 747.905 290.589C746.824 290.097 745.742 289.594 744.66 289.09C745.429 287.326 746.163 285.563 747.016 283.836Z" fill="#33373A"/>
<path d="M601.063 289.306C602.085 290.817 603.082 292.352 604.056 293.9C602.397 294.236 600.75 294.596 599.103 294.968C599.62 292.94 598.743 290.193 601.063 289.306Z" fill="#33373A"/>
<path d="M769.939 291.033C770.035 293.216 770.095 295.4 770.168 297.583C769.362 298.483 768.557 299.382 767.763 300.282C766.91 300.318 766.057 300.366 765.191 300.402C765.215 298.806 765.227 297.199 765.311 295.615C766.79 294.02 768.34 292.497 769.939 291.033Z" fill="#33373A"/>
<path d="M619.082 293.528C619.731 293.12 620.38 292.713 621.029 292.317C620.957 293.768 620.885 295.22 620.8 296.671C619.502 296.647 618.204 296.623 616.894 296.599C617.615 295.568 618.324 294.536 619.082 293.528Z" fill="#33373A"/>
<path d="M794.004 296.455C795.386 296.671 796.769 296.911 798.139 297.175C801.457 299.982 804.45 303.341 807.431 306.508C809.703 306.472 811.975 306.436 814.235 306.4C817.228 304.349 820.293 302.429 823.358 300.486C824.729 300.474 826.087 300.462 827.457 300.438C828.311 300.978 829.152 301.518 830.006 302.057C830.126 303.773 830.222 305.488 830.306 307.192C824.007 311.33 817.865 314.173 810.328 315.301C802.947 327.98 796.589 341.644 787.97 353.52C793.151 360.993 793.559 369.426 791.552 378.039C791.035 378.687 790.506 379.323 789.989 379.959C785.794 387 780.397 394.126 774.639 399.968C774.916 402.787 775.24 405.558 776.118 408.257C778.377 414.903 780.048 421.656 781.96 428.398C781.154 429.789 780.361 431.181 779.556 432.573C778.317 432.537 777.067 432.489 775.817 432.441C770.083 425.579 770.3 417.914 767.475 409.828C766.02 405.522 765.239 401.515 765.071 396.945C769.578 392.014 774.699 387.588 779.003 382.478C782.801 377.176 786.251 370.014 785.53 363.344C785.373 359.949 781.647 358.09 778.93 356.855C777.392 356.327 774.723 354.983 773.257 356.147C769.651 358.714 766.369 362.301 764.097 366.091C761.741 370.014 761.164 374.081 760.166 378.471C758.652 378.531 757.137 378.579 755.623 378.639C753.219 375.148 751.476 371.274 749.144 367.747C744.672 363.308 739.551 359.997 733.204 358.99C731.413 360.441 729.61 361.869 727.807 363.284C731.077 371.597 736.39 378.987 743.614 384.313C743.614 385.657 743.602 387.012 743.59 388.368C736.053 388.452 730.031 383.893 722.578 384.121C716.664 383.725 711.231 385.225 705.713 387.132C704.307 388.392 702.901 389.639 701.47 390.863C701.506 392.086 701.542 393.31 701.578 394.534C705.533 398.168 709.007 401.695 714.488 402.859C719.164 403.626 723.888 403.842 728.528 404.874C728.024 407.189 727.495 409.48 726.894 411.772C721.472 412.947 715.967 413.919 710.654 415.466C705.377 416.798 701.674 422.688 697.527 426.107C700.196 427.81 702.348 429.873 705.677 429.945C709.933 430.137 715.306 430.545 719.116 428.386C723.864 425.843 728.108 422.604 732.098 418.993C734.707 418.981 737.315 418.993 739.924 419.029C739.431 429.969 743.049 440.226 742.628 451.142C741.474 451.79 740.333 452.426 739.179 453.073C733.337 449.643 733.192 443.801 731.185 437.959C726.305 438.247 721.544 439.182 716.76 440.142C712.036 441.114 707.444 440.766 702.684 440.466C697.239 437.431 693.248 434.312 690.147 428.77C683.139 428.746 676.516 430.305 669.76 431.889C661.262 432.992 652.631 431.841 644.096 433.184C644.385 434.264 644.649 435.356 644.878 436.447C646.308 441.138 642.882 446.608 639.228 449.379C634.949 452.222 628.938 453.397 623.89 452.594C619.815 451.274 616.076 449.271 611.833 448.383C609.946 454.645 607.554 460.355 604.332 466.041C602.469 466.065 600.594 466.101 598.731 466.137C598.322 462.238 597.637 458.747 599.2 454.981C601.88 448.323 604.993 441.797 608.191 435.368C612.518 436.939 615.884 439.314 619.394 442.241C622.688 445.228 628.241 444.172 632.4 444.28C633.891 442.757 635.393 441.234 636.908 439.734C636.355 437.143 636.74 434.024 634.263 432.393C629.936 429.202 625.056 426.802 620.608 423.792C621.269 422.532 621.93 421.284 622.592 420.037C627.135 420.325 631.619 421.56 636.163 421.56C641.668 420.421 645.551 416.81 648.063 411.916C642.221 406.601 635.081 406.35 627.664 407.681C623.854 408.629 621.197 411.772 618.432 414.339C617.639 414.411 616.834 414.483 616.04 414.555C614.91 413.175 613.768 411.796 612.639 410.416C612.627 409.384 612.614 408.353 612.602 407.321C616.762 402.943 622.688 398.852 625.296 393.346C626.546 388.716 625.813 383.413 625.945 378.627C623.733 376.756 622.495 374.429 619.226 374.656C615.331 374.213 611.653 377.919 609.225 380.57C603.539 387.66 599.993 397.005 596.375 405.222C594.295 406.757 591.086 405.006 588.838 404.574C588.321 398.18 587.131 390.299 582.707 385.297C579.27 381.734 575.243 381.65 570.591 381.782C567.441 385.009 564.268 388.212 561.191 391.523C560.518 394.893 559.231 398.888 559.832 402.331C560.71 406.338 562.922 410.308 564.665 414.027C568.187 417.122 571.817 419.689 576.156 421.524C578.019 422.592 581.325 423.516 581.794 425.831C581.205 427.57 579.666 429.022 578.344 430.269C573.884 434.228 569.401 438.139 564.725 441.833C562.681 441.833 560.638 441.845 558.594 441.845C558.618 440.562 558.654 439.278 558.678 437.995C561.647 435.092 564.52 432.105 567.574 429.298C564.556 424.283 559.592 421.248 556.623 416.234C554.171 412.491 553.642 408.425 552.909 404.106C552.38 400.376 551.863 396.921 553.233 393.286C553.834 390.767 555.89 387.804 553.954 385.465C550.925 380.582 546.922 376.336 543.641 371.609C538.051 364.04 536.056 355.895 531.825 347.522C529.961 343.863 528.711 340.312 527.99 336.27C527.389 335.598 526.788 334.926 526.175 334.254C520.694 333.93 515.537 332.371 511.979 327.992C511.678 326.409 511.63 324.754 511.51 323.146C517.592 323.578 522.881 325.197 528.831 323.098C534.361 321.395 538.256 315.613 541.91 311.438C543.521 308.859 547.331 309.483 549.843 310.083C551.033 311.558 551.334 313.645 551.887 315.445C546.249 320.543 542.583 326.517 535.599 330.08C535.527 335.778 537.931 340.324 540.239 345.362C543.028 350.953 545.408 356.687 548.701 362.037C548.822 363.008 548.942 363.98 549.05 364.952C553.702 370.074 556.947 376.156 561.84 381.098C566.047 376.672 568.583 375.964 574.714 375.832C581.758 374.896 586.217 380.235 591.014 384.397C592.432 384.469 593.838 384.529 595.245 384.589C599.2 377.631 604.26 370.938 612.074 368.131C616.269 367.147 621.197 367.075 625.14 369.03C629.107 370.902 632.689 372.917 633.759 377.511C635.249 384.265 634.696 391.667 632.809 398.312C642.137 398.54 650.695 401.467 655.444 409.96C657.655 414.999 653.196 420.253 651.597 425.039C655.203 424.439 658.833 424.079 662.476 423.911C671.635 423.42 680.663 421.908 689.293 418.729C694.126 416.054 697.612 410.272 700.484 405.69C697.9 403.878 694.426 401.923 693.068 398.948C691.409 395.349 692.226 390.611 693.44 386.976C696.193 381.35 703.045 377.907 708.67 375.808C713.166 373.889 718.587 374.644 723.408 374.836C721.568 368.263 718.696 360.561 723.131 354.371C726.293 350.917 732.724 350.269 737.099 351.121C743.855 353.064 749.793 359.29 755.238 363.572C759.277 359.338 761.861 352.956 766.73 349.777C770.889 348.853 775.541 349.465 779.784 349.561C784.821 344.223 787.934 338.057 791.54 331.747C795.23 325.161 798.428 318.432 801.048 311.354C798.86 307.935 796.444 304.661 794.305 301.206C794.184 299.622 794.076 298.039 794.004 296.455Z" fill="#33373A"/>
<path d="M730.235 300.102C730.223 301.397 730.223 302.693 730.211 303.988C727.951 303.892 725.692 303.809 723.42 303.665C725.223 300.834 727.17 300.546 730.235 300.102Z" fill="#33373A"/>
<path d="M585.412 304.612C586.35 304.253 587.287 303.929 588.249 303.629C588.513 306.004 588.261 308.103 587.648 310.394C586.638 309.855 585.616 309.327 584.607 308.799C584.847 307.407 585.051 305.98 585.412 304.612Z" fill="#33373A"/>
<path d="M742.869 308.559C743.963 309.411 745.021 310.31 746.09 311.198C745.261 312.002 744.432 312.806 743.59 313.621C742.292 313.525 740.994 313.417 739.695 313.321C740.741 311.726 741.763 310.107 742.869 308.559Z" fill="#33373A"/>
<path d="M608.828 311.042C608.792 312.242 608.756 313.441 608.72 314.641C607.169 314.653 605.619 314.665 604.056 314.665C604.176 313.537 604.32 312.41 604.465 311.282C605.919 311.174 607.374 311.114 608.828 311.042Z" fill="#33373A"/>
<path d="M661.694 543.018C671.371 542.323 681.18 542.563 690.88 542.503C692.058 546.017 693.14 549.556 694.354 553.047C686.913 556.826 680.29 560.916 675.47 567.934C672.621 567.49 669.844 566.878 667.055 566.11C662.968 564.983 658.256 565.475 654.025 565.547C655.576 557.797 658.785 550.336 661.694 543.018Z" fill="white"/>
<path d="M685.122 631.116L685.278 631.104C691.746 631.296 698.104 631.74 704.523 632.556C715.318 633.587 726.329 629.881 736.33 633.108C734.599 633.995 733.445 635.231 731.401 635.075C723.648 634.667 715.955 635.315 708.202 635.411C697.948 635.207 687.719 633.467 677.525 632.808C680.014 632.088 682.562 631.488 685.122 631.116Z" fill="#33373A"/>
<path d="M776.634 630.48C778.329 630.444 780.024 630.504 781.707 630.66C788.066 631.92 794.184 632.999 800.7 632.46C812.131 631.356 822.481 635.495 833.972 633.335C836.677 632.592 838.252 633.443 840.668 634.499C839.153 635.387 837.41 636.934 835.595 636.994C828.335 637.366 820.954 636.478 813.778 635.423C805.556 634.763 797.214 635.495 788.992 634.679C783.522 633.791 778.558 632.688 773.076 634.427C768.4 636.01 763.652 636.19 758.784 636.538C755.803 636.07 752.906 636.202 750.081 637.342C750.442 635.854 750.754 634.355 751.067 632.844C757.522 633.107 763.989 632.951 770.432 632.628C772.475 631.8 774.531 631.092 776.634 630.48Z" fill="#33373A"/>
<path d="M474.427 636.334C483.238 636.67 492.097 636.406 500.896 636.91C500.776 637.798 500.655 638.674 500.523 639.561C492.085 639.393 482.625 640.761 474.475 638.374C474.439 637.702 474.427 637.018 474.427 636.334Z" fill="#33373A"/>
<path d="M534.758 639.069C542.463 638.757 550.228 638.757 557.921 639.105C563.222 639.393 568.223 641.085 573.512 641.133C581.217 641.253 588.898 640.929 596.591 641.349C597.312 641.96 598.034 642.572 598.743 643.184C596.663 643.832 594.848 644.647 592.624 644.18C587.816 643.304 583.08 643.52 578.26 644.072C570.555 643.88 563.186 641.864 555.457 642.2C547.644 642.392 538.929 640.905 531.596 643.46C531.764 642.38 531.945 641.289 532.149 640.209C533.015 639.801 533.88 639.429 534.758 639.069Z" fill="#33373A"/>
<path d="M696.109 641.552C706.134 642.38 716.123 641.648 726.124 642.896C735.188 644.084 744.263 643.232 753.303 644.18C753.435 645.139 753.579 646.099 753.723 647.071C745.285 646.771 737.027 647.107 728.649 645.883C717.746 644.12 707.108 645.007 696.121 644.467C689.197 644.132 682.598 646.135 675.698 645.859C667.14 645.667 658.593 645.631 650.034 645.631C649.938 644.791 649.842 643.94 649.734 643.1C659.422 641.636 669.52 642.872 679.304 642.656C684.99 642.932 690.483 641.828 696.109 641.552Z" fill="#33373A"/>
<path d="M502.182 648.138C508.781 647.131 512.832 652.073 519.407 651.701C530.707 651.449 541.97 651.917 553.257 652.301C558.714 653.153 563.018 655.816 568.824 654.94C576.745 653.92 584.414 653.92 592.348 654.808C597.084 654.844 601.88 654.256 606.604 653.944C618.889 652.001 631.751 653.572 644.192 652.997C654.698 653.273 665.096 654.064 675.734 653.105C682.153 652.553 688.404 653.392 694.919 653.176C700.629 652.997 706.134 652.433 711.808 653.608C721.4 655.432 730.872 655 740.345 652.721C745.706 653.117 751.163 653.716 756.536 653.404C761.573 653.117 765.515 650.537 770.624 650.837C775.06 651.041 779.447 650.957 783.883 650.789C789.28 650.537 794.617 652.229 800.074 652.673C800.026 653.656 799.978 654.628 799.942 655.6C791.816 656.02 784.195 653.584 776.094 654.628C769.843 655.408 763.628 654.772 757.426 656.008C751.548 657.075 745.898 656.379 740.02 656.211C734.851 655.996 730.127 657.951 724.982 657.807C716.34 658.035 708.466 654.64 699.739 655.42C690.507 656.067 681.54 654.784 672.38 656.367C664.206 656.919 655.804 657.063 647.69 655.78C643.519 655.204 639.144 655.456 634.937 655.648C622.111 655.48 609.165 655.684 596.435 657.363C591.615 657.855 586.854 656.751 581.926 656.655C573.8 656.223 567.057 658.323 559.424 656.355C552.319 654.304 544.759 655.696 537.402 654.4C528.399 652.997 521.162 656.151 512.856 653.105C509.37 651.821 505.788 651.041 502.182 650.226C502.158 649.53 502.158 648.834 502.182 648.138Z" fill="#33373A"/>
</g>
<defs>
<clipPath id="clip0_2_42">
<rect width="1330" height="730" fill="white"/>
</clipPath>
</defs>
</svg>
