<svg width="1330" height="730" viewBox="0 0 1330 730" fill="none" xmlns="http://www.w3.org/2000/svg">
<g clip-path="url(#clip0_2_733)">
<path d="M0 0H1330V730H0V0Z" fill="#FEFEFE"/>
<path d="M706.707 27.0269C708.92 26.7736 711.307 28.3736 713.4 29.0269C708.88 31.7336 704.573 32.7203 700.787 36.2936C696.187 40.5869 693.253 46.8403 691.68 52.8536C690.547 59.4803 692.187 66.0803 693.027 72.5869C693.933 72.4936 694.827 72.4136 695.733 72.3203C698.547 67.3336 701.533 62.4936 705.107 58.0003C710.853 51.0803 715.16 43.5736 721.587 37.1069C725.147 33.6136 729.573 30.7603 733.6 27.8136C734.707 29.0269 735.787 30.2536 736.84 31.4936C733.013 34.1336 728.933 36.6403 725.413 39.6669C719.973 44.1869 716.507 51.2003 712 56.8536C709.853 59.5069 708.76 61.6269 708.053 65.0003C713.187 62.4403 717.107 58.4669 722.627 56.6003C730.347 53.8136 736.493 49.5869 745.027 50.7869C747.6 50.9336 749.413 53.2936 751.267 54.8536C747.24 55.3069 743.04 54.5736 739.093 55.4003C732.533 57.2403 726.32 59.0403 720.56 62.8269C714.56 66.3603 709.987 71.1736 705.2 76.1336C711.68 79.3736 718.28 79.5069 725.16 81.1336C738.987 84.8403 752.187 87.8803 765.24 94.1736C781.053 101.747 796.627 109.44 811.507 118.787C816.787 122.094 821.173 126.787 826.107 130.827C838.573 140.747 849.427 153.32 858.853 166.107C865.653 174 870.173 183.107 875.84 191.76C879.48 197.52 881.947 203.574 884.72 209.68C889.733 219.587 893.72 229.987 898.373 240.067C907.427 235.387 917.64 229.96 928.013 228.28C942.667 227.44 959.2 228.414 972.573 235.014C972.613 236.534 972.64 238.054 972.667 239.587C965.693 236.987 959.827 233.614 952.12 233.294C944.08 233.134 935.973 232.947 927.92 233.187C922.573 233.174 917.173 236.574 912.187 238.44C908.96 239.627 906.653 241.854 904.333 244.307C908.893 244.56 913.373 244.267 917.88 245.107C927.32 246.534 937.24 248 945.787 252.32C950.24 254.214 954.067 255.814 956.653 260.24C949.96 261.654 943.893 256.187 937.533 254.12C926.133 250.547 913.68 249.894 901.853 251.294C901.853 252.587 901.84 253.88 901.827 255.174C908.267 259.747 913.907 265.32 920.36 269.827C927.213 274 933.293 279.294 940.653 281.84C946.867 284.12 953.147 286.467 959.08 289.44C956.627 290.347 954.88 291.587 952.227 290.56C946.987 289.04 941.773 287.28 936.653 285.44C924.96 280.894 916.107 271.334 904.68 265.08C904.16 276.347 908.013 286.934 907.64 298.214C909.693 312.494 909.2 326.76 906.707 340.947C903.867 352.947 901.533 365.134 897.307 377.094C891.947 390.427 886.32 403.734 879.56 416.427C874.853 425.44 870.267 434.094 863.987 442.134C859.773 447.427 856.667 453.374 852.213 458.387C849.493 461.467 846.987 464.667 844.627 468.014C838.987 476.267 831 482.974 824.093 490.294C817.96 497 810.413 501.347 803.373 506.907C799.547 509.854 795.707 512.734 791.467 515.067C782.24 520.2 772.467 525.44 762.253 528.227C751.973 531.56 741.293 533.134 731.053 536.587C732.027 543.854 733.88 550.84 734.04 558.214C734.347 567.894 737.2 576.854 740.48 585.854C744.813 596.307 756.773 604.467 759.173 615.574C760.733 624.867 760.093 634.2 757.453 643.24C764.2 645.374 770.493 643.907 777.373 644.854C783.08 645.707 788.76 645.214 794.48 645.614C796.333 645.547 797.947 646.4 799.28 648.16C797.467 649.44 795.533 650 793.493 649.84C781.4 649.707 769.32 649.6 757.24 649.254C755.44 649.307 753.213 649.014 751.573 649.854C742.667 656.36 733.893 665.574 722.893 668.187C718.213 669.294 713.96 671.027 709.6 672.987C688.667 679.454 667.307 683.667 645.373 680.187C635.32 678.214 625.467 676.694 615.907 672.814C609.013 669.627 602.933 664.694 596.067 661.547C591.12 661.014 585.72 662.427 580.733 662.707C564.44 663.227 548.32 662.56 532.04 663.267C521.64 664.614 511.133 664.027 500.533 664C500.507 662.32 500.493 660.64 500.48 658.96C505.68 658.867 510.853 658.92 516.04 659.12C530.28 659.534 544.493 658.68 558.707 658.6C569.013 658.934 579.213 657.68 589.547 657.16C590.253 656.187 590.96 655.2 591.667 654.227C590.72 653.347 589.787 652.467 588.853 651.6C577.973 654.4 567.067 653.974 555.947 653.587C548.68 653.107 541.16 649.947 534.227 647.8C528.32 645.654 522.8 648.72 516.12 648.374C506.44 648.147 496.867 648.934 487.413 651.04C487.36 649.547 487.307 648.054 487.267 646.56C493.707 644.96 500.133 646.014 506.707 644.907C512.373 644.027 518.013 644.334 523.707 643.947C521.16 639.894 517.44 637.32 513.627 634.587C507.72 636.08 502.213 637.774 496.053 636.8C492 636.24 488.067 636.747 484.04 637.2C478.613 637.8 473.427 636.307 468.04 636.627C460.16 637.307 452.293 638.587 444.373 638.76C444.533 637.52 444.693 636.294 444.84 635.054C454.733 633.974 464.76 632.987 474.693 632.654C482.373 633.854 489.693 632.08 497.36 632.6C501.693 632.694 506.293 631.414 510.56 630.574C508.147 625.52 505.307 621.44 504.84 615.694C504.547 610.507 504.24 605.574 506.173 600.654C511.053 588.44 520.613 580.187 531.8 573.867C538.253 570.92 545.08 568.707 551.8 566.44C563.787 563.347 575.76 559.227 588.12 558.747C591.56 558.467 595 557.92 598.413 557.374C597.173 548.467 594.867 539.76 593.813 530.8C583.08 527.534 572.08 524.72 561.76 520.307C557.107 518.334 552.88 515.667 548.04 514.067C535.173 509.734 524.067 502.467 513.32 494.32C500.507 486.267 489.08 475.894 478.76 464.867C468.2 452.387 457.08 439.254 449.72 424.587C446.96 419.694 443.867 415.347 442.12 409.947C439.347 401.2 436.12 392.667 434.133 383.694C430.547 369.974 427.36 356.454 426.12 342.267C425.267 325.76 427.027 309.84 427.6 293.494C429.76 271.227 436.88 249.08 444.853 228.24C449.107 216.96 454.853 206.52 460.28 195.8C466.4 183.92 475.24 174.467 482.973 163.84C479.413 163.787 476.507 164.92 473.307 166.334C463.067 170.08 453.8 176.68 445.84 184.054C440.76 188.654 438.067 194.747 432.533 198.774C432.747 196.294 432.52 193.96 433.747 191.76C442.933 177.614 456.36 168.68 471.587 162.014C475.827 160.107 479.987 159.214 483.053 155.387C480.707 155.16 478.413 154.907 476.053 154.987C464.307 156.12 453.333 157.867 442.893 163.747C437.773 166.787 432.307 169.027 427.76 172.654C425.76 174.16 423.68 175.907 421.373 176.907C419.88 176.187 418.413 175.374 417 174.467C423.92 168.534 432.467 164.494 440.187 159.667C451.893 152.174 465.093 150.507 478.733 150.467C484.24 150.494 489.4 152.24 494.893 152.507C493.64 146.08 487.853 141.56 482.52 138.387C476.773 135.28 470.453 131.374 463.893 130.627C456.36 129.36 448.88 129.574 441.267 129.907C433.8 130.707 427.133 133.294 420.387 136.44C420.4 134.96 420.413 133.467 420.427 131.987C427.44 128.96 435.08 125.64 442.707 124.787C449.4 124.174 458.027 124.614 464.627 125.854C472.267 127.974 479.813 131.507 486.507 135.734C491.507 138.814 494.667 143.227 498.453 147.534C504.133 143.827 508.587 138.947 513.867 134.747C523.307 128.054 530.613 119.867 541.16 114.187C549.16 110.04 555.96 104.454 564.333 101.027C573.973 96.8803 583.813 93.4136 593.107 88.4536C602.28 83.7336 611.853 82.5869 621.693 80.0269C632.133 78.0803 642.76 76.0269 653.333 75.0003C664.8 74.8536 676.213 74.9069 687.68 75.1469C688.093 66.4536 686.013 57.4136 687.573 48.9069C690.733 39.6803 697.76 31.1336 706.707 27.0269Z" fill="#0A1018"/>
<path d="M665.56 85.0003C663.333 89.3603 660.64 93.4003 658.107 97.5603C652.827 106.094 648.12 114.88 642.133 122.974C634.573 133.414 628.16 144.574 623.28 156.52C633.813 148.654 635.747 138.04 642.733 127.6C650.573 115.494 658.04 103.027 666.573 91.387C669.027 87.787 672.467 86.6136 676.52 85.5336C674.573 92.4536 668.773 96.4136 666.293 103.08C663.253 111.174 661.413 119.787 659.413 128.187C657.613 135.414 657.547 142.72 657.88 150.107C658.2 155.614 658.907 160.934 661.827 165.734C662.84 157.28 660.053 149.32 660.787 140.894C661.76 130.067 664.187 119.307 668.36 109.267C671.653 100.494 675.893 92.4403 684.68 88.1203C685.387 100.934 683.667 113.44 685.627 126.214C686.64 140.68 692.547 152.56 698.133 165.614C708.907 187.4 724.093 206.627 743.64 221.214C751.68 226.654 760.013 231.72 768.733 236.027C786.64 245.187 806.453 254.334 826.493 257.227C840.947 260.04 855.587 260.814 870.28 260.16C877.293 259.547 884.213 258.094 891.2 257.32C893.067 261.494 894.453 265.747 895.053 270.294C896.147 278.48 897.76 286.067 897.987 294.254C898.16 302.787 900.053 310.84 899.013 319.44C897.84 328.827 897.133 338.374 895.187 347.654C892.173 359.68 889.347 371.4 884.36 382.814C876.693 400.894 867.973 418.92 857.12 435.32C849.507 445.574 842.8 456.254 834.213 465.747C829.2 472.027 824.52 478.054 818.08 483.014C806.067 495.12 791.907 504.027 777.307 512.614C772.333 515.334 767.04 517.574 761.547 518.934C747.253 522.187 733.867 527.72 719.213 530.28C719.493 536.12 720.8 541.734 722 547.427C723.627 555.054 724.093 562.747 725.973 570.32C726.84 574.24 728.253 578.174 728.587 582.174C727.053 585.094 723.533 585.534 720.627 586.187C713.027 587.387 705.067 586.84 697.373 586.947C689.373 586.827 680.48 587.374 672.72 585.347C668.253 584.147 664.653 581.374 662.04 577.574C652.507 564 646.173 548.227 637.347 534.2C632.573 526.56 622.387 529.16 614.907 527.36C607.573 525.374 600.013 523.867 593 520.947C585.173 517.8 576.947 516.414 569.227 513.054C556.093 507.294 542.987 501.307 530.28 494.64C521.64 490.107 515.027 483.267 506.933 477.987C498.56 472.774 492 464.387 484.8 457.48C472.653 443.934 460.4 428.734 453.04 412C449 401.6 445.747 390.867 443.133 380.027C440.76 370.614 438.387 361.414 437.72 351.667C436.827 343.96 436.227 336.294 437.173 328.547C438.64 316.4 437.4 304.467 439.213 292.4C441.053 275.76 446.853 259.454 452.147 243.52C457.413 227.467 465.12 212.88 473.253 198.16C477.947 189.307 484.92 181.2 491.253 173.454C494.013 170.24 497.147 166.467 500.96 164.507C505.04 162.654 508.973 163.84 513.267 164.04C530.573 165.574 547.84 161.36 563.133 153.374C572.32 148.827 579.8 142.707 588.44 137.334C594.44 133.587 599.96 129.374 605.64 125.147C612.613 119.907 617.267 113.174 623.827 107.414C626.747 104.827 629.787 102.747 632.253 99.8536C635.413 96.1736 637.707 92.147 641.96 89.5736C644.587 87.827 648.08 88.1203 651.12 87.8536C648.453 94.4936 643.56 98.587 638.773 103.64C631.107 111.627 622.467 118.307 614.907 126.4C609.853 131.8 605.44 137.187 599.547 141.72C596.667 143.934 594.053 146.294 591.747 149.107C599.787 147.574 604.373 141.574 610.08 136.28C619.48 127.387 627.987 117.667 637.773 109.267C644.76 103.174 650.267 95.987 656.027 88.8136C658.587 85.7203 661.907 85.7203 665.56 85.0003Z" fill="#BF69A6"/>
<path d="M694.053 87.7337C695.32 92.0937 694.987 97.0403 695.707 101.56C697.227 110.787 700.4 119.2 704.013 127.774C709.187 138.614 715.827 148.414 722.787 158.174C729.187 168.014 736.933 176.787 745.267 185.027C751.827 191.507 759.253 196.387 766.693 202.227C781.693 214.054 798.573 223.267 816.52 229.774C832.653 236.414 849.547 241.747 866.733 244.854C873.213 246.214 879.573 243.694 885.907 244.6C889.747 246.24 889.64 249.48 890.32 253.027C885.173 254.574 880.147 256.227 874.787 256.88C856.147 259.254 839.467 255.24 821.16 253.054C802.013 249.48 783.107 240.2 766.04 231.04C751.547 224.16 739.853 214.227 728.267 203.32C724.24 199.36 721.08 194.56 717.32 190.28C702.68 172.974 694.053 152.2 689.387 130.16C686.893 117.16 687.413 104.187 689.213 91.147C689.973 88.7737 691.16 84.667 694.053 87.7337Z" fill="#BF69A6"/>
<path d="M700.027 86.8803C704.547 91.667 705.653 97.307 708.493 103.134C713.84 114.574 720.653 125.374 727.96 135.667C732.667 141.814 737.107 148.987 742.933 154C749.387 159.64 756.707 164.12 763.12 169.84C772.987 178.454 783.813 184.467 794.96 191.254C807.173 198.6 819.933 204.534 832.627 211C842.32 216.094 853.813 218.654 864.44 221.6C869.587 223.107 875.573 223.387 880.307 225.88C884.227 229.214 885.667 234.92 886.56 239.774C875.227 240.134 864.213 241.867 853.413 238.347C844.2 235.414 834.707 233.307 825.6 230.054C808.96 223.627 793.133 216.734 778.267 206.72C765.333 197.36 752.507 188.467 741.587 176.68C731.027 166.267 722.96 153.04 715.147 140.387C708.933 130.694 704.533 120.094 700.96 109.2C698.947 101.52 696.56 94.6003 700.027 86.8803Z" fill="#BF69A6"/>
<path d="M707.88 88.387C712.267 89.0936 717.693 89.147 721.6 91.4403C725.373 96.3736 726.467 103.014 730.173 108.134C734.733 114.534 740.507 120.054 745.507 126.147C750.587 132.347 756.96 136.747 762.813 142.107C774.12 152.654 786.093 162.694 798.947 171.32C806.253 176.347 814.64 178.334 822.267 182.654C833.133 188.854 844.773 193.72 856.747 197.294C861.107 198.814 866.32 200.04 869.947 202.974C873.893 207.307 875.72 213.907 877.387 219.427C868.453 219.454 860.387 216.76 851.853 214.534C843.893 212.374 836.48 208.96 829.147 205.267C817.747 199.974 806.6 194.174 795.693 187.934C787.173 182.827 779.04 177.027 770.787 171.48C762.627 165.907 755.973 158.8 748.253 152.667C741.867 147.56 737.773 141.374 732.4 135.214C727.24 129.227 723.867 122.574 719.587 116C714.32 107.654 709.573 98.187 707.88 88.387Z" fill="#BF69A6"/>
<path d="M629.52 90.7469C630.133 91.8669 630.733 92.987 631.293 94.1203C626.32 98.8403 620.613 102.454 616.093 107.707C611.24 113.227 605.493 117.374 600.04 122.227C590.267 131.294 579.453 139.28 568.293 146.547C559.493 152.32 550.013 155.414 540.027 158.48C533.16 160.68 526.027 160.374 518.667 160.56C514.307 160.68 510.36 160.027 506.213 158.694C509.68 155.214 512.827 151.934 517.64 150.414C525.667 147.88 534.013 146.92 541.947 143.894C547.667 141.694 553.507 139.734 559.12 137.267C573.453 130.227 587.32 122.36 600.347 113.08C606.8 108.4 611.88 102.534 617.44 96.9203C620.813 93.387 625 92.1603 629.52 90.7469Z" fill="#BF69A6"/>
<path d="M728.253 93.2403C732.853 93.547 737.44 94.7336 741.627 96.627C745.867 98.4536 748.147 102.747 750.52 106.44C755.453 114.96 761.52 122.867 769.067 129.24C776.96 136.107 785.56 140.84 794.093 146.814C801.253 151.587 808.027 156.267 815.947 159.6C824.733 163.387 833.787 167.24 842.947 169.934C847.24 171.267 851.187 172.454 854.08 176.147C858.707 181.96 862.48 188.534 865.427 195.347C855.36 194.787 847.32 190.52 838.267 186.654C831 183.507 824.787 178.694 817.573 175.467C812.933 173.374 808.24 171.774 803.867 169.107C797.573 165.307 791.88 160.574 785.693 156.587C778.507 151.92 772.04 146.387 765.88 140.44C759.787 135.347 754.04 130.134 748.76 124.187C739.987 114.84 730.413 106.654 728.253 93.2403Z" fill="#BF69A6"/>
<path d="M605.32 97.6003L607.36 99.8536C602.973 104.96 598.147 109.614 592.6 113.454C585.707 118.187 578.72 123.08 571.293 126.814C564.68 130.147 558.627 134.054 551.573 136.507C542.56 139.48 535.027 143.507 525.293 143.427C528.76 136.467 534.813 134.04 540.613 129.467C547.733 123.947 555.52 119.294 563.48 115.107C577.067 108.52 591.613 103.867 605.32 97.6003Z" fill="#BF69A6"/>
<path d="M753.453 102.387C760.8 104.12 767.96 106.827 774.626 110.374C787.533 117.054 802.226 123.427 813.173 133.107C818 137.254 823.053 140.84 827.4 145.534C833.613 152.32 840.426 157.747 845.4 165.614C836.773 165.827 828 160.04 819.866 157.214C806.173 152.36 795.413 144.134 783.493 136.134C770.813 126.907 759.266 117.494 753.453 102.387Z" fill="#BF69A6"/>
<path d="M581.68 165.68C583.066 165.467 584.453 165.32 585.866 165.254C587.866 169.72 587.533 179.014 593.52 179.88C602.84 182.334 610.16 174.547 617.653 170.427C619.8 173.374 623.813 174.827 621.186 178.88C613.16 189 596.2 191.587 586.2 182.774C581.426 178.467 578.333 171.8 581.68 165.68Z" fill="#0A1018"/>
<path d="M547.6 185.947C555.387 182.934 563.627 190.334 563.547 198.067C563.107 203.814 557.533 208.774 552.053 209.64C547.053 209.64 544.08 205.067 542.947 200.694C541.333 195.774 542.347 188.334 547.6 185.947Z" fill="#0A1018"/>
<path d="M622.32 204.52C627.453 202.96 633.52 205.334 636.907 209.347C641.093 214.494 641.04 222.947 634.987 226.707C630.147 230.187 623.813 227.307 620.64 222.96C616.307 217.347 616.56 209.067 622.32 204.52Z" fill="#0A1018"/>
<path d="M577.853 218.334C582.04 216.934 587.2 218.934 591.12 220.547C600.44 224.534 604.44 236.294 600.707 245.52C598.787 252.694 592.187 256.36 585.293 257.427C579.053 258.187 572.973 256.454 567.613 253.307C563.28 250.614 560.08 246.174 560.28 240.894C559.493 230.32 568.12 221.054 577.853 218.334Z" fill="#0A1018"/>
<path d="M583.106 225.92C585.733 225.454 589.146 224.787 590.653 227.627C595.066 234.414 593.04 244.24 585.666 248.067C580.506 251.44 572.293 249.254 570.013 243.48C569.013 234.774 574.773 227.8 583.106 225.92Z" fill="#0162AA"/>
<path d="M571.453 277.547C578.693 281.827 582.893 288.627 585.32 296.52C583.6 296.867 581.893 297.04 580.173 297.054C574.427 293.307 573.907 285.667 567.333 282.96C561.88 280.107 557.04 282.52 552.013 284.947C548.013 286.72 545 289.8 540.413 287.814C540.013 282.88 545.067 279.68 548.893 277.68C555.733 274.627 564.867 273.067 571.453 277.547Z" fill="#0A1018"/>
<path d="M469.56 297.2C471.32 297.414 472.827 297.387 474.053 298.854C477.947 302.934 481.08 307.08 486.573 309.187C492.253 312.44 498.627 309.174 505.08 309.147C512.213 308.374 517.373 311.787 523.987 313.134C528.68 311.987 532.2 309.2 537.36 309.36C544.76 309.32 549.92 313.094 555.8 316.947C559.187 319.24 562.707 318.76 566.627 319.52C572.733 320.374 577.147 324.134 583.013 325.427C587.587 326.547 592.573 326.84 596.427 329.827C603.947 335.814 607.747 345.214 606.253 354.76C605.893 360.987 601.613 366.134 596.053 368.574C592.267 369.44 587.8 366.707 583.96 366.76C579.36 367.8 575.72 370.214 570.76 369.787C565 369.8 561.173 366.04 556.04 364.694C550.987 365.374 546.8 367.627 541.453 366.667C537.307 365.614 534.093 361.867 532 358.307C528.453 352.454 528.04 344.64 526.52 337.987C525.253 331.28 522.64 324.12 517.987 319C512.76 314.534 507.12 316.107 501.32 318.267C502.853 327.387 506.107 335.76 508.533 344.587C510.507 352.707 512.16 360.734 515.227 368.56C519.56 379.254 524.293 389.64 531.493 398.76C536.813 406.88 544.267 412.814 552.453 417.84C560.507 422.534 570 423.614 579 425.254C585.2 426.12 591.08 427.534 597.267 426.014C606.813 423.827 616.333 420.52 624.88 415.68C626.667 418.48 628.747 420.334 627.373 423.907C624.347 428.48 617.827 430.787 612.88 432.574C603.827 435.72 593.107 438.494 583.533 436.614C571.813 434.774 559.56 433.267 549.813 425.894C543.987 421.507 537.52 417.72 532.187 412.76C525.96 406.654 521.267 398.32 516.493 391.067C515.107 389.307 514.16 387.307 511.653 387.16C504.547 386.147 497.6 386.107 490.747 383.64C480.88 380.147 470.573 375.947 462.56 369.027C458.72 365.347 454.827 361.467 455.933 355.64C460.133 358.054 464.04 360.92 468.147 363.467C476.573 368.774 485.867 372.694 495.427 375.414C499.453 376.574 503.52 376.534 507.667 376.227C506.333 365.934 502.947 356.387 500.84 346.24C499.053 338.787 497.6 330.814 494.333 323.84C493.067 320.587 489.84 320.6 486.973 319.387C480.16 317.534 474.467 311.96 470.84 306.107C468.987 303.014 468.347 300.707 469.56 297.2Z" fill="#0A1018"/>
<path d="M541.36 317.614C548.107 317.894 554.253 323.934 555.053 330.587C555.787 335.987 556.08 342.08 554.16 347.267C552.333 353.2 548.2 356.974 543.72 360.96C537.533 354.547 537.907 347.174 535.667 339.094C534.467 333.894 532.107 328.84 531.4 323.574C533.253 320.067 537.56 318.014 541.36 317.614Z" fill="#BF69A6"/>
<path d="M571.187 327.134C575.413 329.227 577.387 334 578 338.427C578.707 345.094 578.4 352.507 574.867 358.4C572.72 363.254 564.747 362.787 561.893 358.96C561.867 354.254 564 349.587 564.52 344.894C565.213 339.36 563.933 333.667 564.667 328.174C565.84 325.587 569.027 326.6 571.187 327.134Z" fill="#BF69A6"/>
<path d="M588.133 331.894C591.947 334.067 595.093 336.694 596.307 341.094C597.213 345.134 597.053 349.734 596.133 353.76C595.2 357.787 592.107 359.734 589.267 362.427C587.88 360.987 586.4 359.534 585.2 357.947C585.347 353.654 587.16 349.44 587.12 345.174C586.64 341.467 585.4 337.867 584.707 334.187C585.827 333.4 586.973 332.64 588.133 331.894Z" fill="#BF69A6"/>
<path d="M630.733 540.854C635.093 543.867 636.866 550.6 638.96 555.267C642.066 563.56 647.186 570.414 649.56 578.947C645.746 579.76 641.893 580.92 638.013 579.92C633.066 578.56 628.4 576.28 623.546 574.64C620.573 573.48 617 572.507 614.56 570.414C611.906 567.84 611.013 563.294 610.08 559.84C608.186 551.4 605.48 543.467 604.413 534.88C613.693 533.734 622.853 535.84 630.733 540.854Z" fill="#BF69A6"/>
<path d="M595.413 572.147C599.32 576.107 597.786 584.174 598.04 589.294C594.96 590.507 591.56 592.334 588.213 592.48C583.533 592.494 578.573 589.48 576.893 585.027C575.56 581.587 575.08 577.614 574.453 573.974C581.16 571.094 588.36 569.294 595.413 572.147Z" fill="#0162AA"/>
<path d="M563.28 577.214C566.013 584.12 567.587 593.014 573.627 597.92C580.347 603.48 588.44 604.027 596.667 605.574C593.68 608.96 590.72 611.907 588.733 616.027C584.693 623.454 586.053 632.32 582.773 639.694C577.333 642.627 570.12 642.947 564.053 642.974C552.573 643.054 540.227 640.96 530.573 634.387C525.72 631.134 520.733 626.76 518.16 621.414C515.453 615.6 517.293 608.974 519.933 603.48C524.107 595.547 530.853 589.094 538.973 585.294C546.707 581.72 554.667 577.614 563.28 577.214Z" fill="#0162AA"/>
<path d="M611.973 579.987C615.773 581.867 619.307 584.694 622.693 587.24C618.013 589.627 613.32 591.48 608.253 592.88C609.04 588.334 609.653 584.054 611.973 579.987Z" fill="#0162AA"/>
<path d="M648.506 589.894C650.746 589.534 652.413 590.787 653.92 592.254C659.2 597.947 661.106 606.534 657.946 613.747C656.986 615.894 655.346 618.414 652.84 618.867C646.666 620.347 640.24 615.694 637.533 610.414C636.026 606.147 636.24 600.734 637.2 596.36C638.72 592.414 644.72 590.56 648.506 589.894Z" fill="#0162AA"/>
<path d="M667.346 595.667C677.466 595.947 687.226 598.72 697.32 598.854C707.386 598.907 717.04 599.427 727.04 597.934C729.88 597.747 734.213 596.774 736.453 598.987C740.866 603.027 744.466 608.214 747.506 613.334C752 621.187 750.293 630.96 745.266 638.107C739.8 645.787 732.333 650.054 724.146 654.294C712.16 660.48 699.693 662.76 686.853 666.694C680.64 668.56 674.453 669.48 667.973 669.574C652.693 669.96 636.306 669.147 621.653 664.56C611.786 660.894 601.306 654.654 598.04 643.974C595.453 636.814 597.88 630.627 600.146 623.827C601.826 619.374 603.72 614.227 607.493 611.12C612.68 606.747 618.506 603.227 624.733 600.534C629.146 610.734 632.2 621.787 641.68 628.6C646.64 632.56 653.2 633.307 659.226 631.734C664.8 629.88 668 625.214 669.746 619.827C672.72 612.4 668.746 603.227 667.346 595.667Z" fill="#0162AA"/>
<path d="M861.613 646.894C868.907 647 876.2 646.88 883.493 647.227C883.493 648.614 883.507 649.987 883.507 651.374C874.8 650.907 866.093 651.16 857.387 650.747C842.213 648.374 826.32 650.014 810.947 649.294C811.28 648.12 811.627 646.947 811.973 645.774C828.427 644.72 845.187 645.747 861.613 646.894Z" fill="#0A1018"/>
<path d="M466.107 659.947C472.693 659.014 479.213 658.827 485.867 659.107C485.893 660.707 485.92 662.307 485.947 663.907C479.853 663.854 473.76 663.894 467.667 664.067C473.467 663.294 479.267 662.387 484.987 661.174C479.707 658.774 473.8 660.68 468.067 660.814C459.253 661.56 449.52 659.92 441.267 662.787C440.76 662.48 440.24 662.16 439.72 661.84C448.733 658.747 456.6 661.214 466.107 659.947Z" fill="#0A1018"/>
<path d="M484.987 661.174C479.267 662.387 473.467 663.294 467.667 664.067C460.6 664.414 453.533 664.12 446.467 664.267C444.28 664.387 443.053 664 441.267 662.787C449.52 659.92 459.253 661.56 468.067 660.814C473.8 660.68 479.707 658.774 484.987 661.174Z" fill="#0A1018"/>
<path d="M750.667 659.64C764.467 658.814 778.227 659.667 792.027 659.254C798.6 659.014 804.88 659.934 811.24 661.494C800.787 661.587 790.493 660.147 780.04 660.4C770.293 660.614 760.507 659.614 750.8 660.374L751.853 663.774C768.213 665.667 785.44 662.774 801.787 665.294C812.573 666.36 823.627 665.48 834.427 665.974C840.12 666.64 845.707 666.974 851.44 666.574L851.293 667.987C841.76 667.96 832.24 667.534 822.707 667.614C805.693 667.72 789.04 664.854 772.04 665.147C764.933 665.267 757.84 665.24 750.747 664.88C750.72 663.134 750.693 661.387 750.667 659.64Z" fill="#FEFEFE"/>
<path d="M750.8 660.374C760.506 659.614 770.293 660.614 780.04 660.4C790.493 660.147 800.786 661.587 811.24 661.494C824.666 661.96 838.213 661.92 851.653 661.574C851.64 663.24 851.586 664.907 851.44 666.574C845.706 666.974 840.12 666.64 834.426 665.974C823.626 665.48 812.573 666.36 801.786 665.294C785.44 662.774 768.213 665.667 751.853 663.774L750.8 660.374Z" fill="#0A1018"/>
<path d="M575.68 668.067C575.627 669.414 575.573 670.76 575.52 672.107C560.84 671.867 547.88 674.787 533.373 672.734C524.533 672.08 515.507 671.947 506.707 673.2C499.893 674.067 492.92 672.76 486.253 674.2C481.053 675.307 475.373 675.107 470.093 674.8C471.733 673.214 472.653 671.174 475.067 670.867C483.733 669.24 492.613 669.814 501.373 668.56C526.133 667.827 550.907 668.96 575.68 668.067Z" fill="#0A1018"/>
<path d="M742.707 670.867C756.68 670.76 770.64 670.814 784.613 670.92C784.72 672.307 784.827 673.707 784.933 675.094C783.84 675.12 782.76 675.147 781.68 675.174C766.947 674.627 752.067 674.987 737.333 675.134C731.933 675.147 727.04 675.92 721.787 674.187C728.333 669.454 735.133 671 742.707 670.867Z" fill="#0A1018"/>
<path d="M720.613 674.787L721.787 674.187C727.04 675.92 731.933 675.147 737.333 675.134C752.067 674.987 766.947 674.627 781.68 675.174C768.68 676.454 755.72 675.307 742.72 676.08C734.813 676.387 728.12 678.507 720.613 674.787Z" fill="#FEFEFE"/>
<path d="M548.133 679.867C557.133 679.04 566 679.84 574.973 680.294C588.507 680.747 602.507 678.32 616 679.534C619.08 679.36 619.506 682.814 621.066 684.827C611.386 687.174 601.96 686.094 592.146 686.814C576.573 688.107 560.6 686.027 544.973 685.507C549.533 685.44 554.067 684.574 558.627 684.707C578.573 686.707 598.707 685.654 618.627 684.067L617.733 680.28C612.826 679.374 607.307 680.494 602.387 681.08C584.667 682.187 567.08 681.134 549.373 681.36C538.12 682.134 526.92 681.547 515.667 681.56C526.467 680.107 537.28 680.894 548.133 679.867Z" fill="#FEFEFE"/>
<path d="M824.213 680.347C825.307 680.107 826.413 679.88 827.507 679.667C827.467 681.16 827.427 682.654 827.387 684.147C826.307 682.894 825.227 681.654 824.213 680.347Z" fill="#BF69A6"/>
<path d="M617.733 680.28L618.627 684.067C598.707 685.654 578.573 686.707 558.627 684.707C554.067 684.574 549.533 685.44 544.973 685.507C534.947 685.787 524.947 685.414 514.933 685.574C515.187 684.227 515.427 682.894 515.667 681.56C526.92 681.547 538.12 682.134 549.373 681.36C567.08 681.134 584.667 682.187 602.387 681.08C607.307 680.494 612.827 679.374 617.733 680.28Z" fill="#0A1018"/>
<path d="M880.986 683.907C881.64 685.134 882.306 686.36 882.973 687.587C882.32 688.427 881.68 689.267 881.026 690.107C874.013 690.494 867.013 690.587 859.986 690.12C850 689.48 840.066 689.387 830.106 688.32C847.053 688.147 864.346 687.547 881.2 689.68L880.706 685.547C872.293 684.667 863.853 685.747 855.386 684.467C863.946 683.56 872.373 683 880.986 683.907Z" fill="#FEFEFE"/>
<path d="M638.733 685.48C653.867 686.454 668.88 685.374 684.04 685.44C702.667 685.534 721.147 685.014 739.76 685.907C747.88 687.08 755.893 686.707 764.027 685.934C775.56 685.347 787.173 685.92 798.693 685.374C803.853 685.214 809.04 685.307 814.2 685.467C814.12 686.787 814.04 688.107 813.96 689.427C804.867 689.187 795.867 689.294 786.773 689.654C775.88 688.827 765.573 691.6 754.707 690.48C747.64 689.694 740.467 689.667 733.373 689.76C711.6 689.52 689.813 689.36 668.027 689.467C661.253 689.28 654.733 691.214 648.027 690.6C642.707 689.92 637.64 690.067 632.747 687.52C634.8 686.374 636.24 685.12 638.733 685.48Z" fill="#0A1018"/>
<path d="M830.253 684.614C838.6 684.12 847.013 684.534 855.386 684.467C863.853 685.747 872.293 684.667 880.706 685.547L881.2 689.68C864.346 687.547 847.053 688.147 830.106 688.32C830.146 687.08 830.2 685.854 830.253 684.614Z" fill="#0A1018"/>
<path d="M571.387 698.067C575.08 697.467 578.973 697.814 582.707 697.747C593.16 697.827 603.053 697.254 613.373 698.534C619.947 698.827 626.8 698.814 633.387 698.52C650.467 696.747 666.88 697.72 683.92 697.734C684.96 699 685.987 700.28 687.027 701.547C680.64 703.427 674.52 702.534 668.053 701.894C660.12 701.667 651.8 701.214 643.987 702.494C636.48 703.627 629.587 700.254 621.973 701.987C615.787 703.574 610.293 701.48 604.12 701.64C597.24 701.534 590.533 701.094 583.68 702.094C579.453 702.72 575.187 702.894 570.907 702.894C571.027 701.28 571.187 699.667 571.387 698.067Z" fill="#0A1018"/>
</g>
<defs>
<clipPath id="clip0_2_733">
<rect width="1330" height="730" fill="white"/>
</clipPath>
</defs>
</svg>
