<svg width="1330" height="730" viewBox="0 0 1330 730" fill="none" xmlns="http://www.w3.org/2000/svg">
<g clip-path="url(#clip0_2_806)">
<path d="M0 0H1330V730H0V0Z" fill="white"/>
<path d="M588.949 69.4362C596.975 71.2229 604.442 76.7962 609.962 82.7296C611.749 84.2362 612.895 86.3829 615.562 85.6229C619.309 83.2896 622.229 79.7962 626.095 77.5429C632.042 73.8496 639.442 70.4629 646.509 72.8629C656.095 76.5696 661.735 83.6229 668.202 91.0896C669.922 90.8629 671.455 89.2762 672.855 88.3296C680.589 82.3029 688.002 76.3429 697.629 73.5029C703.335 72.6496 709.322 72.3696 714.455 75.3962C720.882 78.7696 724.162 84.2762 727.749 90.2762C729.042 92.5829 730.575 93.2762 733.175 92.5962C741.162 90.6229 749.135 89.6496 757.335 91.0096C763.109 92.3562 767.549 97.0762 771.162 101.516C774.135 105.143 775.629 110.463 779.215 113.423C786.615 114.116 793.709 112.49 801.162 114.476C809.362 116.45 818.842 120.356 824.202 127.116C825.469 131.183 825.029 135.73 826.282 139.823C828.615 144.636 834.229 144.93 838.815 146.09C848.522 148.236 857.549 151.37 863.202 160.116C868.442 167.93 865.282 178.25 865.869 186.983C868.642 188.956 872.589 189.596 875.829 190.503C884.215 192.476 893.389 196.276 899.322 202.703C903.802 207.41 904.335 214.236 901.869 220.063C900.909 223.05 898.642 226.77 899.842 229.876C903.042 234.33 907.655 237.436 910.415 242.343C915.735 250.65 914.949 261.13 910.029 269.423C907.629 274.263 902.989 278.57 904.509 284.396C906.202 289.396 909.935 292.89 910.509 298.45C912.309 307.103 906.509 315.17 898.429 317.85C895.135 319.223 889.202 319.37 887.735 323.09C886.802 328.996 887.682 334.316 884.362 339.73C881.269 345.65 875.882 346.743 871.149 350.65C869.922 358.05 872.562 366.583 872.815 374.063C873.069 381.663 873.109 389.236 872.482 396.81C872.375 399.463 871.935 401.783 873.869 403.93C878.775 404.13 883.815 404.37 888.722 404.116C892.615 401.423 891.122 395.503 891.535 391.396C892.042 383.943 892.269 373.743 898.375 368.53C903.509 363.516 910.482 362.783 917.322 362.703C923.815 362.636 930.255 365.33 933.535 371.17C936.802 376.596 936.362 382.09 938.255 387.876C941.989 389.81 946.535 390.13 950.509 391.516C956.349 393.316 961.429 397.57 964.015 403.116C966.295 411.196 963.775 418.743 959.362 425.543C958.109 427.756 955.855 430.143 955.589 432.703C957.749 438.543 962.149 442.783 963.495 449.17C965.829 456.97 961.949 465.183 955.082 469.25C944.375 476.49 929.909 470.876 920.349 478.476C914.242 482.956 914.189 490.236 908.802 494.956C904.549 499.09 897.722 500.703 892.002 501.29C885.309 502.023 878.229 498.01 875.175 492.076C871.669 485.13 872.402 477.796 874.095 470.463C874.695 467.236 876.149 463.49 875.509 460.223C870.429 458.983 865.535 458.01 860.509 460.05C855.082 462.356 851.655 467.45 849.002 472.49C831.309 505.156 803.815 531.583 771.322 549.383C766.295 552.13 760.429 554.49 756.015 558.116C753.242 560.356 751.869 563.943 752.815 567.45C754.229 571.73 757.415 575.716 759.922 579.436C761.975 582.263 763.935 585.81 766.749 587.916C769.442 588.69 771.535 586.396 773.482 584.93C781.962 577.33 790.989 570.45 800.042 563.57C806.709 558.89 814.135 554.743 821.975 552.423C827.029 551.503 832.935 551.356 837.695 553.556C842.775 555.663 846.949 559.89 849.229 564.863C852.255 571.956 850.189 580.73 846.309 587.103C832.002 610.383 811.362 629.61 787.269 642.476C777.642 647.063 767.695 651.65 757.362 654.41C753.269 655.223 747.175 655.943 743.909 652.716C740.335 649.57 739.602 644.25 738.562 639.85C735.655 624.116 726.082 610.023 716.402 597.636C713.495 594.036 710.895 589.636 707.229 586.783C704.669 584.97 702.282 586.263 699.522 586.743C688.615 589.73 677.375 591.503 666.215 593.143C647.749 593.996 628.762 594.196 610.522 591.263C582.149 587.143 555.229 579.663 527.749 571.703C517.509 568.996 506.749 563.543 496.029 561.663C490.909 560.876 485.802 561.743 482.029 565.503C475.349 572.143 470.335 580.85 465.162 588.676C457.669 599.85 450.375 611.156 442.775 622.25C439.989 626.236 437.295 631.236 433.389 634.196C430.042 636.876 424.909 637.036 420.922 636.023C415.829 634.303 411.269 630.276 407.042 627.023C382.895 608.13 363.549 582.943 350.909 555.05C347.855 548.703 346.589 539.303 351.309 533.463C355.869 527.756 363.229 523.836 370.615 524.05C378.375 523.743 386.082 528.21 392.495 532.156C403.615 538.663 414.429 546.65 423.095 556.223C424.949 557.903 426.442 560.396 429.242 560.116C432.069 558.57 434.162 555.41 436.149 552.93C438.762 549.356 441.869 545.57 443.335 541.37C444.682 537.036 442.535 533.37 440.042 529.996C431.709 519.276 422.482 509.276 413.749 498.93C401.935 484.89 392.829 469.036 387.935 451.276C386.615 446.756 386.335 441.836 384.615 437.463C382.469 433.65 378.695 434.41 374.989 434.756C373.322 434.983 371.162 436.436 370.842 438.183C371.735 441.53 374.015 444.676 374.335 448.076C374.909 454.063 374.095 460.116 371.282 465.503C366.362 474.716 358.989 482.476 348.602 485.196C342.709 486.396 336.415 486.503 331.469 482.583C324.069 477.21 321.909 468.783 318.242 461.01C313.455 460.97 308.829 463.61 304.029 464.076C299.082 464.476 294.295 464.476 290.455 460.876C285.109 455.436 281.589 447.783 283.549 440.063C286.509 430.716 293.829 425.583 298.642 418.01C296.095 413.156 288.749 409.356 287.162 403.05C285.095 394.196 292.655 384.97 301.402 383.996C308.175 383.263 315.042 383.53 321.815 382.823C321.922 374.81 320.655 366.53 325.335 359.423C330.909 351.756 341.242 350.943 349.655 353.623C359.882 356.676 366.535 366.49 368.202 376.676C368.882 379.73 369.109 384.17 371.829 386.183C375.015 388.223 379.815 388.583 383.082 386.543C384.575 384.476 384.162 381.89 384.309 379.463C384.349 369.17 385.322 358.996 386.042 348.743C386.069 346.036 386.602 343.556 385.029 341.156C379.229 340.836 373.855 342.21 367.949 340.996C357.029 338.956 348.869 327.663 349.469 316.756C349.055 306.316 356.709 295.663 363.135 287.996C365.109 285.756 365.869 282.97 364.482 280.196C362.282 276.73 359.202 273.876 357.109 270.276C354.335 265.97 354.429 259.85 355.869 255.103C359.095 248.036 364.842 241.836 370.855 237.01C375.082 233.503 380.375 231.543 384.562 228.076C389.775 222.463 383.429 214.343 387.015 207.743C392.215 198.663 404.469 194.97 411.122 188.023C412.762 181.943 408.829 173.876 413.269 168.676C420.575 159.543 433.122 153.956 443.962 150.303C448.682 148.676 452.789 145.836 455.202 141.37C457.949 136.65 458.535 131.276 463.775 128.516C470.375 125.05 479.429 125.463 486.655 126.01C488.762 126.103 492.015 126.89 493.509 124.93C495.375 122.116 495.655 118.183 496.709 114.983C500.069 102.623 512.322 92.9296 525.229 93.2362C531.349 92.8096 536.962 94.1162 542.815 95.6096C546.122 96.5429 549.789 95.4229 551.895 92.7029C555.642 88.0629 558.242 82.5696 562.815 78.2896C565.895 75.4762 569.309 72.9296 573.029 71.0362C577.655 68.5296 583.882 68.7962 588.949 69.4362Z" fill="#1E1A17"/>
<path d="M605.936 92.0629C608.442 97.1296 608.549 102.61 610.402 107.703C611.429 110.636 617.442 112.756 618.682 108.903C621.229 101.263 624.896 93.1296 630.176 86.9696C638.029 79.1429 652.349 83.7829 657.402 92.7029C656.589 94.6096 657.042 95.9696 658.776 96.8096C659.389 103.463 656.909 113.21 663.816 117.21C665.216 118.77 666.976 119.13 667.976 116.943C671.309 111.676 672.656 106.236 676.642 101.436C682.709 94.0096 690.962 87.7162 700.122 84.7296C707.456 82.7829 715.029 84.9562 717.589 92.6229C720.429 101.436 710.816 110.343 711.962 117.97C712.109 122.343 718.696 125.33 721.629 121.676L722.136 121.09C725.576 115.13 729.229 109.663 734.989 105.676L735.669 105.223C741.189 102.17 746.842 99.9429 753.296 100.65C759.322 100.836 765.549 107.076 766.096 112.97C766.909 119.583 757.509 123.89 756.922 130.103C756.762 132.663 758.336 134.076 760.002 135.716C762.256 138.21 764.656 137.25 766.976 135.45L767.976 134.916L768.896 134.37C769.976 133.676 771.056 132.97 772.122 132.236L772.856 131.716C782.856 123.716 796.362 121.143 808.242 126.503L808.936 126.89C810.802 128.263 812.456 129.876 813.909 131.69L814.309 132.41C816.562 137.063 814.189 141.783 811.496 145.623C807.629 151.09 801.642 154.636 797.776 159.996C795.362 163.596 797.789 169.716 802.349 169.503C810.042 165.916 816.349 160.17 824.816 157.743C832.082 155.636 841.589 154.89 848.242 159.13C853.762 162.37 856.802 169.476 854.976 175.663C854.069 178.783 851.522 181.103 849.402 183.463C848.002 183.103 847.096 183.623 846.682 185.01C844.589 186.796 842.242 188.543 840.549 190.716C839.202 193.743 839.922 197.09 841.962 199.623L842.949 200.476L843.949 200.996C844.149 201.116 844.389 201.17 844.656 201.156C848.029 201.13 851.322 199.89 854.696 199.516C866.016 197.09 878.136 200.61 888.162 205.876C891.109 207.543 891.789 209.45 891.709 212.756C891.856 217.516 888.709 220.396 884.976 222.743L884.162 223.25C880.816 223.93 877.562 224.73 874.349 225.89C871.522 226.743 869.309 227.316 867.602 229.943C865.789 231.036 865.856 231.956 867.816 232.69C868.696 234.263 869.416 236.823 871.122 237.636C878.069 238.93 885.042 235.943 892.042 237.876C897.642 239.196 902.416 244.17 902.469 250.103C902.909 256.85 900.709 264.996 895.576 269.65C891.189 273.636 883.962 270.836 878.789 270.063C878.136 268.783 877.122 268.396 875.762 268.903L873.336 268.623C871.429 266.636 869.656 266.356 867.842 268.663L866.216 270.476L865.882 270.863L865.856 271.33C865.749 272.49 865.762 273.636 865.896 274.756C867.762 278.93 873.696 278.97 877.522 279.916L878.509 280.13C879.949 280.436 881.389 280.77 882.816 281.13L883.789 281.423C890.349 283.436 895.802 288.05 898.056 294.61C899.642 299.33 897.522 304.85 893.749 307.89C890.336 310.21 886.042 308.836 882.562 307.436C877.629 305.41 874.082 300.023 868.962 298.916C868.736 298.836 868.522 298.85 868.296 298.983C866.776 299.583 865.442 300.383 864.282 301.396C863.509 303.676 864.536 305.33 865.629 307.263L866.362 308.143C871.696 312.25 875.936 317.343 875.629 324.463C874.789 329.476 872.122 335.036 868.256 338.41C864.029 341.063 858.242 341.703 853.336 341.81C847.402 341.97 842.082 338.81 838.589 334.17C837.509 332.61 836.962 330.73 837.149 328.836C837.842 322.636 846.269 318.21 845.282 311.65C844.669 308.61 839.869 304.023 836.656 305.556C833.162 309.81 831.602 314.85 827.082 318.53C822.629 322.463 815.669 321.85 810.629 319.476C804.709 316.863 801.096 309.916 801.629 303.583C802.296 295.623 804.989 287.903 810.469 281.956C812.922 278.876 816.882 275.836 816.336 271.463C815.682 267.183 812.336 264.916 808.069 265.916C802.322 267.823 796.776 274.37 790.469 274.93C787.776 275.063 783.949 275.436 781.762 273.543C776.976 269.863 772.562 264.196 771.789 258.063C771.162 251.77 775.496 246.636 777.682 241.103C780.376 236.196 773.082 230.236 768.456 233.17C763.122 236.716 760.389 241.81 753.349 242.623C744.869 243.676 733.749 237.89 731.469 229.223C729.869 222.916 734.456 217.703 737.056 212.41C740.482 207.623 733.362 200.53 728.522 203.876C724.309 206.783 722.042 211.516 717.176 214.01C710.122 217.476 701.549 219.17 693.802 217.45C688.069 216.17 682.762 212.29 680.842 206.596C678.962 201.076 680.269 195.836 679.762 190.236C679.429 186.063 674.949 183.463 671.096 183.956C668.229 187.583 667.002 193.13 663.362 196.156C659.749 199.036 655.216 200.41 650.616 200.516C642.402 200.596 634.442 199.73 628.256 193.783C622.642 188.916 621.989 181.796 615.922 177.756C613.962 175.836 611.069 175.623 609.429 178.036C605.536 182.57 607.176 189.73 602.349 193.836C596.642 198.676 588.282 200.89 581.002 201.77C572.949 202.61 567.309 195.636 561.909 190.81C558.682 187.956 555.069 183.33 550.229 185.623C546.922 187.196 548.522 190.263 549.056 192.97C550.949 199.303 551.069 206.436 547.389 212.17C541.842 221.796 532.896 227.116 523.322 232.09C518.576 234.53 513.309 235.543 508.069 234.196C503.282 232.703 500.362 227.05 496.336 224.356C494.269 223.383 491.816 224.29 490.016 225.436C489.362 227.236 489.029 229.05 489.842 230.863C491.882 235.223 495.376 238.863 497.242 243.436C500.322 251.663 499.229 261.023 493.976 268.13C491.082 272.076 486.762 277.05 481.376 276.663C476.722 276.383 473.522 271.65 470.429 268.65C468.496 266.13 466.096 266.396 463.962 268.503C462.789 269.423 461.789 270.463 460.936 271.636C461.162 274.596 463.162 277.543 464.469 280.17C468.162 286.73 470.336 294.583 469.389 302.13C468.349 310.636 462.709 318.33 456.616 324.05C454.482 325.836 451.482 328.676 448.482 328.223C444.682 324.836 443.762 320.57 442.042 316.036C440.269 313.343 434.109 312.823 432.989 316.516C431.149 321.503 431.962 327.236 430.242 332.343C427.962 339.01 425.122 345.543 418.029 348.183C412.536 349.97 407.976 346.476 405.562 341.77C403.402 336.89 402.176 331.236 403.002 325.916L403.162 324.93C403.442 323.076 403.762 321.25 404.109 319.41C404.749 316.93 405.416 314.636 404.802 312.05C403.696 311.223 402.562 310.436 401.389 309.676C399.882 307.996 398.576 307.863 397.082 309.663C393.109 312.13 391.869 315.943 389.696 319.823C387.309 324.636 383.509 328.77 379.096 331.81C372.202 335.383 363.882 330.77 362.402 323.383C361.696 318.143 362.149 312.57 364.109 307.636C368.256 297.37 375.776 288.903 385.469 283.556C386.842 283.77 387.802 283.236 388.349 281.956L389.442 281.556L390.522 281.156L393.469 279.996L394.522 279.356L395.176 278.436C396.642 275.45 396.216 274.09 394.722 271.343C392.056 268.983 386.749 270.303 383.696 271.316C380.456 272.076 376.096 274.183 372.829 273.17C366.669 270.023 365.429 261.783 368.602 256.05C371.562 250.996 376.696 246.983 381.162 243.29C389.442 236.383 399.909 232.223 410.589 231.076C413.896 230.57 415.922 230.823 417.616 227.49C419.442 226.556 419.442 225.623 417.616 224.663C416.482 223.196 415.536 222.21 413.669 221.783C409.509 220.236 405.429 220.636 401.109 220.876C399.216 219.263 397.456 217.17 397.882 214.516C398.429 211.17 401.882 208.503 404.389 206.53C411.322 201.476 417.162 196.37 425.896 194.756C430.442 194.01 434.589 195.996 438.496 193.836C440.869 193.103 440.896 189.796 438.709 188.796C437.682 188.13 436.629 187.503 435.576 186.916L434.842 186.623C431.496 185.623 427.909 185.223 424.682 183.97C421.976 180.543 423.216 175.036 425.829 171.943C429.122 168.57 433.896 166.45 437.936 164.09C443.642 161.036 450.589 156.89 457.229 157.116C462.442 157.223 466.189 160.01 470.962 161.436C474.149 162.596 476.802 157.73 474.682 155.396C472.469 152.77 469.136 150.93 467.202 148.103C465.522 145.076 467.376 140.743 469.829 138.663C473.082 135.863 477.256 136.316 481.282 136.116C486.082 136.116 491.136 135.89 495.856 136.85C500.562 137.836 504.042 141.503 508.189 143.023C510.669 143.543 512.562 141.636 513.336 139.476C510.176 134.01 506.242 130.263 506.349 123.423C506.536 114.93 514.136 108.156 521.176 104.583C522.602 105.036 523.562 104.556 524.042 103.156C527.536 103.196 531.029 103.263 534.522 103.383C535.549 104.996 536.962 105.343 538.749 104.41C544.816 107.463 548.296 113.303 554.589 115.81C555.522 117.73 556.429 117.716 557.309 115.783C558.642 115.156 559.909 114.436 561.109 113.61C562.256 108.983 558.816 102.61 561.696 98.4496C566.496 90.5162 574.296 82.3162 583.722 80.4096C592.496 78.9562 602.069 84.0762 605.936 92.0629Z" fill="#C3613A"/>
<path d="M916.749 82.6363C916.762 85.7963 914.749 87.4629 913.149 89.9429C908.255 96.5696 907.509 105.85 907.242 113.796C905.109 113.263 905.282 111.023 904.629 109.263C902.749 102.37 903.455 94.9829 906.442 88.5163C908.642 84.6229 911.829 81.1696 916.749 82.6363Z" fill="#222222"/>
<path d="M585.376 83.4763C589.802 83.4363 594.922 85.1429 598.749 87.3429C602.096 91.0763 604.349 95.9163 605.096 100.863C605.882 104.556 606.149 108.823 609.629 111.09C611.976 112.396 615.229 113.836 617.962 113.343C622.229 112.076 622.922 107.316 624.256 103.703C625.856 97.6763 630.136 92.9296 634.242 88.4363C636.469 85.5296 641.629 86.2629 644.789 86.7563C647.949 87.8496 652.082 90.6763 654.189 93.2629C656.176 98.4229 656.016 103.41 655.896 108.836C655.456 112.903 658.242 117.036 661.309 119.45C664.642 121.503 668.602 119.836 671.176 117.33C674.402 114.503 674.522 110.583 676.896 107.076C681.842 100.036 687.002 93.7296 695.242 90.4363C699.189 88.9163 703.362 85.6496 707.696 87.5829C710.096 88.6763 713.456 90.4629 714.496 92.9963C717.336 103.41 705.229 109.57 709.362 120.53C711.456 126.423 717.829 127.316 722.962 125.076C726.829 121.263 728.416 115.756 732.589 112.05C736.762 107.17 742.896 104.836 749.109 103.943C752.962 104.063 759.522 104.73 761.149 108.903C762.202 111.383 764.029 114.876 761.709 117.156C758.789 121.103 754.642 124.93 754.162 130.103C754.189 132.436 754.056 135.076 756.389 136.37C759.962 138.516 765.469 140.97 769.229 137.983C774.816 133.956 780.816 130.663 787.189 128.076C793.589 125.903 801.136 125.756 806.802 129.89C808.762 131.49 811.376 133.903 810.936 136.69C810.122 140.636 807.802 144.37 805.509 147.623C802.616 151.743 797.856 154.45 795.296 158.703C793.869 162.303 793.816 167.65 796.949 170.436C798.602 172.076 801.216 173.756 803.549 172.503C812.469 167.996 820.602 161.01 830.856 159.743C835.589 159.156 841.616 158.57 845.536 161.85C848.976 164.823 853.162 167.49 852.296 172.703C851.469 178.276 845.309 182.81 840.909 185.716C837.496 187.916 835.162 192.97 837.149 196.823C838.376 199.663 840.442 203.503 843.962 203.61C851.082 204.116 858.096 201.676 865.309 202.023C872.229 202.01 878.056 204.516 884.322 207.143C889.362 208.783 888.442 216.41 884.869 218.996C879.202 222.183 872.336 223.236 866.562 226.17C864.962 226.903 864.549 229.61 864.562 231.196C865.296 236.276 869.536 240.303 874.642 240.863C879.896 241.276 885.109 239.93 890.549 241.01C893.749 241.543 896.616 243.836 898.256 246.57C900.336 251.01 899.162 256.596 897.522 260.983C896.309 264.13 894.536 266.93 891.176 268.023C887.322 269.276 884.162 267.996 880.442 267.076C875.696 265.783 870.482 265.33 865.642 266.316C863.256 268.943 861.976 273.81 863.576 277.09C866.736 281.143 873.122 281.836 877.749 283.13C884.456 284.783 890.709 288.276 894.762 293.97C896.149 297.116 894.656 301.85 892.949 304.636C890.122 305.356 886.936 305.543 884.122 304.676C879.242 302.276 874.482 296.983 869.082 295.796C864.536 295.543 862.469 299.33 862.429 303.41C862.122 310.85 871.069 316.37 872.709 322.503C872.562 326.276 870.682 330.29 868.482 333.316C864.749 338.09 857.402 338.09 851.896 338.343C846.042 339.143 838.242 331.623 842.362 325.796C844.082 322.13 847.816 318.236 847.976 314.13C847.842 311.21 846.989 307.236 844.696 305.25C841.309 303.45 836.829 302.676 833.429 304.876C828.869 306.97 828.949 313.556 824.736 316.17C821.509 318.036 816.976 320.53 813.509 317.876C807.362 314.836 803.896 307.503 805.296 300.823C806.109 296.703 807.309 292.476 809.309 288.77C813.656 284.143 817.602 278.463 820.309 272.743C819.322 269.25 815.656 265.996 812.762 263.89C808.989 263.183 804.336 263.45 801.256 266.023C796.896 269.41 791.642 272.45 785.936 271.983C782.829 270.97 780.309 267.596 778.162 265.21C774.309 260.85 774.269 254.676 777.002 249.703C779.856 244.623 781.042 239.023 779.442 233.303C777.269 230.956 773.896 229.236 770.629 229.876C764.229 230.476 760.789 235.876 755.322 238.903C752.322 241.143 748.176 239.343 744.936 238.516C739.429 236.89 733.576 231.543 734.989 225.25C735.349 221.196 737.469 218.263 739.509 214.943C741.162 212.556 741.296 208.85 739.856 206.343C737.042 202.81 734.496 199.316 729.376 200.676C722.696 201.503 720.976 209.316 714.922 211.69C709.869 213.65 704.269 214.396 698.896 214.743C693.722 215.063 688.616 212.743 685.496 208.61C680.242 200.73 686.909 190.303 679.589 183.77C676.989 180.223 671.802 180.143 668.576 182.783C665.189 186.583 663.936 192.103 659.176 194.61C655.082 196.756 649.042 197.996 644.442 197.53C637.149 196.116 629.429 192.476 625.829 185.61C623.896 182.636 622.522 177.703 619.056 176.316C615.122 174.263 608.989 173.823 605.669 177.183C603.576 180.703 604.549 186.983 601.469 190.303C597.176 195.183 589.896 196.956 583.709 197.836C579.936 198.25 575.576 198.796 572.362 196.303C566.136 191.796 562.562 185.663 555.069 182.743C551.882 180.69 548.269 183.223 545.882 185.356C543.749 191.903 548.202 200.17 546.042 206.77C543.416 214.436 537.829 219.623 531.189 223.903C524.909 227.65 519.989 232.903 512.029 231.356C504.456 230.69 503.042 222.29 495.696 221.103C492.749 220.823 489.082 221.663 487.056 223.956C485.176 229.596 487.736 235.65 491.336 240.036C496.776 246.876 496.256 256.17 493.896 264.09C491.429 266.903 488.522 269.41 485.669 271.81C483.776 273.583 480.242 272.983 478.136 271.903C475.869 270.223 474.122 267.703 471.682 266.276C468.562 265.503 464.856 265.503 461.802 266.516C459.736 268.21 457.682 271.236 458.389 274.023C459.842 279.276 463.442 283.703 464.856 289.063C467.522 298.196 466.216 308.196 460.349 315.823C457.802 319.436 454.056 321.623 449.616 321.836C447.669 319.303 446.362 316.183 444.202 313.85C440.562 311.183 434.722 309.916 431.082 313.25C429.096 315.89 429.376 320.263 428.882 323.41C428.149 331.423 425.789 338.916 419.416 344.223C416.949 345.023 413.656 345.316 411.269 344.156C409.336 341.516 407.669 338.423 406.642 335.316C405.896 327.996 407.896 320.263 407.922 312.943C407.429 310.49 405.856 307.596 403.496 306.503C400.242 305.863 397.056 306.623 394.389 308.57C387.469 313.77 384.736 324.41 377.442 328.97C372.282 332.063 367.042 326.41 365.642 321.85C363.682 313.183 368.789 303.97 373.616 297.09C375.869 293.183 379.736 292.13 382.736 288.89C387.549 283.543 395.482 284.623 399.576 277.596C400.736 273.316 397.349 270.103 394.042 268.076C386.669 266.063 380.562 269.743 373.776 269.623C369.909 267.983 370.696 263.036 371.002 259.676C371.709 255.73 374.442 253.716 377.536 251.583C381.909 248.756 384.002 244.023 388.682 241.516C397.176 235.61 407.656 235.396 417.362 232.783C422.896 231.103 421.509 221.69 417.296 219.423C412.976 217.796 407.776 218.823 403.376 217.21C402.442 215.383 402.069 212.81 403.856 211.383C409.496 206.636 414.016 201.623 421.309 199.396C426.469 197.143 431.469 197.916 436.882 197.543C439.442 197.223 442.896 194.49 442.229 191.623C441.856 189.29 441.069 185.61 438.376 185.01C434.896 183.476 429.362 183.356 426.936 180.263C426.176 177.836 426.722 175.183 428.856 173.65C435.696 167.783 445.029 163.09 453.789 161.076C460.842 159.156 468.496 166.05 475.162 163.983C477.069 161.343 477.842 157.53 477.109 154.343C476.109 150.756 470.576 148.636 470.242 144.756C470.256 141.036 473.176 140.383 476.176 139.756C483.376 138.703 491.402 138.29 498.229 141.196C501.656 142.503 504.616 144.863 508.069 146.036C511.256 146.743 513.789 143.156 514.722 140.57C516.202 135.57 510.949 132.25 510.389 127.476C509.962 123.436 509.896 118.116 512.816 114.916C517.776 109.436 523.896 105.13 531.682 106.476C541.509 106.743 543.816 116.116 553.376 118.116C558.122 119.463 564.509 116.756 564.642 111.33C564.269 105.223 563.682 99.0363 567.682 93.8363C572.509 89.3029 578.736 84.6496 585.376 83.4763Z" fill="#E54D01"/>
<path d="M994.269 84.0763C1004.1 86.9163 1011.63 95.3963 1016.78 103.85C1018.75 107.143 1019.11 111.41 1015.63 113.85C1009.26 118.77 999.176 119.316 991.709 121.916C987.416 124.396 991.149 131.276 992.856 134.383C995.562 135.636 999.562 134.503 1002.6 135.236C1009.1 136.543 1015.71 135.41 1020.6 130.756C1027.83 123.796 1029.91 114.596 1036.07 106.21C1038.67 102.796 1041.16 98.7296 1044.63 96.1429C1049.83 94.9163 1055.19 98.3696 1056.47 103.463C1057.11 107.356 1054.44 112.53 1050.95 114.396C1046.47 116.196 1040.67 113.823 1036.11 115.223C1033.66 116.703 1032.74 119.316 1031.68 121.836C1030.11 125.983 1028.74 130.29 1030.07 134.73C1032.44 138.17 1036.02 138.65 1039.75 139.756C1048.96 141.996 1056.86 147.143 1065.06 151.663C1067.91 153.183 1070.58 154.49 1073.86 153.33C1075.92 151.93 1077.31 149.823 1078.06 147.463C1074.24 141.276 1064.28 138.743 1059.22 133.583C1057.27 131.73 1057.46 128.716 1057.6 126.263C1058.36 119.89 1063.3 114.903 1069 112.436C1075.42 109.276 1082.26 108.823 1089.28 109.116C1104.03 108.863 1120.07 115.81 1128.52 128.183C1136.94 140.316 1136.3 156.97 1128.35 169.13C1125.71 172.796 1121.99 175.396 1117.3 175.223C1109.42 175.93 1102.24 170.263 1097.56 164.476C1095.78 162.476 1093.48 159.103 1090.62 158.863C1086.58 160.036 1080.62 162.223 1083.83 167.53C1092.12 181.41 1097.75 196.396 1097.9 212.756C1098.48 228.103 1093.68 243.463 1083.86 255.343C1080.59 259.09 1076.31 262.396 1073.68 266.61C1073 267.716 1072.76 268.836 1072.99 269.983C1073.9 276.21 1074.67 282.476 1075.24 288.743C1075.43 292.663 1075.64 297.223 1072.75 300.29C1069.27 303.583 1064.84 305.863 1059.94 305.556C1053.04 306.183 1047.95 299.77 1045.1 294.29C1043.08 290.996 1041.75 286.223 1037.24 285.81C1029.04 286.516 1020.11 288.356 1011.9 287.53C1000.12 286.41 988.269 283.436 977.976 277.476C973.429 275.09 969.309 271.823 964.629 269.743C960.456 268.636 955.416 268.743 951.682 271.143C947.122 273.85 942.656 276.29 937.296 276.956C930.789 278.09 923.896 272.916 924.296 266.05C923.562 260.076 926.736 256.516 929.722 251.876C935.936 242.036 937.882 230.103 935.496 218.73C933.296 208.663 932.776 197.25 936.162 187.383C942.016 170.996 953.336 156.77 968.442 148.01C971.056 146.583 974.042 145.65 976.509 144.023C978.242 141.25 977.869 137.196 977.669 134.063C977.229 131.196 975.669 127.036 972.029 127.663C965.296 129.183 958.962 133.356 952.616 135.983C950.162 136.756 946.256 137.076 944.469 134.823C940.976 131.463 938.909 126.983 939.349 122.063C939.896 115.05 943.042 108.103 946.722 102.196C956.296 86.7163 976.922 79.3296 994.269 84.0763Z" fill="#1D1B1A"/>
<path d="M932.949 86.3696C929.829 93.0363 926.349 99.383 924.429 106.57C923.056 110.143 922.829 114.93 920.296 117.863C918.896 113.37 918.842 108.383 919.296 103.743C920.482 95.9963 926.149 89.863 932.949 86.3696Z" fill="#262626"/>
<path d="M657.402 92.7029C658.829 93.7829 659.282 95.1429 658.776 96.8096C657.042 95.9696 656.589 94.6095 657.402 92.7029Z" fill="#6B3622"/>
<path d="M986.655 92.3696C992.749 92.4229 998.682 96.3829 1002.28 101.09C1004.22 103.61 1003.98 108.156 1000.82 109.61C997.189 111.196 993.029 111.583 989.229 112.716C978.629 115.65 968.829 121.37 958.295 124.49C955.762 125.316 953.202 123.356 953.509 120.663C953.775 114.156 957.842 107.676 962.362 103.183C968.695 96.8896 977.522 92.0496 986.655 92.3696Z" fill="#B0B0AE"/>
<path d="M524.042 103.156C523.562 104.556 522.602 105.036 521.176 104.583C521.736 103.303 522.682 102.823 524.042 103.156Z" fill="#6D2912"/>
<path d="M534.522 103.383C536.176 102.703 537.589 103.05 538.749 104.41C536.962 105.343 535.549 104.996 534.522 103.383Z" fill="#672C1D"/>
<path d="M735.669 105.223L734.989 105.676L735.669 105.223Z" fill="#6E3416"/>
<path d="M554.589 115.81L557.309 115.783C556.429 117.716 555.522 117.73 554.589 115.81Z" fill="#8D3519"/>
<path d="M663.816 117.21C665.229 116.57 666.616 116.476 667.976 116.943C666.976 119.13 665.216 118.77 663.816 117.21Z" fill="#7A2109"/>
<path d="M722.135 121.09L721.629 121.676L722.135 121.09Z" fill="#822E1B"/>
<path d="M1097.74 121.37C1106.07 123.13 1115.19 128.77 1118.31 137.063C1120.16 141.356 1119.82 146.783 1119.68 151.383C1119.54 155.17 1117.03 159.983 1113.2 161.13C1110.18 161.916 1109.08 159.116 1107.44 157.21C1099.14 144.996 1084.04 137.41 1073.3 128.596C1073.52 126.423 1076.43 125.183 1078.11 124.223C1084.1 121.45 1091.19 119.623 1097.74 121.37Z" fill="#B1AFAD"/>
<path d="M808.242 126.503L808.935 126.89L808.242 126.503Z" fill="#793311"/>
<path d="M772.856 131.716L772.122 132.236L772.856 131.716Z" fill="#8C4420"/>
<path d="M813.909 131.69L814.309 132.41L813.909 131.69Z" fill="#7E3A27"/>
<path d="M768.895 134.37L767.975 134.916L768.895 134.37Z" fill="#89331C"/>
<path d="M760.002 135.716C762.362 135.17 764.576 135.183 766.976 135.45C764.656 137.25 762.256 138.21 760.002 135.716Z" fill="#7A3217"/>
<path d="M1019.96 147.05C1034.56 147.41 1048.14 152.596 1060.32 160.41C1062.94 162.236 1064.78 164.863 1066.84 167.25C1064.15 166.623 1061.46 165.863 1058.71 165.436C1056.94 166.476 1055.67 168.503 1054.34 170.05C1043.19 162.983 1031.95 157.103 1018.63 155.45C1008.52 154.93 998.842 155.05 989.602 159.77C981.389 163.17 975.469 169.33 970.122 176.21C963.962 186.916 958.975 197.463 958.495 210.063C958.215 217.396 960.522 223.93 963.549 230.476C971.455 246.13 985.682 257.903 1002.83 261.983C1000.44 262.156 998.082 262.41 995.695 262.623C988.829 261.543 984.855 257.05 979.215 253.583C971.335 248.49 966.269 240.263 961.562 232.383C956.095 223.863 954.175 212.85 956.522 202.996C957.922 196.596 958.922 190.183 962.189 184.463C965.269 178.956 968.815 173.21 971.269 167.33C965.375 168.196 962.389 174.223 959.135 178.556C953.282 186.13 948.682 196.596 950.322 206.316C951.215 214.41 949.882 221.556 953.029 229.236C958.442 244.863 969.975 257.743 984.829 264.983C991.455 267.89 996.682 271.716 1004.1 272.156C1011.88 272.476 1020.04 272.476 1027.83 272.196C1035.08 270.916 1042.4 268.063 1048.52 263.916C1050.8 262.476 1053.23 261.37 1055.7 260.316L1058.7 260.97C1048.75 269.21 1036.58 273.663 1023.84 275.223C1013.87 276.063 1003.51 275.783 994.122 271.956C985.575 269.33 977.669 264.93 970.722 259.316C958.962 250.57 951.362 236.13 948.349 221.996C947.335 212.81 945.762 202.356 948.362 193.423C949.962 186.05 954.135 180.97 957.629 174.436C959.402 171.156 961.442 168.756 964.695 166.876C968.882 164.463 972.322 161.223 976.135 158.316C989.229 149.863 1004.35 145.796 1019.96 147.05Z" fill="#A02834"/>
<path d="M1018.63 155.45C1031.95 157.103 1043.19 162.983 1054.34 170.05C1061.78 176.596 1069.88 184.89 1072.48 194.716C1074.04 201.37 1073.48 208.663 1072.96 215.436C1072.56 220.983 1069.56 225.796 1067.44 230.903C1065.32 235.516 1063.54 241.13 1060.06 244.85C1056.72 248.476 1053.31 251.796 1048.68 253.69C1042.38 256.303 1036.51 260.596 1029.96 261.57C1020.96 262.983 1011.87 263.036 1002.83 261.983C985.682 257.903 971.456 246.13 963.549 230.476C960.522 223.93 958.215 217.396 958.495 210.063C958.975 197.463 963.962 186.916 970.122 176.21C975.469 169.33 981.389 163.17 989.602 159.77C998.842 155.05 1008.52 154.93 1018.63 155.45Z" fill="#261615"/>
<path d="M1058.71 165.436C1061.46 165.863 1064.15 166.623 1066.84 167.25C1071.63 170.69 1074.76 175.41 1077.06 180.783C1077.19 182.916 1077.26 185.05 1077.56 187.143C1078.51 192.903 1082.43 197.383 1082.47 203.356C1082.6 208.276 1082.4 213.21 1082.22 218.13C1082.35 224.13 1077.86 228.143 1078.76 234.316C1075.9 245.756 1067.84 254.063 1058.7 260.97L1055.7 260.316C1057.94 258.13 1060.28 256.103 1062.68 254.116C1066.43 251.143 1068.16 246.25 1070.63 242.21C1072.63 238.623 1075.67 235.196 1076.99 231.303C1076.8 229.85 1074.51 229.236 1073.38 228.61C1069.63 232.823 1070.62 238.276 1066.47 241.983C1063.26 245.05 1060.72 248.676 1057.67 251.85C1053.98 254.956 1049.66 257.396 1045.46 259.756C1035.94 264.93 1025.31 265.596 1014.63 266.623C1007.7 267.236 1002.08 264.676 995.696 262.623C998.082 262.41 1000.44 262.156 1002.83 261.983C1011.87 263.036 1020.96 262.983 1029.96 261.57C1036.51 260.596 1042.38 256.303 1048.68 253.69C1053.31 251.796 1056.72 248.476 1060.06 244.85C1063.54 241.13 1065.32 235.516 1067.44 230.903C1069.56 225.796 1072.56 220.983 1072.96 215.436C1073.48 208.663 1074.04 201.37 1072.48 194.716C1069.88 184.89 1061.78 176.596 1054.34 170.05C1055.67 168.503 1056.94 166.476 1058.71 165.436Z" fill="#B12330"/>
<path d="M1029.35 166.37C1029.75 167.17 1030.12 167.996 1030.47 168.836C1028.31 172.503 1025.55 175.53 1024.28 179.716C1022.08 185.17 1021.79 191.196 1019.76 196.636C1017.18 200.17 1010.66 201.263 1008.48 205.37C1007.27 209.85 1010.95 212.276 1013.88 214.836C1016.54 217.116 1020.44 219.49 1020.39 223.423C1019.63 226.676 1017.24 229.69 1015.9 232.743C1017.23 235.996 1021.78 238.223 1024.64 240.076C1026.95 241.036 1030.32 243.756 1032.59 241.69C1033.32 237.89 1033.83 234.09 1034.99 230.383C1035.56 227.81 1036.6 225.236 1034.58 222.996C1031.82 223.73 1029.5 225.876 1026.74 226.516C1023.66 224.516 1024.48 221.316 1024.31 218.156C1024.51 212.343 1024.34 206.516 1024.55 200.716C1024.66 193.903 1027.14 187.063 1031.16 181.61C1033.31 180.503 1033.86 185.623 1035.15 186.823C1036.11 186.943 1037.08 187.01 1038.07 187.01C1038.28 183.903 1038.27 180.676 1037.59 177.636C1036.75 174.29 1034.47 171.85 1032.56 169.09L1034.51 168.943C1040.06 172.543 1045.86 174.703 1050.99 179.036C1055.67 182.836 1059.3 187.663 1060.62 193.636C1062.83 201.983 1061.64 209.97 1059.95 218.276C1057.44 229.076 1051.5 239.37 1042.11 245.57C1033.98 251.383 1023.07 253.316 1013.28 253.316C992.975 252.996 973.242 238.863 968.389 218.796C963.029 198.156 977.615 175.17 997.429 168.823C1008.11 166.383 1018.38 164.33 1029.35 166.37Z" fill="#FEFEFE"/>
<path d="M1029.35 166.37C1031.8 166.53 1032.82 167.25 1034.51 168.943L1032.56 169.09C1034.47 171.85 1036.75 174.29 1037.59 177.636C1038.27 180.676 1038.28 183.903 1038.07 187.01C1037.08 187.01 1036.11 186.943 1035.15 186.823C1033.86 185.623 1033.31 180.503 1031.16 181.61C1027.14 187.063 1024.66 193.903 1024.55 200.716C1024.34 206.516 1024.51 212.343 1024.31 218.156C1024.48 221.316 1023.66 224.516 1026.74 226.516C1029.5 225.876 1031.82 223.73 1034.58 222.996C1036.6 225.236 1035.56 227.81 1034.99 230.383C1033.83 234.09 1033.32 237.89 1032.59 241.69C1030.32 243.756 1026.95 241.036 1024.64 240.076C1021.78 238.223 1017.23 235.996 1015.9 232.743C1017.24 229.69 1019.63 226.676 1020.39 223.423C1020.44 219.49 1016.54 217.116 1013.88 214.836C1010.95 212.276 1007.27 209.85 1008.48 205.37C1010.66 201.263 1017.18 200.17 1019.76 196.636C1021.79 191.196 1022.08 185.17 1024.28 179.716C1025.55 175.53 1028.31 172.503 1030.47 168.836C1030.12 167.996 1029.75 167.17 1029.35 166.37Z" fill="#191919"/>
<path d="M971.269 167.33C968.815 173.21 965.269 178.956 962.189 184.463C958.922 190.183 957.922 196.596 956.522 202.996C954.175 212.85 956.095 223.863 961.562 232.383C966.269 240.263 971.335 248.49 979.215 253.583C984.855 257.05 988.829 261.543 995.695 262.623C1002.08 264.676 1007.7 267.236 1014.63 266.623C1025.31 265.596 1035.94 264.93 1045.46 259.756C1049.66 257.396 1053.98 254.956 1057.67 251.85C1060.72 248.676 1063.26 245.05 1066.47 241.983C1070.62 238.276 1069.63 232.823 1073.38 228.61C1074.51 229.236 1076.8 229.85 1076.99 231.303C1075.67 235.196 1072.63 238.623 1070.63 242.21C1068.16 246.25 1066.43 251.143 1062.68 254.116C1060.28 256.103 1057.94 258.13 1055.7 260.316C1053.23 261.37 1050.8 262.476 1048.52 263.916C1042.4 268.063 1035.08 270.916 1027.83 272.196C1020.04 272.476 1011.88 272.476 1004.1 272.156C996.682 271.716 991.455 267.89 984.829 264.983C969.975 257.743 958.442 244.863 953.029 229.236C949.882 221.556 951.215 214.41 950.322 206.316C948.682 196.596 953.282 186.13 959.135 178.556C962.389 174.223 965.375 168.196 971.269 167.33Z" fill="#C71424"/>
<path d="M1144.51 169.023C1151.02 172.65 1150.44 179.81 1147.72 185.77C1145.95 189.903 1141.39 190.983 1137.3 190.303C1137.35 188.383 1139.43 186.823 1140.51 185.33C1144.58 180.983 1144.3 174.556 1144.51 169.023Z" fill="#2D2D2D"/>
<path d="M615.922 177.756C613.616 178.343 611.776 178.45 609.429 178.036C611.069 175.623 613.962 175.836 615.922 177.756Z" fill="#892A0F"/>
<path d="M609.429 178.036C611.775 178.45 613.615 178.343 615.922 177.756C621.989 181.796 622.642 188.916 628.255 193.783C634.442 199.73 642.402 200.596 650.615 200.516C655.215 200.41 659.749 199.036 663.362 196.156C667.002 193.13 668.229 187.583 671.095 183.956C674.949 183.463 679.429 186.063 679.762 190.236C680.269 195.836 678.962 201.076 680.842 206.596C682.762 212.29 688.069 216.17 693.802 217.45C701.549 219.17 710.122 217.476 717.176 214.01C722.042 211.516 724.309 206.783 728.522 203.876C733.362 200.53 740.482 207.623 737.056 212.41C734.456 217.703 729.869 222.916 731.469 229.223C733.749 237.89 744.869 243.676 753.349 242.623C760.389 241.81 763.122 236.716 768.455 233.17C773.082 230.236 780.375 236.196 777.682 241.103C775.495 246.636 771.162 251.77 771.789 258.063C772.562 264.196 776.975 269.863 781.762 273.543C783.949 275.436 787.776 275.063 790.469 274.93C796.776 274.37 802.322 267.823 808.069 265.916C812.336 264.916 815.682 267.183 816.335 271.463C816.882 275.836 812.922 278.876 810.469 281.956C804.989 287.903 802.296 295.623 801.629 303.583C801.096 309.916 804.709 316.863 810.629 319.476C815.669 321.85 822.629 322.463 827.082 318.53C831.602 314.85 833.162 309.81 836.656 305.556C839.869 304.023 844.669 308.61 845.282 311.65C846.269 318.21 837.842 322.636 837.149 328.836C836.962 330.73 837.509 332.61 838.589 334.17C842.082 338.81 847.402 341.97 853.335 341.81C858.242 341.703 864.029 341.063 868.255 338.41C872.122 335.036 874.789 329.476 875.629 324.463C875.936 317.343 871.695 312.25 866.362 308.143L866.322 307.356L866.802 304.983C871.056 305.743 873.882 309.463 875.775 313.063C878.629 318.17 877.869 325.01 876.589 330.49C875.322 336.276 870.856 340.196 865.469 342.223C862.816 343.01 861.082 343.543 860.269 346.463C857.775 354.756 863.096 364.33 863.976 372.77C864.802 382.45 864.189 392.063 860.309 401.076C858.776 405.076 857.016 409.223 861.376 412.183C862.162 412.543 862.949 412.81 863.762 412.983C872.655 413.756 881.869 410.276 890.402 413.09L890.122 414.436C884.802 414.436 879.162 414.076 873.935 414.943C869.682 415.61 865.722 416.516 861.376 415.663C858.842 415.13 857.042 412.636 856.869 410.116C856.162 403.73 859.429 397.05 860.589 390.756C862.469 380.436 861.429 369.503 858.589 359.45C857.469 355.556 854.962 352.29 850.976 351.076C844.549 349.05 838.456 348.183 833.149 343.583C829.242 340.716 827.802 335.463 824.069 332.663C818.762 330.943 813.056 331.17 807.802 328.903C800.016 325.983 793.762 320.17 791.335 312.076C788.682 304.13 791.135 296.916 790.242 289.116C789.109 284.57 784.229 284.223 780.535 282.823C772.415 280.623 766.162 274.636 763.309 266.77C761.842 263.05 761.135 258.49 758.829 255.21C755.829 251.636 750.775 252.17 746.615 251.583C737.162 250.716 727.775 245.956 723.789 236.93C721.989 233.97 720.695 228.396 717.162 227.223C712.442 226.53 707.402 227.81 702.615 227.77C694.282 227.77 686.095 226.69 679.429 221.263C674.935 217.743 672.736 213.05 669.176 208.823C668.349 207.436 665.896 207.93 664.589 208.21C659.416 209.516 654.802 211.876 649.282 211.703C641.055 211.17 633.082 208.33 626.176 203.863C623.002 201.996 619.975 199.703 616.055 200.623C610.589 202.25 605.829 205.876 600.482 207.943C591.202 211.903 581.069 212.69 571.189 210.876C567.135 210.516 562.989 209.036 560.429 213.236C555.509 220.81 550.655 227.996 543.095 233.236C536.149 238.316 528.135 241.476 519.709 243.143C516.602 243.983 512.535 244.556 511.255 248.023C510.495 252.583 511.109 257.29 510.269 261.876C508.909 270.423 503.255 277.796 495.615 281.743C492.015 283.783 487.522 285.156 484.442 287.93C481.189 291.143 481.415 296.516 480.962 300.743C480.442 309.503 478.189 318.343 472.242 325.05C466.975 330.876 460.029 334.05 452.509 335.903C447.989 337.17 443.602 337.37 440.255 341.023C435.015 346.556 431.269 352.263 424.042 355.57C416.322 359.703 407.082 357.09 399.549 353.823C402.735 350.636 405.029 351.53 408.922 352.436C405.949 347.596 402.362 342.303 401.109 336.716C400.749 331.65 400.669 326.29 401.335 321.25C402.242 320.61 403.162 319.996 404.109 319.41C403.762 321.25 403.442 323.076 403.162 324.93L403.002 325.916C402.175 331.236 403.402 336.89 405.562 341.77C407.975 346.476 412.535 349.97 418.029 348.183C425.122 345.543 427.962 339.01 430.242 332.343C431.962 327.236 431.149 321.503 432.989 316.516C434.109 312.823 440.269 313.343 442.042 316.036C443.762 320.57 444.682 324.836 448.482 328.223C451.482 328.676 454.482 325.836 456.615 324.05C462.709 318.33 468.349 310.636 469.389 302.13C470.335 294.583 468.162 286.73 464.469 280.17C463.162 277.543 461.162 274.596 460.935 271.636C461.789 270.463 462.789 269.423 463.962 268.503C466.229 268.97 468.135 269.023 470.429 268.65C473.522 271.65 476.722 276.383 481.375 276.663C486.762 277.05 491.082 272.076 493.975 268.13C499.229 261.023 500.322 251.663 497.242 243.436C495.375 238.863 491.882 235.223 489.842 230.863C489.029 229.05 489.362 227.236 490.015 225.436C491.815 224.29 494.269 223.383 496.335 224.356C500.362 227.05 503.282 232.703 508.069 234.196C513.309 235.543 518.575 234.53 523.322 232.09C532.895 227.116 541.842 221.796 547.389 212.17C551.069 206.436 550.949 199.303 549.055 192.97C548.522 190.263 546.922 187.196 550.229 185.623C555.069 183.33 558.682 187.956 561.909 190.81C567.309 195.636 572.949 202.61 581.002 201.77C588.282 200.89 596.642 198.676 602.349 193.836C607.175 189.73 605.535 182.57 609.429 178.036Z" fill="#25170D"/>
<path d="M1161.03 178.436C1164.26 184.503 1165.6 194.116 1159.5 198.903C1157.68 200.93 1154.75 200.29 1152.34 200.223C1151.91 196.463 1154.46 194.703 1156.15 191.676C1158.76 187.783 1158.72 183.69 1159.83 179.343L1161.03 178.436Z" fill="#1F1F1F"/>
<path d="M1077.06 180.783C1081.28 189.316 1084.68 197.756 1085.44 207.383C1085.78 216.903 1083.15 225.93 1078.76 234.316C1077.86 228.143 1082.35 224.13 1082.22 218.13C1082.4 213.21 1082.6 208.276 1082.47 203.356C1082.43 197.383 1078.51 192.903 1077.56 187.143C1077.26 185.05 1077.19 182.916 1077.06 180.783Z" fill="#903A40"/>
<path d="M849.402 183.463C848.962 184.823 848.056 185.33 846.682 185.01C847.096 183.623 848.002 183.103 849.402 183.463Z" fill="#8F411E"/>
<path d="M434.842 186.623L435.575 186.916L434.842 186.623Z" fill="#86421F"/>
<path d="M438.709 188.796C440.896 189.796 440.869 193.103 438.496 193.836C438.269 192.17 438.336 190.49 438.709 188.796Z" fill="#853111"/>
<path d="M841.962 199.623L842.949 200.476L841.962 199.623Z" fill="#92371C"/>
<path d="M616.055 200.623C619.975 199.703 623.002 201.996 626.176 203.863C633.082 208.33 641.055 211.17 649.282 211.703C654.802 211.876 659.416 209.516 664.589 208.21C665.896 207.93 668.349 207.436 669.176 208.823C672.736 213.05 674.935 217.743 679.429 221.263C686.095 226.69 694.282 227.77 702.615 227.77C707.402 227.81 712.442 226.53 717.162 227.223C720.695 228.396 721.989 233.97 723.789 236.93C727.775 245.956 737.162 250.716 746.615 251.583C750.775 252.17 755.829 251.636 758.829 255.21C761.135 258.49 761.842 263.05 763.309 266.77C766.162 274.636 772.415 280.623 780.535 282.823C784.229 284.223 789.109 284.57 790.242 289.116C791.135 296.916 788.682 304.13 791.335 312.076C793.762 320.17 800.016 325.983 807.802 328.903C813.056 331.17 818.762 330.943 824.069 332.663C827.802 335.463 829.242 340.716 833.149 343.583C838.456 348.183 844.549 349.05 850.976 351.076C854.962 352.29 857.469 355.556 858.589 359.45C861.429 369.503 862.469 380.436 860.589 390.756C859.429 397.05 856.162 403.73 856.869 410.116C857.042 412.636 858.842 415.13 861.376 415.663C865.722 416.516 869.682 415.61 873.935 414.943C879.162 414.076 884.802 414.436 890.122 414.436C893.496 416.316 897.509 419.01 901.482 417.17C904.856 415.956 904.202 411.61 903.949 408.796C902.602 400.103 901.135 391.716 903.589 382.97C904.989 378.41 908.895 375.25 913.589 374.596C917.469 374.116 921.456 374.21 925.376 374.116C925.949 379.37 925.656 384.543 923.149 389.303C920.016 395.796 913.909 400.196 910.562 406.37C909.256 409.81 913.882 414.41 917.216 414.516C920.549 413.503 923.375 410.37 926.175 408.343C931.055 404.356 937.189 403.103 943.095 401.183C946.055 400.61 948.669 398.756 951.029 401.583C955.055 406.116 953.509 413.143 950.095 417.57C945.149 424.103 935.722 426.143 927.949 426.21C924.922 426.476 921.362 425.65 919.002 427.97C918.722 431.183 918.789 434.316 921.736 436.303C929.749 441.503 940.762 435.636 948.682 441.343C953.642 444.316 954.389 452.436 950.149 456.29C943.736 462.53 933.055 465.17 924.762 461.263C920.149 459.303 916.629 455.876 912.282 453.57C909.935 452.023 907.135 454.116 905.522 455.823C905.109 459.73 906.949 463.903 907.429 467.796C908.509 474.316 905.256 480.996 899.962 484.783C896.269 487.636 892.162 489.53 887.456 488.01C884.642 485.543 884.989 480.13 885.349 476.756C886.242 468.943 890.482 463.423 893.042 456.343C894.576 452.796 891.202 449.37 887.656 449.37C877.576 449.17 867.589 448.476 857.629 446.836C854.296 446.33 850.602 445.01 847.229 445.45C843.189 446.516 842.962 450.05 841.816 453.436C839.522 462.663 835.615 471.356 830.615 479.423C821.522 493.556 809.349 505.25 796.669 516.156C779.615 530.303 762.962 543.61 741.389 550.156C738.936 551.143 734.682 551.863 733.949 554.823C732.855 557.783 735.095 560.45 736.509 562.85C745.402 575.97 753.802 589.383 761.455 603.263C762.695 605.276 764.429 607.956 766.842 608.596C770.695 609.036 773.255 605.556 775.575 603.036C788.042 588.143 803.295 575.69 820.522 566.703C824.615 564.61 829.629 563.143 833.962 565.423C838.616 568.45 837.935 574.97 835.869 579.37C832.855 585.276 828.229 590.423 824.189 595.65C807.149 616.596 784.269 631.89 759.015 641.103C757.455 641.516 755.735 642.076 754.269 641.116C750.935 639.37 750.362 634.756 749.189 631.503C746.042 619.716 737.535 609.29 730.855 599.17C726.309 592.57 723.015 584.77 717.602 579.103C713.709 574.983 708.389 572.343 702.642 572.436C696.375 572.236 690.762 574.183 685.029 576.45C671.562 581.756 657.055 583.716 642.642 582.81C624.389 581.383 606.415 578.476 588.269 576.183C559.869 571.476 532.429 562.716 505.629 552.37C499.189 549.956 493.189 545.25 486.509 543.81C482.722 544.196 479.495 548.623 477.269 551.41C462.509 571.21 446.549 590.396 434.869 611.703C432.669 615.49 430.269 619.783 426.002 621.53C423.175 622.783 419.495 621.063 416.989 619.703C410.562 615.89 404.855 610.37 399.535 605.156C385.629 591.543 375.295 575.756 365.949 558.796C363.775 554.716 360.909 549.876 361.669 545.09C362.602 540.103 366.189 534.716 371.909 535.21C377.162 536.263 382.069 539.556 386.922 541.783C398.069 547.13 408.029 553.89 415.349 564.023C418.522 568.463 420.149 573.396 422.469 578.25C423.949 582.17 430.522 584.196 433.522 580.956C435.549 577.956 436.629 574.276 438.242 571.036C442.789 561.463 450.615 552.943 457.935 545.423C460.895 542.17 464.002 538.13 461.842 533.556C458.949 528.196 453.135 524.103 448.829 519.876C436.109 507.663 424.229 494.183 414.735 479.303C407.402 467.33 400.162 453.61 398.682 439.476C398.015 434.783 398.455 430.023 397.909 425.343C396.535 422.89 393.335 421.85 390.682 421.996C385.055 422.29 379.242 423.29 373.695 424.09C366.775 425.17 359.162 425.716 352.549 428.063C350.269 428.73 350.002 431.65 351.229 433.41C354.322 438.65 358.789 441.996 360.442 448.223C362.589 454.983 360.535 462.156 355.802 467.276C352.109 471.25 347.149 475.41 341.389 475.076C338.095 475.116 336.029 472.823 334.522 470.183C332.042 465.863 332.189 460.236 332.415 455.423C332.709 450.583 335.242 446.623 335.895 442.023C336.735 437.356 330.002 433.383 326.335 436.463C323.069 440.103 321.375 444.383 317.269 447.41C313.015 450.516 307.882 453.476 302.602 454.183C297.722 454.316 294.522 449.463 295.949 444.903C299.802 432.636 309.442 422.13 322.175 418.996C324.815 418.09 328.962 417.623 330.429 414.983C332.815 411.29 329.362 406.17 325.135 406.476C318.522 406.09 311.895 409.53 305.429 408.81C300.935 408.103 299.495 402.396 300.442 398.623C301.309 394.996 304.509 393.25 308.042 393.076C313.189 392.81 318.695 392.796 323.842 393.023C329.909 393.383 334.509 397.396 339.935 399.596C342.522 398.183 345.335 396.396 344.042 392.996C341.735 388.916 337.002 386.223 334.669 382.076C332.895 378.436 331.895 374.33 333.455 370.41C334.935 365.756 340.055 362.476 344.869 362.77C350.495 363.596 354.362 369.183 355.829 374.29C357.789 381.396 355.762 387.276 354.642 394.196C354.109 397.436 356.549 400.97 360.002 400.996C365.829 400.676 371.335 398.33 377.269 398.303C382.682 397.996 387.869 399.663 393.215 399.61C396.122 399.423 398.562 396.463 397.855 393.516C396.015 383.33 396.655 373.263 397.815 363.05C398.269 360.156 397.575 356.13 399.549 353.823C407.082 357.09 416.322 359.703 424.042 355.57C431.269 352.263 435.015 346.556 440.255 341.023C443.602 337.37 447.989 337.17 452.509 335.903C460.029 334.05 466.975 330.876 472.242 325.05C478.189 318.343 480.442 309.503 480.962 300.743C481.415 296.516 481.189 291.143 484.442 287.93C487.522 285.156 492.015 283.783 495.615 281.743C503.255 277.796 508.909 270.423 510.269 261.876C511.109 257.29 510.495 252.583 511.255 248.023C512.535 244.556 516.602 243.983 519.709 243.143C528.135 241.476 536.149 238.316 543.095 233.236C550.655 227.996 555.509 220.81 560.429 213.236C562.989 209.036 567.135 210.516 571.189 210.876C581.069 212.69 591.202 211.903 600.482 207.943C605.829 205.876 610.589 202.25 616.055 200.623Z" fill="#B29646"/>
<path d="M843.949 200.996L844.656 201.156C844.389 201.17 844.149 201.116 843.949 200.996Z" fill="#943818"/>
<path d="M617.562 203.703C622.829 202.85 626.429 207.623 630.496 210.063C638.322 213.916 645.736 213.33 654.109 213.25C658.149 213.65 661.322 211.863 665.176 211.103C668.149 212.623 670.269 216.236 672.669 218.596C676.802 223.65 682.229 227.223 688.309 229.503C696.696 230.983 705.909 228.45 714.269 230.29C720.362 231.89 720.322 239.716 724.696 244.05C730.829 251.73 739.829 254.303 749.282 254.996C751.029 255.263 753.749 254.943 755.016 256.356C758.629 259.57 758.922 265.756 761.402 269.943C764.602 275.29 768.709 280.756 774.309 283.756C778.042 285.863 782.509 286.116 786.189 287.783C788.042 290.17 787.642 293.863 787.709 296.716C787.656 305.476 786.629 313.29 791.842 320.943C794.909 326.463 799.962 328.583 805.389 331.156C810.736 333.556 817.042 333.383 822.296 335.77C825.389 337.73 826.296 342.516 829.216 344.73C833.642 347.796 838.269 350.45 843.509 351.863C847.856 353.37 853.069 354.45 854.882 359.263C858.802 368.69 860.069 379.583 857.882 389.596C856.256 396.09 853.602 403.65 854.082 410.436C854.069 414.476 858.602 417.236 861.882 418.65C870.069 420.33 880.589 415.49 889.042 418.29C893.042 419.223 897.776 421.743 901.776 419.956C904.309 418.743 906.096 415.93 908.202 414.116C912.002 414.81 915.376 417.33 919.136 416.01C926.202 414.17 930.122 408.183 937.202 405.85C940.922 404.703 945.136 402.263 948.522 405.49C951.176 408.743 948.989 415.01 945.682 417.143C940.509 420.29 935.509 423.263 929.282 423.41C925.122 423.903 918.696 423.623 916.509 428.05C915.549 432.516 916.949 437.25 921.069 439.623C927.389 443.13 935.909 440.756 942.442 442.09C945.229 443.156 949.629 445.236 949.282 448.836C949.376 451.236 949.136 453.13 946.976 454.53C941.082 458.53 932.989 460.956 926.056 458.543C921.416 456.05 918.749 452.236 913.056 451.796C909.829 451.69 905.509 450.316 903.896 454.05C901.282 458.476 903.669 464.05 904.149 468.796C905.176 476.623 899.122 484.783 890.869 484.61C888.469 483.076 888.802 480.596 888.749 478.09C889.229 472.636 891.122 467.49 894.042 462.876C896.442 459.61 895.896 454.516 895.229 450.743C893.469 448.703 890.762 446.29 887.896 446.423C876.976 446.356 865.269 446.156 854.682 443.303C849.909 442.116 842.962 443.13 840.576 448.01C837.042 454.783 836.629 463.663 832.269 470.423C827.029 478.756 821.816 487.356 815.429 494.863C812.189 498.863 807.576 501.156 804.282 505.13C798.456 511.983 790.536 515.956 784.242 522.383C775.442 529.41 765.856 535.716 755.696 540.623C747.802 545.196 738.496 546.93 731.229 551.996C729.122 553.143 729.376 555.423 730.069 557.37C736.656 569.623 744.896 580.676 751.816 592.743C754.656 598.85 758.389 604.703 762.922 609.703C765.016 611.783 767.322 612.303 769.976 610.85C780.069 605.85 783.669 596.57 791.936 590.063C797.642 585.09 803.616 580.13 810.109 576.236C815.549 573.21 821.176 570.29 826.829 567.65C830.216 567.716 834.976 570.023 834.549 574.09C834.989 577.57 831.002 579.436 829.616 582.396C826.082 590.636 819.616 596.183 813.802 602.716C811.602 605.076 808.536 605.996 806.669 608.796C802.269 614.85 794.762 618.183 788.802 622.836C782.842 627.57 776.029 629.383 769.536 633.143C765.162 635.556 761.522 638.236 756.256 637.93C752.482 634.89 752.256 628.17 750.082 623.956C745.909 616.263 741.402 608.916 736.202 601.863C731.589 594.01 726.376 586.596 722.002 578.61C716.522 572.17 706.802 569.41 698.589 570.023C691.002 570.823 683.482 573.13 676.416 575.996C669.376 579.063 660.896 579.383 653.269 579.89C643.656 579.996 633.602 580.01 624.202 577.783C617.896 576.316 611.482 576.916 605.109 575.716C588.202 572.93 571.122 570.05 554.469 566.13C546.749 562.516 538.456 561.543 530.696 558.17C520.336 554.57 509.962 550.796 500.029 546.116C495.989 544.436 491.842 542.223 487.522 541.436C482.376 541.183 478.256 544.143 475.562 548.343C472.069 553.41 467.602 557.383 464.669 562.823C461.242 569.01 456.016 573.716 452.362 579.77C449.509 584.45 445.536 588.196 442.736 592.903C437.109 601.423 433.562 610.396 426.202 617.77C423.429 618.556 419.536 618.583 417.256 616.556C406.442 608.556 396.669 598.93 388.509 588.223C384.202 582.77 382.256 576.41 377.362 571.33C374.642 568.583 373.016 565.943 371.496 562.396C369.682 558.13 365.869 555.73 365.909 551.236C365.949 547.53 364.296 541.53 368.296 539.41C371.549 537.89 375.856 540.41 378.922 541.636C384.949 544.676 392.269 546.956 397.149 551.57C401.522 555.703 406.749 557.41 410.336 562.383C414.802 567.516 416.802 573.636 419.896 579.53C422.842 584.69 429.629 587.476 434.696 583.556C437.576 580.01 438.682 575.303 441.509 571.623C446.869 564.503 449.296 556.876 456.362 551.823C460.056 549.13 462.709 545.49 464.362 541.25C465.802 537.303 465.509 533.263 462.762 529.97C458.709 525.196 454.389 520.45 449.362 516.69C444.389 513.143 441.776 507.65 437.189 503.53C426.202 491.463 416.882 477.743 409.482 463.196C407.309 457.436 404.536 451.783 402.762 445.903C401.589 438.276 402.296 430.263 400.656 422.636C399.496 420.956 397.696 420.183 395.722 419.983C389.376 419.276 383.522 420.183 377.269 420.89C369.309 421.663 361.042 422.53 353.376 424.836C349.922 425.836 347.642 429.543 347.176 432.943C348.709 436.49 352.562 438.93 354.242 442.53C356.549 447.703 359.122 453.063 356.629 458.676C354.576 466.503 346.109 473.05 337.856 470.876C336.442 469.383 335.922 467.503 335.536 465.53C334.562 459.57 334.869 453.623 336.656 447.85C337.536 444.383 339.029 439.33 336.629 436.21C334.429 432.996 330.122 433.33 326.736 433.823C321.149 436.09 318.096 443.903 313.349 447.356C310.416 448.983 306.109 450.143 302.762 450.17C300.696 449.81 299.349 448.49 300.002 446.29C301.469 437.956 305.909 431.756 312.309 426.45C318.482 422.636 327.469 421.316 332.936 416.41C336.229 413.356 333.109 407.316 330.069 405.196C323.149 401.77 314.336 405.716 307.082 405.716C304.442 404.303 303.722 401.423 304.469 398.663C305.709 396.97 307.456 396.196 309.509 395.996C314.256 395.556 319.122 395.61 323.869 395.916C329.562 396.143 335.029 402.423 340.602 401.556C347.376 401.023 348.162 391.463 343.562 387.796C339.616 384.343 336.336 380.743 335.256 375.423C335.789 368.85 340.882 365.223 347.336 366.703C350.189 369.103 352.016 372.996 353.416 376.396C355.562 382.93 352.802 387.823 351.829 394.063C352.202 396.81 353.509 400.796 356.269 401.996C367.069 404.303 376.789 399.65 387.296 401.783C391.069 402.236 394.122 403.73 397.376 400.863C402.722 396.876 399.389 390.263 399.616 384.756C399.856 376.583 399.269 367.636 401.656 359.756C403.682 359.036 406.229 359.823 408.336 360.036C413.669 360.943 419.309 360.236 424.402 358.503C433.322 355.676 438.576 345.823 446.642 340.796C453.402 338.396 460.189 337.983 466.336 333.783C473.416 330.023 477.802 323.65 481.096 316.556C483.496 309.036 482.309 300.063 485.162 292.596C487.256 288.236 493.096 286.65 497.069 284.436C503.202 281.396 507.469 276.183 510.882 270.396C514.562 263.65 511.856 253.916 515.456 246.996C522.562 244.583 530.002 243.703 536.856 240.343C548.069 235.89 554.736 226.543 561.469 217.05C562.802 215.45 563.269 213.356 565.616 213.276C569.602 213.61 573.296 214.823 577.349 214.436C584.656 213.943 591.162 214.61 598.149 212.29C605.549 210.183 609.696 204.623 617.562 203.703Z" fill="#BB9006"/>
<path d="M1015 204.943C1017.02 203.823 1020.72 204.583 1020.59 207.463C1020.84 211.116 1016.68 212.583 1013.96 210.73C1012.74 208.583 1012.74 206.316 1015 204.943Z" fill="#D8D8D8"/>
<path d="M401.109 220.876C405.429 220.636 409.509 220.236 413.669 221.783C409.909 221.93 404.229 223.556 401.109 220.876Z" fill="#6A280F"/>
<path d="M884.976 222.743L884.162 223.25L884.976 222.743Z" fill="#884627"/>
<path d="M884.162 223.25C881.136 225.49 877.949 225.623 874.349 225.89C877.562 224.73 880.816 223.93 884.162 223.25Z" fill="#813C2A"/>
<path d="M417.615 224.663C419.442 225.623 419.442 226.556 417.615 227.49V224.663Z" fill="#751E09"/>
<path d="M867.602 229.943L867.815 232.69C865.855 231.956 865.789 231.036 867.602 229.943Z" fill="#8C3615"/>
<path d="M945.522 249.17C949.136 250.663 951.656 254.556 949.576 258.343C947.256 262.33 941.202 263.783 936.989 264.596C937.842 258.93 940.322 252.236 945.522 249.17Z" fill="#B3B0AE"/>
<path d="M585.709 250.663C590.722 250.13 598.429 248.916 602.082 253.276C606.975 258.25 610.682 264.01 610.189 271.29C609.682 277.543 607.482 285.063 604.349 290.516C596.895 299.476 585.029 302.77 573.775 300.37C567.335 296.796 562.602 290.583 561.815 283.13C560.469 275.863 563.229 269.756 566.815 263.663C571.535 257.063 577.242 251.556 585.709 250.663Z" fill="#B0913C"/>
<path d="M584.509 253.383C590.375 252.196 596.522 252.636 601.029 256.996C606.909 261.863 608.295 269.503 606.789 276.69C604.002 289.783 590.362 300.503 576.789 297.276C570.482 295.836 566.829 290.556 565.642 284.49C563.002 271.396 572.135 257.53 584.509 253.383Z" fill="#1F1D18"/>
<path d="M672.549 261.516C679.016 259.77 686.082 259.716 691.936 263.383C697.816 266.543 700.989 272.903 701.589 279.37C702.722 293.09 693.469 306.316 680.482 310.49C673.976 311.783 666.576 311.876 660.976 307.81C656.082 305.076 655.176 299.663 654.082 294.623C653.042 287.676 654.202 279.556 658.136 273.623C661.962 268.823 666.842 263.956 672.549 261.516Z" fill="#AC8E3E"/>
<path d="M675.135 263.956C684.295 260.916 694.135 266.543 697.322 275.37C701.642 288.583 693.082 303.783 679.749 307.29C673.269 308.716 666.042 308.703 661.135 303.583C656.055 298.396 655.282 291.183 657.055 284.383C660.015 275.316 666.042 267.436 675.135 263.956Z" fill="#1E1D17"/>
<path d="M470.429 268.65C468.135 269.023 466.229 268.97 463.962 268.503C466.095 266.396 468.495 266.13 470.429 268.65Z" fill="#7D3013"/>
<path d="M873.335 268.623C871.455 269.076 869.629 269.09 867.842 268.663C869.655 266.356 871.429 266.636 873.335 268.623Z" fill="#86311B"/>
<path d="M875.762 268.903C877.122 268.396 878.135 268.783 878.789 270.063C877.429 270.57 876.415 270.17 875.762 268.903Z" fill="#80371A"/>
<path d="M394.722 271.343C391.042 271.396 387.376 271.33 383.696 271.316C386.749 270.303 392.056 268.983 394.722 271.343Z" fill="#803218"/>
<path d="M865.882 270.863L866.216 270.476L865.856 271.33L865.882 270.863Z" fill="#8A371B"/>
<path d="M1059.31 277.343C1063.32 280.783 1061.95 287.756 1061.94 292.476C1058.62 292.25 1056.79 289.623 1054.86 287.236C1053.07 284.65 1052.15 281.756 1054.08 278.943C1055.18 276.49 1057.12 277.236 1059.31 277.343Z" fill="#AFAFAC"/>
<path d="M395.176 278.436L394.522 279.356L395.176 278.436Z" fill="#8E391B"/>
<path d="M394.522 279.356L393.469 279.996L394.522 279.356Z" fill="#8E3E1F"/>
<path d="M877.522 279.916L878.509 280.13L877.522 279.916Z" fill="#8C4421"/>
<path d="M390.522 281.156L389.442 281.556L390.522 281.156Z" fill="#803410"/>
<path d="M882.816 281.13L883.789 281.423L882.816 281.13Z" fill="#8D401F"/>
<path d="M388.349 281.956C387.802 283.236 386.842 283.77 385.469 283.556C385.922 282.143 386.882 281.61 388.349 281.956Z" fill="#733413"/>
<path d="M868.962 298.916L868.296 298.983C868.522 298.85 868.736 298.836 868.962 298.916Z" fill="#8B3D1A"/>
<path d="M1092.23 299.863C1094.59 301.276 1096.79 302.703 1098.32 305.063C1102.11 310.09 1100.68 318.236 1096.59 322.676C1095.08 324.73 1091.82 324.076 1089.55 324.29C1091.67 320.316 1095.27 317.516 1095.22 312.81C1095.54 308.036 1093.55 304.303 1092.23 299.863Z" fill="#2E2E2E"/>
<path d="M1109.76 305.05C1112.27 305.823 1113.38 309.503 1113.96 311.77C1114.64 317.316 1114.71 324.41 1110.63 328.783C1108.62 330.57 1106.2 329.97 1104.31 328.356C1105.14 325.423 1108.15 323.183 1108.42 320.196C1108.99 315.143 1108.84 310.09 1109.76 305.05Z" fill="#222222"/>
<path d="M865.629 307.263L866.322 307.356L866.362 308.143L865.629 307.263Z" fill="#A74B2A"/>
<path d="M401.389 309.676C399.949 310.33 398.522 310.33 397.082 309.663C398.576 307.863 399.882 307.996 401.389 309.676Z" fill="#813410"/>
<path d="M403.162 324.93L403.002 325.916L403.162 324.93Z" fill="#81432C"/>
<path d="M631.176 329.53C635.402 330.823 639.362 330.81 642.856 333.876C647.322 337.69 653.709 340.583 655.736 346.196C658.189 351.983 660.362 358.463 660.456 364.783C659.789 369.85 658.282 375.343 656.509 380.13C651.122 390.076 642.522 397.876 632.056 402.223C622.229 406.783 612.349 406.21 601.816 405.276C584.829 401.783 572.216 383.65 575.096 366.45C576.016 355.53 580.642 346.036 587.576 337.703C591.336 334.316 595.949 331.583 600.549 329.503C607.002 326.516 613.469 328.33 621.029 327.236C624.882 326.623 627.536 328.57 631.176 329.53Z" fill="#B1984A"/>
<path d="M607.002 330.49C613.816 328.783 621.469 329.596 628.256 331.076C638.696 333.716 648.802 339.676 653.962 349.45C658.336 357.236 658.442 366.463 655.362 374.73C649.829 389.716 635.429 400.623 619.962 403.61C610.856 404.93 601.616 403.943 593.669 399.036C584.456 392.796 577.602 382.943 577.882 371.436C576.589 353.61 589.616 334.943 607.002 330.49Z" fill="#221A0D"/>
<path d="M524.056 335.903C527.602 336.276 531.482 337.596 534.162 339.983C534.802 344.316 532.549 348.81 528.736 350.93C526.429 351.383 523.096 351.556 521.082 350.183C518.349 347.65 516.989 343.423 516.429 339.81C518.642 338.076 521.282 336.49 524.056 335.903Z" fill="#BA9636"/>
<path d="M529.856 346.663C525.349 349.743 519.522 344.97 520.429 339.956C525.149 335.97 533.016 340.436 529.856 346.663Z" fill="#3A1D07"/>
<path d="M557.909 340.023C562.509 338.676 568.922 344.09 565.242 348.716C563.189 353.663 553.496 349.863 554.936 344.85C554.789 342.57 556.056 341.143 557.909 340.023Z" fill="#39180A"/>
<path d="M611.202 342.956C617.162 342.023 623.402 341.876 629.336 343.076C634.856 344.13 639.896 347.796 642.629 352.703C645.269 358.183 645.309 364.903 642.976 370.503C639.562 379.05 632.842 385.396 624.802 389.636C617.136 393.85 607.056 393.423 599.469 389.236C593.949 386.196 590.122 380.543 589.909 374.156C589.709 367.303 591.256 360.05 594.589 354.036C597.989 347.876 604.456 344.263 611.202 342.956Z" fill="#E9D466"/>
<path d="M865.469 342.223C864.282 344.103 862.429 346.21 862.082 348.463C861.216 362.063 868.536 372.53 866.616 386.09C866.362 391.33 864.349 395.863 862.562 400.69C861.096 404.516 861.362 408.196 861.376 412.183C857.016 409.223 858.776 405.076 860.309 401.076C864.189 392.063 864.802 382.45 863.976 372.77C863.096 364.33 857.776 354.756 860.269 346.463C861.082 343.543 862.816 343.01 865.469 342.223Z" fill="#38302D"/>
<path d="M613.762 345.183C620.189 343.943 627.322 345.05 633.389 347.383C642.429 353.21 644.056 366.036 637.789 374.596C632.002 381.783 623.096 390.023 613.296 390.023C607.056 390.49 601.509 387.49 596.442 384.183C593.469 379.89 592.229 374.13 593.376 368.996C594.242 364.743 594.496 359.863 596.376 355.943C601.749 350.983 605.989 345.956 613.762 345.183Z" fill="#F4CC0D"/>
<path d="M543.949 350.476C547.655 350.93 550.869 354.476 552.375 357.69C552.989 360.063 552.495 362.783 552.695 365.236C555.909 366.276 560.255 366.316 562.949 368.436C565.749 372.836 566.389 380.076 561.842 383.636C559.269 384.116 556.375 384.143 553.802 383.716C551.629 381.396 549.482 378.17 548.122 375.303C548.642 373.023 549.535 370.81 550.215 368.57C545.869 368.503 539.522 370.97 536.442 366.81C535.322 363.676 533.829 358.596 536.242 355.743C538.095 353.116 540.642 350.863 543.949 350.476Z" fill="#B6912E"/>
<path d="M692.469 350.57C698.842 347.676 706.362 354.983 703.015 361.143C701.829 363.143 700.015 367.436 697.255 367.196C692.909 366.743 687.975 363.583 686.815 359.17C686.229 355.45 689.042 351.796 692.469 350.57Z" fill="#B49037"/>
<path d="M726.696 351.33C731.429 354.623 731.202 359.303 731.189 364.45C735.536 365.61 741.642 364.196 744.216 368.503C746.736 371.863 747.336 376.29 743.776 379.183C739.882 382.97 733.816 379.996 730.322 377.103C726.602 374.356 728.789 370.09 728.949 366.263C726.016 367.063 723.109 368.196 720.149 368.81C713.869 365.61 713.789 359.476 715.136 353.33C718.282 350.263 722.722 348.73 726.696 351.33Z" fill="#B39234"/>
<path d="M692.629 353.196C693.789 352.05 696.242 353.236 697.549 353.703C701.709 355.956 700.816 362.903 695.816 363.356C690.616 364.023 688.469 355.543 692.629 353.196Z" fill="#38130A"/>
<path d="M543.082 354.61C547.802 353.73 549.789 357.703 549.095 361.876C549.082 365.85 543.895 367.063 541.109 364.996C537.095 362.823 538.549 355.13 543.082 354.61Z" fill="#2F1A06"/>
<path d="M719.175 354.423C723.095 352.57 727.989 354.756 727.855 359.476C728.269 362.73 726.109 365.623 722.669 364.996C717.842 364.916 714.375 356.97 719.175 354.423Z" fill="#2F1C02"/>
<path d="M524.855 365.143C527.255 366.356 529.655 369.116 530.482 371.676C530.989 375.183 528.309 378.01 525.629 379.81C521.642 383.09 514.042 379.21 514.162 374.13C513.909 371.65 513.816 368.77 514.789 366.45C517.722 364.65 521.562 364.343 524.855 365.143Z" fill="#B08A2A"/>
<path d="M525.616 369.783C526.669 371.583 526.349 374.236 526.082 376.223C521.896 379.263 516.669 376.796 516.976 371.503C516.882 366.716 523.629 366.463 525.616 369.783Z" fill="#442104"/>
<path d="M733.856 367.796C738.722 366.29 744.082 369.756 742.656 375.156C742.029 378.636 737.922 378.196 735.416 377.343C731.762 375.583 730.282 370.476 733.856 367.796Z" fill="#3D2007"/>
<path d="M556.135 369.383C559.962 369.85 563.375 375.396 561.069 378.97C559.242 381.423 555.869 380.69 553.909 378.85C550.962 376.156 551.362 369.743 556.135 369.383Z" fill="#422707"/>
<path d="M922.242 368.903C924.416 370.196 925.229 371.583 925.376 374.116C921.456 374.21 917.469 374.116 913.589 374.596C908.896 375.25 904.989 378.41 903.589 382.97C901.136 391.716 902.602 400.103 903.949 408.796C904.202 411.61 904.856 415.956 901.482 417.17C897.509 419.01 893.496 416.316 890.122 414.436L890.402 413.09C893.029 411.303 897.042 410.09 897.709 406.636C899.536 398.623 897.016 390.223 899.669 381.996C901.856 372.396 912.869 366.29 922.242 368.903Z" fill="#2C2015"/>
<path d="M700.482 373.41C705.522 371.916 708.722 379.476 708.655 383.436C707.895 386.356 705.082 390.703 702.416 392.21C699.202 391.73 695.095 390.09 693.722 386.89C692.669 384.316 693.069 381.05 693.655 378.383C694.229 375.396 697.869 374.01 700.482 373.41Z" fill="#BC9539"/>
<path d="M699.056 377.05C704.442 375.783 707.869 382.676 704.362 386.53C701.736 389.17 697.469 387.316 696.029 384.383C694.816 381.41 695.589 377.876 699.056 377.05Z" fill="#3D1B07"/>
<path d="M919.389 377.37C922.282 378.023 922.455 380.583 922.002 383.05C920.802 387.836 918.416 392.25 915.069 395.876C912.136 399.103 909.909 402.836 906.855 405.956C904.335 399.17 904.815 391.183 906.189 384.196C907.602 378.33 914.175 376.756 919.389 377.37Z" fill="#BE9109"/>
<path d="M536.562 378.676C538.936 377.996 540.202 378.276 541.949 380.036C543.976 382.17 547.029 385.263 546.242 388.476C545.709 391.343 543.282 395.53 539.869 395.09C533.976 395.596 528.349 389.97 529.896 384.023C530.536 380.956 533.909 379.57 536.562 378.676Z" fill="#BF9735"/>
<path d="M672.536 378.636C676.722 378.103 684.856 380.21 683.456 385.943C683.149 388.29 682.669 391.916 680.696 393.463C677.682 393.93 674.376 393.903 671.389 393.303C666.802 389.29 668.042 382.05 672.536 378.636Z" fill="#BA9C4B"/>
<path d="M673.856 381.25C676.749 380.41 679.736 381.703 680.296 384.85C681.042 388.556 679.336 392.77 674.842 391.383C669.696 390.556 668.722 382.97 673.856 381.25Z" fill="#32120B"/>
<path d="M533.789 382.57C537.976 380.196 543.922 383.223 543.376 388.316C543.002 392.596 537.002 391.996 534.496 390.116C531.949 388.116 531.882 385.05 533.789 382.57Z" fill="#401804"/>
<path d="M716.456 386.61C718.629 386.503 721.922 386.076 723.642 387.69C726.389 390.116 726.229 396.996 721.256 396.356C715.576 396.316 714.816 391.05 716.456 386.61Z" fill="#361305"/>
<path d="M683.095 395.663C688.522 392.996 692.789 400.65 694.309 404.756C693.989 407.876 692.149 411.823 689.109 413.09C684.735 413.89 679.495 410.423 678.802 405.97C678.962 402.53 680.789 398.223 683.095 395.663Z" fill="#AD8B27"/>
<path d="M686.389 399.743C690.616 400.143 691.856 407.45 688.762 409.716C685.389 409.983 681.869 408.356 681.576 404.623C680.776 401.956 683.749 399.076 686.389 399.743Z" fill="#38180B"/>
<path d="M1022.11 399.183C1024.44 401.036 1026.15 402.97 1027.03 405.903C1030.06 413.89 1028.44 421.743 1026.28 429.69C1023.58 429.89 1023.96 427.783 1023.52 425.783C1022.96 416.716 1024.59 408.13 1022.11 399.183Z" fill="#3C3C3C"/>
<path d="M995.082 400.596C1004.23 405.89 1008.32 418.796 1005.1 428.65C1003.83 431.183 1002.84 435.69 999.082 433.61C997.122 429.97 1000.48 424.81 1000.52 420.823C1001.22 413.09 998.002 407.356 995.082 400.596Z" fill="#1F1F1F"/>
<path d="M596.189 436.57C602.882 437.69 611.562 437.476 616.482 442.756C618.229 444.196 620.136 445.436 621.909 446.836C627.362 453.09 629.016 460.676 628.082 468.823C627.469 476.983 621.935 482.53 616.682 488.156C611.455 495.143 603.162 498.036 594.882 499.556C583.509 502.423 571.202 497.783 563.162 489.596C558.882 483.636 556.456 476.276 557.669 468.89C558.109 458.116 565.762 448.89 574.349 443.103C580.629 438.983 588.455 434.956 596.189 436.57Z" fill="#B39843"/>
<path d="M587.176 440.143C595.936 438.916 604.829 439.703 612.709 443.956C619.989 447.596 625.202 455.223 625.349 463.423C625.482 469.01 623.496 474.09 620.669 478.796C614.109 489.276 602.696 496.276 590.429 497.57C580.122 497.97 568.709 493.05 563.629 483.703C558.216 474.956 559.616 463.796 565.576 455.69C570.776 448.77 578.522 441.996 587.176 440.143Z" fill="#1F1C18"/>
<path d="M394.962 654.29C401.469 656.516 407.122 659.836 414.149 660.436C422.762 662.05 430.429 659.663 438.562 657.25C436.775 661.503 431.095 663.716 427.029 665.076C420.522 666.436 413.029 666.223 406.989 663.17C402.295 660.863 397.895 658.863 394.962 654.29Z" fill="#1C1C1C"/>
<path d="M772.829 671.956C774.109 675.956 771.282 677.783 768.602 680.09C763.989 683.57 757.175 683.783 751.735 682.57C746.762 681.343 743.322 678.076 740.242 674.17C743.509 675.53 746.589 677.436 749.922 678.57C755.429 679.756 760.509 678.396 765.042 675.17C767.455 673.903 769.935 671.023 772.829 671.956Z" fill="#1D1D1D"/>
<path d="M398.842 680.956C410.269 683.69 421.535 684.076 432.962 681.063C426.695 689.503 413.282 690.33 404.589 685.583C402.535 684.356 399.375 683.57 398.842 680.956Z" fill="#242424"/>
<path d="M733.442 702.29C740.989 702.743 749.695 706.583 756.949 704.25C759.882 703.636 763.149 701.756 766.095 702.516C766.189 703.57 766.215 704.609 766.162 705.649C763.255 709.343 759.122 709.97 754.682 709.93C747.362 710.276 738.442 707.943 733.442 702.29Z" fill="#252525"/>
</g>
<defs>
<clipPath id="clip0_2_806">
<rect width="1330" height="730" fill="white"/>
</clipPath>
</defs>
</svg>
