<svg width="1334" height="734" viewBox="0 0 1334 734" fill="none" xmlns="http://www.w3.org/2000/svg">
<path d="M0 0H1330V730H0V0Z" fill="#FEFEFE"/>
<path d="M958.92 30.1199C970.147 30.6932 979.733 40.6932 979.787 51.9599C980.147 57.9599 977.547 63.0532 975.827 68.6932C982.333 68.8132 988.08 68.0665 994.133 71.1332C1001.81 74.7732 1006.76 84.7599 1003.37 92.8399C1000.8 100.293 995.387 105.947 989.013 110.347C983.827 113.507 978.627 112.813 972.827 112.84C972.56 117.827 973.16 122.293 971.147 126.947C969.293 131.267 967.587 135.453 963.72 138.36C959.573 141.507 954.747 144.987 949.333 145C945.2 145.107 940.733 145.36 936.707 144.4C925.853 139.733 916.24 130.933 914.413 118.747C914.72 114.707 915.56 110.733 915.72 106.667C912.627 105.8 909.453 105.08 906.44 103.947C903.4 102.747 901.053 100.533 898.227 99.1599C892.84 98.6532 887.373 99.1865 882.293 101.107C876.52 103.293 870.28 105.587 865.307 109.293C860.587 112.76 855.907 116.227 851.4 119.96C852.64 124.307 854.08 128.88 854.387 133.4C854.587 144.693 853.48 155.947 851.107 166.987C856.667 168.84 861.44 172 866.613 174.667C872.8 177.84 877.84 183.347 881.6 189.107C887.16 198.12 885.2 209.467 878.733 217.427C874.48 222.04 868.067 224.933 863.48 228.88C862.08 229.96 863.773 231.827 864.307 232.947C871.413 244.053 877.293 255.947 880.48 268.8C884.347 279.613 885.147 290.773 885 302.16C893.56 301.56 901.253 301.853 907.533 308.467C913.173 314.053 911.013 320.693 912.08 327.787C917.667 326.813 923.667 324.773 929.333 324.813C936.387 325.347 943.907 329.613 946.987 336.147C947.987 339.093 946.627 342.867 945.413 345.6C942.813 351.8 938.16 355.467 933.587 360.093C941.547 363.56 949.093 367.493 951.707 376.453C954.013 382.253 949.8 387.44 945.52 390.853C940.373 395.067 934.56 395.28 928.333 396.68C930.853 406.507 930.707 416.56 925.613 425.533C920.893 432.067 914.893 437.413 906.6 438.453C900.653 439.987 894.547 437.44 889.387 434.627C884.507 431.84 882.64 426.467 882.16 421.147C881.773 414.573 881.173 408.067 880.387 401.533C875.547 404.547 870.253 406.547 865.28 409.227C862.4 413.747 861.173 419.4 859.2 424.373C855.56 433.787 851.947 443.48 846.88 452.213C843.427 458.32 840.947 464.453 836.88 470.187C831.493 477.853 827.12 485.773 820.733 492.72C808 506.52 794.027 518.92 778.64 529.707C779.747 533.253 780.92 537.653 783.573 540.347C785.947 542.493 788.8 544.093 791.36 546C796.693 550.093 802.893 551.587 808.107 555.88C814.08 560.747 818.72 568.547 820.36 576.027C821.133 584.947 821.067 594.2 818.533 602.84C816.32 611.08 812.333 618.187 808.307 625.627C802.6 636.08 794.107 645.333 785.947 653.96C781.427 658.893 775.12 661.76 771.28 667.133C787.907 667.36 804.693 668.32 821.293 667.16C828.64 665.933 836.053 666.547 843.36 665.147C847.547 664.48 851.747 663.893 855.973 663.493C855.347 664.68 854.693 665.853 853.987 667.013C844.52 668.253 834.933 670 825.347 669.8C815.547 669.827 805.813 670.707 796.013 670.333C786.24 670.56 776.507 669.973 766.733 670.307C763.2 670.493 759.547 672.4 756.213 673.573C751.573 675.307 746.72 675.667 742.16 677.693C747.933 678.987 753.4 677.467 758.947 679.787C757.84 680.573 756.72 681.32 755.573 682.04C749.213 682.347 742.587 682.2 736.24 681.747C733.093 681.6 731.267 677.36 728.067 676.88C721.333 675.347 714.96 674.547 708.787 671.133C704.36 668.92 699.96 665.387 694.76 665.96C683.027 666.707 671.16 665.2 659.493 666.173C654.52 667.733 650.987 666.893 646.107 665.68C646.147 665.253 646.187 664.84 646.227 664.413C650.773 665.013 655.253 664.6 659.813 664.667C665.307 664.747 670.453 662.96 675.92 663.16C681.64 663.253 687.413 663.133 693.133 662.867C689.88 657.507 685.64 653.28 683.187 647.427C678.747 638.347 678.693 628.493 678.893 618.587C678.92 612.667 682.4 607.44 684.293 601.693C686.907 593.507 692.067 587.853 697.053 581.053C703.947 571.933 713.04 565.48 723.147 560.333C724.6 559.24 726.987 558.92 725.96 556.613C723.947 554.347 721.347 552.507 718.707 551.027C710.8 550.387 702.64 553.253 694.653 553.733C683.147 555.36 671.587 555.693 660 556.507C650.4 555.707 640.84 555.147 631.373 553.227C622.92 552.067 614.547 550.76 606.267 548.64C591.573 544.853 576.8 540.947 562.493 535.893C550.333 530.693 538.333 525.507 527.48 517.853C517.227 512.933 508.987 505.587 500.627 498.04C495.24 493.12 490.733 487.493 485.733 482.213C484.48 481.027 483.027 479.44 481.307 478.987C468.467 483.573 458.387 493.88 453.04 506.293C449.2 516.653 444.96 528.12 438.52 537.187C435.133 541.4 431.213 546.653 426.013 548.573C420.867 550.893 414.853 550.427 409.28 550.413C397.747 549.813 388.853 544.16 379.987 537.347C374.173 532.76 369.867 525.68 365.787 519.547C357.213 506.44 352.067 490.68 349.467 475.32C346.787 464.947 347.12 454.6 347.32 444C347.573 436.76 349.267 429.44 350.72 422.36C352.36 414.307 355.893 407.133 360.187 400.2C364.853 393.24 370.067 386.6 378.333 383.893C383.8 382.32 390.28 381.187 395.813 382.947C403.827 385.56 411.24 388.573 416.28 395.72C424.48 405.267 428.907 416.933 429.933 429.4C430.04 432.973 430.227 436.467 431.067 439.947C439.36 435.88 446.893 429.893 454.6 424.773C454.253 419.24 453.093 413.853 451.8 408.48C449.067 397.387 448.587 385.587 446.787 374.2C445.733 368.227 446.533 362.107 446.013 356.013C444.653 343.093 447.733 329.293 449.093 316.373C446.187 315.533 443.147 314.36 440.12 314.227C436.96 314.827 436.173 317.733 434.707 320.147C431.067 327.56 422.947 332.667 414.693 332.853C409.6 333.093 404.627 333.293 400.067 330.64C393.987 327.68 389.987 320.8 388.173 314.52C386.6 309.36 388.907 305.187 385.853 300.707C383.08 296.027 381.307 290.907 381.12 285.44C381.947 281.693 383.533 278.053 384.813 274.44C378.533 273.307 371.773 273.173 366.333 269.76C357.787 265.213 353.36 254.667 354.28 245.333C355.2 239.787 359.16 234.653 364.08 231.987C372.907 226.84 382.28 222.453 392.733 225.173C396.907 226.747 400.613 229.36 404.733 231.12C406.56 222.693 404.907 214.293 406.08 205.88C408 194.653 417.907 186.2 428.573 183.493C434.08 182.84 440.267 182.4 445.64 183.88C450.547 186.267 454.413 191.627 456.147 196.72C457.307 202.987 457.907 209.693 457.893 216.067C457.227 224.707 454.84 233.373 453.507 241.893C459.64 242.84 465.813 244.573 472.027 244.747C475.147 245.013 476.227 242.667 477.987 240.6C480.8 236.68 483.133 232.387 485.733 228.333C492.027 218.333 499.56 209.56 507.813 201.147C515.253 192.88 522.347 184.72 531.213 177.88C537.373 173.147 542.667 168.013 549.56 164.28C555.533 161.013 561.147 157.267 566.76 153.413C575.747 147.307 586.52 143.853 595.787 138.453C598.68 136.52 597.307 134.173 597.08 131.36C595.56 122.573 598.733 113.627 603.973 106.64C612.147 97.0532 625.013 92.3865 637.293 91.4799C643.667 90.6265 650.12 91.7599 656.44 91.0399C659.827 88.2932 662.56 84.7332 665.76 81.7599C679.08 68.4132 695.387 59.2932 713.107 53.1465C721.693 50.2799 731.027 49.3865 739.947 47.7065C754.373 46.3865 769.44 46.5732 783.56 50.0932C795.653 52.3065 806.907 58.6132 816.373 66.2932C820.88 69.9865 825.387 73.0399 828.987 77.6799C832.853 82.7199 835.987 88.3865 839.413 93.7465C844.88 92.1065 848.893 88.5865 854.013 86.1332C865.173 79.9599 878.76 74.7199 891.68 75.5199C896.827 68.6132 901.867 62.5599 910.413 59.8532C916.88 57.9199 922.027 60.0132 928.333 60.8532C929.72 54.9599 929.64 48.6932 933.187 43.8399C936.08 39.7332 939.44 35.4132 944.333 33.6932C948.987 31.8932 953.96 30.5732 958.92 30.1199Z" fill="#0C141B"/>
<path d="M966.573 38.2267C970.067 40.3467 972.6 44.0534 972.68 48.2267C972.947 56.1067 970 64.0934 964.213 69.5601C961.227 68.1734 957.893 65.8134 954.547 65.7067C949.093 65.5067 943.693 65.6801 938.253 66.0267C937.547 60.5067 937.267 54.5201 940.027 49.4801C944.587 40.0801 956.827 35.8934 966.573 38.2267Z" fill="#FEFEFE"/>
<path d="M740.4 55.4666C750.8 54.9599 761.4 54.8799 771.8 55.4399C792.267 57.6399 810.467 68.8666 823.147 84.8399C826.187 89.0266 829.627 94.4132 829.933 99.6932C824.867 107.907 817.6 114.84 812.253 122.973C805.133 132.84 805.2 143.667 799.653 154.453C784.44 152.773 771.307 146.467 757.933 139.493C745.093 132.427 732.28 125.28 719.72 117.733C708.373 111.427 695.787 105.147 685.387 97.2399C681 93.9599 677.573 89.9199 674.667 85.3066C681.533 78.3732 690.227 72.9332 698.653 68.0799C711.493 60.8132 725.787 56.9599 740.4 55.4666Z" fill="#EE3F2F"/>
<path d="M933.04 70.3865C929.787 74.3065 926.187 77.0265 924.907 82.2132C922.84 87.4665 924.08 92.2532 924.707 97.6132C916.093 102.56 903.373 98.7332 899.653 89.2665C899.16 85.2799 899.04 80.6132 901.173 77.0665C903.827 72.1199 909.28 68.5865 914.347 66.4932C921.187 64.9865 928.013 64.7465 933.04 70.3865Z" fill="#FEFEFE"/>
<path d="M947.093 72.4533C950.84 72.0933 955.48 72.4266 958.64 74.6533C961.92 77.8266 964.24 83.2933 962.64 87.8133C961.133 92.7333 957.72 97.1866 953.6 100.227C950.347 102.88 945.453 102.467 941.52 102.12C938.293 102.04 935.547 98.5733 934.067 96.0266C933.2 90.3733 933.493 84.2666 936.813 79.3866C939.173 76.0266 942.973 73.1066 947.093 72.4533Z" fill="#FEEA08"/>
<path d="M991.293 76.9199C995.96 79.2932 997.813 85.3199 995.28 89.9466C992.027 96.9466 985.573 104.787 977.347 105.547C973.787 106.413 969.68 103.893 966.387 102.68C968.12 98.6266 970.2 94.5199 971.293 90.2532C971.933 86.4132 971.48 82.3599 971.533 78.4799C978.333 77.3199 984.28 75.5865 991.293 76.9199Z" fill="#FEFEFE"/>
<path d="M890.093 84.3733C890.107 86.32 890.147 88.28 890.173 90.24C881.093 93.0666 872.493 95.12 864.133 99.88C848.72 109.347 835.413 121.413 826.733 137.48C823.8 143.147 822.573 150.067 821.227 156.293C818.427 156.333 815.64 156.373 812.84 156.4C812.827 152.347 812.76 148.44 814.147 144.547C816.64 137.373 818.64 130.64 823.333 124.52C827.867 118.56 833.4 113.307 838.72 108.053C847.8 99.2666 858.627 92.7333 870.24 87.8933C876.627 85.2933 883.267 84.6266 890.093 84.3733Z" fill="#018DCB"/>
<path d="M665.987 93.9466C666.96 93.7333 667.747 93.8666 668.36 94.3466C673.667 98.3199 678.52 102.88 683.92 106.733C689.427 111.12 695.707 113.68 701.987 116.68C722.693 129.2 743.987 140.88 765.6 151.76C783.307 159.187 803.36 165.307 822.693 164.893C829.173 165.013 834.987 166.52 841.32 167.547C840.307 174.653 838.707 181.813 836.4 188.627C835.64 190.493 834.413 193.8 832.013 193.813C822.773 194.773 813.293 194.12 804 194.053C795.133 194.067 786.987 191.933 778.16 191.2C767.84 190.213 757.773 188.787 747.907 185.467C740.04 182.773 732.293 180.013 724.733 176.52C713.747 171.653 703.693 164.667 693.053 158.907C683.6 153.347 674.533 148.68 666.36 141.667C661.52 137.64 655.16 133.36 652.293 127.64C650.08 124.027 652.24 119.587 653.547 116C656.973 108.387 660.733 100.48 665.987 93.9466Z" fill="#FEEA08"/>
<path d="M649.4 98.08C647.413 107.667 641.267 116.067 640.373 125.587C640.027 128.867 641.72 131.16 643.76 133.493C655.493 145.813 669.24 155.88 684.187 163.933C695.227 169.627 704.893 177.12 716.2 182.307C725.387 186.52 735.08 189.8 744.733 192.76C764.68 198.613 786.04 200.587 806.653 203.013C818.547 203.533 830.253 205.187 842.187 204.787C844.787 195.653 846.32 186.36 849.773 177.467C859.653 177.267 867.693 183.053 873.093 190.92C875.733 194.867 875.92 200.04 874.893 204.547C873.107 210.173 868.44 215.027 863.8 218.507C858.6 222.36 852.8 222.68 846.613 223.507C836.76 224.653 827.12 227.667 817.28 228.56C807.187 229.067 797.093 228.973 787.08 227.48C776.667 226.467 766.787 223.147 756.413 221.907C745.96 220.227 735.453 218.373 725.12 216.133C716.2 213.8 707.44 212.28 699.267 208.707C690.187 204.76 680.853 201.933 672.107 197.213C661.493 191.413 651.44 185.773 642.707 177.293C636.12 170.787 628.2 166.173 621.933 159.4C614.947 151.84 608.947 143.987 606.613 133.733C604.173 123.36 608.787 111.573 617.68 105.653C627.093 99.3866 638.187 97.0533 649.4 98.08Z" fill="#EE3F2F"/>
<path d="M929.267 105.253C935.813 108.427 942.053 111.28 949.52 111.213C953.587 111.347 957.12 108.8 960.627 107.04C966.813 113.08 965.4 122.253 960.733 128.72C956.987 133.52 951.44 138.04 945.333 139.173C939.293 139.267 933.067 135.2 928.76 131.213C921.56 124.253 920.813 111.653 929.267 105.253Z" fill="#FEFEFE"/>
<path d="M844.133 131.187C844.96 138.907 845.053 146.6 843.467 154.227C840.307 154.933 837.32 155.733 834.04 155.32C833.68 153.84 833.587 152.4 833.773 151C835.027 143.4 838.427 136.44 844.133 131.187Z" fill="#EE3F2F"/>
<path d="M600.493 146.053C604.267 151.587 608.04 157.147 612.693 161.973C618.213 167.773 624.44 172.253 630.587 177.44C635.68 181.747 640.547 186.147 645.96 190.053C669.613 206.747 697.027 217.173 724.973 224.147C748.587 230.72 772.973 234.88 797.427 236.587C808.827 236.92 820.36 236.987 831.773 236.56C838.867 236.32 845.867 233.72 852.92 233.867C857.213 235.747 860.28 241.507 862.507 245.453C871.373 263.52 877.04 283.013 875.36 303.32C874.88 306.867 872.48 310.36 870.773 313.467C867.387 319.347 864.253 326.293 864.653 333.213C864.933 338.733 866.187 344.24 867.147 349.68C858.987 350.44 851.493 348.533 844.973 354.6C846.6 356.053 848.147 358.107 850.147 359.027C853.773 359.493 857.68 358.56 861.32 358.307C867.067 357.693 872.773 358.253 878.52 358C881.787 358.187 885.307 354.707 884.533 351.373C881.88 347.987 877.307 345.587 875.333 341.787C872.747 335.573 874.133 328.24 876.867 322.293C879.04 317.36 881.667 313.04 887.027 311.187C892.733 308.653 900.933 310.16 902.947 316.747C904.68 324.147 901.333 332.987 900.373 340.453C902.96 340.853 905.04 342.24 907.48 340.907C914.467 337.52 919.387 332.653 927.667 332.2C932.027 331.467 935.587 333.933 937.8 337.52C938.267 343.147 933.48 348.68 929.627 352.293C924.56 357.147 918.547 358.893 912.08 361.08C913.107 363.987 913.24 367.36 916.773 368.267C922.187 369.12 929.107 367.493 934.733 369.2C938.613 370.373 941.867 373.533 944.907 376.133C944.173 377.907 943.427 379.747 942.56 381.467C940.413 386.307 934.307 389.093 929.32 389.68C923.173 389.373 917.813 387.467 911.653 389.52C914.04 394.107 918.213 397.347 920.667 401.773C924.373 414.173 916.773 428.307 904.64 432.613C901.093 433.747 896.88 432.027 893.96 430.027C891.013 427.947 890.013 423.76 889.333 420.413C887.587 409.24 889.053 399.013 890.12 387.987C888.4 387.213 886.68 386.44 884.96 385.667C877.947 390.88 874.013 397.093 866.12 400.787C859.573 404.12 852.587 403.32 845.427 403.44C844.413 404.68 843.387 405.933 842.387 407.187C845.973 409.347 849.013 410.2 853.16 410.627C853.027 416.6 851.96 421.507 849.653 427C841.4 447.627 830.733 467.573 817.187 485.227C809.307 495.733 799.147 504.8 788.733 512.733C783.56 516.787 777.373 518.987 772.027 522.667C768.907 524.613 769.653 528.427 770.107 531.52C772.293 539.227 777.427 546.24 784.28 550.44C791.36 554.88 798.787 556.933 804.853 563.147C810.667 569.12 812.96 577.12 812.68 585.32C812.747 598.76 807.56 609.947 801.56 621.6C797.373 629.653 790.96 636.733 785.333 644.08C779.307 651.907 771.6 656.64 763.707 662.387C758.933 665.8 753.853 668.52 747.973 669.387C736.453 671.133 724.213 670.6 713.8 664.893C707.773 661.587 700.827 658.333 696.587 652.773C689.227 643.387 686.413 630.44 687.907 618.733C690.293 606.227 697.747 594.133 705.667 584.32C711.253 577.04 718.8 571.08 727.107 567.187C731.627 565.053 737.56 565.613 741.627 562.84C742.08 560.84 742.32 558.773 742.6 556.747C739.2 555.12 735.52 553.64 732.44 551.467C728.48 548.56 725.88 543.72 722.027 540.627C719.84 540.453 717.48 541.533 715.4 542.147C706.88 545.227 697.213 545.76 688.147 547.28C676.947 549.213 665.947 548.693 654.653 548.773C646.893 548.8 639.147 547.107 631.333 546.213C615.2 544.227 600.613 539.48 584.96 535.387C578.773 533.773 572.787 531.587 566.88 529.16C558.293 525.64 549.987 522.947 542.08 517.973C534.48 513.24 526.227 508.92 519.253 503.4C512.333 497.92 505.747 492.027 499.88 485.413C490.133 474.92 481.213 464.573 475.347 451.333C467.52 435.32 463.067 418.107 459.56 400.693C457.693 389.88 456.973 378.88 455.747 367.987C454.04 349.533 457.067 332.28 459.733 314.107C462.267 300.853 466.307 287.813 471.44 275.333C479.853 255.733 489.893 237.227 502.867 220.24C509.387 211.613 517.413 204.507 524.4 196.307C527.88 192.187 532 188.827 536.213 185.507C542.32 180.693 547.467 175.573 554.227 171.6C559.533 168.493 564.893 165.493 569.987 162.013C579.28 155.573 590.227 151.16 600.493 146.053Z" fill="#018DCB"/>
<path d="M437.373 188.96C443.64 189.027 447.693 195.707 448.507 201.24C449.173 208.72 449.107 216.587 448.507 224.067C447.773 232.173 444.12 238.56 440.32 245.52C443.013 247.307 445.533 249.067 448.827 249.547C456.093 250.653 463.36 251.613 470.587 253.04C468.96 257.6 467.04 262.013 464.987 266.387C460.56 275.893 457.467 286.107 454.773 296.227C453.733 300.213 452.253 304.053 450.627 307.84C447.2 307.507 443.32 307.72 440.067 306.507C437.387 302.387 435.733 297.613 433.36 293.293C429.787 286.88 431.493 279.467 427.76 273.507C424.947 268.907 420.24 266.187 415.013 265.253C407.64 264.04 400.04 264.213 392.813 266.213C385.027 268.427 376.2 267.04 369.56 262.44C363.453 258 362.973 248.667 366.32 242.453C370.507 235.24 379.787 231.16 387.88 231.12C395.133 231.733 402.04 237.427 407.493 241.827C409.533 243.52 412.107 244.387 414.213 242.253C416.133 240.773 415.293 237.48 415.227 235.387C413.96 226.613 413.08 216.987 414.747 208.2C416.627 197.64 426.56 188.933 437.373 188.96Z" fill="#018DCB"/>
<path d="M611.32 194.293C622.267 191.293 632.467 203.333 629.533 213.787C627.853 224.027 620.667 231.52 611.733 236.133C608.147 237.587 603.76 237.293 600.04 236.56C593.36 235.16 588.387 229.2 587.373 222.587C586.787 217.64 589.387 212.333 592.147 208.36C596.667 201.92 603.453 195.973 611.32 194.293Z" fill="#0C141B"/>
<path d="M661.64 216.293C668.96 216.267 676.853 219.227 678.88 227.027C680.413 234.347 677.067 242.973 673.027 249.04C669.28 254.107 664.32 260.04 657.347 259.573C649.773 259.547 640.493 255.213 640.4 246.507C639.307 238.547 642.267 231.893 647.253 225.92C650.76 221.787 655.787 216.24 661.64 216.293Z" fill="#0C141B"/>
<path d="M405.813 273.44C411.24 271.533 417.293 273.92 419.68 279.173C421.48 282.907 420.16 286.733 418.627 290.28C415.28 298.96 402.933 302.173 395.68 296.453C390.893 293.373 390.12 286.613 392.133 281.72C394.6 277.16 401.12 274.88 405.813 273.44Z" fill="#018DCB"/>
<path d="M588 279.4C595.867 279.587 604.373 278.187 611.587 281.813C619.48 285.853 627.24 290.84 633.493 297.187C639.44 303.2 646.187 308.893 650.307 316.24C657.787 329.587 663.307 343.507 664.56 358.893C664.813 363.267 664.773 367.653 664.787 372.04C665.187 383.093 661.307 394.747 658.667 405.507C656.333 415.28 651.04 422.773 645.8 431.133C641.467 437.893 635.933 443.293 630.227 448.88C622.84 456.36 612.933 461.867 603.587 466.507C596.2 470.227 588.373 472.787 580.04 472.947C571.347 473.093 562.067 473.493 553.547 471.6C534.427 467.813 516.56 455.933 502.587 442.72C491.84 432.613 487.307 419.573 484.093 405.547C482.733 398.573 483.347 391.067 483.213 383.987C482.88 371.133 486.107 358.107 490.387 346.067C499.227 326.08 513.107 306.373 531.76 294.453C537.093 290.893 542.8 287.133 548.787 284.8C561.453 280.333 574.613 278.84 588 279.4Z" fill="#0C141B"/>
<path d="M424.6 299.307C427.907 303.227 429.227 307.907 427.92 312.933C426.347 320.573 418.213 325.973 410.693 326C404.72 325.587 399.84 319.973 398.213 314.507C397.773 312.76 397.427 309.733 399.147 308.573C403.693 306.693 408.947 306.627 413.64 305.107C417.507 303.92 421.08 301.32 424.6 299.307Z" fill="#018DCB"/>
<path d="M400.24 391.88C407.52 396.08 412.8 403.8 416.773 411.013C421.64 420.04 422.493 429.947 421.92 440.027C421.667 444.333 420.453 448.96 421.04 453.187C423.52 454.84 426.093 456 429.133 455.293C430.733 453.88 432.107 452.173 433.467 450.533C439.147 442.92 448.933 438.2 457.173 433.773C461.413 442.027 464.48 450.747 468.973 458.867C471.213 462.96 473.493 467.013 475.587 471.187C467.187 476.76 459.08 482.107 452.92 490.267C443.2 502.227 442.04 515.387 434.413 529.173C431.213 534.987 426.213 542.627 419.32 544.187C411.853 545.56 403.76 543.92 397.24 540.053C386.747 534.08 378.493 524.747 372.253 514.533C364.04 500.787 360.12 486.133 356.787 470.627C354.947 462.027 355.493 452.773 355.707 444.013C356.8 432.893 360.267 420.32 365.093 410.227C369.28 402.32 375.48 393.04 384.147 389.693C389.587 387.4 395.347 389.12 400.24 391.88Z" fill="#018DCB"/>
<path d="M459.093 538.693C460.733 540.027 462.267 541.2 462.92 543.307C464.387 547.747 465.787 553.667 463.507 558.027C461.187 563.44 456.347 567.333 450.853 569.227C444.187 571.12 436.053 568.613 434.88 560.907C438.093 562.813 440.693 565.827 444.067 567.373C453.04 568.427 461.227 560.893 461.533 552C461.173 547.427 459.573 543.227 459.093 538.693Z" fill="#0C141B"/>
<path d="M478.28 558.16C479.8 559.533 481.867 560.8 482.08 563.04C483.2 568.467 478.24 574.307 473.32 575.973C471.107 577.213 468.84 575.667 466.667 575.04C470.213 573.773 474.56 573.507 476.84 570.147C479.547 567.2 478.04 561.853 478.28 558.16Z" fill="#0C141B"/>
<path d="M487.96 583.467C489.173 583.2 490.387 582.947 491.6 582.72C491.427 584.12 491.253 585.52 491.067 586.92C490 585.787 488.947 584.667 487.96 583.467Z" fill="#0C141B"/>
<path d="M677.293 672.867C686.64 673.307 695.693 672.92 705.013 672.12C705.04 673.133 705.067 674.147 705.107 675.173C698.027 675.773 691.147 676.973 684 676.52C666.827 675.707 649.733 677.227 632.587 676.56C632.52 675.693 632.467 674.84 632.413 673.987C647.347 674.32 662.413 674.2 677.293 672.867Z" fill="#0C141B"/>
<path d="M600.653 673.093C600.72 674.427 600.8 675.773 600.867 677.107C599.227 677.013 597.587 676.907 595.947 676.8C596.987 673.84 597.88 673.92 600.653 673.093Z" fill="#0C141B"/>
<path d="M611.147 672.813C611.293 674.147 611.427 675.48 611.573 676.8C610.28 676.613 609 676.44 607.707 676.253C609.147 675.293 610.16 674.24 611.147 672.813Z" fill="#0C141B"/>
<path d="M623.04 674.013C623.107 674.947 623.187 675.88 623.253 676.813C620.787 676.6 618.333 676.36 615.867 676.04C618.227 674.96 620.4 674.173 623.04 674.013Z" fill="#0C141B"/>
<path d="M870.88 673.853C869.213 675.84 868.333 677.587 865.427 677.707C854.8 678.707 843.987 678.307 833.333 678.16C830.8 678.267 829.253 677.293 827.253 675.907C838.107 674.987 849.093 675.933 859.947 674.92C863.587 674.427 867.187 673.853 870.88 673.853Z" fill="#0C141B"/>
<path d="M812.973 676.373C812.827 677.64 812.693 678.907 812.56 680.173C800.4 681.36 788.04 681.053 775.84 680.813C773.133 680.987 771.147 679.733 768.867 678.493C778.107 677.253 787.6 678.213 796.907 677.613C802.267 677.213 807.627 676.853 812.973 676.373Z" fill="#0C141B"/>
<path d="M662.507 684.653C663.6 685.333 664.68 686.04 665.747 686.747C659.773 689.227 653.907 687.853 647.747 689.133C642.72 689.28 637.707 689.24 632.707 688.64C637.227 686.373 641.827 686.64 646.68 685.933C651.867 685.133 657.253 684.427 662.507 684.653Z" fill="#0C141B"/>
<path d="M616.787 685.453C618.013 686.387 619.16 687.4 620.32 688.413C618.853 688.613 617.373 688.813 615.907 689C616.187 687.813 616.48 686.627 616.787 685.453Z" fill="#0C141B"/>
<path d="M646.68 685.933C641.827 686.64 637.227 686.373 632.707 688.64C637.707 689.24 642.72 689.28 647.747 689.133C639.6 690.547 630.667 688.853 622.44 688.04C630.507 687.107 638.587 686.533 646.68 685.933Z" fill="#0C141B"/>
<path d="M680.827 685.267C682.853 686.733 684.667 688.427 686.507 690.107C684.6 689.573 682.693 689.04 680.8 688.427C680.787 687.373 680.8 686.32 680.827 685.267Z" fill="#0C141B"/>
<path d="M742.507 686.413C751.96 687.427 761.507 687.653 771 687.64C780.627 686.973 790.253 687.613 799.947 687.68C805.6 687.64 810.467 688.907 816.027 688.067C820.893 687.32 825.773 687.387 830.667 687.04C842.507 685.627 854.72 686.52 866.667 686.093C868.893 686.053 872.587 686.213 870.867 689.467C862.4 690.053 853.827 689.48 845.333 689.693C839.147 689.933 833.227 688.24 827.32 689.4C822.333 690.187 817.013 690.093 811.987 690.413C799.627 692.067 787.387 690.587 774.693 691C768.787 691.253 763.2 691.08 757.333 690.387C741.32 689.587 725.24 689.467 709.213 689.987C706.413 690.053 703.64 689.853 700.88 689.52C704.12 687.827 706.84 687.08 710.573 687.307C721.373 687.827 731.72 685.453 742.507 686.413Z" fill="#0C141B"/>
<path d="M697.973 687.533C698.067 688.387 698.173 689.24 698.28 690.093C694.76 690.027 691.253 689.96 687.747 689.6C690.88 686.893 694.133 687.747 697.973 687.533Z" fill="#0C141B"/>
<path d="M798.64 698.493C797.293 700.6 797.747 702.467 794.653 702.053C766.667 700.867 738.8 703.173 710.8 701.827C704.627 701.413 698.507 701.84 692.333 702.12C692.44 701.133 692.547 700.16 692.653 699.173C697.347 699.693 701.907 699.747 706.613 699.4C717.4 698.547 727.92 700.2 738.707 699.267C758.733 698.907 778.413 697.4 798.64 698.493Z" fill="#0C141B"/>
<path d="M655.107 698.507C655.227 699.707 655.333 700.907 655.453 702.107C654.133 702.027 652.827 701.947 651.507 701.853C652.533 700.36 653.56 699.427 655.107 698.507Z" fill="#0C141B"/>
<path d="M658.427 699.613C661.987 699.52 665.56 699.427 669.12 699.507C669.747 700.36 670.373 701.2 671 702.04C667.427 702.053 663.827 702.013 660.28 701.587C659.653 700.933 659.04 700.28 658.427 699.613Z" fill="#0C141B"/>
<path d="M669.12 699.507C675.48 700.04 681.76 699.587 688.12 699.4C688.427 700.32 688.747 701.24 689.067 702.173C683.04 702.107 677.027 701.827 671 702.04C670.373 701.2 669.747 700.36 669.12 699.507Z" fill="#0C141B"/>
</svg>
