<svg width="1330" height="730" viewBox="0 0 1330 730" fill="none" xmlns="http://www.w3.org/2000/svg">
<g clip-path="url(#clip0_2_1311)">
<path d="M0 0H1330V730H0V0Z" fill="white"/>
<path d="M699.669 56.5918C706.203 56.0105 713.394 54.6962 718.436 59.8017C716.502 62.6198 719.99 66.095 721.127 68.6351C720.369 67.9779 719.611 67.3208 718.853 66.6637C717.943 65.8549 717.033 65.0714 716.085 64.3131C712.812 61.4066 709.451 59.7006 704.99 61.0907C696.624 63.6434 689.231 70.2147 683.127 76.2679C681.548 80.2613 682.066 84.0777 681.952 88.1848C680.764 86.0491 679.412 84.0146 678.148 81.9168C677.807 85.8975 677.87 89.9161 677.997 93.9095L677.289 94.7309C677.618 89.7518 678.919 82.7256 675.457 78.6311C672.992 75.4718 669.871 72.4136 665.549 72.5905C660.583 72.2493 657.234 75.0927 653.67 78.0624C650.17 81.1712 646.707 85.0255 646.037 89.8403C645.608 93.5556 645.898 97.3847 646.593 101.05C645.608 96.6012 645.772 91.8496 645.481 87.3255C643.952 89.4991 642.297 91.5716 640.755 93.7326C641.02 90.3584 641.248 86.959 641.804 83.6102C642.613 80.6151 644.963 76.8998 642.297 74.1954C639.036 70.1515 634.879 66.3477 630.076 64.25C627.688 63.6055 624.933 63.9593 622.481 64.1362C625.704 61.0275 629.596 60.661 633.868 60.5346C639.959 63.0873 643.32 68.8878 649.057 71.6806C652.609 70.3664 655.654 68.0032 659.167 66.6889C661.707 66.2972 664.336 66.3225 666.901 66.3856C671.084 66.0444 674.395 69.9493 678.224 71.5543C679.842 71.4784 681.295 69.9367 682.521 68.9763C687.626 64.2247 693.338 59.5742 699.669 56.5918Z" fill="#000612"/>
<path d="M620.22 58.1462C625.338 56.1748 629.457 57.9692 633.868 60.5346C629.596 60.661 625.704 61.0275 622.482 64.1362C618.185 68.2054 614.394 72.4262 612.195 77.9992C608.126 88.526 604.6 98.4083 607.658 109.832C609.276 114.445 614.217 116.239 618.779 115.784C626.387 114.95 633.855 111.273 640.111 106.964C642.373 105.447 644.685 104.247 647.289 103.4C651.686 105.409 655.452 107.697 660.52 106.901C667.243 105.612 672.942 99.672 677.289 94.7309L677.997 93.9095C681.08 94.971 681.914 97.1699 683.406 99.8237C685.225 103.147 688.663 105.738 691.531 108.139C696.22 111.88 700.87 115.203 707.176 115.014C714.127 114.887 719.826 110.578 723.276 104.765C730.037 94.0611 727.964 78.8206 721.128 68.6351C719.99 66.095 716.503 62.6197 718.436 59.8016C726.183 65.5768 731.92 75.0421 732.021 84.836C732.021 88.0584 733.398 90.7628 736.444 92.0392C745.075 95.3248 754.288 97.0561 762.919 100.279C760.872 101.353 760.164 102.174 759.292 104.297C753.732 102.313 747.994 101.037 742.371 99.2045C739.325 98.2314 736.28 97.6122 733.07 97.9913C730.505 102.023 729.557 107.052 727.535 111.387C722.998 116.214 717.779 120.675 711.094 122.002C704.358 122.735 697.041 119.462 691.67 115.595C687.386 112.65 683.962 108 679.4 105.662C678.338 105.713 677.327 106.104 676.367 106.85C670.971 110.591 664.842 114.976 657.954 114.698C654.049 114.685 650.41 111.905 646.593 111.981C637.874 116.29 629.685 120.928 620.119 123.24C613.623 124.858 607.127 120.422 602.919 115.873C599.09 111.766 599.684 105.713 598.787 100.569C597.018 98.7369 594.781 99.2297 592.506 99.5962C583.976 101.656 576.091 105.03 568.079 108.505C558.323 112.436 548.883 117.314 539.531 122.09C537.383 122.381 535.234 122.621 533.061 122.609C534.994 121.345 534.438 119.272 536.132 117.895L534.325 117.781C545.016 111.804 556.023 106.42 567.295 101.643C573.437 98.7242 579.717 96.1842 586.251 94.2886C590.724 93.0249 595.602 92.8227 599.95 91.2683C603.854 85.1013 604.802 77.2915 608.593 70.9729C611.449 66.1834 615.089 60.7115 620.22 58.1462Z" fill="#010201"/>
<path d="M704.99 61.0906C709.451 59.7005 712.812 61.4066 716.085 64.3131C710.879 63.2642 705.799 61.9752 700.782 64.49C695.474 67.1312 690.28 70.9856 686.476 75.535C684.353 77.7338 685.743 81.4239 685.807 84.1662C686.552 89.4106 684.998 94.377 685.2 99.5583C686.805 102.882 690.621 105.308 693.541 107.431C697.521 109.971 702.399 113.421 707.227 113.649C712.85 113.51 718.284 109.832 721.128 105.081C724.325 99.6594 726.182 93.5809 725.437 87.2496C724.906 79.68 721.835 73.4624 718.853 66.6636C719.611 67.3208 720.369 67.9779 721.128 68.635C727.964 78.8206 730.037 94.0611 723.276 104.765C719.826 110.578 714.127 114.887 707.176 115.014C700.87 115.203 696.22 111.88 691.531 108.139C688.663 105.738 685.225 103.147 683.405 99.8237C684.454 91.7232 684.972 84.3431 683.127 76.2679C689.231 70.2147 696.624 63.6433 704.99 61.0906Z" fill="#1A5F71"/>
<path d="M716.085 64.3131C717.033 65.0714 717.943 65.8549 718.853 66.6636C721.835 73.4625 724.906 79.68 725.437 87.2497C726.182 93.5809 724.325 99.6594 721.128 105.081C718.284 109.832 712.85 113.51 707.227 113.649C702.399 113.421 697.521 109.971 693.541 107.431C690.621 105.308 686.805 102.882 685.2 99.5583C684.998 94.377 686.552 89.4106 685.807 84.1662C685.743 81.4239 684.353 77.7338 686.476 75.535C690.28 70.9856 695.474 67.1312 700.782 64.49C705.799 61.9752 710.879 63.2642 716.085 64.3131Z" fill="#36A6C9"/>
<path d="M622.482 64.1362C624.933 63.9593 627.688 63.6054 630.077 64.2499C634.879 66.3477 639.036 70.1515 642.297 74.1954C644.963 76.8998 642.613 80.6151 641.804 83.6101C639.997 86.8958 637.861 89.676 638.581 93.6567C639.213 98.0924 640.035 102.452 640.11 106.964C633.855 111.273 626.386 114.95 618.779 115.784C614.217 116.239 609.276 114.445 607.658 109.832C604.6 98.4083 608.126 88.526 612.195 77.9992C614.394 72.4262 618.185 68.2054 622.482 64.1362Z" fill="#389FBF"/>
<path d="M704.068 69.1658C708.149 67.8009 712.623 69.8229 714.948 73.3108C717.299 76.7986 718.739 80.9563 719.738 85.0128C721.899 93.1512 717.046 102.616 709.527 106.168C707.214 107.254 704.977 106.736 702.652 106.028C698.671 104.613 694.842 103.071 693.427 98.7116C691.443 92.5825 690.419 85.1771 692.29 78.9217C694.754 74.663 699.607 71.1119 704.068 69.1658Z" fill="#039CCD"/>
<path d="M625.906 71.7059C629.546 69.7471 636.433 72.6284 636.243 77.3673C636.736 82.4601 636.243 87.7046 635.877 92.81C635.397 96.6012 635.359 100.784 632.376 103.564C629.331 106.534 625.287 109.125 621.028 109.769C618.185 110.11 614.596 109.264 613.838 106.079C612.435 100.632 612.89 94.5919 614.078 89.1452C615.367 82.1189 620.232 75.8382 625.906 71.7059Z" fill="#059DD2"/>
<path d="M665.549 72.5905C669.871 72.4135 672.992 75.4718 675.456 78.6311C678.919 82.7255 677.617 89.7518 677.289 94.7309C672.942 99.672 667.242 105.611 660.519 106.9C655.452 107.697 651.686 105.409 647.288 103.4C647.035 102.616 646.808 101.833 646.593 101.049C645.898 97.3847 645.607 93.5556 646.037 89.8403C646.707 85.0255 650.169 81.1711 653.67 78.0624C657.234 75.0926 660.582 72.2493 665.549 72.5905Z" fill="#3BA6C9"/>
<path d="M683.128 76.2679C684.973 84.3431 684.454 91.7233 683.406 99.8237C681.914 97.1699 681.08 94.971 677.997 93.9095C677.871 89.9161 677.807 85.8975 678.149 81.9168C679.412 84.0146 680.764 86.0491 681.952 88.1848C682.066 84.0777 681.548 80.2613 683.128 76.2679Z" fill="#011F42"/>
<path d="M663.59 79.3387C667.394 78.492 672.12 83.5469 671.64 87.4013C671.893 93.1133 667.205 97.3341 662.314 99.3182C658.194 100.999 653.354 99.394 650.877 95.7418C649.5 87.9447 657.525 82.2958 663.59 79.3387Z" fill="#049BCB"/>
<path d="M641.804 83.6101C641.248 86.959 641.02 90.3584 640.755 93.7325C642.297 91.5715 643.952 89.499 645.481 87.3254C645.772 91.8496 645.608 96.6012 646.593 101.049C646.808 101.833 647.036 102.616 647.288 103.4C644.685 104.247 642.373 105.447 640.111 106.964C640.035 102.452 639.213 98.0923 638.581 93.6567C637.861 89.676 639.997 86.8958 641.804 83.6101Z" fill="#002F43"/>
<path d="M733.07 97.9913C736.28 97.6122 739.325 98.2314 742.371 99.2044C747.994 101.037 753.732 102.313 759.292 104.297C767.683 107.52 776.024 110.376 784.2 114.217C792.793 118.261 801.399 121.737 809.512 126.741C803.396 124.656 797.722 121.572 791.618 119.538C792.945 124.176 796.572 123.948 800.338 125.755C804.533 127.297 807.579 129.951 811.155 132.503C815.843 135.979 821.277 138.595 826.092 141.628C832.12 145.431 837.466 150.486 842.938 155.187C849.711 161.253 857.319 165.777 863.625 172.399C867.934 176.923 872.37 181.321 876.641 185.883C881.228 191.153 884.097 197.636 888.495 203.108C893.562 209.401 896.241 216.983 901.018 223.453C903.584 226.941 904.986 230.834 906.136 234.966C907.337 239.313 909.574 243.092 911.393 247.173C914.161 253.53 913.959 260.86 915.753 267.14C916.752 270.805 920.176 273.876 921.743 277.288C922.742 281.433 922.539 285.843 923.26 290.064C923.955 295.195 925.711 300.667 924.144 305.747C922.653 310.663 920.138 315.301 918.078 320.002C910.483 319.812 903.103 318.409 895.471 318.991C886.157 319.749 876.868 319.294 867.542 319.383C863.498 319.244 859.227 319.42 856.384 316.021C853.578 312.975 854.412 309.45 854.741 305.722C856.093 296.825 855.903 287.878 856.839 278.918C858.292 263.994 855.575 249.334 856.737 234.498C857.268 225.93 856.535 217.274 856.283 208.706C855.714 202.425 855.006 194.818 849.092 191.153C848.852 192.353 848.624 193.566 848.409 194.767C847.019 191.481 845.124 188.714 841.939 186.945C840.941 186.313 839.892 185.896 838.818 185.693C827.23 186.022 819.066 194.325 808.021 194.502C798.126 194.893 788.256 194.502 778.349 195.374C764.852 196.536 751.368 196.65 737.859 198.065C734.599 198.343 731.566 199.354 728.47 200.378C734.283 200.858 740.172 200.757 746.01 200.795C755.741 202.261 765.876 202.172 775.682 201.49C761.276 203.739 746.895 202.248 732.438 203.386C723.2 204.94 713.975 203.967 704.699 205.016C698.279 205.774 692.138 204.599 685.743 204.536C665.954 204.485 646.138 204.712 626.348 204.068C619.55 203.095 612.789 203.133 605.965 202.691C594.793 200.985 583.066 202.526 571.743 201.414C582.775 201.566 593.82 201.022 604.865 200.947C609.882 200.883 615.013 201.022 620.005 200.504C619.676 198.179 617.945 198.331 616.1 197.699C608.922 196.005 600.847 196.359 593.492 196.296C582.914 196.372 572.312 195.765 561.734 195.462C550.664 195.336 540.87 191.936 529.775 194.679C527.627 194.274 525.466 193.857 523.33 193.402C523.886 192.429 524.404 191.456 524.897 190.445C522.306 188.145 518.389 187.854 515.103 187.235C505.107 186.009 496.943 182.13 486.733 184.961C483.915 184.506 480.806 183.836 477.962 184.215C475.764 185.934 474.108 188.461 472.49 190.71C471.164 190.382 469.685 189.51 468.32 189.75C465.73 197.724 465.654 206.697 464.82 214.999C463.847 225.159 463.43 235.282 464.453 245.455C465.995 260.253 463.682 274.761 464.466 289.597C464.567 297.71 465.793 307.706 462.57 315.313C460.46 319.939 457.01 324.26 452.739 327.053C448.745 329.555 443.766 329.088 439.28 328.911C429.094 327.9 418.985 329.315 408.799 327.988C403.163 327.255 398.866 327.673 393.521 329.416C391.132 329.075 388.895 328.317 386.621 327.546C384.22 323.136 380.959 319.433 378.141 315.326C376.422 312.975 377.13 310.069 377.244 307.352C378.015 304.761 378.874 302.209 379.708 299.643C379.898 300.856 380.112 302.057 380.365 303.245C381.755 302.562 383.537 301.88 384.359 300.503C386.974 296.181 387.771 290.33 389.363 285.54C390.829 280.384 395.264 276.846 397.299 271.702C400.307 264.31 404.25 257.41 407.447 250.105C411.023 242.447 416.571 235.598 421.209 228.521C429.992 216.667 438.648 204.915 448.72 194.097C453.08 189.611 458.362 186.098 462.886 181.738C470.557 174.497 478.784 168.077 487.251 161.809C494.58 156.363 500.343 150.549 508.001 146.088C514.711 142.133 521.624 138.519 528.36 134.601C539.126 128.068 550.235 120.498 562.253 116.581C568.925 113.788 573.803 109.226 581.158 107.684C587.274 106.054 593.77 108.682 597.561 113.611C599.987 116.543 601.807 120.448 604.752 122.849C612.144 127.006 620.952 128.043 629.129 125.78C635.106 124.618 639.592 120.574 645.254 118.906C651.737 117.604 658.637 119.007 665.208 117.427C671.703 116.227 676.581 112.474 683.317 114.963C692.871 117.453 698.039 125.793 707.429 126.286C712.989 126.791 718.246 125.389 722.366 121.509C728.318 116.72 732.008 108.139 738.794 104.879C741.12 103.501 744.089 105.296 746.465 105.927C752.354 108.076 758.496 107.431 764.258 109.706C768.113 111.235 771.689 113.421 775.531 115.001C780.421 117.01 785.363 117.971 790.506 119.02C784.187 115.241 777.603 112.145 770.564 109.959C763.134 107.684 756.638 103.956 748.917 102.579C744.089 101.681 739.666 99.7858 735.003 98.383C733.992 98.8632 733.335 99.5583 733.044 100.443C731.364 104.373 730.656 108.227 727.535 111.387C729.557 107.052 730.504 102.023 733.07 97.9913Z" fill="#FEF82F"/>
<path d="M735.003 98.3831C739.666 99.7858 744.089 101.681 748.917 102.579C756.638 103.956 763.134 107.684 770.564 109.959C777.603 112.145 784.187 115.241 790.506 119.02C785.362 117.971 780.421 117.01 775.531 115.001C771.689 113.421 768.113 111.235 764.258 109.706C758.496 107.431 752.354 108.076 746.465 105.927C744.089 105.296 741.119 103.501 738.794 104.879C732.008 108.139 728.318 116.72 722.366 121.509C718.246 125.389 712.989 126.791 707.429 126.286C698.039 125.793 692.871 117.453 683.317 114.963C676.581 112.474 671.703 116.227 665.208 117.427C658.636 119.007 651.737 117.604 645.254 118.906C639.592 120.574 635.106 124.618 629.129 125.781C620.952 128.043 612.144 127.006 604.751 122.849C601.807 120.448 599.987 116.543 597.561 113.611C593.77 108.682 587.274 106.054 581.158 107.684C573.803 109.226 568.925 113.788 562.252 116.581C550.234 120.498 539.126 128.068 528.359 134.601C521.624 138.519 514.711 142.133 508.001 146.089C500.343 150.549 494.58 156.363 487.251 161.809C478.784 168.077 470.557 174.497 462.886 181.738C458.362 186.098 453.08 189.611 448.72 194.097C438.648 204.915 429.991 216.667 421.209 228.521C416.571 235.598 411.023 242.447 407.447 250.105C404.249 257.41 400.307 264.31 397.299 271.702C395.264 276.846 390.829 280.384 389.363 285.54C387.771 290.33 386.974 296.181 384.358 300.503C383.537 301.88 381.755 302.562 380.365 303.245C380.112 302.057 379.898 300.856 379.708 299.643C382.033 292.503 385.66 285.869 388.276 278.817C392.914 266.685 399.473 255.729 405.336 244.204C410.341 234.751 416.659 226.423 423.268 218.057C430.623 208.339 438.18 198.331 447.014 189.876C457.604 180.55 467.334 170.718 478.67 162.239C488.83 154.909 498.472 147.137 509.568 141.185C519.476 134.69 529.118 127.828 539.531 122.09C548.882 117.314 558.322 112.436 568.078 108.505C576.09 105.03 583.976 101.656 592.506 99.5962C594.781 99.2298 597.017 98.7369 598.787 100.569C599.684 105.713 599.09 111.766 602.919 115.873C607.127 120.422 613.623 124.858 620.118 123.24C629.685 120.928 637.874 116.29 646.593 111.981C650.41 111.905 654.049 114.685 657.954 114.698C664.841 114.976 670.97 110.591 676.366 106.85C677.327 106.104 678.338 105.713 679.399 105.662C683.961 108 687.386 112.65 691.67 115.595C697.041 119.462 704.358 122.735 711.094 122.002C717.779 120.675 722.998 116.214 727.535 111.387C730.656 108.227 731.364 104.373 733.044 100.443C733.335 99.5583 733.992 98.8633 735.003 98.3831Z" fill="#F9F767"/>
<path d="M762.919 100.279C782.759 107.848 803.105 116.138 821.113 127.663C827.343 132.2 834.281 135.385 840.233 140.263C845.187 144.142 850.368 147.668 855.145 151.775C866.051 160.381 875.681 170.984 885.285 181.018C894.169 190.521 900.323 201.376 906.882 212.522C915.627 229.077 922.969 246.466 928.277 264.423C931.158 275.089 934.027 285.692 935.998 296.56C938.589 303.864 938.007 311.168 938.184 318.776C937.982 320.495 938.525 323.047 936.428 323.73C931.866 325.613 926.887 326.56 922.173 328.014C916.233 327.963 910.294 328.077 904.354 328.052C897.037 327.875 890.251 330.655 882.896 330.668C877.526 331.059 871.965 329.707 866.759 330.844C866.228 336.594 869.956 339.83 871.384 345.175C873.153 351.633 874.328 358.305 874.897 364.99C874.935 367.075 876.249 367.72 877.766 368.794C878.903 368.567 879.952 368.2 880.912 367.695C881.607 361.363 879.8 354.009 881.393 347.854C884.249 342.66 889.493 338.515 894.548 335.558C898.693 334.623 902.75 334.37 906.996 334.509C909.776 336.43 912.986 338.048 914.704 341.106C917.295 345.453 915.753 350.887 917.56 355.879C923.424 357.673 926.558 353.351 932.093 353.2C936.63 353.174 940.8 352.96 944.793 355.5C949.368 358.684 954.271 361.502 953.374 367.96C953.93 374.354 948.357 376.402 946.36 381.899C949.962 385.159 954.385 386.853 957.999 390.113C960.919 392.805 964.027 395.939 965.658 399.591C966.58 404.671 962.347 410.206 958.897 413.568C954.398 417.662 948.585 415.413 944.136 417.473C943.504 421.87 946.929 425.257 946.853 429.857C947.422 436.226 943.959 441.749 939.031 445.464C933.041 449.874 925.876 453.236 918.255 451.707C913.895 449.988 909.675 447.6 906.174 444.466C902.762 441.37 901.258 437.288 898.086 434.015C894.194 434.394 890.542 437.212 886.751 438.008C881.216 438.918 875.529 437.326 870.133 438.248C868.654 446.045 867.53 454.019 865.407 461.678C861.641 471.876 857.23 481.872 852.832 491.817C848.637 501.144 842.938 509.585 836.568 517.547C830.237 524.914 822.617 531.599 815.199 537.855C808.211 543.63 800.439 547.434 792.642 551.945C778.096 559.755 762.186 566.554 745.947 569.827C732.488 573.959 717.147 572.721 703.385 570.762C700.668 573.226 699.518 576.739 698.128 580.025C696.586 584.157 694.589 587.658 695.171 592.258C702.526 593.193 707.441 588.441 714.746 588.189C721.936 587.923 730.037 587.519 736.886 589.983C741.12 591.373 745.53 592.473 749.258 594.987C754.907 598.842 760.012 603.833 763.614 609.672C766.824 614.588 767.038 621.285 765.32 626.757C762.021 636.589 751.482 641.328 743.546 646.813C740.551 648.607 737.101 650.894 733.6 651.4C729.872 651.779 725.993 651.425 722.265 651.918C718.335 652.777 714.834 655.52 711.018 656.644C708.2 657.125 705.104 656.682 702.311 656.189C696.22 654.964 690.027 654.332 683.797 654.673C674.774 653.03 665.991 650.301 657.765 646.219C655.224 644.993 653.481 644.399 650.789 645.625C647.402 647.925 644.028 650.212 640.452 652.221C637.697 653.649 635.548 655.734 633.362 657.883C626.614 658.275 619.689 658.401 612.966 657.58C607.86 653.915 603.096 655.722 597.27 655.444C591.356 655.343 585.429 655.836 579.515 655.545C574.624 655.254 570.694 653.295 566.12 652.032C562.745 651.16 559.144 651.691 555.795 651.021C554.076 650.01 552.547 648.797 550.968 647.571C544.03 642.124 536.27 639.104 531.165 631.231C527.627 624.988 524.215 617.899 524.543 610.556C524.341 603.796 528.309 597.565 532.618 592.675C536.043 588.707 540.378 586.95 544.914 584.536C552.863 580.644 560.344 576.714 569.468 576.802C576.646 576.904 583.9 576.84 591.053 577.346C597.927 577.927 602.363 582.199 609.301 580.985C609.427 578.117 610.59 571.76 608.29 569.726C602.565 569.069 596.714 569.877 590.964 569.17C584.646 568.298 578.403 567.072 572.021 566.655C565.083 565.631 558.108 565.821 551.182 564.62C543.373 563.976 536.485 560.943 528.789 559.54C510.238 555.572 494.163 547.775 476.787 540.205C465.161 534.506 453.61 527.505 444.474 518.229C431.091 505.731 418.947 490.187 412.969 472.697C409.317 463.535 405.652 454.677 404.085 444.845C403.125 438.804 400.812 433.155 399.801 427.153C397.438 410.952 397.628 394.346 398.512 378.044C399.296 365.066 404.553 351.696 403.289 338.882C399.637 335.735 392.901 336.43 388.327 335.242C379.86 333.347 369.068 330.048 364 322.453C364.152 320.141 365.125 318.182 365.997 316.084C369.624 307.718 371.772 298.632 375.601 290.342C381.048 278.046 385.673 265.75 392.219 253.998C400.585 237.279 410.619 221.545 422.498 207.101C429.6 198.546 436.285 189.876 444.486 182.294C449.326 177.871 454.242 173.537 459.07 169.101C470.557 158.524 483.775 149.804 496.754 141.185C509.656 133.843 520.954 124.34 534.324 117.781L536.131 117.895C534.438 119.272 534.994 121.345 533.061 122.609C535.234 122.621 537.382 122.381 539.531 122.09C529.118 127.828 519.476 134.69 509.568 141.185C498.473 147.137 488.83 154.909 478.67 162.239C467.334 170.718 457.604 180.55 447.014 189.876C438.18 198.331 430.623 208.339 423.269 218.057C416.659 226.423 410.341 234.751 405.336 244.204C399.473 255.729 392.914 266.685 388.276 278.817C385.66 285.869 382.033 292.503 379.708 299.643C378.874 302.209 378.015 304.761 377.244 307.352C376.081 311.257 374.274 314.922 373.111 318.827C372.505 320.697 373.743 322.403 374.754 323.869C385.243 331.426 396.92 331.224 409.191 332.866C422.169 333.435 435.223 333.258 448.214 333.246C453.156 333.056 459.765 332.765 463.265 328.734C467.777 323.578 468.143 316.362 468.548 309.867C468.914 298.481 468.586 287.082 468.548 275.696C468.067 265.978 467.524 256.323 468.194 246.605C468.952 237.203 468.826 227.902 470.342 218.563C471.429 211.966 471.757 205.294 472.655 198.672C473.261 194.312 474.462 189.662 477.823 186.591C482.6 185.896 487.857 187.248 492.558 188.145C503.553 190.609 514.572 193.01 525.516 195.664C529.686 196.663 533.895 196.814 538.153 196.941C549.35 198.356 560.572 199.885 571.743 201.414C583.066 202.526 594.793 200.985 605.965 202.691C612.789 203.133 619.55 203.095 626.348 204.068C646.138 204.713 665.953 204.485 685.743 204.536C692.138 204.599 698.279 205.774 704.699 205.016C713.975 203.967 723.2 204.94 732.438 203.386C746.895 202.248 761.276 203.739 775.682 201.49C783.593 200.58 791.201 200.858 798.796 198.065C802.764 197.99 806.644 197.636 810.574 197.08C815.287 196.89 819.824 197.016 824.449 195.803C829.984 194.577 835.507 191.911 841.156 191.443C844.125 191.203 845.566 193.301 846.653 195.727C850.179 204.536 850.924 213.293 851.607 222.645C853.174 239.882 853.818 257.915 850.912 275.026C848.978 287.688 848.965 300.515 847.07 313.203C847.032 316.286 845.566 320.57 848.725 322.567C851.72 324.69 856.586 324.273 860.099 324.501C870.613 324.425 881.835 325.196 892.122 323.022C902.787 321.43 913.137 322.858 923.613 319.989C926.204 319.395 928.39 318.182 930.008 316.034C931.032 308.628 929.3 300.856 927.872 293.603C926.394 286.602 925.383 279.853 923.348 273.055C919.127 258.85 915.564 244.911 909.296 231.44C903.76 217.211 895.875 204.27 886.991 191.911C880.862 184.152 874.063 177.113 867.391 169.834C859.404 161.342 848.814 154.454 839.816 146.948C830.54 139.302 819.799 132.933 809.512 126.741C801.399 121.737 792.793 118.261 784.2 114.217C776.024 110.376 767.683 107.52 759.292 104.297C760.164 102.174 760.872 101.353 762.919 100.279Z" fill="#060000"/>
<path d="M746.756 109.807C753.378 111.336 759.924 113.219 766.331 115.456C772.687 117.769 778.829 118.881 784.629 122.52C788.749 125.073 793.084 126.943 797.595 128.649C802.258 130.406 806.062 133.3 810.131 136.067C815.515 139.77 821.416 142.424 826.85 146.038C833.005 150.094 837.819 155.023 843.241 159.914C848.826 164.956 855.208 168.785 860.933 173.701C865.722 177.77 869.488 182.661 873.848 187.45C878.221 192.277 881.089 197.61 884.855 202.905C889.569 209.527 892.855 216.756 896.974 223.744C901.334 231.061 903.306 238.858 906.768 246.731C909.902 253.972 910.256 261.327 912.354 268.808C914.957 278.779 919.671 286.867 920.606 297.331C920.96 302.474 921.629 307.706 917.497 311.573C913.58 316.223 905.555 313.797 899.982 314.669C887.989 316.552 875.959 316.577 863.865 316.211C861.135 315.743 857.786 316.337 857.116 312.874C856.889 308.098 858.532 303.257 858.709 298.455C859.012 291.53 858.848 284.605 859.619 277.705C860.705 267.102 859.77 256.5 860.92 245.91C861.438 240.64 862.02 235.522 861.186 230.24C860.39 225.235 859.416 220.319 859.442 215.214C859.442 207.556 859.189 198.899 855.221 192.113C852.39 187.956 848.018 184.645 843.658 182.218C841.522 180.841 839.083 182.269 836.91 182.787C829.946 185.314 822.68 185.188 815.919 188.398C807.288 192.227 798.695 191.279 789.356 192.315C778.033 193.566 766.685 193.086 755.324 193.92C741.044 194.805 727.724 194.16 713.773 196.347C706.873 197.433 700.251 196.46 693.376 196.081C674.888 195.462 656.703 197.181 638.24 195.551C622.507 194.274 606.761 194.54 591.027 193.718C583.306 193.453 576.027 194.893 568.318 193.579C555.428 191.33 542.766 191.355 530.205 187.374C521.434 185.605 512.79 184.316 504.147 181.839C494.656 180.714 485.823 177.757 476.623 175.394C480.856 170.188 486.063 166.118 491.724 162.58C496.109 159.863 499.875 156.438 503.856 153.203C508.886 149.121 514.522 147.34 520.082 144.155C528.018 139.593 535.626 134.462 543.423 129.685C548.617 126.93 554.051 124.226 559.397 121.775C564.489 119.79 569.569 118.072 574.119 114.938C578.112 112.436 585.252 109.024 589.84 111.298C596.158 116.126 599.166 123.531 606.685 127.385C615.076 132.541 623.733 129.824 632.705 128.232C638.126 127.385 641.955 123.973 646.897 122.154C651.711 121.256 656.867 122.053 661.771 121.661C666.876 121.408 671.211 119.614 676.038 118.211C678.3 117.579 680.461 117.162 682.698 118.148C688.625 120.776 692.871 126.122 699.076 128.599C706.329 131.935 715.542 130.204 722.315 126.501C728.318 122.065 732.425 113.611 739.692 109.782C741.688 108.67 744.62 109.415 746.756 109.807Z" fill="#FEEC03"/>
<path d="M791.618 119.538C797.722 121.572 803.396 124.656 809.512 126.741C819.799 132.933 830.54 139.302 839.816 146.948C848.814 154.454 859.404 161.342 867.391 169.834C874.063 177.113 880.862 184.152 886.991 191.911C895.875 204.27 903.761 217.211 909.296 231.44C915.564 244.911 919.127 258.85 923.348 273.055C925.383 279.853 926.394 286.602 927.872 293.603C929.3 300.856 931.032 308.628 930.008 316.034C928.39 318.182 926.204 319.395 923.614 319.989C921.768 320.052 919.923 320.052 918.078 320.002C920.138 315.301 922.653 310.663 924.144 305.747C925.711 300.667 923.955 295.195 923.26 290.064C922.539 285.843 922.742 281.433 921.743 277.288C920.176 273.876 916.752 270.805 915.753 267.14C913.959 260.86 914.161 253.53 911.393 247.174C909.574 243.092 907.337 239.313 906.136 234.966C904.986 230.834 903.584 226.941 901.018 223.453C896.241 216.983 893.562 209.401 888.495 203.108C884.097 197.636 881.228 191.153 876.641 185.883C872.37 181.321 867.934 176.923 863.625 172.399C857.319 165.777 849.711 161.253 842.938 155.187C837.466 150.486 832.12 145.431 826.092 141.628C821.277 138.595 815.843 135.979 811.155 132.503C807.579 129.951 804.533 127.297 800.338 125.755C796.572 123.948 792.945 124.176 791.618 119.538Z" fill="#FBF96A"/>
<path d="M477.962 184.215C480.806 183.836 483.914 184.506 486.733 184.961C498.763 188.271 511.135 190.723 523.33 193.402C525.466 193.857 527.627 194.274 529.775 194.679C532.58 195.424 535.335 196.296 538.153 196.941C533.895 196.814 529.686 196.663 525.516 195.664C514.572 193.01 503.553 190.609 492.558 188.145C487.857 187.248 482.6 185.896 477.823 186.591C474.462 189.662 473.261 194.312 472.655 198.672C471.757 205.294 471.429 211.966 470.342 218.563C468.826 227.902 468.952 237.203 468.194 246.605C467.524 256.323 468.067 265.978 468.548 275.696C468.586 287.082 468.914 298.481 468.548 309.867C468.143 316.362 467.777 323.578 463.265 328.734C459.765 332.765 453.156 333.056 448.214 333.246C435.223 333.258 422.169 333.435 409.191 332.866C396.92 331.224 385.243 331.426 374.754 323.869C378.697 325.145 382.69 326.219 386.621 327.546C388.895 328.317 391.132 329.075 393.521 329.416C399.056 330.39 404.578 330.92 410.202 330.933C423.711 330.882 437.245 331.236 450.754 331.021C454.293 330.819 458.83 331.021 461.42 328.165C466.21 322.567 467.789 314.631 467.12 307.428C466.121 295.119 466.741 282.937 466.463 270.641C465.578 252.949 466.513 235.118 468.143 217.489C469.243 208.516 470.974 199.62 472.49 190.71C474.108 188.461 475.763 185.934 477.962 184.215Z" fill="#8C7B23"/>
<path d="M515.103 187.235C518.389 187.854 522.306 188.145 524.897 190.445C524.404 191.456 523.886 192.429 523.33 193.402C511.135 190.723 498.763 188.271 486.733 184.961C496.944 182.13 505.107 186.009 515.103 187.235Z" fill="#FFFB68"/>
<path d="M838.818 185.693C839.892 185.896 840.941 186.313 841.939 186.945C833.586 193.693 820.961 194.224 810.574 197.08C806.644 197.636 802.764 197.989 798.796 198.065C789.962 197.257 781.584 199.064 772.826 199.733C763.904 200.504 754.957 200.252 746.01 200.795C740.172 200.757 734.283 200.858 728.47 200.378C731.566 199.354 734.599 198.343 737.859 198.065C751.368 196.65 764.852 196.536 778.349 195.374C788.256 194.502 798.126 194.893 808.021 194.502C819.066 194.325 827.23 186.022 838.818 185.693Z" fill="#FFFE61"/>
<path d="M464.188 187.147C464.693 196.372 462.052 204.536 461.698 213.773C461.37 222.632 460.561 231.453 460.397 240.299C459.98 253.378 460.852 266.42 460.422 279.487C460.195 286.766 461.13 293.931 461.484 301.172C461.901 307.718 458.716 314.227 455.948 320.014C454.811 321.923 454.053 324.121 451.639 324.614C446.243 326.131 439.811 325.398 434.238 325.322C428.311 325.082 422.472 325.752 416.558 325.941C410.164 326.143 404.49 323.856 397.918 322.997C392.396 322.327 387.202 320.267 382.893 316.703C382.526 313.38 384.498 309.766 385.686 306.707C389.287 299.226 390.488 290.999 394.291 283.594C398.348 276.176 401.583 268.379 405.425 260.86C411.352 248.917 419.831 238.934 426.264 227.257C432.671 217.83 439.71 208.857 448.075 201.086C453.055 196.549 457.414 188.651 464.188 187.147Z" fill="#FEEC03"/>
<path d="M841.939 186.945C845.124 188.714 847.019 191.481 848.409 194.767C850.128 202.046 853.111 207.619 853.25 214.961C853.325 221.002 853.73 226.954 854.298 232.969C855.234 243.572 853.401 253.694 853.578 264.335C853.667 274.584 850.962 284.39 850.722 294.614C850.533 300.326 850.166 306 849.635 311.686C849.383 314.542 848.902 317.714 849.433 320.545L851.152 321.822C864.838 323.515 878.436 322.188 892.122 323.022C881.835 325.196 870.613 324.425 860.099 324.501C856.586 324.273 851.72 324.69 848.725 322.567C845.566 320.57 847.032 316.286 847.07 313.203C848.965 300.515 848.978 287.688 850.912 275.026C853.818 257.915 853.174 239.882 851.607 222.645C850.924 213.293 850.179 204.536 846.653 195.727C845.566 193.301 844.125 191.203 841.156 191.443C835.507 191.911 829.984 194.577 824.449 195.803C819.824 197.016 815.287 196.89 810.574 197.08C820.962 194.224 833.586 193.693 841.939 186.945Z" fill="#837220"/>
<path d="M472.491 190.71C470.974 199.62 469.243 208.516 468.143 217.489C466.513 235.118 465.578 252.949 466.463 270.641C466.741 282.937 466.121 295.119 467.12 307.428C467.79 314.631 466.21 322.567 461.42 328.165C458.83 331.021 454.293 330.819 450.755 331.021C437.245 331.236 423.711 330.882 410.202 330.933C404.578 330.92 399.056 330.39 393.521 329.416C398.866 327.673 403.163 327.256 408.799 327.989C418.985 329.315 429.094 327.9 439.28 328.911C443.766 329.088 448.745 329.556 452.739 327.053C457.01 324.261 460.46 319.939 462.57 315.313C465.793 307.706 464.567 297.71 464.466 289.597C463.682 274.761 465.995 260.253 464.453 245.455C463.43 235.282 463.847 225.16 464.82 214.999C465.654 206.697 465.73 197.724 468.32 189.75C469.685 189.51 471.164 190.382 472.491 190.71Z" fill="#FFFC66"/>
<path d="M849.092 191.153C855.006 194.818 855.714 202.425 856.282 208.706C856.535 217.274 857.268 225.93 856.737 234.498C855.575 249.334 858.292 263.994 856.838 278.918C855.903 287.878 856.093 296.825 854.741 305.722C854.412 309.45 853.578 312.975 856.384 316.021C859.227 319.42 863.498 319.244 867.542 319.383C876.868 319.294 886.157 319.749 895.47 318.991C903.103 318.409 910.483 319.812 918.078 320.002C919.923 320.052 921.768 320.052 923.613 319.989C913.137 322.858 902.787 321.43 892.122 323.022C878.435 322.188 864.838 323.515 851.152 321.822C852.807 321.518 854.437 321.139 856.055 320.697C855.714 316.286 852.453 314.568 849.635 311.686C850.166 306 850.532 300.326 850.722 294.614C850.962 284.39 853.667 274.584 853.578 264.335C853.401 253.694 855.234 243.572 854.298 232.969C853.73 226.954 853.325 221.002 853.249 214.961C853.11 207.619 850.128 202.046 848.409 194.767C848.624 193.566 848.852 192.353 849.092 191.153Z" fill="#FCF55C"/>
<path d="M491.787 194.805C512.424 198.887 533.377 204.194 554.405 205.85C560.357 206.444 565.993 208.542 571.92 209.136C583.496 209.755 595.185 208.782 606.736 209.654C610.185 211.789 613.345 212.371 617.338 212.573C643.459 214.431 669.846 212.055 695.942 214.241C716.426 215.479 736.191 212.725 756.575 211.827C762.931 211.65 769.25 211.056 775.594 210.538C771.234 210.083 766.849 209.818 762.476 209.464C770.741 209.439 778.576 206.949 786.79 206.785C792.199 206.558 797.583 205.863 802.915 205.016C809.752 204.296 816.564 203.449 823.363 202.45C828.506 201.705 834.218 199.885 839.374 200.378C841.547 202.602 842.002 206.558 842.647 209.489C844.808 220.244 844.479 230.657 844.517 241.626C844.239 244.949 844.947 248.753 840.574 249.284C822.68 250.485 805.279 254.187 787.978 258.787C776.074 261.631 764.524 265.08 752.999 269.225L751.128 269.478C749.751 268.429 748.386 267.279 746.895 266.42C744.974 266.104 742.927 266.433 740.993 266.521C735.521 255.539 725.601 246.807 714.278 242.258C707.884 240.779 701.249 239.035 694.754 238.239C686.893 239.806 679.096 243.332 671.805 246.63C664.766 250.219 658.637 255.565 653.405 261.441C649.967 258.964 646.732 257.397 642.726 256.095C636.319 249.41 629.242 243.635 620.864 239.579C614.495 236.621 607.532 237.354 600.897 238.909C594.515 240.577 588.399 244.077 582.649 247.262C574.22 252.001 568.394 258.648 561.823 265.51C559.965 267.317 557.855 269.643 555.365 270.477C551.17 270.477 546.886 269.074 542.829 268.101C532.618 265.257 523.38 260.443 512.917 258.749C505.815 257.157 498.839 255.009 491.775 253.227C486.884 251.736 481.185 250.611 476.926 247.73C474.892 230.366 481.046 211.246 480.831 194.754C484.129 193.427 488.388 194.186 491.787 194.805Z" fill="#E46A3D"/>
<path d="M561.734 195.462C572.312 195.765 582.914 196.372 593.492 196.296C600.847 196.359 608.922 196.005 616.1 197.699C617.945 198.331 619.676 198.179 620.005 200.504C615.013 201.022 609.882 200.883 604.865 200.947C593.82 201.022 582.775 201.566 571.743 201.414C560.572 199.885 549.35 198.356 538.153 196.941C535.335 196.296 532.58 195.424 529.775 194.679C540.87 191.936 550.664 195.336 561.734 195.462Z" fill="#FBF862"/>
<path d="M480.831 194.754C481.046 211.246 474.892 230.366 476.926 247.73C481.185 250.611 486.884 251.736 491.775 253.227C498.839 255.009 505.815 257.157 512.917 258.749C523.381 260.443 532.618 265.257 542.829 268.101C547.417 270.363 551.928 272.587 556.869 274.002C551.663 275.241 547.138 271.551 541.603 271.551C545.407 274.078 550.108 274.95 553.861 277.44C557.324 281.357 556.667 288.801 556.945 293.678C555.795 289.647 555.037 285.376 553.432 281.496C552.989 280.195 551.22 279.525 550.108 278.893C540.504 274.647 529.952 271.803 519.968 268.48C512.475 265.952 504.741 264.423 497.184 262.161C489.829 259.988 482.941 257.852 475.157 258.901C475.346 257.713 475.65 256.525 476.067 255.337C480.679 255.211 485.292 255.918 489.905 256.247C485.014 253.922 479.681 252.582 474.955 249.979C474.31 247.628 474.159 245.303 474.07 242.89C473.855 230.505 474.576 218.184 476.61 205.964C477.28 201.958 478.544 198.141 480.831 194.754Z" fill="#380000"/>
<path d="M798.796 198.065C791.201 200.858 783.593 200.58 775.682 201.49C765.876 202.172 755.741 202.261 746.01 200.795C754.957 200.252 763.905 200.504 772.826 199.733C781.584 199.064 789.962 197.257 798.796 198.065Z" fill="#B5A348"/>
<path d="M838.325 197.699C841.434 198.331 842.685 201.086 843.67 203.777C845.756 210.513 846.072 218.121 846.337 225.134C846.451 231.807 846.981 238.669 846.211 245.316C845.907 248.513 843.304 250.687 841.712 253.568C842.217 254.592 842.9 255.501 843.456 256.512C835.368 256.159 827.078 257.448 819.041 258.357C810.346 259.255 802.739 262.275 794.297 264.297C785.173 266.888 776.352 268.063 767.582 271.5C758.774 275.076 750.395 277.528 742.585 283.126C743.571 280.776 744.418 278.577 746.832 277.351C752.506 274.47 758.736 273.358 764.107 269.668C758.812 270.11 753.769 271.488 748.765 273.219C750.193 271.917 751.583 270.552 752.998 269.225C764.524 265.08 776.074 261.631 787.978 258.787C805.279 254.187 822.68 250.484 840.574 249.284C844.947 248.753 844.239 244.949 844.517 241.626C844.479 230.657 844.808 220.244 842.647 209.489C842.002 206.558 841.547 202.602 839.374 200.378C834.218 199.885 828.506 201.705 823.363 202.45C816.564 203.449 809.752 204.296 802.915 205.016C811.281 201.326 820.09 201.073 828.809 198.773C831.829 198.166 835.241 197.231 838.325 197.699Z" fill="#270000"/>
<path d="M838.337 201.288C840.385 203.803 839.172 205.787 838.161 208.415C834.433 207.796 831.678 206.456 830.01 202.905C832.739 202.021 835.469 201.389 838.337 201.288Z" fill="#E38C64"/>
<path d="M497.449 201.907C505.448 202.198 510.807 207.695 518.92 208.491C529.004 209.515 539.253 209.818 549.35 210.197C554.089 210.222 556.97 213.963 561.179 215.618C563.794 216.339 566.752 216.099 569.456 216.099C579.187 215.656 588.854 216.705 598.585 216.579C607.544 216.478 616.075 219.081 625.06 218.626C636.572 218.196 648.021 217.463 659.547 218.196C670.415 218.967 681.245 217.982 692.113 218.98C697.61 219.473 703.069 219.599 708.566 219.056C717.577 218.209 726.549 219.094 735.547 218.146C754.667 215.998 774.002 216.124 793.198 214.949C800.3 214.228 806.669 210.943 813.885 210.513C819.635 210.197 826.168 209.06 831.779 210.538C834.926 212.168 838.793 215.467 837.769 219.447C836.847 224.755 837.403 229.545 838.136 234.814C838.932 238.997 835.482 243.243 831.741 244.633C826.674 245.644 821.353 245.227 816.223 245.948C805.885 247.363 795.611 248.703 785.565 251.66C777.439 254.023 768.505 255.11 760.846 258.749C756.487 260.746 751.988 264.676 746.92 262.667C743.268 259.596 741.701 254.453 738.137 251.129C732.564 245.973 726.246 240.943 718.967 238.517C711.384 235.851 702.703 232.375 694.59 232.704C687.159 233.159 679.248 234.84 672.816 238.744C667.508 241.954 662.2 244.671 657.411 248.677C655.187 250.181 653.392 252.582 650.448 251.773C643.662 250.763 640.995 243.534 635.043 240.463C630.14 238.075 624.832 236.634 620.005 234.018C615.923 231.895 612.132 230.909 607.494 230.909C600.038 230.505 594.061 235.13 586.794 237.443C580.172 239.604 574.271 242.852 569.418 247.894C564.35 252.671 558.815 261.074 551.663 262.566C547.657 261.744 543.967 259.672 539.935 258.812C532.606 257.233 525.188 257.283 517.858 255.084C511.805 253.29 507.47 249.233 501.051 248.273C496.527 247.3 489.943 247.136 486.568 243.585C483.359 240.147 485.204 235.295 485.747 231.238C487.706 222.809 485.772 212.889 489.563 205.218C491.093 201.894 494.265 201.97 497.449 201.907Z" fill="#F1541B"/>
<path d="M606.736 209.654C625.173 208.554 643.32 210.639 661.733 210.462C681.94 210.462 702.184 210.778 722.391 210.286C735.736 209.199 749.106 209.072 762.477 209.464C766.849 209.818 771.234 210.083 775.594 210.538C769.25 211.056 762.931 211.65 756.575 211.827C736.191 212.724 716.427 215.479 695.942 214.241C669.846 212.055 643.459 214.431 617.338 212.573C613.345 212.371 610.186 211.789 606.736 209.654Z" fill="#974638"/>
<path d="M620.864 239.579C629.242 243.635 636.319 249.41 642.726 256.095C643.712 259.823 644.394 263.905 646.113 267.38L647.718 268.24C649.854 266.155 651.623 263.829 653.405 261.441C658.636 255.565 664.766 250.219 671.804 246.63C679.096 243.332 686.893 239.806 694.754 238.239C701.249 239.035 707.884 240.779 714.278 242.258C725.601 246.807 735.521 255.539 740.993 266.521C741.852 268.063 742.156 271.348 744.178 271.69C746.554 271.361 748.866 270.262 751.128 269.478L752.998 269.225C751.583 270.552 750.193 271.917 748.765 273.219C746.756 273.813 744.178 274.849 742.156 273.901C738.933 268.783 737.531 263.071 733.386 258.395C727.471 251.698 719.662 244.949 710.677 243.13C703.284 241.55 696.232 239.642 688.738 241.803C676.632 245.202 664.867 250.661 656.741 260.582C653.506 264.095 650.587 269.567 645.683 270.691C642.625 264.727 642.17 258.181 637.532 253.164C630.734 246.466 621.268 239.212 611.196 239.857C595.867 239.642 581.878 248.147 570.884 258.143C565.488 262.869 561.671 268.77 556.869 274.002C551.928 272.587 547.416 270.363 542.829 268.101C546.886 269.074 551.17 270.477 555.365 270.477C557.855 269.642 559.965 267.317 561.823 265.51C568.394 258.648 574.22 252.001 582.649 247.262C588.399 244.077 594.515 240.577 600.897 238.909C607.532 237.354 614.495 236.621 620.864 239.579Z" fill="#82311F"/>
<path d="M611.196 239.857C621.268 239.212 630.734 246.466 637.532 253.164C642.17 258.181 642.625 264.727 645.683 270.691C650.587 269.567 653.506 264.095 656.741 260.582C664.867 250.661 676.632 245.202 688.738 241.803C696.232 239.642 703.284 241.55 710.676 243.13C719.662 244.949 727.471 251.698 733.386 258.395C737.531 263.071 738.933 268.783 742.156 273.901C744.178 274.849 746.756 273.813 748.765 273.219C753.769 271.487 758.812 270.11 764.107 269.668C758.736 273.358 752.506 274.47 746.832 277.351C744.418 278.577 743.571 280.776 742.585 283.126C740.652 289.925 740.45 296.484 736.873 302.828C730.706 313.746 720.736 323.085 709.135 327.988C695.929 332.993 683.911 329.947 670.642 331.641L668.961 331.944C668.544 336.91 669.163 341.447 667.659 346.3C666.383 350.9 663.085 353.958 659.66 357.041C656.791 359.518 653.607 362.248 650.005 363.512C645.784 365.079 640.919 365.015 636.471 365.104C631.921 365.041 627.599 365.256 623.417 363.196C615.657 359.278 608.189 354.704 605.004 346.161C602.426 339.248 605.699 332.715 605.333 325.992C598.445 325.221 592.443 326.548 585.909 323.616C573.095 318.334 560.306 307.63 556.945 293.678C556.667 288.8 557.324 281.357 553.861 277.44C550.108 274.95 545.407 274.078 541.603 271.551C547.138 271.551 551.662 275.241 556.869 274.002C561.671 268.771 565.488 262.869 570.884 258.143C581.878 248.147 595.867 239.642 611.196 239.857Z" fill="#090101"/>
<path d="M600.455 247.464C605.826 245.518 611.879 245.341 617.502 246.087C622.974 248.5 628.699 252.077 632.49 256.79C637.874 265.927 639.82 276.606 637.773 287.031C634.752 297.255 627.258 306.215 618.842 312.508C609.996 318.687 600.05 318.902 589.701 317.664C585.353 316.438 581.12 314.441 577.24 312.129C570.302 307.276 565.627 300.073 563.428 291.934C560.597 283.733 563.984 276.403 568.521 269.668C576.116 259.065 588.462 251.988 600.455 247.464Z" fill="#FEFEFE"/>
<path d="M685.086 249.789C686.931 249.208 688.751 248.614 690.71 248.513C699.076 247.97 707.808 248.349 715.833 250.977C722.568 253.859 727.686 260.607 731.023 266.925C733.79 272.044 733.499 277.604 733.537 283.278C733.285 288.295 733.702 292.806 731.288 297.406C725.588 309.108 714.809 318.485 702.412 322.479C694.501 325.309 685.137 324.854 676.822 324.677C667.811 324.538 660.798 317.55 655.439 311.042C651.61 305.355 647.604 297.836 648.261 290.81C651.686 271.437 666.017 255.084 685.086 249.789Z" fill="#FEFEFE"/>
<path d="M653.405 261.441C651.623 263.829 649.854 266.155 647.718 268.24L646.113 267.38C644.394 263.905 643.712 259.823 642.726 256.095C646.732 257.397 649.967 258.964 653.405 261.441Z" fill="#DE8371"/>
<path d="M843.456 256.512C846.843 260.569 845.68 264.992 845.44 269.845C843.633 286.096 842.129 302.373 840.764 318.662C840.688 321.177 840.347 324.602 841.939 326.725C845.68 329.897 852.504 329.063 857.066 330.529C858.494 331.615 859.505 333.385 860.39 334.914C865.622 344.847 868.086 355.474 869.362 366.557C869.969 370.058 870.462 375.188 874.518 376.376C879.093 376.894 884.072 375.226 888.015 372.99C889.569 366.507 885.803 358.558 888.23 351.885C890.226 346.755 895.256 342.787 900.374 341.055C903.761 339.766 906.705 342.054 908.639 344.632C911.153 348.701 911.153 354.527 910.496 359.101C909.966 363.84 907.944 368.465 909.473 373.103C912.771 371.941 915.071 369.628 917.725 367.492C922.603 363.588 928.542 359.923 934.76 358.836C939.612 357.913 945.754 361.717 946.348 366.759C946.146 372.118 941.003 377.185 937.439 380.812C933.205 385.248 927.329 385.576 922.818 389.342C927.279 392.577 931.588 389.582 936.352 388.71C943.315 386.246 950.304 390.859 955.257 395.357C958.682 398.403 958.796 403.268 955.346 406.327C948.812 411.268 941.179 411.331 933.42 411.748C935.733 418.61 939.865 424.789 938.778 432.384C938.134 437.376 933.888 440.371 929.793 442.583C924.776 445.312 917.99 445.881 913.201 442.418C908.904 438.956 906.857 432.65 902.99 428.682C901.398 427.165 899.376 426.003 897.101 426.597C892.69 427.759 888.482 430.931 883.971 431.753C878.095 432.625 871.763 431.007 865.912 431.765C864.13 433.636 863.549 436.681 862.98 439.12C861.388 447.6 860.643 455.586 857.458 463.725C853.932 472.722 850.305 481.72 846.097 490.427C840.322 501.598 833.839 512.075 823.615 519.745C829.517 511.632 836.152 504.24 841.295 495.558C846.135 488.519 847.26 480.76 850.533 473.076C852.605 467.756 855.423 462.764 857.483 457.431C860.996 447.486 858.76 437.781 864.194 428.227C865.622 428.315 867.05 428.442 868.478 428.593C876.035 429.832 883.326 431.083 890.428 427.355C894.131 425.826 898.946 422.376 902.851 425.068C906.541 427.86 908.133 433.56 910.673 437.389C913.82 443.543 922.679 444.2 928.226 441.243C932.106 439.196 936.655 435.493 936.946 430.767C937.262 426.887 936.605 422.35 934.077 419.242C932.169 416.638 929.503 414.351 927.986 411.508C927.177 409.536 928.732 407.717 930.172 406.554C933.964 406.541 937.477 407.578 941.243 407.755C945.211 407.906 950.202 408.209 953.64 405.884C955.7 404.33 957.658 401.297 956.003 398.782C953.362 394.485 948.105 391.705 943.29 390.682C939.233 389.532 935.012 392.742 931.512 394.41C928.365 394.587 924.764 395.004 921.895 393.373C919.317 391.516 919.443 387.143 920.48 384.464C924.928 383.061 929.351 382.872 933.37 380.269C938.917 377.059 943.618 373.103 945.375 366.671C943.732 363.373 939.739 361.098 936.074 361.427C928.782 362.791 922.021 365.85 917.775 372.206C916.246 373.685 914.629 375.037 912.784 376.111C910.597 376.212 908.323 375.757 906.149 375.454C905.871 372.825 905.568 370.197 905.189 367.581C908.31 361.477 908.891 356.827 907.666 350.091C906.996 346.616 906.882 343.558 903.078 342.142C898.832 343.229 894.548 345.655 891.92 349.232C890.264 351.544 890.214 354.426 889.986 357.155C889.342 362.501 890.681 367.341 892.653 372.231C892.084 373.52 891.503 374.784 890.921 376.073C884.375 376.25 879.093 379.068 873.065 381.002C870.853 379.371 868.831 377.552 866.81 375.719C867.745 362.64 865.356 349.838 860.15 337.845C859.316 336.064 858.418 334.383 857.142 332.879C851.746 331.186 843.38 332.513 839.172 328.241C835.621 325.069 837.352 320.229 837.719 316.16C840.132 301.968 840.65 287.688 841.99 273.396C842.293 268.96 843.62 263.804 842.394 259.482C840.966 258.32 839.374 258.206 837.605 258.206C816.513 259.015 798 265.384 777.73 270.173C771.158 272.031 764.511 274.798 758.041 276.972C753.744 278.615 748.765 280.321 745.252 283.354C743.698 285.123 743.571 288.358 743.028 290.608C741.373 302.866 734.018 314.353 723.832 321.303C718.234 325.158 711.978 330.2 705.218 331.514C699.329 332.74 693.212 333.612 687.222 334.181C681.27 334.787 676.341 332.892 670.642 331.641C683.911 329.947 695.929 332.993 709.135 327.988C720.736 323.085 730.707 313.746 736.874 302.828C740.45 296.484 740.652 289.925 742.586 283.126C750.396 277.528 758.774 275.076 767.582 271.5C776.352 268.063 785.173 266.888 794.297 264.297C802.739 262.275 810.346 259.255 819.041 258.357C827.078 257.448 835.368 256.159 843.456 256.512Z" fill="#781C0C"/>
<path d="M497.184 262.161C504.741 264.423 512.475 265.952 519.969 268.48C529.952 271.803 540.504 274.647 550.108 278.893C551.22 279.525 552.99 280.195 553.432 281.496C555.037 285.376 555.795 289.647 556.945 293.678C560.306 307.63 573.095 318.334 585.909 323.616C592.443 326.548 598.446 325.221 605.333 325.992C605.699 332.715 602.426 339.248 605.004 346.161C608.189 354.704 615.657 359.278 623.417 363.196C627.6 365.256 631.922 365.041 636.471 365.104C640.919 365.015 645.785 365.079 650.005 363.512C653.607 362.248 656.792 359.518 659.66 357.041C663.085 353.958 666.383 350.9 667.66 346.3C669.163 341.447 668.544 336.91 668.961 331.944L670.642 331.641C676.341 332.892 681.27 334.787 687.222 334.181C693.212 333.612 699.328 332.74 705.217 331.514C711.978 330.2 718.234 325.158 723.832 321.303C734.018 314.353 741.372 302.866 743.028 290.608C743.571 288.358 743.698 285.123 745.252 283.354C748.765 280.321 753.744 278.615 758.041 276.972C764.511 274.798 771.158 272.031 777.73 270.173C798 265.384 816.513 259.015 837.605 258.206C839.374 258.206 840.966 258.32 842.394 259.482C843.62 263.804 842.293 268.96 841.99 273.396C840.65 287.688 840.132 301.968 837.719 316.16C837.352 320.229 835.621 325.069 839.172 328.241C843.38 332.513 851.746 331.186 857.142 332.879C858.418 334.383 859.316 336.064 860.15 337.845C865.356 349.838 867.745 362.64 866.809 375.719C865.735 376.414 864.648 377.071 863.536 377.678C861.641 376.553 860.377 375.302 860.453 372.939C860.15 363.474 861.123 352.682 856.46 343.861C852.58 337.049 841.775 337.34 836.404 332.323C833.738 329.821 833.624 325.929 833.359 322.529C833.119 314.82 833.852 307.061 834.142 299.365C834.521 289.015 836.48 279.74 835.419 269.314C835.014 266.799 834.547 264.486 831.792 263.627C825.511 262.187 818.826 265.611 813.101 267.797C805.152 270.995 797.292 270.11 788.585 272.195C779.853 274.065 773.067 279.841 764.334 282.014C760.543 283.316 754.376 284.062 752.417 288.004C748.993 294.197 747.906 301.311 744.001 307.415C739.616 314.163 734.093 320.254 728.255 325.764C723.326 330.112 718.512 334.509 711.763 335.583C705.988 336.519 700.251 337.239 694.615 338.856C689.813 340.259 685.074 339.337 680.246 339.956C677.58 341.548 676 345.264 674.471 347.879C670.743 354.868 665.638 361.919 659.104 366.532C650.536 371.448 639.832 372.964 630.089 371.789C624.364 371.182 619.107 367.884 614.318 364.851C607.544 360.668 601.618 356.169 599.305 348.157C597.093 343.242 596.626 334.547 591.015 332.449C584.279 328.987 577.24 326.042 570.593 322.403C566.259 320.052 563.655 315.048 560.382 311.358C557.172 307.377 552.876 304.205 551.587 299.087C549.944 293.565 549.312 288.131 544.801 284.049C541.287 281.307 536.043 280.536 531.81 279.386C525.238 277.945 519.299 274.824 512.715 273.497C507.116 272.309 501.885 270.11 496.173 269.415C491.788 268.834 487.68 267.343 483.434 266.243C481.185 268.682 481.893 272.65 481.842 275.708C482.398 285.148 481.311 294.462 482.246 303.877C483.409 313.569 482.082 323.818 478.999 333.056C476.749 339.299 471.492 342.547 465.616 344.884C460.978 346.628 455.569 346.136 450.691 346.237C444.107 346.224 437.865 347.349 431.293 346.755C427.957 346.603 424.103 345.883 420.868 346.818C418.151 350.104 418.163 355.045 417.797 359.089C417.14 372.016 413.424 383.959 413.702 397.013C413.98 409.233 415.118 421.453 416.444 433.585C417.228 441.028 420.893 446.664 423.193 453.59C425.038 458.847 425.884 464.243 427.148 469.639C428.273 475.098 432.81 479.559 435.362 484.601C438.724 490.882 443.488 495.381 447.987 500.777C453.029 506.742 458.741 512.049 465.338 516.258C469.988 519.139 474.323 522.425 478.784 525.597C486.113 530.348 493.911 532.825 502.15 535.428C506.674 536.831 510.2 539.674 514.307 541.873C518.844 544.337 524.745 544.502 529.788 545.589C535.841 546.663 541.073 549.405 547.037 550.694C561.52 553.424 575.18 552.943 589.726 554.22C596.082 554.839 603.121 553.74 609.073 555.749C611.765 556.608 614.583 557.505 617.035 558.946C618.703 560.21 619.689 562.548 620.813 564.279C620.03 571.217 620.144 578.142 620.535 585.105C620.169 587.468 619.651 589.819 618.994 592.119C617.224 583.108 619.31 573.934 617.692 565.025C611.26 562.8 603.968 562.674 597.245 562.118C590.863 562.08 584.684 560.816 578.352 560.172C572.375 559.325 566.537 559.616 560.547 559.224C555.909 558.757 551.334 557.682 546.721 557.013C537.294 556.052 528.852 551.819 519.45 550.467C507.647 547.168 496.072 542.29 484.926 537.185C472.061 530.955 458.59 523.208 448.745 512.694C441.555 505.339 433.871 497.365 428.892 488.304C419.629 472.293 414.309 455.106 410.568 437.085C408.711 428.391 406.714 419.886 406.866 410.914C406.84 393.929 405.93 377.88 409.671 361.78C411.503 354.489 410.682 347.197 412.628 339.981C421.007 339.084 429.625 339.867 438.054 339.665C447.696 339.539 459.613 340.613 468.472 336.291C473.4 331.767 475.662 323.945 475.486 317.411C475.511 297.912 475.625 278.387 475.157 258.901C482.941 257.852 489.829 259.988 497.184 262.161Z" fill="#DF6A40"/>
<path d="M605.017 262.591C609.238 261.694 611.575 262.376 614.343 265.712C615.569 271.172 611.487 274.925 607.405 277.68C605.32 277.996 603.21 277.932 601.137 277.579C599.519 275.986 597.51 274.394 597.952 271.879C599.456 268.303 601.895 264.929 605.017 262.591Z" fill="#000001"/>
<path d="M831.791 263.627C834.546 264.486 835.014 266.799 835.418 269.314C836.48 279.74 834.521 289.015 834.142 299.365C833.851 307.061 833.118 314.82 833.358 322.529C833.624 325.929 833.738 329.821 836.404 332.323C841.775 337.34 852.58 337.049 856.459 343.861C861.122 352.682 860.149 363.474 860.453 372.939C860.377 375.302 861.641 376.553 863.536 377.678C864.648 377.071 865.735 376.414 866.809 375.719C868.831 377.552 870.853 379.371 873.065 381.002C870.297 380.85 867.555 380.37 864.8 380.13C866.658 384.363 871.535 385.462 875.706 385.955C880.748 386.006 886.827 383.971 891.047 381.216C891.148 379.485 890.984 377.804 890.921 376.073C891.502 374.784 892.084 373.52 892.652 372.231C895.268 373.027 898.39 374.557 901.132 374.266C903.154 372.901 903.748 369.565 905.188 367.581C905.568 370.197 905.871 372.825 906.149 375.454C905.744 376.136 905.353 376.819 904.961 377.514C906.035 380.534 911.178 381.633 912.922 384.35C914.249 387.042 914.868 390.138 916.385 392.716C918.912 396.154 922.918 398.618 925.37 402.257C924.169 405.227 922.375 407.881 921.263 410.889C922.88 416.676 929.376 421.377 930.412 427.342C929.49 432.776 923.563 438.602 917.813 435.493C914.439 432.587 912.96 427.494 910.231 423.968C907.766 420.455 903.596 418.496 899.337 418.66C892.576 418.913 886.182 422.932 879.484 423.804C875.744 424.335 871.99 424.057 868.262 424.84C868.326 426.091 868.401 427.342 868.477 428.593C867.049 428.442 865.621 428.315 864.193 428.227C859.454 428.555 856.889 432.018 855.019 436.024C851 444.605 852.137 453.274 849.812 462.208C848.03 469.235 843.898 475.958 840.663 482.504C836.101 491.008 831.93 499.109 825.334 506.262C818.598 513.604 814.074 521.641 805.784 527.176C800.666 530.841 795.03 532.484 789.356 534.923C784.579 536.793 782.405 541.532 778.336 543.895C774.229 545.589 769.755 546.284 765.61 547.964C760.897 549.835 756.12 551.376 751.229 552.754C742.548 555.534 733.348 558.63 724.16 559.477C717.046 560.096 709.236 557.619 702.336 559.06C698.14 559.982 693.616 562.03 690.116 564.519C687.399 566.427 686.413 570.61 685.25 573.58C682.003 583.273 677.011 595.025 677.896 605.35C679.286 610.152 686.122 612.819 690.71 611.871C696.776 610.62 702.235 606.967 708.237 605.16C716.894 602.405 726.865 601.988 735.774 603.669C743.432 605.539 751.002 611.896 749.207 620.59C746.895 627.832 738.996 632.052 732.198 634.239C725.083 636.513 720.963 641.063 713.785 641.492C707.012 642.086 700.099 641.581 693.288 641.581C685.516 641.669 677.655 639.925 670.351 637.36C669.049 631.724 670.44 625.051 670.465 619.301C670.768 613.577 667.546 607.625 666.105 602.064C664.563 596.251 662.731 590.084 662.769 584.044C663.097 580.354 664.273 576.739 664.601 573.062C663.729 571.823 662.731 570.699 661.669 569.599C661.53 572.316 661.657 575.021 661.619 577.725C658.434 577.851 659.319 574.161 658.358 572.051C658.232 574.945 656.994 577.611 656.703 580.518C657.259 576.84 657.297 572.999 657.145 569.283C657.764 568.538 658.358 567.792 658.952 567.021C657.474 565.05 655.452 563.281 653.139 562.371C649.993 561.259 646.479 563.142 645.102 566.061C642.802 570.838 641.323 576.032 639.719 581.074C637.595 587.279 639.997 593.18 641.816 599.158C644.546 606.727 646.378 614.499 647.099 622.524C647.503 625.835 645.709 628.072 643.851 630.586C640.06 635.338 635.258 639.736 629.204 641.252C623.037 642.756 616.239 642.516 609.92 642.579C599.191 642.301 588.133 643.299 577.506 641.77C571.958 640.797 567.636 637.474 562.025 635.995C557.349 634.529 553.015 634.416 549.489 630.599C545.698 626.593 541.224 621.071 540.782 615.384C540.933 609.356 545.154 603.341 549.299 599.221C553.368 594.886 559.283 595.543 564.717 594.115C570.088 593.067 575.395 589.692 580.817 589.553C586.175 590.88 591.053 593.711 596.512 594.848C601.099 595.796 606.912 597.894 611.538 596.466C611.752 594.924 611.816 593.383 611.891 591.828C614.255 592.081 616.618 592.22 618.993 592.119C619.651 589.819 620.169 587.468 620.535 585.105C620.927 588.593 622.014 591.841 623.985 594.76C625.224 591.98 625.514 589.503 625.262 586.483C624.794 580.707 624.984 574.907 624.44 569.157C624.301 566.996 622.203 565.682 620.813 564.279C619.689 562.548 618.703 560.21 617.035 558.946C614.583 557.505 611.765 556.608 609.073 555.749C603.121 553.74 596.082 554.839 589.726 554.22C575.18 552.943 561.519 553.424 547.037 550.694C541.072 549.405 535.841 546.663 529.787 545.589C524.745 544.502 518.844 544.337 514.307 541.873C510.2 539.674 506.674 536.831 502.15 535.428C493.91 532.825 486.113 530.348 478.784 525.596C474.323 522.425 469.988 519.139 465.338 516.258C458.741 512.049 453.029 506.742 447.987 500.777C443.488 495.381 438.724 490.882 435.362 484.601C432.81 479.559 428.273 475.098 427.148 469.639C425.884 464.243 425.038 458.847 423.193 453.59C420.893 446.664 417.228 441.028 416.444 433.585C415.117 421.453 413.98 409.233 413.702 397.013C413.424 383.959 417.139 372.016 417.797 359.089C418.163 355.045 418.15 350.104 420.867 346.818C424.102 345.883 427.957 346.603 431.293 346.755C437.864 347.349 444.107 346.224 450.691 346.237C455.569 346.136 460.978 346.628 465.616 344.884C471.492 342.547 476.749 339.299 478.999 333.056C482.082 323.818 483.409 313.569 482.246 303.877C481.311 294.462 482.398 285.148 481.842 275.708C481.892 272.65 481.185 268.682 483.434 266.243C487.68 267.343 491.787 268.834 496.172 269.415C501.884 270.11 507.116 272.309 512.715 273.497C519.299 274.824 525.238 277.945 531.809 279.386C536.043 280.536 541.287 281.307 544.8 284.049C549.312 288.131 549.944 293.565 551.587 299.087C552.876 304.205 557.172 307.377 560.382 311.358C563.655 315.048 566.258 320.052 570.593 322.403C577.24 326.042 584.279 328.987 591.015 332.449C596.626 334.547 597.093 343.242 599.305 348.157C601.617 356.169 607.544 360.668 614.318 364.851C619.107 367.884 624.364 371.182 630.089 371.789C639.832 372.964 650.536 371.448 659.104 366.532C665.637 361.919 670.743 354.868 674.471 347.879C676 345.264 677.58 341.548 680.246 339.956C685.073 339.337 689.812 340.259 694.615 338.856C700.251 337.239 705.988 336.519 711.763 335.583C718.512 334.509 723.326 330.112 728.255 325.764C734.093 320.254 739.616 314.163 744.001 307.415C747.906 301.311 748.992 294.197 752.417 288.004C754.376 284.062 760.543 283.316 764.334 282.014C773.066 279.841 779.853 274.065 788.585 272.195C797.292 270.11 805.152 270.995 813.101 267.797C818.826 265.611 825.511 262.187 831.791 263.627Z" fill="#F1541C"/>
<path d="M746.895 266.42C748.386 267.279 749.751 268.429 751.128 269.478C748.866 270.262 746.554 271.361 744.178 271.69C742.156 271.348 741.852 268.063 740.993 266.521C742.927 266.433 744.974 266.104 746.895 266.42Z" fill="#E38C6B"/>
<path d="M693.49 266.458C695.866 265.573 698.696 265.674 700.023 268.177C701.186 272.941 701.451 278.147 697.016 281.332C693.692 281.711 690.343 282.406 688.182 279.184C685.554 273.724 689.585 269.731 693.49 266.458Z" fill="black"/>
<path d="M640.312 302.07C642.511 301.64 644.407 303.321 645.936 304.66C645.43 307.124 645.81 311.813 642.398 312.078C638.973 312.773 637.128 310.726 634.777 308.666C635.561 305.823 637.065 302.6 640.312 302.07Z" fill="#6C3F3A"/>
<path d="M642.347 303.738C643.661 305.456 644.495 307.061 643.636 309.21C642.663 309.867 641.614 310.372 640.464 310.739C639.39 310.082 638.392 309.298 637.444 308.388C637.532 305.014 638.91 303.498 642.347 303.738Z" fill="#D4A096"/>
<path d="M645.936 304.66C646.163 307.655 646.353 310.638 646.846 313.607C647.629 315.187 648.893 316.564 649.917 317.98C645.291 318.144 640.666 318.182 636.041 318.005C636.471 316.88 636.938 315.781 637.444 314.694C636.964 312.66 635.586 310.612 634.777 308.666C637.128 310.726 638.973 312.773 642.398 312.078C645.81 311.813 645.43 307.124 645.936 304.66Z" fill="#360000"/>
<path d="M377.244 307.352C377.13 310.069 376.423 312.975 378.141 315.326C380.959 319.433 384.22 323.136 386.621 327.546C382.691 326.219 378.697 325.145 374.754 323.869C373.744 322.403 372.505 320.697 373.112 318.827C374.274 314.922 376.081 311.257 377.244 307.352Z" fill="#FEFE91"/>
<path d="M849.635 311.686C852.453 314.568 855.714 316.286 856.055 320.697C854.437 321.139 852.807 321.518 851.152 321.822L849.433 320.545C848.902 317.714 849.382 314.542 849.635 311.686Z" fill="#FFFE9D"/>
<path d="M629.508 320.646C634.221 318.549 640.249 319.092 645.329 318.953C648.868 319.206 652.608 318.536 655.212 321.417C660.507 326.75 662.781 335.963 659.23 342.825C655.149 352.96 642.979 358.116 632.616 357.635C624.326 357.913 617.047 353.01 612.89 346.085C611.121 343.242 611.297 339.463 612.725 336.519C615.923 329.454 622.62 323.932 629.508 320.646Z" fill="#DF724E"/>
<path d="M640.755 325.373C643.699 325.019 647.503 324.501 649.79 326.826C652.735 329.808 654.327 334.749 652.95 338.806C651.269 343.76 647.402 346.906 642.928 349.257C639.036 351.216 634.474 353.035 630.076 351.86C624.769 350.495 620.08 345.403 618.753 340.145C621.47 330.642 631.972 326.876 640.755 325.373Z" fill="#EE531B"/>
<path d="M904.354 328.052C910.294 328.077 916.234 327.963 922.173 328.014C916.436 329.935 910.698 329.745 904.784 330.175C905.429 331.666 906.2 333.094 906.996 334.509C902.75 334.37 898.693 334.623 894.548 335.558C896.077 334.206 897.568 332.791 898.984 331.287C888.103 331.173 877.614 332.765 866.759 330.844C871.965 329.707 877.526 331.059 882.897 330.668C890.251 330.655 897.038 327.875 904.354 328.052Z" fill="#DBD2C4"/>
<path d="M784.592 330.453C786.904 329.341 788.951 332.702 790.405 334.092C792.831 337.441 796.673 341.826 794.069 346.123C789.811 352.1 780.952 355.626 777.313 362.159C776.099 366.317 776.327 370.93 775.013 375.087C773.585 379.371 771.082 382.809 769.326 386.941C767.266 391.554 766.457 396.558 764.397 401.183C761.428 407.653 758.091 413.909 753.769 419.583C750.623 423.741 749.675 428.694 747.097 433.105C744.86 436.454 740.804 438.893 737.632 441.332C732.425 445.072 728.583 449.988 723.326 453.564C719.27 456.408 714.847 458.506 710.651 461.109C706.19 463.712 702.576 466.707 697.458 468.047C692.681 469.235 687.753 470.182 682.875 470.865C674.913 471.926 666.383 470.422 658.624 472.217C652.116 473.999 646.985 481.025 641.26 483.717C636.686 485.296 631.833 486.08 627.195 487.558C623.821 488.885 619.752 485.852 616.315 485.322C611.702 487.091 609.301 493.688 603.652 492.955C598.306 492.942 593.972 489.669 593.782 484.096C593.454 474.441 597.548 464.432 603.008 456.61C603.715 456.976 604.423 457.368 605.131 457.76C603.728 463.105 602.628 468.438 600.531 473.569C599.545 476.387 597.801 479.483 597.776 482.491C599.065 487.091 604.84 488.254 608.151 484.955C610.287 482.226 611.298 478.573 613.079 475.591C616.466 474.618 620.674 477.942 623.935 478.915C629.988 481.606 635.839 479.42 641.109 476.122C645.292 473.506 647.642 469.209 651.459 466.379C654.668 465.557 658.409 466.24 661.682 466.366C669.075 466.96 676.67 466.24 683.974 465.064L683.001 463.636C689.256 463.27 695.348 461.968 700.883 458.948C708.591 454.727 716.047 451.302 722.404 445.06C730.214 437.25 738.049 430.603 744.317 421.441C754.288 406.883 762.085 391.01 766.76 373.975C768.277 368.743 767.544 362.147 770.122 357.421C775.379 352.315 782.949 351.152 787.511 344.467C789.406 342.104 788.876 339.387 787.561 336.885C786.525 336.531 785.476 336.278 784.427 336.139C778.5 339.994 775.455 345.706 767.885 347.109C763.778 348.183 760.177 343.355 757.384 340.967C755.412 339.008 753.352 337.15 751.482 335.078C757.687 335.811 764.081 338.086 770.312 337.795C775.379 336.885 779.739 332.133 784.592 330.453Z" fill="#E36A3F"/>
<path d="M866.759 330.844C877.614 332.765 888.103 331.173 898.983 331.287C897.568 332.791 896.077 334.206 894.548 335.558C889.493 338.515 884.249 342.66 881.393 347.854C879.8 354.008 881.607 361.363 880.912 367.695C879.952 368.2 878.903 368.567 877.766 368.794C876.249 367.72 874.935 367.075 874.897 364.99C874.328 358.305 873.153 351.633 871.384 345.175C869.956 339.83 866.228 336.594 866.759 330.844Z" fill="#FFFFFE"/>
<path d="M556.035 335.065C556.098 336.342 556.124 337.605 556.111 338.894C551.713 344.834 545.319 351.506 537.812 353.061C534.956 352.606 532.125 351.62 529.383 350.71C527.614 349.851 525.883 348.928 524.164 347.955C529.295 344.278 535.79 346.793 541.389 345.011C546.949 341.637 548.781 335.963 556.035 335.065Z" fill="#F07246"/>
<path d="M562.139 337.34C563.377 338.414 564.477 339.741 565.551 340.98C563.137 345.453 560.471 350.457 556.743 353.945C553.609 356.978 549.628 358.773 546.393 361.806C545.053 369.489 546.848 378.007 549.186 385.374C551.321 390.934 554.266 398.049 559.346 401.512C564.717 401.474 568.837 399.035 574.018 401.486C577.733 402.801 579.692 405.594 582.042 408.525C583.015 409.713 583.976 411.053 585.164 412.039C587.502 413.138 590.004 410.446 591.748 409.145C597.7 403.875 603.286 398.34 611.651 397.417C616.845 396.609 621.521 401.727 624.251 405.543C627.789 409.448 622.317 416.967 625.83 420.202C631.479 421.453 637.848 420.164 643.447 421.63C649.171 423.69 653.278 429.958 652.71 436.049C652.027 440.308 647.314 443.518 646.429 447.574C647.048 451.631 649.854 456.218 653.809 457.735C658.321 459.011 663.464 458.581 668.102 458.442C674.774 457.949 681.548 457.507 688.106 456.18C693.705 455.043 697.559 451.833 702.222 448.851C715.302 442.646 723.895 432.372 732.766 421.327C737.278 414.996 742.345 408.576 745.669 401.575C750.56 391.465 755.122 381.482 757.346 370.386C758.243 365.496 759.886 360.327 759.671 355.335C758.698 351.544 754.654 348.284 752.127 345.428C753.074 342.774 754.995 341.99 757.384 340.967C760.177 343.355 763.778 348.183 767.885 347.109C775.455 345.706 778.5 339.994 784.427 336.139C785.476 336.278 786.525 336.531 787.561 336.885C788.876 339.387 789.406 342.104 787.511 344.467C782.949 351.152 775.379 352.315 770.122 357.421C767.544 362.147 768.277 368.743 766.76 373.975C762.085 391.01 754.288 406.883 744.317 421.441C738.049 430.603 730.214 437.25 722.404 445.06C716.047 451.302 708.591 454.727 700.883 458.948C695.348 461.968 689.256 463.27 683.001 463.636C675.912 464.344 668.86 464.875 661.745 464.42C658.182 464.382 654.353 463.902 650.852 464.673C647.149 467.225 644.622 472.078 640.439 474.403C636.382 476.703 631.365 478.043 626.702 477.322C621.875 476.412 617.806 473.847 612.865 473.051C609.92 476.552 608.505 481.821 604.815 484.399C603.513 483.906 602.325 483.274 601.251 482.504C600.505 475.073 604.031 466.631 607.822 460.351C611.993 462.309 614.912 465.241 618.703 467.807C622.292 470.258 627.043 471.876 631.353 470.536C636.37 468.641 640.338 463.977 641.968 458.923C642.537 456.345 642.031 454.525 640.376 452.516C635.384 445.565 626.867 450.67 621.812 445.793C621.736 444.15 621.913 442.507 622.229 440.889C626.867 441.142 631.82 441.989 636.433 441.344C639.933 440.801 644.154 438.425 645.001 434.722C645.418 429.554 639.82 426.104 635.157 426.356C626.639 426.862 619.461 430.312 612.384 434.811C609.263 436.757 607.367 436.795 603.854 435.834C603.804 433.269 604.006 431.487 605.889 429.617C610.855 424.221 615.733 419.848 617.755 412.468C618.817 409.17 617.022 405.77 614.229 403.989C611.74 402.687 609.111 404.203 606.938 405.467C602.73 408.235 598.913 411.735 595.728 415.628C592.493 419.646 590.901 424.322 588.412 428.568C587.363 430.931 584.456 430.817 582.295 431.55C581.145 430.628 580.084 429.604 579.047 428.543C579.174 423.766 579.502 419.444 576.697 415.274C574.915 412.607 572.084 407.729 568.28 408.854C561.128 410.724 555.378 417.106 556.073 424.827C556.806 432.119 562.796 437.503 568.976 440.687C571.541 442.33 576.153 444.39 576.356 447.852C576.975 451.227 573.399 453.552 571.25 455.548C564.388 460.692 557.552 465.936 550.336 470.587C548.44 469.563 546.595 468.476 544.851 467.2C545.293 465.456 545.925 463.75 546.507 462.044C548.137 460.894 549.792 459.782 551.422 458.619C555.34 455.447 560.635 452.149 562.91 447.536C561.242 445.742 559.283 444.339 557.299 442.924C552.029 436.795 546.987 430.906 547.328 422.287C546.759 416.638 549.35 412.418 550.828 407.249C549.451 404.418 547.619 401.916 545.887 399.313C541.578 392.716 538.785 385.222 537.572 377.438C536.574 372.636 536.46 367.151 534.438 362.665C530.381 359.379 526.022 358.179 523.886 352.934C525.718 352.189 527.538 351.418 529.383 350.71C532.125 351.62 534.956 352.606 537.812 353.061C545.319 351.506 551.713 344.834 556.111 338.894C557.804 338.225 560.344 336.569 562.139 337.34Z" fill="#2D0100"/>
<path d="M568.457 339.501C569.519 341.611 571.073 344.594 569.772 346.881C566.764 353.427 561.911 358.014 556.503 362.577C552.345 365.559 552.926 371.031 552.686 375.58C552.32 382.05 556.187 387.762 560.622 392.072C563.605 394.094 568.205 393.942 571.655 394.877C577.291 395.977 580.905 399.641 585.96 401.79C590.888 401.057 595.64 397.152 599.633 394.334C603.033 392.009 606.47 389.292 610.868 389.873C618.197 390.833 625.186 395.522 630.266 400.716C634.247 404.81 634.664 410.118 637.495 414.895C644.205 416.651 650.435 416.601 655.844 421.82C658.22 424.853 659.534 428.846 660.305 432.587C661.391 437.717 658.194 443.429 657.777 448.661C658.232 450.43 659.218 451.542 661.012 452.01C665.916 453.135 671.274 452.743 676.202 451.858C688.498 449.053 699.101 443.076 709.261 435.809C716.869 431.095 722.303 424.486 727.699 417.485C731.389 412.215 734.093 406.364 737.96 401.183C741.499 396.444 742.118 390.682 745.353 385.829C747.198 382.998 749.03 380.395 749.46 376.92C750.433 370.399 751.924 363.297 751.154 356.763C750.825 352.707 750.004 349.181 752.127 345.428C754.654 348.284 758.698 351.544 759.671 355.335C759.886 360.327 758.243 365.496 757.346 370.386C755.122 381.482 750.56 391.465 745.669 401.575C742.345 408.576 737.278 414.996 732.766 421.327C723.895 432.372 715.302 442.646 702.222 448.851C687.272 456.168 670.869 458.152 654.454 456.003C650.839 455.915 649.26 450.355 649.576 447.423C651.117 444.011 654.138 441.294 655.692 437.844C657.057 434.103 655.123 430.312 652.874 427.38C650.17 423.93 646.252 420.404 641.816 419.57C636.686 418.749 631.858 419.747 626.728 418.382C627.081 415.173 628.13 412.001 628.156 408.778C626.715 404.444 622.633 400.703 619.044 398.037C614.229 394.637 608.442 395.572 603.526 398.226C597.131 401.385 592.809 406.87 586.996 410.674C585.278 410.219 583.609 409.347 582.042 408.525C579.692 405.594 577.733 402.801 574.018 401.486C568.837 399.035 564.717 401.474 559.346 401.512C554.266 398.049 551.321 390.934 549.186 385.374C546.848 378.007 545.053 369.489 546.393 361.806C549.628 358.773 553.609 356.978 556.743 353.945C560.471 350.457 563.137 345.453 565.551 340.98C566.499 340.461 567.472 339.969 568.457 339.501Z" fill="#E86E44"/>
<path d="M903.078 342.142C906.882 343.558 906.996 346.616 907.665 350.091C904.771 349.548 901.701 348.612 898.743 348.726C895.799 351.709 893.954 355.222 889.986 357.155C890.213 354.426 890.264 351.544 891.919 349.232C894.548 345.655 898.832 343.229 903.078 342.142Z" fill="#EC885D"/>
<path d="M907.665 350.091C908.891 356.827 908.31 361.477 905.188 367.581C903.748 369.565 903.154 372.901 901.132 374.266C898.39 374.557 895.268 373.028 892.652 372.231C890.681 367.341 889.341 362.501 889.986 357.155C893.954 355.222 895.799 351.709 898.743 348.726C901.701 348.612 904.771 349.548 907.665 350.091Z" fill="#F16334"/>
<path d="M518.882 352.062C520.562 352.302 522.218 352.618 523.886 352.934C526.022 358.179 530.382 359.379 534.438 362.665C536.46 367.151 536.574 372.636 537.572 377.438C538.785 385.222 541.578 392.716 545.887 399.313C547.619 401.916 549.451 404.418 550.829 407.249C549.35 412.418 546.759 416.639 547.328 422.287C546.987 430.906 552.029 436.795 557.299 442.924C555.353 447.119 552.939 451.1 551.144 455.346C550.525 456.597 551.321 457.356 551.422 458.619C549.792 459.782 548.137 460.894 546.507 462.044C545.546 461.235 544.624 460.389 543.714 459.517C545.736 455.334 549.868 451.795 551.334 447.41C549.691 442.254 543.891 438.4 542.513 433.054C541.553 425.004 544.245 415.691 542.349 407.679C540.201 402.08 536.068 397.695 534.59 391.68C532.403 383.238 531.658 375.201 527.184 367.379C524.568 362.02 518.515 358.179 518.882 352.062Z" fill="#EA6C40"/>
<path d="M936.074 361.427C939.739 361.098 943.732 363.373 945.375 366.671C943.618 373.103 938.917 377.059 933.369 380.269C933.888 376.199 936.668 373.116 937.641 369.325C937.047 365.799 932.611 365.584 929.907 366.57C925.762 368.2 921.895 370.487 917.775 372.206C922.021 365.85 928.782 362.791 936.074 361.427Z" fill="#F37F68"/>
<path d="M929.907 366.57C932.611 365.584 937.047 365.799 937.641 369.325C936.668 373.116 933.888 376.199 933.369 380.269C929.351 382.872 924.928 383.061 920.479 384.464C919.443 387.143 919.317 391.516 921.895 393.373C924.763 395.004 928.365 394.587 931.512 394.41C937.3 394.283 945.21 393.55 949.987 397.341C951.377 402.346 944.364 404.962 941.242 407.754C937.476 407.578 933.963 406.541 930.172 406.554C928.731 407.717 927.177 409.536 927.986 411.508C929.502 414.351 932.169 416.638 934.077 419.242C936.604 422.35 937.262 426.887 936.946 430.767C936.655 435.493 932.106 439.196 928.226 441.243C922.678 444.2 913.82 443.543 910.673 437.389C908.133 433.56 906.541 427.86 902.85 425.067C898.946 422.376 894.131 425.826 890.428 427.355C883.326 431.083 876.034 429.832 868.477 428.593C868.401 427.342 868.326 426.091 868.262 424.84C871.99 424.056 875.744 424.335 879.484 423.804C886.182 422.932 892.576 418.913 899.337 418.66C903.596 418.496 907.766 420.455 910.231 423.968C912.96 427.494 914.439 432.587 917.813 435.493C923.563 438.602 929.49 432.776 930.412 427.342C929.376 421.377 922.88 416.676 921.263 410.889C922.375 407.881 924.169 405.227 925.37 402.257C922.918 398.618 918.912 396.154 916.385 392.716C914.868 390.138 914.249 387.042 912.922 384.35C911.178 381.633 906.035 380.534 904.961 377.514C905.353 376.819 905.744 376.136 906.149 375.454C908.322 375.757 910.597 376.212 912.783 376.111C914.628 375.037 916.246 373.685 917.775 372.206C921.895 370.487 925.762 368.2 929.907 366.57Z" fill="#ED6B3E"/>
<path d="M890.921 376.073C890.984 377.804 891.149 379.485 891.048 381.216C886.827 383.971 880.748 386.006 875.706 385.955C871.536 385.462 866.658 384.363 864.8 380.13C867.555 380.37 870.297 380.85 873.065 381.002C879.093 379.068 884.375 376.25 890.921 376.073Z" fill="#E96E3F"/>
<path d="M943.29 390.682C948.104 391.705 953.361 394.485 956.003 398.782C957.658 401.297 955.699 404.33 953.639 405.884C950.202 408.209 945.21 407.906 941.242 407.755C944.364 404.962 951.377 402.346 949.987 397.342C945.21 393.55 937.3 394.283 931.512 394.41C935.012 392.742 939.233 389.532 943.29 390.682Z" fill="#E18164"/>
<path d="M619.044 398.037C622.633 400.703 626.715 404.444 628.156 408.778C628.13 412.001 627.081 415.173 626.728 418.382C631.858 419.747 636.686 418.749 641.816 419.57C646.252 420.404 650.17 423.93 652.874 427.38C655.123 430.312 657.057 434.103 655.692 437.844C654.138 441.294 651.117 444.011 649.576 447.423C649.26 450.355 650.839 455.915 654.454 456.003C670.869 458.152 687.273 456.168 702.222 448.851C697.559 451.833 693.705 455.043 688.107 456.18C681.548 457.507 674.774 457.95 668.102 458.442C663.464 458.581 658.321 459.011 653.809 457.735C649.854 456.218 647.048 451.631 646.429 447.574C647.314 443.518 652.027 440.308 652.71 436.049C653.278 429.958 649.171 423.69 643.447 421.63C637.848 420.164 631.479 421.453 625.83 420.202C622.317 416.967 627.789 409.448 624.251 405.543C621.521 401.727 616.845 396.609 611.651 397.417C603.286 398.34 597.7 403.875 591.748 409.145C590.004 410.446 587.502 413.138 585.164 412.039C583.976 411.053 583.016 409.713 582.042 408.525C583.609 409.347 585.278 410.219 586.996 410.674C592.809 406.87 597.131 401.385 603.526 398.226C608.442 395.572 614.229 394.637 619.044 398.037Z" fill="#8E361F"/>
<path d="M614.229 403.989C617.022 405.771 618.817 409.17 617.755 412.468C615.733 419.848 610.855 424.221 605.889 429.617C604.006 431.487 603.804 433.269 603.854 435.834C607.367 436.795 609.263 436.757 612.384 434.811C619.461 430.312 626.639 426.862 635.157 426.357C639.82 426.104 645.418 429.554 645.001 434.722C644.154 438.425 639.933 440.801 636.433 441.344C631.82 441.989 626.867 441.142 622.229 440.889C627.397 439.942 632.642 440.055 637.81 439.133C639.832 438.337 643.308 436.454 642.575 433.812C642.372 430.919 638.809 429.061 636.18 429.074C627.574 428.998 619.524 432.119 612.852 437.477C611.967 438.033 611.07 438.589 610.173 439.145C607.519 438.88 604.865 438.589 602.211 438.412C601.946 436.15 601.529 433.825 601.605 431.538C603.488 428.77 606.344 426.533 608.581 424.031C612.346 419.912 615.594 415.413 615.733 409.6C615.784 407.097 612.599 404.671 610.249 405.985C603.02 408.702 597.523 415.463 594.376 422.325C592.885 425.093 591.824 428.037 590.838 431.02C589.271 431.942 587.653 432.978 585.947 433.61C584.608 433.13 583.458 432.372 582.295 431.55C584.456 430.817 587.363 430.931 588.412 428.568C590.901 424.322 592.493 419.646 595.728 415.628C598.913 411.735 602.73 408.235 606.938 405.467C609.111 404.204 611.74 402.687 614.229 403.989Z" fill="#953C24"/>
<path d="M610.249 405.985C612.599 404.671 615.784 407.097 615.733 409.6C615.594 415.413 612.346 419.912 608.58 424.031C608.909 421.163 609.566 417.612 608.429 414.869C607.595 413.328 605.8 412.809 604.499 414.061C601.251 417.03 598.104 419.949 594.376 422.325C597.523 415.463 603.02 408.702 610.249 405.985Z" fill="#E48965"/>
<path d="M568.281 408.854C572.084 407.729 574.915 412.607 576.697 415.274C579.502 419.444 579.174 423.766 579.048 428.543C578.656 430.249 578.226 431.929 577.746 433.585C572.047 428.909 574.536 419.962 568.243 416.879C564.831 418.698 562.164 421.693 562.96 425.826C567.067 433.029 578.681 436.567 580.956 444.895C581.954 449.28 580.16 455.877 577.468 459.39C572.009 464.23 564.957 466.682 559.763 472.027C555.884 475.957 551.802 475.187 546.848 474.302C547.947 473 549.123 471.762 550.336 470.587C557.552 465.936 564.388 460.692 571.25 455.548C573.399 453.552 576.975 451.226 576.356 447.852C576.154 444.39 571.541 442.33 568.976 440.687C562.796 437.502 556.806 432.119 556.073 424.827C555.378 417.106 561.128 410.724 568.281 408.854Z" fill="#EC7248"/>
<path d="M604.499 414.06C605.8 412.809 607.595 413.328 608.429 414.869C609.566 417.612 608.909 421.163 608.581 424.031C606.344 426.533 603.488 428.77 601.605 431.538C601.529 433.825 601.946 436.15 602.211 438.412C596.942 438.64 594.452 434.166 590.838 431.02C591.824 428.037 592.885 425.093 594.376 422.325C598.104 419.949 601.251 417.03 604.499 414.06Z" fill="#EC693F"/>
<path d="M864.194 428.227C858.76 437.781 860.996 447.486 857.483 457.431C855.423 462.764 852.605 467.756 850.533 473.076C847.26 480.76 846.135 488.519 841.295 495.558C836.152 504.24 829.517 511.632 823.615 519.745C814.251 528.87 804.407 537.147 792.705 543.137C776.087 553.184 757.776 559.793 738.883 563.976C726.435 565.694 713.432 563.963 700.908 564.393C697.938 564.469 695.297 565.404 694.084 568.323C692.024 573.668 691.178 579.38 688.865 584.663C686.83 590.463 682.913 597.793 684.606 603.96C683.873 601.938 683.292 599.865 682.521 597.856C682.066 599.486 680.866 601.71 681.649 603.366C682.635 605.54 684.492 607.827 687.108 607.738C691.026 607.966 694.046 605.009 696.978 602.848C698.937 601.483 700.908 600.194 703.158 599.322C713.444 595.897 724.375 595.025 735.117 596.378C743.18 597.515 749.65 602.368 754.679 608.535C757.927 612.465 757.776 618.531 756.954 623.27C754.92 630.132 747.451 635.148 741.651 638.725C735.332 642.87 728.432 644.134 721.128 645.448C714.304 646.573 707.884 648.001 700.908 647.95C693.566 647.937 685.68 648.519 678.502 646.876C672.449 645.637 666.282 644.26 661.076 640.772C662.984 630.485 666.105 621.778 662.264 611.252C658.333 600.889 653.822 591.992 656.703 580.518C656.994 577.611 658.232 574.945 658.359 572.051C659.319 574.161 658.435 577.851 661.619 577.725C661.657 575.021 661.531 572.316 661.67 569.599C662.731 570.699 663.729 571.823 664.601 573.062C664.273 576.739 663.098 580.354 662.769 584.044C662.731 590.084 664.564 596.251 666.105 602.064C667.546 607.625 670.768 613.577 670.465 619.301C670.44 625.051 669.05 631.724 670.351 637.36C677.656 639.925 685.516 641.669 693.288 641.581C700.099 641.581 707.012 642.086 713.785 641.492C720.963 641.063 725.083 636.513 732.198 634.239C738.997 632.052 746.895 627.832 749.208 620.59C751.002 611.896 743.432 605.539 735.774 603.669C726.865 601.988 716.894 602.405 708.238 605.16C702.235 606.967 696.776 610.62 690.71 611.871C686.123 612.819 679.286 610.152 677.896 605.35C677.011 595.025 682.003 583.273 685.251 573.58C686.413 570.61 687.399 566.427 690.116 564.519C693.616 562.03 698.141 559.982 702.336 559.06C709.236 557.619 717.046 560.096 724.161 559.477C733.348 558.63 742.548 555.534 751.23 552.754C756.12 551.376 760.897 549.835 765.611 547.964C769.756 546.284 774.229 545.589 778.336 543.895C782.406 541.532 784.579 536.793 789.356 534.923C795.03 532.484 800.666 530.841 805.784 527.176C814.074 521.641 818.599 513.604 825.334 506.262C831.931 499.109 836.101 491.008 840.663 482.504C843.898 475.958 848.031 469.235 849.812 462.208C852.138 453.274 851 444.605 855.019 436.024C856.889 432.018 859.455 428.555 864.194 428.227Z" fill="#E16D43"/>
<path d="M636.18 429.073C638.809 429.061 642.373 430.919 642.575 433.812C643.308 436.454 639.832 438.337 637.811 439.133C633.691 438.577 629.306 437.414 625.173 437.553C622.292 437.515 620.081 440.22 617.945 441.85C617.123 441.723 616.315 441.584 615.506 441.42C614.495 440.22 613.686 438.804 612.852 437.477C619.524 432.119 627.574 428.998 636.18 429.073Z" fill="#F68057"/>
<path d="M612.852 437.477C613.686 438.804 614.495 440.22 615.506 441.42C616.315 441.584 617.123 441.723 617.945 441.85C618.867 443.72 619.588 446.298 621.167 447.688C624.883 449.988 629.824 450.633 634.045 451.555C634.31 454.272 635.106 457.671 634.12 460.3C632.212 464.344 626.273 466.568 622.38 464.053C619.524 462.954 617.793 460.78 614.634 461.892C613.876 460.818 613.079 459.757 612.233 458.733C610.249 456.85 608.252 454.98 606.192 453.185C607.001 452.692 607.835 452.25 608.682 451.833C615.24 454.348 620.371 460.553 626.424 463.636C627.625 463.447 628.787 463.017 629.912 462.335C630.114 461.324 630.253 460.313 630.342 459.289C627.574 457.608 624.744 456.029 621.938 454.411C616.833 450.317 612.561 445.274 610.173 439.145C611.07 438.589 611.967 438.033 612.852 437.477Z" fill="#F86438"/>
<path d="M625.173 437.553C629.306 437.414 633.691 438.577 637.811 439.133C632.642 440.055 627.397 439.941 622.229 440.889C621.913 442.507 621.736 444.15 621.812 445.793C626.867 450.67 635.384 445.565 640.376 452.516C638.265 452.162 636.155 451.871 634.045 451.555C629.824 450.633 624.883 449.988 621.167 447.688C619.588 446.298 618.867 443.72 617.945 441.85C620.081 440.22 622.292 437.515 625.173 437.553Z" fill="#B9492A"/>
<path d="M557.299 442.924C559.283 444.339 561.241 445.742 562.91 447.536C560.635 452.149 555.34 455.447 551.422 458.619C551.321 457.356 550.525 456.597 551.144 455.346C552.939 451.1 555.352 447.119 557.299 442.924Z" fill="#EA8A6B"/>
<path d="M634.045 451.555C636.155 451.871 638.266 452.162 640.376 452.516C642.031 454.525 642.537 456.345 641.968 458.923C640.338 463.977 636.37 468.641 631.353 470.536C627.044 471.876 622.292 470.258 618.703 467.807C617.25 465.898 615.91 463.927 614.634 461.892C617.793 460.78 619.525 462.954 622.381 464.053C626.273 466.568 632.212 464.344 634.121 460.3C635.106 457.671 634.31 454.272 634.045 451.555Z" fill="#D87A58"/>
<path d="M612.233 458.733C613.079 459.757 613.875 460.818 614.634 461.892C615.91 463.927 617.25 465.898 618.703 467.807C614.912 465.241 611.992 462.309 607.822 460.351C604.031 466.631 600.505 475.073 601.251 482.504C602.325 483.274 603.513 483.906 604.815 484.399C608.505 481.821 609.92 476.552 612.864 473.051C617.806 473.847 621.875 476.412 626.702 477.322C631.365 478.043 636.382 476.703 640.439 474.403C644.622 472.078 647.149 467.225 650.852 464.673C654.352 463.902 658.181 464.382 661.745 464.42C668.86 464.875 675.911 464.344 683.001 463.636L683.974 465.064C676.67 466.24 669.075 466.96 661.682 466.366C658.409 466.24 654.668 465.557 651.458 466.379C647.642 469.209 645.292 473.506 641.109 476.122C635.839 479.42 629.988 481.606 623.935 478.915C620.674 477.942 616.466 474.618 613.079 475.591C611.297 478.573 610.286 482.226 608.151 484.955C604.84 488.254 599.065 487.091 597.776 482.491C597.801 479.483 599.545 476.387 600.531 473.569C602.628 468.438 603.728 463.106 605.13 457.76C607.494 458.152 609.882 458.303 612.233 458.733Z" fill="#913118"/>
<path d="M653.139 562.371C655.452 563.281 657.474 565.05 658.952 567.021C658.359 567.792 657.765 568.538 657.145 569.283C654.795 569.309 651.914 567.994 650.157 569.953C645.898 574.3 645.519 582.199 645.886 587.911C646.593 599.486 654.302 609.47 655.022 620.679C655.629 627.655 651.737 633.114 647.882 638.472C641.93 643.123 634.196 648.001 626.424 648.038C614.609 648.392 602.78 648.114 590.964 648.228C584.203 648.165 577.822 648.62 571.25 646.838C564.59 644.955 557.21 643.59 551.258 640.115C545.167 636.589 539.67 632.634 536.245 626.302C531.86 617.924 531.671 606.854 538.103 599.398C543.069 593.484 551.587 590.135 558.6 587.279C567.244 583.639 575.534 584.448 584.646 584.41C593.985 584.119 603.627 587.746 611.892 591.828C611.816 593.382 611.753 594.924 611.538 596.466C606.912 597.894 601.099 595.796 596.512 594.848C591.053 593.711 586.175 590.88 580.817 589.553C575.395 589.692 570.088 593.067 564.717 594.115C559.283 595.543 553.369 594.886 549.299 599.221C545.154 603.341 540.934 609.356 540.782 615.384C541.224 621.071 545.698 626.593 549.489 630.599C553.015 634.415 557.349 634.529 562.025 635.995C567.636 637.474 571.958 640.797 577.506 641.77C588.134 643.299 599.191 642.301 609.92 642.579C616.239 642.516 623.038 642.756 629.205 641.252C635.258 639.736 640.06 635.338 643.851 630.586C645.709 628.072 647.503 625.835 647.099 622.524C646.379 614.499 644.546 606.727 641.816 599.158C639.997 593.18 637.596 587.279 639.719 581.074C641.324 576.032 642.802 570.838 645.102 566.061C646.48 563.142 649.993 561.259 653.139 562.371Z" fill="#DF6D43"/>
<path d="M620.813 564.279C622.203 565.682 624.301 566.996 624.44 569.157C624.984 574.907 624.794 580.707 625.262 586.483C625.514 589.503 625.224 591.98 623.985 594.76C622.014 591.841 620.927 588.593 620.535 585.105C620.144 578.142 620.03 571.217 620.813 564.279Z" fill="#F3703F"/>
<path d="M657.145 569.283C657.297 572.999 657.259 576.84 656.703 580.518C653.822 591.992 658.333 600.889 662.263 611.252C666.105 621.778 662.984 630.485 661.075 640.772C658.902 639.559 656.753 637.411 654.289 636.88C652.128 636.968 649.929 637.828 647.882 638.472C651.737 633.114 655.629 627.655 655.022 620.679C654.302 609.47 646.593 599.486 645.885 587.911C645.519 582.199 645.898 574.3 650.157 569.953C651.913 567.994 654.795 569.309 657.145 569.283Z" fill="#250100"/>
<path d="M682.521 597.856C683.292 599.865 683.873 601.938 684.606 603.96C688.726 604.124 692.934 603.619 696.978 602.848C694.046 605.009 691.026 607.966 687.108 607.738C684.492 607.827 682.634 605.54 681.649 603.366C680.865 601.71 682.066 599.486 682.521 597.856Z" fill="#922B15"/>
<path d="M657.765 646.219C665.991 650.3 674.774 653.03 683.797 654.673L685.036 654.951C678.376 655.848 672.335 658.502 665.852 659.981C655.452 661.497 643.788 658.767 633.362 657.883C635.548 655.734 637.697 653.649 640.452 652.221C643.876 653.776 646.517 654.483 650.321 654.483C657.398 654.37 663.173 656.594 669.606 653.814C663.856 650.136 657.461 647.141 650.789 645.625C653.481 644.399 655.224 644.993 657.765 646.219Z" fill="#B2B2B4"/>
<path d="M489.172 649.226C494.454 651.501 500.216 649.909 505.714 649.542C511.577 648.974 516.923 650.389 522.736 650.288C527.841 650.301 532.757 649.049 537.875 649.201C542.779 649.075 546.683 650.857 550.967 647.571C552.547 648.797 554.076 650.01 555.795 651.021C559.144 651.691 562.745 651.16 566.119 652.032C570.694 653.295 574.624 655.254 579.515 655.545C585.429 655.836 591.356 655.343 597.27 655.444C603.096 655.722 607.86 653.915 612.966 657.58C605.232 657.592 597.46 657.301 589.726 657.529C586.301 657.782 584.81 658.224 582.75 661.093C587.249 662.887 592.215 662.735 596.689 664.404C599.798 666.11 599.507 668.726 599.115 671.796C594.642 672.062 590.509 670.571 586.099 670.558C582.143 670.836 578.264 671.834 574.296 672.188C577.645 671 581.221 669.041 584.734 668.662C588.399 668.801 591.899 670.267 595.526 670.293C597.27 669.458 596.841 668.309 596.916 666.666C592.771 662.344 586.112 663.595 581.095 665.465C574.46 668.182 567.724 668.068 560.749 668.978C562.379 670.154 564.072 671.24 565.804 672.264C559.017 671.897 552.256 672.112 545.47 672.125C534.286 671.999 522.546 671.443 511.362 672.403C507.521 672.694 503.944 673.111 500.141 672.188C498.321 668.207 502.112 666.185 505.41 665.554C513.448 663.671 522.167 666.388 528.852 661.067C519.615 656.404 509.745 658.78 500.002 659.69C493.493 660.499 487.781 659.273 481.45 661.358C474.576 663.683 466.879 663.683 459.714 662.988C455.506 662.596 452.991 659.21 450.704 656.05C459.563 653.675 470.658 657.693 478.847 654.016C479.782 651.703 480.452 649.302 481.311 646.977C483.902 646.674 486.733 648.493 489.172 649.226Z" fill="#C2C2C2"/>
<path d="M650.789 645.625C657.461 647.141 663.856 650.136 669.605 653.814C663.173 656.594 657.398 654.37 650.321 654.483C646.517 654.483 643.876 653.776 640.451 652.221C644.028 650.212 647.402 647.925 650.789 645.625Z" fill="#FDFEFD"/>
<path d="M743.546 646.813C741.511 649.201 737.328 652.133 737.177 655.456C744.62 656.758 748.399 648.91 756.309 649.125C755.817 650.149 755.298 651.147 754.73 652.133C765.888 654.218 776.162 656.783 786.816 651.261C779.966 650.894 773.155 650.806 766.343 649.845C774.709 650.25 783.138 649.428 791.504 648.999C797.203 648.733 803.585 647.495 809.171 648.746C809.929 649.845 810.599 651.021 811.168 652.272C807.414 655.57 803.56 654.193 799.036 654.218C802.107 653.826 805.443 653.346 808.299 652.082L808.097 649.934C804.179 649.416 800.148 649.555 796.23 650.048C796.698 651.463 797.254 652.828 797.835 654.193C789.912 654.294 782.089 656.126 774.204 656.354C767.835 656.505 761.491 654.18 755.185 654.18C752.695 654.319 749.839 654.42 748.917 657.213C755.703 658.944 763.209 658.06 770.198 658.527C777.388 658.97 784.731 657.365 791.845 658.148C794.158 658.275 795.219 659.816 796.774 661.269C791.314 665.288 785.918 663.607 779.688 663.355C774.014 662.761 768.504 663.468 762.843 663.86C754.667 664.454 747.274 661.548 739.098 661.977C734.649 661.965 730.593 663.152 726.789 660.208C728.495 658.35 730.315 656.644 732.059 654.825C725.892 654.964 720.23 656.493 714.404 658.376C709.981 659.804 705.811 659.323 701.451 657.959C696.068 656.227 690.545 656 685.036 654.951L683.797 654.673C690.027 654.332 696.219 654.964 702.311 656.189C705.103 656.682 708.2 657.125 711.018 656.644C714.834 655.52 718.335 652.777 722.265 651.918C725.993 651.425 729.872 651.779 733.6 651.4C737.101 650.894 740.551 648.607 743.546 646.813Z" fill="#BFBFBF"/>
<path d="M484.243 650.844C486.063 650.364 488.135 650.692 489.993 650.781C500.04 651.842 510.036 651.172 520.196 651.375C526.944 651.539 533.579 650.048 540.302 650.136C542.159 650.364 544.775 650.414 545.154 652.739C535.626 654.622 525.984 657.137 516.38 657.238C509.202 657.415 502.137 658.426 494.934 658.262C483.068 657.668 472.111 662.129 460.068 661.51C456.833 661.168 455.936 658.78 454.47 656.316C461.61 656.796 467.764 658.692 474.917 656.733C479.087 655.962 480.957 653.03 484.243 650.844Z" fill="#AEADAF"/>
<path d="M756.31 649.125C759.658 649.15 763.02 649.441 766.344 649.846C773.155 650.806 779.966 650.894 786.816 651.261C776.163 656.783 765.889 654.218 754.73 652.133C755.299 651.147 755.817 650.149 756.31 649.125Z" fill="#A2A5A3"/>
<path d="M796.23 650.048C800.148 649.555 804.179 649.416 808.097 649.934L808.299 652.082C805.443 653.346 802.107 653.826 799.036 654.218L797.835 654.193C797.254 652.828 796.698 651.463 796.23 650.048Z" fill="#9B9B9B"/>
<path d="M483.599 652.841C489.386 652.234 495.402 652.563 501.24 652.474C509.998 652.461 519.299 651.817 527.955 652.916C526.679 654.231 525.895 655.596 523.873 655.697C516.354 656.531 508.734 656.189 501.19 656.922C496.008 657.112 489.247 657.87 484.546 655.343C484.18 654.521 483.864 653.687 483.599 652.841Z" fill="#909391"/>
<path d="M551.802 653.51C556.515 652.967 561.204 653.296 565.728 654.774C570.669 656.379 576.444 657.731 580.488 661.055C578.138 663.582 575.673 665.579 572.021 665.49C568.142 666.046 566.575 659.576 562.96 659.109C557.198 658.502 551.258 659.184 545.47 659.222C540.719 659.197 536.46 659.829 532.037 657.63C538.242 655.178 545.205 654.256 551.802 653.51Z" fill="#FBFAFB"/>
<path d="M596.916 666.666C596.841 668.308 597.27 669.458 595.526 670.292C591.899 670.267 588.399 668.801 584.734 668.662C581.221 669.041 577.645 671 574.296 672.188C571.503 672.479 568.609 672.428 565.804 672.264C564.072 671.24 562.379 670.154 560.749 668.978C567.725 668.068 574.46 668.182 581.095 665.465C586.112 663.595 592.771 662.344 596.916 666.666Z" fill="#A9ACAB"/>
<path d="M617.755 667.057C630.607 666.021 643.813 666.956 656.678 667.752C673.953 667.917 691.215 668.068 708.49 667.841C724.881 668.334 741.271 667.879 757.649 668.119C760.872 668.271 761.2 669.446 761.377 672.403C755.324 673.641 748.778 673.111 742.611 673.111C730.795 672.656 719.017 673.439 707.214 672.782C687.108 672.668 666.648 673.667 646.581 672.188C637.128 671.531 627.587 672.491 618.172 671.594C617.881 670.09 617.755 668.586 617.755 667.057Z" fill="#939496"/>
</g>
<defs>
<clipPath id="clip0_2_1311">
<rect width="1330" height="730" fill="white"/>
</clipPath>
</defs>
</svg>
