<svg width="1330" height="734" viewBox="0 0 1330 734" fill="none" xmlns="http://www.w3.org/2000/svg">
<g clip-path="url(#clip0_2_1012)">
<path d="M0 0H1330V733.333H0V0Z" fill="white"/>
<path d="M789.649 126.655C792.817 127.698 795.62 130.332 798.241 132.339C800.301 132.183 802.361 132.027 804.421 131.857C804.851 133.043 805.268 134.243 805.698 135.442C809.531 135.938 815.02 135.612 818.136 138.063C818.762 140.032 818.684 142.313 818.788 144.373C819.023 144.843 819.245 145.325 819.466 145.794C820.783 144.021 822.087 142.248 823.391 140.475C824.355 142.626 825.32 144.791 826.285 146.942C827.354 145.781 828.41 144.621 829.479 143.461C836.467 147.346 844.994 151.857 849.479 158.689C848.084 160.97 846.207 163.004 844.512 165.064C848.41 164.608 852.321 164.204 856.22 163.747C854.551 165.064 852.882 166.368 851.213 167.685C855.177 171.883 858.214 176.655 861.057 181.661C861.135 178.741 861.213 175.807 861.291 172.887C864.759 182.665 868.345 192.222 869.583 202.613C868.593 202.652 867.602 202.691 866.611 202.743C865.868 197.685 865.503 193.552 861.357 190.058C861.096 192.652 860.574 195.481 860.978 198.076C861.943 201.974 864.786 205.56 865.45 209.523C865.868 214.008 864.303 218.102 862.817 222.235C860.079 218.298 859.805 214.79 859.909 210.11C859.218 209.432 858.514 208.754 857.81 208.063C857.602 213.656 857.602 219.223 857.771 224.803C859.753 225.599 861.748 226.407 863.729 227.215C859.74 230.618 855.151 231.922 850.235 233.421C846.259 234.269 844.538 239.184 842.504 242.313C840.144 241.987 837.758 241.596 835.385 241.479C834.981 244.152 834.929 246.942 834.812 249.64C831.031 250.631 827.276 251.766 823.443 252.574C818.84 253.578 813.625 252.926 808.892 252.874C810.209 255.168 811.539 257.476 812.882 259.771C811.995 265.416 810.105 271.453 810.587 277.176C811.735 282.444 814.486 287.346 816.102 292.509C817.302 292.626 818.488 292.73 819.688 292.848C822.139 296.12 825.177 299.119 827.211 302.665C828.097 305.768 827.81 309.301 827.902 312.522C826.937 312.261 825.972 312 825.007 311.752C823.534 309.067 822.126 306.342 820.626 303.669C819.57 304.178 818.514 304.673 817.458 305.181C815.816 302.326 814.173 299.458 812.504 296.616C810.861 299.132 809.205 301.635 807.497 304.099C807.093 301.844 805.698 298.884 806.859 296.72C807.823 294.178 809.179 291.687 809.909 289.067C809.597 287.424 809.14 285.794 808.553 284.204C806.533 287.346 804.929 290.709 803.417 294.125C801.604 292.444 799.792 290.775 797.954 289.119C795.464 290.266 792.895 291.635 790.222 292.274C788.554 291.061 787.093 289.523 785.62 288.089C788.241 286.003 790.874 283.93 793.521 281.857C791.943 279.914 790.366 277.959 788.814 275.99C786.728 279.719 783.912 284.112 783.847 288.493C783.977 291.505 785.75 294.582 786.911 297.333C786.598 300.279 785.646 303.617 786.194 306.55C787.771 310.488 790.783 313.265 791.083 317.698C791.591 324.49 792.022 331.153 793.717 337.789C795.503 337.267 797.302 336.746 799.088 336.211C799.14 342.261 799.544 348.78 798.202 354.699C797.654 358.128 793.847 359.862 791.37 361.883C792.491 364.451 793.651 367.007 794.825 369.562C790.131 373.773 784.577 376.537 779.531 380.188C779.271 382.326 779.557 384.556 779.688 386.694C779.166 387.293 778.645 387.88 778.123 388.48C773.899 385.677 769.87 382.339 765.346 380.044C762.726 378.389 759.988 380.475 757.511 381.426C760.209 384.347 762.543 387.333 764.551 390.775C765.307 388.897 766.063 387.033 766.82 385.168C767.758 387.606 768.671 390.044 769.584 392.482C765.555 392.6 761.904 393.825 758.567 390.866C754.316 387.267 750.457 384.451 744.916 383.069C745.529 380.553 746.155 378.037 746.807 375.533C744.564 376.472 740.966 379.38 738.501 378.545C735.49 376.159 734.212 371.166 732.621 367.724C731.826 367.919 731.031 368.115 730.235 368.31C725.764 353.643 722.869 338.571 721.67 323.265C720.9 317.711 721.005 310.983 718.371 305.964C716.233 303.956 711.917 303.891 709.153 303.108C705.764 312.443 708.215 320.709 708.71 330.214C709.571 342.117 712.504 353.982 715.02 365.625C717.25 375.794 722.309 383.969 726.324 393.434C727.928 397.228 730.196 400.54 733.534 403.03C738.749 407.189 744.773 407.385 750.314 410.931C753.078 412.365 754.786 414.699 758.149 413.682C766.337 411.765 773.612 409.093 782.295 409.406C786.207 409.614 790.014 412.496 793.756 413.63C797.38 412.613 801.005 409.732 803.143 406.668C805.763 402.065 803.312 397.554 801.513 393.2C803.73 390.788 805.633 388.206 807.002 385.207C811.474 375.703 816.728 366.629 821.943 357.515C824.329 353.369 823.925 349.197 823.834 344.595C821.291 348.532 819.166 352.678 817.185 356.915C816.833 349.94 815.633 342.313 817.054 335.455C819.14 330.501 824.707 326.785 828.475 323.043C828.971 325.781 829.479 328.532 829.975 331.27C830.744 327.867 831.513 324.477 832.321 321.088C834.134 323.056 836.598 325.09 837.576 327.606C838.736 331.857 838.436 336.616 838.801 340.996C840.118 356.355 843.195 372.535 841.63 387.919C840.77 395.807 836.155 400.931 830.196 405.638C832.139 407.398 834.095 409.171 836.05 410.918C834.916 415.286 833.938 419.875 832.139 424.021C830.574 427.567 828.136 430.449 826.376 433.838C824.173 438.102 823.664 442.965 821.5 447.111C819.936 449.979 817.38 452.495 815.151 454.868C813.299 452.991 811.448 451.1 809.597 449.223C807.876 453.199 806.637 457.319 805.346 461.452C803.782 466.576 800.561 470.54 798.645 475.533C797.054 479.288 796.155 483.395 792.765 486.003C789.323 488.754 785.516 491.022 782.009 493.682C779.584 495.377 776.976 497.606 774.095 498.388C770.757 498.284 767.289 496.694 764.199 495.507C763.938 498.741 763.664 501.974 763.391 505.207C756.259 507.267 750.17 510.188 743.86 514.034C740.718 516.211 737.028 514.073 733.743 513.369C726.872 514.999 720.614 517.984 714.108 520.631C708.41 522.886 703.13 521.948 697.224 521.439C690.444 520.722 683.665 520.735 676.846 520.813L676.807 518.754C683.195 518.714 688.749 519.875 694.59 516.615C682.426 514.829 670.144 516.485 657.902 514.855C658.332 513.173 658.775 511.491 659.206 509.797C656.324 509.627 653.456 509.445 650.588 509.236C651.37 511.126 652.152 513.017 652.934 514.907C647.824 514.973 643.691 513.838 639.049 511.713C638.984 510.644 638.932 509.575 638.867 508.506C642.23 507.424 645.594 506.368 648.919 505.168C646.663 503.812 644.069 501.478 641.383 501.27C637.237 501.57 633.873 506.172 629.988 507.072C625.516 505.52 623.065 497.137 617.224 498.388C614.238 501.348 611.918 505.012 609.323 508.31C607.159 506.289 604.994 504.256 602.83 502.235C602.061 504.49 601.279 506.746 600.509 509.001C602.934 509.614 605.36 510.227 607.785 510.84C605.307 513.786 602.804 516.72 600.262 519.627C599.088 517.815 597.915 516.003 596.715 514.203C594.004 513.969 591.018 514.021 588.423 513.134C586.311 509.001 584.812 504.49 583.169 500.149C581.474 495.585 581.735 491.126 581.97 486.381C574.929 482.039 567.732 478.232 561.318 472.939C566.52 472.834 571.709 473.239 576.911 473.252C582.843 473.252 588.097 471.831 594.043 472.548C597.615 472.9 601.253 473.943 604.825 473.864C609.44 472.808 613.456 470.396 618.28 470.031C620.366 469.51 623.247 469.927 624.408 467.802C630.066 459.549 632.517 448.48 635.92 439.093C634.812 437.319 633.717 435.533 632.622 433.747C633.378 426.694 633.091 420.162 630.418 413.486C628.867 417.867 627.432 422.287 625.881 426.668C625.112 421.557 624.525 416.563 625.451 411.426C626.298 405.794 628.476 400.748 630.444 395.468C632.895 390.279 629.858 383.669 628.984 378.245C630.705 379.275 632.426 380.305 634.134 381.335C635.125 374.595 634.955 368.936 633.73 362.248C632.465 355.26 633.886 348.78 634.681 341.857C635.386 336.211 634.095 331.061 632.726 325.625C627.393 324.034 622.726 321.153 617.628 319.106C612.4 318.819 605.998 321.948 600.431 320.84C594.004 319.64 589.401 316.042 582.609 317.489C581.279 315.09 579.975 312.626 578.436 310.344C576.989 308.649 576.507 306.55 573.834 307.267C571.135 308.597 568.775 310.866 566.507 312.822C563.951 312.874 561.396 312.887 558.841 312.913C559.519 317.672 560.627 322.352 561.357 327.098C562.465 335.586 558.436 343.539 558.058 351.752C557.785 356.068 560.575 359.758 562.83 363.2C566.833 363.304 568.854 363.943 572.244 366.185C568.88 367.476 566.194 367.763 562.635 367.502C562.465 368.519 562.283 369.549 562.113 370.566C564.082 371.035 566.051 371.492 568.019 371.961C568.111 373.082 568.189 374.217 568.267 375.351C559.61 377.632 550.835 377.932 541.918 377.88C544.669 374.803 547.746 371.844 550.079 368.441C549.128 366.981 547.98 365.599 546.872 364.243C544.968 367.763 542.987 371.231 540.875 374.634C538.228 370.67 536.155 366.615 534.955 361.987C533.912 358.063 532.53 355.181 529.988 352.052C528.241 348.063 525.959 344.008 525.021 339.732C525.334 336.524 527.146 333.278 527.263 329.94C527.354 326.902 526.924 323.786 526.572 320.762C528.254 322.078 529.923 323.395 531.605 324.712C534.069 319.901 535.164 315.938 535.49 310.553C538.489 309.484 541.5 308.441 544.486 307.333C546.755 303.187 548.684 299.354 553.169 297.215C556.624 295.234 559.975 295.716 563.743 295.912C563.782 289.706 567.719 286.485 569.988 281.205C571.97 273.369 567.406 268.584 563.313 262.613C562.439 264.504 561.579 266.394 560.718 268.284C553.717 265.547 547.563 261.57 541.657 256.968C538.945 257.607 536.233 258.245 533.521 258.897C533.899 253.878 533.978 247.541 536.781 243.213C538.645 240.814 542.478 239.849 545.164 238.623C545.686 236.772 546.194 234.908 546.702 233.056C551.031 234.386 555.373 235.651 559.727 236.85C558.41 233.839 557.081 230.827 555.712 227.828C556.481 227.476 557.237 227.124 558.006 226.772C559.74 227.346 561.487 227.919 563.221 228.506C568.463 223.513 573.365 218.258 578.189 212.861C584.186 205.677 595.672 203.734 604.473 204.973C609.779 207.15 613.717 211.909 619.075 214.243C621.109 215.377 623.365 216.537 625.086 218.102C626.22 220.736 626.363 223.904 626.663 226.72C627.224 234.36 628.593 241.935 630.366 249.38C631.878 255.651 635.829 260.279 637.837 266.277C638.723 268.871 639.414 271.596 640.105 274.256C641.383 273.76 642.674 273.278 643.964 272.783C645.946 275.859 647.406 278.858 650.796 280.644C655.164 282.887 658.945 285.716 662.921 288.545C665.516 288.324 668.097 286.837 670.47 285.82C672.191 286.511 673.912 287.215 675.607 287.945C680.131 290.188 683.56 291.205 688.619 290.436C685.855 288.715 683.039 287.098 680.183 285.547C680.914 284.517 681.657 283.474 682.4 282.43C691.631 284.738 700.457 287.502 710.105 287.45C710.509 286.264 710.913 285.09 711.331 283.904C713.821 283.395 716.546 283.017 718.854 281.909C721.683 279.784 723.691 276.498 726.585 274.477C728.697 273.213 731.252 272.561 733.573 271.779C733.56 269.588 733.534 267.398 733.534 265.221C735.894 263.03 738.827 260.67 740.288 257.763C741.722 254.856 742.608 251.609 743.586 248.519C745.307 250.253 747.041 251.987 748.775 253.734C749.792 253.76 750.822 253.786 751.839 253.826C753.104 250.527 754.551 247.176 755.346 243.734C756.454 239.015 752.582 235.286 755.229 230.736C757.471 226.277 758.423 222.939 758.293 217.893C759.909 218.415 761.513 218.923 763.13 219.432C762.269 215.899 761.37 212.365 760.47 208.832C762.204 207.372 763.925 205.912 765.633 204.438C765.568 195.221 768.097 186.355 767.484 177.072C770.027 178.963 772.582 180.853 775.125 182.744C772.934 178.206 770.327 173.33 769.662 168.298C768.853 162.548 769.779 156.407 770.561 150.684C771.461 155.26 772.4 159.836 773.495 164.386C775.907 152.079 777.563 139.875 776.441 127.32C780.705 126.824 785.411 125.86 789.649 126.655Z" fill="#FEFE04"/>
<path d="M711.722 55.2339C714.342 56.316 716.78 57.9849 719.206 59.4451C709.975 60.1752 702.022 58.5064 693.234 61.8049C680.196 66.2639 670.444 76.4985 662.726 87.5285C660.379 91.1661 657.263 93.0305 653.443 94.7384L654.108 91.4268C647.732 92.0787 641.213 93.0826 634.903 94.2039C632.882 94.4516 631.552 95.6119 630.118 96.9157C629.505 97.4763 628.893 98.037 628.28 98.5976C627.406 98.2716 626.52 97.9587 625.633 97.6589C621.592 96.3942 618.293 97.8284 614.447 98.8844C606.311 99.771 599.336 103.017 591.97 106.277C578.945 110.853 567.954 119.967 555.933 127.424C556.611 125.455 557.289 123.474 557.954 121.492C563.691 117.294 569.962 114.06 575.894 110.175C587.276 102.261 601.67 97.6328 614.655 93.0174C618.88 91.3747 623.169 89.9275 627.602 88.9887C637.472 86.8114 647.863 84.7254 657.98 84.934C665.033 74.1908 674.473 64.4516 686.063 58.6889C694.277 54.6472 702.804 54.7515 711.722 55.2339Z" fill="#160905"/>
<path d="M719.206 59.4451C723.378 61.9484 727.38 64.7124 731.487 67.3199C737.419 70.462 740.483 78.024 744.421 83.3955C747.941 81.5833 752.009 78.8845 756.024 78.6367C761.722 78.2717 767.471 78.4151 773.169 78.6498C780.301 78.7802 786.076 83.4738 792.543 86.4333C799.375 83.0957 807.145 80.3447 814.773 79.9014C821.37 80.5663 828.071 85.4946 833.13 89.5624C835.868 91.6485 837.993 94.3864 838.932 97.7371C839.518 106.316 840.105 114.973 840.301 123.565C840.405 129.119 838.071 133.591 835.464 138.298C827.263 133.904 818.449 130.579 809.883 126.955C803.86 124.399 797.719 122.287 791.357 120.736C781.161 118.233 772.009 115.012 761.383 114.96C761.63 120.006 762.217 124.999 762.895 129.993C763.808 139.471 763.521 149.223 763.469 158.728C763.43 180.644 757.641 202.887 750.64 223.539C746.937 233.734 740.796 243.291 735.229 252.587C728.684 263.265 718.502 271.427 706.754 275.703C698.958 277.828 690.353 278.623 682.426 276.733C675.594 275.195 669.01 272.404 662.947 268.897C656.963 265.52 653.234 259.171 649.506 253.565C644.108 245.325 641.657 236.264 639.675 226.72C637.876 217.75 635.764 208.858 634.004 199.875C623.769 200.123 613.808 197.893 603.573 198.154C596.755 198.285 589.584 197.672 582.869 198.897C579.049 201.531 576.403 205.781 572.843 208.819C563.43 216.955 552.53 223.708 541.8 229.966C531.839 236.185 521.396 241.961 510.431 246.198C505.803 246.225 501.227 246.811 496.611 247.098C493.665 247.58 491.735 245.247 490.51 242.9C488.776 239.262 489.897 235.051 490.888 231.361C493.73 222.118 496.377 212.835 500.001 203.839C502.022 198.884 502.53 193.747 503.156 188.48C506.39 182.392 510.718 176.968 514.03 170.892C520.027 159.68 529.349 150.514 536.794 140.084C542.856 133.043 550.627 127.189 557.954 121.492C557.289 123.474 556.611 125.455 555.933 127.424C567.954 119.967 578.945 110.853 591.97 106.277C599.336 103.017 606.311 99.771 614.447 98.8844C607.628 102.405 600.483 105.051 593.456 108.05C585.816 111.257 578.71 115.821 571.566 120.058C559.753 126.811 548.58 135.338 539.532 145.521C531.918 155.429 524.082 165.064 517.693 175.847C511.461 184.934 507.107 194.882 502.244 204.725C498.802 211.935 496.742 219.262 494.095 226.772C492.987 230.058 491.709 233.539 491.318 236.994C491.331 239.927 492.909 242.926 493.86 245.664C504.969 242.926 514.708 237.672 524.786 232.457C532.087 228.61 538.854 223.93 545.998 219.758C558.58 212.026 571.761 203.721 580.549 191.661C589.818 181.153 598.997 171.01 606.468 159.054C614.095 146.42 618.254 133.07 622.413 119.002C624.512 112.027 625.346 104.921 625.633 97.6589C626.52 97.9588 627.406 98.2717 628.28 98.5976C628.893 98.037 629.506 97.4763 630.118 96.9157C630.288 100.188 630.418 103.369 630.17 106.642C628.176 121.909 623.195 136.016 617.341 150.175C623.195 150.332 629.14 150.579 634.981 150.058C637.615 143.865 637.472 136.655 639.44 130.188C642.752 118.193 647.628 105.742 653.443 94.7384C657.263 93.0305 660.379 91.1661 662.726 87.5285C670.444 76.4985 680.196 66.2639 693.234 61.8049C702.022 58.5064 709.975 60.1752 719.206 59.4451Z" fill="#320502"/>
<path d="M712.256 61.4138C719.753 62.6003 726.689 68.2847 731.761 73.6563C737.224 79.4842 737.406 86.5637 741.226 93.0435C745.099 93.3955 747.654 91.3355 750.796 89.4972C758.254 84.5168 768.449 82.4829 777.08 85.2208C783.026 87.02 787.054 92.1439 792.713 94.0865C798.736 92.3395 803.065 87.685 809.636 86.6028C814.603 85.8857 820.222 86.0161 824.447 89.08C828.88 92.3525 832.582 96.9418 834.499 102.144C837.758 111.44 837.993 120.997 836.95 130.71C822.661 127.385 811.044 119.054 796.859 115.677C787.263 113.304 777.498 111.349 767.693 110.058C764.499 109.849 759.688 109.145 757.107 111.466C755.242 113.435 755.751 115.794 755.842 118.272C756.624 125.26 758.006 132.092 758.032 139.171C758.084 149.862 758.215 160.892 756.741 171.479C754.668 186.329 751.2 201.009 746.389 215.208C739.219 233.33 731.917 249.927 716.311 262.47C703.052 274.569 680.822 274.086 666.559 264.073C659.623 259.432 656.038 252.639 652.309 245.429C647.693 236.433 645.985 225.781 643.873 215.899C642.491 209.797 642.113 203.343 640.184 197.411C638.88 193.408 634.186 192.783 630.601 192.339C618.098 191.544 605.412 192.274 593.261 188.193C598.345 180.54 604.264 173.565 608.932 165.625C610.835 162.926 612.922 158.467 616.637 158.298C624.564 157.15 632.661 156.929 640.653 156.485C643.234 145.716 644.082 135.312 647.55 124.804C650.366 116.277 654.277 108.089 657.889 99.8753C662.596 89.1582 669.792 79.7189 678.528 71.9744C687.563 63.9692 700.262 59.8232 712.256 61.4138Z" fill="#B51921"/>
<path d="M705.79 64.1909C713.834 63.1739 721.865 68.728 727.563 73.8388C733.508 79.2756 734.186 85.977 737.406 92.861C738.567 95.2208 739.949 97.2677 742.908 96.9418C747.367 96.1856 751.539 92.5611 755.516 90.462C761.331 87.02 768.893 86.7071 775.229 88.715C781.213 90.6185 786.428 96.8505 792.621 97.4633C799.531 96.655 806.246 89.9927 813.391 89.8753C818.671 89.7971 823.273 93.6432 826.624 97.346C833.156 104.373 834.786 114.791 833.703 124.021C826.715 124.934 820.692 121.322 814.577 118.571C806.806 114.882 799.062 113.682 790.874 111.023C780.744 107.789 768.619 104.295 757.967 106.055C754.564 106.433 753.26 110.788 752.83 113.63C751.891 122.392 754.825 131.57 755.046 140.449C755.555 159.132 753.404 177.672 748.984 195.82C746.598 209.458 741.005 221.727 735.099 234.112C731.135 242.092 724.486 248.91 718.814 255.755C711.2 264.556 700.053 269.784 688.293 268.284C679.18 267.124 668.384 263.773 662.439 256.329C656.624 249.236 652.504 240.683 650.366 231.779C647.432 219.94 645.399 207.946 642.934 196.029C642.035 190.996 637.876 190.892 633.743 189.914C622.243 188.193 610.496 188.415 598.932 186.942C602.83 180.41 607.511 174.399 611.305 167.802C612.752 165.677 614.277 162.496 617.002 161.922C624.199 159.875 632.322 161.114 639.466 159.197C642.387 158.311 643.547 155.625 644.303 152.913C645.698 147.411 646.05 141.688 647.341 136.159C648.997 128.415 651.917 121.14 655.281 113.995C659.088 105.99 661.031 98.2847 666.155 90.9835C670.535 84.7384 675.49 78.4542 681.448 73.6433C688.176 68.0761 697.237 65.1687 705.79 64.1909Z" fill="#F6070C"/>
<path d="M712.543 80.9835C720.353 83.2652 726.859 89.6015 731.422 96.1204C738.032 105.808 740.105 118.193 741.096 129.641C742.217 143.109 743.977 157.111 743.052 170.514C742.713 176.316 741.917 182.039 741.24 187.802C740.627 192.848 740.262 198.024 739.245 203.004C737.928 209.471 734.629 215.873 732.009 221.961C729.453 227.828 726.494 233.408 722.139 238.154C717.537 243.2 711.904 248.35 705.099 249.966C695.594 252.065 685.386 250.918 676.95 245.859C667.094 240.462 660.901 230.579 658.306 219.849C655.19 206.655 653.521 193.148 653.873 179.588C654.16 160.918 655.36 141.036 662.165 123.474C664.343 117.933 666.546 112.379 669.088 106.994C672.426 99.8883 677.798 94.0213 683.339 88.5585C687.198 84.8818 691.631 80.9705 697.002 79.8753C702.1 78.8845 707.589 79.5233 712.543 80.9835Z" fill="#C11921"/>
<path d="M714.186 84.7124C724.186 88.3629 730.548 99.5102 733.86 109.041C740.692 130.553 740.574 154.621 739.883 176.981C738.423 190.944 736.702 206.498 730.574 219.249C726.037 229.015 718.919 238.115 709.91 244.125C695.764 253.565 674.29 245.755 666.402 231.531C656.259 214.282 656.663 194.999 657.041 175.677C657.172 166.837 656.898 158.428 658.384 149.667C660.327 138.206 663.808 126.994 668.071 116.212C673.821 102.418 682.647 90.0448 696.494 83.552C702.152 80.8532 708.645 82.5872 714.186 84.7124Z" fill="#710A0D"/>
<path d="M716.807 88.389C723.925 94.0996 730.131 101.453 732.778 110.332C736.82 123.774 737.38 137.02 737.771 150.905C738.136 159.197 738.71 167.372 737.967 175.664C736.976 187.789 735.946 200.697 731.292 212.066C726.637 222.991 721.07 233.187 711.578 240.67C703.326 247.059 691.526 247.424 682.23 243.161C673.782 239.601 667.837 231.453 664.316 223.252C659.01 210.24 658.137 194.803 658.215 180.892C658.775 169.015 658.684 156.407 661.383 144.934C664.264 131.896 668.319 118.102 675.32 106.642C680.209 99.1191 685.685 91.3877 693.951 87.3329C701.096 83.6693 710.275 83.1348 716.807 88.389Z" fill="#1D0504"/>
<path d="M701.37 89.1322C706.611 89.0148 712.661 90.4229 716.937 93.578C722.817 99.0148 727.12 106.381 728.945 114.191C730.953 122.248 733.743 130.892 733.508 139.171C733.73 151.335 733.899 163.526 733.612 175.677C733.43 184.869 731.292 193.526 729.023 202.365C725.881 214.556 719.323 226.603 709.766 234.934C705.451 238.493 699.31 242.313 693.521 241.687C685.672 240.814 678.241 237.411 673.482 230.944C666.729 222.965 665.542 210.488 663.43 200.449C662.556 187.828 662.387 173.891 663.873 161.335C664.499 152.613 666.807 143.904 669.114 135.468C673.404 121.479 678.371 108.611 688.867 97.9979C692.309 94.6341 696.598 90.3316 701.37 89.1322Z" fill="#FDFDFC"/>
<path d="M654.108 91.4268L653.443 94.7384C647.628 105.742 642.752 118.193 639.44 130.188C637.472 136.655 637.615 143.865 634.981 150.058C629.141 150.579 623.195 150.332 617.341 150.175C623.195 136.016 628.176 121.909 630.17 106.642C630.418 103.369 630.288 100.188 630.118 96.9157C631.552 95.6119 632.882 94.4516 634.903 94.2039C641.214 93.0826 647.732 92.0787 654.108 91.4268Z" fill="#E4E16B"/>
<path d="M625.633 97.6589C625.347 104.921 624.512 112.027 622.413 119.002C618.254 133.07 614.095 146.42 606.468 159.054C598.997 171.009 589.819 181.153 580.549 191.661C571.761 203.721 558.58 212.026 545.998 219.758C538.854 223.93 532.087 228.61 524.786 232.457C514.708 237.672 504.969 242.926 493.86 245.664C492.909 242.926 491.331 239.927 491.318 236.994C491.709 233.539 492.987 230.058 494.095 226.772C496.742 219.262 498.802 211.935 502.244 204.725C507.107 194.882 511.461 184.934 517.693 175.847C524.082 165.064 531.918 155.429 539.532 145.521C548.58 135.338 559.753 126.811 571.566 120.058C578.71 115.821 585.816 111.257 593.456 108.05C600.483 105.051 607.628 102.405 614.447 98.8844C618.293 97.8284 621.592 96.3942 625.633 97.6589Z" fill="#C2673E"/>
<path d="M647.902 97.9979C645.294 105.13 642.387 112.157 639.91 119.341C637.654 125.86 636.702 132.561 635.034 139.223C634.343 141.648 633.534 144.791 631.579 146.525C628.893 147.398 625.725 147.085 622.921 147.137C623.756 137.541 628.436 129.497 630.327 120.149C632.178 113.148 632.478 105.56 634.955 98.7671C639.167 95.5859 643.286 96.8245 647.902 97.9979Z" fill="#F9F817"/>
<path d="M838.932 97.7371C842.048 110.006 844.421 122.978 844.147 135.651C853.117 142 860.392 150.058 867.028 158.741C873.052 167.163 878.788 176.642 880.366 187.033C881.617 198.558 883.534 209.836 879.883 221.14C876.063 234.543 866.22 243.382 856.311 252.483C846.572 259.94 835.203 265.442 824.251 270.905C826.507 275.39 828.997 279.745 831.578 284.047C839.975 297.45 845.62 312.822 849.87 327.998C854.068 347.802 857.602 366.576 855.046 386.915C853.169 401.009 850.627 414.66 845.451 427.971C840.079 443.617 831.657 457.515 821.8 470.696C814.199 482.495 805.099 493.212 794.121 502C790.718 500.592 787.941 499.901 784.264 500.735C796.507 491.7 806.807 479.823 816.129 467.893C822.23 457.776 829.023 448.936 833.325 438.063C838.175 425.937 842.765 414.269 845.151 401.361C846.363 394.608 848.071 388.415 848.215 381.713C848.527 369.627 848.632 357.685 846.363 345.755C844.72 337.294 843.547 328.493 840.796 320.331C837.602 311.179 834.629 302.039 830.014 293.46C825.776 285.025 819.544 277.02 816.337 268.167C817.315 265.859 819.127 264.256 821.278 263.069C832.126 257.711 842.999 251.974 853.091 245.26C860.731 238.715 869.453 230.371 872.191 220.41C875.138 211.661 874.851 201.622 873.795 192.561C871.239 178.819 865.75 164.438 855.594 154.491C849.271 148.428 843.234 142.535 835.464 138.298C838.071 133.591 840.405 129.119 840.301 123.565C840.105 114.973 839.518 106.316 838.932 97.7371Z" fill="#131307"/>
<path d="M620.575 101.296C622.257 107.424 621.696 112.691 619.493 118.571C614.734 131.388 611.905 143.852 605.281 155.182C602.23 160.671 598.397 165.599 594.251 170.292C589.584 175.638 585.333 181.309 580.575 186.577C575.333 192.287 571.461 198.141 564.968 202.561C555.034 204.686 550.053 212.131 541.318 216.511C537.328 218.689 531.813 221.374 527.289 219.419C523.456 217.02 522.257 211.049 518.645 208.311C517.133 207.281 515.464 206.433 513.847 205.573C512.387 206.694 510.914 207.815 509.427 208.923C509.336 204.764 509.258 200.684 509.558 196.524C513.547 189.575 517.302 182.496 521.357 175.586C526.95 166.081 534.317 158.298 540.849 149.497C545.738 142.9 551.787 137.907 558.058 132.731C564.838 127.163 573.091 123.774 580.705 118.95C592.961 111.114 606.729 105.586 620.575 101.296Z" fill="#FA6408"/>
<path d="M761.383 114.96C772.008 115.012 781.161 118.233 791.357 120.736C797.719 122.287 803.86 124.399 809.883 126.955C818.449 130.579 827.263 133.904 835.463 138.298C843.234 142.535 849.27 148.428 855.594 154.491C865.75 164.438 871.239 178.819 873.795 192.561C874.851 201.622 875.137 211.661 872.191 220.41C869.453 230.371 860.731 238.715 853.091 245.26C842.999 251.974 832.126 257.711 821.278 263.069C819.127 264.256 817.315 265.859 816.337 268.167C819.544 277.02 825.776 285.025 830.014 293.46C834.629 302.039 837.602 311.179 840.796 320.331C843.547 328.493 844.72 337.294 846.363 345.755C848.632 357.685 848.527 369.627 848.214 381.713C848.071 388.415 846.363 394.608 845.151 401.361C842.765 414.269 838.175 425.937 833.325 438.063C829.023 448.936 822.23 457.776 816.128 467.893C806.806 479.823 796.507 491.7 784.264 500.735C769.271 512.913 751.578 520.709 732.804 524.92C716.324 527.463 699.688 527.919 683.091 526.211C675.125 525.703 667.302 525.807 659.505 523.76C649.91 521.179 641.109 519.862 632.426 515.807C627.811 513.864 622.947 511.035 617.993 510.292C614.043 512.678 611.422 517.463 608.423 520.918C603.86 526.25 599.675 532.078 594.538 536.863C591.826 539.849 586.846 538.962 583.3 538.454C576.442 536.954 568.71 531.87 564.682 526.133C562.648 523.33 563.208 520.422 564.721 517.541C569.479 508.023 576.207 500.97 575.62 489.549L573.391 488.284C561.213 481.439 547.602 474.321 537.745 464.36C559.401 463.134 580.588 467.176 602.348 465.651C611.148 464.138 617.915 458.832 623.547 452.17C626.663 447.398 627.524 441.791 626.168 436.276C624.929 432.091 620.509 429.223 617.263 426.602C621.213 410.774 621.944 394.073 624.668 377.919C626.363 363.93 628.88 351.244 627.485 337.28C627.054 333.969 625.698 330.696 622.269 329.614C616.09 327.724 608.71 327.802 602.309 327.059C593.938 325.911 585.529 326.485 577.198 324.908C576.442 322.809 575.751 320.631 574.747 318.636C574.082 316.616 571.448 317.137 569.792 316.955C568.619 322.196 569.088 327.659 567.902 332.939C566.898 339.901 563.573 346.198 562.426 353.069C563.665 354.725 565.203 355.39 567.041 355.051C570.483 353.747 573.599 351.335 576.742 349.432C582.804 347.698 589.023 348.063 594.303 351.726C597.446 355.26 598.58 360.853 596.533 365.207C594.369 370.592 588.475 374.556 583.482 377.085C579.114 379.406 575.007 378.271 570.288 378.284C576.755 374.803 586.324 373.486 590.483 367.307C592.921 364.177 593.873 360.292 592.256 356.55C590.953 353.408 587.133 352.443 584.043 352.443C577.784 352.691 571.787 356.954 565.738 357.593C562.974 357.75 560.835 355.52 560.666 352.835C560.288 348.558 561.774 343.852 562.817 339.719C565.346 330.657 565.698 321.492 569.545 312.756C576.702 315.52 581.618 323.082 589.127 323.069C600.223 323.682 611.657 324.516 622.595 326.629C628.502 327.698 630.744 336.133 630.718 341.231C630.379 361.844 626.259 383.252 624.134 403.682C623.508 410.018 621.696 416.811 622.413 423.147C623.56 427.658 627.445 431.335 628.814 435.846C630.718 443.904 628.41 452.17 622.608 458.076C613.795 467.684 600.392 469.94 587.928 469.51C575.19 468.741 562.426 467.919 549.662 467.541C556.65 478.349 568.554 478.714 576.885 487.802C578.684 489.901 579.284 492.209 578.801 494.933C577.172 503.799 569.936 511.778 567.785 520.461C566.689 524.308 569.571 526.876 572.204 529.132C576.611 532.508 582.348 535.155 587.98 535.129C591.37 535.129 593.652 532.691 595.842 530.435C601.253 524.49 605.777 517.75 611.187 511.804C613.286 509.679 615.764 507.085 619.023 507.358C624.486 507.906 629.897 511.192 635.02 513.121C645.946 517.593 657.667 519.601 669.284 522.065C679.258 524.19 688.658 523.512 698.749 523.617C710.014 523.577 720.64 524.19 731.709 521.609C749.727 517.345 766.82 509.731 781.409 498.219C789.922 491.909 797.732 485.129 804.29 476.746C814.551 465.638 822.608 452.847 829.375 439.379C833.742 429.366 837.523 418.336 840.679 407.88C842.4 398.415 844.616 388.832 845.542 379.249C845.789 352.574 841.252 325.494 829.975 301.179C825.998 292.404 820.066 284.686 816.141 275.938C814.629 272.091 812.856 267.75 815.776 264.073C819.414 259.223 826.441 256.55 831.695 253.813C838.971 250.005 846.48 246.238 853.064 241.322C862.738 233.161 870.274 222.665 871.317 209.693C872.804 191.74 866.989 172.574 854.746 159.171C850.9 154.856 846.937 150.397 842.386 146.798C837.406 142.9 831.969 140.579 826.233 138.05C817.602 134.36 809.883 129.523 800.731 127.046C788.371 123.747 778.045 119.106 765.281 119.184C766.989 136.042 767.654 152.861 765.737 169.732C764.407 179.771 764.342 189.08 760.913 198.702C757.289 208.949 755.216 219.627 751.461 229.81C748.449 238.037 742.895 245.507 738.619 253.304C732.869 264.021 722.387 272 711.526 277.046C704.056 280.318 695.216 280.957 687.146 280.931C679.036 281.022 671.148 276.707 663.938 273.304C652.895 267.737 647.85 258.011 642.7 247.346C637.458 236.355 635.92 225.221 633.899 213.395C633.312 210.527 632.83 207.45 631.644 204.764C627.954 202.196 622.282 202.144 617.954 201.661C608.475 201.166 598.632 200.253 589.193 201.518C581.67 202.131 577.12 210.749 571.122 214.882C556.637 224.895 542.661 234.699 526.468 241.896C520.744 244.334 515.751 247.672 511.018 251.687C520.262 258.193 530.405 260.384 540.731 264.504C547.628 267.176 555.346 268.636 561.826 272.196C566.989 274.582 566.481 282.535 562.413 285.703C555.881 291.505 547.615 295.012 541.031 300.892C535.685 305.273 531.696 310.696 524.043 310.423C518.802 310.54 516.846 306.472 514.277 302.743C509.675 295.103 504.356 288.258 500.483 280.201C497.211 273.382 493.573 266.876 489.362 260.579C485.399 265.625 484.33 271.14 483.717 277.372C482.609 287.163 479.532 297.737 480.497 307.45C480.888 309.784 481.083 312.939 483.834 313.643C492.974 316.707 504.121 315.938 513.599 314.96C516.924 314.882 520.888 314.06 522.648 317.711C524.277 321.805 523.534 327.046 523.443 331.374C522.935 338.063 523.495 344.908 522.491 351.531C521.97 355.546 518.124 357.659 515.008 359.575C509.466 362.9 502.57 365.351 499.649 371.596C497.915 375.325 496.363 380.475 497.745 384.503C498.723 386.459 501.618 389.588 503.886 387.685C510.04 383.63 513.56 376.394 519.871 372.261C524.16 368.832 528.919 368.115 534.277 368.441L534.538 371.218L533.469 371.309C530.523 371.635 526.885 371.479 524.251 372.952C516.142 377.554 510.809 384.725 506.729 392.939C502.204 391.961 497.028 392.378 495.073 387.267C493.3 379.875 494.512 371.061 499.884 365.338C505.138 359.171 512.374 357.15 519.323 353.5C520.171 346.824 519.336 340.188 520.131 333.447C520.718 327.906 521.292 322.574 519.675 317.124C515.373 318.245 511.696 319.836 507.159 319.236C497.38 318.128 487.433 318.571 477.589 318.154C475.529 309.301 477.485 300.931 478.397 291.635C480.262 280.749 481.083 269.236 484.643 258.767C485.607 255.716 488.215 255.299 490.705 253.878C494.069 259.706 496.416 265.977 499.532 271.922C504.434 281.427 510.627 290.436 516.337 299.484C518.189 302.339 520.131 305.807 522.922 307.841C524.968 308.193 526.781 308.076 528.541 306.863C533.234 303.799 536.95 299.419 541.513 296.12C547.367 291.348 553.886 287.619 560.001 283.252C562.739 281.414 562.322 278.897 562.921 276.016C542.152 268.623 520.483 261.713 500.94 251.44C504.069 249.601 507.172 247.815 510.431 246.198C521.396 241.961 531.839 236.185 541.8 229.966C552.53 223.708 563.43 216.955 572.843 208.819C576.402 205.781 579.049 201.531 582.869 198.897C589.584 197.672 596.754 198.285 603.573 198.154C613.808 197.893 623.769 200.123 634.003 199.875C635.764 208.858 637.876 217.75 639.675 226.72C641.657 236.264 644.108 245.325 649.505 253.565C653.234 259.171 656.963 265.52 662.947 268.897C669.01 272.404 675.594 275.194 682.426 276.733C690.353 278.623 698.958 277.828 706.754 275.703C718.501 271.427 728.684 263.265 735.229 252.587C740.796 243.291 746.937 233.734 750.64 223.539C757.641 202.887 763.43 180.644 763.469 158.728C763.521 149.223 763.808 139.471 762.895 129.993C762.217 124.999 761.63 120.006 761.383 114.96Z" fill="#E5E160"/>
<path d="M765.281 119.184C778.045 119.106 788.371 123.747 800.731 127.046C809.883 129.523 817.602 134.36 826.233 138.05C831.969 140.579 837.406 142.9 842.387 146.798C846.937 150.397 850.9 154.856 854.746 159.171C866.989 172.574 872.804 191.74 871.317 209.693C870.274 222.665 862.739 233.161 853.064 241.322C846.48 246.238 838.971 250.005 831.696 253.813C826.441 256.55 819.414 259.223 815.776 264.073C812.856 267.75 814.629 272.091 816.141 275.938C820.066 284.686 825.998 292.404 829.975 301.179C841.252 325.494 845.789 352.574 845.542 379.249C844.616 388.832 842.4 398.415 840.679 407.88C837.523 418.336 833.743 429.366 829.375 439.379C822.608 452.847 814.551 465.638 804.29 476.746C797.732 485.129 789.923 491.909 781.409 498.219C766.82 509.731 749.727 517.345 731.709 521.609C720.64 524.19 710.014 523.577 698.749 523.617C688.658 523.512 679.258 524.19 669.284 522.065C657.667 519.601 645.946 517.593 635.02 513.121C629.897 511.192 624.486 507.906 619.023 507.358C615.764 507.085 613.286 509.679 611.187 511.804C605.777 517.75 601.253 524.49 595.842 530.435C593.652 532.691 591.37 535.129 587.98 535.129C582.348 535.155 576.611 532.508 572.204 529.132C569.571 526.876 566.689 524.308 567.785 520.461C569.936 511.778 577.172 503.799 578.802 494.933C579.284 492.209 578.684 489.901 576.885 487.802C568.554 478.714 556.65 478.349 549.662 467.541C562.426 467.919 575.19 468.741 587.928 469.51C600.392 469.94 613.795 467.684 622.609 458.076C628.41 452.169 630.718 443.904 628.814 435.846C627.445 431.335 623.56 427.658 622.413 423.147C621.696 416.811 623.508 410.018 624.134 403.682C626.259 383.252 630.379 361.844 630.718 341.231C630.744 336.133 628.502 327.698 622.595 326.629C611.657 324.516 600.223 323.682 589.127 323.069C581.618 323.082 576.702 315.52 569.545 312.756C565.699 321.492 565.347 330.657 562.817 339.719C561.774 343.852 560.288 348.558 560.666 352.835C560.835 355.52 562.974 357.75 565.738 357.593C571.787 356.954 577.785 352.691 584.043 352.443C587.133 352.443 590.953 353.408 592.257 356.55C593.873 360.292 592.921 364.177 590.483 367.307C586.324 373.486 576.755 374.803 570.288 378.284L569.18 378.675C568.436 378.949 567.706 379.223 566.963 379.484C569.114 385.768 573.886 394.256 570.627 400.774C568.645 406.837 559.858 407.124 555.842 403.317C552.387 397.854 553.039 390.005 550.079 384.256C548.084 381.296 543.952 380.057 541.54 383.369C538.384 388.988 540.731 399.119 535.347 404.712C531.005 410.097 522.426 411.309 517.237 406.537C514.499 403.265 516.455 397.306 518.215 393.995C521.97 387.763 528.476 382.861 534.082 378.336C534.264 375.964 534.46 373.604 534.538 371.218L534.277 368.441C528.919 368.115 524.16 368.832 519.871 372.261C513.56 376.394 510.04 383.63 503.886 387.685C501.618 389.588 498.723 386.459 497.746 384.503C496.364 380.475 497.915 375.325 499.649 371.596C502.57 365.351 509.467 362.9 515.008 359.575C518.124 357.659 521.97 355.546 522.491 351.531C523.495 344.908 522.935 338.063 523.443 331.374C523.534 327.046 524.277 321.805 522.648 317.711C520.888 314.06 516.924 314.882 513.6 314.96C504.121 315.938 492.974 316.707 483.834 313.643C481.083 312.939 480.888 309.784 480.497 307.45C479.532 297.737 482.609 287.163 483.717 277.372C484.33 271.14 485.399 265.625 489.362 260.579C493.573 266.876 497.211 273.382 500.483 280.201C504.356 288.258 509.675 295.103 514.277 302.743C516.846 306.472 518.802 310.54 524.043 310.423C531.696 310.696 535.686 305.273 541.031 300.892C547.615 295.012 555.881 291.505 562.413 285.703C566.481 282.535 566.989 274.582 561.826 272.196C555.347 268.636 547.628 267.176 540.731 264.504C530.405 260.384 520.262 258.193 511.018 251.687C515.751 247.672 520.744 244.334 526.468 241.896C542.661 234.699 556.637 224.895 571.122 214.882C577.12 210.749 581.67 202.131 589.193 201.518C598.632 200.253 608.476 201.166 617.954 201.661C622.283 202.144 627.954 202.196 631.644 204.764C632.83 207.45 633.313 210.527 633.899 213.395C632.908 211.401 631.917 209.015 630.249 207.489C627.511 206.329 623.925 206.824 620.992 206.759C620.379 209.262 619.74 211.753 619.075 214.243C613.717 211.909 609.779 207.15 604.473 204.973C595.672 203.734 584.186 205.677 578.189 212.861C573.365 218.258 568.463 223.513 563.221 228.506C561.487 227.919 559.74 227.346 558.006 226.772C557.237 227.124 556.481 227.476 555.712 227.828C557.081 230.827 558.41 233.839 559.727 236.85C555.373 235.651 551.031 234.386 546.702 233.056C546.194 234.908 545.686 236.772 545.164 238.623C542.478 239.849 538.645 240.814 536.781 243.213C533.978 247.541 533.899 253.878 533.521 258.897C536.233 258.245 538.945 257.607 541.657 256.968C547.563 261.57 553.717 265.547 560.718 268.284C561.579 266.394 562.439 264.503 563.313 262.613C567.406 268.584 571.97 273.369 569.988 281.205C567.719 286.485 563.782 289.706 563.743 295.912C559.975 295.716 556.624 295.234 553.169 297.215C548.684 299.354 546.755 303.187 544.486 307.333C541.5 308.441 538.489 309.484 535.49 310.553C535.164 315.938 534.069 319.901 531.605 324.712C529.923 323.395 528.254 322.078 526.572 320.762C526.924 323.786 527.354 326.902 527.263 329.94C527.146 333.278 525.334 336.524 525.021 339.732C525.959 344.008 528.241 348.063 529.988 352.052C532.53 355.181 533.912 358.063 534.955 361.987C536.155 366.615 538.228 370.67 540.875 374.634C542.987 371.231 544.968 367.763 546.872 364.243C547.98 365.599 549.128 366.981 550.079 368.441C547.745 371.844 544.669 374.803 541.918 377.88C550.835 377.932 559.61 377.632 568.267 375.351C568.189 374.217 568.111 373.082 568.019 371.961C566.051 371.492 564.082 371.035 562.113 370.566C562.283 369.549 562.465 368.519 562.635 367.502C566.194 367.763 568.88 367.476 572.244 366.185C568.854 363.943 566.833 363.304 562.83 363.2C560.575 359.758 557.785 356.068 558.058 351.752C558.436 343.539 562.465 335.586 561.357 327.098C560.627 322.352 559.519 317.672 558.841 312.913C561.396 312.887 563.951 312.874 566.507 312.822C568.775 310.866 571.135 308.597 573.834 307.267C576.507 306.55 576.989 308.649 578.436 310.344C579.975 312.626 581.279 315.09 582.609 317.489C589.401 316.042 594.004 319.64 600.431 320.84C605.998 321.948 612.4 318.819 617.628 319.106C622.726 321.153 627.393 324.034 632.726 325.625C634.095 331.061 635.386 336.211 634.681 341.857C633.886 348.78 632.465 355.26 633.73 362.248C634.955 368.936 635.125 374.595 634.134 381.335C632.426 380.305 630.705 379.275 628.984 378.245C629.857 383.669 632.895 390.279 630.444 395.468C628.475 400.748 626.298 405.794 625.451 411.426C624.525 416.563 625.112 421.557 625.881 426.668C627.432 422.287 628.867 417.867 630.418 413.486C633.091 420.162 633.378 426.694 632.622 433.747C633.717 435.533 634.812 437.319 635.92 439.093C632.517 448.48 630.066 459.549 624.408 467.802C623.247 469.927 620.366 469.51 618.28 470.031C613.456 470.396 609.44 472.808 604.825 473.864C601.253 473.943 597.615 472.9 594.043 472.548C588.097 471.83 582.843 473.252 576.911 473.252C571.709 473.239 566.52 472.834 561.318 472.939C567.732 478.232 574.929 482.039 581.97 486.381C581.735 491.126 581.474 495.585 583.169 500.149C584.812 504.49 586.311 509.001 588.423 513.134C591.018 514.021 594.004 513.969 596.715 514.203C597.915 516.003 599.088 517.815 600.262 519.627C602.804 516.72 605.307 513.786 607.785 510.84C605.36 510.227 602.934 509.614 600.509 509.001C601.279 506.746 602.061 504.49 602.83 502.235C604.994 504.255 607.159 506.289 609.323 508.31C611.918 505.012 614.238 501.348 617.224 498.388C623.065 497.137 625.516 505.52 629.988 507.072C633.873 506.172 637.237 501.57 641.383 501.27C644.069 501.478 646.663 503.812 648.919 505.168C645.594 506.368 642.23 507.424 638.867 508.506C638.932 509.575 638.984 510.644 639.049 511.713C643.691 513.838 647.824 514.973 652.934 514.907C652.152 513.017 651.37 511.126 650.588 509.236C653.456 509.445 656.324 509.627 659.206 509.797C658.775 511.491 658.332 513.173 657.902 514.855C670.144 516.485 682.426 514.829 694.59 516.615C688.749 519.875 683.195 518.714 676.807 518.754L676.846 520.813C683.664 520.735 690.444 520.722 697.224 521.439C703.13 521.948 708.41 522.886 714.108 520.631C720.614 517.984 726.872 514.999 733.743 513.369C737.028 514.073 740.718 516.211 743.86 514.034C750.17 510.188 756.259 507.267 763.391 505.207C763.664 501.974 763.938 498.74 764.199 495.507C767.289 496.694 770.757 498.284 774.095 498.388C776.976 497.606 779.583 495.377 782.009 493.682C785.516 491.022 789.323 488.754 792.765 486.003C796.155 483.395 797.054 479.288 798.645 475.533C800.561 470.54 803.782 466.576 805.346 461.452C806.637 457.319 807.876 453.199 809.597 449.223C811.448 451.1 813.299 452.991 815.151 454.868C817.38 452.495 819.936 449.979 821.5 447.111C823.664 442.965 824.173 438.102 826.376 433.838C828.136 430.449 830.574 427.567 832.139 424.021C833.938 419.875 834.916 415.286 836.05 410.918C834.095 409.171 832.139 407.398 830.196 405.638C836.155 400.931 840.77 395.807 841.63 387.919C843.195 372.535 840.118 356.355 838.801 340.996C838.436 336.616 838.736 331.857 837.576 327.606C836.598 325.09 834.134 323.056 832.321 321.088C831.513 324.477 830.744 327.867 829.975 331.27C829.479 328.532 828.971 325.781 828.475 323.043C824.707 326.785 819.14 330.501 817.054 335.455C815.633 342.313 816.833 349.94 817.185 356.915C819.166 352.678 821.291 348.532 823.834 344.595C823.925 349.197 824.329 353.369 821.943 357.515C816.728 366.629 811.474 375.703 807.002 385.207C805.633 388.206 803.73 390.788 801.513 393.2C803.312 397.554 805.763 402.065 803.143 406.668C801.005 409.731 797.38 412.613 793.756 413.63C790.014 412.495 786.207 409.614 782.295 409.406C773.612 409.093 766.337 411.765 758.149 413.682C754.786 414.699 753.078 412.365 750.314 410.931C744.773 407.385 738.749 407.189 733.534 403.03C730.196 400.54 727.928 397.228 726.324 393.434C736.715 397.333 741.709 405.638 752.413 407.489C761.265 409.027 771.122 409.458 779.753 406.628C786.624 404.373 791.604 399.758 796.611 394.764C804.147 387.359 808.984 377.098 811.565 366.968C814.069 354.986 813.73 342.235 812.921 330.071C812.282 320.631 808.853 312.535 805.164 303.956C803.756 301.048 802.087 297.307 799.323 295.455C797.302 294.66 795.02 294.373 792.882 294.047C791.67 297.828 790.692 301.27 792.217 305.155C796.559 317.698 801.474 330.084 801.226 343.656C800.926 359.249 796.833 375.012 785.464 386.237C777.641 392.417 766.533 396.615 756.533 394.451C750.392 393.291 744.095 391.061 740.027 386.068C735.816 380.801 732.621 374.608 730.235 368.31C731.031 368.115 731.826 367.919 732.621 367.724C734.212 371.166 735.49 376.159 738.501 378.545C740.966 379.379 744.564 376.472 746.806 375.533C746.155 378.037 745.529 380.553 744.916 383.069C750.457 384.451 754.316 387.267 758.567 390.866C761.904 393.825 765.555 392.6 769.584 392.482C768.671 390.044 767.758 387.606 766.82 385.168C766.063 387.033 765.307 388.897 764.551 390.775C762.543 387.333 760.209 384.347 757.511 381.426C759.988 380.475 762.726 378.389 765.346 380.044C769.87 382.339 773.899 385.677 778.123 388.48C778.645 387.88 779.166 387.293 779.688 386.694C779.557 384.556 779.271 382.326 779.531 380.188C784.577 376.537 790.131 373.773 794.825 369.562C793.651 367.007 792.491 364.451 791.37 361.883C793.847 359.862 797.654 358.128 798.202 354.699C799.544 348.78 799.14 342.261 799.088 336.211C797.302 336.746 795.503 337.267 793.717 337.789C792.022 331.153 791.591 324.49 791.083 317.698C790.783 313.265 787.771 310.488 786.194 306.55C785.646 303.617 786.598 300.279 786.911 297.333C785.75 294.582 783.977 291.505 783.847 288.493C783.912 284.112 786.728 279.719 788.814 275.99C790.366 277.959 791.943 279.914 793.521 281.857C790.874 283.93 788.241 286.003 785.62 288.089C787.093 289.523 788.553 291.061 790.222 292.274C792.895 291.635 795.464 290.266 797.954 289.119C799.792 290.775 801.604 292.443 803.417 294.125C804.929 290.709 806.533 287.346 808.553 284.204C809.14 285.794 809.597 287.424 809.909 289.067C809.179 291.687 807.823 294.178 806.859 296.72C805.698 298.884 807.093 301.844 807.497 304.099C809.205 301.635 810.861 299.132 812.504 296.616C814.173 299.458 815.816 302.326 817.458 305.181C818.514 304.673 819.57 304.178 820.626 303.669C822.126 306.342 823.534 309.067 825.007 311.752C825.972 312 826.937 312.261 827.902 312.522C827.81 309.301 828.097 305.768 827.211 302.665C825.177 299.119 822.139 296.12 819.688 292.848C818.488 292.73 817.302 292.626 816.102 292.509C814.486 287.346 811.735 282.444 810.587 277.176C810.105 271.453 811.995 265.416 812.882 259.771C811.539 257.476 810.209 255.168 808.892 252.874C813.625 252.926 818.84 253.578 823.443 252.574C827.276 251.766 831.031 250.631 834.812 249.64C834.929 246.942 834.981 244.152 835.385 241.479C837.758 241.596 840.144 241.987 842.504 242.313C844.538 239.184 846.259 234.269 850.235 233.421C855.151 231.922 859.74 230.618 863.729 227.215C861.748 226.407 859.753 225.599 857.771 224.803C857.602 219.223 857.602 213.656 857.81 208.063C858.514 208.754 859.218 209.432 859.909 210.11C859.805 214.79 860.079 218.298 862.817 222.235C864.303 218.102 865.868 214.008 865.45 209.523C864.785 205.56 861.943 201.974 860.978 198.076C860.574 195.481 861.096 192.652 861.357 190.058C865.503 193.552 865.868 197.685 866.611 202.743C867.602 202.691 868.593 202.652 869.583 202.613C868.345 192.222 864.759 182.665 861.291 172.887C861.213 175.807 861.135 178.741 861.057 181.661C858.214 176.655 855.177 171.883 851.213 167.685C852.882 166.368 854.551 165.064 856.22 163.747C852.321 164.204 848.41 164.608 844.512 165.064C846.207 163.004 848.084 160.97 849.479 158.689C844.994 151.857 836.467 147.346 829.479 143.461C828.41 144.621 827.354 145.781 826.285 146.942C825.32 144.79 824.355 142.626 823.39 140.475C822.087 142.248 820.783 144.021 819.466 145.794C819.245 145.325 819.023 144.843 818.788 144.373C818.684 142.313 818.762 140.032 818.136 138.063C815.02 135.612 809.531 135.938 805.698 135.442C805.268 134.243 804.851 133.043 804.42 131.857C802.361 132.026 800.301 132.183 798.241 132.339C795.62 130.332 792.817 127.698 789.649 126.655C785.411 125.86 780.705 126.824 776.441 127.32C777.563 139.875 775.907 152.079 773.495 164.386C772.4 159.836 771.461 155.26 770.561 150.684C769.779 156.407 768.853 162.548 769.662 168.298C770.327 173.33 772.934 178.206 775.125 182.744C772.582 180.853 770.027 178.963 767.484 177.072C768.097 186.355 765.568 195.221 765.633 204.438C763.925 205.912 762.204 207.372 760.47 208.832C761.37 212.365 762.269 215.899 763.13 219.432C761.513 218.923 759.909 218.415 758.293 217.893C758.423 222.939 757.471 226.277 755.229 230.736C752.582 235.286 756.454 239.015 755.346 243.734C754.551 247.176 753.104 250.527 751.839 253.826C750.822 253.786 749.792 253.76 748.775 253.734C747.041 251.987 745.307 250.253 743.586 248.519C742.608 251.609 741.722 254.856 740.288 257.763C738.827 260.67 735.894 263.03 733.534 265.221C733.534 267.398 733.56 269.588 733.573 271.779C731.252 272.561 728.697 273.213 726.585 274.477C723.691 276.498 721.683 279.784 718.853 281.909C716.546 283.017 713.821 283.395 711.331 283.904C710.913 285.09 710.509 286.264 710.105 287.45C700.457 287.502 691.631 284.738 682.4 282.43C681.657 283.473 680.914 284.517 680.183 285.547C683.039 287.098 685.855 288.715 688.619 290.436C683.56 291.205 680.131 290.188 675.607 287.945C673.886 284.855 671.917 282.17 669.532 279.562C667.902 281.009 666.272 282.457 664.642 283.904C664.473 280.37 664.238 276.837 663.938 273.304C671.148 276.707 679.036 281.022 687.146 280.931C695.216 280.957 704.056 280.318 711.526 277.046C722.387 272 732.869 264.021 738.619 253.304C742.895 245.507 748.449 238.037 751.461 229.81C755.216 219.627 757.289 208.949 760.913 198.702C764.342 189.08 764.408 179.771 765.737 169.732C767.654 152.861 766.989 136.042 765.281 119.184Z" fill="#FBFA16"/>
<path d="M470.744 173.513C472.726 181.661 474.551 189.836 477.068 197.854C478.854 204.491 481.344 211.14 482.27 217.893C482.1 221.192 481.409 224.073 483.091 227.137C485.255 232.183 488.789 236.459 484.721 241.753C481.396 243.5 477.433 244.243 473.808 245.195C468.293 242.639 462.791 240.175 457.693 236.811C448.723 230.697 438.502 226.968 429.636 220.644C427.785 219.093 423.391 217.815 423.795 214.947C433.808 204.895 445.164 196.329 454.877 186.016C458.398 182.313 461.592 177.828 465.647 174.725C467.172 173.395 468.854 173.682 470.744 173.513Z" fill="#04131E"/>
<path d="M465.777 183.578C469.245 190.71 470.392 197.854 472.491 205.429C474.577 213.369 477.263 221.101 480.275 228.728C481.826 232.639 482.765 236.616 483.313 240.788C474.525 238.949 467.876 234.412 459.975 230.397C451.109 225.273 442.139 221.075 434.056 214.699C440.04 208.428 447.185 203.669 452.869 197.111C456.976 192.378 460.94 187.607 465.777 183.578Z" fill="#3A9ABB"/>
<path d="M704.734 185.534C708.489 184.699 712.374 185.012 715.02 188.115C719.623 193.865 720.105 202.3 715.764 208.376C711.996 212.026 705.894 212.887 701.944 209.028C699.01 205.416 699.31 200.801 699.623 196.446C700.249 192.026 700.549 188.037 704.734 185.534Z" fill="#070904"/>
<path d="M503.156 188.48C502.53 193.747 502.022 198.884 500.001 203.839C496.377 212.835 493.73 222.118 490.888 231.361C489.897 235.051 488.776 239.262 490.51 242.9C491.735 245.247 493.665 247.58 496.611 247.098C501.227 246.811 505.803 246.225 510.431 246.198C507.172 247.815 504.069 249.601 500.94 251.44C520.483 261.713 542.152 268.623 562.922 276.016C562.322 278.897 562.739 281.414 560.001 283.252C553.886 287.62 547.367 291.348 541.513 296.12C536.95 299.419 533.234 303.799 528.541 306.863C526.781 308.076 524.969 308.193 522.922 307.841C520.131 305.807 518.189 302.339 516.337 299.484C510.627 290.436 504.434 281.427 499.532 271.922C496.416 265.977 494.069 259.706 490.705 253.878C488.215 255.299 485.607 255.716 484.643 258.767C481.083 269.236 480.262 280.749 478.397 291.635C477.485 300.931 475.529 309.301 477.589 318.154C487.433 318.571 497.381 318.128 507.159 319.236C511.696 319.836 515.373 318.245 519.675 317.124C521.292 322.574 520.718 327.906 520.131 333.447C519.336 340.188 520.171 346.824 519.323 353.499C517.928 347.958 517.172 342.717 513.365 338.232C513.208 334.269 513.195 330.305 513.208 326.342C508.997 325.742 504.864 324.999 500.588 325.077C492.413 325.09 483.965 324.112 475.829 324.934C473.639 326.133 471.631 327.75 469.584 329.197C468.085 327.685 466.585 326.185 465.086 324.686C467.094 323.447 469.871 321.974 470.823 319.692C471.344 313.447 470.718 307.111 471.122 300.827C471.292 291.035 474.656 282.052 474.082 272.183C469.297 277.281 465.295 283.017 460.418 288.05C450.379 299.94 437.733 308.519 423.965 315.546C417.785 318.31 412.179 321.361 405.229 321.635C402.752 316.42 399.701 311.557 397.003 306.472L397.446 303.695C401.396 308.18 405.151 312.848 409.206 317.267C417.889 314.882 425.712 311.622 433.222 306.603C438.841 302.796 446.677 299.992 450.21 294.099C453 289.745 455.894 285.468 459.023 281.348C463.939 274.438 469.48 268.05 474.525 261.257C475.177 259.862 475.777 258.428 476.364 257.007C472.478 256.211 468.567 255.364 464.643 254.803C469.819 253.161 474.617 250.801 479.349 248.18C477.524 247.15 475.686 246.146 473.808 245.195C477.433 244.243 481.396 243.5 484.721 241.753C488.789 236.459 485.255 232.183 483.091 227.137C481.409 224.073 482.1 221.192 482.27 217.893C483.756 221.075 485.438 224.086 487.367 227.02C492.909 214.308 496.403 200.514 503.156 188.48Z" fill="#0D0F09"/>
<path d="M464.877 192.235C468.71 200.814 469.858 209.927 473.156 218.676C475.151 223.917 476.233 228.871 476.312 234.504C467.628 231.153 459.701 226.642 451.696 221.857C447.628 219.471 444.591 216.081 441.657 212.444C449.193 205.664 456.246 197.567 464.877 192.235Z" fill="#0CADF3"/>
<path d="M509.558 196.524C509.258 200.684 509.336 204.764 509.427 208.923C510.914 207.815 512.387 206.694 513.847 205.573C515.464 206.433 517.133 207.281 518.645 208.311C522.257 211.049 523.456 217.02 527.289 219.419C531.813 221.374 537.328 218.689 541.318 216.511C550.053 212.131 555.034 204.686 564.968 202.561C558.254 207.998 551.631 213.448 544.238 217.946C528.828 227.463 513.652 236.42 496.442 242.339C495.855 238.441 495.138 234.843 496.025 230.905C497.302 225.286 499.714 219.849 501.657 214.412C503.886 208.272 506.285 202.209 509.558 196.524Z" fill="#F8770D"/>
<path d="M630.249 207.489C631.918 209.015 632.908 211.401 633.899 213.395C635.92 225.221 637.459 236.355 642.7 247.346C647.85 258.011 652.895 267.737 663.938 273.304C664.238 276.837 664.473 280.37 664.642 283.904C666.272 282.457 667.902 281.009 669.532 279.562C671.917 282.17 673.886 284.855 675.607 287.945C673.912 287.215 672.191 286.511 670.47 285.82C668.097 286.837 665.516 288.324 662.921 288.545C658.945 285.716 655.164 282.887 650.796 280.644C647.406 278.858 645.946 275.859 643.964 272.782C642.674 273.278 641.383 273.76 640.105 274.256C639.414 271.596 638.723 268.871 637.837 266.277C635.829 260.279 631.878 255.651 630.366 249.38C628.593 241.935 627.224 234.36 626.663 226.72C626.363 223.904 626.22 220.736 625.086 218.102C623.365 216.537 621.109 215.377 619.075 214.243C619.74 211.753 620.379 209.262 620.992 206.759C623.925 206.824 627.511 206.329 630.249 207.489Z" fill="#FAEE0B"/>
<path d="M464.643 254.803C468.567 255.364 472.478 256.211 476.364 257.007C475.777 258.428 475.177 259.862 474.525 261.257C474.147 260.188 473.769 259.119 473.391 258.05C465.151 260.931 457.25 264.204 448.593 265.768C434.512 268.741 421.201 267.633 406.703 267.763C398.332 267.893 390.197 266.198 381.866 265.977C384.447 272.913 387.707 279.523 391.996 285.586C398.437 294.595 402.713 304.712 408.737 314.008C418.437 311.792 426.807 307.189 435.112 301.857C443.965 296.224 451.84 288.975 459.023 281.348C455.894 285.468 453 289.745 450.21 294.099C446.677 299.992 438.841 302.795 433.222 306.603C425.712 311.622 417.889 314.882 409.206 317.267C405.151 312.848 401.396 308.18 397.446 303.695L397.003 306.472C391.318 296.876 385.894 287.137 380.366 277.45C377.094 271.7 374.734 265.977 373 259.575C379.519 259.041 385.907 259.249 392.374 260.201C402.126 261.844 412.465 261.127 422.348 261.283C436.598 261.7 451.031 258.858 464.643 254.803Z" fill="#1E0604"/>
<path d="M473.391 258.05C473.769 259.119 474.147 260.188 474.525 261.257C469.48 268.05 463.939 274.438 459.023 281.348C451.84 288.975 443.965 296.224 435.112 301.857C426.807 307.189 418.437 311.792 408.737 314.008C402.713 304.712 398.437 294.595 391.996 285.586C387.707 279.523 384.447 272.913 381.866 265.977C390.197 266.198 398.332 267.893 406.703 267.763C421.201 267.633 434.512 268.741 448.593 265.768C457.25 264.204 465.151 260.931 473.391 258.05Z" fill="#C96C3E"/>
<path d="M502.231 260.827C508.228 262.522 514.043 264.66 519.753 267.124C530.04 271.531 540.497 275.455 550.914 279.575C550.914 280.41 550.914 281.244 550.914 282.065C546.012 285.429 541.162 288.845 536.468 292.47C533.091 295.012 529.362 297.88 525.347 299.275C521.162 296.198 518.437 291.244 515.686 286.915C510.523 278.206 504.864 270.814 502.231 260.827Z" fill="#1DA7E2"/>
<path d="M463.86 266.668C459.923 273.03 456.168 279.653 450.796 284.934C443 292.574 434.134 299.08 424.525 304.256C419.845 306.798 414.864 307.724 409.675 308.623C405.034 300.527 400.875 292.261 395.542 284.582C392.518 280.292 390.562 275.651 389.076 270.644C398.515 269.823 407.694 271.687 417.133 271.4C427.446 271.192 437.263 271.466 447.394 269.588C452.882 268.558 458.345 267.489 463.86 266.668Z" fill="#F96C0B"/>
<path d="M792.882 294.047C795.02 294.373 797.302 294.66 799.323 295.455C802.087 297.307 803.756 301.048 805.164 303.956C808.853 312.535 812.282 320.631 812.921 330.071C813.73 342.235 814.069 354.986 811.565 366.968C808.984 377.098 804.147 387.359 796.611 394.764C791.604 399.758 786.624 404.373 779.753 406.629C771.122 409.458 761.265 409.027 752.413 407.489C741.709 405.638 736.715 397.333 726.324 393.434C722.309 383.969 717.25 375.794 715.02 365.625C712.504 353.982 709.571 342.117 708.71 330.214C708.215 320.709 705.764 312.443 709.153 303.108C711.917 303.891 716.233 303.956 718.371 305.964C721.005 310.983 720.901 317.711 721.67 323.265C722.869 338.571 725.764 353.643 730.236 368.31C732.621 374.608 735.816 380.801 740.027 386.068C744.095 391.061 750.392 393.291 756.533 394.451C766.533 396.615 777.641 392.417 785.464 386.237C796.833 375.012 800.926 359.249 801.226 343.656C801.474 330.084 796.559 317.698 792.217 305.155C790.692 301.27 791.67 297.828 792.882 294.047Z" fill="#E6E158"/>
<path d="M797.758 297.554C800.874 299.797 802.178 304.569 803.625 307.985C808.697 320.501 811.552 334.295 811.187 347.802C809.909 360.383 807.38 374.647 800.196 385.312C792.726 396.446 780.366 404.973 766.572 404.751C760.144 404.621 754.069 405.181 748.084 402.587C737.159 398.167 728.071 388.689 723.221 378.024C716.898 365.116 714.825 349.249 712.726 335.129C711.578 326.055 710.288 316.889 710.118 307.737C712.087 307.828 714.043 307.932 715.998 308.05C719.753 329.432 720.34 352.274 727.706 372.352C731.761 383.799 741.604 395.52 754.121 397.58C760.053 398.35 766.376 398.584 772.269 397.489C781.318 395.22 789.662 389.054 794.473 381.035C800.288 371.583 803.703 360.227 803.899 349.132C804.225 338.324 804.121 327.789 800.483 317.463C798.58 311.14 795.203 305.442 793.169 299.197C794.421 297.698 795.959 297.15 797.758 297.554Z" fill="#1E0F01"/>
<path d="M569.792 316.954C571.448 317.137 574.082 316.616 574.747 318.636C575.751 320.631 576.442 322.808 577.198 324.908C585.529 326.485 593.938 325.911 602.309 327.059C608.71 327.802 616.09 327.724 622.269 329.614C625.698 330.696 627.054 333.969 627.485 337.28C628.88 351.244 626.363 363.93 624.668 377.919C621.944 394.073 621.213 410.774 617.263 426.602C620.509 429.223 624.929 432.091 626.168 436.276C627.524 441.791 626.663 447.398 623.547 452.169C622.426 448.845 621.305 445.559 620.366 442.169C619.753 439.836 619.206 437.202 618.032 435.09C615.985 432.939 613.065 431.518 610.588 429.914C611.735 423.89 613.221 417.997 614.186 411.948C616.05 395.194 617.798 378.636 619.766 362.13C620.392 353.291 620.379 344.386 620.157 335.533C613.795 334.464 607.38 333.421 600.953 332.939C592.074 332.665 583.391 331.14 574.486 331.283C574.16 335.207 573.991 339.145 573.795 343.069C572.204 342.848 570.64 342.561 569.062 342.274C568.019 344.556 567.002 346.837 565.985 349.132C569.584 349.314 573.143 349.51 576.742 349.432C573.599 351.335 570.483 353.747 567.041 355.051C565.203 355.39 563.665 354.725 562.426 353.069C563.573 346.198 566.898 339.901 567.902 332.939C569.088 327.659 568.619 322.196 569.792 316.954Z" fill="#130B05"/>
<path d="M465.086 324.686C466.585 326.185 468.085 327.685 469.584 329.197C466.676 331.244 463.665 333.147 460.744 335.194C470.914 335.507 480.979 336.655 491.096 337.75C498.489 338.167 505.959 338.284 513.365 338.232C517.172 342.717 517.928 347.958 519.323 353.499C512.374 357.15 505.138 359.171 499.884 365.338C494.512 371.061 493.3 379.875 495.073 387.267C497.028 392.378 502.204 391.961 506.729 392.939C510.809 384.725 516.142 377.554 524.251 372.952C526.885 371.479 530.523 371.635 533.469 371.309C533.599 372.522 533.73 373.734 533.86 374.934C526.442 378.975 519.506 384.908 515.073 392.143C511.683 398.741 510.966 408.18 518.437 412.326C526.142 416.237 536.65 410.853 540.392 403.539C544.225 396.837 542.348 390.618 542.882 383.278C544.786 384.177 548.241 384.269 548.671 386.694C550.353 392.73 549.662 401.296 553.639 406.785C558.423 411.244 568.449 410.866 572.191 405.077C575.333 401.009 576.663 396.016 574.981 391.035C573.365 386.772 570.875 382.926 569.18 378.675L570.288 378.284C575.007 378.271 579.114 379.406 583.482 377.085C588.476 374.556 594.369 370.592 596.533 365.207C598.58 360.853 597.446 355.26 594.303 351.726C589.023 348.063 582.804 347.698 576.742 349.432C573.143 349.51 569.584 349.314 565.985 349.132C567.002 346.837 568.019 344.556 569.062 342.274C570.64 342.561 572.204 342.848 573.795 343.069C581.891 341.413 590.066 342.339 597.341 346.277C603.039 350.683 605.751 359.014 603.665 365.938C599.31 380.136 598.28 395.794 596.298 410.514C595.06 418.78 595.073 427.359 593.339 435.494C591.005 438.389 588.124 440.462 586.194 443.773C583.782 448.284 582.126 453.082 584.825 457.906C587.628 460.11 592.439 459.223 595.816 459.497C602.178 459.966 607.537 456.654 612.543 453.16C616.559 450.357 618.006 446.276 620.366 442.17C621.305 445.559 622.426 448.845 623.547 452.17C617.915 458.832 611.148 464.138 602.348 465.651C580.588 467.176 559.401 463.134 537.745 464.36C547.602 474.321 561.214 481.439 573.391 488.284C571.579 489.94 569.91 491.726 568.28 493.565C559.427 489.601 551.422 483.747 543.26 478.545C535.307 473.408 528.319 462.561 518.189 462.9C508.424 461.465 498.619 462.43 488.841 461.126C478.28 460.11 468.085 461.166 457.537 459.549C448.424 458.871 435.699 457.906 429.441 450.279C425.999 446.707 426.351 442.287 426.82 437.698C428.489 431.074 433.691 426.889 438.059 422.209C440.653 419.758 439.74 415.012 440.053 411.726C439.819 404.686 441.188 397.815 441.122 390.801C441.253 377.763 441.487 364.725 441.54 351.687C441.97 346.798 442.152 341.752 443.039 336.941C444.721 334.217 447.302 332.73 450.132 331.44C455.151 329.223 460.21 327.215 465.086 324.686Z" fill="#071304"/>
<path d="M475.829 324.934C483.965 324.112 492.413 325.09 500.588 325.077C504.864 324.999 508.997 325.742 513.208 326.342C513.195 330.305 513.208 334.269 513.365 338.232C505.959 338.284 498.489 338.167 491.096 337.75C480.979 336.655 470.914 335.507 460.744 335.194C463.665 333.147 466.677 331.244 469.584 329.197C471.631 327.75 473.639 326.133 475.829 324.934Z" fill="#FAFAF7"/>
<path d="M574.486 331.283C583.391 331.14 592.074 332.665 600.953 332.939C607.38 333.421 613.795 334.464 620.157 335.533C620.379 344.386 620.392 353.291 619.766 362.131C617.798 378.636 616.051 395.194 614.186 411.948C613.221 417.997 611.735 423.891 610.588 429.914C613.065 431.518 615.985 432.939 618.032 435.09C619.206 437.202 619.753 439.836 620.366 442.169C618.006 446.276 616.559 450.357 612.543 453.16C607.537 456.654 602.178 459.966 595.816 459.497C592.439 459.223 587.628 460.11 584.825 457.906C582.126 453.082 583.782 448.284 586.194 443.773C588.124 440.462 591.005 438.389 593.339 435.494C595.073 427.359 595.06 418.78 596.298 410.514C598.28 395.794 599.31 380.136 603.665 365.938C605.751 359.014 603.039 350.683 597.341 346.277C590.066 342.339 581.892 341.413 573.795 343.069C573.991 339.145 574.16 335.207 574.486 331.283Z" fill="#FAFAF7"/>
<path d="M450.262 340.67C456.611 340.618 462.909 341.896 469.297 341.818C481.54 341.687 493.378 344.725 505.647 344.686C505.581 347.254 505.555 349.836 505.555 352.417C498.111 356.837 491.031 364.06 488.867 372.665C487.25 379.458 487.341 387.163 492.165 392.691C495.386 396.602 500.392 397.724 504.943 399.406C506.69 405.22 508.411 413.03 513.678 416.746C518.397 419.705 525.373 419.327 530.692 418.662C537.485 417.737 541.266 413.147 545.999 408.793C551.983 413.278 558.045 416.655 565.829 415.99C571.435 415.937 575.321 412.991 578.032 408.284C582.504 401.413 580.953 393.395 580.418 385.69C584.473 383.734 588.567 381.896 592.765 380.266C592.361 388.011 591.005 395.586 589.688 403.2C588.267 411.283 587.98 419.393 587.002 427.515L586.324 427.984C576.442 428.18 566.533 427.789 556.637 427.841C544.903 427.632 533.235 426.42 521.487 426.42C511.435 426.472 501.435 425.559 491.396 425.364C477.029 425.051 462.739 422.978 448.398 422.378C446.833 412.065 447.928 401.322 447.941 390.644C447.902 379.38 449.115 368.18 448.802 356.902C448.88 351.713 448.332 345.572 450.262 340.67Z" fill="#2C953E"/>
<path d="M471.54 345.742C481.422 346.759 491.227 347.189 500.979 349.301C496.077 354.204 490.51 358.454 487.85 365.051C484.721 372.704 483.86 381.857 486.142 389.836C488.984 398.245 498.606 399.406 502.152 407.32C504.708 412.613 507.498 417.528 511.057 422.235C503.065 422.821 495.516 420.67 487.589 420.592C477.98 420.409 468.371 419.34 458.815 418.402C456.833 417.997 453.182 417.828 452.061 415.885C451.188 412.952 451.357 409.601 451.409 406.563C452.322 389.562 452.7 372.522 452.57 355.507C452.778 352.378 452.556 347.802 455.907 346.211C460.692 344.569 466.559 345.455 471.54 345.742Z" fill="#08B32E"/>
<path d="M505.647 344.686C508.593 345.168 512.804 344.79 514.512 347.711C511.605 349.51 508.567 350.827 505.555 352.417C505.555 349.836 505.581 347.254 505.647 344.686Z" fill="#569C54"/>
<path d="M533.469 371.309L534.538 371.218C534.46 373.604 534.264 375.964 534.082 378.336C528.476 382.861 521.97 387.763 518.215 393.995C516.455 397.306 514.499 403.265 517.237 406.537C522.426 411.309 531.005 410.097 535.347 404.712C540.731 399.119 538.384 388.988 541.54 383.369C543.952 380.057 548.085 381.296 550.079 384.256C553.039 390.005 552.387 397.854 555.842 403.317C559.858 407.124 568.645 406.837 570.627 400.774C573.886 394.256 569.114 385.768 566.963 379.484C567.706 379.223 568.436 378.949 569.18 378.675C570.875 382.926 573.365 386.772 574.981 391.035C576.663 396.016 575.333 401.009 572.191 405.077C568.45 410.866 558.423 411.244 553.639 406.785C549.662 401.296 550.353 392.73 548.671 386.694C548.241 384.269 544.786 384.177 542.882 383.278C542.348 390.618 544.225 396.837 540.392 403.538C536.65 410.853 526.142 416.237 518.437 412.326C510.966 408.18 511.683 398.741 515.073 392.143C519.506 384.907 526.442 378.975 533.86 374.934C533.73 373.734 533.6 372.522 533.469 371.309Z" fill="#F1EB66"/>
<path d="M585.633 403.734C584.955 410.709 583.782 417.476 582.191 424.295C566.468 424.829 552.009 426.589 536.403 423.121C539.493 418.793 542.322 416.433 547.055 414.021C551.527 416.42 555.451 418.845 560.679 418.962C565.451 419.014 571.201 418.597 575.32 415.964C579.493 412.834 582.439 407.815 585.633 403.734Z" fill="#14AA2B"/>
<path d="M448.398 422.378C462.739 422.978 477.029 425.051 491.396 425.364C501.435 425.559 511.435 426.472 521.487 426.42C533.235 426.42 544.903 427.632 556.637 427.841C566.533 427.789 576.442 428.18 586.324 427.984C584.695 429.145 583.065 430.305 581.448 431.479C581.357 432.352 581.253 433.239 581.161 434.112C570.34 434.464 559.649 434.686 548.854 433.76C536.181 432.704 523.626 433.46 510.953 432.548C498.111 431.544 485.229 431.961 472.374 430.866C464.356 430.475 456.364 428.832 448.358 428.91C443.665 428.949 439.871 430.722 435.568 432.287C439.01 427.815 443.704 426.98 448.789 425.338C448.658 424.347 448.528 423.369 448.398 422.378Z" fill="#002101"/>
<path d="M448.358 428.91C456.364 428.832 464.356 430.475 472.374 430.866C485.229 431.961 498.111 431.544 510.953 432.548C523.626 433.46 536.181 432.704 548.854 433.76C559.649 434.686 570.34 434.464 581.161 434.112C580.562 438.714 578.723 442.639 577.759 447.15C576.95 450.84 576.976 454.777 576.859 458.558C567.068 458.18 557.263 457.88 547.485 457.189C536.194 456.394 524.89 456.863 513.613 455.95C505.568 455.285 497.511 455.585 489.48 454.894C474.982 453.434 459.845 453.838 445.477 451.322C440.523 450.357 435.36 448.623 433.274 443.565C432.257 440.057 434.317 435.585 435.568 432.287C439.871 430.722 443.665 428.949 448.358 428.91Z" fill="#2A903A"/>
<path d="M446.09 433.03C454.551 432.365 463.221 434.06 471.709 434.308C484.447 434.777 496.95 436.368 509.701 436.133C525.047 435.833 540.34 436.928 555.686 436.863C561.435 436.954 568.358 436.824 573.599 439.432C574.225 443.864 573.626 448.675 573.26 453.134C566.846 453.734 560.483 454.295 554.03 454.177C545.294 454.099 536.742 452.365 527.993 452.339C515.777 452.313 503.652 450.944 491.448 450.866C483.86 450.814 476.364 450.057 468.841 449.158C461.435 448.245 453.521 449.275 446.325 447.515C443.248 446.681 439.18 444.555 438.124 441.335C437.498 436.759 441.813 433.265 446.09 433.03Z" fill="#0CAB25"/>
<path d="M573.391 488.284L575.62 489.549C576.207 500.97 569.48 508.023 564.721 517.541C563.208 520.422 562.648 523.33 564.682 526.133C568.71 531.869 576.442 536.954 583.3 538.454C586.846 538.962 591.826 539.849 594.538 536.863C599.675 532.078 603.86 526.25 608.423 520.918C611.422 517.463 614.043 512.678 617.993 510.292C622.948 511.035 627.811 513.864 632.426 515.807C641.109 519.862 649.91 521.179 659.506 523.76C667.302 525.807 675.125 525.703 683.091 526.211C699.688 527.919 716.324 527.463 732.804 524.92C751.578 520.709 769.271 512.913 784.264 500.735C787.941 499.901 790.718 500.592 794.121 502C789.74 505.95 785.281 509.627 780.34 512.873C768.267 521.804 754.838 527.032 740.575 531.4C741.474 534.281 742.491 537.111 743.456 539.966C741.618 541.491 739.805 543.069 738.006 544.647C738.397 545.52 738.788 546.394 739.179 547.267C740.992 547.828 742.791 548.388 744.59 548.936C731.474 552.574 718.449 558.245 707.654 566.654C703.86 569.575 699.727 572.886 697.511 577.215C693.743 584.62 691.005 592.247 691.592 600.709C691.526 608.558 693.195 615.794 698.619 621.7C705.529 630.618 716.624 633.525 727.393 634.229C737.589 635.155 747.784 631.283 757.106 627.541C766.754 623.799 775.829 620.031 783.521 612.873C786.65 613.317 789.558 614.242 792.465 615.429C786.168 620.383 779.192 624.008 773.378 629.614C782.765 630.24 792.322 629.64 801.748 629.875C814.29 630.279 826.846 630.044 839.401 630.187C840.939 630.122 842.348 630.748 843.612 632.052C841.539 633.812 839.597 633.955 836.989 633.955C821.344 633.89 805.672 633.903 790.014 633.903C780.574 633.942 770.627 633.421 761.226 634.438C756.363 635.024 752.582 637.006 748.827 640.083C754.786 640.748 760.627 640.122 766.546 640.957C774.942 642.456 784.003 641.504 792.621 641.635C799.01 641.765 804.577 640.931 810.64 642.287C805.894 646.015 800.887 645.285 795.229 645.455C784.564 645.403 774.629 646.224 764.134 644.607C755.412 643.968 746.598 644.451 737.863 644.164C726.846 643.838 715.451 645.103 704.551 643.369C705.764 641.739 707.028 640.161 708.332 638.61C704.29 637.084 700.835 634.568 696.976 632.743C689.753 631.856 680.731 634.49 674.382 630.67C680.549 627.867 686.872 629.483 693.808 628.545C691.239 624.021 687.85 619.431 686.507 614.386C684.903 608.323 684.955 601.661 685.073 595.416C685.79 584.334 690.744 575.285 696.898 566.381C696.768 561.7 692.765 556.928 690.131 553.264C685.151 546.954 681.904 539.823 676.037 534.829C673.625 532.495 669.545 532.534 666.416 532.274C661.305 532.039 656.728 530.618 651.8 529.431C645.034 527.71 638.567 526.707 632.048 524.008C627.732 522.195 623.443 520.292 619.062 518.623C615.412 525.207 611.292 529.471 605.281 533.903C608.189 536.42 611.109 538.923 613.912 541.557C612.335 543.121 610.783 544.686 609.219 546.25C607.002 543.929 604.695 541.674 602.413 539.431C599.936 541.869 597.354 544.738 594.238 546.302C582.752 548.467 571.761 542.704 563.626 535.038C559.193 530.879 557.576 525.716 555.673 520.162C549.362 520.774 543.326 522.417 537.967 525.885C529.414 532.391 522.53 540.461 519.936 551.113C517.98 562 520.366 572.717 525.255 582.495C527.889 587.384 531.148 591.974 534.147 596.628C533.039 598.936 531.944 601.244 530.875 603.564C520.992 589.51 512.335 575.429 511.774 557.697C512.374 539.027 524.434 521.205 541.97 514.425C547.667 512.195 553.652 512.495 559.427 511.009C562.935 505.82 567.328 499.862 568.28 493.564C569.91 491.726 571.579 489.94 573.391 488.284Z" fill="#0E100A"/>
<path d="M555.673 520.162C557.576 525.716 559.193 530.879 563.626 535.038C571.761 542.704 582.752 548.467 594.238 546.302C597.354 544.738 599.936 541.869 602.413 539.431C604.695 541.674 607.002 543.929 609.219 546.25C610.562 547.684 611.892 549.145 613.221 550.605C608.267 550.657 603.234 550.266 598.306 550.748C591.018 551.843 584.486 554.268 577.537 556.381C573.326 557.763 569.167 555.69 565.829 559.079C563.091 561.596 563.052 565.116 564.095 568.454C565.803 571.061 568.241 570.122 570.875 569.888C575.216 568.049 577.576 564.151 582.074 562.495C593.287 557.919 606.585 555.95 617.693 561.896C619.727 562.756 620.236 565.494 621.187 567.319C613.834 567.124 605.725 566.394 598.515 568.102C589.923 570.631 581.944 575.559 575.542 581.804C569.375 587.541 562.309 593.812 558.176 601.218C555.607 605.546 553.56 610.37 550.536 614.386L548.893 614.881C542.843 610.109 538.176 603.134 534.147 596.628C531.148 591.974 527.889 587.384 525.255 582.495C520.366 572.717 517.98 562 519.936 551.113C522.531 540.461 529.414 532.391 537.967 525.885C543.326 522.417 549.362 520.774 555.673 520.162Z" fill="#FCFCFA"/>
<path d="M684.59 533.799C693.221 533.499 701.826 534.086 710.457 533.786C717.485 533.538 724.512 533.356 731.539 533.395C733.521 536.55 735.49 539.718 737.419 542.913C724.942 547.737 713.951 553.408 702.83 560.853C697.25 551.478 690.457 542.978 684.59 533.799Z" fill="#EDEE79"/>
<path d="M788.775 535.064C798.423 535.807 807.68 539.51 815.437 545.22C821.331 549.536 824.877 556.837 824.759 564.125C824.746 570.279 824.825 576.693 822.491 582.469C819.388 589.171 816.155 595.442 810.653 600.513C804.812 605.768 798.866 610.852 792.465 615.429C789.557 614.242 786.65 613.317 783.521 612.873C772.973 603.786 764.916 591.009 762.335 577.228C761.565 571.504 761.5 564.712 762.113 558.962C763.143 553.76 764.825 548.753 765.398 543.447C757.902 544.777 753.273 550.201 749.883 556.589C747.771 560.931 746.05 565.846 745.972 570.722C745.555 574.425 748.032 577.997 749.349 581.426C748.228 583.082 747.132 584.907 745.698 586.302C744.082 587.267 741.748 587.202 739.936 586.967C737.445 585.285 735.568 582.626 734.525 579.823C735.398 575.663 738.293 572.443 738.867 568.115C739.936 561.439 742.348 555.272 744.59 548.936C742.791 548.388 740.992 547.828 739.179 547.267C738.788 546.394 738.397 545.52 738.006 544.647C739.805 543.069 741.617 541.491 743.456 539.966C749.127 540.279 753.69 538.18 759.323 537.228C769.036 535.064 778.866 534.464 788.775 535.064Z" fill="#051206"/>
<path d="M718.332 536.224C721.526 536.315 725.112 536.341 728.11 537.489C729.74 538.597 732.413 539.014 730.718 541.4C727.667 544.138 723.26 545.546 719.649 547.437C714.525 549.783 709.505 553.46 704.043 554.816C698.58 550.566 694.851 543.916 690.431 538.623C699.675 535.95 708.827 536.263 718.332 536.224Z" fill="#FAF81A"/>
<path d="M613.912 541.557C622.608 551.622 627.133 563.421 630.848 576.015C632.061 581.452 631.448 587.345 631.579 592.899C631.592 601.609 628.71 608.975 626.807 617.28C637.446 619.027 648.489 617.658 659.271 618.362C659.245 619.184 659.232 620.018 659.232 620.852C648.449 620.657 637.902 622.391 627.107 621.987C623.678 621.296 622.087 626.55 620.301 628.649C628.71 630.461 636.611 629.757 645.307 629.796C650.666 629.849 655.138 627.984 660.275 630.579C657.85 632.065 656.024 633.043 653.091 632.873C641.005 632.925 629.153 632.834 617.094 633.916C615.998 635.989 614.916 638.075 613.873 640.187C626.103 640.461 638.306 640.057 650.522 640.279C655.464 640.422 659.897 638.832 664.838 639.64C672.413 640.683 680.183 640.435 687.837 640.657C687.85 641.935 687.863 643.212 687.889 644.49C681.8 644.516 676.063 644.086 670.066 643.212C659.714 642.952 649.01 642.547 638.775 643.995C628.775 644.451 618.71 644.216 608.71 644.086C602.895 643.981 597.85 646.98 591.891 647.019C584.903 647.189 578.228 643.89 571.083 643.343C566.168 643.043 561.253 642.978 556.337 642.717C555.842 641.596 555.36 640.474 554.864 639.353C558.997 639.379 563.117 639.314 567.237 638.962C563.626 636.824 559.571 633.473 555.333 632.925C550.64 632.547 545.62 632.3 540.992 633.225C533.404 634.829 526.624 633.017 518.919 632.717C515.842 632.639 513.065 631.661 510.197 630.644C512.778 629.105 514.616 628.623 517.589 628.858C525.047 629.236 532.152 630.605 539.701 629.731C543.652 629.158 547.602 628.688 551.579 628.31C548.41 624.842 544.981 621.609 541.852 618.088C537.785 613.512 534.682 608.375 530.875 603.564C531.944 601.244 533.039 598.936 534.147 596.628C538.176 603.134 542.843 610.109 548.893 614.881L550.536 614.386C553.56 610.37 555.607 605.546 558.176 601.218C562.309 593.812 569.375 587.541 575.542 581.804C581.944 575.559 589.923 570.631 598.515 568.102C605.725 566.394 613.834 567.124 621.187 567.319C620.236 565.494 619.727 562.756 617.693 561.896C606.585 555.95 593.287 557.919 582.074 562.495C577.576 564.151 575.216 568.049 570.875 569.888C568.241 570.122 565.803 571.061 564.095 568.454C563.052 565.116 563.091 561.596 565.829 559.079C569.167 555.69 573.326 557.763 577.537 556.381C584.486 554.268 591.018 551.843 598.306 550.748C603.234 550.266 608.267 550.657 613.221 550.605C611.891 549.145 610.562 547.684 609.219 546.25C610.783 544.686 612.335 543.121 613.912 541.557Z" fill="#071107"/>
<path d="M782.126 542.469C792.113 542.104 801.982 545.012 810.301 550.514C813.743 552.886 816.676 555.69 817.836 559.849C820.418 569.014 818.567 579.471 813.182 587.319C807.628 596.042 797.81 602.482 789.818 609.001C785.516 606.211 781.474 603.486 778.736 599.027C771.617 587.945 766.715 573.564 769.245 560.344C770.235 555.129 771.5 549.327 774.447 544.842C776.011 542.208 779.505 542.704 782.126 542.469Z" fill="#329C46"/>
<path d="M765.398 543.447C764.825 548.753 763.143 553.76 762.113 558.962C761.5 564.712 761.565 571.504 762.335 577.228C764.916 591.009 772.973 603.786 783.521 612.873C775.829 620.031 766.754 623.799 757.106 627.541C747.784 631.283 737.589 635.155 727.393 634.229C716.624 633.525 705.529 630.618 698.619 621.7C693.195 615.794 691.526 608.558 691.591 600.709C691.005 592.248 693.743 584.62 697.511 577.215C699.727 572.886 703.86 569.575 707.654 566.654C718.449 558.245 731.474 552.574 744.59 548.936C742.348 555.272 739.936 561.439 738.866 568.115C738.293 572.443 735.398 575.663 734.525 579.823C735.568 582.626 737.445 585.285 739.936 586.967C741.748 587.202 744.082 587.267 745.698 586.302C747.132 584.907 748.228 583.082 749.349 581.426C748.032 577.997 745.555 574.425 745.972 570.722C746.05 565.846 747.771 560.931 749.883 556.589C753.273 550.201 757.902 544.777 765.398 543.447Z" fill="#FCFDFC"/>
<path d="M790.001 547.306C794.147 548.558 797.81 551.491 801.8 553.252C805.398 554.986 809.583 556.016 812.895 558.258C814.277 559.092 814.316 561.57 814.525 563.004C814.812 568.375 814.29 573.969 812.726 579.132C811.578 583.212 807.015 585.976 804.029 588.766C799.962 592.104 797.25 596.785 793.208 600.07C790.379 600.957 786.872 599.901 784.316 598.636C781.474 597.267 780.105 593.408 778.775 590.748C776.22 584.881 772.908 578.493 772.621 572.039C772.165 563.903 774.707 555.338 777.745 547.841C781.67 547.176 786.063 546.485 790.001 547.306Z" fill="#08B12D"/>
<path d="M623.834 576.485C625.712 587.606 624.799 598.988 621.526 609.757C618.384 618.675 614.877 627.071 606.95 632.795C598.515 639.418 586.298 640.057 576.807 635.39C571.865 632.991 566.924 630.383 562.204 627.567C559.701 625.65 556.35 624.412 557.42 620.618C559.532 611.165 565.477 602.274 572.191 595.416C578.919 588.388 587.067 581.426 596.155 577.736C605.255 574.138 614.408 574.777 623.834 576.485Z" fill="#359A44"/>
<path d="M618.384 579.353C620.861 581.622 620.666 585.807 620.679 588.884C620.249 600.435 617.771 613.929 610.444 623.225C605.19 629.053 597.68 635.403 589.284 634.386C578.541 633.682 570.705 627.124 562.204 621.348C563.326 615.103 565.19 610.448 569.284 605.585C576.403 595.494 586.09 587.697 597.25 582.482C603.547 579.796 611.605 577.593 618.384 579.353Z" fill="#09B22B"/>
<path d="M671.787 617.775C671.813 618.91 671.839 620.031 671.865 621.152C669.388 621.074 666.924 620.957 664.447 620.748C666.82 617.463 668.006 617.789 671.787 617.775Z" fill="#1C1C1A"/>
<path d="M514.695 644.516C521.709 643.773 529.088 645.507 535.751 645.546C539.649 645.65 543.521 645.598 547.42 645.781L549.806 647.528C539.766 648.636 529.753 647.215 519.701 648.427C517.615 648.375 515.542 648.297 513.456 648.193C513.834 646.954 514.251 645.729 514.695 644.516Z" fill="#262722"/>
<path d="M547.42 645.781C549.91 645.859 552.4 645.95 554.89 646.068C554.278 647.176 553.678 648.297 553.078 649.418C541.866 649.666 530.796 649.757 519.701 648.427C529.753 647.215 539.766 648.636 549.806 647.528L547.42 645.781Z" fill="#5A5E55"/>
<path d="M560.301 652.117C565.933 651.856 571.852 652.586 577.485 653.03C586.624 653.799 595.672 653.095 604.877 653.33C615.712 653.277 626.689 653.812 637.472 652.808C646.82 652 655.855 653.173 665.19 653.173C654.199 654.047 643.247 653.538 632.256 653.916C619.584 654.034 607.107 655.298 594.434 654.047C582.908 653.825 571.461 653.89 559.936 653.069L560.301 652.117Z" fill="#A0A19D"/>
<path d="M559.936 653.069C571.461 653.89 582.908 653.825 594.434 654.047C607.107 655.298 619.584 654.034 632.257 653.916C643.247 653.538 654.199 654.047 665.19 653.173C669.818 653.095 674.408 653.408 678.958 654.281C676.259 656.185 674.486 656.459 671.292 656.302C659.988 655.846 648.71 656.563 637.406 656.224C630.405 655.937 623.652 657.645 616.663 657.528C608.384 657.515 600.118 657.006 591.839 657.215C580.783 657.423 569.988 657.319 559.01 655.742C559.31 654.855 559.623 653.955 559.936 653.069Z" fill="#282923"/>
<path d="M719.571 653.408C721.2 653.76 722.765 654.503 724.238 655.637C717.784 656.719 711.5 655.585 705.125 656.954C698.632 658.349 692.465 657.71 685.881 657.645C683.143 657.332 679.427 657.593 677.876 654.92C684.773 653.89 691.683 654.855 698.567 654.034C705.385 653.29 712.726 652.599 719.571 653.408Z" fill="#3A3735"/>
<path d="M739.531 653.877C745.02 653.408 750.561 654.985 756.102 654.738C768.28 654.503 780.444 654.659 792.621 654.894C799.479 655.142 805.594 653.747 812.334 655.337C805.646 659.171 796.181 658.336 788.697 658.284C771.487 656.954 753.599 658.779 736.311 657.006C737.367 655.924 738.371 654.842 739.531 653.877Z" fill="#2B2B27"/>
<path d="M523.078 663.916C529.049 663.942 535.112 664.008 541.057 664.477C551.305 665.65 561.892 665.142 572.283 665.455C585.373 665.898 599.506 664.633 612.687 666.002C620.027 666.732 627.406 666.237 634.864 666.38C640.979 666.615 646.859 665.116 652.974 665.807C650.536 667.828 648.489 669.301 645.177 669.21C627.85 669.588 610.483 668.623 593.143 668.884C578.828 669.34 564.434 669.092 550.105 668.636C540.027 667.319 529.414 668.792 519.61 666.185C520.627 665.481 521.761 663.812 523.078 663.916Z" fill="#2D2E2D"/>
<path d="M664.577 665.768C672.204 664.568 680.549 666.524 688.306 666.328C698.306 666.772 708.332 666.615 718.306 667.084C730.157 668.623 742.374 666.419 754.121 668.232C748.853 671.713 743.743 670.344 737.863 670.422C725.685 670.409 713.521 670.2 701.344 670.409C694.76 670.605 688.384 669.014 681.813 669.197C675.529 669.262 669.271 669.392 662.987 668.845C663.495 667.802 664.03 666.785 664.577 665.768Z" fill="#19201C"/>
<path d="M783.39 666.511C786.65 666.38 788.045 666.433 790.587 668.727C784.668 669.379 778.723 669.444 772.804 670.187C769.258 670.657 766.194 669.483 762.908 668.271C769.218 665.65 776.48 666.837 783.39 666.511Z" fill="#323230"/>
<path d="M616.024 674.229C626.611 673.903 637.328 674.542 647.902 675.285C656.05 675.546 664.212 675.337 672.361 675.468C678.189 675.911 683.99 676.68 689.831 677.058C687.902 677.541 685.985 678.023 684.03 678.453C665.894 678.323 647.784 678.258 629.636 678.01C625.034 677.841 620.431 677.241 615.842 676.785C615.868 675.924 615.933 675.077 616.024 674.229Z" fill="#141914"/>
<path d="M672.361 675.468C684.629 675.285 696.924 675.689 709.193 675.885C711.865 675.781 713.078 677.41 714.799 679.144C704.89 679.992 693.899 679.848 684.03 678.453C685.985 678.023 687.902 677.541 689.831 677.058C683.991 676.68 678.189 675.911 672.361 675.468Z" fill="#555354"/>
</g>
<defs>
<clipPath id="clip0_2_1012">
<rect width="1330" height="733.333" fill="white"/>
</clipPath>
</defs>
</svg>
