<svg width="1330" height="730" viewBox="0 0 1330 730" fill="none" xmlns="http://www.w3.org/2000/svg">
<g clip-path="url(#clip0_2_473)">
<path d="M0 0H1330V730H0V0Z" fill="#FEFEFE"/>
<path d="M715.031 42.1849C724.118 44.2601 732.595 50.5398 736.61 59.0302C738.373 62.4617 737.722 66.6256 741.682 68.1446C748.708 63.2212 755.517 58.5013 763.505 55.1919C775.373 48.7901 789.845 49.6717 802.825 51.2722C812.129 52.2352 819.806 58.5555 823.603 66.9239C825.597 72.1186 825.177 78.3983 824.797 83.8642C824.376 89.3979 820.701 94.0229 820.836 99.516C827.781 99.2176 833.843 96.9526 840.91 98.5259C848.437 99.6109 855.3 103.436 859.261 110.054C864.17 117.501 866.015 126.656 863.479 135.309C862.489 139.649 860.169 142.633 860.129 146.96C861.851 147.502 863.56 147.814 865.255 147.923C876.147 148.234 887.363 153.863 892.395 163.846C895.257 169.393 894.701 175.32 894.796 181.41C895.148 193.399 888.313 205.606 880.731 214.517C876.743 219.522 871.033 222.546 866.951 227.375C871.088 233.695 877.679 238.239 878.154 246.377C878.439 253.904 878.859 262.463 874.099 268.81C869.677 274.303 864.699 279.538 858.976 283.689C853.401 287.676 846.959 289.317 841.249 292.545C846.321 304.942 852.248 316.837 855.544 329.939C857.647 335.812 858.894 342.579 862.353 347.788C865.296 347.801 866.937 348.425 868.782 345.631C868.131 341.454 863.357 337.9 863.126 333.424C862.706 328.474 862.448 323.293 863.316 318.397C865.35 314.192 869.365 310.557 873.448 308.387C880.527 306.624 885.695 310.259 890.985 314.355C894.118 317.488 895.298 322.547 897.685 326.29C902.052 324.92 905.619 321.747 909.932 320.445C913.852 319.916 918.273 319.699 922.085 320.838C926.466 323.103 931.606 327.945 931.172 333.302C931.714 337.507 926.547 341.074 924.526 344.465C924.838 345.319 925.245 346.147 925.747 346.947C931.158 348.615 936.204 348.724 940.341 353.159C942.443 355.356 941.941 359.004 941.697 361.798C939.527 369.177 933.261 371.862 928.324 376.813C928.717 380.976 935.417 383.798 936.489 388.097C937.452 391.42 937.899 394.987 937.506 398.432C936.15 403.952 931.796 407.424 926.927 409.839C920.132 413.433 911.492 413.284 904.466 410.49C898.227 407.479 897.4 401.511 892.436 397.442C888.34 399.083 884.474 401.796 880.27 402.922C875.97 403.695 871.576 403.234 867.317 403.423C866.273 409.622 868.511 416.485 868.565 422.805C868.795 431.852 868.958 440.993 868.266 450.012C866.435 461.907 863.424 473.68 859.328 485.005C855.694 497.117 850.702 508.618 843.609 519.116C834.237 533.615 821.067 541.265 806.934 550.338C790.13 559.602 773.515 568.296 754.852 573.219C746.307 576.99 737.261 577.763 728.323 580.164C720.863 581.954 713.553 580.747 706.12 581.276C702.133 584.721 703.136 591.855 703.136 596.629L705.171 598.04C708.955 596.995 712.535 595.232 716.387 594.323C727.333 591.516 740.041 593.116 751.339 593.198C761.864 593.482 771.386 597.443 780.283 602.8C786.861 606.951 791.283 613.502 793.615 620.826C795.053 628.068 792.72 634.741 789.058 640.899C786.59 644.778 782.358 647.721 779.252 651.193C777.489 653.011 776.011 655.059 774.342 656.971C761.647 659.236 748.898 657.012 736.298 659.562C731.958 657.826 728.174 654.57 724.078 652.305C719.168 649.606 715.424 646.066 710.094 644.303C710.094 650.637 712.359 656.768 712.739 662.952C711.762 665.312 709.443 667.143 707.856 669.124C706.446 670.534 705.089 672.026 703.57 673.315C696.016 670.059 689.6 666.642 680.947 668.134C677.109 668.866 675.441 672.976 672.823 675.593C668.32 675.675 664.251 673.654 659.599 674.467C647.107 676.719 633.693 675.851 621.134 674.359C618.544 674.101 616.143 673.274 613.634 672.636C614.488 667.686 616.957 664.295 615.844 659.277C614.041 660.24 612.305 661.298 610.677 662.546C609.022 663.956 607.462 665.502 605.957 667.089C604.207 668.907 602.485 670.928 600.437 672.419C596.761 673.165 592.95 673.016 589.274 673.857C584.188 674.888 578.79 677.384 573.609 676.922C567.804 676.407 561.999 674.63 556.316 673.342C554.051 672.799 551.786 672.23 549.494 671.836C546.076 671.131 542.224 670.887 539.064 669.381C536.175 665.977 533.679 662.234 530.818 658.802C528.783 655.154 525.379 651.003 525.27 646.731C525.04 641.889 524.579 636.518 525.962 631.825C529.421 623.565 534.046 615.658 541.343 610.206C547.961 605.445 553.848 600.63 561.511 597.606C573.324 591.936 587.877 591.055 600.789 591.326C606.31 591.217 610.758 594.147 616.36 593.198C616.306 588.017 616.984 581.9 614.909 577.044C606.649 576.61 598.579 576.285 590.495 574.304C583.822 572.582 576.932 573.043 570.34 571.144C561.212 568.364 552.125 565.922 543.54 561.65C530.329 555.262 515.369 548.128 505.129 537.44C493.072 526.061 484.758 510.368 479.617 494.757C477.054 484.612 473.961 474.711 472.469 464.321C470.489 455.465 470.95 446.73 471.262 437.724C471.506 433.398 472.985 429.844 472.646 425.518C469.119 422.968 465.593 421.069 461.104 422.045C458.16 425.179 456.546 428.759 454.227 432.299C450.579 438.077 444.936 442.661 439.213 446.283C434.534 447.558 429.149 447.001 424.321 446.812C419.668 446.73 416.305 443.99 412.941 441.115C406.851 435.364 402.009 428.963 403.379 420.052C402.715 413.311 408.832 408.604 407.57 402.271C403.121 401.674 399.215 401.728 395.608 398.608C392.176 395.652 387.646 391.067 388.066 386.198C387.415 381.071 391.674 377.559 395.201 374.602C399.432 371.17 405.821 371.021 409.523 367.169C405.766 363.155 401.372 361.256 398.591 356.495C394.97 351.382 395.336 343.027 400.043 338.66C403.922 334.455 409.659 334.008 415.043 334.211C421.839 334.509 426.206 339.148 432.825 339.786C434.439 334.116 434.398 328.894 438.101 324.012C442.02 318.18 448.015 312.198 455.692 313.419C460.968 314.07 467.397 316.62 471.262 320.377C477.488 326.345 475.819 336.598 474.545 344.248C473.744 350.609 470.666 355.817 468.441 361.703C471.9 365.27 474.002 365.962 478.885 365.094C481.055 356.685 481.177 347.367 484.418 338.985C489.6 325.287 496.245 312.361 503.515 299.693C505.577 295.99 508.249 293.237 508.289 288.748C502.688 289.385 497.941 292.478 492.366 293.183C483.483 293.82 474.951 293.549 466.827 289.521C458.486 284.842 451.026 279.132 447.025 270.166C442.97 261.377 443.567 250.541 443.865 241.006C445.235 230.725 448.815 220.254 454.729 211.655C457.292 207.803 460.832 205.104 463.789 201.605C459.178 197.807 453.563 195.976 449.466 191.636C446.727 188.734 444.109 185.248 442.875 181.437C442.075 175.822 442.061 169.284 442.834 163.669C444.19 155.721 449.765 149.848 455.651 144.789C460.914 140.49 466.881 135.838 473.378 133.681C476.823 133.179 480.268 133.03 483.74 133.369C481.95 136.53 479.59 137.547 476.348 138.7C467.817 141.453 460.317 147.814 454.376 154.338C448.246 160.997 448.897 171.292 449.629 179.674C451.094 187.093 459.503 192.436 465.932 195.312C468.509 196.858 473.093 197.943 472.686 201.673C469.757 206 465.105 209.214 461.646 213.174C457.048 218.098 454.688 224.689 452.722 231.01C449.9 239.853 450.633 249.361 450.891 258.665C451.447 273.164 464.372 285.764 478.749 286.523C485.463 286.795 493.316 287.296 499.636 284.733C507.449 281.695 514.623 276.609 520.74 270.912C524.619 267.359 527.508 263.629 531.848 260.699C536.989 262.056 541.153 267.549 545.303 270.736C553.956 277.409 563.789 282.332 575.02 281.532C586.128 282.007 594.523 275.307 601.251 267.237C604.994 262.829 608.114 256.752 612.928 253.565C619.127 255.071 623.765 262.123 628.634 266.057C638.888 275.13 652.207 278.141 665.594 278.074C677.95 276.27 689.004 267.508 695.419 257.01C698.172 252.928 699.352 248.221 701.658 243.963C704.113 242.362 708.222 242.986 709.375 246.051C711.762 251.612 712.074 257.824 715.601 263.222C719.955 269.651 726.288 274.764 733.87 276.717C740.72 278.223 747.745 275.442 753.32 271.604C758.663 267.82 761.512 262.707 765.784 258.055C767.14 256.196 769.46 255.695 771.264 257.2C775.441 260.862 778.371 265.785 782.467 269.583C797.169 283.526 817.731 288.531 837.533 285.913C848.139 282.943 857.877 277.707 864.428 268.607C870.22 261.201 871.305 251.734 869.569 242.715C867.778 236.584 862.041 233.492 859.478 228.121C857.728 223.469 863.899 219.658 866.788 216.986C881.002 206.786 889.954 188.707 887.16 171.17C886.115 164.456 882.277 159.234 875.794 156.928C865.5 153.931 855.056 157.62 845.847 157.362C844.463 151.042 848.898 148.587 851.842 143.786C856.073 137.804 856.792 130.168 856.575 123.048C856.643 116.592 852.56 110.692 847.501 107.016C843.487 104.073 837.397 104.589 832.677 104.67C823.413 104.833 818.151 111.953 808.955 110.095C808.128 104.67 812.278 99.0141 813.987 93.9009C817.554 86.0072 817.636 77.6659 816.835 69.189C815.411 62.0819 807.165 57.0094 800.234 57.1585C792.639 57.0365 784.813 56.6838 777.286 57.796C769.69 59.6948 762.461 63.601 755.734 67.5478C749.441 71.1963 744.259 76.73 737.736 79.8495C733.3 76.5944 732.907 69.2704 731.049 64.347C728.54 55.4496 720.836 49.1699 711.817 47.6915C704.059 45.5486 696.775 47.1083 689.221 49.1699C679.604 52.0724 670.91 57.1179 663.18 63.4654C658.921 66.6662 655.218 70.6131 650.796 73.5427C647.433 72.7289 644.652 69.0262 642.184 66.7341C636.61 60.8341 630.045 56.2769 621.88 54.9613C613.498 53.9577 605.252 54.1069 597.412 57.5926C589.898 60.7392 582.737 66.4357 577.949 73.0002C572.782 80.4328 574.152 88.4621 571.1 96.939C566.299 96.4372 562.867 93.182 558.378 91.134C547.337 85.6274 534.236 85.4647 522.164 85.6952C510.419 85.9936 499.148 91.7443 492.421 101.428C489.342 105.769 489.762 112.265 490.237 117.297C490.834 123.807 496.15 129.45 495.608 135.838C493.112 135.946 489.613 136.706 487.552 134.956C487.497 129.829 486.711 125.815 484.825 121.054C482.669 115.887 483.103 110.719 483.632 105.28C486.711 97.4679 493.736 91.2018 500.545 86.5904C505.862 82.969 511.748 81.6941 517.96 80.4599C527.969 79.1307 539.145 81.5042 549.196 82.9419C555.123 83.6472 559.504 88.4756 565.173 87.0922C566.204 84.4067 566.841 81.5449 567.682 78.7916C569.757 71.3998 575.277 64.8217 581.096 60.0068C592.001 51.4756 605.632 46.0233 619.642 48.7359C628.241 49.5225 635.24 53.6728 642.021 58.6912C644.951 60.9833 647.406 64.1435 650.851 65.4456C655.164 62.2854 658.948 58.5013 663.464 55.5717C674.261 47.8679 686.006 42.958 699.081 40.6659C704.777 38.9705 709.524 40.8964 715.031 42.1849Z" fill="#08090D"/>
<path d="M711.817 47.6915C720.836 49.1699 728.54 55.4496 731.049 64.347C732.907 69.2704 733.301 76.5944 737.736 79.8495C744.26 76.73 749.441 71.1963 755.734 67.5478C762.461 63.601 769.69 59.6948 777.286 57.796C784.813 56.6838 792.639 57.0365 800.234 57.1585C807.165 57.0094 815.411 62.0819 816.835 69.189C817.636 77.6659 817.554 86.0072 813.987 93.9009C812.278 99.0141 808.128 104.67 808.955 110.095C818.151 111.953 823.414 104.833 832.677 104.67C837.397 104.589 843.487 104.073 847.502 107.016C852.561 110.692 856.643 116.592 856.575 123.048C856.792 130.168 856.073 137.804 851.842 143.786C848.899 148.587 844.463 151.042 845.847 157.362C855.056 157.62 865.5 153.931 875.794 156.928C882.277 159.234 886.116 164.456 887.16 171.17C889.954 188.707 881.002 206.786 866.788 216.986C863.899 219.658 857.728 223.469 859.478 228.121C862.041 233.492 867.778 236.584 869.569 242.715C871.305 251.734 870.22 261.201 864.428 268.607C857.877 277.707 848.139 282.943 837.533 285.913C817.731 288.531 797.169 283.526 782.467 269.583C778.371 265.785 775.441 260.862 771.264 257.2C769.46 255.695 767.14 256.196 765.784 258.055C761.512 262.707 758.664 267.82 753.32 271.604C747.745 275.442 740.72 278.223 733.87 276.717C726.289 274.764 719.955 269.651 715.601 263.222C712.074 257.824 711.762 251.612 709.375 246.051C708.223 242.986 704.113 242.362 701.658 243.963C699.352 248.221 698.172 252.928 695.419 257.01C689.004 267.508 677.95 276.27 665.594 278.074C652.207 278.141 638.888 275.13 628.635 266.057C623.765 262.123 619.127 255.071 612.929 253.565C608.114 256.752 604.994 262.829 601.251 267.237C594.523 275.307 586.128 282.007 575.02 281.532C563.79 282.332 553.956 277.409 545.303 270.736C541.153 267.549 536.989 262.056 531.849 260.699C527.508 263.629 524.619 267.359 520.74 270.912C514.623 276.609 507.449 281.695 499.636 284.733C493.316 287.296 485.463 286.795 478.749 286.523C464.372 285.764 451.447 273.164 450.891 258.665C450.633 249.361 449.901 239.853 452.722 231.01C454.688 224.689 457.048 218.098 461.646 213.174C465.105 209.214 469.757 206 472.687 201.673C473.093 197.943 468.509 196.858 465.932 195.312C459.503 192.436 451.094 187.093 449.629 179.674C448.897 171.292 448.246 160.997 454.376 154.338C460.317 147.814 467.817 141.453 476.349 138.7C479.59 137.547 481.95 136.53 483.74 133.369C480.268 133.03 476.823 133.179 473.378 133.681C477.501 132.149 481.869 131.362 485.938 129.748C487.063 127.646 484.636 124.35 483.998 122.221C481.34 116.538 481.299 111.072 483.632 105.28C483.103 110.719 482.669 115.887 484.825 121.054C486.711 125.815 487.497 129.829 487.552 134.956C489.613 136.706 493.112 135.946 495.608 135.838C496.151 129.45 490.834 123.807 490.237 117.297C489.762 112.265 489.342 105.769 492.421 101.428C499.148 91.7443 510.419 85.9936 522.165 85.6952C534.236 85.4646 547.338 85.6274 558.378 91.134C562.867 93.182 566.299 96.4372 571.1 96.939C574.152 88.4621 572.782 80.4327 577.949 73.0002C582.737 66.4357 589.898 60.7392 597.412 57.5926C605.252 54.1069 613.498 53.9577 621.88 54.9613C630.045 56.2769 636.61 60.8341 642.184 66.7341C644.653 69.0262 647.433 72.7289 650.797 73.5427C655.218 70.6131 658.921 66.6662 663.18 63.4654C670.911 57.1179 679.604 52.0724 689.221 49.1699C696.775 47.1083 704.059 45.5486 711.817 47.6915Z" fill="#F36817"/>
<path d="M704.018 260.333C708.548 264.687 710.745 269.949 715.791 273.774C722.45 278.955 730.276 284.096 739.065 283.729C745.548 283.065 752.275 281.112 757.646 277.328C761.905 274.452 765.052 270.37 769.216 267.454C771.101 267.549 772.918 269.773 774.315 270.926C781.883 278.589 790.74 284.76 801.062 288.097C811.18 291.718 821.515 292.233 832.04 293.508C836.434 296.98 838.943 303.26 840.937 308.346C845.114 320.58 849.346 332.773 852.927 345.197C854.324 349.456 855.504 354.84 858.637 358.163C859.695 358.665 860.888 358.597 862.217 357.96C868.307 354.976 874.533 351.518 879.754 347.164C875.74 342.959 871.427 340.287 869.894 334.292C866.897 327.321 870.966 319.075 876.947 315.236C882.331 313.324 886.034 318.234 887.892 322.56C890.144 328.881 888.082 336.774 889.072 343.393L890.361 344.98C891.676 345.102 892.965 345.075 894.226 344.912C899.679 337.398 903.327 330.115 912.699 326.751C916.849 324.351 924.635 328.515 922.356 333.669C918.165 343.61 910.122 346.418 902.066 352.277C902.69 353.443 903.368 354.556 904.1 355.614C910.19 355.98 916.049 353.66 922.22 354.108C926.154 354.311 931.782 353.728 933.627 358.177C933.546 361.69 930.453 365.243 928.053 367.617C922.885 372.703 916.497 372.31 909.539 375.131C913.445 378.644 918.192 379.566 922.654 381.967C927.266 384.652 930.738 390.728 929.205 396.113C927.537 401.606 922.356 405.715 916.592 405.946C913.12 406.014 908.413 406.706 905.85 403.83C901.36 399.531 899.028 392.722 895.135 387.785C890.089 388.897 886.278 393.604 881.436 395.57C874.614 398.676 868.402 397.049 861.336 398.066C859.369 399.436 857.538 400.941 858.216 403.586C859.396 410.029 861.2 416.213 861.499 422.832C861.824 432.774 862.068 442.363 860.088 452.182C856.806 467.088 852.357 481.669 847.23 496.032C842.131 508.89 834.237 521.327 823.726 530.414C816.876 535.948 810 541.292 802.228 545.496C786.725 554.041 770.328 561.216 753.428 566.492C742.673 570.303 731.632 571.7 720.606 574.386C711.979 576.569 703.977 574.725 695.405 575.81C694.565 584.897 695.5 594.147 694.944 603.248C694.917 606.747 691.906 609.392 688.773 610.355C684.894 611.44 680.784 612.064 676.756 611.793C672.606 611.44 668.306 608.781 666.448 605.011C664.997 597.999 667.425 591.95 668.781 585.304C669.514 582.51 668.117 580.367 666.313 578.387C664.753 578.129 663.234 578.156 661.688 578.468C656.764 585.901 658.31 594.378 655.218 601.959C650.064 605.635 643.418 605.838 637.342 605.472C632.717 605.214 627.319 603.18 625.108 598.826C623.291 590.933 625.312 582.157 623.915 574.182C622.735 570.981 618.53 570.425 615.614 570.005C602.187 568.526 588.895 568.011 575.454 565.258C569.038 563.834 562.962 561.745 556.805 559.507C548.395 556.387 540.203 554 532.459 549.294C526.925 545.863 521.337 542.485 515.939 538.85C506.92 532.856 500.45 522.873 495.432 513.46C484.744 491.231 477.99 466.586 479.292 441.752C479.21 435.853 481.15 430.075 480.716 424.243C479.78 421.652 476.905 419.726 474.504 418.587C467.994 415.82 461.131 414.097 454.349 417.054C451.772 419.645 450.24 423.442 448.381 426.562C445.059 432.57 439.755 438.362 433.191 440.776C422.829 443.787 410.568 433.493 411.395 422.805C411.246 416.281 413.945 410.354 417.824 405.241C421.242 400.982 425.636 398.825 429.732 395.245C428.484 394.377 427.169 393.78 425.785 393.427C419.723 393.387 413.579 397.116 407.19 396.316C403.081 395.801 398.686 393.237 396.842 389.413C396.191 387.093 396.286 384.598 397.981 382.726C401.847 378.02 408.764 375.606 414.42 373.869C419.411 372.079 426.192 376.745 429.976 372.825C424.334 367.047 416.698 365.921 410.825 360.483C407.543 357.458 404.369 354.434 404.627 349.578C404.315 345.441 407.977 342.213 411.558 340.965C416.617 339.813 422.53 342.118 426.898 344.587C433.204 348.262 434.71 354.759 439.321 359.899C440.935 359.927 442.549 359.859 444.177 359.696C443.472 353.349 440.8 347.964 441.342 341.454C441.274 334.13 445.099 326.412 450.986 322.045C457.13 317.501 467.18 322.045 468.292 329.423C469.024 337.059 467.953 345.143 464.671 352.114C462.921 355.953 460.507 359.438 458.811 363.29C460.344 366.057 462.975 367.034 465.661 368.363C471.805 371.116 477.434 373.802 484.364 373.652C487.511 367.861 487.104 360.266 488.908 353.905C492.8 338.497 498.334 323.157 506.621 309.54C513.742 296.723 522.097 284.57 531.374 273.232C533.802 269.637 537.613 273.299 540.217 274.642C551 282.048 561.402 288.802 575.006 289.127C586.562 288.571 596.788 282.821 605.252 275.239C609.239 271.577 611.776 267.006 615.56 263.276C621.5 267.603 626.302 273.055 632.839 276.663C642.225 282.563 654.54 284.204 665.431 284.177C675.291 284.313 683.918 279.484 691.391 273.503C696.246 269.637 699.651 264.633 704.018 260.333Z" fill="#21A4D4"/>
<path d="M718.761 301.7C721.813 302.501 725.868 304.115 727.441 307.031C728.567 312.619 727.251 321.814 721.324 324.31C717.201 324.676 711.233 321.855 711.315 317.067C711.139 310.964 712.183 304.006 718.761 301.7Z" fill="#08090D"/>
<path d="M651.366 303.382C653.631 301.985 656.262 302.636 657.727 304.861C662.651 311.696 659.029 323.415 650.796 325.87C646.578 326.86 642.496 323.971 642.048 319.699C641.248 313.27 646.293 306.787 651.366 303.382Z" fill="#08090D"/>
<path d="M674.396 337.385C679.957 336.34 685.911 336.001 691.513 336.883C702.689 339.609 709.443 353.389 706.69 364.145C703.611 375.999 692.123 384.394 680.554 386.7C673.054 387.107 664.59 384.693 659.016 379.498C654.689 375.687 650.227 370.94 648.057 365.515C646.47 359.533 647.636 352.589 652.261 348.181C658.066 342.417 666.503 339.026 674.396 337.385Z" fill="#08090D"/>
<path d="M583.252 337.9C586.087 339.121 586.263 344.343 583.605 345.835C580.445 348.669 575.63 350.772 573.419 354.42C572.09 363.236 573.718 373.164 574.355 382.021C574.776 388.273 576.837 393.875 579.129 399.612C581.693 405.987 583.686 412.985 587.267 418.777C592.801 427.837 600.437 435.242 608.141 442.593C623.169 455.112 642.021 462.626 661.796 461.324C678.519 462.273 694.388 457.431 709.036 449.673C716.713 445.821 724.078 441.698 730.385 435.785C739.485 427.104 748.044 418.166 754.961 407.614C762.57 395.937 769.405 383.676 775.251 371.035C778.791 365.176 771.318 358.611 774.22 352.616C775.807 350.256 777.394 349.931 780.093 350.446C780.636 354.379 780.256 358.462 781.029 362.341C782.317 365.474 785.708 368.417 789.275 368.092C794.741 367.78 799.244 363.005 804.751 363.914C806.297 368.471 802.743 370.506 799.244 372.201C794.389 374.453 788.421 373.015 783.267 373.612C779.347 377.179 777.543 383.255 774.939 387.826C769.758 397.32 764.848 407.492 758.067 415.942C753.279 422.1 749.034 428.42 743.202 433.696C736.841 439.42 730.683 444.994 723.115 449.104C714.217 454.081 704.764 460.442 694.836 462.965C685.287 464.878 675.617 466.03 665.851 465.827C655.95 465.623 646.687 466.654 637.206 464.213C631.591 462.992 626.763 460.347 621.758 457.635C616.089 454.515 610.555 452.06 605.577 447.856C594.795 438.172 585.138 428 578.546 414.911C575.535 408.781 573.772 402.582 571.493 396.126C566.868 383.119 565.024 369.19 566.923 355.464C568.36 350.338 561.647 346.404 559.219 342.471C560.25 341.522 561.348 340.708 562.515 340.016C565.376 341.481 567.967 343.868 571.019 344.912C575.494 344.668 578.912 338.823 583.252 337.9Z" fill="#08090D"/>
<path d="M676.661 343.841C682.412 343.163 690.116 342.39 694.605 346.784C699.339 349.89 697.82 356.766 697.63 361.608C695.921 367.902 690.753 373.693 685.057 376.758C675.21 382.238 662 376.202 657.293 366.545C656.656 362.992 656.317 357.987 657.85 354.691C661.227 348.534 670.3 345.577 676.661 343.841Z" fill="#FEFEFE"/>
<path d="M677.312 350.514C682.738 350.134 689.112 348.724 692.218 354.488C692.951 358.34 690.686 362.599 688.692 365.745C685.586 370.764 678.94 372.608 673.366 371.808C667.113 370.764 662.461 364.836 663.885 358.448C666.611 354.027 672.403 351.477 677.312 350.514Z" fill="#F36817"/>
<path d="M583.062 598.596C591.2 598.243 599.447 597.85 607.584 598.379C615.994 599.884 621.473 608.999 629.706 610.816C637.749 612.593 645.398 612.213 653.509 611.765C657.225 611.304 658.744 614.885 658.378 618.018C656.208 621.083 652.804 622.996 649.684 624.962C643.988 628.326 639.105 631.92 632.446 633.209C625.989 634.321 619.506 636.708 613.01 636.64C598.999 636.681 583.768 636.382 570.34 632.002C561.402 629.316 553.319 623.674 547.324 616.567C547.256 615.021 549.155 613.515 550.24 612.62C560.046 605.771 570.978 599.844 583.062 598.596Z" fill="#FEFEFE"/>
<path d="M737.749 599.586C747.175 599.735 757.904 600.074 766.842 603.37L767.127 605.947C764.251 609.962 760.21 613.244 756.602 616.621C753.509 619.022 751.027 622.358 746.728 621.856C746.497 619.686 746.402 617.53 746.199 615.36C745.168 614.668 744.11 614.044 743.025 613.488C741.52 613.99 740.068 614.641 738.671 615.441C737.41 617.855 740.218 620.012 741.357 621.924C741.343 623.538 741.343 625.139 741.099 626.739C737.003 627.919 730.832 629.791 726.777 627.933C725.922 625.857 725.271 623.701 724.403 621.626C722.857 621.314 721.297 621.273 719.724 621.341C719.371 624.067 719.344 626.82 719.073 629.56C705.293 630.659 692.137 630.618 680.282 622.575C679.93 621.232 679.767 619.822 679.821 618.357C683.104 616.404 688.502 620.31 692.462 617.72C699.759 615.36 701.902 608.551 708.534 605.296C717.296 600.698 727.957 599.152 737.749 599.586Z" fill="#FEFEFE"/>
<path d="M775.753 612.796C780.093 613.651 782.616 620.025 783.199 623.904C783.28 634.538 775.251 645.117 765.187 648.426C758.962 650.881 751.163 650.095 744.544 650.203C737.519 650.379 731.483 647.206 725.312 644.195C722.423 642.825 720.388 640.831 718.503 638.268C725.095 637.589 731.809 638.349 738.373 637.589C744.693 636.64 749.563 633.331 754.445 629.452C759.002 625.762 764.034 622.819 768.32 618.872C770.653 616.784 773.04 614.356 775.753 612.796Z" fill="#21A4D4"/>
<path d="M743.025 613.488C744.111 614.044 745.168 614.668 746.199 615.36C745.874 616.838 745.44 618.262 744.884 619.646C743.744 620.459 742.578 621.219 741.357 621.924C740.218 620.012 737.41 617.855 738.672 615.441C740.069 614.641 741.52 613.99 743.025 613.488Z" fill="#08090D"/>
<path d="M640.556 617.448C641.221 618.52 641.831 619.646 642.36 620.826C641.166 623.131 639.729 624.542 637.355 625.6C635.795 624.976 634.249 624.257 632.73 623.47C631.754 618.072 635.958 616.214 640.556 617.448Z" fill="#08090D"/>
<path d="M710.528 617.597C711.396 618.655 712.21 619.754 712.97 620.88C712.088 622.195 711.098 623.348 709.972 624.365C708.236 624.637 706.487 624.555 704.764 624.23C704.059 623.131 703.449 622.006 702.906 620.839C704.981 617.326 706.622 616.96 710.528 617.597Z" fill="#08090D"/>
<path d="M619.032 624.352C619.154 626.631 619.371 629.262 617.716 631.093C616.55 633.222 613.579 632.53 611.979 631.323C609.714 629.519 609.429 626.997 609.497 624.284C612.888 622.548 615.709 622.223 619.032 624.352Z" fill="#21A4D4"/>
<path d="M596.124 624.23C598.511 626.115 597.996 630.889 595.595 632.612C593.561 632.72 591.499 632.598 589.383 632.259C588.99 629.764 588.99 627.322 589.22 624.813C591.092 623.457 593.995 623.728 596.124 624.23Z" fill="#08090D"/>
<path d="M668.659 623.253C675.983 627.187 679.957 633.019 687.593 635.663C691.77 637.006 696.016 638.051 700.139 639.556C700.6 646.188 700.125 653.065 701.346 659.589C695.324 659.724 689.085 659.263 683.293 657.595C681.435 652.984 680.662 648.019 678.655 643.435C675.739 635.962 670.11 631.405 668.659 623.253Z" fill="#21A4D4"/>
<path d="M541.139 624.433C548.572 628.706 555.028 634.578 563.003 638.254C568.55 640.926 574.22 641.984 580.16 643.354C584.826 644.412 589.044 645.849 593.886 645.958C600.79 646.27 607.381 645.158 614.19 646.297C612.02 650.135 609.226 652.997 605.794 655.696C600.396 659.914 596.463 664.77 589.546 666.438C577.868 669.639 567.682 666.519 556.045 665.841C546.09 664.946 536.813 657.717 534.181 647.979C531.998 639.732 536.718 631.12 541.139 624.433Z" fill="#21A4D4"/>
<path d="M610.908 624.257C613.186 623.945 615.451 623.959 617.689 624.284C617.73 626.468 617.676 628.665 617.513 630.876C615.356 631.147 613.308 631.079 611.342 630.645C610.921 628.597 610.772 626.468 610.908 624.257Z" fill="#08090D"/>
<path d="M658.975 629.696C664.536 636.098 668.035 644.52 670.992 652.4C672.728 656.944 672.294 662.288 667.343 664.444C657.876 668.106 647.311 667.699 637.369 667.645C633.476 667.55 629.15 667.713 625.461 666.37C623.358 663.875 625.515 661.094 626.139 658.409C627.929 653.73 628.879 648.657 630.967 644.127C634.033 641.292 639.553 640.641 643.405 639.041C649.576 637.074 653.55 632.842 658.975 629.696Z" fill="#21A4D4"/>
<path d="M779.252 651.193C779.686 652.224 780.419 653.092 781.463 653.811C786.346 654.096 791.133 652.59 796.097 653.472C803.489 654.597 810.908 653.431 818.259 654.204L819.399 656.388C815.737 656.754 812.129 656.985 808.453 656.903C802.92 656.849 797.535 657.988 792.001 658.015C786.061 658.165 780.283 656.876 774.342 656.971C776.011 655.059 777.489 653.011 779.252 651.193Z" fill="#21A4D4"/>
<path d="M530.818 658.802C533.679 662.234 536.175 665.977 539.064 669.381C542.224 670.887 546.076 671.131 549.494 671.836C534.724 671.036 519.872 672.216 505.102 671.09C497.086 670.371 489.193 672.582 480.906 671.253C480.865 669.883 480.919 668.527 481.123 667.17C482.954 666.506 484.88 666.018 486.751 665.516C485.083 666.736 483.7 668.039 482.628 669.829C489.003 671.144 494.469 669.463 500.789 669.096C510.609 668.69 520.496 669.571 530.302 669.056C529.936 668.174 529.502 667.333 529.041 666.492C525.257 664.092 519.56 665.014 515.288 665.326C507.313 666.614 500.328 664.783 492.204 664.214C496.3 663.197 500.165 662.125 504.438 662.722C512.033 663.712 519.75 663.712 527.386 663.291C529.909 663.427 530.004 660.511 530.818 658.802Z" fill="#21A4D4"/>
<path d="M615.844 659.277C616.956 664.295 614.488 667.686 613.633 672.636C616.143 673.274 618.543 674.101 621.134 674.359C633.693 675.851 647.107 676.719 659.599 674.467C664.251 673.654 668.32 675.674 672.823 675.593C675.44 672.975 677.109 668.866 680.947 668.133C689.6 666.641 696.015 670.059 703.57 673.315C705.089 672.026 706.445 670.534 707.856 669.124C708.182 669.951 708.521 670.765 708.873 671.578C712.549 672.297 716.618 672.162 720.185 671.009C721.202 667.727 721.84 664.322 722.884 661.04C726.654 660.077 728.431 661.04 730.981 663.78C729.652 666.207 723.86 669.151 725.922 672.04C733.368 671.985 740.665 671.497 748.057 672.772C760.02 673.382 772.47 673.762 784.257 676.136C784.582 677.234 784.867 678.36 785.098 679.486C767.235 677.6 749.02 678.536 731.076 678.55C725.122 678.238 719.344 676.922 713.336 677.194C706.757 676.922 700.369 678.889 693.886 678.075C684.053 676.583 674.233 677.899 664.414 675.878C649.047 675.417 633.286 676.624 617.933 674.956C612.169 674.305 606.581 675.783 600.803 674.766C594.523 673.993 589.695 673.843 584.514 678.021C588.135 679.486 591.417 679.96 595.31 679.852C602.593 679.676 609.727 679.893 616.984 680.435C621.893 680.856 627.563 679.309 631.93 681.751C632.364 682.822 632.717 683.921 632.974 685.06C621.812 685.603 610.582 684.789 599.392 685.114C591.105 685.494 583.212 683.772 575.047 682.795C566.732 681.873 558.852 684.531 550.579 683.433C545.126 682.741 539.742 682.51 534.249 682.565C525.84 682.687 517.919 681.018 509.605 680.001C513.633 680.177 516.088 679.418 519.723 677.953C505.672 676.068 491.2 677.79 477.026 676.977C497.9 677.139 518.841 676.57 539.715 677.261C546.51 677.668 553.115 678.821 559.978 678.224C558.812 676.556 557.577 674.928 556.316 673.342C561.999 674.63 567.804 676.407 573.609 676.922C578.79 677.383 584.188 674.888 589.274 673.857C592.95 673.016 596.761 673.165 600.437 672.419C602.485 670.927 604.207 668.907 605.957 667.089C605.618 668.635 605.346 670.168 605.129 671.714C609.605 672.704 616.319 667.523 614.569 662.83C613.281 662.695 611.979 662.6 610.677 662.545C612.304 661.298 614.04 660.24 615.844 659.277Z" fill="#21A4D4"/>
<path d="M610.677 662.546C611.979 662.6 613.281 662.695 614.57 662.83C616.319 667.523 609.605 672.704 605.13 671.714C605.347 670.168 605.618 668.635 605.957 667.089C607.462 665.502 609.022 663.956 610.677 662.546Z" fill="#FEFEFE"/>
<path d="M823.834 663.59L825.217 665.584C823.088 668.337 819.575 667.51 816.496 667.754C797.02 667.713 777.516 667.808 758.039 667.55C755.924 667.374 753.536 667.632 752.112 665.733C758.08 664.363 764.183 663.712 770.3 663.725C784.731 663.658 799.176 663.739 813.607 663.346C816.984 663.332 820.497 663.047 823.834 663.59Z" fill="#21A4D4"/>
<path d="M492.204 664.214C500.328 664.783 507.313 666.614 515.288 665.326C519.56 665.014 525.257 664.092 529.041 666.492C529.502 667.333 529.936 668.174 530.302 669.056C520.496 669.571 510.609 668.69 500.789 669.096C494.469 669.463 489.003 671.145 482.628 669.829C483.7 668.039 485.083 666.737 486.751 665.516C488.555 665.041 490.386 664.634 492.204 664.214Z" fill="#08090D"/>
<path d="M794.321 673.966C796.572 676.095 798.349 678.821 800.75 680.774C804.547 681.629 808.793 681.073 812.604 680.544C809.864 681.046 807.097 681.358 804.371 681.9C805.673 683.066 807.07 684.084 808.413 685.182C800.139 684.68 792.503 685.752 784.379 686.918C785.925 681.52 788.733 676.041 794.321 673.966Z" fill="#21A4D4"/>
<path d="M477.026 676.977C491.2 677.79 505.672 676.068 519.723 677.953C516.088 679.418 513.633 680.177 509.605 680.001C503.257 680.015 497.303 681.751 490.901 680.869C485.463 680.055 480.092 679.54 474.626 680.394C468.115 681.493 462.148 681.479 455.637 680.259C451.799 679.513 448.544 680.72 444.773 681.127C441.979 679.35 442.563 679.879 442.481 677.017C453.983 676.936 465.498 677.085 477.026 676.977Z" fill="#08090D"/>
<path d="M821.949 681.914C817.866 685.63 813.513 685.155 808.413 685.182C807.07 684.084 805.673 683.066 804.371 681.9C807.097 681.357 809.864 681.045 812.604 680.544C816.374 680.055 818.911 678.699 821.949 681.914Z" fill="#08090D"/>
<path d="M674.003 685.06C680.201 685.318 686.182 683.799 692.353 684.016C692.259 685.738 692.299 687.474 692.489 689.238C688.122 689.346 683.795 688.804 679.441 688.736C669.703 689.387 659.802 689.794 650.064 689.075C650.037 687.773 650.064 686.471 650.145 685.182C658.093 685.02 666.041 685.291 674.003 685.06Z" fill="#08090D"/>
<path d="M722.816 684.938C737.587 686.037 752.872 684.016 767.534 686.335C771.82 686.728 776.106 686.566 780.392 687.176C776.567 688.017 772.891 687.963 768.985 688.071C753.143 688.478 737.302 687.895 721.46 688.003C715.221 688.017 709.43 689.848 703.15 689.36C703.096 688.058 703.082 686.756 703.109 685.453C709.592 683.69 716.252 683.69 722.816 684.938Z" fill="#08090D"/>
</g>
<defs>
<clipPath id="clip0_2_473">
<rect width="1330" height="730" fill="white"/>
</clipPath>
</defs>
</svg>
