<svg width="1330" height="730" viewBox="0 0 1330 730" fill="none" xmlns="http://www.w3.org/2000/svg">
<g clip-path="url(#clip0_2_229)">
<path d="M0 0H1330V730H0V0Z" fill="white"/>
<path d="M647.17 39.2511C660.44 40.3322 671.65 49.9594 676.374 62.1479C678.909 68.0555 678.613 73.976 678.459 80.244C686.889 80.4628 695.499 83.0498 702.643 87.5288C708.37 91.4929 709.155 97.3105 710.854 103.54C719.529 106.461 728.513 109.563 736.557 113.939C756.081 124.223 773.302 138.986 787.614 155.704C798.992 169 807.924 183.878 815.711 199.503C819.637 207.264 823.189 215.141 825.596 223.52C828.067 232.053 830.036 240.741 831.992 249.403C832.983 253.392 833.138 257.434 833.292 261.527C837.501 260.806 842.109 260.291 846.06 258.657C849.715 255.478 851.697 250.471 855.674 247.395C859.999 244.28 865.083 242.311 870.411 243.868C876.396 245.516 879.408 240.509 885.277 240.11C889.241 239.685 892.716 241.05 896.551 241.371C902.112 240.252 906.951 238.887 912.601 240.766C919.706 243.559 923.58 252.093 924.378 259.249C924.828 265.259 925.098 272.055 923.052 277.795C921.263 283.883 916.681 289.43 911.044 292.313C905.638 294.681 900.657 291.953 895.38 290.885C891.596 291.618 888.044 293.974 884.556 295.582C884.003 299.997 883.732 305.364 881.364 309.225C876.126 317.9 865.649 323.293 855.546 322.392C846.729 321.388 838.235 315.12 835.738 306.419C835.159 303.215 835.274 299.817 835.21 296.561C834.129 296.689 833.048 296.818 831.967 296.96C831.735 302.79 831.902 308.453 831.014 314.245C828.981 331.968 826.252 349.189 820.293 366.075C812.918 389.435 803.304 411.212 787.37 430.068C784.461 433.517 780.703 436.413 778.206 440.158C776.34 444.856 776.816 450.841 775.838 455.835C774.036 466.015 770.844 477.2 763.894 485.115C757.407 492.966 746.557 496.84 736.595 494.614C729.529 492.477 723.609 487.29 719.143 481.563C715.565 476.955 713.853 471.781 711.163 466.723C709.464 465.874 707.057 467.096 705.307 467.495C696.889 470.443 688.15 471.974 679.308 472.914C673.864 473.351 668.844 472.245 663.477 471.717C660.466 482.309 657.801 492.979 654.918 503.597C654.262 506.596 652.82 512.131 655.42 514.473C659.23 517.485 665.549 517.704 670.209 518.128C675.074 515.335 677.751 508.437 683.852 506.262C688.112 504.46 692.205 506.583 695.873 508.707C703.492 513.456 711.871 516.352 720.443 519.531C722.875 520.612 725.308 521.655 727.663 522.878C733.107 528.669 733.764 535.748 734.15 543.329C734.369 552.763 734.51 561.85 732.696 571.13C729.761 586.484 724.883 601.376 714.599 613.461C706.581 622.419 697.752 630.09 685.962 633.501C681.084 633.732 677.455 634.028 673.774 637.465C670.814 634.659 667.931 632.291 664.34 630.296C658.445 626.988 655.446 620.669 654.326 614.246C653.155 604.323 656.205 594.734 659.539 585.532C661.971 579.444 664.494 573.575 665.073 566.959C660.273 565.389 654.815 565.158 651.804 560.576C651.289 557.512 651.765 554.192 651.907 551.103C641.353 547.924 629.563 545.453 620.58 538.953C615.663 535.517 611.544 530.368 611.313 524.139C610.991 518.553 611.197 512.774 612.355 507.278C616.242 491.177 623.591 475.797 629.036 460.545C614.646 451.433 600.476 443.028 587.682 431.573C575.584 421.29 565.262 408.831 556.883 395.355C550.756 385.754 546.265 374.84 541.49 364.492C535.054 351.003 533.69 334.889 530.266 320.101C524.642 320.191 519.108 320.989 513.509 321.311C513.612 327.772 515.311 335.443 511.604 341.08C505.194 352.406 487.613 354.311 478.81 344.825C474.987 340.681 474.549 335.314 473.468 330.024C475.579 329.535 477.69 329.085 479.788 328.518C483.636 327.321 487.124 326.176 489.338 322.546C493.456 314.94 494.241 306.123 492.761 297.667C492.543 293.639 493.495 289.997 494.962 286.29C501.681 291.013 509.287 289.25 517.113 289.52C520.214 289.199 525.144 289.958 527.422 287.487C528.825 276.122 529.597 264.448 531.051 253.058C533.947 233.301 540.704 213.751 548.903 195.603C557.359 176.838 569.316 159.965 583.538 145.138C600.244 128.547 619.357 116.205 641.263 107.568C639.448 101.97 639.589 98.8549 642.82 93.8225C647.466 85.7398 656.437 84.62 664.288 80.7846C662.113 70.4237 650.427 64.8894 640.658 66.8071C633.476 68.6862 626.963 74.0146 621.867 79.2401C606.705 94.7878 594.027 113.386 576.729 128.046C569.097 134.017 560.088 138.612 550.602 140.71C544.681 141.688 538.426 141.675 532.48 140.89C521.707 138.883 511.746 132.949 504.976 124.326C496.03 113 489.943 98.4431 490.277 83.8607C490.316 73.4097 490.869 62.238 494.293 52.3019C495.683 52.2761 497.06 52.2633 498.45 52.2375C501.011 61.0282 500.497 69.9218 507.164 77.065C513.2 82.9082 521.695 86.5635 529.855 88.2238C540.396 89.4079 551.027 89.5109 560.86 85.0705C583.268 75.5462 597.348 52.9712 620.181 42.6618C628.894 38.6848 637.8 38.7234 647.17 39.2511Z" fill="#070408"/>
<path d="M652.538 47.5525C665.498 52.0315 675.756 65.1596 672.436 79.3044C669.887 75.1085 667.789 70.089 664.43 66.5238C656.862 58.9945 645.394 56.5877 635.265 59.548C627.401 62.3538 620.412 68.7119 614.685 74.6323C602.677 87.297 592.972 101.442 580.372 113.695C572.135 121.829 563.254 128.715 551.902 131.829C540.486 134.905 527.615 134.133 517.898 126.861C502.826 115.175 494.37 95.6629 497.472 76.6402C501.964 80.5271 506.031 85.4565 511.038 88.597C519.507 93.5779 529.07 96.5381 538.954 96.4094C556.008 97.1817 571.89 88.5841 584.825 78.2361C597.014 68.8792 605.225 57.9134 618.224 51.1177C628.444 45.3774 641.379 44.0389 652.538 47.5525Z" fill="#9E6732"/>
<path d="M668.934 88.4426C678.098 87.6962 689.785 87.0912 697.816 92.2781C701.24 94.5433 701.381 97.9025 702.141 101.584C689.991 101.725 678.6 100.219 666.334 101.854C659.796 102.652 653.644 104.415 646.977 104.029C647.646 100.76 648.521 97.8253 650.967 95.4443C655.279 90.8752 662.988 89.4723 668.934 88.4426Z" fill="#FCFCFC"/>
<path d="M483.585 104.595C482.169 108.894 478.539 112.871 478.037 117.299C478.745 122.64 480.315 128.457 483.572 132.833C486.249 136.296 490.277 136.501 494.177 137.866C492.401 138.986 490.599 140.504 488.565 141.083C484.563 140.633 480.985 138.291 479.003 134.764C475.553 129.011 473.069 121.469 474.266 114.75C475.978 110.13 477.96 105.097 483.585 104.595Z" fill="#020202"/>
<path d="M681.599 107.839C691.445 108.83 700.789 109.151 710.403 111.623C720.134 113.926 729.336 117.916 737.934 123.013C754.215 132.756 768.849 145.163 781.102 159.656C789.069 168.601 794.732 178.576 801.09 188.628C803.728 192.798 805.929 197.135 807.834 201.678C792.299 201.743 776.533 197.122 762.143 191.549C745.18 185.075 730.61 175.01 716.659 163.581C703.415 152.912 691.496 139.166 684.739 123.438C683.324 120.516 681.753 116.9 679.166 114.853C677.313 113.708 675.666 112.305 673.593 113.875C670.389 118.251 668.69 123.579 665.511 128.02C657.93 139.05 649.628 149.823 640.04 159.205C625.818 173.067 609.961 185.706 592.599 195.436C583.177 200.803 573.344 204.574 563.472 208.976C559.186 210.894 554.785 212.335 550.229 213.468C552.018 206.389 555.029 199.851 558.35 193.39C569.187 171.368 585.314 151.74 604.646 136.643C614.903 128.47 627.156 122.357 638.997 116.771C644.866 113.965 650.98 112.022 657.338 110.709C665.588 109.048 673.104 107.015 681.599 107.839Z" fill="#9F662F"/>
<path d="M468.307 122.794C466.466 126.99 463.506 129.783 464.857 134.712C466.042 138.483 470.598 141.289 473.249 144.134C470.34 143.67 467.766 143.979 465.488 141.817C459.722 137.171 459.426 128.831 463.493 122.974C465.102 122.884 466.698 122.82 468.307 122.794Z" fill="#010101"/>
<path d="M676.889 125.381C681.187 131.701 684.482 138.587 689.116 144.726C698.202 157.352 709.413 166.49 720.983 176.542C718.036 177.546 714.741 178.292 712.064 179.914C710.455 181.407 709.709 183.943 708.705 185.873C713.814 184.29 718.422 182.643 723.892 183.544C734.227 185.732 741.641 195.706 741.692 206.132C741.847 211.717 738.912 217.548 737.483 222.979C741.255 220.186 744.64 217.522 745.515 212.593C746.493 205.72 745.785 198.551 744.369 191.794C752.053 194.677 759.248 198.474 767.073 200.996C774.718 203.493 782.505 205.707 790.395 207.277C796.946 208.59 803.819 208.757 810.28 210.469C812.867 210.997 813.896 213.609 814.926 215.733C817.655 222.349 819.212 229.492 821.246 236.339C823.858 245.271 826.226 254.113 825.313 263.522C823.627 265.298 820.55 265.787 818.26 266.263C812.995 267.177 807.718 267.833 802.493 268.966C803.394 270.588 804.295 272.184 805.376 273.677C817.899 274.243 831.117 270.009 843.409 267.705C843.473 272.699 844.052 277.86 843.422 282.815C840.371 287.912 830.963 288.311 825.686 289.366C817.166 290.653 807.86 290.55 800.241 294.231C801.103 295.595 801.965 296.96 802.841 298.324C809.855 298.247 816.869 298.002 823.871 297.577C824.605 312.121 821.76 325.52 819.199 339.754C814.514 364.389 805.878 388.611 793.136 410.234C788.992 417.39 783.998 423.722 778.258 429.656C778.116 428.304 777.987 426.953 777.872 425.589C777.138 415.344 774.255 405.086 770.574 395.51C767.768 388.405 761.938 382.652 754.46 380.696C747.922 378.907 739.865 378.289 733.712 381.61C726.247 385.407 718.821 391.173 714.767 398.638C709.516 408.188 707.302 419.218 707.057 430.042C706.723 439.939 708.692 449.657 708.602 459.58C700.545 460.97 693.916 464.072 685.769 464.445C678.472 464.78 671.032 464.818 663.799 463.763C645.265 460.352 629.087 452.038 613.604 441.6C595.508 430.183 579.934 415.138 567.424 397.801C560.757 388.804 556.072 378.881 551.606 368.675C543.896 353.475 539.263 336.485 537.757 319.535C544.501 317.488 551.207 315.416 557.732 312.752C557.617 311.272 557.501 309.779 557.385 308.286C553.472 308.183 549.662 308.273 545.904 309.496C531.489 314.013 515.838 314.747 500.896 313.022C500.896 307.617 500.896 302.198 500.883 296.792C508.695 296.908 516.431 297.114 524.191 296.02C532.583 295.145 540.383 294.244 547.153 288.697C546.072 287.667 544.978 286.65 543.871 285.633C542.288 285.466 540.705 285.389 539.096 285.389C540.833 285.35 542.815 285.016 544.488 285.531C546.213 286.869 547.32 289.109 548.646 290.833C548.208 288.954 547.783 287.075 547.384 285.196C544.514 283.587 541.644 281.991 538.761 280.434C538.915 273.136 539.572 265.864 539.868 258.579C538.375 263.316 537.152 268.117 536.457 273.033C538.002 255.529 540.743 238.257 546.561 221.602C585.649 210.392 621.558 189.271 649.242 159.36C659.784 148.986 667.789 136.913 676.889 125.381Z" fill="#4EBFE7"/>
<path d="M648.329 181.78C640.683 183.84 633.746 183.196 628.482 190.12C622.24 197.328 624.402 204.651 624.659 213.288C622.999 211.885 621.146 210.495 619.82 208.783C617.22 199.954 620.309 190.893 627.143 184.921C632.742 179.927 641.687 177.095 648.329 181.78Z" fill="#000E20"/>
<path d="M650.375 202.759C652.872 200.546 658.87 201.009 660.62 204.24C665.794 211.962 664.855 221.757 660.157 229.44C657.57 233.752 649.114 234.177 647.299 228.925C643.631 220.212 643.425 209.928 650.375 202.759Z" fill="#04050B"/>
<path d="M700.146 202.103C706.53 199.464 711.755 203.931 713.235 209.98C714.111 216.479 712.875 223.983 709.04 229.414C705.899 234.395 696.439 233.842 694.419 228.14C692.823 223.661 692.565 218.603 693.029 213.892C693.672 209.04 695.59 204.432 700.146 202.103Z" fill="#04040A"/>
<path d="M890.953 245.696C893.18 246.815 894.415 248.823 895.265 251.101C899.409 262.132 896.899 276.019 889.589 285.196C886.075 289.52 881.017 287.911 876.165 287.873C878.494 281.116 881.403 275.066 881.763 267.769C881.944 261.913 880.451 255.799 879.254 250.085C882.536 248.115 886.924 244.743 890.953 245.696Z" fill="#58BCE0"/>
<path d="M910.297 246.636C916.05 251.256 917.003 258.374 916.707 265.337C916.308 272.3 916.617 280.64 910.014 284.9C906.294 287.783 902.652 286.625 898.405 286.148C901.005 278.761 904.081 272.132 904.081 264.101C904.338 258.116 902.819 252.517 902.317 246.623C904.879 246.146 908.032 244.628 910.297 246.636Z" fill="#5DBCE0"/>
<path d="M671.933 246.159C678.446 244.782 686.412 246.648 692.178 249.853C700.248 254.577 702.977 265.182 698.936 273.445C694.328 282.133 683.62 286.959 674.082 286.702C663.709 287.126 654.841 276.65 655.394 266.623C655.227 256.739 662.1 247.897 671.933 246.159Z" fill="#100311"/>
<path d="M865.198 249.454C868.171 248.707 870.437 250.458 871.775 252.968C874.375 258.142 874.632 264.757 874.336 270.433C873.822 278.645 868.429 287.744 860.269 290.28C857.09 291.078 855.635 288.581 854.026 286.328C849.599 279.185 850.281 269.584 853.718 262.17C855.893 257.189 859.805 251.256 865.198 249.454Z" fill="#54BEE2"/>
<path d="M728.011 249.235C729.504 250.818 730.932 252.453 732.348 254.1C729.915 254.834 727.483 255.529 725.025 256.185C724.935 254.989 724.857 253.792 724.793 252.595C725.81 251.423 726.904 250.316 728.011 249.235Z" fill="#002342"/>
<path d="M622.639 252.749C624.93 252.723 627.208 252.852 629.486 252.993C628.07 255.477 627.079 256.765 624.389 257.897C623.758 256.147 623.063 254.538 622.639 252.749Z" fill="#001632"/>
<path d="M673.168 252.466C679.359 250.497 686.515 252.865 690.878 257.537C693.594 260.227 693.221 265.272 692.732 268.76C691.239 275.53 683.825 279.16 677.66 280.601C672.049 282.364 664.97 278.761 663.361 273.033C662.627 269.404 662.653 265.144 663.516 261.54C664.867 256.906 668.741 253.946 673.168 252.466Z" fill="#D91C82"/>
<path d="M539.868 258.579C539.572 265.864 538.916 273.136 538.761 280.434C541.644 281.991 544.514 283.587 547.384 285.196C547.783 287.075 548.208 288.954 548.646 290.833C547.32 289.108 546.213 286.869 544.489 285.53C542.815 285.016 540.833 285.35 539.096 285.389C537.847 285.466 536.612 285.543 535.363 285.633C535.646 281.412 535.878 277.229 536.457 273.033C537.152 268.116 538.375 263.316 539.868 258.579Z" fill="#73ACC5"/>
<path d="M738.628 263.226C740.121 263.457 741.601 263.805 743.043 264.217C743.069 265.684 743.069 267.138 743.056 268.605C741.112 268.541 739.182 268.477 737.238 268.464C737.612 266.726 737.959 264.886 738.628 263.226Z" fill="#001D3D"/>
<path d="M636.243 264.178C637.26 265.504 638.122 266.958 639.036 268.348C637.955 269.172 636.886 270.008 635.818 270.845C635.587 269.481 635.329 268.129 635.046 266.765C632.626 266.482 631.404 265.774 629.512 267.769C630.786 269.481 632.214 271.064 633.669 272.608C634.132 276.019 634.583 279.597 634.119 283.008C632.099 285.968 626.384 284.707 623.282 285.016C623.951 278.336 626.255 272.248 628.829 266.109C629.718 263.329 634.029 263.226 636.243 264.178Z" fill="#64B8DC"/>
<path d="M618.585 266.186C618.546 268.116 618.546 270.047 618.585 271.978C615.804 271.038 613.05 270.06 610.334 268.953C612.986 267.627 615.624 266.598 618.585 266.186Z" fill="#114763"/>
<path d="M635.046 266.765C635.329 268.129 635.587 269.481 635.818 270.845L633.669 272.608C632.215 271.064 630.786 269.481 629.512 267.769C631.404 265.774 632.626 266.482 635.046 266.765Z" fill="#124667"/>
<path d="M722.849 270.395C722.116 272.209 721.318 273.998 720.545 275.787C718.769 274.384 717.006 272.956 715.281 271.501C718.113 270.124 719.734 269.391 722.849 270.395Z" fill="#001B39"/>
<path d="M733.39 274.668C735.347 275.376 737.136 276.302 738.989 277.216C737.2 279.057 735.372 280.833 733.48 282.545C732.901 279.649 731.627 277.409 733.39 274.668Z" fill="#001034"/>
<path d="M631.224 278.155C631.288 279.34 631.327 280.537 631.365 281.734C629.859 282.21 628.366 282.673 626.861 283.136C626.075 282.184 625.29 281.206 624.518 280.228C627.195 277.28 627.35 277.01 631.224 278.155Z" fill="#002143"/>
<path d="M444.998 280.022C449.284 279.88 452.515 281.965 456.479 282.776C459.143 282.184 461.666 281.026 464.356 280.472C471.383 279.378 476.12 284.578 483.031 281.875C488.192 280.125 491.049 283.716 494.962 286.29C493.495 289.996 492.542 293.639 492.761 297.667C491.86 294.617 490.741 291.67 489.389 288.8C486.57 288.915 484.151 288.439 482.13 290.859C475.952 297.68 474.305 307.758 475.116 316.652C475.437 321.092 477.728 324.696 479.788 328.518C477.69 329.085 475.579 329.535 473.468 330.024C469.967 330.771 466.557 332.585 462.991 332.881C458.731 333.203 454.78 329.123 450.983 328.145C446.376 327.785 440.712 328.994 436.684 326.407C432.089 323.898 429.206 319.56 427.739 314.618C425.19 306.252 424.985 296.638 430.261 289.237C433.634 284.642 438.936 279.854 444.998 280.022Z" fill="#03070E"/>
<path d="M451.614 286.483C449.838 293.549 446.131 300.641 445.99 307.861C446.196 312.919 447.302 317.874 447.354 322.958C440.584 323.113 436.864 319.2 434.599 313.228C432.347 304.463 433.878 294.514 441.086 288.426C443.969 285.608 447.946 286.625 451.614 286.483Z" fill="#5EBDDE"/>
<path d="M474.343 287.77C471.254 295.312 467.985 302.044 467.625 310.384C467.355 314.708 468.114 319.329 467.239 323.563C465.81 325.314 464.188 326.678 461.794 326.575C455.398 323.061 453.287 315.982 453.441 309.071C453.609 301.902 456.26 293.446 461.872 288.671C465.9 285.543 469.826 286.895 474.343 287.77Z" fill="#57BDE0"/>
<path d="M489.389 288.8C490.74 291.67 491.86 294.617 492.761 297.667C494.241 306.123 493.456 314.94 489.338 322.546C487.124 326.176 483.636 327.321 479.787 328.518C477.728 324.696 475.437 321.092 475.115 316.652C474.305 307.758 475.952 297.68 482.13 290.859C484.151 288.439 486.57 288.915 489.389 288.8Z" fill="#54BEE1"/>
<path d="M846.639 289.392C850.165 291.258 853.538 294.463 857.347 295.621C863.268 296.766 867.785 294.089 873.23 292.403C875.508 296.663 877.194 300.602 874.774 305.274C870.617 313.588 857.618 319.38 849.355 313.859C841.413 308.595 839.727 296.277 846.639 289.392Z" fill="#56BDE2"/>
<path d="M825.686 289.366L827.977 289.302C826.613 292.056 825.197 294.81 823.871 297.577C816.87 298.002 809.855 298.247 802.841 298.324C801.965 296.96 801.103 295.595 800.241 294.231C807.86 290.55 817.166 290.653 825.686 289.366Z" fill="#020716"/>
<path d="M719.529 305.519C720.069 312.726 720.043 319.921 719.001 327.09C717.701 340.295 716.092 353.462 714.445 366.641C713.171 375.663 710.815 384.132 704.547 391.031C698.755 397.904 689.373 401.533 680.492 400.864C670.427 399.564 660.736 394.738 654.03 387.054C646.424 378.817 643.064 366.68 641.044 355.894C638.598 341.415 636.307 326.858 634.544 312.288C635.792 311.851 637.041 311.426 638.302 311.014C642.974 315.609 644.519 322.92 648.714 328.068C657.595 340.295 673.349 345.212 687.738 340.81C696.246 338.081 703.479 331.376 708.241 323.975C711.279 319.277 711.948 314.09 714.084 309.097C714.831 306.947 717.675 306.51 719.529 305.519Z" fill="#030204"/>
<path d="M499.995 318.479C506.327 322.405 508 330.603 505.156 337.18C502.041 342.946 495.117 345.392 488.861 344.182C485.206 343.229 483.327 338.879 481.396 335.996C485.065 334.078 489.415 332.341 492.478 329.522C495.58 326.549 497.523 322.018 499.995 318.479Z" fill="#5DBCDD"/>
<path d="M884.878 331.646C883.874 343.049 872.47 348.571 862.123 347.863C855.558 347.001 849.574 343.757 844.837 339.188C843.048 337.657 843.486 335.597 843.022 333.448C848.119 333.757 850.526 337.258 854.593 339.677C859.149 342.663 865.006 342.535 870.167 341.672C876.653 340.153 879.755 335.34 884.878 331.646Z" fill="#010101"/>
<path d="M511.308 359.382C509.622 362.96 507.897 366.319 504.975 369.061C499.415 374.698 489.955 375.959 482.876 372.832C478.282 370.464 477.265 366.757 477.715 361.853C481.396 364.44 484.833 367.993 489.132 369.292C492.967 370.76 496.751 369.794 500.329 368.147C504.512 365.869 507.047 361.686 511.308 359.382Z" fill="#020202"/>
<path d="M754.459 380.696C761.937 382.652 767.768 388.405 770.573 395.51C774.254 405.086 777.137 415.344 777.871 425.589C775.606 427.828 772.581 429.218 772.491 432.732C771.976 437.52 771.5 442.23 770.174 446.877C772.157 430.389 769.827 412.937 763.198 397.659C761.332 393.245 759.569 388.74 754.524 387.247C749.26 386.205 743.571 386.501 738.281 387.299C729.091 389.873 721.716 399.281 718.653 408.02C714.38 421.457 713.299 436.645 715.397 450.596C715.757 453.325 716.053 456.079 716.362 458.821C713.762 459.027 711.188 459.22 708.601 459.58C708.691 449.657 706.722 439.939 707.057 430.042C707.301 419.218 709.515 408.188 714.766 398.638C718.821 391.173 726.247 385.407 733.712 381.61C739.864 378.289 747.921 378.907 754.459 380.696Z" fill="#0A0311"/>
<path d="M754.524 387.247C759.569 388.74 761.332 393.245 763.199 397.659C769.827 412.937 772.157 430.389 770.175 446.877C767.974 457.044 766.146 468.898 760.496 477.817C756.519 483.712 749.839 489.35 742.31 488.861C735.205 489.041 729.915 483.944 725.797 478.77C719.387 470.752 717.405 460.404 715.397 450.596C713.299 436.644 714.38 421.457 718.654 408.02C720.43 405.549 722.36 403.168 724.278 400.813C728.358 401.482 732.374 401.778 736.466 401.096C742.632 400.105 748.745 400.375 754.82 398.882C754.46 397.144 754.099 395.394 753.726 393.644C749.015 393.463 744.318 393.335 739.62 393.695C740.907 391.584 742.194 389.474 743.468 387.35C741.743 387.311 740.019 387.286 738.281 387.298C743.571 386.5 749.26 386.204 754.524 387.247Z" fill="#E165BB"/>
<path d="M738.282 387.299C740.019 387.286 741.744 387.311 743.468 387.35C742.194 389.474 740.907 391.584 739.62 393.695C735.489 394.442 731.46 395.574 727.47 396.848C727.354 398.239 727.239 399.616 727.123 401.006C736.351 399.255 745.386 397.852 754.82 398.882C748.745 400.375 742.632 400.105 736.467 401.096C732.374 401.778 728.358 401.482 724.278 400.813C722.361 403.168 720.43 405.549 718.654 408.02C721.717 399.281 729.092 389.873 738.282 387.299Z" fill="#CD77B2"/>
<path d="M739.62 393.695C744.318 393.335 749.015 393.463 753.726 393.644C754.099 395.394 754.46 397.144 754.82 398.882C745.386 397.852 736.351 399.255 727.123 401.006C727.238 399.616 727.354 398.238 727.47 396.848C731.46 395.574 735.488 394.442 739.62 393.695Z" fill="#270016"/>
<path d="M756.145 403.232C756.184 404.571 756.236 405.909 756.274 407.248C752.078 407.969 747.857 408.471 743.597 408.689C737.625 408.96 731.807 410.247 725.861 410.71C726.002 409.307 726.144 407.904 726.286 406.501C736.222 405.047 746.068 403.387 756.145 403.232Z" fill="#2D0022"/>
<path d="M756.197 413.567C756.184 414.854 756.171 416.129 756.158 417.416C745.411 418.497 734.433 420.672 723.634 420.093C725.102 417.776 726.067 415.948 728.963 415.408C737.599 413.426 747.393 412.666 756.197 413.567Z" fill="#270017"/>
<path d="M757.664 426.734C760.213 426.58 760.599 428.832 762.04 430.467C754.215 432.165 746.338 431.844 738.448 432.886C733.429 433.427 728.474 434.405 723.454 435.01C723.506 433.543 723.557 432.075 723.609 430.608C734.69 427.532 746.171 426.129 757.664 426.734Z" fill="#2A001B"/>
<path d="M751.332 452.269C754.344 452.128 756.841 453.273 759.505 454.47C755.528 456.44 751.834 457.431 747.407 457.714C739.736 458.229 732.271 459.837 724.69 460.983C724.652 459.631 724.613 458.293 724.562 456.942C733.069 453.608 742.259 452.54 751.332 452.269Z" fill="#260020"/>
<path d="M751.113 462.579C753.404 462.618 755.052 463.879 757.06 464.87C748.9 468.126 739.568 468.77 730.868 469.207C730.211 467.779 730.121 466.144 729.671 464.638C736.711 463.699 744.009 462.399 751.113 462.579Z" fill="#2A001D"/>
<path d="M636.14 464.02C642.974 465.089 649.628 467.997 656.141 470.25C652.923 483.918 647.801 496.995 645.407 510.908C644.982 514.525 644.738 518.167 647.775 520.767C652.692 524.808 659.59 526.687 665.833 527.215C671.496 527.653 677.197 526.546 682.822 527.048C684.945 527.189 686.323 528.554 686.516 530.664C686.76 535.838 684.225 541.514 678.767 542.763C672.165 544.294 664.764 543.381 658.123 542.415C649.744 540.935 641.044 539.095 633.566 534.925C629.782 532.827 625.985 531.115 621.673 530.523C620.142 528.167 619.125 525.735 619.035 522.89C618.095 509.853 623.063 495.875 627.633 483.79C630.413 477.251 632.42 470.069 636.14 464.02Z" fill="#4FBFE6"/>
<path d="M753.057 476.337C748.912 477.83 743.108 480.636 738.745 479.246C736.853 478.693 736.801 476.016 738.989 475.514C743.803 472.849 748.295 474.677 753.057 476.337Z" fill="#2A0021"/>
<path d="M732.206 502.581C734.922 502.709 735.874 505.078 737.663 506.789C740.74 510.972 746.609 511.41 751.371 511.539C758.012 511.152 761.564 505.206 766.931 501.898C765.361 509.402 758.707 515.348 751.268 516.7C746.544 517.099 741.538 515.593 737.252 513.701C733.378 512.015 730.263 506.635 732.206 502.581Z" fill="black"/>
<path d="M645.407 510.908C647.698 515.078 649.41 518.965 653.824 521.32C663.13 525.966 672.088 524.718 681.959 523.392C685.782 522.466 687.79 525.323 688.858 528.528C689.785 533.354 689.553 538.541 685.833 542.183C681.934 546.186 676.888 546.714 671.56 546.559C657.711 545.993 643.824 542.698 631.043 537.331C627.336 535.774 624.209 533.676 621.673 530.523C625.985 531.115 629.782 532.826 633.566 534.924C641.044 539.094 649.744 540.935 658.123 542.415C664.764 543.38 672.165 544.294 678.767 542.763C684.225 541.514 686.76 535.838 686.516 530.664C686.322 528.553 684.945 527.189 682.822 527.047C677.197 526.546 671.496 527.652 665.832 527.215C659.59 526.687 652.692 524.808 647.775 520.767C644.737 518.167 644.982 514.524 645.407 510.908Z" fill="#77B4CE"/>
<path d="M684.611 512.877C690.261 511.809 695.075 515.001 697.675 519.84C700.081 524.486 703.016 529.326 704.226 534.448C705.243 541.746 704.972 549.237 702.269 556.174C698.022 567.371 692.475 578.53 689.193 590.088C687.468 596.845 686.593 605.996 690.48 612.174C692.385 612.47 694.225 612.406 696.156 612.393C696.503 605.391 697.739 598.763 701.523 592.739C705.796 584.901 713.377 580.422 717.56 572.648C722.026 564.849 723.519 556.122 723.493 547.216C723.596 541.527 722.94 535.658 723.995 530.188C727.47 539.3 727.972 549.185 727.11 558.812C725.334 572.417 722.592 585.866 716.157 598.106C709.374 610.707 698.164 621.763 684.765 627.052C678.266 628.7 670.067 628.404 665.575 622.676C661.894 618.403 661.83 613.564 661.984 608.223C666.322 608.081 671.045 608.686 675.254 607.579C678.124 606.91 681.342 604.258 681.368 601.105C682.384 596.806 676.747 593.859 674.134 591.169C678.086 589.856 682.191 589.509 684.135 585.261C686.735 581.233 682.861 578.517 680.801 575.351C682.835 573.948 684.855 572.52 686.825 571.039C686.323 567.616 686.361 564.643 683.272 562.416C674.945 557.512 666.824 560.975 658.651 558.207C659.681 556.264 659.912 552.725 662.86 553.214C671.47 552.699 681.187 554.037 688.781 549.018C695.358 544.397 700.094 534.345 696.117 526.661C693.762 520.908 689 518.901 685.023 514.718L684.611 512.877Z" fill="#FBFBFB"/>
<path d="M731.987 517.806C738.178 520.329 740.868 528.309 741.885 534.371C744.871 552.338 742.142 569.019 738.796 586.651C735.668 601.182 728.216 613.937 718.344 624.903C712.231 631.789 704.058 639.524 694.675 641.184C687.558 642.381 679.758 641.892 673.773 637.465C677.454 634.028 681.084 633.732 685.962 633.501C683.928 634.286 681.921 635.148 679.926 636.023C687.79 637.194 695.152 637.774 702.05 633.089C712.823 625.727 721.421 614.735 727.779 603.448C733.763 592.688 734.973 581.439 736.724 569.495C738.384 559.353 738.526 548.966 737.65 538.734C736.994 533.766 735.823 527.434 732.193 523.714C730.816 522.311 729.426 522.53 727.663 522.878C725.307 521.655 722.875 520.612 720.442 519.531C724.098 517.24 727.817 515.966 731.987 517.806Z" fill="#240B20"/>
<path d="M732.193 523.714C735.823 527.434 736.994 533.766 737.651 538.734C738.526 548.966 738.384 559.353 736.724 569.495C734.973 581.439 733.764 592.688 727.779 603.448C721.421 614.735 712.823 625.727 702.05 633.089C695.152 637.774 687.79 637.195 679.926 636.023C681.921 635.148 683.929 634.286 685.962 633.501C697.752 630.09 706.581 622.419 714.599 613.461C724.883 601.376 729.761 586.484 732.695 571.13C734.51 561.85 734.369 552.763 734.15 543.329C733.764 535.748 733.107 528.669 727.663 522.878C729.426 522.53 730.816 522.311 732.193 523.714Z" fill="#CA79AF"/>
<path d="M708.293 522.968C710.532 523.071 712.772 523.174 715.011 523.277C717.186 536.559 718.602 549.494 715.256 562.777C712.617 572.417 706.221 579.508 698.55 585.57C700.365 578.26 703.582 571.078 706.311 564.025C708.846 557.474 712.193 550.485 712.193 543.381C712.411 536.456 710.095 529.596 708.293 522.968Z" fill="#D075B6"/>
<path d="M673.31 564.964C675.318 565.801 677.236 566.792 679.166 567.796C677.107 568.272 675.035 568.735 672.976 569.186C673.053 567.783 673.169 566.367 673.31 564.964Z" fill="#6C5C63"/>
<path d="M669.616 579.701C673.722 579.251 675.627 580.77 678.484 583.395C675.086 584.875 672.783 585.455 669.14 584.361C669.217 582.79 669.385 581.246 669.616 579.701Z" fill="#C28CAA"/>
<path d="M665.588 589.895C667.184 588.222 669.861 589.805 668.638 591.954C667.042 593.614 664.352 592.07 665.588 589.895Z" fill="#6D7473"/>
<path d="M672.011 596.626C673.105 598.377 674.199 600.127 675.293 601.89C671.084 602.65 666.901 603.049 662.628 603.165C662.937 601.118 663.22 599.059 663.593 597.038C666.399 596.794 669.205 596.716 672.011 596.626Z" fill="#C483AD"/>
<path d="M648.856 632.947C648.625 634.26 648.161 635.547 647.466 636.77C628.945 636.654 610.412 636.963 591.878 636.976C589.484 636.937 587.09 636.77 584.696 636.448L587.425 633.784C607.928 633.179 628.328 632.612 648.856 632.947Z" fill="#040404"/>
<path d="M787.923 639.871C786.765 640.489 785.594 641.081 784.41 641.635C774.435 643.256 764.01 642.896 753.906 642.986C747.291 642.909 740.315 643.295 733.841 642.175C733.905 641.133 733.982 640.09 734.06 639.048C746.209 639.099 758.398 639.357 770.548 639.035C776.854 638.983 781.951 636.718 787.923 639.871Z" fill="black"/>
<path d="M537.152 644.569C544.836 643.926 551.979 645.535 559.598 645.586C567.346 645.728 574.979 646.049 582.675 647.105C582.495 648.083 582.315 649.061 582.135 650.039C567.012 649.885 551.979 648.945 536.895 647.98C536.933 646.835 537.01 645.702 537.152 644.569Z" fill="#030303"/>
<path d="M785.053 648.173C792.904 646.937 801.27 647.259 809.25 647.156C816.535 647.311 823.189 646.474 830.255 648.842C829.173 649.602 828.067 650.322 826.947 651.005C814.643 651.339 802.158 650.49 789.867 651.545C787.241 651.841 784.718 651.442 782.131 651.03C783.032 649.524 782.981 648.276 785.053 648.173Z" fill="black"/>
<path d="M597.245 648.829C599.227 648.521 601.222 648.43 603.23 648.418C627.748 648.443 652.267 648.469 676.786 648.392C678.755 648.418 680.724 648.508 682.655 648.932C682.59 649.975 682.449 651.005 682.243 652.008C657.724 652.446 632.987 652.047 608.443 652.189C604.903 652.176 601.312 652.343 597.786 651.996C597.554 650.953 597.374 649.898 597.245 648.829Z" fill="black"/>
<path d="M707.778 650.786C723.016 650.49 738.307 650.593 753.558 650.76C753.443 652.008 753.314 653.27 753.185 654.531C737.727 654.505 722.244 654.776 706.799 654.467C707.031 653.489 705.963 650.245 707.778 650.786Z" fill="#0E0E0E"/>
<path d="M775.786 661.983C783.213 661.25 790.742 661.121 798.207 661.198C798.194 662.408 798.181 663.618 798.168 664.815C781.321 665.317 764.64 666.771 747.741 666.501C747.947 665.252 748.153 664.017 748.372 662.768C757.51 662.588 766.661 662.511 775.786 661.983Z" fill="#060606"/>
<path d="M721.755 662.292C726.157 662.369 729.992 661.571 733.802 664.377C729.014 666.874 724.304 666.076 719.155 666.166C699.991 666.012 680.801 666.398 661.649 665.973C661.855 664.815 662.061 663.644 662.28 662.485C682.075 662.061 701.934 662.46 721.755 662.292Z" fill="black"/>
<path d="M609.755 663.862C613.887 663.862 617.928 664.184 622.008 664.789C622.034 665.806 622.059 666.823 622.085 667.839C608.558 667.736 594.967 667.363 581.44 667.865C575.597 668.444 569.805 668.818 563.923 668.946C563.485 667.917 563.048 666.887 562.597 665.844C577.952 663.502 594.246 663.785 609.755 663.862Z" fill="#010101"/>
<path d="M830.512 670.233L830.821 674.056C820.293 674.712 809.314 675.948 798.786 674.944C799.507 673.927 800.215 672.898 800.91 671.881C806.161 671.018 811.644 671.43 816.947 670.967C821.477 670.542 825.956 670.285 830.512 670.233Z" fill="#141414"/>
<path d="M659.95 673.438C665.523 672.898 671.071 672.795 676.657 672.717C679.565 672.537 681.444 673.142 683.954 674.597C678.613 677.557 673.516 676.514 667.66 676.81C659.32 676.643 650.632 678.29 642.408 677.557C641.365 677.287 640.67 676.231 640.323 674.416C646.758 673.412 653.438 674.043 659.95 673.438Z" fill="black"/>
<path d="M774.1 674.082C773.971 675.021 773.83 675.948 773.675 676.862C768.9 677.969 763.997 677.66 759.029 677.75C745.051 677.788 731.074 678.059 717.096 678.097C717.135 677.003 717.173 675.909 717.212 674.815C724.613 673.811 732.271 674.378 739.748 674.146C751.178 674.12 762.697 673.464 774.1 674.082Z" fill="black"/>
<path d="M570.127 675.562C579.02 674.879 587.991 674.841 596.911 675.073C600.514 675.24 604.543 675.15 608.005 676.167L608.069 679.217C600.025 679.371 592.02 678.432 583.963 678.779C577.412 678.754 570.487 680.028 564.116 678.831C566.073 677.325 567.501 675.665 570.127 675.562Z" fill="#010101"/>
<path d="M764.151 684.558C780.896 684.275 797.641 684.262 814.385 684.378C817.397 684.275 819.92 685.022 822.687 686.141C819.366 689.115 815.878 688.239 811.824 688.342C794.037 688.046 776.25 688.278 758.475 688.522C755.721 688.587 754.897 688.149 753.07 686.051C756.712 685.189 760.393 684.597 764.151 684.558Z" fill="#060606"/>
<path d="M725.591 686.309C730.572 685.807 735.553 685.807 740.559 685.923C740.585 687.145 740.624 688.381 740.649 689.604C722.785 690.273 704.715 691.212 686.85 690.492C687.262 689.385 687.674 688.278 688.111 687.171C700.583 686.489 713.132 687.145 725.591 686.309Z" fill="#050505"/>
<path d="M612.548 687.711C618.391 686.875 624.453 687.415 630.348 687.3C641.687 687.48 653.168 686.759 664.404 687.892C664.571 688.96 664.726 690.028 664.88 691.109C659.796 692.139 654.789 691.907 649.641 691.907C638.881 691.843 628.134 691.933 617.375 691.907C614.401 691.959 611.57 691.418 608.7 690.659C609.922 689.462 610.708 687.905 612.548 687.711Z" fill="#2E2E2E"/>
</g>
<defs>
<clipPath id="clip0_2_229">
<rect width="1330" height="730" fill="white"/>
</clipPath>
</defs>
</svg>
