<svg width="1330" height="730" viewBox="0 0 1330 730" fill="none" xmlns="http://www.w3.org/2000/svg">
<g clip-path="url(#clip0_2_118)">
<path d="M0 0H1330V730H0V0Z" fill="#FEFEFE"/>
<path d="M630.517 58.0702C644.424 57.6138 658.001 59.2618 670.082 66.589C679.843 71.0259 686.701 78.4292 695.714 84.2732C694.294 86.948 690.415 91.9807 692.127 95.0105C704.233 106.876 718.444 117.144 730.829 128.693C737.32 134.537 744.457 139.43 750.364 145.921C782.69 174.989 815.979 203.042 848.419 231.984C847.925 234.519 848.153 237.333 846.1 239.197C840.167 245.079 831.635 248.565 824.942 253.509C819.25 257.629 813.026 260.823 807.587 265.324C803.125 269.101 797.763 271.358 793.212 274.996C789.371 278.013 785.187 280.498 781.258 283.363C776.745 286.672 773.449 290.753 769.937 295.026C772.891 302.251 774.856 309.236 776.428 316.868C777.112 318.883 777.201 322.547 779.508 323.384C784.351 325.627 790.03 326.325 795.278 326.984C803.987 327.897 811.593 325.78 820.213 324.296C830.101 321.875 839.305 316.551 841.802 305.991C842.373 296.838 841.878 287.546 841.574 278.394C841.295 270.318 843.133 261.533 847.9 254.865C849.459 252.52 851.424 250.631 854.289 250.112C859.512 249.364 864.76 249.212 868.994 252.875C872.962 256.97 874.889 262.497 874.635 268.189C874.458 278.66 873.951 289.663 870.693 299.691C873.596 301.592 877.018 303.367 879.389 305.928C882.837 309.769 884.003 315.042 886.602 319.01C889.112 321.469 893.333 322.851 894.766 326.211C897.745 331.725 894.373 337.011 894.538 343.02C894.779 350.766 894.626 358.207 891.216 365.357C888.795 371.023 881.481 373.876 875.675 372.836C871.605 372.075 868.297 367.867 864.735 365.889C861.692 365.395 858.434 365.699 855.392 365.078C852.704 364.292 850.169 362.935 847.583 361.871C843.894 365.23 840.522 368.767 836.414 371.429C827.097 377.286 817.158 381.849 806.332 384.055C798.587 385.044 789.979 384.03 782.259 383.7C781.41 391.331 779.648 398.798 779.077 406.468C777.683 419.575 774.349 432.227 770.127 444.676C765.45 454.196 762.179 463.83 756.195 472.463C749.68 482.415 743.037 492.252 736.242 502C732.49 507.236 727.939 511.305 723.629 516.021C717.835 522.486 710.534 527.734 703.308 532.475C696.183 537.267 688.311 539.245 680.705 543.187C681.744 546.534 683.316 549.944 683.139 553.443C683.063 557.005 682.784 560.555 682.847 564.117C686.549 564.636 690.251 565.22 693.978 565.638C701.66 566.31 709.025 570.797 714.286 576.274C719.23 581.585 719.724 588.456 718.723 595.34C717.379 600.258 714.552 604.759 712.815 609.576C723.692 609.449 734.366 607.928 745.331 609.031C753.09 610.007 760.924 609.36 768.733 609.905C775.921 610.374 783.096 609.855 790.283 610.197C789.7 611.325 789.092 612.428 788.445 613.506C778.139 613.987 767.579 613.835 757.298 612.656C739.449 612.656 722.995 611.211 705.247 614.266C700.075 615.661 694.814 615.838 689.553 616.586C685.408 619.996 683.088 625.004 678.106 627.716C669.169 633.472 659.712 632.8 649.558 632.496C634.156 632.572 618.081 629.757 602.742 627.983C593.476 627.26 584.031 627.146 574.765 627.881C568.021 628.832 561.302 628.705 554.507 628.616C552.136 628.578 550.032 627.83 547.788 627.184C549.664 626.005 550.958 624.674 553.328 624.902C561.631 624.636 569.897 625.485 577.706 623.419C574.625 621.213 570.936 619.147 567.171 618.5C560.731 617.993 554.545 618.817 548.156 618.805C538.446 618.754 528.672 618.881 518.987 619.717C516.109 620.034 513.637 619.198 510.962 618.247C515.437 614.178 523.423 616.713 529.153 615.864C540.448 614.647 551.743 615.889 562.924 613.873C563.394 608.372 564.56 603.288 568.337 599.067C573.015 593.996 577.807 589.065 582.967 584.488C589.47 578.518 596.315 570.785 598.863 562.177C599.51 559.376 600.27 554.444 596.696 553.329C588.532 549.69 580.216 547.814 572.457 543.149C563.508 538.522 555.432 532.602 548.879 524.907C542.046 516.896 534.376 508.757 530.294 499.085C528.52 495.408 527.734 491.529 526.732 487.599C523.854 477.749 520.977 467.494 520.406 457.2C518.695 442.584 519.722 427.296 519.291 412.793C516.515 389.012 521.674 363.189 522.308 339.23C523.74 325.894 526.428 312.786 527.049 299.348C527.087 293.771 528.951 288.687 529.775 283.249C530.586 275.681 533.045 268.696 532.64 260.988C528.469 259.556 524.019 258.833 519.95 257.135C517.96 256.07 515.64 254.409 515.931 251.848C516.312 245.916 517.922 240.084 518.15 234.126C518.403 226.165 520.001 218.47 522.016 210.801C523.309 203.093 525.084 195.538 527.379 188.058C528.963 183 529.458 177.879 531.384 172.922C536.24 161.069 539.143 148.634 544.252 136.857C541.716 138.403 539.586 140.14 537.774 142.511C531.93 149.787 526.225 157.203 520.913 164.885C516.73 172.149 512.458 178.944 506.424 184.864C504.839 186.677 500.833 187.678 500.276 184.446C498.082 174.786 497.613 164.657 495.344 154.972C494.229 150.434 493.354 145.845 492.289 141.294C491.529 137.934 489.83 134.828 489.158 131.469C489.5 127.539 493.1 126.157 496.536 125.803C508.554 125.232 520.419 124.535 532.018 121.087C539.954 118.83 550.159 117.22 556.485 111.668C548.6 111.681 540.867 113.95 532.931 114.089C525.249 114.064 517.757 115.547 510.1 115.712C504.091 115.978 498.26 117.144 492.226 116.751C493.329 111.313 498.602 109.614 502.329 105.824C508.541 99.7136 515.082 94.0217 520.47 87.2016C526.707 79.5448 533.806 74.2078 538.496 65.9298C539.65 63.7621 542.895 60.6309 545.481 61.2901C553.962 72.5218 552.225 84.9704 559.121 96.443C560.465 98.4206 562.557 100.005 564.344 101.577C568.16 97.0388 571.748 92.3737 576.058 88.2791C587.036 78.2771 597.722 69.023 611.325 62.6846C617.422 59.9717 623.811 58.1716 630.517 58.0702Z" fill="#06151A"/>
<path d="M626.968 62.8368C639.949 61.2141 653.209 63.3819 665.037 68.9724C672.541 72.4458 680.832 76.9207 686.207 83.3479C687.994 85.0719 686.917 87.5313 686.524 89.6103C684.724 95.974 682.645 102.389 679.704 108.321C673.53 120.96 665.518 133.688 654.958 143.132C649.862 147.657 646.034 152.563 640.355 156.404C630.784 162.743 619.932 167.218 608.751 169.728C600.917 171.008 592.639 169.639 584.703 169.893C582.422 174.051 580.152 177.816 579.481 182.62C578.821 187.868 579.126 193.269 578.834 198.568C578.137 207.378 577.414 216.911 579.062 225.645C580.406 235.368 584.12 243.862 583.271 253.889C562.836 259.302 542.629 257.325 522.207 253.04C521.738 243.469 521.953 233.936 523.867 224.504C525.414 217.443 526.631 210.319 528.013 203.22C529.927 195.703 531.98 188.236 533.679 180.668C536.189 168.84 541.26 158.712 545.177 147.226C551.237 133.193 558.323 119.439 566.461 106.496C573.117 96.0501 583.081 87.3157 592.639 79.5575C602.755 71.3429 613.987 65.0299 626.968 62.8368Z" fill="#FDD803"/>
<path d="M543.212 75.9192C545.012 79.025 546.444 82.2449 547.395 85.7184C549.094 91.8667 551.274 97.8501 553.049 103.973C547.218 105.355 541.31 106.597 535.289 106.673C528.05 106.673 520.977 108.207 513.726 108.03C518.746 99.9671 525.997 94.44 531.993 87.2269C535.492 83.1957 539.067 79.3166 543.212 75.9192Z" fill="#FDD803"/>
<path d="M687.905 104.049C691.81 105.127 695.308 107.928 698.452 110.387C705.019 115.724 711.953 120.364 717.924 126.411C725.796 134.309 734.949 140.495 743.163 148C747.398 151.815 751.365 155.885 755.485 159.814C764.106 168.232 774.272 174.71 783.057 182.975C792.629 192.014 802.681 200.494 812.125 209.672C821.139 217.874 830.317 225.785 838.836 234.519C832.966 240.819 824.625 245.117 817.399 249.757C810.135 253.762 803.543 258.592 796.888 263.486C784.097 272.182 771.534 281.601 760.277 292.237C763.801 300.679 767.947 308.615 769.722 317.692C774.868 336.403 774.856 355.532 774.539 374.814C774.323 388.479 771.255 401.207 769.455 414.632C768.416 422.428 766.337 429.844 764.093 437.348C761.722 445.233 757.678 452.878 754.116 460.306C750.617 467.557 745.99 473.959 741.693 480.716C732.135 496.473 719.952 511.774 704.879 522.587C696.335 528.545 686.599 532.919 676.876 536.557C664.998 540.918 653.285 541.311 640.849 541.742C642.56 550.553 648.81 555.928 645.932 565.042C643.346 574.398 636.044 576.794 630.099 583.525C631.252 584.818 632.406 586.124 633.56 587.429C642.624 585.059 651.573 580.394 660.929 581.129C668.319 581.814 676.166 584.717 681.516 590.003C684.964 593.337 686.092 598.167 685.268 602.806C683.874 610.311 680.147 617.727 673.416 621.746C667.838 625.156 661.867 625.333 655.541 625.282C646.084 625.067 636.399 625.536 627.044 624.471C610.893 622.76 595.035 620.732 579.201 616.941C575.449 615.876 571.342 614.71 569.668 610.768C567.957 607.053 570.632 603.783 572.876 601.057C580.456 592.576 591.346 585.883 598.394 575.919C602.261 570.24 605.189 563.458 604.58 556.435C604.238 553.012 603.579 548.968 600.321 547.079C590.205 541.02 577.49 540.081 568.287 532.209C561.238 526.289 553.619 520.458 547.674 513.422C541.222 505.524 535.225 497.931 532.525 487.866C522.118 456.288 525.223 422.681 524.843 389.975C525.629 367.423 528.418 344.579 530.687 322.192C531.207 307.031 533.818 292.224 536.392 277.037C537.266 271.51 539.282 266.439 541.817 261.47C549.347 261.407 556.915 262.104 564.395 261.584C573.307 260.887 582.13 259.695 590.725 257.185C590.902 248.223 586.947 241.365 585.197 232.668C582.028 220.258 583.22 208.76 583.004 195.981C582.878 188.591 583.841 181.872 586.567 174.976C590.674 174.9 594.768 174.875 598.863 174.849C612.884 175.052 627.056 169.855 638.947 162.692C655.047 152.513 667.407 138.378 677.409 122.329C681.11 116.523 683.202 109.031 687.905 104.049Z" fill="#0158A3"/>
<path d="M540.639 128.959C533.464 138.061 524.387 146.491 518.543 156.392C515.247 161.488 512.8 166.546 507.565 169.994C506.246 157.583 503.166 145.794 500.276 133.675C506.677 133.117 513.13 133.586 519.532 133.041C526.631 132.001 533.502 129.821 540.639 128.959Z" fill="#FDD803"/>
<path d="M717.354 165.684C717.899 170.501 715.034 172.086 711.599 174.545C709.215 171.173 705.007 166.343 708.264 162.185C711.599 158.357 716.974 161.019 717.354 165.684Z" fill="#06151A"/>
<path d="M863.074 256.463C865.787 258.985 866.598 263.232 866.585 266.794C866.383 274.654 865.343 282.45 863.036 289.98C862.275 293.111 860.703 297.941 863.137 300.654C867.016 305.307 872.531 307.665 875.954 313.052C879.288 317.781 879.072 324.74 878.476 330.242C878.058 334.248 875.434 337.658 871.365 338.418C867.714 338.33 863.391 336.035 861.337 332.98C858.561 328.454 858.929 322.116 856.533 317.489C855.176 316.247 853.592 315.22 852.083 314.168C851.285 317.413 849.992 320.303 850.955 323.663C852.134 328.619 854.974 332.283 857.953 336.263C862.516 342.082 864.24 349.714 867.803 356.382C865.698 357.332 863.505 358.461 861.249 358.93C855.341 359.627 849.763 353.555 844.135 353.77C840.142 356.369 837.213 360.514 833.423 363.468C826.856 368.678 819.035 372.456 811.2 375.333C804.203 377.932 796.736 378.566 789.333 377.869C786.81 377.565 784.376 376.88 782.563 374.991C781.448 370.453 781.942 365.42 781.689 360.768C781.194 350.943 780.244 341.093 779.369 331.294C787.343 330.673 794.999 332.79 802.973 332.448C812.164 332.143 821.735 330.901 830.355 327.58C838.38 324.563 843.438 316.678 846.518 309.072C850.182 299.513 846.341 287.242 846.708 277.151C846.645 270.052 848.724 262.142 853.668 256.868C855.912 254.282 860.577 254.333 863.074 256.463Z" fill="#0158A3"/>
<path d="M699.898 281.74C701.115 281.487 702.357 281.309 703.612 281.183C706.224 286.773 707.187 292.871 709.456 298.55C712.689 307.208 726.811 308.755 731.907 301.136C735.342 296.484 737.586 290.906 740.388 285.86C742.327 287.217 746.016 287.952 745.281 291.033C744.596 296.395 741.655 301.567 740.109 306.752C737.827 314.206 736.306 321.761 733.111 328.936C731.26 332.955 729.498 337.988 726.139 340.979C721.753 344.25 713.944 345.289 709.71 341.182C705.932 337.747 703.409 332.765 701.635 328.049C698.757 320.265 699.834 311.975 699.556 303.785C699.606 296.572 698.516 288.814 699.898 281.74Z" fill="#06151A"/>
<path d="M600.042 289.156C602.058 290.804 603.896 292.123 604.213 294.912C605.29 302.353 604.251 310.403 602.691 317.73C600.955 325.716 599.864 333.398 597.038 341.119C595.567 345.124 593.792 349.777 590.623 352.769C585.349 352.718 580.304 348.611 574.878 348.547C566.676 348.56 558.665 355.038 557.866 363.392C557.613 368.171 560.655 373.33 565.967 373.014C572.153 372.329 577.325 368.856 583.803 369.21C579.277 376.221 574.029 381.253 573.243 390.077C572.546 394.97 577.287 401.219 582.637 399.255C590.991 396.542 594.249 386.286 599.966 380.024C601.487 381.215 603.008 382.42 604.53 383.611C603.122 388.086 600.98 393.575 601.943 398.266C602.869 402.322 605.797 406.594 610.285 406.962C615.85 407.063 620.477 403.742 623.291 399.128C628.032 391.889 627.931 382.813 628.92 374.497C634.789 376.664 639.873 380.949 645.881 382.521C653.449 382.977 660.777 376.893 661.753 369.375C662.082 366.498 662.196 363.278 661.22 360.501C659.839 357.497 656.416 356.077 653.323 355.583C648.455 354.936 643.359 355.836 638.503 355.279C635.753 355.025 633.648 351.983 633.952 349.308C634.295 344.592 635.778 340.003 636.12 335.275C637.134 324.449 634.954 314.89 637.819 304.305C639.442 304.622 641.064 304.926 642.687 305.243C642.814 315.993 643.295 327.237 641.609 337.823C641.229 341.157 640.582 345.137 641.66 348.382C647.694 351.361 656.403 350.842 661.765 354.962C666.735 358.892 667.318 364.71 666.95 370.63C666.684 377.349 661.918 384.917 655.224 386.743C648.848 388.162 641.33 386.375 634.941 385.335C632.697 390.786 631.024 396.567 628.375 401.841C624.787 408.585 616.877 413.541 609.106 411.551C602.729 410.461 598.09 404.313 593.551 400.117C589.267 401.359 584.652 403.222 580.177 403.362C574.929 403.451 569.694 400.674 567.729 395.642C565.65 390.634 567.234 384.08 567.881 378.858C561.961 376.259 553.911 374.408 551.667 367.486C548.916 358.118 556.573 349.168 564.813 345.834C572.432 342.323 579.214 344.947 586.947 346.278C589.393 342.614 591.701 338.913 593.311 334.78C595.884 328.581 596.619 321.698 597.659 315.055C599.104 306.156 597.747 297.929 600.042 289.156Z" fill="#06151A"/>
<path d="M887.807 332.993C885.373 338.203 883.091 344.148 879.338 348.56C877.399 351.374 873.254 349.675 870.452 349.46C870.414 348.256 870.389 347.051 870.351 345.86C877.703 342.69 882.837 339.356 887.807 332.993Z" fill="#0158A3"/>
<path d="M884.46 355.013C884.739 357.282 885.334 359.804 883.991 361.858C882.178 364.888 877.957 367.55 874.47 365.636C871.859 364.786 871.897 360.641 871.098 358.423C875.421 356.699 879.82 355.418 884.46 355.013Z" fill="#0158A3"/>
<path d="M674.265 547.662C675.698 556.232 672.516 564.32 673.048 573.219C677.029 572.217 681.162 571.026 685.256 570.62C692.304 569.961 699.606 572.002 704.905 576.781C712.701 583.652 713.64 597.241 705.324 604.188C701.47 608.156 697.122 607.586 692.064 607.624C690.973 602.629 690.263 597.508 688.831 592.589C687.373 587.024 681.808 583.259 676.902 580.876C668.713 577.199 658.724 576.515 649.938 574.664C650.839 570.785 651.891 566.868 652.436 562.925C653.082 558.108 651.891 552.771 651.206 547.967C657.24 547.193 663.262 545.989 669.321 545.495C671.21 545.431 673.872 545.241 674.265 547.662Z" fill="#0158A3"/>
<path d="M691.379 621.822C707.643 620.643 724.643 621.72 740.844 621.619C746.346 621.708 751.277 620.833 756.525 623.026C755.435 623.837 754.32 624.598 753.166 625.321C738.6 625.663 723.73 625.118 709.152 624.915C701.774 624.94 694.536 625.739 687.145 625.169C688.311 623.216 688.945 622.101 691.379 621.822Z" fill="#06151A"/>
<path d="M763.852 622.481C779.546 620.351 795.443 623.698 811.352 622.696C811.352 623.951 811.365 625.206 811.378 626.461C802.719 626.766 793.833 626.157 785.225 625.447C777.023 624.813 768.859 625.726 760.67 625.295C761.672 623.85 761.798 622.557 763.852 622.481Z" fill="#06151A"/>
<path d="M460.306 626.398C466.277 625.587 472.412 626.588 478.434 625.815C488.676 624.573 498.501 626.373 508.858 626.208C516.489 626.702 523.829 624.725 531.435 624.94C531.372 626.297 531.321 627.666 531.258 629.035C528.9 629.073 526.453 629.01 524.108 629.276C515.78 630.505 507.096 630.252 498.729 629.567C485.406 627.729 472.374 630.024 459 628.908C459.418 628.059 459.849 627.222 460.306 626.398Z" fill="#06151A"/>
<path d="M611.198 632.255C611.477 633.484 611.73 634.701 611.971 635.931C603.288 638.238 592.563 640.114 583.892 637.085C583.689 635.982 583.486 634.866 583.309 633.751C592.5 633.003 601.969 631.558 611.198 632.255Z" fill="#FEFEFE"/>
<path d="M719.293 631.9C727.939 631.951 735.963 630.81 744.368 633.611L742.593 635.602C742.023 634.664 741.452 633.725 740.882 632.787C732.832 633.117 724.808 632.597 716.758 632.863C707.542 633.104 697.02 631.596 688.096 634.068L687.195 636.033C689.883 637.414 692.431 636.755 695.334 636.679C704.575 635.944 713.817 636.945 723.096 636.527C729.054 636.286 734.848 637.452 740.755 637.592C736.407 638.314 732.16 638.378 727.774 637.947C717.861 637.034 707.884 637.059 697.958 637.883C694.079 638.2 690.327 638.378 686.574 637.136C686.41 635.957 686.27 634.778 686.131 633.599C697.324 630.86 707.96 632.039 719.293 631.9Z" fill="#FEFEFE"/>
<path d="M773.449 632.787C773.36 634.131 773.271 635.462 773.17 636.806C764.549 636.502 756.031 636.4 747.398 636.463C747.639 635.285 747.879 634.118 748.146 632.952C756.525 632.318 765.044 632.838 773.449 632.787Z" fill="#06151A"/>
<path d="M579.835 634.055C578.948 635.5 578.213 637.871 576.552 638.555C574.777 638.936 572.889 638.898 571.076 638.936C551.338 638.822 531.613 638.441 511.875 638.999C511.976 637.807 512.078 636.616 512.179 635.437C529.661 634.765 547.205 634.993 564.699 635.133C569.783 635.158 574.752 634.042 579.835 634.055Z" fill="#06151A"/>
<path d="M610.716 633.142C610.462 634.346 609.968 635.373 609.207 636.21C603.756 636.983 598.141 636.882 592.639 637.009C589.761 636.894 587.213 637.363 584.564 636.07L585.438 633.928C590.116 633.51 594.781 633.979 599.446 633.269C603.085 633.003 607.179 632.103 610.716 633.142Z" fill="#06151A"/>
<path d="M716.758 632.863C724.808 632.597 732.832 633.117 740.882 632.787C741.452 633.725 742.023 634.663 742.593 635.601L740.755 637.592C734.848 637.452 729.054 636.286 723.096 636.527C713.817 636.945 704.576 635.944 695.334 636.679C692.431 636.755 689.883 637.414 687.196 636.032L688.096 634.067C697.02 631.596 707.542 633.104 716.758 632.863Z" fill="#06151A"/>
<path d="M685.066 638.581C685.167 640.292 685.268 641.991 685.37 643.702C680.578 644.818 676.04 645.236 671.121 645.096C661.778 644.881 652.562 646.06 643.232 646.149C627.602 646.339 611.958 646.339 596.328 646.199C586.541 646.035 576.882 647.366 567.095 647.454C567.044 646.047 567.006 644.64 566.956 643.22C570.923 642.536 574.828 642.13 578.846 641.978C575.081 642.739 570.987 642.396 568.058 644.894C568.756 646.301 569.985 646.833 571.735 646.516C595.288 643.487 619.729 647.15 643.372 644.577C656.441 643.892 669.879 644.577 682.885 643.525C685.04 643.867 684.444 640.355 683.164 639.734C667.635 640.9 652.106 639.912 636.602 641.636C642.991 640.102 649.317 639.151 655.909 639.417C665.657 639.76 675.355 639.316 685.066 638.581Z" fill="#FEFEFE"/>
<path d="M683.164 639.734C684.445 640.355 685.04 643.867 682.885 643.525C669.879 644.577 656.441 643.892 643.372 644.577C619.729 647.15 595.288 643.486 571.735 646.516C569.985 646.833 568.756 646.301 568.059 644.894C570.987 642.396 575.082 642.739 578.847 641.978C598.077 641.243 617.397 642.472 636.602 641.636C652.106 639.912 667.635 640.9 683.164 639.734Z" fill="#06151A"/>
<path d="M699.746 644.399L701.647 644.196C700.925 645.058 700.215 645.933 699.505 646.82C708.962 646.732 718.216 646.402 727.584 648.139C718.102 647.619 708.797 647.328 699.302 647.911C699.441 646.732 699.581 645.566 699.746 644.399Z" fill="#0158A3"/>
<path d="M701.647 644.196C710.065 643.702 718.558 643.943 726.988 644.158C727.191 645.477 727.381 646.808 727.584 648.139C718.216 646.402 708.962 646.732 699.505 646.82C700.215 645.933 700.925 645.058 701.647 644.196Z" fill="#06151A"/>
<path d="M672.376 652.031C679.856 651.866 687.348 652.069 694.827 652.031C694.307 653.679 693.762 655.314 693.192 656.949C683.266 654.629 672.668 656.087 662.248 655.846C648.582 655.403 635.043 656.924 621.377 656.708C621.783 655.58 622.214 654.439 622.645 653.311C639.15 652.005 655.884 653.615 672.376 652.031Z" fill="#06151A"/>
<path d="M550.603 653.742C570.962 652.385 591.156 654.718 611.528 653.742C611.553 655.783 611.591 657.836 611.616 659.877C604.061 660.537 596.772 660.397 589.242 659.611C576.4 658.28 563.609 659.446 550.742 658.508C550.692 656.924 550.641 655.326 550.603 653.742Z" fill="#FEFEFE"/>
<path d="M552.441 654.35C557.739 653.894 563.14 654.071 568.439 654.287C575.867 654.705 583.068 653.818 590.458 655.086C597.215 656.341 604.441 654.274 611.02 655.77L610.969 658.952C603.097 659.358 594.984 659.801 587.162 658.432C579.746 657.646 572.292 658.584 564.839 658.014C560.554 657.583 555.28 658.521 551.541 656.341L552.441 654.35Z" fill="#06151A"/>
<path d="M633.078 662.426C638.821 662.185 644.297 663.313 649.888 664.429C639.176 664.518 628.553 663.63 617.879 664.518C609.512 665.025 600.968 663.795 592.664 664.733C591.752 665.773 590.864 666.837 590.028 667.953C597.621 668.283 605.253 668.092 612.859 668.181C617.942 668.27 622.873 667.053 627.931 667.319C642.206 668.942 656.784 667.37 671.033 669.145C658.381 668.904 645.742 669.271 633.091 668.98C618.69 668.638 604.365 669.639 590.002 668.828C589.939 667.484 589.863 666.14 589.8 664.796C595.339 663.465 600.803 663.237 606.47 663.529C615.407 663.947 624.179 662.743 633.078 662.426Z" fill="#FEFEFE"/>
<path d="M783.514 664.327C783.336 665.696 783.159 667.053 782.982 668.422C779.863 668.422 776.783 668.143 773.689 667.725C763.294 666.394 753.559 667.649 743.392 668.08C728.573 668.156 713.766 668.067 698.947 668.371C694.916 668.498 691.797 668.904 688.45 666.165C689.832 665.62 691.239 665.139 692.672 664.708C722.995 664.796 753.115 664.213 783.514 664.327Z" fill="#06151A"/>
<path d="M592.664 664.733C600.967 663.795 609.512 665.024 617.878 664.517C628.552 663.63 639.175 664.517 649.887 664.429C659.053 664.429 668.129 665.557 677.295 665.379C677.066 666.786 676.851 668.206 676.61 669.613C674.747 669.474 672.883 669.322 671.032 669.144C656.784 667.37 642.205 668.942 627.931 667.319C622.873 667.053 617.942 668.27 612.858 668.181C605.252 668.092 597.621 668.282 590.027 667.953C590.864 666.837 591.751 665.772 592.664 664.733Z" fill="#06151A"/>
<path d="M760.81 673.252C760.721 674.583 760.645 675.914 760.569 677.245C755.486 678.487 750.288 678.437 745.116 677.739C739.652 676.953 734.29 677.131 728.801 676.979C739.221 675.863 749.553 676.712 759.998 676.256C759.073 675.457 758.148 674.659 757.222 673.86C758.414 673.657 759.605 673.455 760.81 673.252Z" fill="#06151A"/>
<path d="M728.801 673.556C738.588 672.098 747.537 675.838 757.222 673.86C758.148 674.659 759.073 675.458 759.999 676.256C749.553 676.713 739.221 675.863 728.801 676.979C728.788 675.838 728.788 674.697 728.801 673.556Z" fill="#06151A"/>
<path d="M639.366 676.091C645.844 676.941 652.068 677.194 658.584 677.08C658.711 678.399 658.837 679.717 658.964 681.035C649.419 680.541 639.987 679.476 630.403 679.527C631.455 674.481 635.512 676.167 639.366 676.091Z" fill="#06151A"/>
</g>
<defs>
<clipPath id="clip0_2_118">
<rect width="1330" height="730" fill="white"/>
</clipPath>
</defs>
</svg>
