<svg width="1330" height="730" viewBox="0 0 1330 730" fill="none" xmlns="http://www.w3.org/2000/svg">
<g clip-path="url(#clip0_2_84)">
<path d="M0 0H1330V730H0V0Z" fill="#FEFEFE"/>
<path d="M663.902 46.4524C672.396 48.1664 680.547 52.4071 685.663 59.6059C689.129 62.8689 689.98 67.0334 691.961 71.1597C695.148 80.5804 696.036 90.5598 694.03 100.336C692.304 109.782 689.345 119.152 685.689 128.04C696.963 125.234 708.745 119.482 720.35 117.197C733.008 114.302 746.162 113.198 759.138 114.061C773.777 115.686 790.244 118.187 802.775 126.503C815.738 134.02 825.578 147.313 831.85 160.733C837.513 171.246 840.763 183.333 843.315 194.925C847.467 219.759 843.899 247.653 842.998 272.805C842.071 276.41 841.703 281.997 846.654 282.454C862.182 280.943 878.992 284.841 891.714 294.033C897.542 297.855 902.671 302.362 907.407 307.453C925.207 324.593 929.448 354.735 916.485 375.849C910.898 384.076 903.331 389.98 894.812 394.932L894.228 396.087C896.234 402.537 898.1 408.275 894.52 414.636C891.523 420.591 885.708 422.381 881.43 426.508C882.268 430.977 886.064 434.659 886.369 439.56C886.584 442.861 884.159 445.781 881.506 447.469C878.344 449.958 872.847 450.707 870.409 453.932C868.898 458.045 871.082 461.994 869.178 466.006C866.258 476.989 853.269 482.359 842.947 478.372C838.732 477.065 836.256 479.045 833.298 481.623C830.136 482.562 827.089 481.585 824.245 484.137C820.627 487.501 819.306 493.811 816.487 497.988C813.263 502.572 810.66 507.092 806.597 510.977C798.789 519.471 788.238 525.349 778.322 530.948C771.694 534.745 764.838 536.967 757.83 539.582C753.056 541.118 747.838 541.664 743.064 542.807C743.432 544.369 744.588 545.638 745.286 547.111C746.581 549.193 747.432 551.898 750.39 551.771C758.3 550.31 764.699 543.543 773.078 543.861C783.236 544.94 791.882 554.792 791.653 565.038C791.793 573.215 788.009 580.16 782.271 585.746C781.979 586.559 782.372 587.156 783.426 587.536C791.653 591.574 798.992 596.818 807.295 600.639C810.711 602.48 816.627 605.984 815.878 610.568C814.431 616.027 808.171 619.354 804.197 622.807C792.39 631.606 779.414 640.582 768.596 650.65C765.308 653.025 762.032 650.574 759.938 647.933C754.872 642.08 756.179 634.589 752.383 627.619C751.101 625.575 750.237 622.693 748.257 621.271C747.495 633.142 743.064 645.14 737.922 655.793C734.595 663.309 732.678 671.904 728.247 678.798C725.403 683.458 719.423 682.569 716.021 679.192C713.976 676.881 715.17 673.326 715.018 670.419C715.424 665.366 713.9 660.604 713.951 655.602C711.475 654.942 709.025 657.227 706.308 655.805C703.781 652.885 703.337 648.441 706.371 645.699C708.415 644.048 712.11 644.302 712.821 641.319C712.351 639.516 711.983 637.586 711.183 635.897C708.72 636.291 705.521 639.503 703.273 637.37C699.96 634.386 701.318 630.806 703.857 627.962C705.571 626.959 707.577 626.705 709.279 625.74C709.165 623.645 709.038 620.509 707.12 619.214C705.356 619.024 703.388 619.366 701.699 618.795C700.175 617.449 699.718 616.561 699.541 614.542C698.563 613.615 697.585 613.272 696.608 613.513C696.493 618.427 694.678 624.216 690.577 627.276C687.822 629.346 683.987 629.828 681.41 632.152C680.293 633.231 680.801 635.427 681.347 636.684C685.854 646.372 691.25 656.859 695.021 666.8C695.846 670.33 695.071 671.803 691.656 672.92C679.379 676.069 667.254 678.329 654.976 680.995C646.863 682.049 640.616 685.337 632.097 683.217C628.555 681.973 627.247 679.141 627.425 675.497C628.237 665.277 628.11 654.866 628.517 644.569L627.171 644.518C622.359 648.543 616.544 650.993 612.176 655.5C605.473 660.287 598.49 664.845 591.392 669.048C586.898 671.193 584.244 674.875 578.797 674.748C574.887 674.761 571.649 671.752 571.929 667.778C572.551 666.191 573.643 665.086 574.658 663.74C579.445 657.697 583.648 651.222 588.231 645.026C587.33 643.02 584.32 643.591 583.241 641.966C580.994 639.427 583.14 635.529 585.349 633.764C588.586 631.809 591.088 635.884 592.891 637.967C594.566 637.725 597.842 632.812 597.969 631.123C596.065 627.314 592.7 626.299 594.173 621.03C595.443 616.484 600.102 620.484 603.022 620.065C606.78 619.087 607.479 614.072 609.129 610.961C606.704 610.568 603.467 612.929 601.499 610.961C598.54 607.698 600.356 603.166 604.317 601.96C607.301 600.22 609.269 605.718 612.24 603.699C616.722 592.526 621.115 581.163 624.06 569.469C624.302 568.086 625.101 565.47 623.438 564.734C601.537 562.588 580.194 557.205 560.083 548.19C549.761 544.356 540.213 538.566 530.373 533.551C526.615 530.771 522.375 528.866 518.515 526.276C487.459 506.838 462.105 478.08 445.396 445.578C433.487 421.911 429.335 395.935 430.097 369.602C428.865 366.212 421.743 366.631 419.14 364.168C413.084 360.385 409.021 355.154 408.132 347.942C407.18 341.619 408.614 335.957 410.202 329.9C410.29 327.932 409.186 325.838 408.614 323.958C404.209 316.404 403.98 306.437 407.116 298.375C408.767 295.036 410.887 292.014 412.842 288.84C414.341 285.145 412.83 281.959 413.172 278.099C413.807 269.567 419.191 262.19 426.656 258.267C433.436 254.852 440.965 256.769 447.377 253.214C451.719 249.697 454.372 243.742 457.204 239.07C468.504 223.326 484.057 210.605 501.235 201.743C504.13 200.346 504.117 197.984 502.924 195.318C499.077 187.269 495.953 179.333 496.728 170.192C496.525 162.219 500.08 155.54 504.587 149.243C512.395 139.911 523.67 133.461 535.465 130.668C550.662 128.129 568.818 131.277 580.715 141.612C584.333 144.38 585.273 149.636 588.802 152.252C591.1 151.528 595.366 150.601 596.763 148.544C597.093 144.025 594.757 139.251 595.024 134.629C594.414 123.647 594.82 112.41 597.017 101.618C599.328 86.497 606.92 72.569 618.791 62.8562C630.713 52.1531 647.511 43.9512 663.902 46.4524Z" fill="#1C1C1B"/>
<path d="M668.307 59.3139C673.513 61.4215 676.078 66.7159 678.579 71.3882C682.108 81.685 681.283 92.4262 679.264 102.926C676.344 114.505 670.758 125.627 665.882 136.508C663.889 141.015 663.026 146.437 660.22 150.487C656.665 151.579 653.491 149.446 649.923 148.963C646.203 147.795 642.305 147.973 638.56 146.995C636.846 146.716 634.979 147.021 633.405 146.31C633.57 143.072 633.925 139.911 633.57 136.648C630.878 132.42 626.028 128.383 620.721 129.005C616.328 129.182 613.484 131.874 609.993 133.728C608.406 128.878 608.952 124.345 609.497 119.393C609.497 110.671 610.589 102.101 613.611 93.8736C618.068 96.4383 622.664 97.0985 627.653 95.6257C631.742 92.8198 634.789 87.6016 634.078 82.5611C633.964 78.9045 631.018 75.6034 627.895 73.9656C631.196 68.8108 636.096 66.7159 640.769 63.0847C649.199 58.6029 659.014 55.2256 668.307 59.3139Z" fill="#FEFEFE"/>
<path d="M661.35 61.2184C666.149 60.8375 670.999 64.2909 672.726 68.722C673.957 71.3628 673.475 75.1717 673.005 77.9904C670.567 82.1167 666.352 85.7733 661.337 85.7098C653.161 85.659 646.533 76.2509 649.986 68.595C651.777 64.3671 656.589 60.7867 661.35 61.2184Z" fill="#E20430"/>
<path d="M625.178 74.6639C626.079 74.448 626.993 74.2068 627.895 73.9656C631.018 75.6034 633.963 78.9045 634.078 82.5611C634.789 87.6015 631.742 92.8198 627.653 95.6257C622.664 97.0985 618.068 96.4383 613.611 93.8736C613.294 89.6203 615.744 87.4111 616.569 83.5514C620.251 82.2056 622.511 77.3936 625.178 74.6639Z" fill="#E20430"/>
<path d="M654.925 99.2442C660.055 101.568 663.889 105.846 663.419 111.776C663.495 118.581 657.922 123.85 651.18 123.71C645.39 123.99 641.327 120.028 639.309 115C639.144 112.461 638.687 108.97 639.74 106.659C642.699 100.895 648.425 97.2381 654.925 99.2442Z" fill="#E20430"/>
<path d="M752.739 126.021C758.389 126.097 763.785 127.024 769.308 128.103C776.798 129.843 785.064 131.163 791.818 134.896C799.792 138.311 805.835 144.456 810.876 151.363C818.075 161.393 822.125 172.211 826.708 183.523C827.14 187.18 828.079 190.684 828.74 194.29C830.263 199.622 829.12 205.361 830.415 210.795C830.746 218.413 830.619 226.056 830.771 233.687C831.012 235.617 829.781 237.902 827.724 238.054C821.49 237.978 815.18 236.848 809.098 235.566C800.515 234.106 792.517 230.487 784.048 228.811C782.855 228.164 781.814 226.983 780.48 226.729C775.745 225.523 772.52 222.349 767.365 222.565C765.956 221.193 764.991 219.797 762.934 219.34C760.039 218.565 757.69 216.724 754.707 216.102C750.123 211.328 743.864 209.881 738.823 205.653C735.37 202.657 731.282 200.613 727.93 197.553C717.608 189.402 708.263 179.841 699.731 169.862C695.668 165.316 691.631 160.174 689.498 154.423C687.708 151.363 685.638 148.976 685.943 145.193C686.412 143.606 688.596 142.552 689.853 141.561C702.372 134.223 714.979 132.42 728.527 127.976C736.221 126.123 744.88 124.485 752.739 126.021Z" fill="#E20430"/>
<path d="M620.721 129.005C626.028 128.383 630.878 132.42 633.57 136.648C633.925 139.911 633.57 143.072 633.405 146.31C634.979 147.021 636.846 146.716 638.56 146.996C632.148 146.627 625.8 145.142 619.451 144.342C616.442 144.012 613.776 145.053 611.592 142.514C608.901 139.746 610.17 137.092 609.993 133.728C613.484 131.874 616.328 129.182 620.721 129.005Z" fill="#E20430"/>
<path d="M561.683 143.072C568.031 145.942 573.909 150.119 575.23 157.432C576.893 166.421 575.357 176.324 571.713 184.691C565.695 196.054 554.281 201.552 542.016 203.457C535.807 204.371 528.507 203.799 523.009 200.549C513.665 194.239 508.866 181.047 510.516 170.166C511.164 162.511 515.772 155.87 521.08 150.614C532.303 141.917 548.098 138.946 561.683 143.072Z" fill="#CCD604"/>
<path d="M675.557 157.914C678.909 160.847 681.372 166.548 684.267 170.128C687.403 173.887 689.46 178.241 693.015 181.657C704.81 196.029 719.537 207.024 734.837 217.372C746.314 225.028 758.693 230.754 771.148 236.556C780.76 239.679 790.015 243.984 799.715 246.764C803.55 247.501 807.244 248.453 811.155 248.757C816.322 249.9 823.521 249.341 828.041 252.351C830.187 255.817 828.828 259.067 828.714 262.863C828.321 276.461 826.403 290.173 825.337 303.746C823.128 309.332 818.874 309.37 813.707 310.284C799.538 311.325 785.559 309.51 771.821 306.095C751.05 301.854 730.761 291.824 712.11 281.933C694.17 270.595 678.172 253.328 672.091 232.608C669.602 225.84 669.59 219.111 668.676 212.09C668.218 202.58 669.475 193.528 670.77 184.171C671.735 175.689 672.307 165.824 675.557 157.914Z" fill="#279DD7"/>
<path d="M611.796 158.854C623.527 157.153 635.893 158.397 647.371 161.127C650.799 162.18 655.205 162.346 658.112 164.517C659.483 167.183 657.846 171.017 657.287 173.785C655.268 186.443 654.481 199.254 654.506 212.077C654.951 221.041 656.944 229.472 659.407 238.054C668.041 265.707 680.204 292.04 698.093 314.957C708.327 328.516 720.274 341.238 733.085 352.386C734.253 353.528 735.725 355.128 735.586 356.868C734.837 359.178 732.158 360.778 730.507 362.505C726.647 365.984 724.413 372.129 726.305 377.131C726.825 379.226 728.031 381.88 726.356 383.721C722.915 388.266 718.319 392.456 719.271 398.753C719.715 404.098 725.721 407.666 728.501 411.526C727.625 416.934 723.283 421.429 724.972 427.942C725.886 433.681 730.99 436.22 733.757 440.664C734.418 444.537 733.707 448.142 735.459 451.824C738.316 459.137 744.499 464.559 752.066 466.552C756.649 467.568 760.991 466.704 765.562 466.692C772.558 472.215 780.277 475.998 789.368 473.51C792.974 473.053 797.138 470.259 800.592 471.529C802.42 473.053 803.296 475.427 805.569 476.62C806.762 477.395 808.463 478.03 809.238 479.249C809.492 483.73 807.105 487.704 804.604 491.209C795.462 505.873 781.699 518.087 765.689 524.689C756.332 528.168 746.251 531.228 736.233 531.672C732.932 532.129 726.8 532.954 726.305 537.182C726.686 540.941 730.088 544.534 731.828 547.86C733.834 551.707 737.909 555.681 738.608 559.998C738.988 562.639 737.122 563.87 735.472 565.534C726.876 572.453 716.287 577.151 705.571 579.588C702.283 580.299 700.277 578.7 697.865 576.757C689.701 568.073 681.791 558.893 672.777 551.072C669.679 547.809 663.165 548.444 660.855 552.278C663.191 565.076 661.693 579.043 658.582 591.612C657.769 594.304 657.236 596.97 653.757 596.614C646.647 595.992 638.128 596.36 631.462 593.631C629.647 591.003 631.792 587.27 632.618 584.527C634.992 577.29 637.519 570.003 638.89 562.486C638.56 556.862 633.71 553.142 628.352 552.901C614.678 552.329 601.054 549.599 587.99 545.587C553.011 534.516 520.622 516.576 494.607 490.523C481.492 477.687 469.583 462.997 461.063 446.682C450.094 426.165 444.71 402.854 444.52 379.658C443.733 374.668 443.377 369.856 446.704 365.654C450.208 361.489 455.452 359.343 458.842 354.925C467.018 345.898 465.774 332.148 459.578 322.409C456.569 317.94 461.076 314.208 461.686 309.853C463.311 304.876 461.736 300.813 460.962 295.95C463.59 291.341 467.361 287.139 468.948 281.717C469.646 277.896 469.659 274.011 468.643 270.24C467.158 265.936 464.593 262.457 462.625 258.47C461.939 256.87 462.435 255.423 463.273 254.014C469.748 242.105 479.194 231.744 490.024 223.657C497.566 217.956 505.895 213.982 514.096 209.398C515.785 208.687 517.702 209.97 519.226 210.694C530.703 216.966 545.482 216.902 557.582 212.496C567.396 208.738 575.661 202.035 581.819 193.553C586.136 186.393 589.31 178.572 589.78 170.141C589.958 167.881 591.265 165.494 593.259 164.313C599.048 161.076 605.308 159.882 611.796 158.854Z" fill="#CCD604"/>
<path d="M608.736 184.704C610.958 189.363 609.942 195.407 612.468 200.067C614.474 204.485 618.156 208.281 623.248 208.548C628.58 208.091 631.526 203.901 633.024 199.178C634.421 195.775 634.09 192.398 636.49 189.846C638.585 189.617 641.467 189.325 643.092 190.963C645.644 193.02 645.187 196.321 644.463 199.14C643.511 206.453 638.801 212.712 632.427 216.229C626.32 219.086 619.705 217.918 613.827 215.137C608.774 213.017 605.143 208.053 602.502 203.418C600.178 198.467 600.673 192.563 601.092 187.23C602.134 183.904 605.904 182.52 608.736 184.704Z" fill="#1C1C1B"/>
<path d="M453.712 267.383C456.34 269.91 455.502 275.522 454.969 278.772C454.322 280.575 453.763 283.838 451.757 284.561C448.253 283.292 445.294 281.324 441.46 280.994C437.029 279.546 433.309 281.197 428.878 281.286C426.694 280.651 426.656 279.343 427.151 277.439C429.17 272.576 433.157 268.843 438.07 266.99C443.136 265.136 448.989 264.107 453.712 267.383Z" fill="#CCD604"/>
<path d="M583.838 278.188C586.441 278.81 587.304 280.727 587.901 283.127C590.123 301.93 586.631 320.15 580.169 337.76C578.506 343.574 576.119 349.301 572.157 353.935C568.094 360.194 562.8 365.996 556.757 370.364C550.129 374.452 542.257 378.845 534.373 379.455C527.301 380.762 519.772 380.026 512.865 378.198C506.263 376.674 500.003 372.56 494.455 368.79C483.815 360.664 477.315 349.301 473.189 336.731C472.871 334.814 471.462 331.754 473.874 330.688C477.201 329.824 481.759 328.847 483.422 332.821C488.018 344.768 493.579 355.458 505.095 362.022C514.896 369.107 527.313 371.519 538.867 367.52C548.745 363.14 556.414 355.458 561.86 346.228C568.818 335.576 572.335 322.384 573.77 309.84C575.23 300.368 573.922 291.214 574.011 281.882C574.087 277.337 580.664 277.032 583.838 278.188Z" fill="#1C1C1B"/>
<path d="M694.894 286.263C704.632 292.7 714.484 298.35 725.073 303.365C718.776 306.729 716.922 317.166 723.131 321.673C729.276 327.082 739.128 325.241 743.546 318.512C744.816 316.633 744.423 314.131 746.06 312.278C754.173 314.5 764.026 317.344 771.987 319.286C791.476 323.844 811.269 325.126 830.898 320.594C834.364 319.286 838.173 316.176 838.44 312.214C838.3 306.958 841.055 302.603 840.801 297.296C841.906 293.258 845.245 293.842 848.444 295.049C848.736 296.623 847.048 297.982 846.629 299.518C844.699 304.292 846.426 309.383 849.968 312.887C854.704 316.62 860.595 316.036 865.75 313.598C870.917 309.04 870.778 302.387 868.314 296.407C878.776 297.982 886.953 304.393 893.276 312.557L892.984 313.877C888.679 315.363 884.832 317.191 882.801 321.521C880.566 325.279 882.458 330.675 884.845 333.951C887.905 337.798 892.653 338.521 897.288 338.064C901.427 337.023 903.953 334.306 906.302 330.903C909.514 335.791 910.098 342.241 909.717 347.929C909.464 356.918 905.985 365.057 900.919 372.345C899.344 370.529 899.675 368.142 898.049 366.466C894.291 360.969 886.902 360.283 881.493 363.673C876.072 366.657 874.764 374.465 877.557 379.632C878.319 382.438 881.239 382.832 882.446 385.422C868.708 392.049 851.796 396.036 836.675 392.976C838.097 387.263 834.77 380.699 829.501 378.16C825.121 377.334 821.376 377.068 817.643 379.899C814.456 381.549 814.139 386.222 811.358 387.898C798.205 382.845 783.655 377.182 772.812 368.002C773.662 365.273 776.57 365.527 777.967 363.089C784.15 355.877 778.005 344.577 769.269 343.638C762.782 342.356 755.76 349.44 755.951 355.623C746.022 347.523 736.373 339.435 727.498 329.9C714.903 316.658 704.365 301.841 694.894 286.263Z" fill="#FEFEFE"/>
<path d="M442.603 293.652C446.793 295.899 447.707 300.457 448.532 304.749C448.9 307.542 447.313 310.221 444.837 311.453C438.527 312.456 433.081 310.488 428.015 313.903C425.513 315.274 424.003 318.08 421.425 319.185L420.422 318.436C416.296 310.881 418.822 301.333 425.145 295.798C430.16 292.129 436.953 290.034 442.603 293.652Z" fill="#CCD604"/>
<path d="M868.314 296.407C870.777 302.387 870.917 309.04 865.75 313.598C860.595 316.036 854.704 316.62 849.968 312.887C846.426 309.383 844.699 304.292 846.629 299.518C847.048 297.982 848.736 296.623 848.444 295.049C855.364 292.992 861.661 294.211 868.314 296.407Z" fill="#E20430"/>
<path d="M725.073 303.365C728.552 304.393 732.056 304.977 735.04 307.25C738.823 309.358 742.835 308.824 746.06 312.278C744.422 314.131 744.816 316.633 743.546 318.512C739.128 325.241 729.276 327.082 723.131 321.673C716.922 317.166 718.776 306.729 725.073 303.365Z" fill="#E20430"/>
<path d="M893.276 312.557C894.215 314.081 895.167 314.335 896.843 314.715C898.494 316.391 899.433 318.359 901.528 319.705C903.445 323.374 905.21 326.879 906.302 330.903C903.953 334.306 901.427 337.023 897.288 338.064C892.653 338.521 887.905 337.798 884.845 333.951C882.458 330.675 880.566 325.279 882.801 321.521C884.832 317.191 888.679 315.363 892.984 313.877L893.276 312.557Z" fill="#E20430"/>
<path d="M435.988 323.438C440.622 321.838 444.545 323.095 447.529 326.879C450.957 330.789 452.227 335.246 450.627 340.311C448.659 347.599 442.857 355.141 435.404 357.299C428.916 358.366 424.929 353.668 422.085 348.615C421.451 345.53 421.146 341.695 422.212 338.686C424.764 332.541 430.173 326.65 435.988 323.438Z" fill="#CCD604"/>
<path d="M815.218 330.675C815.802 330.319 816.361 329.938 816.906 329.519C815.345 332.3 819.522 334.776 819.344 337.95C820.233 343.562 817.021 348.983 811.879 351.116C807.867 352.602 801.874 352.157 798.979 348.678C793.52 344.07 794.358 333.747 800.109 329.773C804.527 327.247 811.307 327.12 815.218 330.675Z" fill="#E20430"/>
<path d="M851.2 340.032C857.014 338.445 863.096 339.118 866.969 344.12C869.838 348.539 869.774 354.544 866.308 358.658C863.058 363.444 857.078 363.178 851.999 362.327C845.969 359.75 843.213 352.767 845.512 346.634C846.337 343.765 848.914 341.772 851.2 340.032Z" fill="#E20430"/>
<path d="M769.269 343.638C778.005 344.577 784.15 355.877 777.967 363.089C776.57 365.527 773.662 365.273 772.812 368.002C771.072 366.403 768.939 365.565 766.781 364.384C762.553 362.251 759.036 359.166 755.951 355.623C755.76 349.44 762.782 342.356 769.269 343.638Z" fill="#E20430"/>
<path d="M698.042 347.053C700.671 347.231 702.766 349.135 702.905 351.814C704.302 362.162 702.029 371.799 698.982 381.613C697.903 384.977 700.798 386.095 703.362 387.161C709.19 388.888 714.395 393.675 715.018 399.947C715.487 406.409 715.335 412.63 713.405 418.852C710.879 425.314 707.387 432.551 700.518 435.255C697.014 437.363 691.504 435.268 687.923 436.284C684.851 439.382 683.302 443.559 679.874 446.454C671.926 452.827 659.725 452.776 651.878 446.212C649.047 444.067 646.203 440.639 642.292 441.235C638.636 441.223 635.982 443.102 632.313 441.794C627.234 441.058 622.702 437.845 620.467 433.224C617.407 427.053 617.369 420.642 617.737 413.925C618.245 410.84 614.525 410.535 612.532 409.418C606.679 407.12 601.727 402.626 600.699 396.188C599.924 391.897 601.321 387.745 603.657 384.178C608.482 377.994 615.135 373.487 623.248 373.563C627.399 373.017 631.488 375.062 635.487 374.147C637.531 369.539 631.945 362.594 634.509 357.934C638.217 355.89 644.755 355.661 646.012 360.689C647.676 368.459 648.209 375.9 651.243 383.403C652.018 385.257 652.615 387.098 651.713 389.04C649.402 391.135 646.101 391.288 643.321 390.107C640.553 388.698 638.953 385.942 636.16 384.482C629.355 380.534 620.607 382.54 615.084 387.644C613.243 390.589 612.049 393.725 613.446 397.153C614.474 399.947 618.068 400.886 620.632 399.82C624.289 398.88 626.46 396.404 629.558 394.576C631.957 393.662 634.84 393.878 637.328 394.271C640.083 395.642 641.442 399.667 639.398 402.168C636.554 405.736 632.148 408.999 630.447 413.303C629.101 419.626 629.583 426.076 634.002 431.104C635.487 431.967 637.341 431.802 638.445 430.431C641.454 426.66 645.124 422.495 646.368 417.81C647.066 415.17 645.644 411.284 648.234 409.659C651.231 408.707 655.865 408.187 657.693 411.437C659.166 416.858 657.846 422.699 656.005 427.879C654.748 433.275 658.252 437.845 662.81 440.27C665.54 442.035 668.739 440.918 670.783 438.658C674.897 432.754 676.89 426.254 676.052 419.004C676.166 414.7 673.386 410.612 674.376 406.625C676.382 403.438 682.007 403.235 684.495 406.015C688.317 410.04 688.596 415.055 688.393 420.324C688.165 423.46 692.227 426.406 695.071 424.755C698.55 421.607 700.544 416.934 701.572 412.44C702.6 408.123 703.388 402.575 700.772 398.677C697.471 393.357 687.377 395.122 684 389.815C682.731 386.234 685.473 381.651 686.514 378.172C689.333 371.76 690.729 365.082 690.793 358.074C690.539 355.28 689.498 351.764 690.285 349.008C691.961 346.241 695.313 346.787 698.042 347.053Z" fill="#1C1C1B"/>
<path d="M898.049 366.466C899.675 368.142 899.344 370.529 900.919 372.345C897.757 376.649 894.786 379.835 890.216 382.692C887.626 385.282 885.975 385.269 882.446 385.422C881.239 382.832 878.319 382.438 877.557 379.632C874.764 374.465 876.072 366.656 881.493 363.673C886.902 360.283 894.291 360.969 898.049 366.466Z" fill="#E20430"/>
<path d="M744.461 366.403C748.054 365.26 750.034 367.723 752.713 369.602C759.379 375.011 766.717 379.264 773.954 383.835C787.273 391.034 800.49 397.877 815.002 402.422C835.05 408.174 857.23 407.958 876.973 401.064C878.51 400.404 880.059 400.251 881.696 400.594C884.096 403.273 883.893 407.895 881.125 410.269C876.935 415.094 871.476 416.808 865.496 418.318C861.573 419.182 859.655 423.549 861.801 426.965C863.553 429.986 866.207 431.637 869.076 433.427C871.374 434.684 870.841 437.782 869.901 439.737C864.582 441.109 858.005 439.775 852.431 440.245C851.187 440.956 849.917 441.553 848.813 442.492C848.66 444.613 848.736 446.758 848.851 448.879C850.057 450.263 851.555 451.151 853.18 451.939C855.719 455.1 855.44 458.465 855.288 462.235C855.491 464.737 853.904 465.536 852.203 466.882C850.031 467.009 847.365 467.669 845.88 465.587C843.861 464.114 845.207 461.296 843.924 459.595C843.163 457.271 839.735 456.687 837.818 455.379C836.015 456.611 834.428 456.624 832.345 456.789L831.52 457.944L830.073 459.81C827.787 463.264 829.857 468.05 826.556 470.336C822.353 471.809 816.97 470.272 814.126 466.781C812.26 464.864 812.425 462.147 809.682 461.105C807.956 457.766 806.635 453.907 806.394 450.136C805.277 448.917 804.096 447.736 802.839 446.67C799.893 446.301 796.986 446.365 794.04 446.631C793.266 447.342 792.542 448.092 791.856 448.879C791.653 450.732 791.577 452.358 790.714 454.059C790.32 456.763 790.968 458.972 789.101 461.334C788.403 463.988 783.82 462.832 781.75 463.111C779.998 462.286 778.309 460.204 777.357 458.528C776.989 454.364 778.043 449.59 776.43 445.679C775.91 444.054 776.659 442.416 774.907 441.604C771.745 439.483 768.444 440.118 764.813 440.22C762.794 441.908 761.487 443.914 760.103 446.098C762.794 450.339 760.915 453.653 756.763 455.57C752.409 456.522 749.488 451.735 747.914 448.409C748.27 445.895 747.114 442.683 749.438 441.109C752.65 438.277 754.719 434.71 757.563 431.574C758.477 430.088 758.769 428.171 759.582 426.571L759.493 426.076C757.919 424.4 756.395 422.711 754.656 421.175C752.396 421.01 750.136 420.947 747.876 421.086C744.13 421.327 742.124 426.698 738.633 426.673C736.436 423.333 741.033 421.899 741.325 417.925L742.67 416.389C747.114 414.992 753.412 412.415 755.176 407.704C756.649 406.092 754.453 404.213 753.716 402.676C752.244 400.505 750.314 401.051 748.143 399.959C745.641 399.248 743.711 399.718 741.464 400.835C739.128 400.658 733.072 402.397 732.996 398.74C734.735 391.859 741.591 389.104 748.054 388.913L748.65 388.177C752.091 386.946 751.736 382.54 749.666 380.242C746.733 378.134 743.521 377.728 740.017 377.576C738.938 376.712 738.366 375.709 738.265 374.579C739.014 370.846 741.54 368.548 744.461 366.403Z" fill="#FACD02"/>
<path d="M829.501 378.16C834.77 380.699 838.097 387.263 836.675 392.976C833.539 394.64 828.384 394.474 825.159 393.078C822.15 392.951 819.751 392.265 816.945 391.275C815.002 389.98 813.783 388.291 811.358 387.898C814.139 386.222 814.456 381.549 817.643 379.899C821.376 377.068 825.121 377.334 829.501 378.16Z" fill="#E20430"/>
<path d="M739.458 389.497C742.493 388.951 745.591 388.571 748.65 388.177L748.054 388.913C741.591 389.104 734.735 391.859 732.996 398.74C733.072 402.397 739.128 400.658 741.464 400.835C743.712 399.718 745.641 399.248 748.143 399.959C750.314 401.051 752.244 400.505 753.716 402.676C754.453 404.213 756.649 406.092 755.176 407.704C753.412 412.414 747.114 414.992 742.67 416.388C746.67 412.757 752.396 412.389 754.542 407.653C754.91 402.27 748.46 399.553 743.851 400.835C741.007 402.181 737.325 402.003 734.227 401.864C731.891 400.442 732.742 397.598 732.945 395.35C734.545 393.002 737.236 391.25 739.458 389.497Z" fill="#FEFEFE"/>
<path d="M741.325 417.925C741.033 421.899 736.436 423.333 738.633 426.673C742.124 426.698 744.13 421.327 747.876 421.086C750.136 420.947 752.396 421.01 754.656 421.175C756.395 422.711 757.919 424.4 759.493 426.076L759.582 426.571C758.769 428.171 758.477 430.088 757.563 431.573C754.719 434.709 752.65 438.277 749.438 441.108C747.114 442.683 748.269 445.895 747.914 448.409C749.488 451.735 752.408 456.522 756.763 455.57C760.915 453.653 762.794 450.339 760.103 446.098C761.486 443.914 762.794 441.908 764.813 440.22C768.444 440.118 771.745 439.483 774.907 441.604C776.659 442.416 775.91 444.054 776.43 445.679C778.043 449.59 776.989 454.364 777.357 458.528C778.309 460.204 779.998 462.286 781.75 463.111C783.82 462.832 788.403 463.987 789.101 461.334C790.968 458.972 790.32 456.763 790.714 454.059C791.577 452.357 791.653 450.732 791.856 448.879C792.542 448.092 793.266 447.342 794.04 446.631C796.986 446.365 799.893 446.301 802.839 446.669C804.096 447.736 805.276 448.917 806.394 450.136C806.635 453.906 807.955 457.766 809.682 461.105C812.425 462.146 812.26 464.863 814.126 466.781C816.97 470.272 822.353 471.808 826.556 470.336C829.857 468.05 827.787 463.264 830.073 459.81C828.778 464.318 830.593 467.847 827.076 471.618C819.687 473.015 813.186 468.876 809.72 462.515C806.279 458.109 807.346 450.72 802.813 447.609C799.766 446.771 795.983 445.755 793.52 448.434C791.425 451.951 791.666 455.24 791.488 459.112C790.32 463.416 784.391 464.94 780.76 463.353C776.024 460.483 776.151 455.709 776.303 450.77C776.481 447.482 776.735 443.127 773.307 441.362C770.171 440.664 768.089 440.436 764.915 441.274C759.315 444.727 764.356 450.225 760.344 454.554C758.617 457.5 756.255 456.75 753.348 456.408C750.986 454.097 748.6 451.9 747.013 448.955C746.974 447 746.555 444.651 747.292 442.81C748.942 440.232 751.228 438.099 752.993 435.611C755.367 432.462 758.554 430.837 758.617 426.457C756.344 422.737 752.37 420.197 747.927 421.848C744.207 422.775 742.188 426.216 739.712 428.793C737.528 428.653 737.985 427.054 737.706 425.378C737.516 422.127 739.814 420.82 741.325 417.925Z" fill="#FEFEFE"/>
<path d="M861.801 426.965C865.013 429.796 868.797 431.218 871.577 434.671C871.869 437.579 872.034 439.788 868.987 441.108C863.198 441.743 857.345 440.461 851.606 441.159C848.571 442.543 848.254 449.717 852.177 450.466C856.253 452.243 856.519 458.147 856.367 461.943C856.659 464.711 854.094 466.235 852.317 467.898C850.362 468.076 848.165 468.38 846.261 467.822C843.734 464.698 844.178 461.029 841.652 458.16C838.529 456.89 834.745 457.195 831.52 457.944L832.345 456.789C834.428 456.623 836.015 456.611 837.817 455.379C839.735 456.687 843.163 457.271 843.924 459.594C845.207 461.296 843.861 464.114 845.88 465.587C847.365 467.669 850.031 467.009 852.203 466.882C853.904 465.536 855.491 464.737 855.288 462.235C855.44 458.464 855.719 455.1 853.18 451.939C851.555 451.151 850.057 450.263 848.851 448.879C848.736 446.758 848.66 444.613 848.813 442.492C849.917 441.553 851.187 440.956 852.431 440.245C858.005 439.775 864.582 441.108 869.901 439.737C870.841 437.782 871.374 434.684 869.076 433.427C866.207 431.637 863.553 429.986 861.801 426.965Z" fill="#FEFEFE"/>
<path d="M773.091 555.453C775.681 555.072 777.484 557.878 778.487 559.884C779.769 565.991 777.255 573.101 772.075 576.732C768.063 580.706 762.502 579.436 761.093 585.365C762.159 587.968 762.578 590.571 765.562 591.599C774.475 594.507 782.347 599.039 790.625 603.369C793.443 605.261 796.922 606.835 799.106 609.476C797.278 613.005 794.231 615.989 790.231 616.865C785.013 623.086 777.992 625.791 771.91 631.161C770.666 632.266 768.965 632.52 767.568 631.504C765.638 628.457 765.219 624.673 763.493 621.487C759.607 614.275 755.659 607.14 752.358 599.636C750.669 596.183 749.234 592.018 745.844 589.898C742.023 589.898 738.696 588.387 737.033 592.869C736.881 601.934 737.896 611.99 735.84 620.852C735.141 627.809 732.335 634.856 730.228 641.522C729.504 642.753 729.06 645.305 727.676 645.889C724.21 634.539 722.547 622.058 718.192 610.86C716.871 606.556 715.106 603.102 711.856 599.954C711.526 596.944 710.155 594.418 708.999 591.675C710.206 587.575 716.16 589.073 719.461 587.105C724.21 584.121 730.012 582.699 734.595 579.728C736.728 578.001 739.458 574.345 742.277 576.948C743.661 575.03 745.121 573.278 746.962 571.767C751.634 567.793 754.427 563.21 760.331 560.747C764.318 559.566 768.635 555.097 773.091 555.453Z" fill="#E20430"/>
<path d="M675.341 570.701C677.157 571.095 677.893 573.774 679.341 574.954C685.574 580.515 689.764 587.359 694.259 594.291C697.852 598.735 700.759 602.975 703.286 608.117C702.448 609.933 700.417 610.212 700.023 612.383C699.007 612.637 697.953 612.739 696.862 612.713C697.077 609.59 696.557 606.188 695.148 603.356C692.799 596.843 684.686 593.466 678.401 592.336C676.217 591.599 673.526 592.894 671.951 591.269C672.611 584.54 672.738 576.973 675.341 570.701Z" fill="#FEFEFE"/>
<path d="M679.874 602.442C682.997 603.978 684.064 607.61 684.66 610.758C683.937 614.339 682.223 617.602 679.315 619.887C675.29 622.706 669.818 622.795 665.692 625.359C663.521 626.857 664.295 630.108 665.489 631.987C667.901 635.859 669.818 639.846 672.967 643.198C673.653 646.765 675.849 649.546 676.928 652.936C677.195 654.815 678.236 655.805 679.391 657.176C679.671 659.322 680.242 661.62 679.988 663.779C679.366 665.442 677.373 666.153 675.938 666.94C665.019 667.346 654.329 670.787 643.537 672.044C640.794 671.917 640.515 670.241 640.655 667.892C640.413 659.36 641.924 651.019 641.975 642.461C643.156 637.637 643.207 632.71 642.902 627.772C641.074 624.648 638.268 623.34 634.675 623.683C630.091 623.544 627.171 629.067 623.768 631.53C618.347 635.389 612.329 641.839 605.765 643.401C605.93 642.563 606.235 641.814 606.692 641.166C612.303 632.533 617.001 623.29 621.381 613.996C622.956 611.152 623.311 607.711 625.178 605.096C630.523 604.118 634.51 606.149 639.728 606.721C644.197 607.851 649.136 607.597 653.719 607.584C660.626 607.584 667.33 605.007 673.729 602.709C675.709 602.201 677.855 602.049 679.874 602.442Z" fill="#E20430"/>
</g>
<defs>
<clipPath id="clip0_2_84">
<rect width="1330" height="730" fill="white"/>
</clipPath>
</defs>
</svg>
