<svg width="1330" height="730" viewBox="0 0 1330 730" fill="none" xmlns="http://www.w3.org/2000/svg">
<g clip-path="url(#clip0_2_195)">
<path d="M0 0H1330V730H0V0Z" fill="#FEFEFE"/>
<path d="M652.879 84.2529C658.125 84.0333 663.382 84.0577 668.627 84.0089C674.214 83.8503 679.85 85.8508 685.424 86.7901C689.669 87.644 694.146 91.401 698.427 89.6201C704.344 87.6806 709.894 85.7045 716.188 85.1555C720.897 84.9116 724.983 83.5576 729.692 84.5578C738.718 85.9484 748.208 84.1309 757.064 85.985C768.104 88.0343 779.253 90.291 790.317 92.1085C801.807 96.0851 814.457 98.3296 825.496 104.392C829.936 106.82 834.73 107.381 838.707 110.796C849.014 118.725 859.81 127.727 866.763 138.852C873.618 147.989 879.998 158.442 882.767 169.616C887.451 166.823 892.416 164.895 897.929 164.749C903.955 165.249 910.006 166.359 915.08 169.836C923.216 175.825 928.779 185.12 928.108 195.464C928.779 204.125 925.68 212.285 919.874 218.665C916.629 223.288 912.909 226.789 908.151 229.839C902.735 232.01 897.466 233.632 891.537 232.486C895.38 238.719 897.929 245.501 901.406 251.893C905.87 263.213 911.299 273.606 913.336 285.78C913.824 289.329 914.909 292.672 916.153 296.014C916.946 295.977 917.727 295.941 918.52 295.904C919.959 295.343 921.411 294.831 922.887 294.331C923.058 293.538 923.241 292.745 923.424 291.94C920.374 287.719 917.373 283.901 916.056 278.717C913.726 265.836 924.57 253.284 936.659 250.307C941.038 248.929 945.295 250.014 949.516 251.417C955.273 254.601 957.896 260.871 960.055 266.738C960.726 266.811 961.384 266.897 962.055 266.97C968.63 260.2 977.413 256.162 986.964 257.175C991.514 258.529 996.308 261.212 998.918 265.299C1001.26 268.714 1003.11 272.898 1001.39 276.997C999.211 281.803 996.125 286.402 993.258 290.817C1000.66 294.587 1007.62 295.855 1013.57 301.881C1015.5 304.211 1017.34 306.931 1016.95 310.103C1016.92 316.031 1014.11 321.716 1009.91 325.79C1005.2 329.254 998.638 330.62 993.307 332.987C996.54 337.939 998.662 343.184 999.528 349.052C999.248 352.833 998.101 356.7 996.881 360.299C994.905 366.446 988.147 370.655 982.146 371.936C975.51 371.094 968.85 368.947 962.799 366.08C957.261 363.348 954.37 358.493 950.516 353.943C943.148 360.286 935.939 366.739 928.071 372.448C927.498 377.486 928.303 383.048 928.108 388.208C927.79 394.795 929.511 401.126 929.315 407.725C930.133 418.63 930.791 429.475 930.084 440.416C929.962 453.895 927.839 467.216 927.73 480.671C927.376 484.94 926.485 489.221 925.509 493.393C921.704 495.772 919.984 499.358 917.398 502.81C914.69 506.555 909.396 505.982 905.126 507.397C889.549 510.459 872.252 508.812 856.455 509.702C851.161 509.788 845.916 509.239 840.622 509.641C831.644 510.3 822.8 509.275 813.859 510.568C808.089 511.471 802.368 510.215 796.635 511.117C790.963 511.861 785.254 512.13 779.533 511.983C777.594 511.813 776.094 512.654 774.361 513.35C774.471 516.302 774.483 519.253 774.508 522.218C777.301 521.657 780.143 520.546 782.998 520.437C784.51 521.73 785.828 523.218 787.292 524.547C791.89 523.572 796.099 520.9 800.588 519.461C804.564 517.96 808.76 517.216 812.749 515.753C822.13 515.265 830.363 518.839 838.121 523.742C841.439 526.487 843.696 530.866 845.55 534.709C848.453 550.481 844.001 565.387 836.328 579.074C833.95 582.623 830.766 585.722 827.936 588.917C823.423 594.065 818.458 599.237 812.725 603.019C809.395 604.861 806.223 606.971 802.93 608.862C795.562 611.997 787.243 613.582 779.607 616.046C776.411 617.132 773.154 617.217 769.811 617.266C766.359 617.254 763.359 618.413 760.028 618.998C755.991 618.157 752.222 616.18 748.16 615.302C738.865 613.021 728.923 608.447 723.922 599.847C721.616 595.346 719.677 590.942 721.116 585.783C723.202 577.573 720.848 570.645 720.482 562.411C719.128 551.945 718.762 541.588 715.981 531.342C714.932 524.73 712.882 517.119 708.076 512.166C700.587 511.3 693.609 511.056 687.022 515.277C684.265 517.729 682.375 521.156 679.923 523.925C676.507 528.28 672.299 531.622 668.03 535.087C667.993 535.758 667.956 536.429 667.92 537.099C675.251 538.856 682.326 540.918 688.913 544.675C693.365 547.078 696.293 552.054 700.294 555.336C702.038 556.995 704.636 558.605 705.685 560.776C706.344 564.241 706.673 567.68 707.881 571.023C711.419 582.33 709.138 594.346 702.941 604.275C698.671 612.045 692.572 618.144 685.595 623.512C670.725 631.111 653.66 633.856 637.083 632.368C632.02 630.928 626.495 631.075 621.286 630.196C613.284 628.44 604.611 628.903 596.56 630.05C589.046 628.94 581.508 629.586 574.006 628.232C566.113 627.683 558.221 626.683 550.317 626.732C544.413 626.878 538.448 626.634 532.568 626.146C530.592 625.829 531.495 623.085 531.117 621.621C536.301 621.45 541.375 622.036 546.511 622.646C555.025 623.048 563.747 622.511 572.298 623.451C576.86 624.012 581.02 625.439 585.679 625.366C591.047 625.305 596.377 625.768 601.744 625.415C600.695 622.463 598.244 621.962 595.767 620.633C592.035 618.864 588.558 616.705 585.033 614.583C580.983 612.277 578.129 608.813 574.445 605.641C570.651 602.116 566.101 599.054 563.491 594.577C560.832 589.991 557.794 585.502 555.635 580.659C553.183 575.024 553.5 569.632 552.634 563.716C552.025 558.983 552.329 554.031 552.366 549.261C554.269 544.418 555.843 538.954 560.002 535.502C564.93 534.574 568.907 535.441 573.481 537.185C580.117 538.173 587.631 536.087 594.072 534.416C601.378 532.025 607.343 524.865 610.978 518.339C612.064 516.643 612.345 515.118 612.235 513.13C609.868 511.727 607.868 513.106 605.197 513.179C601.903 513.069 598.841 511.764 595.499 511.849C588.07 511.788 580.837 511.227 573.518 509.934C566.187 511.154 558.88 511.691 551.5 510.568C543.217 508.97 534.252 509.58 525.908 510.507C519.26 510.946 512.441 510.385 505.818 509.751C497.084 509.3 488.264 509.531 479.555 509.531C472.151 509.8 466.198 506.092 458.818 505.933C453.121 505.811 447.425 506.275 441.716 506.14C435.934 506.287 430.469 504.372 424.663 504.542C418.405 504.323 413.026 505.787 407.049 503.408C403.255 502.066 401.096 502.03 397.278 503.262C393.728 501.627 390.764 499.334 389.837 495.345C389.032 491.82 390.24 488.66 390.825 485.172C392.021 479.195 391.813 473.181 393.423 467.277C394.79 459.958 395.778 452.663 398.266 445.601C402.23 430.816 406.878 416.264 410.598 401.406C410.11 400.516 409.623 399.626 409.135 398.735C401.779 398.491 394.436 395.234 387.715 392.429C386.361 396.308 385.043 400.126 382.738 403.566C379.578 408.433 377.651 413.336 372.821 416.825C365.782 422.583 356.914 426.01 347.765 425.339C340.983 423.107 335.433 418.862 332.225 412.385C329.59 408.213 329.932 403.98 329.346 399.247C329.297 391.624 333.554 386.732 337.043 380.462C330.602 378.059 324.625 377.754 320.002 372.045C315.391 367.447 314.354 361.482 314.086 355.224C313.391 350.247 317.038 345.636 320.258 342.245C324.15 338.903 329.688 337.463 334.128 334.853C331.139 330.059 327.858 325.192 325.687 319.959C324.76 314.738 326.955 308.944 331.176 305.675C336.14 301.698 341.752 300.222 347.802 298.698C354.962 297.514 360.781 303.43 367.929 305.102C368.112 302.272 368.1 299.405 368.539 296.599C370.32 289.878 370.808 283.779 376.334 278.863C381.128 273.508 387.629 274.252 394.241 273.106C397.998 273.862 401.657 275.277 405.256 276.607C407.939 277.595 410.037 279.119 411.501 281.596C413.343 284.828 415.453 288.158 416.527 291.745C416.795 296.599 416.795 301.759 415.49 306.48C414.38 311.054 412.074 314.921 411.684 319.678C414.807 320.935 417.893 322.24 421.113 323.265C422.004 322.228 422.906 321.191 423.797 320.142C424.407 316.775 425.81 313.762 427.066 310.603C429.188 304.406 431.543 298.283 433.836 292.159C436.837 285.231 440.411 278.534 443.57 271.678C445.778 266.946 448.449 263.079 448.73 257.699C445.473 255.711 442.314 253.942 439.679 251.137C433.812 245.55 431.091 238.341 429.152 230.644C429.518 226.96 430.774 223.276 431.872 219.738C435.715 211.431 443.546 206.76 451.34 202.685C456.817 199.77 462.819 198.758 468.833 200.648C472.456 195.976 475.542 190.816 478.225 185.535C484.105 175.166 492.473 167.481 499.17 157.711C505.818 149.501 513.905 142.304 521.444 134.924C524.615 131.838 528.262 129.63 531.727 126.934C544.376 116.176 560.344 110.784 574.542 102.587C580.276 100.159 586.338 98.5248 592.108 96.1339C605.245 91.4254 618.761 89.1443 632.203 85.6557C639.047 84.4968 645.963 86.168 652.879 84.2529Z" fill="#010101"/>
<path d="M658.881 94.5481C669.14 94.5847 678.325 93.7309 687.901 98.2564C689.608 99.0371 690.816 101.233 691.109 103.038C690.145 110.723 687.888 118.042 684.546 125.019C681.899 132.851 677.349 139.425 673.238 146.513C669.469 152.782 665.053 158.54 660.564 164.298C656.734 169.762 652.026 174.349 647.354 179.057C635.656 191.463 621.969 203.759 606.575 211.309C600.647 213.883 595.353 217.396 589.241 219.519C587.021 218.567 585.496 218.384 584.594 220.995C573.225 226.899 559.49 229.192 547.084 231.985C536.325 236.133 524.81 232.278 513.722 232.754C508.611 233.022 504.598 232.144 499.877 230.302C499.841 223.142 495.901 217.189 495.73 210.004C491.131 208.479 487.362 205.735 483.385 203.076C486.081 193 491.851 183.424 498.926 175.788C506.842 165.054 515.21 154.832 525.518 146.244C527.872 144.146 529.848 141.731 532.227 139.682C539.46 134.119 546.474 128.532 554.623 124.312C561.917 119.542 570.42 117.749 577.738 113.102C583.691 109.528 590.083 107.551 596.768 105.856C605.99 102.562 615.089 99.708 624.811 98.1954C636.07 95.2068 647.317 95.0727 658.881 94.5481Z" fill="#F9E502"/>
<path d="M717.384 95.1458C727.96 94.6823 738.548 95.1458 749.136 94.8409C758.687 94.6579 766.53 98.3662 775.813 99.2688C787.67 100.635 798.49 104.831 809.822 108.186C815.03 110.015 819.873 112.687 825.07 114.663C832.047 117.322 838 121.701 843.123 127.069C850.93 134.436 857.7 142.768 863.933 151.477C869.63 162.651 873.338 174.568 875.497 186.901C875.753 188.779 875.948 190.646 875.497 192.5C872.533 194.817 867.946 194.964 864.421 196.269C852.064 200.551 840.317 200.819 827.521 202.112C819.275 202.014 810.883 201.222 802.686 200.282C794.672 199.367 787.523 195.671 779.582 194.635C773.715 193.598 768.104 189.816 762.468 187.779C758.357 186.254 754.527 184.193 750.746 182.009C751.075 181.143 751.234 180.277 751.222 179.399C749.88 178.923 748.404 178.899 746.781 179.326C745.354 178.484 743.964 177.606 742.585 176.691C741.951 175.422 741.012 175.069 739.743 175.63C733.29 171.409 728.508 165.81 723.202 160.321C718.396 155.1 715.908 149.074 712.858 142.768C708.638 133.912 706.527 124.91 704.149 115.456C702.965 110.235 703.161 105.258 703.026 99.9641C707.686 97.6343 712.041 95.3532 717.384 95.1458Z" fill="#F9E502"/>
<path d="M695.415 126.69C699.83 133.046 700.05 140.377 703.478 147.244C707.052 154.38 710.967 161.309 716.347 167.274C721.958 174.678 728.594 181.119 736.34 186.279C746.22 191.865 757.296 195.635 767.518 200.575C772.849 203.417 778.521 202.49 784.083 204.796C788.377 206.577 792.756 207.125 797.367 207.308C798.209 208.004 799.051 208.699 799.892 209.394C813.53 211.48 826.826 210.797 840.622 210.822C848.795 211.187 856.089 207.626 864.25 207.748C873.911 219.604 881.547 233.315 887.658 247.306C889.854 251.6 892.172 255.748 893.709 260.334C895.331 265.445 898.271 269.922 899.991 274.996C902.052 280.144 902.394 285.609 904.138 290.83C905.102 293.794 906.041 296.746 906.517 299.844C909.371 319.398 913.165 338.671 914.982 358.481C915.263 361.506 914.324 364.653 914.226 367.715C914.568 371.399 917.41 374.741 917.788 378.425C918.41 393.026 917.678 407.786 919.032 422.326C919.911 438.001 918.252 453.115 917.239 468.704C916.861 473.937 917.3 478.926 914.946 483.757C913.555 487.136 911.067 489.392 908.444 491.82C908.2 493.076 907.956 494.32 907.712 495.577C900.003 497.297 892.196 497.919 884.328 498.504C876.143 499.017 868.141 497.833 860.151 499.102C850.698 500.59 840.976 498.992 831.559 500.175C824.459 501.493 817.531 500.871 810.127 501.2C796.672 501.188 783.351 502.627 769.872 502.213C764.054 502.188 758.967 501.066 753.844 504.603C747.769 504.018 741.731 503.164 735.705 502.2C729.923 501.273 724.434 502.554 718.689 502.213C710.967 501.749 703.209 501.956 695.463 501.81C690.913 501.822 686.132 501.456 681.631 502.213C679.325 505.457 677.508 509.007 675.044 512.166C672.421 512.093 669.481 511.605 666.907 512.239C661.308 514.521 658.478 520.217 655.258 524.938C651.782 521.266 648.805 517.241 645.658 513.301C643.902 513.386 642.145 513.484 640.401 513.569C638.998 515.155 637.595 516.753 636.192 518.326C636.351 519.985 636.522 521.644 636.692 523.303C638.632 526.194 640.376 529.207 642.194 532.184C642.34 533.538 642.474 534.892 642.621 536.233C641.023 537.856 639.4 539.783 637.436 540.954C635.338 541.54 632.972 541.393 630.837 541.052C624.762 539.649 619.224 537.526 615.492 532.245C617.688 529.39 619.371 526.487 620.835 523.193C623.823 516.423 626.909 510.361 626.385 502.737C623.469 501.773 620.554 500.773 617.627 499.858C615.528 501.041 613.918 502.505 611.369 502.408C600.354 502.261 589.363 502.456 578.36 501.92C567.163 501.456 556.489 502.81 545.438 501.566C540.534 501.09 535.691 501.017 530.775 501.334C517.833 502.469 504.622 501.773 491.765 499.944C487.459 499.456 483.544 500.407 479.311 500.846C474.59 501.371 470.65 499.541 466.064 498.565C453.634 495.516 439.008 499.773 426.92 495.577C422.406 494.198 418.259 494.845 413.648 494.784C409.403 494.833 404.951 493.308 400.803 492.381C400.815 485.184 401.108 478.121 402.682 471.07C404.963 461.69 406.012 452.224 409.244 443.063C411.343 437.586 411.83 431.743 414.014 426.327C416.661 419.521 418.247 412.299 420.601 405.383C421.577 402.431 423.285 399.699 424.09 396.698C424.797 394.039 422.284 391.233 419.979 390.306C414.002 389.513 408.549 391.306 402.987 388.598C398.376 386.439 393.399 386.195 389.044 383.426C385.446 381.157 381.75 381.523 377.7 381.316C375.858 386.159 376.944 391.087 375.955 395.966C371.101 403.041 366.892 410.262 358.768 413.702C355.023 414.922 350.791 416.105 346.826 415.703C342.679 414.776 340.117 410.567 339.812 406.53C339.568 402.687 339.336 398.174 340.849 394.551C345.631 386.342 351.278 379.072 360.671 376.022C360.854 372.509 360.513 369.85 359.378 366.532C357.524 366.507 355.67 366.556 353.828 366.69C350.486 367.922 347.753 370.155 344.179 370.399C339.361 370.874 334.238 370.435 329.383 370.24C324.955 366.251 324.467 361.482 323.125 356.005C325.272 352.797 327.102 349.771 330.578 347.808C337.507 344.343 344.789 341.904 352.486 344.526C354.901 345.221 357.731 346.917 360.22 345.941C362.269 344.197 363.062 340.415 360.915 338.476C358.061 334.877 354.169 335.524 350.254 333.353C347.546 331.852 344.655 330.828 341.837 329.559C338.239 326.448 334.847 322.033 336.604 316.983C338.446 311.152 343.777 309.712 349.095 308.48C353.486 307.139 358.585 310.408 362.586 312.006C367.77 314.116 369.307 318.507 373.235 322.045C375.285 321.642 377.273 321.032 379.261 320.41C379.395 315.165 378.273 310.225 376.809 305.223C377.639 301.357 378.017 297.38 378.993 293.55C380.469 288.854 384.165 285.926 387.605 282.693C391.484 282.547 395.814 282.023 399.596 283.011C402.938 284.34 405.524 287.609 406.597 290.988C407.134 294.123 406.78 297.465 406.744 300.637C403.609 306.456 402.999 312.213 397.254 316.287C397.217 317.763 397.205 319.239 397.18 320.703C398.388 322.155 399.583 323.606 400.791 325.046C405.926 327.156 410.318 330.096 415.929 330.84C420.345 334.036 424.919 336.573 430.445 334.28C432.592 333.548 432.275 330.242 432.726 328.425C433.226 324.058 435.068 320.496 436.312 316.336C439.899 302.674 445.839 289.537 452.048 276.887C454.012 272.532 455.915 267.543 458.891 263.798C460.733 261.395 463.319 261.298 466.076 260.968C470.943 260.578 475.761 259.419 480.372 257.87C487.398 253.735 492.546 247.88 496.901 241.049C506.123 243 515.32 242.659 524.688 242.634C530.653 242.561 536.972 243.391 542.864 242.598C547.645 241.976 551.476 239.268 556.391 238.89C563.332 238.67 569.273 235.523 576.055 234.352C591.9 229.314 607.173 222.227 621.567 213.92C626.861 210.968 630.91 206.552 635.973 203.32C641.328 199.99 645.451 194.72 650.208 190.536C655.563 184.876 661.735 179.753 666.261 173.446C672.884 164.761 679.423 156.515 684.753 146.952C686.79 143.17 690.206 139.852 691.389 135.79C692.377 132.533 693.573 129.581 695.415 126.69Z" fill="#EE1464"/>
<path d="M903.235 175.727C907.48 177.533 912.945 180.228 914.982 184.608C917.91 190.597 917.263 198.331 915.214 204.491C911.445 212.102 904.992 218.409 897.039 221.568C892.476 219.873 889.634 220.751 885.279 222.19C883.913 219.641 882.632 217.055 881.413 214.432C881.278 213.834 881.144 213.249 881.01 212.651C878.839 210.407 878.363 207.613 877.387 204.735C880.132 203.881 882.876 203.185 885.682 202.6C886.792 200.526 888.012 199.099 889.805 197.586C889.646 196.818 889.488 196.037 889.329 195.269C890.061 189.828 889.232 185.132 887.402 180.033C892.171 176.374 897.136 174.239 903.235 175.727Z" fill="#F9E502"/>
<path d="M739.742 175.63C741.011 175.069 741.95 175.422 742.584 176.691C741.389 176.996 740.437 176.642 739.742 175.63Z" fill="#FEFEFE"/>
<path d="M746.781 179.326C748.403 178.899 749.879 178.923 751.221 179.399C751.233 180.277 751.075 181.143 750.745 182.009C749.318 181.265 748.049 180.302 746.781 179.326Z" fill="#FEFEFE"/>
<path d="M687.571 191.317C690.633 193.634 690.316 196.879 690.377 200.343C690.56 208.455 685.278 216.603 680.972 223.178C678.435 222.934 674.678 223.788 672.811 221.775C669.615 219.104 670.03 215.066 670.36 211.322C671.006 203.856 675.617 196.891 681.374 192.317C683.143 190.816 685.412 190.67 687.571 191.317Z" fill="#010101"/>
<path d="M722.263 193.659C723.483 195.659 725.129 197.879 725.52 200.221C725.959 208.528 723.97 216.872 717.847 222.812C716.066 222.764 714.285 222.715 712.504 222.678C710.723 221.007 708.93 219.336 707.112 217.689C706.808 214.31 706.259 210.956 707.112 207.626C708.723 202.063 711.943 197.538 715.761 193.293C717.932 193.281 720.104 193.427 722.263 193.659Z" fill="#010101"/>
<path d="M889.329 195.269C889.488 196.037 889.647 196.818 889.805 197.586C888.012 199.099 886.792 200.526 885.682 202.6C882.877 203.185 880.132 203.881 877.387 204.735C878.363 207.613 878.839 210.407 881.01 212.651C881.144 213.249 881.279 213.834 881.413 214.432C878.985 211.431 876.79 208.406 875.033 204.966C878.619 203.405 882.401 202.21 885.865 200.404C888.049 199.331 888.561 197.379 889.329 195.269Z" fill="#FEFEFE"/>
<path d="M474.139 209.516C477.713 210.212 479.567 212.59 481.982 215.006C484.568 217.75 487.642 220.202 488.203 224.166C489.008 231.01 486.825 238.231 482.495 243.574C475.798 250.539 465.563 252.503 456.293 250.734C449.767 248.77 444.29 243.403 441.167 237.45C438.032 232.315 439.923 225.008 443.704 220.726C448.193 216.116 453.695 212.066 459.782 209.846C464.124 208.065 469.589 208.906 474.139 209.516Z" fill="#F9E502"/>
<path d="M589.241 219.519C587.778 220.629 586.411 220.934 584.594 220.995C585.496 218.384 587.021 218.567 589.241 219.519Z" fill="#FEFEFE"/>
<path d="M806.028 242.598C806.808 247.099 806.455 251.698 807.15 256.174C809.077 261.273 812.383 266.018 815.53 270.446C820.47 270.471 825.167 270.873 829.985 271.996C830.058 274.033 831.022 276.777 829.79 278.546C820.568 280.717 814.347 275.618 806.418 272.996C796.049 281.608 789.487 295.648 785.681 308.334C783.144 314.592 780.802 320.874 779.301 327.485C778.411 332.596 778.667 337.842 777.764 342.953C777.13 347.588 775.105 351.857 774.434 356.444C773.934 361.896 774.654 367.3 773.751 372.777C772.47 380.401 771.982 388.135 770.653 395.759C769.848 400.723 768.14 405.31 766.908 410.177C765.395 417.374 760.455 423.388 756.844 430.06C752.514 437.818 745.683 441.234 738.974 446.589C735.266 449.675 731.057 450.248 726.715 451.944C724.08 452.932 721.482 453.786 718.627 453.725C710.76 453.688 702.575 453.139 694.926 451.163C690.242 449.992 685.741 449.919 681.252 448.26C676.056 446.345 670.847 445.393 666.004 442.575C653.806 436.281 642.523 428.974 633.167 418.825C624.567 411.055 618.846 401.48 612.771 391.745C608.758 383.097 604.062 373.57 604.513 363.812C604.635 359.237 604.525 354.687 604.403 350.113C604.111 343.867 606.855 338.573 607.404 332.328C609.002 323.277 608.234 314.348 608.49 305.26C609.209 298.819 608.77 292.415 607.977 286.011C607.245 280.79 605.013 276.582 602.976 271.825C600.866 270.068 598.865 267.97 596.474 266.616C591.9 265.543 589.156 267.909 585.789 270.471C583.435 270.459 581.068 270.41 578.714 270.361C578.775 268.8 578.738 267.25 578.885 265.701C582.093 263.359 585.984 262.347 589.217 259.932C594.108 256.309 597.706 250.697 601.268 245.818C604.476 245.818 607.184 246.172 610.234 247.172C609.331 251.246 608.136 253.442 605.452 256.492C610.307 261.847 613.052 268.043 616.589 274.264C619.749 280.62 623.908 286.328 628.47 291.744C631.886 295.806 636.143 298.624 640.034 302.162C645.414 307.017 652.781 309.505 659.454 311.823C666.858 315.543 676.287 315.092 684.472 315.519C693.243 316.08 701.684 313.957 710.442 314.055C710.638 313.469 710.845 312.896 711.052 312.323C722.677 311.664 734.351 306.992 744.902 302.223C753.222 297.831 762.382 293.745 769.714 287.829C774.861 283.462 779.887 279.583 784.315 274.533C788.633 269.58 794 264.579 797.294 258.907C798.087 256.296 797.086 253.088 797.147 250.344C796.879 247.111 797.879 244.232 799.026 241.293C801.368 241.646 803.698 242.147 806.028 242.598Z" fill="#010101"/>
<path d="M944.709 260.541C945.856 261.761 947.003 262.969 948.149 264.177C948.966 267.799 950.052 271.069 950.247 274.789C950.564 279.339 946.295 283.877 947.454 288.329C948.235 290.671 949.662 292.855 950.882 295.001C953.419 294.465 956.627 294.343 958.859 293.074C961.47 289.293 960.579 283.486 963.86 279.656C969.081 273.069 977.071 266.323 985.964 266.604C987.403 268.373 989.086 270.215 990.099 272.264C989.196 278.424 984.231 284.194 980.133 288.646C975.266 294.245 967.874 294.453 963.043 300.259C965.007 303.223 967.069 306.041 969.472 308.676C975.985 307.407 980.596 302.686 987.147 301.588C994.246 299.808 1000.28 303.43 1005.77 307.48C1005.81 309.334 1005.86 311.201 1005.9 313.055C1001.26 317.458 997.698 322.667 990.684 322.923C983.17 324.338 976.73 320.423 969.545 323.106C969.472 324.985 969.374 326.851 969.264 328.73C972.802 331.999 976.791 333.853 981.109 335.841C985.061 337.72 986.964 341.367 987.549 345.551C987.818 352.248 985.317 357.969 980.047 362.14C975.4 361.665 971.045 360.201 966.934 358.005C964.202 356.066 962.043 353.199 959.994 350.577C956.895 346.758 956.737 342.294 951.784 340.22C952.455 339.94 953.114 339.659 953.773 339.379C951.504 339.135 949.235 338.915 946.966 338.708C943.282 342.953 940.501 347.466 936.353 350.979C933.719 353.236 931.194 355.553 928.839 358.103C927.766 358.164 926.692 358.225 925.607 358.286C922.972 347.82 922.142 337.183 921.325 326.473C919.971 320.13 918.093 314.043 917.995 307.48C921.606 306.443 924.851 304.675 928.29 303.26C931.291 302.442 934.353 301.93 937.354 301.101C937.805 299.527 938.281 297.941 938.757 296.368C934.89 289.5 929.01 286.694 926.778 279.302C925.204 275.082 927.961 271.056 930.084 267.604C933.475 262.493 938.635 260.176 944.709 260.541Z" fill="#EE1464"/>
<path d="M739.682 512.91C747.501 514.081 755.003 513.362 762.846 513.288C763.407 516.643 763.944 519.985 764.152 523.376C760.943 525.365 758.235 527.609 755.601 530.305C755.637 532.318 755.674 534.33 755.723 536.343C758.406 538.795 761.224 541.003 764.286 542.967C764.347 543.625 764.396 544.296 764.457 544.955C757.784 549.773 749.977 550.212 742.036 549.615C738.584 548.663 735.388 546.651 732.131 545.187C731.021 544.528 729.472 544.052 729.338 542.564C728.179 535.087 726.996 526.743 723.544 519.924C722.543 517.838 721.836 515.655 721.177 513.435C727.398 513.532 733.607 511.873 739.682 512.91Z" fill="#EE1464"/>
<path d="M670.664 516.094C670.579 517.338 670.493 518.583 670.408 519.839C668.566 521.656 666.81 523.523 665.114 525.487C663.858 525.401 662.601 525.328 661.345 525.255C663.845 521.01 666.078 518.192 670.664 516.094Z" fill="#EE1464"/>
<path d="M645.451 519.888C648.951 523.059 650.647 527.487 651.232 532.098C645.975 530.866 642.194 525.718 642.511 520.376C643.316 519.436 644.438 518.973 645.451 519.888Z" fill="#EE1464"/>
<path d="M777.362 526.938C778.082 527.316 778.802 527.707 779.509 528.109C778.68 529.951 777.24 530.866 775.654 531.976C775.496 530.634 775.362 529.293 775.228 527.939C775.935 527.597 776.655 527.268 777.362 526.938Z" fill="#FEFEFE"/>
<path d="M825.813 528.329C832.01 529.902 834.339 536.172 834.949 541.893C834.84 550.347 832.266 558.873 829.021 566.631C825.24 573.426 820.312 579.988 814.652 585.343C812.98 586.917 811.809 586.978 809.65 586.392C807.357 582.538 807.015 577.317 806.381 572.95C805.418 561.337 805.564 549.322 812.675 539.502C814.627 536.404 816.506 532.684 819.275 530.268C821.324 528.658 823.081 526.963 825.813 528.329Z" fill="#099CD9"/>
<path d="M805.174 529.719C803.71 534.66 800.722 538.392 797.477 542.271C793.244 542.064 789.487 542.625 785.401 543.625C785.047 542.625 784.681 541.613 784.315 540.612C790.133 534.574 797.391 532.244 805.174 529.719Z" fill="#FEFEFE"/>
<path d="M766.018 530.769C765.908 533.306 765.725 535.831 765.481 538.344C764.371 537.478 763.236 536.636 762.078 535.831C762.407 534.44 762.785 533.086 763.224 531.744C764.151 531.415 765.078 531.086 766.018 530.769Z" fill="#EE1464"/>
<path d="M606.929 541.918C607.392 546.394 607.892 550.566 606.807 555.031C605.965 558.349 604.66 561.569 603.477 564.789C601.305 570.803 597.585 575.987 595.206 581.94C592.474 588.527 587.058 593.236 584.435 599.932C583.215 599.969 581.983 600.006 580.763 600.03C576.214 592.943 569.809 588.783 566.723 581.257C565.32 578.061 564.406 574.719 564.271 571.206C564.101 565.472 562.942 559.69 563.32 554.006C563.381 550.92 565.735 548.529 567.504 546.224C575.774 546.821 584.057 546.565 592.315 545.907C597.585 545.541 601.757 542.784 606.929 541.918Z" fill="#099CD9"/>
<path d="M658.783 544.248C662.308 545.199 665.712 545.748 668.712 547.98C666.846 549.212 664.846 551.03 662.613 551.469C660.222 549.761 658.478 547.614 656.551 545.431C657.295 545.028 658.027 544.638 658.783 544.248Z" fill="#FEFEFE"/>
<path d="M618.432 546.48C619.212 546.248 619.993 546.053 620.774 545.882C624.946 548.712 629.495 549.956 634.363 550.957C638.449 551.201 642.779 549.383 646.585 548.053C648.33 547.517 649.94 546.504 651.538 547.956C654.673 550.774 657.82 552.738 657.442 557.458C655.27 556.958 653.123 556.153 650.903 555.885C647.256 558.69 644.121 562.569 642.621 566.948C640.364 572.23 648.366 577.183 652.696 574.78C655.173 573.279 657.539 571.218 659.052 568.717C659.405 566.314 659.015 563.679 659.613 561.349C660.54 560.52 661.467 559.715 662.418 558.922C665.773 562.033 668.92 565.277 671.957 568.705C667.347 573.718 662.357 577.329 658.918 583.379C657.039 586.758 654.807 589.869 652.648 593.053C649.354 598.188 649.488 603.226 647.817 608.983C646.988 613.655 646.951 618.388 645.658 623.011C640.73 623.426 636.009 622.646 631.154 621.95C622.055 621.17 612.808 617.522 604.123 614.778C599.829 613.521 596.438 610.85 593.499 607.581C595.17 604.263 596.89 601.006 599.207 598.078C604.928 591.003 608.49 581.684 612.564 573.511C615.748 567.79 616.224 561.179 618.456 554.921C619.651 551.981 618.773 549.444 618.432 546.48Z" fill="#FEFEFE"/>
<path d="M796.233 547.492C796.709 552.286 794.977 556.678 795.025 561.447C794.94 567.083 794.379 573.438 796.111 578.842C797.758 584.453 799.307 590.101 801.063 595.675C800.417 598.005 796.721 599.603 794.659 600.64C787.523 603.067 780.168 604.836 773.056 607.337C770.336 602.689 769.909 597.676 768.702 592.443C767.299 585.587 763.017 579.073 759.187 573.304C756.211 568.888 751.917 566.424 748.27 562.764L748.818 559.995C752.039 559.593 755.406 559.764 758.516 559.093C765.384 557.287 771.678 556.434 776.765 550.932C777.448 550.957 778.143 550.993 778.838 551.018C778.838 553.311 778.85 555.616 778.838 557.91C777.557 559.934 776.362 561.996 775.179 564.082C776.85 567.522 779.021 569.815 782.022 572.145C785.23 569.974 788.292 568.278 790.28 564.802C792.159 562.167 791.512 557.873 788.633 556.19C786.084 554.506 784.376 553.482 783.474 550.347C784.498 549.847 785.547 549.371 786.596 548.919C789.731 547.822 792.939 547.553 796.233 547.492Z" fill="#FEFEFE"/>
<path d="M678.325 549.444C682.558 551.03 686.376 554.457 689.425 557.714C685.168 559.764 681.094 562.13 677.056 564.594C673.75 562.313 669.847 559.788 667.615 556.385C667.664 554.055 669.993 553.36 671.579 552.115C673.458 551.091 676.08 548.834 678.325 549.444Z" fill="#FEFEFE"/>
<path d="M732.631 564.106C736.889 564.704 739.963 567.095 743.183 569.73C747.574 572.901 750.038 578.756 752.954 583.318C755.771 587.661 755.82 592.284 757.443 597.066C758.565 600.335 759.199 604.568 756.808 607.434C751.905 606.605 747.477 604.129 742.573 603.092C739.767 600.859 735.498 598.347 734.339 594.797C733.998 591.235 735.339 588.064 734.107 584.489C731.887 577.695 732.461 571.157 732.631 564.106Z" fill="#099CD9"/>
<path d="M693.939 567.949C697.232 571.474 697.22 576.402 697.366 580.928C697.257 585.173 697.793 589.21 695.525 592.967C692.365 598.542 689.34 604.678 684.351 608.764C680.655 611.911 676.532 615.107 672.019 616.961C666.688 619.023 661.687 621.133 655.819 620.694C657.222 615.278 658.296 609.776 659.613 604.336C660.93 599.127 664.626 595.602 667.127 590.479C671.043 582.391 678.862 577.646 685.803 572.499C688.169 570.864 690.926 567.985 693.939 567.949Z" fill="#099CD9"/>
<path d="M896.734 619.254C901.893 619.572 906.187 618.01 910.688 621.218C909.944 622.621 909.53 624.744 907.907 625.378C904.187 625.951 900.405 624.536 896.697 624.256C887.707 624.097 878.9 625.671 869.91 625.439C859.102 625.378 848.782 627.708 838.207 629.135C825.216 629.025 812.224 629.025 799.233 629.769C793.951 630.147 788.548 630.404 783.254 630.147C778.691 629.44 774.569 628.318 769.945 629.538C764.993 630.989 760.272 630.062 755.222 630.318C752.38 630.404 749.599 630.062 746.818 629.513C741.17 628.415 735.4 629.513 729.63 628.574C723.19 627.452 716.639 628.257 710.089 627.781C703.685 627.232 697.403 628.427 691.011 627.952C691.072 626.366 691.181 624.792 691.328 623.207C704.429 622.889 717.822 622.243 730.838 624.024C737.376 624.878 743.939 623.792 750.428 624.841C756.93 625.793 763.419 625.451 769.884 624.353C780.497 623.707 790.926 626.256 801.649 624.89C808.98 623.719 816.164 624 823.557 624.134C832.742 624.219 842.183 623.792 851.21 622.097C858.956 618.998 866.226 621.462 874.13 620.108C881.315 618.376 889.317 619.462 896.734 619.254Z" fill="#010101"/>
<path d="M943.77 627.879C943.953 631.245 943.929 631.709 941.379 634.014C931.767 633.441 922.326 634.49 912.774 635.246C897.075 637.418 880.803 636.625 864.994 636.503C861.322 636.637 857.712 637.247 854.04 637.381C845.404 637.979 837.133 636.6 828.558 638.467C815.64 639.686 802.381 638.845 789.426 639.174C787.413 639.845 785.449 640.443 783.303 640.394C776.337 640.345 769.47 639.796 762.553 638.979C749.148 638.674 735.717 639.186 722.299 639.016C708.332 639.357 693.768 638.259 679.715 639.223C676.312 640.504 672.994 640.528 669.42 640.26C669.225 639.04 669.042 637.82 668.859 636.588C674.25 635.197 680.118 633.624 685.705 633.892C707.613 634.624 729.874 633.795 751.721 634.588C756.54 634.148 761.358 634.051 766.176 634.563C778.35 635.905 790.585 634.636 802.966 634.88L803.869 634.209C813.298 634.954 822.959 634.234 832.315 632.904C839.146 632.294 846.014 632.88 852.893 632.38C858.114 631.196 863.372 631.184 868.69 631.44C878.595 631.648 889.146 632.38 898.966 630.977C904.736 630.465 910.493 630.611 916.239 629.708C923.131 628.61 930.047 629.574 936.915 628.501C939.184 628.123 941.465 627.988 943.77 627.879Z" fill="#010101"/>
<path d="M480.214 636.332C488.948 637.747 497.608 637.015 506.391 637.344C512.527 637.54 518.54 636.405 524.676 636.564C537.252 636.942 549.902 635.795 562.478 636.344C568.407 636.454 573.652 639.259 579.556 639.003C602.098 638.942 624.689 639.357 647.219 638.784C649 640.211 650.245 641.577 651.391 643.59C649 643.822 646.634 644.09 644.231 644.005C632.862 643.309 621.469 644.066 610.076 643.651C600.695 643.212 591.425 644.102 582.117 642.931C576.738 642.419 571.712 643.163 566.443 641.626C559.844 639.772 553.366 640.309 546.645 640.87C540.961 640.967 535.252 641.236 529.568 641.028C520.163 639.699 510.941 642.114 501.426 641.724L500.585 642.455C493.741 641.236 486.276 642.431 479.823 639.906C479.909 638.698 480.031 637.515 480.214 636.332Z" fill="#010101"/>
<path d="M584.52 646.774C592.778 647.298 600.683 648.811 608.953 648.298C619.492 648.25 630.019 648.811 640.571 648.433C649.512 648.75 658.417 649.323 667.383 649.03C683.521 648.579 700.184 649.811 716.2 647.798C741.414 647.481 766.603 646.92 791.829 647.176C811.773 647.505 831.68 646.7 851.624 647.371C853.698 647.469 855.711 647.701 857.736 648.091C868.421 649.591 878.497 646.042 889.232 647.176C890.951 647.603 892.391 649.201 893.83 650.213C893.245 650.958 892.659 651.714 892.086 652.458C885.853 652.495 879.863 651.994 873.642 652.8C871.178 653.129 868.751 653.324 866.275 652.97C859.37 652.007 852.466 652.482 845.55 651.848C839.817 652.08 834.096 651.811 828.375 651.885C818.25 652.312 808.052 652.458 797.916 651.994C789.096 650.97 779.972 651.25 771.08 651.458C759.833 652.69 748.11 651.336 736.937 653.104C729.484 653.983 722.397 651.653 714.956 652.556C700.806 654.593 686.497 652.873 672.274 653.47C664.736 653.897 656.514 654.324 649.11 652.641C644.645 652.214 640.217 652.519 635.753 652.507C621.127 651.836 606.416 652.8 591.79 652.47C584.886 651.946 578.092 651.202 571.151 651.08L572.151 647.957C575.188 645.054 580.739 646.53 584.52 646.774Z" fill="#010101"/>
</g>
<defs>
<clipPath id="clip0_2_195">
<rect width="1330" height="730" fill="white"/>
</clipPath>
</defs>
</svg>
