<svg width="1330" height="730" viewBox="0 0 1330 730" fill="none" xmlns="http://www.w3.org/2000/svg">
<g clip-path="url(#clip0_2_507)">
<path d="M0 0H1330V730H0V0Z" fill="#FEFEFE"/>
<path d="M719.71 50.2507C724.111 50.5551 728.475 51.5065 732.61 53.0413C740.512 56.2123 748.186 56.9227 755.175 62.2627C762.43 68.0468 768.95 74.8836 774.557 82.2785C779.009 88.1006 781.419 94.6204 784.932 100.95C788.814 97.3221 791.82 93.5802 796.703 91.1702C803.819 87.4157 812.686 87.4284 820.271 89.6227C826.588 90.98 831.395 97.1192 833.678 102.852C835.213 106.049 833.386 110.767 836.05 113.139C841.568 119.152 846.312 125.228 848.087 133.409C847.301 148.732 841.352 163.509 828.034 172.033C827.983 172.832 827.932 173.631 827.881 174.43C835.454 175.66 843.026 176.65 850.497 178.438C861.089 180.734 871.439 182.624 881.295 187.368C892.711 192.112 903.239 198.847 909.2 210.047C913.373 218.711 914.071 229.239 913.107 238.676C911.686 243.369 908.35 247.935 905.167 251.626C900.461 255.736 895.755 260.163 890.402 263.41C883.933 263.778 878.39 265.909 872.441 268.243C866.518 270.551 861.013 267.926 855.774 265.237C847.212 247.428 835.733 231.535 822.617 216.833C817.252 210.961 812.064 204.631 805.341 200.331C803.642 207.79 804.542 215.299 802.513 222.656C800.661 229.416 798.289 236.393 794.103 242.063C790.919 246.413 787.228 250.434 783.296 254.113C777.575 259.478 770.561 262.776 763.458 265.934C750.431 271.642 736.187 273.431 722.158 274.991C711.579 276.285 701.077 275.879 690.46 275.955C680.541 276.094 670.292 274.433 660.36 273.456C647.371 272.124 634.624 268.839 622.878 263.03C611.944 257.994 602.71 249.128 595.848 239.361C588.935 228.427 589.607 217.417 589.442 205.05C586.093 207.054 582.872 209.185 580.119 211.988C568.374 224.152 558.175 237.395 547.85 250.751C540.43 261.343 533.187 272.594 528.304 284.593C525.374 291.721 521.898 298.711 519.501 306.029C517.674 311.522 517.269 317.318 515.569 322.811C514.795 325.068 513.374 327.174 510.685 326.641C507.882 324.244 505.802 320.73 502.732 318.726C498.699 316.557 493.803 315.707 489.338 314.82C487.258 319.005 485.469 323.267 484.036 327.719C481.372 336.091 477.516 343.588 476.032 352.327C481.435 354.369 486.94 355.904 492.686 356.614C496.961 357.325 501.959 357.058 505.929 358.758C508.123 361.434 506.335 366.381 505.992 369.527C502.948 384.025 502.872 398.701 503.671 413.427C505.028 425.896 507.996 438.365 511.789 450.313C515.493 461.64 521.289 471.382 527.644 481.364C536.282 494.797 548.256 505.832 561.232 515.003C569.921 521.206 579.637 525.975 589.632 529.653C597.281 532.101 605.158 534.207 612.946 536.186C626.493 538.938 640.484 539.877 654.284 540.067C656.212 547.678 656.212 553.614 654.538 561.275C658.013 563.102 661.375 564.827 665.243 565.727C669.822 566.894 675.112 566.362 679.818 566.095C680.807 559.88 681.15 553.639 681.264 547.361C681.809 552.992 683.268 559.398 682.05 565.004C681.352 568.594 676.799 568.29 673.996 568.772C667.336 569.406 657.582 568.188 653.599 562.1C652.052 556.569 654.513 549.758 652.534 544.291C646.065 540.93 639.9 540.689 633.634 544.735C611.741 543.238 589.709 537.67 570.048 527.839C553.406 519.468 539.162 507.418 527.112 493.287C519.742 483.876 513.565 473.272 508.237 462.591C505.117 456.478 503.975 450.123 501.921 443.667C497.925 432.022 495.566 419.655 495.553 407.326C495.464 398.447 495.249 389.479 495.959 380.626C496.809 374.981 497.874 369.413 498.166 363.679C496.796 363.553 495.426 363.413 494.056 363.286C490.822 370.148 485.291 377.378 478.036 380.22C474.041 382.034 468.878 381.615 464.565 381.552C458.946 381.577 454.101 378.444 449.293 375.932C445.678 377.962 442.292 380.347 438.626 382.262C440.25 377.835 442.101 373.687 447.213 372.584C451.399 372.279 455.915 374.512 459.91 375.565C465.885 377.277 472.493 377.264 477.656 373.383C481.435 370.529 485.203 365.544 484.378 360.546C478.226 357.807 471.44 358.936 465.326 355.676C472.087 342.903 477.96 330.015 480.801 315.733C481.575 313.056 481.702 308.642 485 307.856C488.716 307.932 492.407 308.934 496.098 309.378C496.01 306.549 496.137 303.581 495.566 300.791C494.17 298.267 491.824 296.136 489.947 293.954C487.993 291.798 486.611 289.35 485.431 286.711C490.391 287.485 494.957 288.538 498.749 292.026C502.682 296.186 505.459 301.235 505.802 307.057C505.929 310.126 506.233 312.562 507.705 315.327C511.32 309.327 512.055 302.82 514.82 296.402C518.765 287.003 522.774 277.629 527.137 268.42C510.584 269.435 494.602 262.332 483.325 250.396C480.522 247.2 478.379 243.661 479.393 239.234C481.753 230.812 486.636 223.429 492.851 217.328C507.21 204.466 524.067 196.577 542.219 190.539C553.305 185.935 564.898 184.527 576.453 181.609C587.527 178.781 599.184 177.258 610.194 175.178C610.206 169.229 609.965 163.357 610.561 157.42C611.221 150.216 610.549 143.48 612.147 136.339C613.935 125.9 616.498 115.283 620.709 105.554C629.524 90.2062 640.255 76.1901 655.274 66.4486C665.091 59.8908 676.761 55.8064 688.037 52.5466C698.489 49.5531 708.966 49.8448 719.71 50.2507Z" fill="#040402"/>
<path d="M717.16 56.1363C728.588 57.0369 740.79 60.4616 750.088 67.3619C758.637 74.3636 766.603 82.8875 771.6 92.8319C776.928 102.891 779.528 113.672 781.126 124.872C772.019 125.583 762.962 125.05 753.881 124.264C739.129 123.541 724.25 124.01 709.486 124.023C693.059 124.619 676.76 126.179 660.448 128.069C646.851 130.06 633.532 133.168 620.125 136.085C621.812 120.37 627.824 105.58 637.578 93.149C644.136 84.8916 651.214 77.0019 660.271 71.4335C672.206 63.9879 685.829 59.079 699.63 56.5041C705.439 55.3245 711.299 55.4767 717.16 56.1363Z" fill="#389658"/>
<path d="M705.63 59.4088C720.267 58.3053 735.501 61.4637 747.754 69.7211C755.213 75.5559 762.125 82.9128 766.869 91.1449C771.956 100.861 776.484 110.285 776.674 121.498C760.629 121.549 744.57 120.56 728.512 120.649C715.663 120.902 703.22 120.268 690.421 121.917C673.919 124.061 658.114 124.454 641.764 128.082C636.056 129.388 630.361 130.441 624.539 131.113C626.137 114.446 636.044 98.3749 647.269 86.3629C654.905 77.801 664.634 71.4335 675.34 67.4253C685.474 63.7341 694.709 59.9035 705.63 59.4088Z" fill="#019F43"/>
<path d="M804.745 95.2419C809.387 94.1891 815.679 93.7452 819.763 96.6499C823.378 99.3897 825.154 104.298 826.232 108.535C819.763 110.083 813.256 109.677 806.901 111.795C800.191 113.672 795.79 118.923 789.181 121.448C787.773 110.996 794.42 98.5018 804.745 95.2419Z" fill="#FDFB81"/>
<path d="M816.782 98.21C820.257 99.5165 820.714 103.512 822.058 106.531C815.856 107.596 809.108 108.155 803.362 110.704C799.48 112.404 795.713 114.332 791.832 115.993C793.151 111.021 794.28 106.429 797.996 102.611C802.575 97.4363 810.414 95.6985 816.782 98.21Z" fill="#FAE317"/>
<path d="M823.669 116.754C827.576 118.023 831.635 118.061 834.096 121.701C836.937 125.925 840.095 131.747 839.131 136.973C837.952 144.964 836.607 152.397 831.496 158.93C827.246 165.005 821.209 168.811 814.613 171.931C808.106 172.565 801.167 170.777 794.749 169.699C793.354 161.682 794.787 153.691 793.367 145.725C792.783 141.755 792.162 137.607 792.453 133.587C794.445 128.12 798.605 123.832 803.514 120.839C809.742 117.11 816.389 114.623 823.669 116.754Z" fill="#FCF073"/>
<path d="M828.097 121.143C832.765 123.185 835.175 127.663 835.783 132.534C837.001 145.446 831.56 158.651 820.321 165.589C813.954 170.092 804.872 170.447 798.174 166.54C797.172 162.075 797.464 157.268 797.02 152.714C796.602 147.514 795.371 142.313 795.333 137.125C795.27 132.648 797.819 128.843 801.028 125.951C808.474 119.621 818.926 116.856 828.097 121.143Z" fill="#FEE218"/>
<path d="M703.143 129.591C710.614 128.602 718.402 129.084 725.975 128.957C733.585 129.058 741.298 128.652 748.857 129.401C760.679 130.974 772.095 130.187 783.473 134.373C786.276 145.218 784.817 157.141 785.236 168.557C779.731 168.481 774.036 168.506 768.594 167.783C748.109 165.272 727.56 164.891 706.948 165.716C699.718 165.665 692.641 166.781 685.449 167.403C678.269 168.379 671.014 168.291 663.822 169.191C648.525 170.244 633.265 173.111 617.956 173.428C617.474 163.889 617.41 154.452 618.641 144.964C625.376 142.516 631.502 139.091 638.542 137.443C652.038 134.424 665.648 132.394 679.424 131.265C687.301 130.048 695.241 130.504 703.143 129.591Z" fill="#F8EC5F"/>
<path d="M737.442 131.341C746.549 131.443 755.314 133.422 764.396 133.916C768.722 134.322 773.732 134.348 777.727 136.187C781.127 137.785 781.647 142.491 782.167 145.776C782.738 151.649 783.245 158.054 781.812 163.839C777.398 166.046 771.119 164.688 766.337 164.371C748.325 162.824 729.565 160.705 711.706 162.266C700.658 163.217 689.597 163.699 678.549 164.511C669.733 165.145 661.032 166.477 652.229 167.213C641.841 168.012 631.655 169.864 621.203 169.914C620.671 163.623 619.656 156.444 621.191 150.254C621.888 147.247 624.514 146.03 627.025 144.723C638.023 139.662 650.149 138.216 661.983 136.352C674.845 134.297 687.821 134.297 700.759 132.622C713.025 130.974 725.113 131.253 737.442 131.341Z" fill="#FDE318"/>
<path d="M732.355 169.382C741.716 169.559 750.811 171.094 760.159 171.715C768.023 172.337 775.621 172.083 783.143 174.772C756.519 172.692 728.448 169.318 701.938 171.627C675.428 173.631 648.614 175.521 622.319 179.389C630.031 175.851 639.95 176.307 648.36 175.077C664.52 172.692 680.832 172.641 697.03 170.536C708.877 168.963 720.419 169.166 732.355 169.382Z" fill="#621614"/>
<path d="M701.939 171.627C728.449 169.318 756.519 172.692 783.143 174.772C787.152 181.153 791.743 187.254 795.105 194.002C794.268 195.676 794.597 197.059 796.119 198.137C796.246 203.198 796.183 208.208 795.929 213.256C794.191 216.199 793.342 218.711 794.838 221.996C790.373 235.137 782.852 246.806 771.461 254.937C756.849 264.374 740.435 268.344 723.274 269.74C699.655 271.617 675.061 271.693 651.683 267.444C643.363 265.884 635.638 262.903 627.926 259.478C619.833 256.003 612.692 250.079 606.908 243.521C603.027 239.12 600.921 233.945 598.892 228.528C599.665 225.649 599.437 224.33 597.471 222.059C597.433 218.698 597.42 215.349 597.407 211.988C598.701 211.531 599.183 210.631 598.853 209.286C598.803 208.107 598.765 206.927 598.727 205.747C599.995 205.164 600.388 204.213 599.894 202.893C602.912 197.401 605.855 192.201 610.637 188.015C614.278 184.882 618.108 181.698 622.319 179.389C648.614 175.521 675.428 173.631 701.939 171.627Z" fill="#B43839"/>
<path d="M725.975 173.428C736.135 173.466 746.207 174.696 756.367 174.912C762.785 175.216 769.432 175.013 775.761 176.193C781.913 177.132 785.718 183.689 788.801 188.497C794.927 198.213 793.963 209.654 791.616 220.398C789.485 230.444 784.044 239.17 776.852 246.388C768.721 254.962 756.519 259.808 745.395 263.156C725.722 268.154 704.298 268.623 684.117 268.23C677.521 268.078 671.09 267.089 664.558 266.277C656.402 265.325 648.5 264.729 640.75 261.723C631.084 257.981 621.241 254.29 613.821 246.781C607.479 240.35 601.733 232.359 600.896 223.112C600.109 214.018 600.845 204.175 606.705 196.742C612.438 189.55 619.694 182.573 629.118 180.988C642.601 178.451 656.618 177.817 670.266 176.561C688.671 174.722 707.494 173.123 725.975 173.428Z" fill="#EC1D1C"/>
<path d="M796.5 176.776C800.166 176.929 803.806 177.094 807.434 177.69C822.325 180.277 837.559 182.396 852.273 185.884C866.023 189.042 878.961 192.404 890.491 200.953C898.051 206.331 903.34 214.373 904.266 223.708C904.786 230.165 905.37 237.293 901.602 242.963C895.755 252.197 885.595 258.577 875.752 262.852C871.832 264.615 867.799 264.793 863.575 265.034C858.844 256.535 854.746 247.517 849.216 239.703C841.339 228.351 832.409 217.671 822.909 207.637C816.643 201.168 811.062 194.179 804.238 188.256C800.585 185.123 798.416 181.102 796.5 176.776Z" fill="#38985C"/>
<path d="M802.982 181.419C809.679 181.609 816.326 182.18 822.909 183.486C838.993 186.543 855.99 188.979 871.388 194.636C880.318 198.15 890.909 203.337 896.275 211.633C900.93 219.205 903.759 228.998 900.093 237.56C896.085 247.935 886.292 254.151 876.754 258.857C873.76 260.138 869.295 262.281 866.086 261.102C863.524 258.945 861.875 255.47 860.277 252.59C853.136 238.511 842.95 226.245 832.841 214.208C823.302 202.919 812.216 192.949 802.982 181.419Z" fill="#02A143"/>
<path d="M598.778 184.476C591.738 191.972 584.115 198.949 576.453 205.811C563.046 218.203 552.949 232.701 541.889 247.326C538.502 251.652 535.458 257.284 530.904 260.429C524.372 263.765 515.404 261.774 508.909 259.161C501.603 256.307 493.003 251.512 489.439 244.193C487.143 239.906 489.223 236.063 491.228 232.207C498.217 220.03 509.632 212.064 521.898 205.823C535.623 199.088 550.235 193.735 565.266 190.831C576.783 188.636 586.778 184.222 598.778 184.476Z" fill="#3A9A5C"/>
<path d="M588.312 189.245C585.814 192.809 583.074 196.133 579.776 198.987C562.982 213.307 549.359 231.814 536.687 249.724C534.138 253.098 531.385 256.865 527.085 258.045C520.122 259.922 513.298 257.892 506.993 254.899C502.072 252.514 495.819 249.254 493.244 244.206C491.328 240.629 492.292 237.09 493.979 233.678C499.649 222.96 509.264 216.935 519.627 211.43C533.326 202.893 549.004 197.338 564.808 194.293C572.685 192.657 580.283 190.222 588.312 189.245Z" fill="#02A142"/>
<path d="M795.104 194.002C796.385 195.156 796.728 196.539 796.119 198.137C794.597 197.059 794.267 195.676 795.104 194.002Z" fill="#721D1F"/>
<path d="M805.341 200.331C812.063 204.631 817.251 210.961 822.617 216.833C835.732 231.535 847.211 247.428 855.773 265.237C859.541 273.951 862.597 282.995 865.515 292.026C867.164 297.011 867.582 302.123 867.62 307.336C855.558 310.964 842.975 312.498 830.417 311.078C829.263 304.736 828.642 298.33 827.982 291.924C827.716 290.39 827.589 287.84 826.206 286.851C824.367 286.153 822.388 285.785 820.486 285.329C820.435 289.172 820.46 293.015 820.435 296.871C815.285 300.004 808.169 303.531 805.252 309.023C801.713 316.76 804.821 323.673 808.131 330.713C801.827 335.368 796.5 340.772 793.57 348.166C792.58 350.779 792.187 353.507 793.43 356.12C795.865 361.46 800.597 365.975 806.482 367.117C810.63 367.878 815.031 367.688 819.23 367.84C819.205 375.425 818.101 382.896 817.721 390.456C814.993 391.559 812.241 392.587 809.488 393.602C802.905 417.664 795.65 441.295 787.545 464.875C785.997 469.492 783.917 474.502 785.084 479.436C788.001 482.658 794.305 482.43 798.301 482.658C807.357 482.544 816.224 483.85 825.23 484.434C824.228 488.746 822.934 492.805 819.991 496.23C812.101 505.984 800.749 513.291 790.005 519.531C776.281 526.647 762.062 532.977 747.45 538.05C739.611 540.727 733.066 544.316 724.719 544.912C719.734 545.192 715.84 546.219 711.337 548.286C711.363 552.98 711.414 557.673 711.401 562.379C703.778 565.068 696.357 567.275 688.151 566.374C688.189 559.715 689.051 553.157 689.597 546.549C686.819 546.866 684.053 547.158 681.263 547.361C681.149 553.639 680.806 559.88 679.817 566.095C675.111 566.362 669.822 566.894 665.243 565.727C661.374 564.827 658.013 563.102 654.537 561.275C656.211 553.614 656.212 547.678 654.283 540.067C640.483 539.877 626.492 538.938 612.945 536.186C605.157 534.207 597.28 532.101 589.632 529.653C579.636 525.975 569.92 521.206 561.232 515.003C548.256 505.832 536.282 494.797 527.644 481.364C521.289 471.382 515.492 461.64 511.788 450.313C507.996 438.364 505.027 425.896 503.67 413.427C502.871 398.701 502.947 384.025 505.992 369.527C506.334 366.381 508.122 361.434 505.928 358.758C501.958 357.058 496.96 357.325 492.686 356.614C486.94 355.904 481.435 354.369 476.031 352.327C477.515 343.588 481.371 336.091 484.035 327.719C485.468 323.267 487.257 319.005 489.337 314.82C493.802 315.707 498.698 316.557 502.732 318.726C505.801 320.73 507.881 324.244 510.685 326.641C513.374 327.174 514.794 325.068 515.568 322.811C517.268 317.318 517.674 311.522 519.5 306.029C521.898 298.71 525.373 291.721 528.303 284.593C533.187 272.594 540.429 261.343 547.85 250.751C558.175 237.395 568.373 224.152 580.118 211.988C582.871 209.185 586.093 207.054 589.441 205.05C589.606 217.417 588.934 228.427 595.847 239.361C602.709 249.128 611.943 257.994 622.877 263.03C634.623 268.839 647.371 272.124 660.359 273.456C670.291 274.433 680.54 276.094 690.459 275.955C701.076 275.879 711.578 276.285 722.157 274.991C736.186 273.431 750.43 271.642 763.457 265.934C770.56 262.776 777.575 259.478 783.295 254.113C787.227 250.434 790.919 246.413 794.102 242.062C798.288 236.393 800.66 229.416 802.512 222.656C804.542 215.299 803.641 207.79 805.341 200.331Z" fill="#D12F2D"/>
<path d="M599.894 202.893C600.388 204.213 599.995 205.164 598.727 205.747C598.308 204.466 598.701 203.515 599.894 202.893Z" fill="#721D1E"/>
<path d="M598.853 209.286C599.183 210.631 598.701 211.531 597.407 211.988C597.09 210.643 597.572 209.743 598.853 209.286Z" fill="#7A2322"/>
<path d="M585.725 211.722C586.36 216.022 586.867 220.334 587.577 224.609C589.112 234.376 594.135 243.623 601.2 250.51C606.528 255.685 611.995 260.404 618.59 263.892C629.334 269.524 640.661 273.684 652.698 275.371C662.339 276.678 672.017 278.581 681.581 278.606C687.504 278.669 693.415 278.492 699.339 278.517C710.361 278.466 720.877 279.139 731.861 277.528C741.146 276.158 750.888 274.522 759.716 271.274C772.07 266.746 783.385 260.214 792.124 250.231C797.261 244.473 800.597 237.94 803.959 231.078C811.239 230.507 818.964 229.657 826.194 230.723C830.976 231.306 833.5 235.213 836.088 238.79C840.121 244.916 844.092 251.208 847.872 257.487C853.338 266.683 855.913 276.183 859.681 286.153C861.926 292.026 863.359 298.013 864.285 304.215C856.116 306.435 847.402 308.566 838.878 308.135C836.532 307.894 834.211 307.78 833.145 305.332C831.027 299.522 832.321 292.508 830.164 286.686C828.465 282.868 821.843 281.13 818.748 284.136C817.011 287.637 816.681 292.203 814.36 295.336C810.034 299.916 804.352 302.021 801.866 308.325C798.745 315.746 802.398 322.138 801.866 329.254C799.735 334.315 794.864 338.159 792.175 343.017C786.556 351.642 791.147 364.314 800.141 368.626C804.872 370.821 810.504 371.569 815.603 372.546C815.159 376.668 814.943 381.044 813.687 384.989C812.47 387.881 809.464 390.088 807.485 392.485C805.151 395.01 804.377 398.244 803.4 401.453C800.876 410.561 798.149 419.617 795.612 428.724C792.568 439.836 787.989 450.402 784.919 461.513C783.435 467.107 780.505 473.348 780.86 479.17C781.913 483.952 787.837 485.487 792.023 485.956C801.46 486.78 810.884 486.374 820.283 487.973C817.886 492.526 815.146 496.788 811.277 500.238C801.409 509.358 789.27 516.233 777.195 521.954C762.316 528.55 747.158 534.93 731.633 539.813C725.506 541.843 718.961 542.059 712.835 543.974C710.767 544.519 710.184 546.156 709.473 547.957C708.154 551.775 707.609 555.96 706.949 559.931C701.85 561.478 696.789 562.506 691.512 563.152C691.994 558.421 693.339 553.309 692.717 548.591C690.916 544.278 684.384 540.46 680.477 544.456C677.471 550.075 676.799 557.077 675.061 563.191C670.253 562.48 664.317 562.277 660.119 559.702C659.066 554.159 660.537 547.462 658.381 542.274C656.199 537.391 649.401 536.82 644.771 536.414C635.486 536.021 626.315 535.704 617.221 533.611C598.651 529.641 578.787 524.199 563.338 512.758C552.315 504.754 541.166 495.85 533.492 484.472C526.363 473.995 518.943 463.035 515.34 450.82C512.296 440.445 508.732 430.957 507.996 420.061C507.21 409.241 506.119 398.079 507.134 387.259C507.73 378.406 510.089 369.248 509.467 360.42C509.632 355.967 503.747 355.143 500.436 354.61C494.424 353.583 484.949 354.318 480.497 349.651C480.446 346.099 481.714 342.357 482.869 339.034C485.342 332.184 487.968 325.386 490.707 318.638C493.599 319.183 496.796 319.551 499.485 320.794C503.417 322.925 506.385 327.276 510.482 329.267C513.958 329.432 516.9 326.882 518.093 323.749C519.856 319.183 520.452 314.058 521.695 309.302C523.801 300.727 527.847 293.028 531.373 284.885C537.779 269.651 546.988 255.419 557.769 242.912C566.103 232.055 574.715 220.207 585.725 211.722Z" fill="#EC1D1C"/>
<path d="M795.929 213.256C796.361 216.415 796.36 219.091 794.838 221.996C793.342 218.711 794.191 216.199 795.929 213.256Z" fill="#671812"/>
<path d="M597.471 222.059C599.437 224.33 599.665 225.649 598.891 228.528C597.243 226.22 596.925 224.85 597.471 222.059Z" fill="#6B1A1D"/>
<path d="M469.651 255.178C478.505 262.053 480.75 275.689 482.107 286.128C483.211 286.318 484.327 286.508 485.43 286.711C486.61 289.349 487.993 291.798 489.946 293.954C486.192 293.802 481.46 292.876 478.239 295.248C473.888 298.102 471.3 303.873 467.47 307.234C466.011 308.148 463.753 307.818 462.079 308.11C464.337 301.704 468.852 296.681 471.592 290.618C472.632 283.502 471.934 275.676 469.905 268.776C468.028 262.218 462.65 255.977 455.737 254.709C451.576 253.948 447.86 257.017 445.894 260.404C442.887 265.262 443.433 271.249 443.509 276.716C443.661 283.933 446.287 289.806 448.38 296.529C446.934 297.429 445.475 298.33 444.029 299.231C439.171 294.537 435.86 288.36 430.698 284.086C426.74 280.724 421.451 280.572 416.555 281.333C412.027 282.424 411.862 288.17 411.811 291.912C411.494 298.913 416.238 304.444 420.779 309.188C424.191 312.727 428.339 314.515 432.702 316.57C432.562 318.054 432.436 319.538 432.296 321.035C424.876 320.578 419.853 316.874 412.623 318.054C408.919 318.714 404.454 320.147 401.968 323.153C399.964 325.309 400.256 328.544 400.332 331.271C400.471 337.537 406.382 343.194 412.635 343.055C418.001 342.915 423.341 341.469 428.681 340.822C428.694 342.509 428.719 344.184 428.732 345.858C423.721 347.266 417.05 348.205 413.447 352.276C410.606 355.79 408.995 360.914 409.655 365.404C411.519 373.332 419.688 379.687 427.945 378.824C433.438 378.38 439.653 375.362 442.583 370.554C443.103 365.645 441.429 360.28 441.238 355.308C440.833 347.038 443.471 338.729 450.003 333.326C452.122 339.034 449.204 343.22 448.786 348.915C448.342 354.978 448.38 362.119 451.119 367.688C452.857 371.227 456.624 373.611 459.91 375.565C455.914 374.512 451.399 372.279 447.213 372.584C442.101 373.687 440.249 377.835 438.625 382.262C435.074 383.721 431.357 384.405 427.552 384.761C423.468 385.078 419.079 383.34 415.312 381.907C408.97 379.471 404.035 373.687 401.993 367.307C400.154 360.61 404.911 352.86 408.069 347.19C405.266 345.807 402.336 344.602 399.672 342.966C395.676 340.454 393.381 335.393 392.252 330.979C391.097 325.424 394.015 320.109 398.911 317.471C403.934 315.022 409.591 313.691 414.944 312.156C411.697 306.892 407.207 301.831 404.873 296.11C403.338 289.933 404.035 281.574 410.352 278.276C418.255 273.951 427.78 276.843 435.936 278.783C436.051 273.799 435.429 268.458 436.482 263.575C438.017 258.806 441.67 254.138 446.071 251.703C453.91 247.656 463.119 249.584 469.651 255.178Z" fill="#01080E"/>
<path d="M455.736 254.709C462.649 255.977 468.028 262.218 469.905 268.776C471.934 275.676 472.632 283.502 471.592 290.618C468.852 296.681 464.336 301.704 462.079 308.11C463.753 307.818 466.011 308.148 467.469 307.234C471.3 303.873 473.888 298.102 478.238 295.248C481.46 292.876 486.191 293.802 489.946 293.954C491.823 296.136 494.17 298.267 495.565 300.791C496.136 303.581 496.009 306.549 496.098 309.378C492.407 308.934 488.716 307.932 484.999 307.856C481.701 308.642 481.574 313.056 480.801 315.733C477.959 330.015 472.086 342.903 465.326 355.676C471.44 358.936 478.226 357.807 484.378 360.546C485.202 365.544 481.435 370.529 477.655 373.383C472.492 377.264 465.884 377.277 459.91 375.565C456.624 373.611 452.857 371.227 451.119 367.688C448.38 362.119 448.342 354.978 448.785 348.915C449.204 343.22 452.121 339.034 450.003 333.326C443.471 338.729 440.832 347.038 441.238 355.308C441.429 360.28 443.103 365.646 442.583 370.554C439.653 375.362 433.437 378.381 427.945 378.824C419.688 379.687 411.519 373.332 409.654 365.405C408.995 360.914 410.606 355.79 413.447 352.276C417.049 348.205 423.721 347.266 428.732 345.858C428.719 344.184 428.694 342.509 428.681 340.822C423.341 341.469 418.001 342.915 412.635 343.055C406.382 343.194 400.471 337.537 400.331 331.271C400.255 328.544 399.964 325.309 401.968 323.153C404.454 320.147 408.919 318.714 412.623 318.054C419.853 316.874 424.876 320.578 432.296 321.035C432.435 319.538 432.562 318.054 432.702 316.57C428.338 314.515 424.191 312.727 420.779 309.188C416.238 304.444 411.494 298.913 411.811 291.912C411.862 288.17 412.026 282.424 416.555 281.333C421.451 280.572 426.74 280.724 430.698 284.086C435.86 288.36 439.171 294.537 444.029 299.231C445.475 298.33 446.934 297.429 448.38 296.529C446.287 289.806 443.661 283.933 443.509 276.716C443.433 271.249 442.887 265.262 445.893 260.404C447.859 257.017 451.576 253.948 455.736 254.709Z" fill="#05ABDF"/>
<path d="M592.93 257.157C592.993 259.618 594.237 263.118 592.955 265.364C589.645 270.488 582.656 273.317 578.952 277.984C576.935 281.092 576.466 285.392 575.946 288.994C574.284 304.127 576.364 320.35 578.419 335.406C580.068 347.469 584.33 358.377 588.77 369.616C592.017 377.645 596.52 385.078 602.063 391.724C612.286 403.863 624.755 413.884 639.393 420.188C651.722 425.262 665.827 426.365 679.031 425.579C691.512 425.059 703.943 420.163 714.471 413.643C726.901 405.969 735.679 394.122 744.52 382.744C752.308 372.787 757.331 361.764 763.039 350.589C768.328 340.074 772.159 329.178 776.408 318.232C780.15 308.566 782.941 298.495 784.716 288.284C785.833 282.437 783.372 276.665 781.875 271.046C783.968 273.71 786.936 276.259 788.281 279.392C788.446 283.743 787.152 288.233 786.327 292.495C783.321 308.262 777.03 323.508 771.22 338.438C763.61 354.737 756.113 372.685 744.583 386.6C735.451 397.851 727.168 408.633 714.712 416.408C692.185 430.652 662.034 432.098 637.604 422.052C621.508 414.835 607.555 403.242 596.913 389.226C590.495 380.727 586.461 371.328 582.871 361.384C574.221 338.539 572.014 312.714 573.46 288.487C573.866 284.415 574.145 279.989 575.705 276.183C579.586 272.454 586.588 269.993 590.127 265.199C591.268 263.245 591.37 260.607 591.89 258.425C584.647 260.544 581.134 267.215 574.424 269.854C569.515 271.997 564.111 266.962 560.978 263.689C559.304 262.078 558.606 262.294 558.86 264.361L557.554 264.298L557.389 261.19C562.424 262.966 567.194 265.972 572.369 267.203C576.022 267.038 579.561 263.271 582.465 261.279C585.535 258.679 589.125 257.994 592.93 257.157Z" fill="#AB383B"/>
<path d="M591.89 258.425C591.37 260.607 591.268 263.245 590.126 265.199C586.588 269.993 579.586 272.454 575.704 276.183C574.144 279.989 573.865 284.415 573.459 288.487C572.013 312.714 574.22 338.539 582.871 361.384C586.461 371.328 590.494 380.727 596.913 389.226C607.555 403.242 621.507 414.835 637.604 422.052C662.034 432.098 692.184 430.652 714.711 416.408C727.167 408.633 735.45 397.851 744.583 386.6C756.113 372.685 763.609 354.737 771.22 338.438C777.029 323.508 783.321 308.262 786.327 292.495C787.151 288.233 788.445 283.743 788.28 279.392C786.936 276.259 783.968 273.71 781.875 271.046L781.253 269.27C785.794 270.995 790.779 273.266 795.688 273.431C801.459 272.048 806.241 266.048 811.011 262.624C811.112 264.843 812.444 268.129 810.592 269.866C806.761 274.585 800.774 276.488 796.677 280.268C794.407 284.923 794.141 290.707 792.999 295.73C787.773 320.743 777.473 342.446 766.222 365.1C760.971 376.592 753.361 385.446 745.788 395.454C738.254 404.574 729.704 413.694 719.722 420.112C711.997 425.439 702.953 428.395 694.023 431.046C686.172 433.316 678.282 433.519 670.164 433.418C649.603 433.621 628.94 426.505 612.578 414.112C603.508 406.958 594.782 398.625 588.363 388.959C577.886 372.787 571.963 353.849 568.83 334.937C566.077 322.265 566.47 309.822 566.521 296.935C566.521 291.392 567.269 285.937 567.663 280.432C567.65 278.745 568.018 276.247 566.838 274.889C564.327 271.693 560.826 269.143 557.921 266.302L557.553 264.298L558.86 264.361L560.978 263.689C564.111 266.962 569.514 271.997 574.423 269.854C581.133 267.215 584.647 260.544 591.89 258.425Z" fill="#150101"/>
<path d="M809.818 261.913C813.345 261.546 815.425 265.262 814.068 268.37C811.417 275.004 801.561 277.414 798.466 283.261C795.663 290.872 795.358 299.256 792.809 306.993C789.003 318.752 785.503 331.068 779.909 342.091C775.254 351.515 771.131 361.054 766.324 370.389C761.922 379.218 755.022 387.057 749.2 395.124C739.865 406.451 728.994 417.993 716.081 425.198C682.24 442.982 637.299 438.631 608.278 413.427C597.813 404.421 586.968 393.665 581.07 381.019C575.375 369.248 570.618 357.325 568.183 344.425C565.075 330.396 564.289 316.367 564.086 302.046C563.959 295.197 565.138 288.474 565.354 281.663C566.09 275.143 558.911 272.936 557.921 266.302C560.826 269.143 564.327 271.693 566.838 274.889C568.018 276.247 567.65 278.745 567.663 280.432C567.269 285.937 566.521 291.392 566.521 296.935C566.47 309.822 566.077 322.265 568.83 334.937C571.963 353.849 577.886 372.787 588.363 388.959C594.782 398.625 603.508 406.958 612.578 414.112C628.94 426.505 649.603 433.621 670.164 433.418C678.282 433.519 686.172 433.316 694.023 431.046C702.953 428.395 711.997 425.439 719.722 420.112C729.704 413.693 738.254 404.574 745.788 395.454C753.361 385.446 760.971 376.592 766.222 365.1C777.473 342.446 787.773 320.743 792.999 295.73C794.141 290.707 794.407 284.923 796.677 280.268C800.774 276.488 806.761 274.585 810.592 269.866C812.444 268.129 811.112 264.843 811.011 262.624C806.241 266.048 801.459 272.048 795.688 273.431C790.779 273.266 785.794 270.995 781.253 269.27L780.581 267.444C785.604 268.509 791.35 270.716 796.513 270.044C801.333 268.446 805.112 263.803 809.818 261.913Z" fill="#A02521"/>
<path d="M560.978 263.689L558.86 264.362C558.606 262.294 559.304 262.078 560.978 263.689Z" fill="#8F0E12"/>
<path d="M890.402 263.41C883.007 267.38 875.13 270.412 867.747 274.484C869.067 280.115 871.058 285.493 872.77 290.998C877.996 292.292 883.755 293.041 888.588 295.425C897.555 300.892 900.65 312.016 896.198 321.466C904.037 326.324 910.747 332.007 912.84 341.431C912.84 347.101 910.658 353.075 906.65 357.147C904.075 359.405 900.65 360.787 897.695 362.513C900.422 370.377 901.652 378.609 901.97 386.917C907.094 386.828 912.434 385.636 917.482 386.397C920.311 389.073 920.095 394.553 920.78 398.181C923 411.157 925.334 424.45 929.545 436.868C931.524 445.239 935.57 452.787 938.437 460.79C938.196 464.266 937.841 469.517 933.896 470.773C928.619 472.929 922.315 472.904 916.696 473.83C906.409 475.517 896.109 477.293 885.784 478.764C874.762 479.741 863.942 482.062 853.439 485.601C847.478 487.744 842.1 486.362 836.151 485.106C832.777 491.639 828.921 498.539 823.822 503.892C815.678 512.897 803.971 519.43 793.633 525.747C783.79 530.338 774.163 535.349 764.028 539.268C754.401 543.39 744.393 546.46 734.778 550.608C730.098 552.675 725.214 552.904 720.381 554.35C719.62 555.225 719.202 556.151 719.138 557.14C718.085 564.459 723.096 572.463 726.914 578.412C728.867 576.496 730.681 574.251 732.913 572.653C734.74 572.336 736.782 574.061 738.38 574.809C738.342 577.334 738.215 579.87 738.076 582.395C741.298 582.826 744.532 583.168 747.779 583.473C749.149 580.517 750.621 577.625 752.257 574.797C753.678 575.114 755.174 575.393 756.544 575.888C759.03 577.575 758.942 581.507 759.601 584.196C763.495 584.614 767.326 585.35 771.195 585.895C773.414 583.46 775.342 578.171 779.236 578.805C781.532 578.856 783.333 580.974 784.653 582.623C784.703 585.439 783.714 588.293 783.232 591.071C792.771 595.65 800.711 602.347 804.935 612.228C805.873 615.83 805.632 619.94 805.138 623.606C803.768 628.629 799.303 632.992 796.512 637.343C803.019 638.002 809.527 637.584 816.034 637.939C824.025 638.7 832.13 638.89 840.146 638.535C847.973 637.394 855.723 637.863 863.625 637.647C862.547 638.776 861.431 639.829 860.251 640.831C836.633 642.353 812.482 640.615 788.965 641.3C788.75 642.518 788.534 643.723 788.306 644.928C794.496 644.966 800.673 644.865 806.85 644.839C806.876 645.803 806.888 646.78 806.901 647.757C798.948 647.693 790.995 647.896 783.042 647.934C778.361 648.34 773.846 649.203 769.102 648.683C754.68 647.084 740.765 648.188 726.406 647.795C726.356 646.818 726.305 645.829 726.254 644.839C732.064 645.144 737.772 645.448 743.543 644.421C740.562 641.592 737.112 639.601 733.7 637.356C731.328 638.84 728.981 640.07 726.394 641.148C723.882 642.023 722.563 645.068 720.318 646.45C713.38 647.249 706.53 648.087 699.516 647.617C697.905 647.579 696.154 647.275 694.569 647.617C684.003 652.577 671.458 653.668 660.017 651.689C648.018 650.547 636.437 652.843 624.564 652.437C618.97 652.856 613.808 655.355 608.037 655.177C598.98 655.748 590.405 652.513 581.438 652.919C570.821 653.046 560.204 652.64 549.6 652.551C545.77 652.539 542.586 651.638 539.554 649.177C545.427 648.708 551.389 649.177 557.274 649.139C564.834 649.051 572.165 650.636 579.751 649.913C574.436 644.636 568.994 640.806 566.99 633.106C566.559 629.58 566.572 625.344 567.155 621.843C568.893 616.706 571.557 611.784 574.588 607.307C578.736 601.256 584.609 597.425 590.228 592.517C589.48 590.335 588.68 588.166 587.932 585.984C589.277 584.5 590.57 582.839 592.156 581.621C595.784 580.67 598.27 585.439 600.502 587.582C603.952 586.365 607.39 585.084 610.84 583.841C610.51 581.443 609.178 578.323 610.688 576.154C611.601 574.01 613.745 574.162 615.685 573.439C617.182 575.888 618.45 578.5 620.099 580.847C623.347 580.467 626.581 578.551 629.511 577.156C628.75 574.797 627.596 572.425 627.241 569.977C628.129 568.137 629.473 566.514 630.653 564.852C633.393 566.704 636.031 568.683 638.631 570.725C643.565 563.774 649.375 555.91 646.356 546.917C642.855 544.532 637.781 545.242 633.634 544.735C639.9 540.689 646.064 540.93 652.533 544.291C654.512 549.758 652.051 556.569 653.599 562.1C657.581 568.188 667.336 569.406 673.995 568.772C676.798 568.29 681.352 568.594 682.049 565.004C683.267 559.398 681.808 552.992 681.263 547.361C684.054 547.158 686.819 546.866 689.597 546.549C689.051 553.157 688.189 559.715 688.151 566.374C696.357 567.275 703.778 565.068 711.401 562.379C711.414 557.673 711.363 552.98 711.337 548.287C715.84 546.219 719.734 545.192 724.719 544.913C733.066 544.316 739.611 540.727 747.45 538.05C762.062 532.977 776.281 526.647 790.005 519.531C800.749 513.291 812.101 505.984 819.991 496.23C822.934 492.805 824.228 488.747 825.23 484.434C816.224 483.85 807.358 482.544 798.301 482.658C794.305 482.43 788.001 482.658 785.084 479.436C783.917 474.502 785.997 469.492 787.545 464.875C795.65 441.295 802.905 417.664 809.488 393.602C812.241 392.587 814.993 391.56 817.721 390.456C818.101 382.896 819.205 375.425 819.23 367.84C815.032 367.688 810.63 367.878 806.482 367.117C800.597 365.975 795.866 361.46 793.43 356.12C792.187 353.507 792.58 350.78 793.57 348.167C796.5 340.772 801.827 335.368 808.131 330.713C804.821 323.673 801.713 316.76 805.252 309.023C808.169 303.531 815.285 300.004 820.435 296.871C820.46 293.015 820.435 289.172 820.486 285.329C822.388 285.785 824.367 286.153 826.206 286.851C827.589 287.84 827.716 290.39 827.982 291.924C828.642 298.33 829.263 304.736 830.418 311.078C842.975 312.498 855.558 310.964 867.621 307.336C867.582 302.123 867.164 297.011 865.515 292.026C862.598 282.995 859.541 273.951 855.773 265.237C861.012 267.926 866.517 270.551 872.441 268.243C878.389 265.909 883.933 263.778 890.402 263.41Z" fill="#030204"/>
<path d="M881.954 298.875C888.905 302.123 893.142 311.496 887.827 318.105C882.69 324.992 874.648 324.333 867.114 327.288C869.574 328.734 871.439 331.055 874.445 330.726C880.736 330.37 887.041 326.667 893.319 326.87C904.202 330.599 908.312 346.429 899.497 354.28C896.985 355.308 892.393 355.498 889.92 354.331C885.645 350.095 882.322 341.989 875.891 340.733C874.407 341.571 872.961 342.471 871.566 343.435C875.726 346.835 879.861 349.13 881.789 354.445C884.656 361.028 881.015 368.791 874.344 371.087C871.147 371.607 866.416 372.089 863.74 369.895C860.67 365.341 860.315 358.885 857.854 353.989C856.75 351.452 852.653 350.944 850.332 349.993C851.93 354.978 855.076 360.267 854.899 365.493C854.962 369.083 853.681 372.698 851.423 375.488C848.645 378.621 844.244 379.154 840.35 378.152C836.633 377.163 832.422 375.59 830.925 371.683C829.188 365.1 832.016 359.417 833.044 352.885C830.735 353.354 827.437 353.126 825.699 354.902C821.894 358.073 818.85 362.842 813.535 363.476C807.142 364.656 799.798 360.99 799.05 354.065C798.466 348.357 802.855 342.18 807.472 339.161C813.522 335.064 820.613 337.309 827.501 336.979C832.282 337.195 836.544 335.761 840.857 333.884C840.832 332.298 840.819 330.713 840.806 329.127C833.551 330.865 827.602 333.415 819.941 331.563C811.48 328.76 807.738 317.23 812.305 309.746C814.119 306.828 817.987 306.651 821.006 305.89C821.742 308.921 822.186 312.194 823.416 315.073C825.75 318.828 829.961 317.927 833.741 318.105C844.003 318.308 854.049 316.468 864.298 316.786C868.636 316.976 872.593 315.34 874.826 311.509C875.498 308.021 874.94 304.317 875.371 300.791C876.855 297.949 879.278 298.736 881.954 298.875Z" fill="#08ABDE"/>
<path d="M890.097 367.612C892.089 374.157 891.696 380.638 891.417 387.361C883.806 388.921 876.195 389.213 868.445 389.01C868.953 385.154 869.65 381.336 869.929 377.442C873.113 376.909 876.551 376.694 879.595 375.565C883.413 373.522 886.685 370.288 890.097 367.612Z" fill="#FEFEFE"/>
<path d="M827.247 378.634C832.84 379.903 838.117 382.681 843.939 382.82C849.85 383.188 855.913 379.687 861.355 377.607C860.644 381.78 859.833 385.902 858.894 390.025C848.176 390.646 837.66 392.13 826.866 391.483C826.815 387.26 826.663 382.807 827.247 378.634Z" fill="#D33330"/>
<path d="M910.722 393.602C913.893 403.838 915.707 414.226 917.939 424.665C920.552 436.944 925.601 448.651 929 460.663C928.34 464.71 924.56 464.9 921.275 465.547C912.32 466.777 903.847 469.834 894.854 470.862C880.901 472.701 867.037 475.073 853.11 477.026C847.06 450.973 840.781 424.501 838.295 397.838C854.239 398.168 869.879 395.187 885.81 395.111C894.118 394.388 902.388 393.754 910.722 393.602Z" fill="#F7EC64"/>
<path d="M908.35 397.115C911.001 405.373 912.752 413.744 914.198 422.293C916.494 435.752 923.229 447.535 924.941 461.158C914.274 463.746 904.253 466.638 893.497 468.096C880.825 469.72 868.42 472.46 855.609 473.056C850.751 456.693 848.29 439.595 844.675 422.915C843.013 415.774 842.455 408.607 842.544 401.288C853.605 400.756 864.564 399.233 875.599 398.409C886.508 397.965 897.429 397.42 908.35 397.115Z" fill="#FEE218"/>
<path d="M822.147 399.474C825.027 400.629 829.301 402.76 829.809 406.184C832.269 416.104 833.398 426.352 835.301 436.348C838.383 447.066 839.588 458.139 842.303 468.959C843.203 472.27 843.47 475.504 843.432 478.929C837.292 479.195 831.077 479.106 824.951 478.65C823.67 478.472 822.667 477.965 821.919 477.115C823.048 469.542 825.572 462.287 825.585 454.309C825.623 444.275 825.838 434.191 825.242 424.183C823.314 424.716 819.23 423.575 819.446 426.644C819.141 442.918 821.095 462.68 814.182 477.825C807.472 476.443 800.33 476.899 793.798 474.959C792.669 468.096 796.715 460.321 798.669 453.789C804.694 437.591 808.436 420.695 814.22 404.447C815.361 401.047 818.431 398.409 822.147 399.474Z" fill="#F1E460"/>
<path d="M819.027 403.457C822.173 402.747 825.243 403.863 826.486 406.971C828.49 411.905 828.883 417.638 829.733 422.864C832.155 440.292 837.648 457.302 840.134 474.781C835.098 475.682 830.659 475.783 825.598 475.086C829.149 460.917 828.553 447.091 828.579 432.606C828.35 429.206 828.35 424.348 825.116 422.281C822.135 420.48 818.723 422.065 817.416 425.097C816.034 428.801 816.427 433.354 816.465 437.261C816.884 446.939 816.922 456.237 814.88 465.775C814.258 468.312 813.459 470.912 811.696 472.904C807.231 474.401 801.51 472.663 797.007 471.75C797.895 466.321 799.113 460.993 801.066 455.843C805.912 442.893 809.527 429.422 813.497 416.18C814.816 411.93 816.224 406.971 819.027 403.457Z" fill="#FCE318"/>
<path d="M651.379 568.936C655.933 569.482 660.309 571.22 664.85 571.943C669.53 572.919 674.756 572.78 679.196 574.479C681.06 581.202 680.921 588.572 681.948 595.523C682.925 607.154 686.692 618.151 688.404 629.529C688.734 633.525 689.444 639.043 687.187 642.581C684.84 645.321 679.995 646.019 676.608 646.361C670.748 646.729 663.53 646.615 658.317 643.634C655.641 639.956 657.556 633.55 657.734 629.314C658.14 620.6 658.875 612.177 660.258 603.552C661.222 599.391 657.455 595.878 655.412 592.567C654.322 593.29 653.231 594.013 652.14 594.736C650.554 613.344 642.335 632.015 626.911 643.14C617.55 649.786 606.87 650.116 595.847 648.771C589.721 647.706 583.949 644.268 579.51 639.981C574.943 635.326 575.07 628.185 575.92 622.16C578.267 612.317 584.748 604.643 592.917 598.947C607.618 588.432 625.262 589.168 639.709 578.551C644.022 575.849 647.142 571.626 651.379 568.936Z" fill="#B263A2"/>
<path d="M713.076 571.093C717.908 577.016 720.699 583.219 728.259 586.314C734.563 588.483 741.577 588.889 748.16 589.789C756.532 591.02 763.686 589.853 771.614 592.796C781.634 596.779 790.716 601.358 796.082 611.226C799.443 617.01 797.883 623.644 793.837 628.629C789.537 633.994 783.309 639.994 776.332 641.338C762.76 642.543 749.721 641.656 738.406 633.297C729.705 626.422 722.944 616.756 718.543 606.622C716.133 607.154 713.164 607.053 711.452 608.993C711.82 619.204 714.04 629.073 712.733 639.55C707.52 642.81 702.941 640.045 697.74 638.51C696.586 632.421 695.508 626.308 694.201 620.257C692.172 610.49 689.432 601.345 688.722 591.312C688.392 585.578 688.354 579.832 688.341 574.086C696.802 574.365 704.882 573.008 713.076 571.093Z" fill="#B263A2"/>
<path d="M721.599 626.866C725.772 629.605 729.235 633.626 732.533 637.343C729.273 637.457 726.013 637.546 722.753 637.635C722.208 634.032 721.574 630.519 721.599 626.866Z" fill="white"/>
<path d="M649.121 632.447C649.235 637.635 648.842 642.81 648.931 647.998C643.274 648.809 637.566 649.101 631.858 648.619C636.551 644.598 641.308 640.958 645.24 636.112C646.496 634.844 647.789 633.626 649.121 632.447Z" fill="white"/>
<path d="M837.572 646.311C850.18 646.209 862.826 646.767 875.422 646.336C875.358 647.249 875.308 648.163 875.244 649.076C861.165 648.708 846.882 649.926 832.866 648.568C834.388 647.3 835.428 646.133 837.572 646.311Z" fill="#020504"/>
<path d="M528.849 647.059C528.874 648.099 528.887 649.127 528.912 650.167C521.733 650.56 515.087 652.057 507.818 651.638C503.468 651.346 499.13 651.308 494.766 651.308C494.652 650.192 494.525 649.089 494.411 647.972C501.996 647.617 509.214 649.304 516.723 648.277C520.769 647.833 524.803 647.44 528.849 647.059Z" fill="#090909"/>
<path d="M786.112 653.071C793.925 652.361 801.853 652.932 809.692 652.906C817.252 653.147 824.774 652.551 832.321 652.691C831.75 653.579 831.179 654.479 830.608 655.38C818.596 656.775 806.445 656.065 794.306 656.217C790.919 656.319 788.687 655.075 786.112 653.071Z" fill="#090909"/>
<path d="M776.344 653.832C776.281 654.796 776.217 655.748 776.154 656.712C769.875 658.069 763.952 656.699 757.686 656.94C747.247 658.449 736.566 657.359 725.975 657.79C709.663 658.285 693.364 658.044 677.052 657.714C677.115 656.547 677.166 655.393 677.217 654.226C684.624 654.555 691.905 655.519 699.338 655.24C709.054 654.86 718.872 655.646 728.512 654.479C735.628 654.023 742.794 654.593 749.936 654.327C758.726 653.985 767.529 653.782 776.344 653.832Z" fill="#000101"/>
<path d="M655.806 655.101C655.704 656.293 655.59 657.473 655.488 658.665C648.537 659.185 641.637 660.682 634.699 660.403C628.763 660.238 622.801 660.378 616.89 660.898C603.825 662.153 590.583 661.063 577.569 662.572C573.776 662.75 569.971 662.445 566.166 662.635C547.735 663.409 529.331 662.914 510.9 662.572C510.773 661.38 510.659 660.2 510.532 659.008C515.124 659.16 519.729 659.363 524.333 659.414C533.681 659.287 542.814 660.593 552.2 659.832C556.259 659.414 560.344 659.452 564.415 659.211C573.041 658.475 581.628 659.566 590.266 658.412C611.969 657.371 634.318 658.513 655.806 655.101Z" fill="black"/>
<path d="M892.279 659.515C890.504 661.164 889.704 662.965 886.977 662.838C873.025 662.864 859.148 664.145 845.208 664.031C835.885 664.538 826.613 663.637 817.315 664.462C812.089 664.614 806.546 664.83 801.422 663.752C800.496 662.826 799.633 661.824 798.847 660.758C805.088 660.745 811.049 662.077 817.303 661.227C831.725 659.756 845.982 661.418 860.429 660.403C871.071 660.517 881.663 658.906 892.279 659.515Z" fill="#1C1C1C"/>
<path d="M779.338 661.659C778.704 662.547 778.082 663.434 777.448 664.322C772.476 664.234 767.706 664.411 762.759 665.02C751.369 665.654 739.915 664.995 728.512 665.35C713.824 665.603 699.985 664.703 685.385 666.39C670.202 666.656 654.829 666.111 639.722 667.861C632.479 668.432 625.579 666.859 618.4 666.593C618.552 665.401 618.717 664.208 618.869 663.016C623.74 663.206 628.522 664.119 633.38 664.297C638.91 664.614 644.352 663.752 649.895 663.878C656.3 663.739 662.287 664.234 668.439 663.295C674.984 662.369 681.2 663.308 687.922 662.826C693.884 662.534 699.693 661.633 705.68 661.773C719.214 661.976 732.736 661.773 746.27 662.014C757.305 662.217 768.328 661.151 779.338 661.659Z" fill="#010101"/>
<path d="M476.615 667.087C488.272 666.884 499.941 668.546 511.611 668.318C519.653 668.077 527.694 668.013 535.724 667.633C558.289 667.557 581.032 669.117 603.572 668.001C602.177 669.307 600.794 670.918 599.082 671.806C594.097 672.389 588.934 671.831 583.911 671.895C572.533 671.679 560.978 672.072 549.676 670.842C534.785 669.586 520.198 672.58 505.269 671.337C495.755 670.208 486.153 670.893 476.577 670.246C476.564 669.193 476.577 668.14 476.615 667.087Z" fill="#050505"/>
<path d="M823.112 673.1C821.374 674.508 819.75 676.474 817.353 676.588C805.113 677.311 792.657 676.728 780.518 677.121C769.102 677.501 757.686 676.728 746.27 676.931C738.609 677.476 730.986 676.994 723.337 677.907C713.634 677.895 703.956 678.541 694.265 678.161C686.832 678.237 679.716 679.036 672.245 677.945L671.877 675.155C677.052 674.901 682.075 675.662 687.25 675.028C691.702 674.482 696.142 674.597 700.62 674.647C713.304 674.609 725.988 674.191 738.672 674.127C743.771 673.95 748.744 673.036 753.881 673.354C766.667 674.013 779.148 674.749 791.934 673.557C802.335 673.544 812.723 673.239 823.112 673.1Z" fill="#1F1F1F"/>
<path d="M661.019 675.941C660.981 677.172 660.943 678.415 660.905 679.658C648.728 678.871 636.805 680.685 624.653 680.546C615.787 681.04 606.895 680.609 598.004 680.622C595.67 680.761 593.97 679.658 591.928 678.719C598.054 675.764 604.003 677.717 610.548 677.818C616.903 678.224 623.068 676.905 629.423 676.969C639.976 676.88 650.479 676.119 661.019 675.941Z" fill="black"/>
</g>
<defs>
<clipPath id="clip0_2_507">
<rect width="1330" height="730" fill="white"/>
</clipPath>
</defs>
</svg>
