<svg width="1330" height="730" viewBox="0 0 1330 730" fill="none" xmlns="http://www.w3.org/2000/svg">
<g clip-path="url(#clip0_2_599)">
<path d="M0 0H1330V730H0V0Z" fill="white"/>
<path d="M729.601 52.0358C724.141 55.9218 717.42 57.5432 711.702 61.0947C703.641 65.8814 694.975 72.2252 690.237 80.4863C692.799 80.5378 696.031 81.1168 698.388 79.8944C703.422 77.3337 706.964 73.0359 712.359 70.784C719.171 67.966 726.446 66.1645 733.593 64.3631C733.168 65.4182 732.743 66.4734 732.318 67.5285C725.429 69.6646 718.166 71.9679 711.831 75.455C709.732 76.5745 708.264 78.2731 706.693 79.9973C723.523 80.1003 740.057 83.0598 756.308 87.3319C798.054 98.7585 836.131 123.014 861.923 158.027C870.152 168.437 875.933 180.082 882.398 191.586C884.419 195.498 885.733 200.182 888.256 203.746C890.652 207.015 895.39 207.606 898.777 205.612C905.885 201.494 912.349 195.639 916.65 188.614C919.921 183.222 919.805 177.753 922.161 171.911C923.294 174.408 924.865 176.029 923.938 178.899C922.213 187.263 917.5 194.353 911.319 200.092C906.387 205.059 900.258 208.031 895.055 212.625C901.957 217.45 910.302 216.459 917.307 212.458C923.475 208.713 929.643 203.772 933.325 197.467C934.33 197.505 935.321 197.544 936.326 197.582C935.167 201.958 933.313 205.355 929.578 208.031C922.985 212.728 915.851 217.965 908.035 220.294C904.043 221.246 899.588 220.706 895.506 220.68C896.807 225.814 896.523 233.702 901.79 236.597C907.919 239.853 915.182 240.689 921.891 238.836C928.818 237.64 934.265 233.445 941 231.759C938.09 237.112 931.909 238.733 926.72 241.268C917.706 245.257 908.228 244.884 899.279 240.96C899.485 247.381 899.537 254.329 901.12 260.583C901.339 261.419 901.88 262.127 902.743 262.732C907.404 266.489 912.684 269.745 916.238 274.917C919.019 279.627 916.972 286.408 914.512 290.873C912.053 295.647 907.791 298.658 904.829 302.93C904.275 310.033 905.048 317.136 904.005 324.239C902.91 355.611 898.661 388.578 887.432 418.058C873.126 453.109 849.343 484.018 819.378 507.128C812.463 512.623 804.583 516.251 797.346 521.231C788.654 527.099 780.027 532.915 770.408 537.2C772.919 547.777 779.228 555.331 785.448 563.888C788.847 568.52 793.599 572.367 797.758 576.369C798.698 577.231 799.664 578.068 800.591 578.93C805.355 583.948 810.197 589.687 809.695 597.061C810.004 601.397 807.828 604.395 805.871 608.011C817.975 607.728 830.118 607.586 842.209 607.844C844.784 607.728 845.879 610.057 847.694 611.563C840.78 612.373 833.865 611.756 826.95 612.836C817.241 612.991 807.815 613.711 798.402 616.246C794.861 618.537 792.015 621.844 788.59 624.353C784.199 627.943 779.215 630.439 774.515 633.566C782.1 635.059 789.646 634.75 797.32 634.802C805.24 634.956 812.979 633.373 820.924 633.772C820.035 636.14 820.202 638.585 817.897 639.987C811.845 640.18 805.935 639.035 799.909 639.022C788.281 638.868 776.666 639.151 765.051 638.945C760.75 638.765 756.282 640.965 752.084 642.033C742.954 644.478 733.361 645.585 723.922 645.405C711.419 645.52 699.765 645.16 688.64 638.752C686.425 637.761 683.257 634.879 680.824 636.384C676.149 638.919 671.848 642.406 668.063 646.138C684.184 646.267 699.547 649.818 715.617 648.84C715.668 649.895 715.72 650.951 715.784 652.006C705.753 653.434 695.4 652.855 685.292 652.984C678.454 653.164 671.836 651.8 665.049 651.465C664.998 649.741 664.972 648.004 664.946 646.28C642.322 654.348 618.371 652.572 595.875 645.147C590.673 643.462 586.346 640.155 581.054 640.167C576.508 640.039 572.375 639.318 568.1 637.813C569.89 636.14 571.847 634.686 573.843 633.257C570.237 630.478 566.877 627.827 564.263 624.044C561.623 620.184 560.322 615.976 558.738 611.64C547.716 612.051 536.655 611.678 525.619 611.756C517.185 611.627 508.751 612.154 500.329 611.846C500.329 610.597 500.316 609.336 500.316 608.088C514.841 605.296 530.293 606.21 544.922 607.754C549.325 608.011 553.755 607.934 558.159 607.908C559.653 602.684 560.94 597.717 564.481 593.432C569.735 586.419 577.745 582.379 581.646 574.838C572.954 573.564 563.941 573.95 555.223 574.774C548.759 575.945 542.32 575.996 535.779 575.739C535.109 574.684 534.453 573.641 533.783 572.599C534.285 571.557 534.775 570.527 535.277 569.498C543.196 569.331 551.205 569.639 559.099 568.893C568.138 567.491 577.075 568.713 586.179 567.902C588.136 559.332 591.42 551.625 591.046 542.63C568.834 535.9 548.875 523.92 531.027 509.277C524.113 503.281 517.069 497.593 510.978 490.722C504.862 483.683 498.269 476.477 492.925 468.834C476.79 444.231 465.716 416.655 462.098 387.355C461.415 380.381 461.75 373.355 461.055 366.381C457.269 364.477 453.483 362.675 449.363 361.633C448.886 367.076 449.788 371.979 446.723 376.778C442.86 382.942 436.602 387.909 429.584 389.942C419.269 392.992 407.423 386.287 403.083 376.868C402.285 370.499 402.427 363.756 403.791 357.464C400.379 358.262 396.709 359.445 393.194 359.265C389.717 358.763 384.901 356.717 382.055 354.659C379.467 351.493 377.394 347.35 375.965 343.515C375.012 338.458 375.153 333.092 375.63 327.984C375.926 322.888 382.545 319.736 383.42 315.335C379.725 309.544 373.647 304.771 374.033 297.217C373.673 292.327 376.299 288.467 379.738 285.276C384.322 281.145 390.953 279.164 396.838 277.71C403.032 276.243 408.324 277.864 414.299 279.202C414.492 273.399 414.273 266.811 418.394 262.191C421.085 259.283 424.626 256.722 428.412 255.474C433.807 254.509 440.272 254.741 444.714 258.395C448.448 260.982 452.479 265.511 457.346 265.395C464.197 264.958 471.717 262.191 476.571 257.211C478.76 253.493 479.61 248.796 480.666 244.627C473.584 248.732 465.884 248.358 458.338 250.983C455.492 252.193 452.698 250.301 450.071 249.298C442.473 246.351 435.584 237.678 437.619 229.198C439.37 229.803 441.173 229.443 441.817 231.54C443.581 235.812 445.049 239.75 449.015 242.504C456.793 247.972 468.446 247.471 476.571 243.005C478.168 241.86 480.589 241.32 480.228 238.914C469.785 235.722 460.166 231.219 455.389 220.744C452.414 212.818 449.169 204.763 451.668 196.296C452.917 196.141 454.179 195.987 455.428 195.82C455.286 201.52 454.552 207.722 456.535 213.152C457.964 217.193 460.063 221.465 463.231 224.412C469.232 229.224 475.451 233.265 483.345 233.869C487.89 225.93 491.058 217.373 495.526 209.408C514.738 173.378 540.698 138.893 576.096 117.442C597.549 104.909 618.873 94.036 643.223 88.2327C648.876 86.9073 654.323 86.354 659.693 83.9863C655.443 80.0359 650.821 76.6003 646.945 72.2381C647.704 70.9127 648.451 69.5745 649.198 68.2491C656.087 72.444 660.568 79.058 666.723 83.8962C671.179 84.0121 675.75 82.7124 680.373 83.0084C680.875 74.9789 683.322 67.9274 687.365 61.0303C688.781 61.0046 690.198 60.9788 691.602 60.9531C688.781 65.8686 686.013 70.5267 685.305 76.2914C693.778 69.3686 701.813 62.3042 711.676 57.3116C717.059 54.6479 723.485 51.6369 729.601 52.0358Z" fill="#030D1A"/>
<path d="M686.414 92.1536C688.177 98.1195 688.64 104.585 689.815 110.73C691.816 121.343 692.466 132.02 693.704 142.748C693.829 146.013 694.704 150.801 692.691 153.63C689.252 154.808 685.201 154.782 681.588 155C679.125 144.323 680.337 134.401 680.062 123.519C680.287 113.149 679.425 102.139 681.375 92C683.051 92 684.739 92.0512 686.414 92.1536Z" fill="#0668AB"/>
<path d="M674.97 92C675.884 95.5045 676.193 99.0091 676.14 102.605C675.965 112.623 675.898 122.629 675.951 132.634C675.978 140.126 676.933 147.539 677 155.03C673.532 155.955 670.077 157.153 666.433 156.984C663.529 154.092 664.134 148.125 664 144.373C664.874 128.882 665.842 113.04 670.251 98.058C671.112 95.0616 672.295 93.6546 674.97 92Z" fill="#0668AB"/>
<path d="M705 92C707.956 92.8045 711.344 92.9833 713.489 95.3587C718.015 100.16 720.88 106.724 723.3 112.739C727.46 123.875 730.651 135.42 734 146.824C728.362 149.812 723.862 150.86 717.427 151C714.719 139.443 712.221 127.898 709.997 116.251C708.362 108.078 705.641 100.352 705 92Z" fill="#0668AB"/>
<path d="M691 93C693.355 93.1038 695.697 93.2075 698.039 93.4021C702.84 103.7 704.659 115.127 707.223 126.268C708.924 134.75 711.527 142.947 714 151.222C708.937 152.726 703.926 153.115 698.667 152.973C696.586 138.239 695.762 123.194 693.172 108.486C692.269 103.35 691.536 98.1879 691 93Z" fill="#0668AB"/>
<path d="M722 94C723.08 94 724.173 94.026 725.254 94.0779C729.877 102.736 734.852 110.953 740.09 119.222C744.236 126.958 749.588 134.76 752 143.275C749.462 146.533 742.905 146.819 739.173 148C737.565 143.509 736.196 138.978 735.128 134.331C732.829 124.401 729.676 114.678 725.744 105.319C724.211 101.581 722.729 98.0111 722 94Z" fill="#0668AB"/>
<path d="M732 94C737.47 95.3978 742.559 97.7883 746.468 102.073C751.633 107.716 755.568 114.483 760.441 120.401C765.022 126.005 768.259 132.354 771 139.055C766.647 141.419 762.827 142.713 757.865 143C751.405 132.667 748.524 120.949 741.633 110.969C737.863 105.483 733.98 100.519 732 94Z" fill="#0668AB"/>
<path d="M665 96C664.91 101.419 664.219 106.736 663.348 112.065C660.966 127.212 660.992 142.283 659.84 157.57C650.389 158.883 640.158 159.661 630.708 158.246C628.877 152.406 631.041 145.011 632.219 139.159C634.716 128.5 636.304 116.744 640.99 106.812C642.501 103.357 645.126 101.049 648.084 98.8305C647.508 109.783 644.704 120.263 644.397 131.254C644.358 139.172 643.103 146.184 647.022 153.439C647.598 146.885 647.162 140.332 647.572 133.791C648.341 123.464 649.608 113.531 652.976 103.688C653.757 101.623 654.679 99.0983 656.421 97.6575C658.982 96.459 662.208 96.3698 665 96Z" fill="#0668AB"/>
<path d="M753 100C760.521 101.387 766.212 104.056 772.147 108.876C780.167 115.485 787.47 124.154 791 134.132C787.291 135.479 783.467 137.099 779.578 137.773C777.826 137.941 776.496 138.511 775.306 136.801C772.186 132.447 770.472 127.018 767.85 122.314C763.782 114.176 757.144 108.099 753 100Z" fill="#0668AB"/>
<path d="M637 103C634.579 115.047 630.673 126.607 628.824 138.795C627.783 145.69 626.507 152.496 624.541 159.199C618.565 160.147 613.032 160.237 607.018 159.557C606.953 151.881 606.94 144.422 609.361 137.014C612.238 127.966 615.246 118.354 620.401 110.28C624.346 104.359 630.504 103.961 637 103Z" fill="#0668AB"/>
<path d="M614 110C612.017 120.079 607.164 129.083 605.064 139.149C603.446 146.084 603.577 152.838 603.316 159.889C598.189 160.083 593.114 160.031 588 159.669C589.565 151.117 591.979 142.798 594.601 134.517C596.715 128.036 599.324 121.554 604.203 116.611C607.008 113.7 610.399 111.798 614 110Z" fill="#0668AB"/>
<path d="M784 111C789.78 113.193 796.171 116.112 800.486 120.585C802.931 123.041 803.198 125.948 804 129.118C801.721 130.07 799.442 131.035 797.164 132C791.753 125.71 788.519 118.054 784 111Z" fill="#0668AB"/>
<path d="M595 122C593.264 130.456 590.181 138.38 587.655 146.62C586.269 151.228 584.417 155.646 582.37 160C578.251 159.975 574.119 159.924 570 159.797C571.71 150.62 574.547 140.785 579.689 132.848C583.368 127.253 588.912 124.468 595 122Z" fill="#0668AB"/>
<path d="M820.411 134C829.108 139.086 836.646 146.366 842.705 154.383C846.461 159.03 850.578 163.315 854 168.246C845.522 172.429 836.633 174.804 827.461 176.908C807.47 181.865 786.964 184.86 766.446 186.628C748.886 189.158 731.378 188.59 713.779 189.881C699.204 190.01 684.603 190.062 670.028 189.894C657.176 188.551 644.312 189.106 631.435 188.345C625.041 187.674 618.648 187.893 612.241 187.454C600.098 185.931 587.452 185.931 575.269 183.827C565.428 181.8 555.201 181.413 545.18 181.194C540.047 181.077 535.133 179.864 530 179.309C530.592 174.688 533.087 172.183 537.654 171.293C552.268 170.157 565.583 172.158 579.978 171.848C591.967 171.809 604.034 172.183 615.985 171.228C625.865 170.893 635.77 171.177 645.624 170.712C652.468 169.847 659.235 168.569 666.143 168.208C694.586 165.574 722.077 163.948 749.941 157.016C768.787 151.904 789.164 148.987 807.02 141.138C811.715 139.15 815.935 136.375 820.411 134Z" fill="white"/>
<path d="M571 138C569.927 145.482 567.627 152.582 566.183 160C562.784 159.797 559.386 159.555 556 159.238C559.91 151.07 563.372 143.449 571 138Z" fill="#0668AB"/>
<path d="M556 149C554.959 152.356 553.778 155.658 552.568 158.96C550.374 158.973 548.194 158.987 546 159C548.94 155.282 552.174 151.926 556 149Z" fill="#0668AB"/>
<path d="M860.041 179C863.551 182.675 866.393 186.731 868 191.563C857.353 199.472 845.407 202.193 832.806 205.499C825.528 207.291 818.816 210.585 811.525 212.378C782.233 220.045 752.196 225.207 722.119 228.755C707.216 230.738 692.197 231.349 677.307 233.231C671.456 233.612 665.619 233.548 659.781 234.248C635.941 235.685 612.59 234.617 588.789 234.642C568.215 234.566 547.628 234.833 527.054 234.884C517.848 234.909 509.027 233.243 500 231.73C501.942 224.368 506.262 217.476 509.695 210.547C513.244 203.401 517.475 196.674 521.86 190.011C533.098 189.986 544.144 192.415 555.382 192.936C578.142 195.53 600.824 198.225 623.738 199.281C635.838 200.985 648.504 200.171 660.797 200.336C686.475 200.73 712.205 200.896 737.884 200.184C745.612 199.154 753.353 198.963 761.094 198.162C776.64 197.297 792.134 194.729 807.5 192.338C825.322 188.892 843.35 185.866 860.041 179Z" fill="white"/>
<path d="M872.944 202C884.366 219.458 888.868 242.005 890.669 262.475C886.45 264.885 882.36 266.551 877.639 267.731C871.413 258.194 863.862 250.003 853.469 244.953C846.291 241.39 836.939 242.569 830.739 247.555C825.967 251.734 825.221 259.066 824.269 264.924C816.371 263.655 807.997 261.847 800.073 264.039C792.445 265.949 787.056 272.935 786.58 280.638C787.956 285.176 791.082 289.316 793.436 293.431C786.245 299.391 778.823 304.031 775.8 313.414C773.601 319.515 775.903 325.258 779.813 330.013C784.161 335.217 790.246 340.357 797.346 340.652C806.929 341.229 816.332 336.807 825.208 333.628C826.739 341.293 826.726 349.343 828.745 356.867C830.379 362.122 839.602 362.007 840.091 356.329C840.901 348.061 839.152 339.383 838.2 331.141C837.094 325.36 836.875 318.708 830.495 316.208C824.308 318.054 819.908 323.95 813.721 326.399C807.778 328.783 800.536 329.911 794.272 328.18C789.422 326.693 785.679 322.553 786.618 317.259C788.059 309.697 795.018 305.723 801.707 303.313C809.155 300.622 816.036 303.057 823.381 301.839C824.642 300.442 825.723 298.84 826.816 297.315C823.664 295.059 820.513 292.982 816.757 291.88C811.599 290.124 804.524 288.983 800.523 285.112C798.594 282.587 796.536 278.1 800.035 275.921C804.871 272.653 812.306 273.101 817.747 274.358C825.131 276.075 829.466 280.946 835.627 284.663C838.483 286.676 843.911 284.907 843.037 280.869C841.789 274.986 836.219 269.012 836.116 262.847C835.987 259.566 838.007 256.284 841.339 255.605C848.491 254.259 856.337 257.925 861.328 262.924C866.499 268.436 866.409 274.716 868.493 281.472C869.175 284.099 872.725 284.868 874.989 283.894C880.482 281.625 885.151 276.972 891.248 276.114C894.927 275.703 899.275 275.434 902.774 276.831C905.089 278.024 905.076 280.831 904.96 283.074C904.6 287.329 900.754 291.098 897.255 293.162C890.914 296.776 882.655 296.289 875.645 297.148C872.699 297.558 869.947 298.122 867.618 300.083C866.435 307.736 868.467 316.067 869.496 323.694C869.934 327.655 871.735 330.5 874.191 333.538C876.018 331.654 878.706 329.936 879.234 327.257C880.842 321.528 879.221 314.632 878.964 308.697C883.17 307.889 887.389 307.146 891.647 306.633C892.097 321.041 892.136 335.589 890.554 349.932C890.142 353.804 889.975 358.11 888.508 361.751C887.016 364.199 883.569 365.583 881.073 366.827C873.214 370.249 865.213 373.351 857.186 376.35C821.632 389.091 784.457 394.001 747.063 397.897C724.591 399.41 704.46 403.537 681.924 401.397C680.457 396.782 679.84 392.078 675.749 388.976C672.019 385.925 666.977 385.374 662.822 387.951C657.393 391.014 654.834 396.026 652.878 401.704C643.926 402.179 635.024 401.82 626.084 401.794C618.238 401.743 610.494 401.884 602.66 401.128C594.762 400.371 586.838 400.781 578.953 400.076C569.383 399.089 559.774 399.077 550.204 398C531.655 396 512.926 394.347 494.621 390.758C488.614 389.604 482.208 389.181 476.433 387.169C474.323 386.4 472.972 385.143 472.677 382.849C471.776 375.915 473.243 368.506 472.085 361.584C471.377 357.341 466.991 355.547 463.505 353.983C457.434 351.612 451.156 349.163 444.712 348.061C442.088 347.959 437.971 347.074 437.341 350.561C435.733 356.47 440.313 363.648 438.55 369.711C436.955 373.646 433.482 377.658 429.687 379.619C426.124 380.875 421.429 380.426 417.995 378.94C414.612 377.568 414.419 373.543 414.174 370.441C413.788 364.225 415.422 358.649 419.011 353.586C422.085 349.099 426.832 346.408 429.983 342.165C430.601 338.858 428.98 336.14 425.353 336.397C415.268 336.576 405.26 346.625 394.494 345.6C389.425 345.369 384.306 341.383 385.078 335.922C386.171 331.398 390.39 326.219 394.506 324.04C402.7 320.208 414.046 323.656 422.703 321.348C427.256 320.669 429.276 315.632 425.648 312.632C420.94 308.607 413.21 309.979 407.421 309.53C398.803 309.21 391.059 306.71 385.451 299.865C392.217 293.79 401.067 290.893 410.032 293.341C418.535 296.11 426.202 302.237 434.267 306.287C435.373 302.955 437.444 299.045 436.055 295.559C433.559 289.111 425.996 283.458 424.761 276.511C424.221 272.794 427.925 270.205 431.205 269.666C437.277 268.231 443.091 273.653 445.921 278.434C448.931 284.176 444.609 290.726 444.493 296.571C446.152 299.994 450.873 301.788 454.141 303.262C460.932 305.98 469.384 309.389 476.767 308.082C479.674 305.531 480.112 300.365 480.819 296.776C482.71 283.548 484.575 270.948 490.094 258.63C489.347 265.859 488.28 273.268 488.396 280.536C489.862 278.626 491.29 276.908 491.676 274.46C493.412 265.616 493.991 254.221 499.162 246.543C500.397 244.248 503.343 244.825 505.568 244.248C504.848 254.785 498.956 263.398 499.072 274.076C500.281 273.794 501.503 273.524 502.725 273.242C504.912 264.308 506.687 253.644 512.025 245.991C514.469 244.979 517.762 246.53 520.232 247.017C518.779 254.272 517.055 261.36 516.926 268.807C517.981 268.718 519.023 268.615 520.078 268.525C521.519 260.732 522.728 253.349 527.423 246.709C529.301 246.671 531.192 246.645 533.083 246.619C532.658 253.041 530.42 258.297 533.211 264.526C535.462 258.681 536.852 252.58 539.064 246.709C542.19 246.786 545.328 246.85 548.467 246.927C547.76 252.311 545.779 256.682 548.621 261.911C550.409 257.694 551.361 253.169 553.214 248.991C554.127 247.183 554.783 246.619 556.88 246.619C560.867 246.12 562.758 248.709 565.588 250.901C568.572 248.273 570.785 245.632 575.158 245.761C582.632 245.799 590.067 246.953 597.579 246.85C592.833 251.965 588.356 256.579 586.491 263.539C584.742 268.602 586.118 275.729 590.749 278.844C592.64 279.139 594.672 279.011 596.589 278.972C594.26 275.319 590.324 271.23 590.659 266.628C590.736 260.694 595.187 255.515 599.907 252.362C604.32 249.593 608.963 246.594 614.379 246.722C623.717 246.619 633.069 246.837 642.408 246.696C639.706 250.337 636.452 254.272 635.796 258.873C635.41 261.77 635.333 264.885 636.118 267.718C637.854 271.948 644.53 274.306 647.785 270.294C652.994 263.655 652.171 253.503 647.785 246.568C661.175 246.158 674.489 244.351 687.892 243.94C703.997 242.479 720.218 241.441 736.207 239.031C743.487 237.647 750.601 236.032 758.049 235.916C759.747 238.621 761.406 241.351 763.091 244.069C764.069 244.171 765.046 244.274 766.024 244.376C765.587 240.71 765.034 237.07 764.455 233.417C766.397 233.686 768.417 233.917 770.307 234.468C773.317 237.903 775.093 242.569 777.202 246.594C778.167 246.76 779.132 246.94 780.096 247.119C779.119 242.184 777.948 237.301 776.842 232.391C780.791 231.725 785.924 230.174 789.795 231.584C795.327 235.993 796.33 242.569 803.919 244.44C801.964 238.185 798.118 233.045 795.635 227.034C798.838 226.675 802.684 225.188 805.45 227.585C809.888 231.187 813.451 235.852 817.58 239.813C818.455 239.377 819.329 238.941 820.204 238.506C816.667 233.981 813.477 229.302 810.763 224.239C813.657 223.457 817.657 221.471 820.629 222.586C825.311 227.969 825.671 234.737 833.222 237.16C831.588 231.084 828.347 226.252 825.633 220.637C827.768 219.522 829.903 218.407 832.026 217.266C839.19 223.342 843.178 230.033 851.629 233.75C852.17 228.444 848.285 227.226 845.159 223.867C842.599 221.522 840.914 218.651 839.216 215.677C841.943 214.869 846.175 212.434 848.967 213.716C855.604 219.227 857.559 227.944 867.065 229.636C866.139 227.008 865.187 224.637 863.142 222.675C859.656 219.176 856.852 215.626 854.395 211.331C857.276 210.396 862.512 207.281 864.724 210.78C868.84 216.587 870.384 223.765 874.873 229.456C875.259 226.893 876.211 224.713 875.336 222.201C873.561 216.459 870.294 211.28 868.442 205.538C869.908 204.32 871.413 203.166 872.944 202Z" fill="#0668AB"/>
<path d="M736 240.077C742.587 239.714 748.839 240.53 754.136 244.963C757.585 247.97 759.036 252.922 757.2 257.316C754.347 263.914 749.571 269.073 743.803 273C743.48 272.183 743.158 271.367 742.835 270.55C746.792 266.389 752.127 261.542 753.851 255.825C754.881 252.844 752.226 249.435 749.794 248.165C745.75 246.13 741.061 245.365 736.831 243.732C736.546 242.513 736.261 241.295 736 240.077Z" fill="#030D1A"/>
<path d="M688.675 247.825C692.43 245.552 696.623 248.343 698.176 251.753C701.932 258.813 699.928 268.652 691.793 271.885C686.405 272.845 681.509 267.604 682.04 262.602C682.146 257.601 683.977 250.73 688.675 247.825Z" fill="#030D1A"/>
<path d="M474 265C472.606 275.582 470.501 286.61 468.029 297C464.315 295.519 460.702 293.86 457.089 292.15C458.394 285.193 458.749 278.249 457 271.318C463.11 270.182 468.549 267.923 474 265Z" fill="white"/>
<path d="M671.653 287.27C677.444 286.211 683.922 288.43 688.975 291.153C695.364 294.33 698.584 302.652 696.23 309.284C693.162 318.487 686.226 326.721 676.744 329.797C667.224 333.138 655.705 329.255 649.622 321.425C644.365 314.869 645.002 304.757 650.423 298.478C655.527 292.351 663.927 288.732 671.653 287.27Z" fill="#030D1A"/>
<path d="M672.67 298.309C677.513 297.329 681.544 298.856 686 300.421C685.781 303.283 685.897 306.439 684.957 309.187C680.707 317.991 669.862 322.24 660.615 318.818C657.086 317.037 654.716 312.838 656.751 309.072C659.52 302.635 666.179 299.759 672.67 298.309Z" fill="#0668AB"/>
<path d="M886 378C884.055 387.441 881.259 396.64 878.838 405.966C878.245 407.964 877.73 410.47 876.325 412.073C873.015 414.415 868.918 415.789 865.157 417.252C849.698 422.608 833.48 425.598 817.699 430.115C800.334 433.322 782.711 435.383 765.23 437.864C750.712 439.582 736.168 440.383 721.624 441.745C705.07 441.846 688.169 442.699 671.731 440.587C638.586 437.915 605.259 434.899 572.139 431.82C565.338 431.311 558.523 429.288 551.786 428.067C529.938 424.161 508.025 421.018 486.048 417.583C483.897 417.086 481.436 416.985 480.599 414.605C478.422 409.834 477.43 404.49 476 399.464C489.088 401.857 502.318 403.625 515.497 405.546C531.87 407.226 547.947 409.656 564.41 410.19C574.716 411.654 585.073 410.75 595.379 412.175C602.683 412.608 609.974 412.71 617.266 413.422C644.756 413.995 672.234 414.007 699.724 413.511C740.432 411.017 781.242 408.142 821.035 398.523C838.658 394.617 855.714 390.622 872.538 383.993C877.086 382.122 881.44 379.832 886 378Z" fill="white"/>
<path d="M870 426C868.42 431.373 866.377 437.211 862.806 441.576C859.838 445.387 853.813 445.748 849.497 447.647C836.162 453.226 822.172 457.489 808.207 461.286C797.66 464.205 787.1 465.574 776.322 467.24C760.983 469.165 745.477 469.487 730.164 471.502C718.615 472.161 707.156 473.22 695.568 472.949C666.072 473.453 637.385 470.133 608.095 467.55C600.014 466.491 591.869 465.445 583.712 465.199C556.605 463.017 529.486 459.465 502.559 455.693C500.555 455.267 498.808 454.957 497.678 453.059C492.488 445.839 489.237 436.927 486 428.699C514.764 433.788 544.028 436.785 572.407 443.398C577.905 444.534 583.429 444.392 588.992 444.844C608.968 447.376 629.215 448.293 649.268 450.372C656.475 451.315 663.849 450.863 671.121 451.586C680.049 452.568 689.157 452.271 698.137 452.464C713.476 452.309 729.136 452.981 744.372 451.302C751.001 451.121 757.373 450.411 763.912 449.403C778.814 447.104 793.781 445.464 808.644 442.933C829.661 438.967 850.088 433.982 870 426Z" fill="white"/>
<path d="M850 461C843.085 471.58 834.161 479.839 825.301 488.713C817.42 496.485 808.122 502.768 798.554 508.257C792.102 511.95 786.05 516.247 779.675 520.055C772.58 524.339 764.454 526.942 756.663 530.315C757.539 539.83 761.711 547.871 766.321 556.04C771.562 565.722 778.632 573.442 786.127 581.432C789.823 585.382 794.626 588.562 797.807 592.91C799.236 596.475 796.725 599.296 794.729 601.976C788.458 609.35 781.465 616.365 772.953 621.148C761.35 627.779 747.919 632.113 734.488 632.472C719.781 632.703 705.976 633.229 692.262 627.073C693.434 620.866 695.159 614.659 693.82 608.324C692.7 603.387 690.922 598.591 689.609 593.692C697.284 589.704 705.436 586.946 714.115 586.28C721.417 585.754 728.487 587.895 735.582 587.177C738.454 586.69 741.171 584.587 743.631 583.125C739.767 575.353 732.71 570.506 729.13 562.619C725.924 556.297 724.971 549.666 723.49 542.831C722.795 540.305 722.151 537.047 719.331 536.06C715.931 535.226 711.836 536.445 708.513 537.317C689.39 543.344 667.91 543.524 648.13 541.202C644.215 541.151 639.463 540.061 637.867 544.768C636.72 550.91 638.073 556.861 635.806 563.016C633.733 569.544 629.457 574.327 626.187 580.137C623.972 583.843 626.431 588.883 630.539 589.793C639.348 591.178 648.465 587.536 656.951 589.126C661.664 590.063 666.339 591.525 670.666 593.628C681.174 598.27 684.973 614.544 676.693 622.828C668.863 631.395 656.784 636.448 645.49 638.384C633.437 639.5 620.945 639.256 609.137 636.345C601.088 634.383 592.705 632.844 585.686 628.266C581.179 625.329 576.53 622.136 572.937 618.109C569.203 614.031 569.37 607.837 572.165 603.31C577.123 595.077 586.704 588.921 592.486 581.445C596.761 575.905 598.384 568.992 600.174 562.388C601.938 555.386 604.192 547.922 603.702 540.664C603.522 537.919 602.865 534.572 600.959 532.456C598.822 530.687 595.564 530.071 592.949 529.263C581.9 526.609 571.173 520.94 561.077 515.721C549.861 509.873 541.284 501.794 531.858 493.509C523.874 485.994 515.297 478.21 509 469.246C521.208 470.144 533.377 471.618 545.573 472.76C574.238 475.055 602.724 479.095 631.389 481.519C642.425 482.711 653.423 482.044 664.446 482.686C679.436 484.353 694.747 483.494 709.969 483.75C719.91 483.994 729.671 482.365 739.6 482.327C749.129 482.186 758.388 480.121 767.918 479.762C779.843 479.39 790.724 476.363 802.224 473.683C811.444 471.4 820.703 469.233 829.872 466.72C836.697 464.924 842.956 462.052 850 461Z" fill="#0668AB"/>
<path d="M712.872 550C715.021 558.831 719.551 566.308 723 574.61C715.742 574.79 708.805 574.249 701.714 576.247C694.43 577.665 688.06 581.055 681.857 585C677.16 582.048 672.63 579.199 667.199 577.781C659.812 575.602 652.593 575.821 645 575.77C647.728 569.066 651.061 563.278 650.817 555.737C662.515 555.982 674.264 556.123 685.95 555.53C695.19 554.654 703.992 552.578 712.872 550Z" fill="white"/>
<path d="M801.619 572C820.738 572.283 839.843 572.219 858.948 572.36C858.974 573.969 858.987 575.564 859 577.173C847.56 577.636 836.185 576.349 824.706 577.945C816.808 578.961 808.651 577.675 800.844 579C799.913 578.138 798.944 577.301 798 576.439C799.215 574.96 800.391 573.467 801.619 572Z" fill="#030D1A"/>
<path d="M510 587.524C502.965 589.108 495.903 589.09 488.803 588.928C479.479 588.694 470.491 589.576 461.192 588.172C454.803 587.2 448.428 586.876 442 587.434C465.343 585.364 487.2 591.592 510 587.524Z" fill="#0668AB"/>
<path d="M442.123 587.338C448.52 586.919 454.864 587.162 461.222 587.892C470.475 588.946 479.419 588.284 488.698 588.459C495.764 588.581 502.791 588.595 509.792 587.405L512.945 587C513.305 588.257 513.653 589.5 514 590.757C513.305 591.838 512.623 592.919 511.928 594C507.166 593.892 502.469 593.27 497.72 592.905C478.48 592.324 459.24 593.068 440 592.676C440.669 590.878 441.39 589.095 442.123 587.338Z" fill="#030D1A"/>
<path d="M512.41 587C513.112 589.651 515.706 593.063 512.231 594.6C508.488 595.432 504.336 594.755 500.554 594.459C490.449 593.303 480.587 593.909 470.456 593.81C460.172 593.655 450.246 594.586 440 592.922C459.099 593.331 478.198 592.555 497.297 593.162C502.011 593.542 506.673 594.191 511.4 594.304C512.09 593.176 512.767 592.048 513.457 590.92C513.112 589.609 512.767 588.311 512.41 587Z" fill="white"/>
<path d="M415.545 604.106C419.877 603.587 424.493 605.144 428.876 605.226C440.917 605.512 452.972 605.144 465 605.417C464.394 607.862 464.923 610.648 462.576 612C451.502 610.498 440.105 609.705 428.928 609.555C424.583 609.296 420.444 610.839 416.138 610.716C414.707 609.774 413.328 608.736 412 607.629C413.147 606.4 414.321 605.226 415.545 604.106Z" fill="#030D1A"/>
<path d="M871 605.346C879.115 604.573 887.152 605.213 895.216 606.119C903.977 606.973 911.911 605.066 920 607.973C919.057 609.32 918.113 610.667 917.17 612C912.867 611.893 908.487 611.907 904.196 611.467C893.342 610.093 882.061 611.053 871.233 610.533C871.155 608.8 871.078 607.079 871 605.346Z" fill="#030D1A"/>
<path d="M469.188 631.268C479.942 630.934 490.658 631.148 501.373 630.28C508.911 630.027 516.462 630.32 524 630C524 631.682 523.987 633.364 523.961 635.033C519.871 635.607 515.832 636.221 511.702 636.154C499.251 636.087 486.799 636.114 474.347 636.474C467.838 636.594 461.535 638.183 455 637.983C455.9 635.606 455.334 633.27 458.152 632.47C461.457 631.068 465.638 631.428 469.188 631.268Z" fill="#030D1A"/>
<path d="M872.506 635.999C874.49 636.34 875.489 637.511 877 638.522C867.512 639.057 857.998 639.636 848.497 640C847.669 638.863 846.828 637.727 846 636.59C854.056 632.351 863.911 634.181 872.506 635.999Z" fill="#030D1A"/>
<path d="M507.946 655.178C513.836 654.54 519.997 655.842 525.965 655.633C535.895 654.891 545.606 657.144 555.574 656.493C568.5 655.699 581.131 654.995 594.16 655.816C603.254 657.404 610.984 653.472 620 656.831C619.177 658.199 618.354 659.553 617.53 660.907C580.989 660.048 544.5 661.467 507.958 660.829C505.309 660.92 503.328 660.152 501 658.954C503.328 657.339 505 655.386 507.946 655.178Z" fill="#030D1A"/>
<path d="M866.674 665.187L868 667.016C865.012 672.27 859.629 671.84 854.181 672.27C836.589 672.43 818.971 672.442 801.366 672.147C788.603 670.907 775.57 671.472 762.743 671.349C755.827 671.177 749.053 672.466 742.15 672.356C730.932 672.098 720.282 674.909 709 673.694C709 672.307 709 670.932 709 669.557C712.58 668.035 716.225 666.857 720.179 666.685C762.691 665.875 805.358 667.336 847.768 666.329C854.22 666.28 860.479 664.414 866.674 665.187Z" fill="#030D1A"/>
<path d="M613.497 677.076C624.646 677.561 635.846 677.022 646.982 677.655C654.646 678.691 662.297 678.677 670 678.987C669.28 681.879 668.701 683.803 665.834 685C661.526 684.65 657.269 683.48 652.987 682.874C658.054 682.969 663.108 682.605 668.123 681.852C658.555 678.179 648.345 679.444 638.019 679.215C627.23 679.565 616.712 678.852 606 677.561C608.495 676.767 610.912 677.036 613.497 677.076Z" fill="#030D1A"/>
<path d="M605.346 678C616.149 679.212 626.758 679.881 637.639 679.553C648.053 679.767 658.351 678.581 668 682.027C662.942 682.734 657.845 683.075 652.735 682.986C635.862 682.393 618.951 683.428 602 682.532C602.96 681.055 603.777 678.934 605.346 678Z" fill="#030D1A"/>
</g>
<defs>
<clipPath id="clip0_2_599">
<rect width="1330" height="730" fill="white"/>
</clipPath>
</defs>
</svg>
