<svg width="1330" height="730" viewBox="0 0 1330 730" fill="none" xmlns="http://www.w3.org/2000/svg">
<g clip-path="url(#clip0_2_303)">
<path d="M0 0H1330V730H0V0Z" fill="#FEFEFE"/>
<path d="M479.135 76.6242C489.849 75.8013 501.065 75.8146 511.794 76.5313C530.739 78.7611 548.96 85.1984 563.605 96.374C568.289 90.3349 572.412 84.7869 580.481 82.1324C590.146 78.6417 600.564 81.6546 608.381 87.2424C616.435 93.016 620.721 100.568 625.139 108.704C673.788 102.241 723.737 106.634 770.449 120.252C774.484 117.026 777.321 112.912 781.784 110.005C789.217 104.842 799.65 101.484 808.901 104.47C818.019 106.727 823.398 113.721 827.713 120.769C844.545 109.448 866.121 103.581 887.09 104.019C916.409 103.209 946.497 113.589 970.481 128.282C985.954 137.44 999.431 149.266 1015.26 157.322C1026.8 163.189 1040.76 167.463 1054.14 166.719C1059.52 166.507 1064.94 164.662 1070.2 163.614C1071.31 165.565 1073.19 167.171 1072.64 169.48C1070.91 171.153 1068.43 172.121 1066.2 173.143C1049.7 179.806 1038.19 191.845 1020.96 197.738C1009.63 202.118 996.83 202.835 985.244 198.773C967.984 193.212 956.679 181.505 938.753 178.28C930.862 176.382 922.143 177.537 916.557 183.231C911.799 188.142 907.956 193.371 901.957 197.247C915.537 211.356 927.832 226.354 937.837 242.706C959.413 277.215 971.501 316.277 972.136 355.882C974.072 417.056 948.521 477.514 903.449 523.212C896.164 530.83 888.465 538.064 879.982 544.621C847.781 571.352 809.226 590.69 767.641 602.914C773.39 607.016 778.976 610.944 783.158 616.466C787.917 622.2 789.956 628.557 793.237 634.915C805.517 614.966 824.181 598.136 847.175 588.261C857.357 584.253 868.278 581.784 878.977 585.899C887.105 588.819 891.671 595.628 893.578 603.021C894.42 608.688 894.39 614.807 893.06 620.408C888.982 635.817 876.48 649.648 862.943 659.39C846.126 671.415 825.201 679.498 804.941 685.564C795.394 688.404 786.483 691.616 776.242 691.178C767.819 691.205 758.79 687.475 755.08 680.387C752.258 675.476 751.977 670.473 751.016 665.137C749.391 652.223 739.106 640.636 729.027 631.876C721.653 625.491 713.2 619.187 703.875 615.311C697.004 614.993 689.999 615.723 683.142 616.187C637.671 617.78 592.407 610.905 550.201 595.561C536.015 602.556 521.074 610.865 513.345 624.151C507.73 633.309 510.316 643.264 504.715 652.13C500.77 658.408 493.041 661.845 485.179 662.071C473.815 662.748 463.456 658.779 452.816 655.647C429.304 648.294 404.492 638.207 386.981 621.868C377.286 612.511 369.218 601.507 366.691 588.726C365.11 580.231 365.804 571.524 371.301 564.238C376.607 557.429 385.858 554.097 394.931 554.615C405.926 555.531 416.034 559.712 425.24 564.968C436.87 571.856 447.525 580.417 455.934 590.425C460.175 595.389 463.677 600.671 467.401 605.941C470.549 598.548 473.283 591.513 478.958 585.302C484.189 579.037 491.105 575.015 498.523 571.126C476.874 558.915 458.18 543.851 440.787 527.114C412.65 499.6 391.429 466.537 379.444 430.741C370.045 430.409 360.647 430.634 351.248 430.807C351.632 444.372 350.48 458.693 338.184 468.143C332.288 473.134 325.594 473.85 317.806 473.638C317.895 471.236 318.087 468.82 318.249 466.418C323.096 465.648 328.136 465.608 332.081 462.675C338.45 457.923 341.495 450.822 342.263 443.562C342.81 437.151 342.367 430.661 342.573 424.237C352.667 422.804 362.642 423.321 372.809 423.215C377.538 423.175 382.222 423.441 386.922 423.905C397.325 456.662 415.384 487.296 439.826 513.35C466.707 542.059 500.43 565.552 538.246 581.519C576.018 597.645 617.632 606.75 659.453 607.786C670.877 608.821 681.975 607.494 693.457 607.294C737.82 604.308 781.385 592.708 820.206 573.144C855.421 555.372 886.543 530.936 910.675 501.843C938.901 467.838 956.738 427.051 961.659 384.87C961.954 381.008 962.087 377.145 962.235 373.283C955.792 379.614 948.462 384.897 941.044 390.259C943.216 395.847 946.659 401.633 947.31 407.553C948.507 411.615 940.999 412.729 939.965 409.425C936.522 402.191 933.862 394.652 930.404 387.405C936.611 382.415 943.837 378.964 949.778 373.694C953.974 369.978 957.905 365.837 960.979 361.298C963.078 358.298 964.23 353.029 961.541 350.095C957.551 346.379 950.59 346.578 945.359 347.335C936.714 349.113 928.527 354.329 924.508 361.523C922.734 364.563 921.685 367.894 919.912 370.92C918.242 372.088 915.109 371.292 913.084 371.411C912.67 363.421 914.429 354.223 910.114 347.096C908.444 344.229 905.282 340.712 901.469 340.34C897.405 340.088 892.987 339.517 890.992 343.499C887.489 351.051 890.43 361.258 892.115 368.996C892.868 371.849 892.307 374.477 891.494 377.251C881.755 374.862 876.199 367.496 866.194 365.386C859.766 363.527 849.584 365.85 846.998 372.022C844.929 377.915 848.727 383.622 853.87 387.1C860.15 391.493 867.495 391.679 874.81 393.643C877.248 394.041 878.268 396.577 879.657 398.209C870.436 403.293 860.727 403.001 854.003 409.809C851.21 412.849 848.431 417.733 850.825 421.556C854.387 428.206 862.81 430.648 870.569 429.732C880.558 429.161 887.164 422.618 897.065 422.339C899.518 432.944 900.76 444.624 898.351 455.308C895.853 455.242 893.341 455.136 890.844 455.016C890.829 447.531 891.095 440.071 890.445 432.599C882.42 434.603 874.78 437.921 866.342 437.669C856.308 437.642 846.377 432.373 842.535 423.892C840.806 419.047 841.323 413.38 844.19 408.96C847.131 404.115 851.786 401.262 856.545 398.023C849.082 393.431 842.018 389.821 839.062 381.565C834.999 372.553 840.777 362.2 850.722 358.922C861.879 355.325 871.662 358.298 881.785 362.678C881.371 354.913 879.583 346.897 883.632 339.517C888.849 330.624 903.996 330.04 911.651 336.464C916.779 340.499 918.774 345.729 921.33 351.21C927.138 346.87 932.443 342.756 939.803 340.632C947.251 338.362 954.226 339.305 961.851 339.902C960.89 329.801 959.206 319.701 956.383 309.892C909.035 303.163 863.653 287.78 823.413 264.367C803.108 252.713 784.917 239.135 766.725 225.027C745.844 208.316 725.48 189.628 709.624 168.87C704.644 162.459 700.949 155.464 696.457 148.815C683.556 160.269 671.512 172.321 657.532 182.912C641.085 195.734 622.878 206.657 603.18 215.019C590.308 220.368 576.742 225.066 563.723 230.017C527.916 243.754 491.046 253.085 453.082 260.597C435.068 264.048 416.832 267.114 398.566 269.265C386.774 292.678 380.39 318.573 378.04 344.123C377.567 359.214 377.094 374.557 379.281 389.555C364.415 389.529 349.356 390.285 334.534 389.131C332.007 377.066 337.15 365.824 334.18 353.374C333.13 349.75 330.426 345.941 326.229 344.839C323.806 344.534 321.249 344.813 318.811 344.893L316.417 344.985C316.136 343.313 315.885 341.627 315.663 339.942C317.052 338.8 318.441 337.659 319.83 336.504C323.643 336.809 327.101 336.517 330.692 338.004C337.165 340.592 341.243 346.14 342.721 352.232C345.455 362.452 342.056 371.531 342.514 382.746C351.411 382.879 360.218 383.224 369.085 382.189C368.922 375.154 367.71 368.239 367.843 361.191C367.637 353.613 368.981 346.18 369.203 338.615C374.464 285.218 400.576 234.676 440.639 195.176C452.106 183.695 464.904 173.608 477.997 163.68C474.48 159.154 470.992 153.341 465.968 150.102C459.48 146.425 451.944 146.253 444.688 147.965C428.743 151.031 417.689 160.362 401.965 164.675C388.739 168.79 374.7 166.773 362.583 160.853C349.534 154.787 340.268 145.642 328.372 138.342C324.397 135.834 319.919 134.042 316.018 131.454C315.545 128.64 315.264 127.366 318.013 125.494C323.096 125.893 327.618 128.268 332.82 128.507C342.396 128.959 352.933 129.158 362.021 126.158C379.459 121.088 394 110.841 409.147 101.882C430.25 89.0077 453.806 79.9291 479.135 76.6242Z" fill="#020202"/>
<path d="M498.435 83.4464C517.941 83.8446 538.911 88.8484 554.413 99.8648C556.437 101.365 558.994 103.17 559.94 105.426C560.457 108.651 559.437 112.195 558.905 115.407C552.521 116.615 546.152 117.902 539.798 119.216C535.881 113.562 532.113 106.78 526.542 102.347C520.882 97.8075 513.508 94.3964 505.779 94.3698C498.021 94.33 490.765 97.7013 485.711 102.891C480.598 108.16 477.421 115.115 475.913 121.924C474.081 130.273 475.396 138.794 476.578 147.129C471.362 144.156 466.116 140.652 459.865 139.842C449.254 138.462 438.407 140.639 428.772 144.66C417.704 149.067 407.98 155.597 396.172 158.039C388.473 159.738 380.449 159.008 373.06 156.553C361.696 152.557 351.366 145.271 342.559 137.798C347.568 136.776 352.637 136.033 357.691 135.144C367.607 133.445 377.286 129.343 385.991 124.831C404.019 115.288 419.004 103.966 438.127 95.9758C457.323 88.198 477.184 82.9686 498.435 83.4464Z" fill="#4D3C20"/>
<path d="M588.549 92.0869C594.904 91.7949 599.677 95.4715 603.652 99.4533C609.962 106.196 613.79 114.943 615.489 123.543C616.908 133.1 616.272 143.89 609.844 152C606.874 155.836 602.559 157.946 597.445 158.517C594.15 158.251 590.899 156.831 587.84 155.783C590.544 146.067 590.692 136.378 583.495 128.175C580.052 123.424 573.978 121.513 570.018 117.584C569.323 111.744 571.629 105.506 574.717 100.435C577.732 95.9493 582.224 91.7286 588.549 92.0869Z" fill="#EAA0DB"/>
<path d="M515.872 107.908C522.256 111.877 527.828 118.473 530.325 125.07C528.138 129.821 524.192 133.511 522.877 138.767C519.981 147.686 523.734 156.327 529.039 163.799C525.168 168.126 521.311 171.697 514.705 171.883C508.809 171.245 503.282 167.755 499.558 163.733C491.977 155.504 488.105 144.912 488.371 134.254C488.164 125.136 489.243 115.673 496.839 108.917C501.523 104.178 510.449 104.338 515.872 107.908Z" fill="#EAA0DB"/>
<path d="M663.931 111.239C677.305 110.961 690.664 111.226 703.964 112.607C725.318 114.783 747.337 118.128 767.538 124.871C764.774 132.051 761.553 138.913 760.725 146.532C759.779 156.221 760.371 165.804 765.292 174.643C769.237 181.638 775.503 187.531 784.281 189.283C791.182 190.69 797.522 188.527 804.009 186.695C809.3 190.756 814.472 195.402 821.285 197.326C830.196 199.981 840.85 197.751 849.554 199.981C857.283 202.543 861.909 208.104 870.908 208.276C880.248 208.874 887.06 203.896 894.701 199.928C920.458 225.982 940.246 257.067 953.088 289.917C955.422 295.518 957.255 301.159 958.452 307.065C937.66 305.008 917.045 299.739 897.242 293.806C877.307 287.329 857.86 279.67 839.55 270.008C810.009 255.249 782.995 234.623 757.977 214.329C744.928 203.83 733.564 192.017 722.466 179.886C712.564 168.79 704.437 156.645 697.521 143.864C684.413 155.278 672.044 167.396 658.626 178.545C641.587 191.977 622.42 203.989 601.82 212.59C584.574 219.279 567.24 225.796 549.891 232.3C504.759 247.869 456.702 258.341 409.058 265.402C405.674 265.827 402.275 265.933 398.862 266.026C402.261 258.421 407.019 251.718 411.423 244.564C418.989 232.791 426.393 221.324 435.629 210.573C447.628 196.291 461.52 183.284 476.726 171.75C479.829 169.772 482.194 166.932 486.317 168.79C495.375 172.732 500.134 179.859 511.069 181.094C520.69 182.448 526.276 177.789 534.33 174.55C542.93 172.334 552.891 175.081 561.816 173.754C569.634 172.931 576.269 167.834 582.683 164.038C587.323 165.565 592.465 167.423 597.431 167.688C604.568 167.861 611.381 165.047 616.317 160.468C622.479 154.774 626.174 146.771 627.563 138.993C628.834 131.016 627.71 122.415 627.208 114.372C639.341 112.023 651.562 111.545 663.931 111.239Z" fill="#4D3C20"/>
<path d="M893.045 111.505C924.034 113.257 952.023 124.764 976.422 141.568C990.815 151.615 1003.61 161.636 1020.49 168.379C1028.44 171.776 1036.7 172.984 1045.23 174.617C1034.6 182.965 1021.32 190.929 1007.23 193.212C993.859 195.136 983.012 190.199 972.121 183.961C959.132 176.714 947.339 169.812 931.394 169.825C923.325 169.586 917.192 172.851 910.572 176.422C913.158 165.472 915.138 155.146 911.547 144.103C908.665 135.197 903.006 127.207 893.104 123.61C883.913 120.477 874.012 122.375 866.15 127.392C858.746 131.825 854.919 138.21 849.968 144.607C843.732 142.802 837.481 141.329 831.053 140.201C830.727 136.683 829.826 132.635 830.905 129.211C833.136 126.384 836.905 124.34 840.17 122.588C856.145 114.226 874.691 110.921 893.045 111.505Z" fill="#4D3C20"/>
<path d="M811.014 117.61C818.625 124.061 820.295 132.728 820.058 141.753C810.807 146.133 802.783 151.27 799.487 160.667C797.005 166.799 798.305 172.48 799.266 178.678C794.212 179.966 787.621 181.545 782.951 178.559C775.296 173.873 772.459 164.715 772.459 156.805C771.956 145.722 776.168 134.825 783.188 125.813C786.586 121.645 791.182 117.411 796.621 115.487C801.438 114.186 807.187 114.292 811.014 117.61Z" fill="#EAA0DB"/>
<path d="M548.147 128.706C556.674 125.189 567.329 126.676 573.846 132.834C581.766 139.643 580.983 152.239 573.033 158.769C563.383 167.237 545.324 166.348 538.024 155.716C530.827 146.319 536.96 132.861 548.147 128.706Z" fill="#EAA0DB"/>
<path d="M879.908 132.954C883.603 131.799 887.622 133.193 890.74 135.011C895.927 138.462 898.853 144.727 899.666 150.328C900.494 159.539 900.405 168.432 896.474 177.112C892.854 185.474 886.071 194.579 876.332 197.804C870.909 199.662 865.175 198.295 861.126 194.685C859.397 192.986 856.574 190.624 858.628 188.261C863.564 180.895 867.244 173.781 865.19 164.914C864.096 160.07 860.623 156.115 859.19 151.469C859.544 148.642 861.776 145.908 863.608 143.651C867.85 138.807 873.066 134.48 879.908 132.954Z" fill="#EAA0DB"/>
<path d="M696.457 148.815C700.949 155.464 704.644 162.459 709.624 168.87C725.48 189.628 745.844 208.316 766.725 225.027C784.917 239.135 803.108 252.713 823.413 264.367C863.653 287.78 909.035 303.163 956.383 309.892C959.206 319.701 960.89 329.801 961.851 339.902C954.226 339.305 947.25 338.362 939.802 340.632C932.443 342.756 927.138 346.87 921.33 351.21C918.774 345.729 916.779 340.499 911.651 336.464C903.996 330.04 888.849 330.624 883.632 339.517C879.583 346.897 881.371 354.913 881.785 362.678C871.662 358.298 861.879 355.325 850.722 358.922C840.777 362.2 834.998 372.553 839.062 381.565C842.018 389.821 849.082 393.431 856.544 398.023C851.786 401.262 847.131 404.115 844.19 408.96C841.323 413.38 840.806 419.047 842.535 423.892C846.377 432.373 856.308 437.642 866.342 437.669C874.78 437.921 882.42 434.603 890.445 432.599C891.095 440.071 890.829 447.531 890.844 455.016C893.341 455.136 895.853 455.242 898.351 455.308C900.76 444.624 899.518 432.944 897.065 422.339C887.164 422.618 880.558 429.161 870.569 429.732C862.81 430.648 854.387 428.206 850.825 421.556C848.431 417.733 851.21 412.849 854.003 409.809C860.727 403.001 870.436 403.293 879.657 398.209C878.268 396.577 877.248 394.042 874.81 393.643C867.495 391.679 860.15 391.493 853.87 387.1C848.727 383.622 844.929 377.915 846.998 372.022C849.584 365.85 859.766 363.527 866.194 365.386C876.199 367.496 881.755 374.862 891.494 377.251C892.307 374.477 892.868 371.849 892.115 368.996C890.43 361.258 887.489 351.051 890.991 343.499C892.986 339.517 897.405 340.088 901.469 340.34C905.282 340.712 908.444 344.229 910.114 347.096C914.429 354.223 912.67 363.421 913.084 371.412C915.109 371.292 918.242 372.088 919.912 370.92C921.685 367.894 922.734 364.563 924.507 361.523C928.527 354.329 936.714 349.113 945.359 347.335C950.59 346.578 957.551 346.379 961.541 350.095C964.23 353.029 963.077 358.298 960.979 361.298C957.905 365.837 953.974 369.978 949.777 373.694C943.837 378.964 936.61 382.415 930.404 387.405C933.862 394.652 936.522 402.191 939.965 409.425C940.999 412.729 948.507 411.615 947.31 407.553C946.659 401.633 943.216 395.847 941.044 390.259C948.462 384.897 955.792 379.614 962.235 373.283C962.087 377.145 961.954 381.008 961.659 384.87C956.738 427.051 938.901 467.838 910.675 501.843C886.543 530.936 855.421 555.371 820.206 573.144C781.385 592.708 737.82 604.308 693.457 607.294C681.975 607.494 670.876 608.821 659.453 607.786C617.632 606.75 576.018 597.645 538.246 581.519C500.43 565.552 466.707 542.059 439.826 513.35C415.383 487.296 397.325 456.662 386.921 423.905C382.222 423.441 377.538 423.175 372.809 423.215C362.642 423.321 352.667 422.803 342.573 424.237C342.366 430.661 342.81 437.151 342.263 443.562C341.495 450.822 338.45 457.923 332.081 462.675C328.135 465.608 323.096 465.648 318.249 466.418C317.983 439.992 318.338 413.566 317.968 387.153C318.825 385.547 319.83 383.954 320.525 382.282C320.303 379.893 318.471 377.57 317.407 375.407C316.771 364.855 315.042 355.113 318.811 344.893C321.249 344.813 323.806 344.534 326.229 344.839C330.426 345.941 333.13 349.75 334.18 353.374C337.15 365.824 332.007 377.066 334.534 389.131C349.356 390.285 364.415 389.529 379.281 389.555C377.094 374.557 377.567 359.214 378.04 344.123C380.39 318.573 386.774 292.678 398.566 269.265C416.832 267.114 435.067 264.048 453.082 260.597C491.046 253.085 527.916 243.754 563.723 230.017C576.742 225.066 590.308 220.368 603.179 215.019C622.878 206.657 641.084 195.734 657.532 182.912C671.512 172.321 683.556 160.269 696.457 148.815Z" fill="#A18BD6"/>
<path d="M821.358 152.584C829.752 149.279 838.974 151.681 845.668 156.818C851.771 161.875 854.15 169.852 851.609 176.966C848.786 183.748 841.693 187.956 833.949 189.111C823.043 190.252 811.383 183.828 808.709 174.033C805.901 165.1 811.975 155.836 821.358 152.584Z" fill="#EAA0DB"/>
<path d="M535.763 254.399C536.783 254.426 537.803 254.465 538.822 254.545C540.773 257.943 542.413 261.858 545.177 264.778C547.63 267.38 551.206 268.773 554.531 270.247C551.768 265.017 549.078 259.881 547.541 254.227C549.034 254.24 550.512 254.266 552.004 254.28C553.349 257.731 554.664 261.712 557.132 264.632C558.285 266.013 559.703 267.061 561.743 266.69C565.555 266.132 569.279 264.672 572.989 263.637C582.949 260.717 594.062 259.987 604.288 262.137C616.539 264.792 627.164 273.061 630.208 284.236C630.917 287.674 631.464 292.359 629.218 295.425C627.149 299.38 619.154 299.619 616.258 296.527C613.243 292.651 613.938 285.869 610.14 282.113C606.032 277.812 599.086 276.259 593.057 275.901C583.895 275.861 575.161 278.688 566.856 281.821C562.319 283.307 558.388 285.271 553.955 282.285C547.26 277.958 539.591 276.206 533.473 271.322C529.246 268.043 526.261 263.969 523.586 259.615C525.005 259.443 526.424 259.283 527.842 259.111C533.872 266.384 540.138 272.729 550.452 274.786C546.684 271.176 541.689 268.097 538.675 263.995C536.532 261.102 535.778 257.823 535.763 254.399Z" fill="#020202"/>
<path d="M296.481 283.48C297.161 309.242 296.437 335.044 297.028 360.807C291.811 361.205 286.624 362.028 281.452 362.731C280.787 359.081 280.196 355.458 280.24 351.755C280.329 332.761 280.314 313.755 280.196 294.748C280.019 291.377 281.142 288.55 282.664 285.537C287.201 284.595 291.856 284.011 296.481 283.48Z" fill="#E8B821"/>
<path d="M282.664 285.537C281.142 288.55 280.019 291.377 280.196 294.748C280.314 313.755 280.329 332.761 280.241 351.755C280.196 355.458 280.787 359.081 281.452 362.731C281.571 363.873 281.659 365.014 281.704 366.169C281.438 376.813 282.901 388.042 280.3 398.435C276.177 395.913 269.364 393.856 267.532 389.409C266.423 385.839 266.32 381.047 268.847 377.928C271.403 374.902 275.748 372.911 278.807 370.27C278.94 367.987 278.615 365.664 278.393 363.381C279.088 338.017 277.95 312.6 278.659 287.209C279.975 286.639 281.319 286.068 282.664 285.537Z" fill="#A18BD6"/>
<path d="M301.358 284.754C305.821 284.82 310.225 285.099 314.569 286.094C314.082 311.459 314.614 336.823 314.392 362.187C310.062 361.948 305.747 361.722 301.432 361.258C300.959 345.769 301.21 330.239 301.136 314.737C301.166 304.716 300.841 294.761 301.358 284.754Z" fill="#E8B821"/>
<path d="M780.586 292.346C785.699 295.624 789.409 299.633 793.872 303.548C798.128 299.447 801.068 295.372 803.669 290.289C804.851 290.209 806.048 290.129 807.231 290.05C806.374 297.973 800.95 302.539 795.719 308.353C799.162 307.065 802.531 306.07 805.177 303.575C808.398 300.509 810.748 296.673 813.629 293.328C816.777 296.965 814.176 299.832 812.019 303.11C808.339 307.968 802.945 309.839 797.669 312.958C800.965 312.985 803.906 313.383 806.846 311.724C811.487 309.242 815.329 305.114 819.127 301.69C820.457 302.141 821.772 302.592 823.102 303.044C819.171 307.901 815.403 312.361 809.373 315.281C803.551 317.975 795.985 317.975 789.542 318.267C785.877 318.719 784.384 315.215 782.567 313.051C779.449 308.339 775.665 304.251 770.301 301.504C758.907 295 741.854 296.951 734.302 307.556C731.805 310.277 729.396 316.489 724.564 315.467C720.382 315.547 716.702 310.45 718.549 307.065C722.983 296.314 733.623 288.656 745.888 285.962C757.799 283.148 770.685 286.001 780.586 292.346Z" fill="#020202"/>
<path d="M314.569 286.094C316.682 291.125 316.003 296.142 316.077 301.477C316.136 312.972 315.884 324.466 316.357 335.947C317.51 336.146 318.663 336.332 319.83 336.504C318.441 337.659 317.052 338.8 315.663 339.942C315.884 341.627 316.136 343.313 316.416 344.985L318.81 344.893C315.042 355.113 316.771 364.855 317.407 375.407C317.2 379.402 317.347 383.184 317.968 387.153C318.338 413.566 317.983 439.992 318.249 466.418C318.086 468.82 317.894 471.236 317.806 473.638C317.732 476.346 317.702 479.04 317.673 481.748C315.5 482.252 313.313 482.783 311.126 483.221C313.106 480.367 316.062 477.169 316.077 473.678C316.476 466.55 314.421 459.954 314.436 452.826C314.451 423.958 314.407 395.09 314.481 366.222C314.451 364.881 314.421 363.527 314.392 362.187C314.614 336.823 314.082 311.459 314.569 286.094Z" fill="#A18BD6"/>
<path d="M570.21 325.674C572.043 327.253 571.732 329.841 572.161 331.978C569.205 332.005 566.56 333.743 564.683 330.943C563.309 329.921 564.181 327.585 564.506 326.258C566.368 325.74 568.259 325.488 570.21 325.674Z" fill="#020202"/>
<path d="M551.088 333.77C555.551 334.673 553.969 340.725 549.876 340.858C546.654 341.442 545.708 338.004 544.26 336.119C546.521 334.872 548.206 333.013 551.088 333.77Z" fill="#020202"/>
<path d="M571.57 337.871C574.23 336.398 576.683 337.062 579.535 337.5C579.313 341.601 578.811 342.57 575.294 345.238C572.427 342.742 570.698 341.734 571.57 337.871Z" fill="#020202"/>
<path d="M646.789 337.951C650.764 337.42 654.902 337.367 658.862 338.031C669.842 340.539 678.723 349.498 678.457 359.957C679.315 372.739 666.118 383.821 652.094 383.198C638.454 383.41 626.543 373.509 626.085 361.231C625.272 350.361 634.893 339.716 646.789 337.951Z" fill="#020202"/>
<path d="M646.626 342.902C656.808 339.955 669.207 345.769 672.34 354.98C674.97 361.377 672.443 368.677 666.975 373.217C658.759 380.556 643.316 379.813 636.09 371.558C631.302 366.753 630.888 360.183 632.646 354.197C634.922 348.808 640.553 344.574 646.626 342.902Z" fill="#E8B821"/>
<path d="M556.112 345.556C557.812 346.313 559.349 347.215 560.738 348.277C562.511 351.263 558.787 354.913 555.226 353.931C553.674 352.697 552.684 351.33 552.314 349.472C553.497 348.105 554.768 346.804 556.112 345.556Z" fill="#020202"/>
<path d="M748.933 359.466C750.514 359.187 752.11 358.988 753.735 358.882C754.415 360.846 755.982 363.527 754.371 365.425C752.11 366.66 751.297 367.549 748.785 366.063C746.376 365.293 746.598 360.475 748.933 359.466Z" fill="#020202"/>
<path d="M297.028 360.807C298.491 360.939 299.969 361.085 301.432 361.258C305.747 361.722 310.062 361.948 314.392 362.187C314.421 363.528 314.451 364.881 314.48 366.222C310.136 365.585 305.88 364.895 301.476 364.642C299.806 364.735 298.151 364.855 296.481 365.027C291.56 365.532 286.624 365.731 281.703 366.169C281.659 365.014 281.57 363.873 281.452 362.731C286.624 362.028 291.811 361.205 297.028 360.807Z" fill="#020202"/>
<path d="M278.393 363.382C278.615 365.664 278.94 367.987 278.807 370.27C275.748 372.911 271.403 374.902 268.847 377.928C266.32 381.047 266.423 385.839 267.531 389.409C269.364 393.856 276.176 395.913 280.299 398.435C279.413 402.337 278.91 406.279 278.733 410.274C271.551 415.052 266.157 422.273 268.876 430.608C270.724 434.921 274.699 435.837 279.147 437.178C279.102 439.886 279.235 442.593 279.309 445.287C277.994 445.088 276.664 444.863 275.364 444.624C271.994 443.496 268.462 442.222 265.729 440.085C261.502 436.488 259.197 431.471 259.507 426.228C259.079 416.95 266.216 409.995 272.63 403.532C269.379 401.793 265.404 400.081 262.906 397.479C255.916 390.179 256.493 377.849 264.014 371C267.857 366.939 272.94 365.12 278.393 363.382Z" fill="#020202"/>
<path d="M296.481 365.027C296.673 368.266 296.673 371.518 296.836 374.756C294.811 375.792 292.669 376.8 290.792 378.061C289.994 382.215 290.807 386.675 290.762 390.909C290.762 401.766 291.087 412.584 291.974 423.414C291.767 434.908 293.008 446.548 291.693 457.976C290.171 465.502 293.127 472.643 292.122 480.248C288.708 481.071 285.324 481.987 281.91 482.849L280.24 482.703C280.3 471.806 280.551 460.896 280.388 450.013C280.832 446.615 277.891 446.217 275.364 444.624C276.664 444.863 277.994 445.088 279.309 445.287C279.236 442.593 279.103 439.886 279.147 437.178C281.26 427.741 280.876 419.645 278.733 410.274C278.91 406.279 279.413 402.337 280.3 398.435C282.9 388.042 281.437 376.814 281.703 366.169C286.624 365.731 291.56 365.532 296.481 365.027Z" fill="#E8B821"/>
<path d="M296.481 365.027C298.151 364.855 299.806 364.735 301.476 364.642C301.284 368.505 301.284 372.354 301.447 376.216L301.535 379.123C300.693 396.125 301.476 413.194 301.092 430.21C301.255 442.567 300.59 455.083 301.831 467.4C300.575 466.895 299.304 466.391 298.018 465.927C299.068 459.662 296.156 453.756 297.486 447.624C298.462 441.704 297.989 435.89 297.856 429.958C297.989 420.627 298.964 410.951 297.412 401.713C295.521 392.475 300.043 384.047 296.836 374.756C296.674 371.518 296.674 368.266 296.481 365.027Z" fill="#FEFEFE"/>
<path d="M301.476 364.642C305.88 364.895 310.136 365.585 314.481 366.222C314.407 395.09 314.451 423.958 314.437 452.826C314.422 459.954 316.476 466.55 316.077 473.678C316.062 477.169 313.107 480.367 311.126 483.221C308.259 482.239 305.378 481.296 302.393 480.62C302.54 476.186 302.57 471.793 301.831 467.4C300.59 455.083 301.255 442.567 301.092 430.21C301.476 413.194 300.693 396.125 301.536 379.123C304.225 390.763 301.225 402.151 303.516 413.752C306.294 407.699 305.215 402.032 305.348 395.701C305.274 390.883 305.599 385.972 305.038 381.167C304.89 378.791 303.087 377.822 301.447 376.216C301.284 372.354 301.284 368.505 301.476 364.642Z" fill="#E8B821"/>
<path d="M763.711 365.81C765.174 365.572 766.636 365.585 768.07 365.824C770.405 367.164 769.474 370.323 769.799 372.5C767.213 372.553 764.627 372.553 762.026 372.526C762.336 370.323 761.346 367.191 763.711 365.81Z" fill="#020202"/>
<path d="M745.977 373.137C745.977 374.902 745.977 376.667 745.992 378.433C743.938 378.619 739.179 380.477 738.396 377.836C736.859 375.685 737.82 374.796 738.928 372.765C741.041 371.876 743.76 372.805 745.977 373.137Z" fill="#020202"/>
<path d="M296.836 374.756C300.043 384.047 295.521 392.475 297.413 401.713C298.964 410.951 297.989 420.627 297.856 429.957C297.989 435.89 298.462 441.704 297.486 447.623C296.156 453.755 299.068 459.662 298.018 465.927C296.807 470.652 296.629 475.39 296.733 480.221C298.624 480.327 300.516 480.46 302.393 480.62C305.378 481.296 308.259 482.239 311.126 483.221C301.55 484.601 291.442 484.522 281.911 482.849C285.324 481.987 288.708 481.071 292.122 480.248C293.127 472.643 290.171 465.502 291.694 457.976C293.009 446.548 291.767 434.908 291.974 423.414C291.088 412.584 290.763 401.766 290.763 390.909C290.807 386.675 289.994 382.215 290.792 378.061C292.669 376.8 294.812 375.791 296.836 374.756Z" fill="#4D3C20"/>
<path d="M317.407 375.407C318.471 377.57 320.303 379.893 320.525 382.282C319.83 383.954 318.825 385.547 317.968 387.153C317.348 383.184 317.2 379.402 317.407 375.407Z" fill="#020202"/>
<path d="M301.447 376.216C303.087 377.822 304.89 378.791 305.038 381.167C305.599 385.972 305.274 390.883 305.348 395.701C305.215 402.032 306.294 407.699 303.516 413.752C301.225 402.151 304.225 390.763 301.535 379.123L301.447 376.216Z" fill="#4D3C20"/>
<path d="M568.26 377.119C572.797 380.331 574.91 386.25 577.806 390.723C584.235 401.912 592.658 411.429 603.268 419.658C618.977 431.895 640.39 437.709 661.02 435.492C680.586 433.966 700.048 426.772 717.087 418.278C713.629 411.482 710.54 405.23 711.752 397.532C712.786 395.966 716.171 396.165 717.973 395.701C719.658 400.651 720.515 405.974 722.791 410.725C724.786 414.548 728.894 416.26 733.387 416.725C738.322 417.654 743.849 416.579 748.578 417.946C749.051 419.711 749.288 421.476 749.568 423.295C740.569 425.591 731.746 424.569 722.821 422.671C714.102 448.154 702.871 474.541 682.167 494.264C667.566 508.798 647.365 518.394 625.524 519.92C618.874 520.199 612.298 520.584 605.987 518.367C590.855 513.403 578.915 503.17 571.866 490.229C562.57 473.227 560.428 452.893 561.004 434.192C560.634 419.047 562.762 404.142 565.156 389.184C565.836 385.043 566.531 381.021 568.26 377.119Z" fill="#020202"/>
<path d="M760.858 379.707C760.799 381.459 760.74 383.211 760.681 384.963C758.272 385.361 755.849 385.693 753.425 385.998C753.174 383.941 752.952 381.884 752.79 379.826C755.568 378.499 757.991 379.176 760.858 379.707Z" fill="#020202"/>
<path d="M278.733 410.274C280.876 419.645 281.26 427.741 279.147 437.178C274.699 435.837 270.724 434.922 268.876 430.608C266.157 422.273 271.551 415.052 278.733 410.274Z" fill="#A18BD6"/>
<path d="M304.388 415.158C306.309 416.977 304.816 420.706 304.062 422.777C303.131 421.224 301.343 415.318 304.388 415.158Z" fill="#4D3C20"/>
<path d="M298.018 465.927C299.304 466.391 300.575 466.895 301.831 467.4C302.57 471.793 302.54 476.186 302.392 480.62C300.516 480.46 298.624 480.328 296.733 480.221C296.629 475.39 296.806 470.652 298.018 465.927Z" fill="#EAA0DB"/>
<path d="M386.537 563.269C393.379 561.119 401.758 563.149 408.216 565.605C426.526 573.038 442.294 585.713 453.436 600.658C458.653 607.52 462.14 614.886 466.396 622.213C468.155 622.24 469.913 622.266 471.657 622.306C475.573 611.741 476.578 601.813 483.923 592.363C488.888 586.178 496.365 579.913 504.804 578.094C510.02 576.966 513.419 579.369 517.764 581.413C524.975 585.116 532.541 588.208 539.842 591.779C526.054 599.145 511.956 608.595 504.966 621.974C500.769 629.646 501.213 637.596 498.553 645.493C497.045 649.807 493.72 652.594 488.873 653.736C482.622 654.97 475.883 654.134 469.825 652.435C450.658 647.113 430.723 640.649 413.639 631.066C399.423 623.142 386.463 612.033 379.178 598.335C375.35 591.221 373.74 583.297 375.232 575.453C376.547 569.972 380.404 565.021 386.537 563.269Z" fill="#A18BD6"/>
<path d="M873.465 592.336C879.805 593.955 883.647 598.84 885.095 604.414C887.223 610.944 885.199 617.82 882.716 624.018C877.632 635.857 867.835 646.117 856.737 653.815C840.939 664.991 821.166 672.583 802.162 678.171C792.453 680.958 783.971 684.369 773.479 683.188C767.538 682.684 762.735 678.635 761.361 673.486C759.366 666.066 759.499 658.899 755.849 651.785C747.632 635.18 733.712 624.43 718.298 613.373C726.914 611.714 735.588 610.546 744.13 608.555C749.479 607.427 754.371 606.1 759.647 608.343C767.907 611.86 774.749 618.244 779.138 625.385C784.104 633.428 785.493 642.441 788.67 651.373C790.325 651.413 791.98 651.466 793.635 651.519C796.946 646.436 799.532 641.047 802.709 635.91C813.615 618.775 830.077 604.64 849.717 595.76C856.766 592.827 865.766 590.199 873.465 592.336Z" fill="#A18BD6"/>
<path d="M459.643 706.588C460.751 705.433 463.588 705.433 464.682 706.601C465.332 708.685 458.978 708.685 459.643 706.588Z" fill="#A18BD6"/>
<path d="M514.439 706.588C515.532 705.433 518.385 705.433 519.478 706.588C520.143 708.685 513.789 708.685 514.439 706.588Z" fill="#A18BD6"/>
</g>
<defs>
<clipPath id="clip0_2_303">
<rect width="1330" height="730" fill="white"/>
</clipPath>
</defs>
</svg>
