<svg width="1330" height="730" viewBox="0 0 1330 730" fill="none" xmlns="http://www.w3.org/2000/svg">
<g clip-path="url(#clip0_2_914)">
<path d="M0 0H1330V730H0V0Z" fill="white"/>
<path d="M690.975 25.8267C692.108 24.72 695.641 24.7333 696.801 25.8133C697.388 27.7467 690.268 27.8267 690.975 25.8267Z" fill="#909090"/>
<path d="M632.601 31.7734C646.615 30.3067 660.455 30.9734 673.561 36.5467C690.148 43.4934 706.628 54.3334 715.948 70.1201C718.535 74.0401 720.215 78.4667 722.695 82.4267C726.335 83.6134 730.335 83.1067 734.015 84.4001C745.575 87.3067 754.681 97.9334 758.615 108.827C762.201 117.947 762.161 127.387 761.028 136.973C769.201 136.627 777.735 138.413 784.868 142.467C791.268 146.147 795.148 151.533 799.601 157.213C802.295 160.733 803.628 164.8 804.575 169.067C806.935 182.093 805.081 195.293 799.361 207.213C811.961 207.147 824.375 211.76 831.455 222.627C836.815 230.307 836.575 239.24 836.055 248.2C835.215 259.76 828.148 269.707 820.175 277.64C826.721 279.227 832.761 280.707 837.321 286.053C844.521 294.707 846.015 306.56 845.561 317.44C845.828 327.92 842.828 337.213 839.868 347.093C836.308 358.6 830.108 368.347 827.148 380.12C826.055 384.88 824.148 389.587 826.255 394.36C827.868 398.92 831.775 402.547 836.561 403.44C844.455 404.227 852.001 404.347 858.748 399.573C864.228 395.973 867.215 390.667 869.441 384.667C870.601 384.507 871.761 384.347 872.921 384.187C875.615 391.627 875.548 399.173 872.441 406.48C868.481 415.4 862.228 424.067 854.028 429.52C849.801 432.44 845.121 433.467 840.308 434.973C842.841 440.307 845.388 445.28 845.601 451.333C849.948 452.667 854.495 453.773 858.668 455.6C862.788 457.453 865.708 460.333 869.055 463.253C870.655 460.547 872.215 457.813 873.868 455.133C887.321 456.093 900.188 460.667 911.588 467.813C917.428 471.653 923.855 474.107 929.975 477.427C941.735 483.653 951.975 491.453 962.335 499.707C964.401 501.4 966.508 503.28 968.068 505.453C969.308 512.88 967.668 519.4 965.775 526.507C963.361 536.44 959.188 545.387 955.308 554.8C950.001 566.267 943.401 577.08 935.348 586.827C932.375 592 929.215 596.28 925.441 600.88C919.161 612.4 907.761 619.6 898.055 628.213C888.548 636.267 876.268 645.813 863.281 646.053C860.041 646.4 858.135 643.987 856.308 641.733C849.641 632.84 845.308 621.507 839.535 611.893C830.201 595.747 819.815 580.747 805.881 568.2C800.535 563.213 794.455 559.347 788.735 554.84C792.895 547.507 799.628 544.293 805.748 538.96C793.641 529.76 784.388 518 781.401 502.813C780.708 494.347 780.561 485.987 783.388 477.867C778.321 477.853 773.535 478.173 768.828 475.813C765.268 473.773 763.895 470.427 761.895 467.053C742.908 480.853 720.228 492.467 696.828 495.88C698.041 508.32 700.895 520.907 705.588 532.52C709.615 542.24 716.815 550.52 724.801 557.253C732.321 563.573 739.561 570.133 747.548 575.867C752.761 579.6 756.788 584.32 761.308 588.773C765.868 593.24 771.148 595.6 776.495 598.92C783.895 603.453 791.175 608.147 798.321 613.08C800.815 614.827 803.988 616.68 805.615 619.32C805.881 621.027 805.401 622.533 804.548 624C800.335 631.467 795.468 638.52 789.588 644.787C796.975 646.747 804.268 645.12 811.695 646.453C810.148 648.013 809.695 650.4 807.161 650.147C799.068 649.987 791.308 650.2 783.295 651.333C774.508 650.44 765.908 649.707 757.095 651.04C757.068 653 757.041 654.96 757.028 656.92C765.988 656.933 774.961 656.693 783.921 656.96C783.961 658.613 783.988 660.28 784.015 661.947C774.695 662.013 765.255 661.507 755.948 662.067C754.308 663.573 754.375 666.52 753.841 668.573C758.175 668.72 762.655 668.187 766.948 668.8C768.495 670.16 768.455 671.453 766.841 672.68C762.041 673.48 756.921 672.813 752.068 672.707C751.428 674.867 750.828 677.04 750.255 679.227C756.335 680.333 762.495 680.747 768.561 681.84C773.748 682.693 778.601 682.2 783.628 680.827C786.055 680 787.081 681.507 789.001 682.68C785.868 684.773 782.735 686.173 779.175 687.36C784.561 687.8 789.855 688.667 795.295 688.56C810.135 688.493 825.001 688.52 839.841 688.867C839.881 690.32 839.921 691.773 839.961 693.213C833.348 694.56 827.241 693.133 820.641 693.067C804.615 692.893 788.601 692.92 772.588 692.307C767.801 691.987 763.415 693.187 758.841 694.347C758.761 692.973 758.681 691.6 758.601 690.227C761.681 689 764.801 687.867 767.881 686.627C761.988 685.093 755.935 684.453 749.868 684.573C745.441 686.827 741.801 690.853 737.708 693.613C728.495 693.987 719.188 693.72 709.961 693.68C702.335 692.813 694.748 693.507 687.255 691.92C677.281 690.52 666.841 692.147 656.788 691.32C653.855 690.987 650.815 690.107 648.335 688.467C647.895 687.08 647.508 685.667 647.188 684.24C649.015 684.533 650.841 684.84 652.655 685.28C662.655 687.92 674.188 684.987 684.415 686.987C702.068 690.173 720.508 688.693 738.775 688.64C738.708 687.227 738.641 685.8 738.575 684.387C732.268 684.413 726.108 684.853 719.828 684C719.815 682.547 719.801 681.08 719.801 679.627C725.735 679.52 731.655 679.68 737.588 679.493C737.548 677.253 737.481 675.027 737.388 672.787C723.775 672.707 710.215 673.04 696.641 671.827C685.468 672.173 673.855 670.653 662.895 672.827C662.148 671.08 661.415 669.32 660.708 667.56C678.001 667.24 695.321 667.84 712.628 667.693C721.081 667.427 728.895 669.573 737.361 667.747C737.255 665.893 737.148 664.04 737.041 662.187C726.641 661.8 716.268 661.96 705.881 662.013C703.201 662.133 700.815 661.547 698.321 660.68C699.068 659.387 699.815 658.093 700.575 656.8C708.521 656.987 716.521 657.187 724.468 656.813C724.121 653.28 723.348 649.867 722.468 646.427C726.268 645.947 730.028 645.373 733.788 644.64C733.135 642.467 732.468 640.307 731.788 638.147C728.641 639.147 726.041 640.547 722.668 639.56C719.535 636.413 717.348 631.72 719.681 627.453C721.255 624.4 725.455 623.307 728.321 621.76C727.775 620.44 727.228 619.12 726.681 617.8C724.095 618.467 721.081 620.027 718.401 619.613C713.508 617.907 711.215 612.453 712.055 607.547C713.668 604.573 717.108 602.493 719.575 600.227C717.561 598.107 715.588 595.973 713.375 594.04C707.095 588.76 701.975 582.36 695.788 576.96C688.335 570.413 680.681 563.307 674.801 555.24C665.588 542.067 662.215 524.227 661.015 508.467C660.535 505.693 660.281 502.013 658.215 499.947C643.988 497.8 629.655 495.893 615.575 492.893C603.281 505.787 590.348 517.96 578.801 531.587C574.401 536.973 569.441 541.787 564.535 546.693C557.108 554.16 552.628 562.56 546.455 571.267C540.748 580.28 533.855 588.253 528.961 597.76C523.108 607.093 517.601 616.6 511.815 625.96C509.068 630.893 507.935 636.067 503.655 640.093C494.521 635.253 487.015 626.84 480.255 619.133C478.161 616.227 474.281 612.347 474.495 608.587C476.481 605.533 480.121 603.32 482.881 601C487.201 597.653 489.868 593.013 494.201 589.707C498.455 586.413 502.961 584.067 506.001 579.413C500.561 580.04 495.615 582.387 490.188 583.213C480.855 585.347 471.415 585.907 461.948 587.107C452.495 587.453 443.535 588.333 434.508 584.787C434.468 583.64 434.428 582.507 434.388 581.36C446.681 577.653 458.681 573.107 471.041 569.64C470.215 566.867 468.188 563.613 469.388 560.773C470.868 556.68 475.828 552.693 480.268 554.627C483.895 556.253 484.361 559.467 485.815 562.773C488.028 561.72 490.228 560.613 492.415 559.493C491.321 557.04 489.788 554.64 489.121 552.04C489.335 548.693 493.868 545.267 496.948 544.667C501.161 543.56 503.215 548.68 505.681 551.147C506.935 550.36 508.188 549.6 509.361 548.68C510.268 545.093 508.401 540.68 509.735 537.253C511.415 535.893 513.388 534.867 515.415 534.12C518.535 534.36 521.575 536.32 524.521 537.387C547.415 522.133 563.908 501.973 580.095 480.093C567.615 471.533 555.108 461.693 545.415 450C529.615 432.053 518.695 409.6 512.908 386.48C511.775 382.12 511.215 377.187 509.255 373.093C506.988 371.56 504.281 370.627 501.815 369.453C490.015 364.12 479.255 356.507 469.348 348.24C465.655 352.733 463.508 357.4 458.815 360.987C454.188 364.48 449.321 367.293 443.268 366.213C437.268 364.867 433.148 358.04 433.468 352.093C433.335 347.6 435.868 342.92 437.361 338.693C432.695 338.12 428.535 337.907 425.001 334.347C420.788 330.8 419.468 324.293 423.161 319.947C426.015 317.387 430.441 316.2 433.988 314.933C431.828 311.067 428.201 307.747 428.921 302.987C428.975 299.4 432.935 296.733 436.001 295.68C443.428 293.96 448.895 297.253 455.455 300C457.148 295.853 458.375 291.08 461.641 287.893C464.561 285.093 468.428 284.04 472.241 285.667C478.695 287.493 482.095 295.24 481.708 301.467C482.108 306.987 478.441 309.947 476.935 314.827C477.561 317.8 480.055 320.493 482.108 322.627C489.321 329.373 500.121 332.947 509.415 335.827C511.841 330.133 513.601 323.813 514.761 317.747C513.668 315 510.601 312.907 508.868 310.48C504.868 306 504.308 299.84 505.681 294.187C506.801 290.96 509.201 287.987 511.148 285.16C506.108 281.84 501.441 279.013 499.161 273.093C497.281 267.667 500.575 262.187 504.095 258.253C510.308 252.347 518.175 249.707 526.441 248.093C522.375 242.827 517.148 239.813 514.921 233.6C512.828 228.56 512.161 222.893 513.881 217.653C515.295 213.813 518.801 209.947 523.161 209.893C531.455 209.467 539.961 209.747 548.068 211.693C551.521 207.52 554.921 203.373 559.108 199.907C567.601 192.507 578.068 188.08 589.241 186.8C588.041 184.267 586.681 181.987 584.975 179.787C574.335 166.013 567.535 149.213 565.228 131.987C563.628 123.413 563.721 114.667 565.188 106.093C566.521 97.9201 567.455 89.8534 570.775 82.2001C572.881 77.4267 576.441 73.7334 578.841 69.0667C588.735 48.5334 610.535 35.2134 632.601 31.7734Z" fill="#010000"/>
<path d="M640.628 36.44C650.215 36.2267 659.308 36.3867 668.228 40.36C690.242 49.3467 710.775 68.0934 717.548 91.4134C720.482 100.467 720.388 109.387 720.108 118.787C719.775 125.813 718.242 132.493 715.615 139.013C712.828 129.48 717.508 121.747 716.988 112.04C716.362 101.32 714.668 90.12 709.428 80.5867C705.562 73.2 700.802 66.4134 694.482 60.9334C685.535 53.1334 675.162 46.1734 663.922 42.2C655.748 39.3734 647.762 39.7067 639.268 39.96C634.068 40.2 628.642 40.4 623.628 41.88C608.335 46.7067 595.895 57.3734 587.335 70.76C583.188 78.0934 579.975 86.2267 577.482 94.2534C575.242 102.2 575.482 110.587 575.455 118.773C575.615 128.027 575.242 136.653 578.082 145.587C581.442 155.84 586.228 166.013 592.882 174.547C596.148 178.787 600.788 181.96 603.762 186.36C605.535 188.413 603.855 190.533 602.362 192.133C600.975 192.227 599.655 192.093 598.282 191.973C599.802 190.48 601.308 188.96 602.775 187.413C598.615 184.693 594.575 182.68 591.295 178.8C580.202 164.933 574.442 148.307 572.082 130.853C571.628 122.88 571.548 114.667 572.082 106.707C573.722 93.4667 577.615 80.6934 584.468 69.2C588.748 61.9867 595.095 55.7067 601.348 50.16C612.108 40.72 626.455 36.3867 640.628 36.44Z" fill="#FCE859"/>
<path d="M639.268 39.9601C647.762 39.7067 655.748 39.3734 663.922 42.2001C675.162 46.1734 685.535 53.1334 694.482 60.9334C700.802 66.4134 705.562 73.2001 709.428 80.5867C714.668 90.1201 716.362 101.32 716.988 112.04C717.508 121.747 712.828 129.48 715.615 139.013C715.908 140.133 716.215 141.253 716.522 142.36C716.828 143.427 717.135 144.493 717.442 145.56C722.535 141.453 726.908 137.213 728.322 130.533C730.895 118.747 728.762 106.08 730.148 94.0134C734.135 95.0667 737.828 95.4667 740.935 98.4534C748.628 106.133 752.575 117.333 751.868 128.16C751.748 137.827 748.308 146.307 746.602 155.627C745.895 158.747 746.708 161.32 748.082 164.093L749.028 166.053C749.468 166.92 749.908 167.773 750.348 168.627C753.922 165.373 757.162 161.933 759.428 157.627C761.762 153.787 764.215 148.107 769.082 147.067C773.842 146.4 779.202 149.773 782.775 152.667C789.295 158.013 791.962 165.44 793.962 173.36C796.642 184.533 794.615 196.347 789.562 206.533C786.362 212.2 781.722 217.053 777.962 222.36C778.895 222.707 779.828 223.053 780.762 223.4C782.015 223.88 783.282 224.36 784.535 224.813C791.335 226.107 794.268 220.76 799.695 217.88C804.455 214.88 809.948 216.92 814.322 219.56C822.775 224.507 828.095 234.68 826.522 244.453C824.682 255.347 819.602 265.92 810.602 272.68C806.375 276.147 800.428 278.973 797.308 283.507C796.935 285.453 796.988 287.533 796.948 289.533C798.068 287.88 799.148 286.2 800.295 284.56C800.708 285.84 801.122 287.107 801.535 288.373C803.882 287.36 806.228 286.333 808.575 285.307C805.908 287.04 803.335 289.013 800.802 290.947C805.775 289.787 810.562 287.987 815.508 286.76C820.775 285.2 826.362 288.48 829.962 292.107C833.775 295.933 834.308 301.213 834.788 306.32C835.388 317.28 835.695 327.68 831.895 338.16C827.682 349.453 823.455 360.733 819.375 372.08C816.815 379.293 815.908 387.027 817.068 394.627C818.135 402.453 825.202 409.107 832.855 410.52C842.295 412.573 850.628 410.347 860.188 410.267C855.215 417.76 847.775 424.307 838.682 425.853C832.095 426.093 825.202 424.507 818.908 422.733C807.322 418.6 802.135 405.173 804.762 393.76C806.935 387.04 810.802 380.933 813.415 374.373C816.735 366.147 821.202 358.32 821.815 349.453C822.388 341.493 822.068 333.4 821.428 325.453C820.855 318.133 815.735 312.133 809.922 308.12C805.908 305.36 801.602 304.787 796.935 303.907C796.722 305.08 796.522 306.253 796.335 307.427C796.148 308.973 796.028 310.52 795.988 312.08C797.575 318.253 804.828 318.747 806.855 324.4C809.162 330.72 811.402 338.453 809.642 345.147C808.602 349.84 807.308 354.48 805.988 359.107C803.348 368.867 797.242 377.36 792.628 386.747C790.308 391.52 787.708 395.187 783.135 398.027C783.402 394.227 783.348 390.733 785.255 387.32C788.455 381.293 792.335 376.333 793.922 369.493C796.228 359.413 796.468 348.613 794.055 338.533C792.682 332.8 788.268 328.6 784.695 324.133C781.575 320.52 778.815 316.453 774.215 314.613C768.175 312.173 761.575 310.96 755.108 310.293C745.482 309.56 734.295 310.307 724.895 307.653C719.855 306.333 717.122 302.387 713.775 298.747C719.042 293.307 725.188 288.64 730.108 282.893C735.215 276.96 735.895 268.32 734.295 260.947C732.802 253.987 725.202 249.8 718.735 248.573C715.162 248.04 711.055 247.667 709.202 251.493C708.548 255.8 710.895 260.533 710.788 264.947C709.655 267.373 706.602 269 704.628 270.733C702.135 268.187 698.708 265.413 697.575 261.92C696.322 257.987 695.975 253.04 697.855 249.253C700.935 243.493 707.722 239.907 710.602 234.173C712.668 229.973 706.068 226.347 702.575 227.6C697.095 229.307 691.508 233.76 688.548 238.667C682.095 250.147 681.055 265.52 690.055 275.987C694.948 282.173 705.962 280.747 713.028 281.933C704.402 288.72 692.735 291.813 681.975 292.787C674.842 293.28 666.482 293.013 660.948 287.84C655.775 282.627 652.895 275.04 654.762 267.733C656.895 258.88 658.708 249.6 663.908 242.067C665.962 238.627 669.282 234.613 669.602 230.52C669.935 226.907 666.162 223.107 662.522 224.587C658.175 226.187 654.908 230.96 652.535 234.733C647.962 242.453 643.868 250.92 642.962 259.96C642.202 265.92 642.708 272.32 641.255 278.133C640.628 280.88 637.708 281.6 635.255 281.68C627.842 281.653 621.402 275.293 620.815 267.987C620.162 261.027 622.415 253.533 624.922 247.093C627.508 240.36 632.215 235.44 636.202 229C637.175 227.787 638.135 226.547 639.082 225.32C635.588 223.667 632.668 220.76 628.642 222.747C622.188 225.693 617.322 232.693 613.895 238.707C608.882 247.587 610.402 257.76 605.068 265.947C601.362 272.067 592.108 272.667 586.655 268.707C581.375 264.56 580.068 257.48 582.482 251.347C586.482 240.853 592.882 230.947 600.948 223.107C603.295 220.64 606.188 217.84 607.428 214.627C607.575 211.573 604.695 208.373 603.255 205.8C593.308 211.053 587.255 219.32 580.455 227.933C574.148 235.88 572.135 245.107 566.948 253.76C561.388 250.44 556.642 246.867 555.082 240.2C553.228 231.76 552.962 221.2 558.415 213.96C563.855 206.347 571.882 200.52 580.802 197.667C586.282 195.867 591.668 193.92 597.055 191.853L598.282 191.973C599.655 192.093 600.975 192.227 602.362 192.133C603.855 190.533 605.535 188.413 603.762 186.36C600.788 181.96 596.148 178.787 592.882 174.547C586.228 166.013 581.442 155.84 578.082 145.587C575.242 136.653 575.615 128.027 575.455 118.773C575.482 110.587 575.242 102.2 577.482 94.2534C579.975 86.2267 583.188 78.0934 587.335 70.7601C595.895 57.3734 608.335 46.7067 623.628 41.8801C628.642 40.4001 634.068 40.2001 639.268 39.9601Z" fill="#FED202"/>
<path d="M653.708 64.5199C665.068 64.5466 676.588 69.4266 684.295 77.7999C690.708 84.8533 692.348 94.9866 691.655 104.2C691.095 111.293 686.535 116.413 682.055 121.52C677.948 125.92 673.001 131.467 667.148 133.4C662.761 134.933 659.001 133.6 654.695 132.693C659.721 131.547 665.508 130.76 669.921 128.04C676.561 124.16 681.721 117.147 686.015 110.867C688.921 106.813 688.121 102.187 688.295 97.3999C688.815 88.4133 682.721 79.5066 675.588 74.5466C666.241 68.8666 654.628 67.4799 643.961 69.2266C635.935 71.1199 628.321 75.0399 621.628 79.7733C610.801 87.5066 603.321 99.5199 601.281 112.667C599.001 122.72 600.641 133.747 603.575 143.507C607.935 157.067 616.361 169.92 628.641 177.493C635.055 181.453 642.161 183 649.655 182.347C650.015 183.587 650.375 184.827 650.748 186.053C638.975 188.6 629.788 182.667 620.761 176.013C607.841 166.12 600.988 151.253 598.188 135.52C595.068 123.187 597.361 111.187 601.441 99.4133C606.575 87.4133 616.295 77.2933 627.961 71.4666C636.055 67.4533 644.548 64.2533 653.708 64.5199Z" fill="#FCE649"/>
<path d="M643.962 69.2267C654.628 67.48 666.242 68.8667 675.588 74.5467C682.722 79.5067 688.815 88.4133 688.295 97.4C688.122 102.187 688.922 106.813 686.015 110.867C681.722 117.147 676.562 124.16 669.922 128.04C665.508 130.76 659.721 131.547 654.695 132.693C652.548 132.587 650.388 132.52 648.241 132.4C639.601 129.093 634.255 121.787 632.028 113C631.041 106.747 631.855 100.64 636.682 96.16C642.348 91.16 651.442 90.3467 658.548 91.76C662.548 93.88 665.375 98.72 668.308 102.067C668.522 108.787 666.708 112.573 662.962 117.867C662.135 116.693 661.015 115.467 660.615 114.08C662.135 109.133 664.082 104.8 660.628 100.08C654.282 91.6 639.655 95.64 637.335 105.547C636.402 113.013 640.135 122.6 647.441 125.68C652.415 126.987 658.162 126.8 663.188 125.88C670.228 123.587 676.282 117.827 680.335 111.787C683.695 106.92 683.242 100.707 682.708 95.1067C680.948 86.4 674.228 79.2267 666.015 76.0533C659.895 73.2533 652.695 73.5733 646.135 74.1467C637.108 75.64 628.428 80.4533 621.468 86.2667C612.802 93.52 606.361 104.56 606.375 116.067C606.241 124.4 605.895 132.36 608.508 140.36C612.908 153.88 619.361 166.653 632.108 174.04C637.401 177.467 643.055 177.827 649.002 179.333C649.202 180.347 649.428 181.347 649.655 182.347C642.161 183 635.055 181.453 628.642 177.493C616.362 169.92 607.935 157.067 603.575 143.507C600.641 133.747 599.001 122.72 601.281 112.667C603.321 99.52 610.802 87.5067 621.628 79.7733C628.322 75.04 635.935 71.12 643.962 69.2267Z" fill="#010000"/>
<path d="M646.135 74.1467C652.695 73.5734 659.895 73.2534 666.015 76.0534C674.228 79.2267 680.948 86.4 682.708 95.1067C683.241 100.707 683.695 106.92 680.335 111.787C676.281 117.827 670.228 123.587 663.188 125.88C658.161 126.8 652.415 126.987 647.441 125.68C640.135 122.6 636.401 113.013 637.335 105.547C639.655 95.64 654.281 91.6 660.628 100.08C664.081 104.8 662.135 109.133 660.615 114.08C659.161 110 658.668 105.32 656.615 101.507C653.175 98.6 645.641 98.6267 642.815 102.427C639.255 108.8 641.321 118.573 648.055 122.107C653.081 124.907 658.788 123.44 664.108 122.56C663.735 121 663.361 119.427 662.961 117.867C666.708 112.573 668.521 108.787 668.308 102.067C669.108 102.773 669.935 103.48 670.761 104.173C670.361 109.413 668.855 114.16 667.521 119.2C673.988 115.56 679.001 110.28 680.308 102.747C681.055 96.6667 677.455 90.1067 673.801 85.5067C669.428 80.1334 663.041 78 656.281 77.7334C639.215 76.2667 621.588 86.0534 613.615 101.187C607.175 110.88 608.348 124.76 610.441 135.653C613.788 147.12 619.255 160.32 628.975 167.813C634.495 172.4 641.668 173.72 648.388 175.653C648.588 176.88 648.788 178.107 649.001 179.333C643.055 177.827 637.401 177.467 632.108 174.04C619.361 166.653 612.908 153.88 608.508 140.36C605.895 132.36 606.241 124.4 606.375 116.067C606.361 104.56 612.801 93.52 621.468 86.2667C628.428 80.4534 637.108 75.64 646.135 74.1467Z" fill="#FEEE5B"/>
<path d="M670.762 104.173C669.935 103.48 669.108 102.773 668.308 102.067C665.375 98.72 662.548 93.88 658.548 91.76C651.442 90.3467 642.348 91.16 636.682 96.16C631.855 100.64 631.042 106.747 632.028 113C634.255 121.787 639.602 129.093 648.242 132.4C649.322 133.227 650.388 134.067 651.442 134.933C645.602 133.893 640.295 133.32 636.162 128.573C629.588 121.027 625.028 108.64 630.428 99.2933C633.762 92.52 640.148 89.76 647.042 87.8533C657.722 85.0533 669.895 92.8267 670.762 104.173Z" fill="#FFF049"/>
<path d="M724.868 88.1868C735.615 88.7068 745.161 94.3334 750.081 104.013C756.081 114.827 755.068 125.6 754.708 137.493C754.201 147.16 749.681 154.867 748.081 164.093C746.708 161.32 745.895 158.747 746.601 155.627C748.308 146.307 751.748 137.827 751.868 128.16C752.575 117.333 748.628 106.133 740.935 98.4534C737.828 95.4668 734.135 95.0668 730.148 94.0134C728.761 106.08 730.895 118.747 728.321 130.533C726.908 137.213 722.535 141.453 717.441 145.56C717.135 144.493 716.828 143.427 716.521 142.36C723.028 137.56 725.228 130.467 726.361 122.8C727.308 111.093 726.895 99.7468 724.868 88.1868Z" fill="#F8E246"/>
<path d="M656.615 101.507C658.668 105.32 659.161 110 660.615 114.08C661.015 115.467 662.135 116.693 662.961 117.867C663.361 119.427 663.735 121 664.108 122.56C658.788 123.44 653.081 124.907 648.055 122.107C641.321 118.573 639.255 108.8 642.815 102.427C645.641 98.6268 653.175 98.6001 656.615 101.507Z" fill="#FBD404"/>
<path d="M760.881 142.48C772.041 140.88 783.441 145.48 790.094 154.613C795.828 162.707 798.788 172.88 798.615 182.76C798.935 192.133 796.854 202.053 792.014 210.147C789.054 215.24 784.548 218.627 780.761 223.4C779.828 223.053 778.895 222.707 777.961 222.36C781.721 217.053 786.361 212.2 789.561 206.533C794.615 196.347 796.641 184.533 793.961 173.36C791.961 165.44 789.294 158.013 782.774 152.667C779.201 149.773 773.841 146.4 769.081 147.067C764.215 148.107 761.761 153.787 759.428 157.627C757.161 161.933 753.921 165.373 750.348 168.627C749.908 167.773 749.468 166.92 749.028 166.053C751.068 163.907 753.081 161.907 754.468 159.253C757.348 154.027 757.841 147.547 760.881 142.48Z" fill="#FDEA46"/>
<path d="M597.055 191.853C591.668 193.92 586.281 195.867 580.801 197.667C571.881 200.52 563.855 206.347 558.415 213.96C552.961 221.2 553.228 231.76 555.081 240.2C556.641 246.867 561.388 250.44 566.948 253.76C572.135 245.107 574.148 235.88 580.455 227.933C587.255 219.32 593.308 211.053 603.255 205.8C604.695 208.373 607.575 211.573 607.428 214.627C606.188 217.84 603.295 220.64 600.948 223.107C592.881 230.947 586.481 240.853 582.481 251.347C580.068 257.48 581.375 264.56 586.655 268.707C592.108 272.667 601.361 272.067 605.068 265.947C610.401 257.76 608.881 247.587 613.895 238.707C617.321 232.693 622.188 225.693 628.641 222.747C632.668 220.76 635.588 223.667 639.081 225.32C638.135 226.547 637.175 227.787 636.201 229L635.081 229.52C634.855 227.64 634.601 225.747 634.348 223.867C630.735 225.227 627.308 226.533 624.628 229.44C615.521 239.04 612.335 251.147 610.721 263.92C610.508 267.467 607.681 269.307 605.148 271.307C596.455 278.187 580.468 273.453 578.015 262.213C576.148 257.013 578.628 251.827 580.601 247.053C585.121 237.533 590.895 228.013 598.535 220.667C601.135 218.107 603.441 215.307 605.601 212.373C604.321 211.48 603.028 210.587 601.735 209.707C593.855 217.4 585.068 225.467 579.535 234.973C575.135 242.227 572.415 250.227 571.388 258.64C566.295 258.173 563.321 256.6 559.668 253.053C550.255 244.68 547.975 229.84 552.201 218.413C555.388 210.293 563.001 203.667 570.095 198.907C577.841 194.04 587.788 190.053 597.055 191.853Z" fill="#F7E457"/>
<path d="M811.935 213.947C823.868 218.16 831.308 230.333 830.548 242.827C829.761 254.707 823.655 266.387 814.735 274.213C810.281 278.333 804.908 280.653 800.295 284.56C799.148 286.2 798.068 287.88 796.948 289.533C796.988 287.533 796.935 285.453 797.308 283.507C800.428 278.973 806.375 276.147 810.601 272.68C819.601 265.92 824.681 255.347 826.521 244.453C828.095 234.68 822.775 224.507 814.321 219.56C809.948 216.92 804.455 214.88 799.695 217.88C794.268 220.76 791.335 226.107 784.535 224.813C788.335 222.147 791.548 218.893 795.015 215.853C799.335 211.827 806.721 212.147 811.935 213.947Z" fill="#FCE948"/>
<path d="M525.935 214.28C532.708 213.6 538.961 214.627 545.601 215.653C543.588 226.44 542.175 238.36 547.868 248.307C534.548 265.467 524.348 284.267 518.041 305.093C516.508 304.613 514.975 304.12 513.415 303.72C512.881 304.76 512.361 305.8 511.841 306.84C510.801 303.533 509.908 299.853 511.095 296.467C512.855 291.52 517.908 288.293 520.855 283.747C526.348 274.72 532.615 266.933 535.801 256.68C527.268 257.187 518.761 257.52 512.015 263.493C509.801 265.467 506.961 269.347 508.348 272.453C512.241 275.88 516.841 277.44 519.601 282.2C513.948 280.72 508.815 280.587 505.455 275.107C501.908 270.027 505.575 263.347 509.975 260.147C519.321 253.413 528.895 254.04 539.188 250.96C539.668 251.24 540.148 251.507 540.628 251.787C541.721 248.493 542.268 245.493 541.561 242.013C540.228 234.573 539.988 227.413 540.481 219.88C534.668 217.88 529.001 216.507 523.521 220.293C520.575 224.547 522.508 231.413 525.495 235.213C529.735 241.213 536.201 242.36 538.521 249.533C533.841 246.573 529.068 244.92 525.388 240.693C520.761 235.173 517.348 228.813 518.375 221.347C518.828 217.507 522.321 214.88 525.935 214.28Z" fill="#FCEB4C"/>
<path d="M540.481 219.88C539.988 227.413 540.228 234.573 541.561 242.013C542.268 245.493 541.721 248.493 540.628 251.787C540.148 251.507 539.668 251.24 539.188 250.96L538.521 249.533C536.201 242.36 529.735 241.213 525.495 235.213C522.508 231.413 520.575 224.547 523.521 220.293C529.001 216.507 534.668 217.88 540.481 219.88Z" fill="#FBD203"/>
<path d="M662.521 224.587C666.161 223.107 669.935 226.907 669.601 230.52C669.281 234.613 665.961 238.627 663.908 242.067C658.708 249.6 656.895 258.88 654.761 267.733C652.895 275.04 655.775 282.627 660.948 287.84C666.481 293.013 674.841 293.28 681.975 292.787C692.735 291.813 704.401 288.72 713.028 281.933C705.961 280.747 694.948 282.173 690.055 275.987C681.055 265.52 682.095 250.147 688.548 238.667C691.508 233.76 697.095 229.307 702.575 227.6C706.068 226.347 712.668 229.973 710.601 234.173C707.721 239.907 700.935 243.493 697.855 249.253C695.975 253.04 696.321 257.987 697.575 261.92C698.708 265.413 702.135 268.187 704.628 270.733C706.601 269 709.655 267.373 710.788 264.947C710.895 260.533 708.548 255.8 709.201 251.493C711.055 247.667 715.161 248.04 718.735 248.573C725.201 249.8 732.801 253.987 734.295 260.947C735.895 268.32 735.215 276.96 730.108 282.893C725.188 288.64 719.041 293.307 713.775 298.747C717.121 302.387 719.855 306.333 724.895 307.653C734.295 310.307 745.481 309.56 755.108 310.293C761.575 310.96 768.175 312.173 774.215 314.613C778.815 316.453 781.575 320.52 784.695 324.133C788.268 328.6 792.681 332.8 794.055 338.533C796.468 348.613 796.228 359.413 793.921 369.493C792.335 376.333 788.455 381.293 785.255 387.32C783.348 390.733 783.401 394.227 783.135 398.027C787.708 395.187 790.308 391.52 792.628 386.747C797.241 377.36 803.348 368.867 805.988 359.107C807.308 354.48 808.601 349.84 809.641 345.147C811.401 338.453 809.161 330.72 806.855 324.4C804.828 318.747 797.575 318.253 795.988 312.08C800.601 313.587 806.481 315.253 809.015 319.787C813.415 327.333 813.948 337.04 812.988 345.52C810.628 362.693 802.201 378.187 793.361 392.813C790.801 396.84 788.548 401.253 785.441 404.88L783.681 405.133C780.935 401.267 779.148 396.64 777.175 392.347C784.535 382.893 790.441 371.733 792.548 359.867C794.095 352.293 793.055 344.307 790.055 337.213C787.641 331.613 783.468 328.48 779.721 323.667C777.201 320.44 774.308 318.44 770.495 316.987C753.708 310.693 736.761 317.48 719.481 309.267C713.841 306.587 711.508 301.693 709.015 296.32C716.868 290.627 725.201 284.893 730.161 276.32C733.601 270.28 733.415 260.48 727.121 256.253C721.935 252.747 716.161 250.387 709.988 252.96C711.988 255.787 714.601 258.44 716.095 261.573C716.508 267.613 710.468 273.347 704.681 273.973C701.321 273.64 697.975 271.48 696.495 268.387C692.881 261.227 692.508 252.04 696.095 244.813C699.268 240.053 704.935 236.827 709.095 232.92C707.028 232.187 704.948 230.773 702.695 231.493C694.135 234.56 688.215 242.947 687.815 252.013C687.601 259.107 686.521 267.267 691.988 272.773C699.228 280.907 712.041 279.96 719.255 272.227C717.801 276.32 717.668 277.267 720.095 280.907C714.055 287.373 705.255 291.16 696.935 293.747C687.575 296.293 677.801 298.213 668.281 295.28C661.401 293.64 655.388 289.293 652.601 282.667C650.055 276.92 650.308 270.747 651.601 264.733C653.401 256.213 656.108 247.52 660.561 240C662.601 236.44 666.095 233.147 667.135 229.187L664.975 227.08C661.655 228.6 659.175 230.92 657.161 233.92C652.081 241.427 648.521 250.08 646.401 258.88C644.441 266.453 645.215 275.133 645.255 282.92C642.428 284.013 639.561 285.387 636.588 285.96C628.468 285.427 619.548 280.627 617.735 272.08C615.908 261.213 618.681 250.333 623.681 240.68C626.321 235.52 629.321 231.4 635.081 229.52L636.201 229C632.215 235.44 627.508 240.36 624.921 247.093C622.415 253.533 620.161 261.027 620.815 267.987C621.401 275.293 627.841 281.653 635.255 281.68C637.708 281.6 640.628 280.88 641.255 278.133C642.708 272.32 642.201 265.92 642.961 259.96C643.868 250.92 647.961 242.453 652.535 234.733C654.908 230.96 658.175 226.187 662.521 224.587Z" fill="#FCE84A"/>
<path d="M551.348 254.653C556.935 258.333 562.095 262.2 568.575 264.227C572.682 265.52 574.268 268.76 577.188 271.6C579.695 274.24 582.628 275.867 585.668 277.773C586.682 278.707 587.668 279.667 588.642 280.653C583.842 279.907 579.588 278.893 576.015 275.4C568.922 268.84 561.028 263.453 551.762 260.507C540.695 273.12 533.802 290.667 528.415 306.347C525.948 313.187 523.415 319.853 522.401 327.093C520.828 338.373 517.628 348.6 517.735 360.107C517.388 371.36 522.428 382.707 525.815 393.493C529.548 403.107 532.228 414.16 538.015 422.64C543.362 430.72 548.228 438.693 555.188 445.547C560.788 451.053 566.295 456.693 572.242 461.813C586.868 473.52 603.962 480 622.175 483.693C631.722 485.467 639.708 488.547 649.202 488.92C653.975 489.307 659.815 489.16 664.122 491.413C667.482 493.187 668.108 497.84 668.922 501.173C670.428 510.067 673.162 518.653 674.708 527.547C675.762 533.227 676.708 538.813 679.428 543.987C682.095 549.107 686.388 552.973 690.415 557C697.815 564.267 704.548 572.213 712.015 579.4C714.175 581.293 717.322 584.133 720.362 583.92C725.002 582.667 726.735 579.08 729.135 575.373C721.575 569.067 714.162 563.107 708.442 554.973C701.295 544.92 694.548 534.213 691.815 522.04C689.535 512.907 684.535 501.373 687.615 492.067C689.775 486.453 698.935 485.12 704.082 483.827C717.722 481.64 729.362 475.373 741.215 468.68C748.295 464.387 754.935 459.32 761.482 454.267C767.122 449.92 771.322 444.413 775.402 438.64C772.975 435.987 770.428 432.48 766.895 431.307C762.015 429.573 756.482 429.28 751.415 428.067C744.815 426.613 738.988 423.627 732.482 421.88C729.362 420.933 725.975 420.28 723.042 418.84C721.215 417.693 719.948 415.56 718.615 413.907C720.015 414.293 721.402 414.707 722.788 415.147C727.068 417.12 731.562 418.44 736.082 419.76C742.802 421.733 749.695 424.827 756.588 425.827C760.335 426.333 764.175 425.827 767.882 426.413C773.082 429.827 776.788 435.867 780.815 440.56C776.335 444.04 772.282 447.787 768.615 452.12C764.188 457.387 758.788 460.707 753.548 465.053C748.388 469.36 742.575 471.667 736.802 474.947C730.588 478.4 724.428 481.773 717.655 484.04C708.722 487.213 699.308 488.147 690.415 491.48C690.602 517.573 700.575 543.16 718.895 561.84C723.322 566.453 728.882 569.747 733.402 574.2C733.828 577.2 732.002 579.52 730.335 581.8C727.722 585.187 723.735 588.267 719.348 588.6C714.788 587.667 711.082 582.667 707.815 579.587C698.988 571.067 690.748 561.973 681.882 553.507C678.962 550.72 676.948 547.693 675.415 543.96C668.842 528.187 669.175 509.773 663.015 494.12C655.468 493.267 647.922 492.573 640.468 491.08C619.295 487.333 598.455 482.88 579.868 471.52C569.362 465.44 561.868 457.187 553.282 448.773C538.188 433.4 528.561 414.4 522.401 393.893C519.561 384 514.708 374.52 514.642 364.133C514.575 356.12 514.815 348.12 515.988 340.187C518.481 323.107 524.495 306.293 530.708 290.213C535.562 277.373 542.788 265.373 551.348 254.653Z" fill="#ECA556"/>
<path d="M535.802 256.68C532.615 266.933 526.348 274.72 520.855 283.747L519.602 282.2C516.842 277.44 512.242 275.88 508.348 272.453C506.962 269.347 509.802 265.467 512.015 263.493C518.762 257.52 527.268 257.187 535.802 256.68Z" fill="#FBD205"/>
<path d="M551.761 260.507C561.028 263.453 568.921 268.84 576.015 275.4C579.588 278.893 583.841 279.907 588.641 280.653C587.668 279.667 586.681 278.707 585.668 277.773C592.548 279.453 599.028 280.347 605.775 277.453C604.468 278.307 603.161 279.16 601.868 280C606.308 280.653 610.401 281 613.921 284.107C620.455 289.533 627.121 294.12 635.775 295.227C639.215 295.173 642.761 292.72 645.788 291.227C650.655 295.627 654.748 299.973 661.188 302.053C668.428 304.293 677.015 307.2 684.615 305.64C689.708 304.88 694.761 302.533 699.895 302.32C703.788 304.68 706.468 309.227 709.708 312.427C716.401 319.467 725.601 322.947 735.228 323.2C745.441 324.107 757.855 321.627 767.375 325.52C776.415 329.427 779.735 340.387 782.695 348.933C786.161 358 780.121 368.133 776.068 376.027C773.428 370.187 772.535 364.373 768.228 359.4C768.681 361.827 769.188 364.253 769.641 366.693C768.881 365.827 768.108 364.96 767.335 364.093C766.268 364.44 765.188 364.787 764.108 365.133C763.268 373.88 760.415 382.68 764.428 391.027C771.335 405.547 780.041 419.227 791.308 430.773C795.361 434.76 799.855 438.667 805.935 438.347C812.401 438 818.761 436.653 825.241 436.36C826.375 438.32 827.521 440.32 828.748 442.213C825.788 442.693 822.841 443.227 819.895 443.813C821.441 445.187 823.001 446.533 824.695 447.733C823.588 447.707 822.468 447.693 821.361 447.68C824.521 451.067 827.601 454.48 830.348 458.213C828.001 457.867 825.655 457.48 823.295 457.16C819.748 456.733 817.775 456.627 814.961 459.027C814.268 459.76 813.588 460.507 812.908 461.253C815.841 465.28 820.055 469.627 821.308 474.493C821.081 478.053 817.948 481.56 816.148 484.52C813.775 482.707 811.361 481.507 810.068 478.667C807.188 472.693 806.241 465.56 803.655 459.48C802.455 456.32 799.508 454.947 796.935 453.027C792.615 456.947 788.681 461.253 784.415 465.213C781.415 468.2 777.775 467.627 773.881 468.12C773.775 463.573 773.295 459.653 776.521 455.973C781.241 450.6 788.988 448.307 794.561 443.68C793.401 443.72 792.241 443.773 791.081 443.853L791.495 441.827C792.375 438.013 792.175 436.813 789.508 433.92C780.841 425.2 772.521 416.187 764.775 406.64C757.881 397.84 754.508 386.253 749.721 376.36C748.468 374.093 747.148 371.253 744.361 370.627C740.668 369.387 736.815 372.547 736.721 376.28C736.695 384.96 743.161 393 744.908 400.427C745.708 403.093 742.975 404.693 740.841 405.427C734.975 407.227 728.575 407.6 722.508 408.493C722.535 409.667 722.588 410.84 722.628 412.013L722.788 415.147C721.401 414.707 720.015 414.293 718.615 413.907C719.948 415.56 721.215 417.693 723.041 418.84C725.975 420.28 729.361 420.933 732.481 421.88C738.988 423.627 744.815 426.613 751.415 428.067C756.481 429.28 762.015 429.573 766.895 431.307C770.428 432.48 772.975 435.987 775.401 438.64C771.321 444.413 767.121 449.92 761.481 454.267C754.935 459.32 748.295 464.387 741.215 468.68C729.361 475.373 717.721 481.64 704.081 483.827C698.935 485.12 689.775 486.453 687.615 492.067C684.535 501.373 689.535 512.907 691.815 522.04C694.548 534.213 701.295 544.92 708.441 554.973C714.161 563.107 721.575 569.067 729.135 575.373C726.735 579.08 725.001 582.667 720.361 583.92C717.321 584.133 714.175 581.293 712.015 579.4C704.548 572.213 697.815 564.267 690.415 557C686.388 552.973 682.095 549.107 679.428 543.987C676.708 538.813 675.761 533.227 674.708 527.547C673.161 518.653 670.428 510.067 668.921 501.173C668.108 497.84 667.481 493.187 664.121 491.413C659.815 489.16 653.975 489.307 649.201 488.92C639.708 488.547 631.721 485.467 622.175 483.693C603.961 480 586.868 473.52 572.241 461.813C566.295 456.693 560.788 451.053 555.188 445.547C548.228 438.693 543.361 430.72 538.015 422.64C532.228 414.16 529.548 403.107 525.815 393.493C522.428 382.707 517.388 371.36 517.735 360.107C517.628 348.6 520.828 338.373 522.401 327.093C523.415 319.853 525.948 313.187 528.415 306.347C533.801 290.667 540.695 273.12 551.761 260.507Z" fill="#F88D1E"/>
<path d="M723.401 261.347C727.855 268.16 724.135 275.053 720.095 280.907C717.668 277.267 717.801 276.32 719.255 272.227C720.828 268.667 722.055 265 723.401 261.347Z" fill="#FEFB84"/>
<path d="M611.201 274C615.601 280.12 619.148 285.853 626.428 288.96C633.895 291.96 641.108 290.507 648.042 286.933C650.762 290.253 653.135 293.56 656.842 295.867C661.482 298.787 666.495 299.96 671.815 300.987C681.828 303.547 693.428 300.027 703.441 298.027C707.695 305.587 712.722 312.173 720.802 315.893C730.402 321.04 739.508 319.053 749.975 319.333C758.135 319.133 765.615 319.147 772.415 324.333C779.255 329.88 783.775 338.507 786.148 346.867C788.748 358.92 784.175 368.773 778.588 379.04C777.761 378.027 776.935 377 776.108 375.987C774.855 378.267 773.588 380.547 772.455 382.893C771.362 377.507 770.495 372.12 769.642 366.693C769.188 364.253 768.682 361.827 768.228 359.4C772.535 364.373 773.428 370.187 776.068 376.027C780.122 368.133 786.161 358 782.695 348.933C779.735 340.387 776.415 329.427 767.375 325.52C757.855 321.627 745.442 324.107 735.228 323.2C725.602 322.947 716.402 319.467 709.708 312.427C706.468 309.227 703.788 304.68 699.895 302.32C694.762 302.533 689.708 304.88 684.615 305.64C677.015 307.2 668.428 304.293 661.188 302.053C654.748 299.973 650.655 295.627 645.788 291.227C642.762 292.72 639.215 295.173 635.775 295.227C627.121 294.12 620.455 289.533 613.922 284.107C610.402 281 606.308 280.653 601.868 280C603.161 279.16 604.468 278.307 605.775 277.453C607.588 276.307 609.361 275.107 611.201 274Z" fill="#E8A14F"/>
<path d="M576.602 282.12C574.282 283.48 571.935 284.8 569.588 286.12C569.388 290.44 568.682 295.133 569.522 299.413C571.428 305.413 578.868 308.733 584.642 309.56C591.108 309 597.522 306.12 601.108 300.507C602.588 297.987 602.335 295.36 602.548 292.533C601.122 292.493 599.695 292.453 598.268 292.413C595.495 297.32 593.202 302.733 586.868 303.533C581.628 304.547 578.508 301.84 574.642 298.88C574.948 295.64 575.268 292.413 575.548 289.173C577.108 292.347 578.655 296.147 581.268 298.6C583.642 299.653 587.042 299.787 589.215 298.213C592.762 295.56 595.215 291.32 598.628 288.547C601.015 287.28 603.495 290.053 604.535 291.947C606.442 296.12 605.935 302.453 602.122 305.44C599.122 307.987 595.562 309.907 591.922 311.36C585.002 314.387 576.242 312.08 570.548 307.533C567.188 304.853 566.855 300.88 566.508 296.907C566.442 292.627 565.855 286.267 568.748 282.8C571.188 280.107 573.655 281.56 576.602 282.12Z" fill="#F6AB56"/>
<path d="M828.922 286.387C835.522 290.693 838.788 299.027 838.855 306.693C838.975 313.387 839.215 320.187 838.388 326.84C835.842 340.773 830.175 353.067 825.122 366.107C821.588 375.893 817.988 386.093 820.308 396.613C825.802 408.28 839.415 410.373 850.908 408.027C857.535 406.547 862.575 402.867 868.388 399.64C864.388 414.653 853.268 427.08 837.722 430.173C832.868 429.973 828.255 427.84 823.308 427.707C815.962 427.773 809.655 422.027 805.535 416.48C801.762 410.2 799.175 402.2 800.162 394.84C801.708 389.4 805.295 384.413 807.695 379.28C813.255 367.613 818.895 354.493 819.842 341.48C820.468 331.733 818.735 320.413 811.388 313.333C807.428 309.173 801.628 308.693 796.335 307.427C796.522 306.253 796.722 305.08 796.935 303.907C801.602 304.787 805.908 305.36 809.922 308.12C815.735 312.133 820.855 318.133 821.428 325.453C822.068 333.4 822.388 341.493 821.815 349.453C821.202 358.32 816.735 366.147 813.415 374.373C810.802 380.933 806.935 387.04 804.762 393.76C802.135 405.173 807.322 418.6 818.908 422.733C825.202 424.507 832.095 426.093 838.682 425.853C847.775 424.307 855.215 417.76 860.188 410.267C850.628 410.347 842.295 412.573 832.855 410.52C825.202 409.107 818.135 402.453 817.068 394.627C815.908 387.027 816.815 379.293 819.375 372.08C823.455 360.733 827.682 349.453 831.895 338.16C835.695 327.68 835.388 317.28 834.788 306.32C834.308 301.213 833.775 295.933 829.962 292.107C826.362 288.48 820.775 285.2 815.508 286.76C810.562 287.987 805.775 289.787 800.802 290.947C803.335 289.013 805.908 287.04 808.575 285.307C814.748 282.44 823.135 282.64 828.922 286.387Z" fill="#FDEB58"/>
<path d="M574.881 285.6C574.735 290.027 574.548 294.453 574.641 298.88C578.508 301.84 581.628 304.547 586.868 303.533C593.201 302.733 595.495 297.32 598.268 292.413C599.695 292.453 601.121 292.493 602.548 292.533C602.335 295.36 602.588 297.987 601.108 300.507C597.521 306.12 591.108 309 584.641 309.56C578.868 308.733 571.428 305.413 569.521 299.413C568.681 295.133 569.388 290.44 569.588 286.12C571.348 285.947 573.121 285.773 574.881 285.6Z" fill="#040000"/>
<path d="M470.935 291.133C474.588 291.187 475.748 294.267 476.028 297.4C476.561 304.133 472.735 310.107 470.175 316.067C476.375 325.147 484.615 332.493 494.815 336.747C499.375 338.707 504.361 339.747 508.775 341.96C509.815 349.667 508.695 357.667 509.228 365.467C492.228 362.347 478.695 348.027 465.708 337.88C466.468 337.333 467.228 336.787 467.988 336.24C478.668 342.8 486.375 352.653 497.321 358.093C500.201 359.373 503.855 360.493 505.882 357.227C508.975 351.04 506.535 344.64 499.895 342.453C485.295 337.48 472.948 327.04 465.215 313.747C463.668 309.4 461.615 304.707 461.388 300.08C462.442 295.44 465.375 290.24 470.935 291.133Z" fill="#F2AC58"/>
<path d="M468.735 295.067C470.562 296.56 472.735 298.08 473.908 300.16C473.108 303.907 470.082 307.013 467.682 309.867C466.988 306.893 465.748 303.573 466.015 300.493C466.682 298.613 467.748 296.8 468.735 295.067Z" fill="#F49521"/>
<path d="M634.761 299.747C634.135 300.56 633.508 301.373 632.881 302.187C630.961 302.813 628.895 303.187 627.068 304.053C625.268 308.827 624.241 314.48 626.935 319.133C630.855 326.907 640.788 332.253 649.268 328.84C655.481 326.987 658.921 322.4 662.401 317.28C663.575 315.547 664.721 313.813 665.895 312.093C664.828 316.96 664.455 321.827 660.695 325.48C656.215 329.96 649.828 333.893 643.295 333.72C637.561 333.613 632.841 330.347 628.668 326.72C625.508 323.813 622.441 320.6 621.828 316.147C621.295 311.8 621.361 306.693 623.268 302.68C626.135 299.373 630.708 299.067 634.761 299.747Z" fill="#ECA251"/>
<path d="M443.148 300.933C447.175 301.68 451.535 303.307 454.535 306.2C456.988 308.773 458.775 312.08 460.721 315.053L459.188 315.373C453.775 310.52 449.988 305.4 442.308 304.12C441.175 305.333 440.095 306.573 439.015 307.813C444.175 311.253 449.201 314.907 454.348 318.373C453.748 318.893 453.148 319.413 452.548 319.92C448.495 316.587 443.668 314.84 439.295 312.08C436.281 310.093 435.495 307.107 433.961 304.027C436.988 302.547 439.601 300.133 443.148 300.933Z" fill="#FBBA72"/>
<path d="M513.415 303.72C514.975 304.12 516.508 304.613 518.041 305.093C517.415 306.987 516.775 308.88 516.095 310.773C514.655 309.493 513.215 308.2 511.841 306.84C512.361 305.8 512.881 304.76 513.415 303.72Z" fill="#FFFCA2"/>
<path d="M632.881 302.187L632.375 304.32C631.761 307.28 630.761 310.413 630.881 313.453C632.948 321.547 643.015 326.48 650.415 321.907C654.815 319.507 655.761 315.147 657.348 310.76C658.828 310.867 660.308 311.027 661.775 311.187C662.001 313.213 662.215 315.24 662.401 317.28C658.921 322.4 655.481 326.987 649.268 328.84C640.788 332.253 630.855 326.907 626.935 319.133C624.241 314.48 625.268 308.827 627.068 304.053C628.895 303.187 630.961 302.813 632.881 302.187Z" fill="#030000"/>
<path d="M442.308 304.12C449.988 305.4 453.775 310.52 459.188 315.373L460.721 315.053C462.228 314.64 463.721 314.2 465.215 313.747C472.948 327.04 485.295 337.48 499.895 342.453C506.535 344.64 508.975 351.04 505.881 357.227C503.855 360.493 500.201 359.373 497.321 358.093C486.375 352.653 478.668 342.8 467.988 336.24C467.228 336.787 466.468 337.333 465.708 337.88L464.241 338.947C460.415 341.213 458.761 344.667 456.655 348.373C454.321 352.613 450.695 354.893 446.961 357.787C445.335 355.667 442.801 354.413 443.615 351.373C444.908 343.853 451.868 339.653 457.055 334.867C456.268 334.64 455.468 334.427 454.668 334.213C454.695 332.8 454.708 331.387 454.721 329.973C454.015 326.787 452.188 324.36 450.375 321.747L452.548 319.92C453.148 319.413 453.748 318.893 454.348 318.373C449.201 314.907 444.175 311.253 439.015 307.813C440.095 306.573 441.175 305.333 442.308 304.12Z" fill="#F78F1D"/>
<path d="M632.375 304.32C634.081 308.747 635.215 313.787 637.761 317.8C639.815 319.48 643.188 320.493 645.815 320.2C650.735 319.24 652.575 311.693 657.348 310.76C655.761 315.147 654.815 319.507 650.415 321.907C643.015 326.48 632.948 321.547 630.881 313.453C630.761 310.413 631.761 307.28 632.375 304.32Z" fill="#F9B363"/>
<path d="M595.855 315.893C601.615 314.893 608.175 318.08 612.788 321.32C620.228 326.44 621.868 337.267 617.268 344.8C613.748 350.4 608.975 355.093 602.228 356.347C595.962 357.493 588.215 358.093 582.895 353.893C578.468 350.613 574.068 345.907 573.815 340.093C573.522 332.547 577.668 325.027 584.055 321.027C587.668 318.773 591.668 316.787 595.855 315.893Z" fill="#F7A753"/>
<path d="M603.362 319.867C599.775 319.667 596.175 319.72 592.602 320.053C596.402 318.96 599.522 318.92 603.362 319.867Z" fill="#AA6324"/>
<path d="M592.602 320.053C596.175 319.72 599.775 319.667 603.362 319.867C607.202 321.493 610.842 324.013 613.455 327.307C616.388 330.88 616.762 336.253 615.468 340.547C613.015 346.253 607.762 350.92 602.175 353.467C598.255 354.693 593.348 354.613 589.335 353.92C583.948 351.387 578.495 346.16 577.455 340.08C577.215 330.693 584.055 323.013 592.602 320.053Z" fill="#040000"/>
<path d="M430.428 321.92C437.388 319.467 443.481 322.347 450.375 321.747C452.188 324.36 454.015 326.787 454.721 329.973C447.548 330.827 442.268 333.64 435.228 333.08C431.655 332.893 428.215 331.333 426.521 328.04C426.561 325.413 427.628 322.6 430.428 321.92Z" fill="#F4A44E"/>
<path d="M443.735 325.213C444.948 325.467 445.668 326.293 445.868 327.693C442.922 329.32 439.295 330.773 435.895 330.013C433.868 329.4 432.308 327.24 430.775 325.853C434.775 325.027 439.748 323.853 443.735 325.213Z" fill="#FA9215"/>
<path d="M591.908 326C594.695 324.653 597.615 324.547 600.655 324.72C606.082 325.4 611.175 330.16 610.375 335.973C608.668 342.547 602.615 349.493 595.282 349.133C592.188 349.173 589.415 349.467 587.228 346.853C581.028 340.547 583.855 329.24 591.908 326Z" fill="#F1B46A"/>
<path d="M594.374 328.267C598.094 327.147 604.068 326.773 605.521 331.413C607.921 336.853 604.414 341.827 600.214 345.04C596.694 347.707 590.468 347.08 588.254 342.987C585.268 337.84 588.574 329.813 594.374 328.267Z" fill="#F5901D"/>
<path d="M457.055 334.867C451.868 339.653 444.908 343.853 443.615 351.373C442.802 354.413 445.335 355.667 446.962 357.787C450.695 354.893 454.322 352.613 456.655 348.373C458.762 344.667 460.415 341.213 464.242 338.947C462.828 345.533 460.348 351.493 455.188 356.027C451.962 358.92 446.762 362.28 442.388 360C438.682 358.933 439.722 353.707 439.868 350.747C441.562 342.133 447.775 338.453 454.668 334.213C455.468 334.427 456.268 334.64 457.055 334.867Z" fill="#F9B262"/>
<path d="M649.148 358.227C650.068 358.267 651.001 358.32 651.921 358.387C646.788 367.88 640.175 377.747 631.361 384.173C621.895 390.893 609.615 393.413 598.415 389.96C590.215 387.387 582.948 381.693 578.188 374.573C575.881 371.12 574.361 367.44 572.308 363.88C570.908 362.213 569.415 360.627 567.975 359.013C571.161 360.52 574.255 361.213 576.228 364.387C580.521 370.773 583.081 377.133 589.655 381.76C602.628 390.907 620.815 388.933 632.628 378.76C639.921 372.88 643.108 365 649.148 358.227Z" fill="#F4A457"/>
<path d="M656.108 358.987C655.988 363.827 655.868 368.64 655.295 373.44C653.428 393.12 656.508 414.04 651.908 433.013C649.615 443.733 643.655 454.52 633.695 459.8C626.788 463.92 617.908 464.44 610.255 462.533C600.615 459.52 592.241 451.733 586.268 443.8C578.921 433.613 575.748 419.6 573.375 407.453C571.415 398.36 570.335 389.307 569.308 380.067C568.708 374.307 567.041 368.747 566.615 362.933C568.508 363.267 570.415 363.56 572.308 363.88C574.361 367.44 575.881 371.12 578.188 374.573C582.948 381.693 590.215 387.387 598.415 389.96C609.615 393.413 621.895 390.893 631.361 384.173C640.175 377.747 646.788 367.88 651.921 358.387C653.321 358.547 654.708 358.747 656.108 358.987Z" fill="#020101"/>
<path d="M656.108 358.987C659.894 361.893 658.735 366.253 658.881 370.48C658.201 381.693 658.481 392.893 658.201 404.107C657.948 414.173 658.188 423.84 655.441 433.613C652.761 442.973 649.188 451.96 641.748 458.6C637.468 462.573 633.121 464.627 627.188 464.72C620.055 464.627 611.268 467.173 604.788 463.973C595.268 459.933 587.561 451.333 581.815 442.96C574.455 432.147 572.828 420 569.508 407.507C567.468 399.747 567.108 391.893 566.494 383.947C566.014 376.08 561.895 370.347 563.548 362.373C564.575 362.56 565.588 362.76 566.614 362.933C567.041 368.747 568.708 374.307 569.308 380.067C570.335 389.307 571.415 398.36 573.375 407.453C575.748 419.6 578.921 433.613 586.268 443.8C592.241 451.733 600.615 459.52 610.255 462.533C617.908 464.44 626.788 463.92 633.694 459.8C643.654 454.52 649.614 443.733 651.908 433.013C656.508 414.04 653.428 393.12 655.295 373.44C655.868 368.64 655.988 363.827 656.108 358.987Z" fill="#F1A854"/>
<path d="M764.108 365.133C764.015 370.16 763.868 374.973 764.881 379.947C766.628 388.853 770.708 396.373 775.455 403.987C780.975 412.893 786.948 422.92 794.868 429.88C798.681 432.8 803.308 436.587 808.428 434.987C814.735 433.48 821.881 431.28 828.375 433.347C834.601 436.747 837.841 443.093 838.815 449.947C834.988 447.973 831.521 445.533 828.748 442.213C827.521 440.32 826.375 438.32 825.241 436.36C818.761 436.653 812.401 438 805.935 438.347C799.855 438.667 795.361 434.76 791.308 430.773C780.041 419.227 771.335 405.547 764.428 391.027C760.415 382.68 763.268 373.88 764.108 365.133Z" fill="#FBB559"/>
<path d="M744.362 370.627C747.148 371.253 748.468 374.093 749.722 376.36C754.508 386.253 757.882 397.84 764.775 406.64C772.522 416.187 780.842 425.2 789.508 433.92C792.175 436.813 792.375 438.013 791.495 441.827C785.962 434.253 778.655 428.573 772.588 421.48C763.895 411.613 755.468 401.067 750.815 388.627C749.255 384.787 748.268 380.68 746.482 376.947C745.282 374.56 744.228 373.92 741.602 373.533C739.988 378.613 741.482 383.16 743.362 387.893C745.722 393.467 748.588 398.813 751.068 404.333C742.202 409.733 732.882 411.587 722.628 412.013C722.588 410.84 722.535 409.667 722.508 408.493C728.575 407.6 734.975 407.227 740.842 405.427C742.975 404.693 745.708 403.093 744.908 400.427C743.162 393 736.695 384.96 736.722 376.28C736.815 372.547 740.668 369.387 744.362 370.627Z" fill="#F4A954"/>
<path d="M776.108 375.987C776.935 377 777.761 378.027 778.588 379.04C777.588 380.92 776.615 382.787 775.641 384.68C774.681 384.747 773.721 384.813 772.761 384.88L772.455 382.893C773.588 380.547 774.855 378.267 776.108 375.987Z" fill="#E9B785"/>
<path d="M794.201 405.28C796.481 410.867 798.188 415.933 797.375 422.08C793.575 419 790.855 415.2 788.521 410.933C790.401 409.04 792.281 407.147 794.201 405.28Z" fill="#FCCA7A"/>
<path d="M754.095 409.693C756.908 412.933 759.695 416.173 762.201 419.653C755.255 419.827 748.535 418.133 742.308 415.093C746.281 413.373 750.241 411.653 754.095 409.693Z" fill="#FEFD75"/>
<path d="M802.748 423.013C805.802 424.08 807.948 426.187 810.188 428.44C806.842 430.373 805.255 429.333 802.162 427.827C802.295 426.213 802.495 424.6 802.748 423.013Z" fill="white"/>
<path d="M794.561 443.68C788.988 448.307 781.241 450.6 776.521 455.973C773.294 459.653 773.775 463.573 773.881 468.12C777.775 467.627 781.415 468.2 784.415 465.213C788.681 461.253 792.614 456.947 796.934 453.027C799.508 454.947 802.455 456.32 803.655 459.48C806.241 465.56 807.188 472.693 810.068 478.667C811.361 481.507 813.775 482.707 816.148 484.52C817.948 481.56 821.081 478.053 821.308 474.493C820.055 469.627 815.841 465.28 812.908 461.253C813.588 460.507 814.268 459.76 814.961 459.027C818.135 462.093 821.628 465.093 823.535 469.173C826.681 476.04 823.041 485.28 816.535 488.813C811.175 488.493 808.281 482.667 806.348 478.387C803.014 471.427 803.268 462.267 797.921 456.893C790.948 459.147 787.948 472.56 779.215 471.76C776.188 471.653 770.001 472.227 769.655 467.987C769.335 463.373 770.975 458.253 773.495 454.387C777.601 448.613 784.588 445.933 791.081 443.853C792.241 443.773 793.401 443.72 794.561 443.68Z" fill="#F7AF5D"/>
<path d="M821.361 447.68C822.468 447.693 823.588 447.707 824.695 447.733C830.575 450.8 835.268 455.773 835.015 462.8C835.281 467.24 834.295 469.147 831.415 472.267C829.308 466.84 826.868 461.787 823.295 457.16C825.655 457.48 828.001 457.867 830.348 458.213C827.601 454.48 824.521 451.067 821.361 447.68Z" fill="#FCB658"/>
<path d="M846.108 457.173C852.335 457.907 858.868 461.013 863.535 465.2C865.441 466.693 865.268 469.893 865.801 472.107C862.495 470.173 859.375 467.973 856.135 465.947C851.401 462.933 846.175 461.867 840.801 459.827C842.295 458.92 844.228 456.773 846.108 457.173Z" fill="#356D96"/>
<path d="M877.881 461.733C885.961 462.32 892.815 465.533 900.175 468.52C919.001 476.213 936.281 486.573 952.121 499.307C955.881 502.573 962.495 506.253 961.401 512.04C961.321 517.253 960.041 522.053 958.588 527.013C956.481 534.093 954.481 541.093 951.628 547.933C951.068 546.227 950.495 544.533 949.868 542.867C948.868 540.747 947.961 538.787 945.815 537.6C941.615 535.067 937.215 532.987 933.241 530.067C938.601 525.84 943.668 521.387 948.335 516.387C947.828 515.133 947.308 513.88 946.801 512.627C937.535 510.453 928.935 512.493 919.655 512.76C919.895 503.093 923.108 494.28 922.281 484.547C919.041 485.56 915.908 486.547 913.201 488.68C907.628 492.893 902.241 497.347 896.521 501.36C893.108 495.787 889.761 490.173 886.521 484.493C884.148 484.853 880.241 484.053 878.721 486.253C875.708 489.72 874.068 494.693 872.361 498.907C870.641 503.36 868.428 507.573 866.121 511.747C859.375 511.213 852.775 509.92 846.081 509L843.361 508.613C848.775 501.453 854.681 494.693 859.935 487.413C866.335 479.133 871.508 470 877.881 461.733Z" fill="#E41E3A"/>
<path d="M842.842 467.413C850.802 466.693 855.962 471.227 860.682 476.973C849.188 491.84 837.508 506.373 824.348 519.813C822.828 521.267 821.402 522.693 819.402 523.453C813.175 519.973 807.442 515.227 803.282 509.4C798.402 502.827 797.522 493.44 800.042 485.773L801.948 485.693C805.215 488.347 807.348 492.253 811.682 493.307C817.042 495.213 822.788 492.547 826.442 488.587C828.402 486.053 829.375 482.56 830.802 479.693C832.042 478.253 833.855 477.307 835.335 476.12C838.508 473.853 840.242 470.24 842.842 467.413Z" fill="#FDFEFE"/>
<path d="M795.295 469.427C796.442 471.6 797.695 473.84 798.495 476.16C796.908 482.52 792.002 487.453 792.122 494.773C792.415 501.96 796.308 509.213 800.322 515.027C804.495 521.027 810.642 523.96 816.508 528.88C813.988 530.707 811.482 532.547 808.975 534.387C804.602 530.667 800.375 527.067 796.948 522.413C791.495 515.347 788.402 506.293 787.122 497.533C785.788 487.36 789.055 477.427 795.295 469.427Z" fill="#2A73AC"/>
<path d="M585.761 482.92C592.961 485.32 600.068 488.067 607.108 490.907C602.188 497.96 595.921 503.347 590.135 509.6C583.015 517.147 575.801 524.613 568.548 532.027C562.588 538.053 557.628 544.867 551.361 550.6C548.228 549.107 544.615 547.707 541.975 545.413C539.748 543.267 538.188 540.253 536.588 537.613C549.721 524.613 563.241 512.96 574.695 498.173C578.508 493.093 581.548 487.72 585.761 482.92Z" fill="#F79527"/>
<path d="M886.521 484.493C889.761 490.173 893.108 495.787 896.521 501.36C902.241 497.347 907.628 492.893 913.201 488.68C915.908 486.547 919.041 485.56 922.281 484.547C923.108 494.28 919.895 503.093 919.655 512.76C928.935 512.493 937.535 510.453 946.801 512.627C947.308 513.88 947.828 515.133 948.335 516.387C943.668 521.387 938.601 525.84 933.241 530.067C937.215 532.987 941.615 535.067 945.815 537.6C947.961 538.787 948.868 540.747 949.868 542.867C944.401 545.88 938.934 548.827 933.174 551.24C929.561 552.947 925.161 554.547 922.361 557.48C924.655 565.12 929.215 571.227 929.495 579.573C920.468 578.92 913.374 575.267 904.268 577.867C903.441 587.84 903.015 597.973 898.241 606.947C895.015 604.68 891.868 602.493 889.388 599.373C886.468 595.96 883.654 591.267 879.774 588.933C876.014 586.627 873.681 591.413 871.735 593.88C867.135 600.227 865.668 610.067 859.401 614.707C856.215 612.533 856.215 608.973 856.001 605.507C855.748 595.707 857.801 586.08 857.241 576.24C849.868 577.653 843.001 580.44 835.495 581.213C835.921 570.96 843.108 565.72 846.188 556.107C839.694 555 833.188 554.133 826.601 553.827C826.081 552.733 825.575 551.627 825.068 550.533C828.681 547.147 832.268 543.88 836.561 541.347C840.388 538.96 845.214 536.787 848.188 533.373C847.361 526.227 844.348 519.32 842.668 512.32C843.815 511.227 844.948 510.12 846.081 509C852.775 509.92 859.375 511.213 866.121 511.747C868.428 507.573 870.641 503.36 872.361 498.907C874.068 494.693 875.708 489.72 878.721 486.253C880.241 484.053 884.148 484.853 886.521 484.493Z" fill="#080100"/>
<path d="M996.921 487.533C1001.43 486.493 1005.37 490.987 1007.71 494.28C1010.48 497.947 1009.43 501.96 1009.41 506.24C1008.63 506.12 1007.84 506.013 1007.04 505.907C1006.16 501.573 1005.51 496.413 1002.05 493.267C999.801 491.733 996.575 491.387 993.961 490.76C994.841 489.773 995.535 487.787 996.921 487.533Z" fill="black"/>
<path d="M884.015 490.84C888.175 497.067 890.895 504.04 894.788 510.48C888.508 507.8 887.095 501.773 883.135 496.493C878.255 502.96 877.082 512 871.802 517.88C866.748 520.467 859.375 519.027 853.802 519.147C855.148 524.373 857.842 530.213 857.442 535.627C855.882 540.16 849.508 543 845.695 545.413C848.588 547.84 851.442 549.667 852.975 553.24C846.788 550.613 840.882 549.787 834.202 549.493C838.215 545.053 843.268 542.413 848.668 540.027C851.748 538.36 855.908 536.6 854.815 532.307C853.322 525.973 849.135 520.947 848.628 514.213C855.602 515.013 862.335 516.8 869.348 517.173C873.082 511.36 875.402 505.013 877.628 498.52C879.228 495.28 879.495 490.76 884.015 490.84Z" fill="#FEFC68"/>
<path d="M990.521 505.52C991.415 509.707 989.055 512.173 987.148 515.533C986.188 515.44 985.242 515.347 984.295 515.253C984.788 513.547 985.282 511.827 985.708 510.107C987.495 505.76 984.268 500.467 980.495 498.32C978.162 497.813 975.721 497.747 973.348 497.547C973.481 495.973 973.602 494.413 973.788 492.853C981.588 493.067 988.268 498.027 990.521 505.52Z" fill="#121212"/>
<path d="M914.841 493.373C915.388 502.56 913.028 511.067 911.881 520.053C921.281 518.72 929.975 515.8 939.681 516.56C939.935 518.147 939.441 519.347 938.175 520.147C933.455 524.107 928.001 526.147 924.201 531.253C929.815 535.667 935.241 538.227 942.108 540.187C933.868 546.333 924.201 551.347 914.028 553.227L913.521 551.24C919.815 548.213 926.188 545.667 931.935 541.613C928.481 538.28 924.988 534.96 921.508 531.653C923.921 527.747 926.481 523.96 929.055 520.173C924.735 520.973 920.535 522.2 916.268 523.267C913.055 524.587 909.948 521.08 909.601 518.133C909.068 512.707 909.575 507.213 909.268 501.76C905.961 505.253 902.868 508.893 899.908 512.68C898.521 512.147 897.135 511.627 895.788 511.04C898.628 509.2 900.455 507.107 902.281 504.307C905.535 499.347 910.108 496.707 914.841 493.373Z" fill="#FFF554"/>
<path d="M883.135 496.493C887.095 501.773 888.508 507.8 894.788 510.48L895.788 511.04C897.135 511.627 898.522 512.147 899.908 512.68C902.868 508.893 905.961 505.253 909.268 501.76C909.575 507.213 909.068 512.707 909.601 518.133C909.948 521.08 913.055 524.587 916.268 523.267C920.535 522.2 924.735 520.973 929.055 520.173C926.482 523.96 923.921 527.747 921.508 531.653C924.988 534.96 928.481 538.28 931.935 541.613C926.188 545.667 919.815 548.213 913.521 551.24L914.028 553.227L914.508 554.747C913.521 554.52 912.521 554.307 911.535 554.107C913.015 558.56 914.802 562.947 916.482 567.32C911.628 568.453 906.695 569.2 901.815 570.213L900.815 571.533C900.202 572.533 899.615 573.533 899.055 574.547C898.508 573.56 897.935 572.587 897.361 571.613C894.388 577.587 893.842 583.773 892.908 590.28C888.588 586.693 884.801 581.147 878.695 581.04C877.815 581.013 876.922 581.013 876.042 581.027C872.482 581.44 869.468 583.013 866.402 584.76C865.708 581.12 864.908 577.493 864.108 573.88C863.908 572.693 863.682 571.507 863.455 570.32C863.228 569.213 863.001 568.107 862.775 567.013C859.201 567.187 855.642 567.36 852.068 567.573C853.228 563.373 854.268 559.387 853.322 555.013L852.975 553.24C851.442 549.667 848.588 547.84 845.695 545.413C849.508 543 855.881 540.16 857.441 535.627C857.841 530.213 855.148 524.373 853.802 519.147C859.375 519.027 866.748 520.467 871.802 517.88C877.082 512 878.255 502.96 883.135 496.493Z" fill="#FED202"/>
<path d="M842.668 512.32C844.348 519.32 847.361 526.227 848.188 533.373C845.215 536.787 840.388 538.96 836.561 541.347C832.268 543.88 828.681 547.147 825.068 550.533C825.575 551.627 826.081 552.733 826.601 553.827C833.188 554.133 839.695 555 846.188 556.107C843.108 565.72 835.921 570.96 835.495 581.213C843.001 580.44 849.868 577.653 857.241 576.24C857.801 586.08 855.748 595.707 856.001 605.507C856.215 608.973 856.215 612.533 859.401 614.707C865.668 610.067 867.135 600.227 871.735 593.88C873.681 591.413 876.015 586.627 879.775 588.933C883.655 591.267 886.468 595.96 889.388 599.373C891.868 602.493 895.015 604.68 898.241 606.947C903.015 597.973 903.441 587.84 904.268 577.867C913.375 575.267 920.468 578.92 929.495 579.573C928.055 579.973 926.628 580.373 925.215 580.787C926.868 582.2 928.535 583.613 930.188 585.053C920.188 600.373 907.815 614.947 892.881 625.667C885.415 631.16 878.188 638.253 868.641 639.64C865.841 639.813 862.255 640.48 860.415 637.787C855.695 632 853.695 624.027 849.895 617.573C838.321 597.827 827.441 579.373 809.815 564.293C805.335 560.827 800.775 557.52 796.668 553.6C808.655 542.853 820.801 532.413 831.761 520.573C835.228 517.04 837.441 513.253 842.668 512.32Z" fill="#E21E3B"/>
<path d="M514.961 539.8C516.188 539.427 517.441 539.093 518.708 538.813C518.601 540.293 518.495 541.787 518.375 543.267C516.895 543.427 515.401 543.573 513.921 543.72C514.215 542.4 514.561 541.093 514.961 539.8Z" fill="#B3B6CC"/>
<path d="M530.415 541.387C533.242 543.773 535.628 546.573 538.308 549.107C541.255 551.88 544.641 553.333 548.201 555.147C541.695 566.827 533.802 577.48 526.668 588.84C517.508 602.64 509.455 617.213 501.988 632C492.441 627.413 486.642 619.547 481.135 610.827C485.348 607.16 489.055 603.067 492.895 599.013C497.002 594.733 502.282 592.667 506.708 588.867C512.095 584.04 516.721 578.627 518.868 571.573C520.148 572.427 521.375 573.347 522.615 574.253C517.148 582.12 511.508 589.4 503.575 594.973C497.495 599.24 490.428 604.04 487.321 611.08C487.695 617.24 493.935 622.32 498.122 626.253C507.988 617.147 511.308 605.04 519.148 594.587C523.975 588.093 527.335 580.747 532.028 574.187C535.055 569.787 538.855 565.227 540.815 560.253C541.242 559 541.962 556.973 540.935 555.853C538.028 551.64 533.441 548.613 528.948 546.307C524.961 549.213 521.268 552.467 517.215 555.32C508.975 561.267 499.575 565 491.655 571.48C501.108 571.053 509.868 568.427 519.241 567.107C518.321 568.467 517.402 569.827 516.495 571.187C512.148 570.987 508.388 571.48 504.335 573.08C496.642 576 488.655 577.547 480.548 578.84C474.748 579.64 468.895 579.813 463.042 579.573C464.962 578.427 466.842 577.28 468.815 576.227C480.162 573.24 489.788 567.453 500.135 562.16C510.828 556.093 520.922 549.213 530.415 541.387Z" fill="#68D4C9"/>
<path d="M949.868 542.867C950.495 544.533 951.068 546.227 951.628 547.933C946.268 561.707 937.855 572.213 930.188 585.053C928.535 583.613 926.868 582.2 925.215 580.787C926.628 580.373 928.055 579.973 929.495 579.573C929.215 571.227 924.655 565.12 922.361 557.48C925.161 554.547 929.561 552.947 933.175 551.24C938.935 548.827 944.401 545.88 949.868 542.867Z" fill="#DF253E"/>
<path d="M528.948 546.307C533.441 548.613 538.028 551.64 540.935 555.853C541.961 556.973 541.241 559 540.815 560.253C538.855 565.227 535.055 569.787 532.028 574.187C527.335 580.747 523.975 588.093 519.148 594.587C511.308 605.04 507.988 617.147 498.121 626.253C493.935 622.32 487.695 617.24 487.321 611.08C490.428 604.04 497.495 599.24 503.575 594.973C511.508 589.4 517.148 582.12 522.615 574.253C521.375 573.347 520.148 572.427 518.868 571.573L516.495 571.187C517.401 569.827 518.321 568.467 519.241 567.107C509.868 568.427 501.108 571.053 491.655 571.48C499.575 565 508.975 561.267 517.215 555.32C521.268 552.467 524.961 549.213 528.948 546.307Z" fill="#36BEB3"/>
<path d="M497.655 547.987C498.495 549.307 499.321 550.627 500.135 551.96C499.308 552.867 498.468 553.76 497.641 554.667C496.268 554.133 494.895 553.613 493.535 553.08C493.961 552.133 494.415 551.2 494.868 550.267C495.761 549.48 496.695 548.72 497.655 547.987Z" fill="#76768D"/>
<path d="M911.535 554.107C912.522 554.307 913.522 554.52 914.508 554.747C917.415 560.693 920.308 566.44 922.628 572.653C915.295 572.853 908.108 571.627 900.815 571.533L901.815 570.213C906.695 569.2 911.628 568.453 916.482 567.32C914.802 562.947 913.015 558.56 911.535 554.107Z" fill="#FFFA59"/>
<path d="M853.322 555.013C854.268 559.387 853.228 563.373 852.068 567.573C855.642 567.36 859.202 567.187 862.775 567.013C863.002 568.107 863.228 569.213 863.455 570.32C859.428 570.92 855.268 571.32 851.322 572.333C849.335 571.2 847.362 570.08 845.335 569.013C847.868 564.267 850.535 559.613 853.322 555.013Z" fill="#FFEC35"/>
<path d="M476.015 557.653C477.535 558.613 479.055 559.587 480.548 560.56C478.628 562.533 476.655 564.2 474.308 565.68C474.708 562.96 475.295 560.307 476.015 557.653Z" fill="#BBB9CD"/>
<path d="M845.335 569.013C847.361 570.08 849.335 571.2 851.321 572.333C848.468 573.12 845.641 573.987 842.748 574.6C843.535 572.707 844.335 570.813 845.335 569.013Z" fill="#FCFBAA"/>
<path d="M897.361 571.613C897.935 572.587 898.508 573.56 899.055 574.547C898.135 579.947 897.508 585.347 897.415 590.827C897.028 593.333 898.015 595.627 895.228 596.907C889.628 591.733 884.215 586.32 878.695 581.04C884.801 581.147 888.588 586.693 892.908 590.28C893.842 583.773 894.388 577.587 897.361 571.613Z" fill="#FCEC61"/>
<path d="M864.108 573.88C864.908 577.493 865.708 581.12 866.402 584.76C869.468 583.013 872.482 581.44 876.042 581.027C870.468 586.467 866.962 593.013 862.695 599.413C862.108 590.973 862.082 582.147 864.108 573.88Z" fill="#FAEB50"/>
<path d="M468.815 576.227C466.841 577.28 464.961 578.427 463.041 579.573C468.895 579.813 474.748 579.64 480.548 578.84C474.255 579.973 467.881 581.88 461.495 582.24C459.188 582.44 457.388 581.44 455.321 580.573C459.668 578.587 464.161 577.28 468.815 576.227Z" fill="#476A5E"/>
<path d="M739.428 579.387C745.175 583.24 750.028 587.707 755.521 591.88C769.521 602.493 784.188 612.173 799.335 621.067C796.121 630.36 789.828 636.707 783.748 644.213C779.748 640.027 775.948 635.64 772.175 631.253C768.961 627.533 766.308 623.827 762.041 621.227C757.748 618.76 753.988 615.64 749.001 615.173C747.881 615.187 746.761 615.213 745.641 615.267C743.641 628.227 751.428 638.947 745.535 651.493C744.695 646.187 743.788 640.987 741.908 635.933C741.068 637.48 740.241 639.04 739.401 640.587C735.921 624.16 730.921 608.213 722.628 593.547C729.428 589.747 734.375 585.227 739.428 579.387Z" fill="#3BBFB5"/>
<path d="M820.562 605.493C826.042 611.16 826.388 620.32 824.055 627.427C822.335 630.88 820.055 636.04 815.548 635.893C816.628 629.84 821.295 625.707 821.175 618.92C820.722 614.827 818.828 610.627 815.775 607.827C813.282 606.72 810.362 606.48 807.722 605.8L806.602 604.213C810.508 599.8 816.815 602.253 820.562 605.493Z" fill="black"/>
<path d="M538.108 606.8C543.721 607.4 547.575 613.44 547.655 618.733C547.161 624.467 544.081 630.293 539.201 633.467C536.548 635.08 532.388 634.227 529.481 633.893C533.868 629.827 541.108 627.533 542.495 621.373C543.708 615.293 539.855 612.147 538.108 606.8Z" fill="black"/>
<path d="M721.481 607.253C721.895 609.107 722.375 610.987 722.615 612.853C721.255 613.667 719.761 614.333 718.308 615.013C717.855 612.667 717.441 610.333 717.281 607.947C718.681 607.693 720.081 607.467 721.481 607.253Z" fill="#C1C0DE"/>
<path d="M561.108 614.453C564.028 616.28 565.522 618.147 566.322 621.547C567.655 630.68 562.082 640.44 552.895 642.853C555.362 638.347 559.255 634.6 560.988 629.88C562.202 625.053 560.668 619.467 561.108 614.453Z" fill="black"/>
<path d="M745.641 615.267C746.761 615.213 747.881 615.187 749.001 615.173C748.628 621.573 750.548 627.24 751.801 633.373C753.361 647.84 751.401 663.84 744.335 676.72C742.708 668.32 743.108 659.773 741.415 651.413C740.775 647.8 740.121 644.187 739.401 640.587C740.241 639.04 741.068 637.48 741.908 635.933C743.788 640.987 744.695 646.187 745.535 651.493C751.428 638.947 743.641 628.227 745.641 615.267Z" fill="#5ACEC6"/>
<path d="M724.588 627.973C727.042 628.76 728.375 629.453 729.442 631.92C728.242 633.52 726.988 635.093 725.668 636.613C724.135 633.373 723.175 631.48 724.588 627.973Z" fill="#727084"/>
<path d="M757.175 626.28C764.548 630.813 771.748 637.867 775.375 645.813C769.735 645.947 764.095 645.947 758.468 645.84C758.868 639.2 757.668 632.867 757.175 626.28Z" fill="white"/>
<path d="M713.161 644.213C713.228 645.72 713.295 647.213 713.348 648.707C704.055 651.427 694.335 653.08 684.628 652.88C672.095 652.813 659.495 653.04 646.961 652.373C637.308 651.12 627.641 651.72 617.961 650.827C613.241 650.333 608.535 650.373 603.801 650.187C603.881 648.733 603.975 647.28 604.068 645.827C611.468 646 618.895 646.133 626.281 646.52C639.041 648.013 651.815 647.093 664.575 648.373C677.321 648.507 689.268 648.987 701.881 646.853C705.655 646.013 709.348 644.893 713.161 644.213Z" fill="black"/>
<path d="M729.441 651.293C731.148 651.147 732.841 651.147 734.561 651.12C734.495 652.96 734.428 654.787 734.361 656.613C732.681 656.667 731.001 656.707 729.308 656.76C729.321 654.933 729.308 653.107 729.441 651.293Z" fill="#BCC0D3"/>
<path d="M852.215 652.693C852.202 654.133 852.188 655.56 852.162 657C844.268 658.173 836.522 657.707 828.575 657.893C818.215 658.107 807.842 658.347 797.468 658.2C797.362 656.747 797.242 655.28 797.122 653.827C803.655 653.867 810.122 653.96 816.628 653.24C828.482 652.987 840.348 653.133 852.215 652.693Z" fill="black"/>
<path d="M508.575 655.44C540.548 656.627 572.655 657.4 604.641 656.853C605.361 658.133 606.095 659.4 606.828 660.667C603.908 661.427 601.068 662.12 598.028 662.013C586.001 661.813 573.975 661.96 561.948 661.72C547.201 660.373 532.268 661.347 517.495 660.253C509.615 659.12 501.735 659.493 493.815 658.947C492.975 657.827 492.148 656.707 491.321 655.56C496.548 652.373 502.775 655.427 508.575 655.44Z" fill="black"/>
<path d="M627.308 658C646.641 657.987 665.988 658.093 685.335 658.027C685.415 659.44 685.495 660.84 685.575 662.24C663.028 662.48 640.455 662.173 617.895 662.36C615.175 662.56 614.401 661 612.881 659.173C617.721 657.267 622.188 658.12 627.308 658Z" fill="black"/>
<path d="M785.895 667.4C797.055 667.627 808.055 665.853 819.228 666.093C819.055 667.813 818.868 669.533 818.695 671.253C810.455 671.147 802.175 671.36 793.961 671.827C788.335 672.427 782.748 672.84 777.095 672.4C777.108 670.76 777.161 669.133 777.255 667.507C780.135 667.36 783.015 667.373 785.895 667.4Z" fill="#020202"/>
<path d="M585.975 667.96C602.095 666.907 617.548 668.72 633.562 668.733C633.122 670.373 632.655 672.013 632.188 673.64C611.695 672.52 590.455 671.787 570.028 673.92C550.868 674.893 530.722 676.44 511.428 675.573C511.562 674.173 511.695 672.76 511.828 671.36C522.722 671.8 533.802 671.96 544.628 670.507C551.748 669.8 559.055 670.44 566.095 669.413C572.695 668.48 579.362 668.933 585.975 667.96Z" fill="#070707"/>
<path d="M632.628 673.853C642.415 674.467 652.188 674.053 661.935 675.133C675.295 675.147 688.628 675.667 701.988 675.733C705.015 675.467 706.668 677.347 709.028 678.867C707.575 679.52 706.108 680.12 704.628 680.667C697.388 681.013 690.015 680.787 682.775 680.427C670.775 678.8 658.121 679.827 645.948 679.027C629.988 677.2 613.895 678.467 598.308 682.32C598.335 680.84 598.441 679.373 598.601 677.907C609.615 673.72 621.015 673.253 632.628 673.853Z" fill="black"/>
<path d="M802.548 677.773C807.015 676.573 812.028 677.173 816.628 677C822.615 677.267 827.735 675.587 833.215 678.787C830.802 680.187 828.935 681.88 825.988 681.827C818.268 682 810.522 682.24 802.802 682.213C802.628 680.733 802.548 679.253 802.548 677.773Z" fill="black"/>
<path d="M548.721 679.267C560.561 679.2 572.415 679.093 584.241 679.2C584.281 680.627 584.295 682.053 584.321 683.48C573.721 683.52 563.108 683.493 552.495 683.547C549.721 683.587 547.255 683.28 544.615 682.453C545.935 680.773 546.175 679.027 548.721 679.267Z" fill="black"/>
<path d="M637.428 684.627C637.428 686.44 637.402 688.253 637.362 690.053C632.228 690.507 627.095 690.28 621.948 690.52C610.722 691.747 599.295 691.12 587.988 691.347C587.855 689.627 587.735 687.907 587.602 686.187C599.975 686.68 612.322 685.707 624.695 685.973C629.055 686.187 633.175 685.493 637.428 684.627Z" fill="black"/>
<path d="M625.961 696.92C642.415 696.587 660.281 699.36 676.575 696.867C677.601 698.173 678.628 699.48 679.641 700.787C677.761 701.56 676.028 702.373 673.935 702.28C652.615 702.28 631.281 701.827 609.948 702C609.015 700.693 608.081 699.387 607.148 698.093C613.135 695.88 619.401 697.107 625.961 696.92Z" fill="black"/>
<path d="M725.961 697.707C734.508 698.293 743.188 697.347 751.961 698.573C758.281 699.64 764.868 699.493 771.308 699.813C775.481 700.04 779.081 698.64 783.121 697.867C782.535 701.747 781.615 703.4 777.815 704.573C769.681 705.653 760.521 703.96 752.375 703.107C744.188 701.733 735.841 702.4 727.295 702.187C717.255 701.987 707.215 702.067 697.175 701.787C697.175 700.2 697.175 698.613 697.188 697.027C706.761 696.867 716.415 696.773 725.961 697.707Z" fill="#010101"/>
</g>
<defs>
<clipPath id="clip0_2_914">
<rect width="1330" height="730" fill="white"/>
</clipPath>
</defs>
</svg>
