<svg width="1330" height="730" viewBox="0 0 1330 730" fill="none" xmlns="http://www.w3.org/2000/svg">
<g clip-path="url(#clip0_2_640)">
<path d="M0 0H1330V730H0V0Z" fill="#FEFEFE"/>
<path d="M682.579 46.0512C695.978 45.502 709.645 49.3978 721.026 56.436C730.377 63.589 738.245 72.5176 742.626 83.5666C747.787 93.5426 748.604 104.617 749.818 115.64C755.119 117.429 760.177 119.294 764.762 122.602C767.7 124.722 770.204 127.788 772.669 130.458C777.855 128.963 783.233 127.341 788.572 126.523C795.585 125.335 802.891 128.708 808.754 132.259C815.562 136.755 817.363 143.576 819.305 151.023C821.974 150.576 824.133 149.503 826.419 148.098C833.113 143.64 843.191 141.979 850.957 143.576C858.685 146.475 863.884 154.472 864.382 162.621C864.229 165.61 862.875 168.548 862.287 171.486C863.449 173.913 865.506 173.057 867.741 173.402C874.09 173.734 879.787 173.184 885.931 175.343C891.513 177.387 896.622 181.551 900.096 186.354C903.149 191.169 904.426 199.51 900.249 204.019C897.963 206.97 895.753 209.933 893.914 213.165C897.848 214.634 901.987 215.337 905.972 216.639C911.247 218.785 915.922 222.835 918.962 227.637C922.258 234.279 925.835 242.007 925.822 249.531C925.541 256.876 920.968 262.253 916.561 267.656C915.846 268.512 914.479 270.76 915.82 271.565C922.756 277.939 932.157 281.158 936.398 290.533C940.141 300.152 942.836 309.987 939.591 320.193C935.312 338.497 916.318 354.426 897.082 352.241C891.398 351.667 886.084 348.333 880.515 346.889C882.648 353.391 885.56 359.637 888.064 365.998C890.836 373.356 892.241 381.505 894.272 389.169C897.337 400.64 897.669 413.094 894.655 424.603C891.781 439.573 887.412 455.093 879.723 468.351C871.024 484.484 862.044 499.902 848.786 512.752C837.941 523.29 825.896 532.691 813.442 541.262C803.798 547.15 794.933 553.09 784.229 556.986C776.348 559.796 769.016 563.909 761.263 566.974C754.646 568.98 748.157 571.33 741.426 572.825C739.765 573.285 738.156 573.54 736.763 574.613C734.515 578.356 734.247 582.507 735.626 586.633C752.449 582.737 768.313 579.633 785.302 584.947C792.992 588.153 799.991 591.372 804.935 598.41C809.086 605.077 813.059 611.681 812.445 619.856C812.611 628.069 806.697 634.852 802.265 641.252C798.075 647.344 791.446 650.282 785.621 654.702C787.537 655.43 789.262 656.311 791.357 656.337C801.064 656.72 810.823 656.299 820.518 656.822C830.469 658.164 840.636 656.758 850.536 658.074C855.811 659.326 861.074 658.176 866.375 659.249C862.108 660.999 857.114 660.105 852.452 660.22C844.315 659.837 836.293 660.437 828.195 659.249C816.712 658.994 805.203 659.032 793.707 658.93C787.55 658.853 780.64 657.793 774.598 659.096C769.041 661.165 763.715 663.452 757.75 664.141C749.703 665.738 741.719 665.266 733.595 664.882C721.729 663.72 710.552 659.556 700.436 653.297C696.106 656.771 691.469 659.811 687.343 663.516C690.971 664.946 693.985 665.547 697.881 665.355C714.372 664.691 730.99 668.906 747.34 669.302C747.365 670.222 747.391 671.128 747.403 672.035C736.176 671.077 724.961 669.647 713.746 668.472C707.142 667.399 700.653 667.961 694.024 667.846C690.294 667.795 687.254 666.364 683.715 665.508C679.794 666.505 676.281 668.804 672.385 669.953C662.997 672.827 653.966 675.574 644.029 674.232C631.46 672.853 618.865 672.7 606.334 671.001C594.327 669.11 582.218 668.931 570.211 666.977C553.274 665.636 536.03 667.386 519.092 665.444C508.593 665.368 498.246 664.014 487.772 663.771C487.683 662.839 487.606 661.906 487.517 660.986C497.595 662.059 507.635 662.532 517.764 662.877C534.152 664.755 550.055 663.528 566.43 664.18C576.253 664.933 586.983 667.079 596.895 666.556C593.025 663.503 588.35 662.2 584.288 659.415C580.187 656.746 576.981 653.859 571.744 653.948C562.624 654.178 553.759 652.518 544.677 652.326C536.579 651.994 528.685 650.41 520.651 649.618C520.74 648.66 520.83 647.702 520.919 646.757C530.065 648.354 539.108 649.771 548.433 649.976C556.889 650.819 565.268 651.572 573.775 651.215C570.595 643.819 565 638.518 565.639 630.139C564.974 622.781 568.065 617.046 571.054 610.621C574.082 604.873 580.928 601.258 585.846 597.222C591.479 592.534 599.552 591.103 606.539 589.634C612.836 588.178 618.661 588.74 625.137 588.472C630.68 588.306 635.726 589.864 641.155 590.465C640.874 586.914 642.547 580.425 638.485 578.611C623.451 577.704 607.586 578.241 592.897 574.613C580.481 572.518 568.142 568.047 556.467 563.385C538.521 556.539 523.41 546.371 507.928 535.245C495.781 526.074 485.613 514.936 476.365 502.929C472.457 497.934 469.902 492.301 467.22 486.604C461.51 475.773 457.627 463.753 453.003 452.334C449.056 440.582 445.978 428.524 443.321 416.415C442.414 405.11 442.861 393.602 442.823 382.259C442.682 376.536 444.509 371.376 445.096 365.743C445.531 361.54 446.374 357.402 446.885 353.212C441.009 353.991 435.567 355.499 429.564 354.847C423.471 354.605 417.723 350.185 413.546 346.059C408.424 341.052 404.95 334.563 404.618 327.321C404.132 321.049 406.789 314.777 408.641 308.85C404.451 307.356 399.061 306.832 395.727 303.882C392.444 301.225 389.519 297.367 389.366 292.999C389.072 287.596 388.536 281.745 389.813 276.444C392.227 267.963 399.559 260.835 406.099 255.279C411.055 250.949 416.867 249.569 422.973 247.717C422.654 242.71 422.091 237.767 422.258 232.747C422.002 227.063 426.166 221.634 429.794 217.623C433.549 213.267 439.259 211.607 444.381 209.282C449.197 207.123 454.255 206.268 459.402 205.284C461.906 195.359 468.369 187.312 476.634 181.5C483.416 176.71 493.52 176.735 501.555 175.969C502.819 171.69 503.841 166.606 506.881 163.196C510.138 159.606 514.341 156.771 518.556 154.446C525.747 149.95 535.825 150.844 543.553 153.309C546.708 147.791 550.681 140.766 556.34 137.521C562.126 135.35 568.985 134.992 575.104 135.478C577.275 130.534 579.28 125.885 583.687 122.474C590.227 117.288 599.973 115.755 607.637 113.329C610.32 100.083 612.185 87.6796 620.985 76.7584C627.206 69.7075 634.168 62.9887 642.726 58.8629C655.039 51.9014 668.464 47.3413 682.579 46.0512Z" fill="#020000"/>
<path d="M695.186 52.9871C704.766 54.9286 714.244 58.0581 721.41 65.0068C730.696 73.3351 736.457 84.3074 739.893 96.1611C740.8 99.5843 741.528 103.365 740.672 106.865C736.904 108.947 732.127 109.701 727.95 110.646C713.286 114.159 697.575 114.223 682.579 115.602C674.391 116.317 666.408 115.206 658.258 114.963C643.991 115.372 629.033 112.345 616.528 105.281C617.754 95.0881 621.484 86.5938 628.164 78.8404C637.004 68.264 649.649 62.0179 662.09 56.7169C672.36 53.1021 684.38 50.6751 695.186 52.9871Z" fill="#DB7D50"/>
<path d="M702.914 58.0198C711.906 60.3701 719.379 66.9612 725.152 73.9865C732.101 83.1834 737.67 92.8656 737.517 104.77C724.922 108.526 712.328 110.557 699.197 111.08C682.029 112.013 665.258 112.741 648.078 111.31C640.426 110.493 632.43 109.152 625.354 106.022C622.659 104.694 621.075 103.327 621.356 100.07C622.033 91.1284 628.33 82.4042 634.64 76.3624C643.505 68.5579 654.375 62.5927 665.526 58.7862C677.61 54.7754 690.651 54.7626 702.914 58.0198Z" fill="#F36A2B"/>
<path d="M614.446 112.728C623.835 115.858 632.674 119.319 642.611 120.801C647.9 121.555 652.996 121.018 658.323 121.529C666.319 122.589 674.481 122.104 682.566 122.372C691.201 122.653 699.542 120.89 708.139 120.609C720.082 120.201 730.901 115.883 742.895 115.832C743.278 121.733 743.329 127.635 743.125 133.536C737.288 137.547 730.722 139.182 723.85 140.357C714.219 143.014 704.434 143.755 694.522 144.457C685.377 146.041 676.474 145.594 667.251 145.581C658.438 145.773 649.292 143.537 640.491 142.196C632.188 139.987 624.256 138.275 616.694 134.021C615.494 133.153 612.952 132.322 612.939 130.624C612.275 124.748 613.348 118.514 614.446 112.728Z" fill="#FEFEFE"/>
<path d="M605.606 120.124C605.543 124.326 604.917 128.618 605.262 132.808C605.325 134.366 606.679 135.529 607.752 136.512C613.322 140.906 619.887 143.64 626.734 145.364C638.485 148.353 649.93 151.738 662.141 151.712C672.743 151.636 683.652 152.543 694.088 151.125C701.522 150.269 708.905 150.639 716.275 149.004C727.375 146.629 739.293 144.649 749.677 139.948C749.907 135.184 749.256 129.985 750.482 125.348C751.146 124.646 751.938 124.045 752.845 123.56C758.568 125.259 763.907 128.925 766.078 134.673C766.921 138.249 764.482 142.541 762.399 145.364C757.022 152.045 748.694 156.694 740.71 159.555C730.913 163.707 720.592 166.312 709.99 167.219C697.932 168.394 685.747 170.706 673.637 170.643C662.078 169.595 650.569 169.748 639.111 167.654C627.526 165.699 616.068 162.008 604.827 158.623C596.014 156.004 587.737 149.937 583.24 141.851C580.622 137.47 583.598 132.501 586.434 129.091C591.428 123.304 598.185 121.005 605.606 120.124Z" fill="#F06C31"/>
<path d="M792.455 130.969C798.855 130.713 805.292 134.583 809.456 139.22C813.927 144.483 813.288 150.473 813.506 156.924C814.617 157.895 815.741 158.866 816.852 159.836C821.412 156.898 825.87 153.731 830.584 151.048C834.901 148.506 839.972 148.174 844.877 148.136C850.906 148.328 856.833 151.891 858.046 158.176C859.72 166.146 855.3 171.396 852.643 178.447C858.046 181.232 862.07 178.013 867.767 178.396C875.035 178.575 883.657 178.077 889.597 182.969C893.914 186.303 897.669 189.688 896.877 195.691C896.418 205.501 889.482 209.167 883.81 215.771C891.334 219.909 900.186 218.415 907.16 222.822C918.017 230.703 924.404 247.653 916.331 259.583C913.547 264.578 909.229 266.915 905.04 270.556C906.406 272.293 907.594 274.235 909.434 275.474C916.561 279.931 925.324 284.76 930.305 291.696C935.453 299.513 935.466 308.224 934.699 317.23C932.566 327.525 926.179 336.85 917.442 342.661C909.6 347.618 899.036 349.125 890.286 345.855C885.662 344.322 882.558 341.09 878.56 338.6C876.721 337.322 875.648 339.123 874 339.902C869.466 343.096 864.305 344.616 858.902 345.599C853.959 346.545 848.964 344.922 844.481 342.93C840.164 340.911 835.655 337.846 833.917 333.196C832.001 328.113 831.248 322.531 830.43 317.179C829.677 311.086 832.678 305.516 832.857 299.845C830.392 295.873 824.503 297.955 820.454 297.239C813.761 296.92 809.137 294.353 805.637 288.656C802.188 283.981 803.044 277.875 803.53 272.446C805.024 266.864 809.29 262.649 810.708 256.927C805.842 254.934 799.417 253.835 795.482 250.246C791.893 247.308 792.608 241.203 793.068 237.102C794.001 230.46 800.209 227.778 799.519 220.893C791.497 220.65 782.211 220.369 774.726 217.189C769.054 214.775 764.354 207.673 767.151 201.529C768.888 195.219 773.474 192.102 776.808 186.839C774.215 182.113 767.458 181.577 764.954 176.122C761.85 169.582 759.87 161.126 761.786 154.037C763.996 150.703 767.126 148.059 769.259 144.636C771.213 141.673 772.248 138.147 774.279 135.248C779.631 132.616 786.49 130.943 792.455 130.969Z" fill="#FBEC6B"/>
<path d="M805.19 139.642C811.002 145.109 808.92 152.211 811.692 158.853C813.468 160.973 816.725 162.468 819.433 161.292C825.513 158.929 830.469 153.488 837.124 152.236C841.428 151.508 846.27 151.572 850.37 153.232C852.873 154.293 854.33 156.528 854.649 159.185C855.377 165.546 850.97 172.52 850.804 178.6C851.852 180.848 853.895 182.79 856.514 182.828C862.249 182.892 867.895 181.487 873.694 181.998C878.803 182.432 884.449 183.518 888.83 186.315C893.046 189.075 894.732 194.478 893.084 199.204C891.066 204.76 885.075 208.797 882.686 213.983C882.661 216.55 884.283 219.22 886.672 220.216C893.199 222.911 901.144 222.311 906.841 226.986C914.479 233.347 919.193 245.06 915.131 254.64C912.602 261.129 906.93 264.207 903.405 269.623C901.847 271.68 903.929 274.209 905.295 275.742C910.877 281.234 918.937 284.096 924.558 289.805C929.488 294.697 931.404 301.48 931.838 308.25C932.477 321.662 924.698 337.169 911.452 341.78C903.877 344.692 895.766 345.523 888.524 341.116C884.283 339.187 879.238 334.218 874.409 336.645C868.15 338.829 862.926 342.163 856.028 342.291C849.54 342.38 841.901 339.545 838.363 333.822C833.688 326.082 832.858 317.14 834.633 308.39C835.029 304.367 836.907 298.798 832.73 296.09C826.892 293.126 818.781 294.8 812.906 291.619C808.371 288.949 806.174 284.032 806.251 278.871C806.2 271.424 810.734 264.565 814.208 258.242C811.232 255.023 808.128 252.418 804.015 250.808C800.63 248.982 796.032 248.126 795.649 243.566C794.652 236.847 800.886 230.217 802.189 223.856C802.585 221.608 801.307 219.411 799.11 218.709C792.366 216.499 783.68 217.674 776.578 214.212C773.014 212.463 769.655 209.244 769.872 204.965C770.37 197.875 778.596 192.485 779.554 185.907C776.553 181.129 770.536 178.243 767.547 173.542C765.401 169.761 764.673 165.061 764.635 160.756C764.507 155.276 768.224 150.818 771.035 146.437C773.768 142.618 776.54 137.585 781.202 135.976C789.479 133.165 798.753 132.821 805.19 139.642Z" fill="#FFDE25"/>
<path d="M564.936 141.251C568.078 141.225 572.063 140.612 574.988 141.851C577.581 145.057 579.434 148.749 582.205 151.84C586.459 156.898 591.875 160.347 597.763 163.183C606.002 167.066 615.557 167.922 623.783 171.652C626.044 172.635 625.328 175.892 625.009 177.796C623.795 186.239 618.635 194.082 612.338 199.664C608.123 203.381 602.885 202.41 597.687 202.857C599.105 206.663 602.042 210.891 601.468 214.992C601.276 221.033 595.541 226.028 591.211 229.604C584.824 234.522 578.246 233.36 570.773 233.181C571.667 235.799 572.651 238.392 573.558 241.011C576.061 246.389 573.328 253.018 571.003 258.038C566.788 264.872 560.695 271.654 553.363 275.167C549.684 275.946 545.75 275.55 542.008 276.061C544 280.557 546.568 284.108 547.513 289C548.688 294.876 546.785 301.084 543.873 306.181C540.053 312.082 534.19 314.815 527.816 317.166C523.18 318.814 518.16 317.6 513.344 317.881C512.003 320.27 513.344 323.348 513.344 326.043C513.523 331.804 512.782 339.225 508.235 343.338C503.611 348.167 496.087 349.661 489.662 349.789C482.318 349.431 474.999 346.046 469.506 341.192C467.296 339.596 464.678 336.441 461.765 336.607C459.275 336.313 458.253 338.906 456.707 340.413C452.236 346.263 445.85 350.338 438.428 351.041C432.859 351.462 427.507 351.692 422.589 348.614C414.696 343.696 410.365 333.873 410.059 324.817C410.289 316.604 414.67 311.213 417.225 303.894C412.894 303.562 408.513 303.958 404.221 303.434C398.959 302.08 394.91 297.188 394.731 291.708C394.411 285.398 393.683 279.714 396.749 273.915C399.955 267.912 403.928 261.423 409.51 257.374C416.382 252.43 423.714 252.775 431.774 252.379C430.407 246.759 428.427 241.266 427.903 235.467C428.069 230.703 429.615 225.568 432.732 221.902C437.534 215.618 445.977 212.079 453.488 210.419C458.853 209.193 462.021 213.535 467.296 210.559C467.309 207.072 466.747 202.857 468.063 199.561C470.911 191.859 477.528 185.255 485.256 182.458C492.575 180.005 500.175 180.9 507.583 182.113C510.777 178.677 508.043 172.635 511.058 168.663C515.107 162.953 521.123 157.639 528.021 155.864C534.867 154.548 540.181 157.218 546.363 159.428C546.976 160.526 547.577 161.625 548.164 162.723C542.953 161.241 537.039 159.159 531.585 159.415C525.722 159.645 520.012 163.068 516.167 167.36C512.297 171.754 512.897 179.252 509.206 183.493C505.195 185.626 499.179 183.991 494.759 184.297C484.387 184.093 472.878 191.872 471.23 202.55C470.157 206.025 469.825 211.428 466.939 213.919C459.926 215.298 453.092 212.756 446.041 215.975C439.897 218.721 433.128 224.125 431.671 231.035C430.522 237.409 433.255 244.83 435.043 250.91C432.655 252.852 430.394 255.304 427.252 255.892C421.325 257.22 415.334 256.646 410.493 260.925C405.141 265.791 400.389 272.267 398.282 279.242C396.889 284.913 396.966 292.743 400.747 297.546C405.23 301.595 416.164 298.312 419.588 304.661C418.464 312.452 412.703 318.558 413.546 326.912C414.338 335.061 419.473 344.628 427.788 347.107C434.788 349.035 443.653 348.141 449.299 343.211C453.054 340.247 456.337 335.738 460.616 333.643C462.085 332.736 464.243 334.103 465.585 334.78C470.145 337.475 473.785 341.103 478.665 343.453C485.945 347.03 494.887 347.234 502.219 343.683C505.016 342.278 507.353 340.145 508.363 337.105C510.189 331.549 508.874 324.587 509.895 319.069C510.445 316.182 513.012 315.761 515.465 315.224C522.822 313.921 529.4 314.138 535.787 309.604C541.573 305.797 544.141 299.104 543.975 292.347C543.706 287.404 540.973 282.358 540.296 277.556C539.977 275.703 541.062 273.953 542.812 273.328C548.152 271.36 553.529 271.999 558.14 268.154C562.739 264.322 567.12 259.456 569.394 253.848C572.012 247.321 568.742 239.887 569.202 233.155C569.253 231.418 570.658 230.613 572.191 230.294C576.917 229.247 582.601 229.796 587.2 228.148C591.185 226.564 594.493 223.128 596.333 219.296C598.964 213.816 594.787 206.255 596.946 201.043C602.464 197.837 609.489 199.229 614.037 193.711C618.124 189.062 622.365 180.989 620.64 174.743C616.374 171.677 610.077 171.115 605.095 169.608C595.03 167.066 586.255 161.075 579.676 153.117C577.147 150.269 574.516 146.539 571.105 144.751C567.989 143.486 564.029 144.304 561.244 146.041C555.726 149.694 555.151 156.758 549.263 160.104C550.553 155.391 551.409 151.035 554.947 147.408C557.489 144.776 561.04 141.136 564.936 141.251Z" fill="#FAEB6A"/>
<path d="M571.106 144.751C574.516 146.539 577.147 150.269 579.677 153.118C586.255 161.075 595.03 167.066 605.096 169.608C610.077 171.115 616.374 171.677 620.641 174.743C622.365 180.989 618.124 189.062 614.037 193.711C609.49 199.229 602.464 197.837 596.946 201.043C594.787 206.255 598.964 213.817 596.333 219.296C594.494 223.128 591.185 226.564 587.2 228.148C582.602 229.796 576.918 229.247 572.191 230.294C570.659 230.614 569.253 231.418 569.202 233.155C568.743 239.887 572.013 247.321 569.394 253.848C567.12 259.456 562.739 264.322 558.141 268.154C553.529 271.999 548.152 271.361 542.813 273.328C541.063 273.954 539.977 275.704 540.296 277.556C540.973 282.358 543.707 287.404 543.975 292.347C544.141 299.104 541.574 305.798 535.787 309.604C529.401 314.139 522.822 313.921 515.465 315.224C513.012 315.761 510.445 316.182 509.896 319.069C508.874 324.587 510.189 331.549 508.363 337.105C507.354 340.145 505.016 342.278 502.219 343.683C494.887 347.234 485.946 347.03 478.665 343.453C473.785 341.103 470.145 337.475 465.585 334.78C464.244 334.103 462.085 332.737 460.616 333.643C456.337 335.738 453.054 340.247 449.299 343.211C443.653 348.141 434.788 349.035 427.789 347.107C419.473 344.629 414.338 335.061 413.546 326.912C412.703 318.558 418.464 312.452 419.588 304.661C416.165 298.312 405.231 301.595 400.747 297.546C396.966 292.743 396.89 284.913 398.282 279.242C400.39 272.267 405.141 265.791 410.493 260.925C415.335 256.646 421.325 257.22 427.252 255.892C430.394 255.304 432.655 252.852 435.044 250.91C433.256 244.83 430.522 237.409 431.672 231.035C433.128 224.125 439.898 218.722 446.042 215.975C453.093 212.756 459.926 215.298 466.939 213.919C469.826 211.428 470.158 206.025 471.231 202.55C472.879 191.872 484.387 184.093 494.759 184.297C499.179 183.991 505.195 185.626 509.206 183.493C512.897 179.252 512.297 171.754 516.167 167.36C520.012 163.068 525.722 159.645 531.585 159.415C537.039 159.159 542.953 161.241 548.165 162.723C547.577 161.625 546.977 160.526 546.364 159.428C547.322 159.683 548.292 159.9 549.263 160.105C555.152 156.758 555.727 149.694 561.245 146.041C564.029 144.304 567.989 143.486 571.106 144.751Z" fill="#FFDE25"/>
<path d="M690.702 152.785C680.637 154.612 670.546 154.152 660.442 152.913C670.521 151.597 680.599 151.636 690.702 152.785Z" fill="#B8613A"/>
<path d="M754.442 160.079C756.255 166.823 757.316 174.666 762.246 179.98C763.996 182.19 766.755 184.4 767.649 187.107C766.921 192.089 761.774 196.087 760.969 201.171C760.586 204.658 760.394 208.567 762.578 211.53C765.273 215.452 768.633 219.743 773.321 221.263C778.826 223.128 784.663 223.959 790.245 225.619C788.751 230.499 786.439 235.442 785.685 240.475C785.762 243.796 787.627 247.244 789.262 250.08C792.251 255.036 797.424 257.131 802.24 259.877C799.787 266.315 795.546 273.647 797.054 280.723C798.522 286.982 802.827 292.705 807.643 296.869C812.42 300.918 819.037 301.135 824.772 302.949C825.679 308.697 824.044 314.573 825.232 320.398C826.534 327.397 828.131 336.032 833.905 340.809C838.35 344.539 843.574 347.847 849.194 349.431C856.986 351.092 863.935 348.09 871.458 347.656C873.54 348.052 875.035 350.645 876.133 352.28C883.35 364.823 886.901 378.223 889.609 392.324C890.861 401.547 891.053 411.229 889.035 420.362C887.259 429.699 885.867 438.845 882.124 447.671C874.626 468.62 863.386 488.354 849.118 505.445C840.317 515.779 829.677 523.226 819.024 531.528C812.688 536.433 805.931 540.649 799.085 544.8C790.437 550.037 780.32 553.218 771.073 557.701C762.847 561.827 753.918 564.918 745.002 567.153C740.072 568.443 733.378 567.741 729.278 570.807C727.911 578.764 728.128 586.85 726.276 594.808C728.486 594.897 730.875 595.191 733.059 594.757C737.696 593.3 741.617 590.375 746.612 589.417C750.891 588.651 755.246 588.498 759.538 587.821C765.465 586.901 770.881 588.306 777.102 588.919C787.691 590.018 798.893 596.162 803.708 605.946C807.311 614.734 806.544 625.668 801.077 633.562C795.38 643.18 785.839 650.129 775.505 654.089C767.177 657.257 759.449 660.348 750.354 660.361C740.25 660.361 730.606 661.331 721.167 658.01C715.163 656.375 710.297 652.939 705.583 649.018C706.158 643.487 707.627 638.148 707.678 632.668C707.998 625.821 704.306 618.592 701.432 612.537C698.137 605.576 692.619 598.614 691.035 591.154C690.102 587.322 690.984 583.797 691.942 580.08C692.593 580.514 693.244 580.961 693.883 581.396C694.356 587.412 694.828 593.083 697.524 598.601C701.969 607.658 708.662 617.57 710.655 627.597C712.098 634.38 709.249 640.664 709.53 647.153C710.936 650.806 716.505 652.863 719.954 654.025C732.101 657.64 745.871 659.147 758.286 655.979C764.801 654.357 771.277 652.224 777.446 649.593C787.269 645.467 795.661 637.522 800.49 628.057C804.884 618.528 802.278 604.49 792.877 598.767C786.784 594.412 779.643 592.227 772.248 591.436C761.607 590.171 750.788 591.499 740.723 595.114C736.955 596.34 732.804 598.18 728.818 598.18C725.484 597.056 723.875 594.028 723.977 590.631C724.067 584.397 725.101 576.695 726.685 570.666C727.337 567.703 729.815 567.064 732.318 566.131C739.497 563.947 747.059 563.257 754.276 561.163C763.396 558.723 770.523 554.086 779.299 550.433C790.667 545.669 801.55 540.368 811.232 532.627C819.164 526.24 827.786 521.399 835.271 514.514C850.842 500.119 863.335 482.581 872.02 463.242C875.84 454.186 879.978 445.806 882.099 436.137C883.606 429.214 885.535 422.367 886.71 415.38C888.319 406.145 887.144 396.795 885.381 387.675C883.095 376.485 880.323 365.411 873.86 355.805C872.493 354.055 871.305 351.961 868.827 351.897C859.886 351.398 852.158 354.043 843.293 350.377C836.357 347.26 828.936 341.831 826.049 334.538C822.051 325.277 821.642 316.016 821.348 306.091C815.358 304.354 809.15 303.243 804.603 298.632C800.004 293.957 796.019 287.123 794.333 280.787C792.545 274.362 797.309 267.644 796.696 261.781C792.468 256.237 785.685 252.992 783.488 245.648C782.198 240.13 784.076 233.654 784.829 228.123C777.983 225.887 769.54 224.137 764.443 218.722C760.956 215.056 757.686 209.921 757.443 204.748C757.737 199.076 761.288 193.328 763.6 188.219C758.593 180.67 754.889 172.444 750.239 164.703C741.745 167.513 733.71 171.256 724.897 173.159C711.868 176.02 698.482 178.728 685.146 179.405C668.528 179.188 651.961 179.035 635.47 176.646C632.673 184.821 630.463 192.485 624.664 199.166C620.896 203.981 615.672 207.226 611.699 211.773C608.493 216.295 608.327 223.818 604.035 228.391C598.658 234.267 590.636 238.456 583.802 242.429C582.525 249.007 581.58 255.151 577.85 260.886C574.644 265.779 571.387 270.709 567.695 275.244C564.4 279.306 559.967 280.481 556.033 283.61C555.356 288.822 557.144 294.404 555.765 299.896C553.938 307.509 548.19 313.832 542.174 318.533C536.375 323.003 529.924 324.434 523.039 326.375C521.392 332.711 520.344 340.937 515.988 346.008C512.041 350.53 506.536 354.324 500.929 356.431C492.498 359.522 483.327 358.347 475.395 354.4C470.758 352.242 466.53 348.767 461.702 347.145C458.777 347.669 457.563 352.012 456.746 354.426C453.029 368.975 451.036 383.881 451.406 398.915C451.381 407.103 452.071 415.227 453.961 423.21C457.691 439.394 463.005 455.31 468.612 470.932C472.559 482.019 477.886 492.531 485.205 501.792C490.25 508.166 495.564 514.387 501.286 520.16C507.724 526.649 515.082 530.877 522.554 535.961C537.128 545.95 553.338 554.661 570.326 559.668C580.302 562.555 589.205 566.17 599.552 567.537C609.681 568.852 619.913 569.58 630.131 569.657C634.589 569.785 639.392 569.606 643.735 570.717C646.928 571.496 648.346 575.098 649.202 577.921C650.926 584.487 650.875 591.691 651.335 598.448C650.288 597.503 649.253 596.558 648.206 595.625C647.12 588.932 648.065 579.812 644.412 573.923C639.52 572.633 633.95 573.553 628.918 573.297C613.973 572.697 598.747 571.19 584.173 567.741C570.377 563.998 556.71 559.234 543.873 552.924C534.906 548.032 526.143 542.641 517.56 537.123C503.662 527.914 491.911 515.817 481.73 502.699C476.621 496.172 473.415 488.853 469.659 481.559C465.815 474.01 463.72 465.388 460.539 457.417C457.55 450.073 455.366 442.473 453.501 434.757C450.857 423.938 448.021 412.672 448.29 401.47C448.379 396.348 448.405 391.239 448.43 386.129C448.392 376.626 451.279 367.736 452.582 358.092C453.68 353.046 454.536 345.817 459.862 343.441C463.286 342.125 465.546 344.616 468.165 346.366C474.156 351.117 481.947 355.026 489.726 355.077C499.089 354.49 509.512 350.44 514.89 342.368C518.109 336.901 518.607 329.62 519.999 323.476C525.747 322.288 531.7 321.458 536.783 318.315C544.333 313.73 550.655 307.471 552.725 298.606C553.734 293.229 552.303 286.995 551.626 281.605C555.714 279.574 560.133 277.952 563.301 274.567C568.5 269.074 573.392 263.007 576.969 256.314C579.638 251 579.779 245.52 579.562 239.695C589.359 236.936 597.035 231.853 603.563 224.086C606.782 219.795 606.513 214.161 606.845 209.065C613.615 205.424 619.734 201.299 624.141 194.835C629.416 188.168 630.233 180.9 632.878 173.07C652.727 175.279 672.577 176.646 692.555 175.867C703.961 174.513 715.253 171.792 726.506 169.519C736.291 167.59 744.785 162.123 754.442 160.079Z" fill="#C68B6A"/>
<path d="M750.239 164.703C754.889 172.444 758.593 180.67 763.6 188.219C761.288 193.328 757.737 199.076 757.444 204.748C757.686 209.921 760.956 215.056 764.443 218.722C769.54 224.137 777.983 225.887 784.83 228.123C784.076 233.654 782.198 240.13 783.489 245.648C785.686 252.992 792.468 256.237 796.696 261.781C797.309 267.644 792.545 274.362 794.333 280.787C796.019 287.123 800.005 293.957 804.603 298.632C809.15 303.243 815.358 304.354 821.349 306.091C821.643 316.016 822.051 325.277 826.049 334.538C828.936 341.831 836.357 347.26 843.293 350.377C852.158 354.043 859.886 351.398 868.827 351.897C871.305 351.96 872.493 354.055 873.86 355.805C880.323 365.411 883.095 376.485 885.382 387.675C887.144 396.795 888.32 406.145 886.71 415.38C885.535 422.367 883.606 429.214 882.099 436.137C879.979 445.806 875.84 454.186 872.021 463.242C863.335 482.581 850.842 500.119 835.272 514.514C827.787 521.399 819.165 526.24 811.232 532.627C801.55 540.368 790.667 545.669 779.299 550.433C770.524 554.086 763.396 558.723 754.276 561.163C747.059 563.257 739.497 563.947 732.318 566.131C729.815 567.064 727.337 567.703 726.685 570.666C725.101 576.695 724.067 584.397 723.977 590.631C723.875 594.029 725.485 597.056 728.819 598.18C732.804 598.18 736.955 596.34 740.723 595.114C750.789 591.499 761.608 590.171 772.248 591.436C779.644 592.227 786.784 594.412 792.877 598.767C802.278 604.49 804.884 618.528 800.49 628.057C795.662 637.522 787.269 645.467 777.447 649.593C771.277 652.224 764.801 654.357 758.287 655.979C745.871 659.147 732.101 657.64 719.954 654.025C716.505 652.863 710.936 650.806 709.531 647.153C709.25 640.664 712.098 634.38 710.655 627.597C708.662 617.57 701.969 607.658 697.524 598.601C694.829 593.083 694.356 587.412 693.883 581.396C693.245 580.961 692.593 580.514 691.942 580.08C690.243 578.905 688.442 577.87 686.641 576.848C688.748 576.261 690.869 575.673 692.977 575.06C691.38 574.524 689.758 573.885 688.097 573.629C682.426 576.107 680.318 583.299 681.659 588.996C684.073 600.262 693.296 610.085 696.604 621.3C698.482 627.635 699.146 634.75 697.575 641.2C696.119 647.076 690.294 651.534 685.606 654.868C678.108 660.003 668.503 663.848 659.561 665.38C645.179 667.539 632.954 663.426 618.699 662.085C609.068 661.114 599.693 658.33 591.007 654.114C579.357 648.711 573.699 633.92 577.199 621.849C578.834 615.232 583.151 610.263 588.516 606.278C598.351 598.486 611.457 595.523 623.809 595.689C631.166 595.804 637.004 598.844 643.429 601.974C643.544 601.207 643.671 600.441 643.786 599.687C645.421 599.789 647.069 599.891 648.717 599.981C648.551 598.525 648.385 597.069 648.206 595.625C649.253 596.558 650.288 597.503 651.335 598.448C650.875 591.691 650.927 584.487 649.202 577.921C648.346 575.098 646.929 571.496 643.735 570.717C639.392 569.606 634.589 569.785 630.132 569.657C619.913 569.58 609.681 568.852 599.552 567.537C589.206 566.17 580.303 562.555 570.327 559.668C553.338 554.661 537.129 545.95 522.554 535.961C515.082 530.877 507.724 526.649 501.287 520.16C495.564 514.387 490.25 508.166 485.205 501.792C477.886 492.531 472.559 482.019 468.612 470.932C463.005 455.31 457.691 439.394 453.961 423.21C452.071 415.227 451.381 407.103 451.407 398.915C451.036 383.881 453.029 368.975 456.746 354.426C457.563 352.012 458.777 347.669 461.702 347.145C466.53 348.767 470.758 352.242 475.395 354.4C483.327 358.347 492.499 359.522 500.929 356.431C506.537 354.324 512.042 350.53 515.989 346.008C520.344 340.937 521.392 332.711 523.04 326.375C529.925 324.434 536.375 323.003 542.174 318.533C548.19 313.832 553.938 307.509 555.765 299.896C557.145 294.404 555.356 288.822 556.033 283.61C559.967 280.481 564.4 279.306 567.695 275.244C571.387 270.709 574.644 265.779 577.85 260.886C581.58 255.151 582.525 249.007 583.803 242.429C590.636 238.456 598.658 234.267 604.036 228.391C608.327 223.818 608.493 216.295 611.7 211.773C615.672 207.226 620.896 203.981 624.665 199.166C630.464 192.485 632.673 184.821 635.471 176.646C651.961 179.035 668.528 179.188 685.146 179.405C698.482 178.728 711.868 176.02 724.897 173.159C733.711 171.256 741.745 167.513 750.239 164.703Z" fill="#CC7849"/>
<path d="M713.389 219.59C714.538 223.882 716.045 228.378 716.25 232.836C715.624 236.668 713.235 240.411 711.447 243.808C708.714 242.352 704.307 240.934 703.642 237.473C702.506 229.822 706.951 223.307 713.389 219.59Z" fill="#080303"/>
<path d="M662.576 222.566C664.096 226.833 666.318 231.814 664.466 236.298C662.921 240.423 660.085 245.086 655.857 246.887C652.51 244.485 650.301 241.42 651.22 237.102C652.421 231.009 655.525 223.422 662.576 222.566Z" fill="#070405"/>
<path d="M679.22 254.985C685.568 253.989 692.07 254.066 697.843 257.208C703.08 260.095 707.845 264.348 710.961 269.483C714.589 275.525 713.695 283.738 711.792 290.214C709.531 298.095 703.732 304.124 697.268 308.876C689.668 314.407 679.782 315.889 670.738 313.564C661.733 311.277 654.018 304.188 650.39 295.719C647.082 286.855 648.27 274.95 655.129 268.014C661.656 261.295 669.87 256.403 679.22 254.985Z" fill="#C8896A"/>
<path d="M675.477 259.034C683.23 256.863 692.67 257.425 699.567 261.819C705.188 265.894 710.348 271.501 710.335 278.871C711.051 297.163 693.283 313.308 675.157 311.188C666.114 309.962 659.293 304.214 654.273 296.946C650.313 290.508 650.441 281.452 654.541 275.103C659.191 267.529 666.804 261.282 675.477 259.034Z" fill="#120002"/>
<path d="M675.452 265.306C682.681 262.968 693.309 262.623 698.495 269.266C701.803 272.919 701.215 278.105 701.381 282.678C701.19 286.407 701.65 291.274 699.568 294.506C696.783 298.849 692.555 302.438 687.663 304.111C682.298 305.938 677.138 307.458 671.607 305.21C665.067 302.834 658.91 299.13 657.556 291.708C655.921 280.161 665.041 269.163 675.452 265.306Z" fill="#EA0484"/>
<path d="M626.555 275.371C628.65 274.209 630.374 276.725 628.65 278.335C626.555 279.51 624.83 276.981 626.555 275.371Z" fill="#8A380D"/>
<path d="M749.205 282.001C751.312 280.826 753.011 283.368 751.3 284.977C749.192 286.152 747.493 283.597 749.205 282.001Z" fill="#83310B"/>
<path d="M727.848 286.803C727.95 288.63 728.09 290.457 728.269 292.283C727.196 291.657 726.136 291.019 725.076 290.38C725.791 289.026 726.787 287.889 727.848 286.803Z" fill="#974C1D"/>
<path d="M761.851 292.615C763.32 292.833 764.776 293.011 766.245 293.152C764.993 294.557 763.728 295.949 762.374 297.239C762.17 295.707 762.004 294.161 761.851 292.615Z" fill="#8B3F19"/>
<path d="M736.47 305.005C738.552 303.843 740.327 306.347 738.616 307.969C736.534 309.144 734.758 306.64 736.47 305.005Z" fill="#702106"/>
<path d="M622.531 314.739C621.33 316.003 620.13 317.255 618.865 318.456C615.493 321.317 611.955 325.047 607.803 326.656C603.524 327.87 599.616 324.74 596.716 321.981C595.579 320.768 594.481 319.516 593.382 318.264C597.661 319.631 603.179 323.016 607.663 322.416C612.798 319.363 616.106 315.25 622.531 314.739Z" fill="#C0825F"/>
<path d="M766.551 317.421C769.91 318.826 773.423 321.215 777.063 321.636C781.1 320.908 784.804 318.43 788.841 317.536C791.548 317.204 794.499 318.137 797.169 318.609C796.045 320.934 794.985 323.667 793.247 325.622C789.262 329.645 782.926 331.6 779.312 335.917C776.782 339.839 775.939 345.063 774.662 349.521C770.217 368.4 758.913 385.886 747.302 401.176C739.765 410.424 732.063 419.276 721.41 424.96C713.618 429.239 704.958 434.86 695.889 435.358C690.039 435.754 684.572 433.02 678.926 432.995C674.672 433.672 670.674 436.341 666.599 437.734C661.145 439.841 654.988 439.42 649.24 439.356C647.733 443.673 646.52 448.527 643.991 452.359C642.483 454.812 637.617 456.102 635.854 453.343C633.261 450.43 634.5 446.841 635.215 443.469C636.697 438.181 638 432.752 640.056 427.655C640.925 425.152 643.671 423.581 646.2 424.641C651.667 426.595 655.538 430.517 661.771 429.188C667.187 428.32 671.862 424.654 670.789 418.65C666.599 413.873 658.297 413.707 652.395 413.158C651.489 411.791 650.594 410.411 649.7 409.045C656.841 411.063 664.901 410.616 671.274 413.962C675.068 415.674 674.902 420.834 673.689 424.13C670.214 431.922 660.519 434.591 652.83 432.279C649.573 430.491 646.826 427.719 643.901 425.458C641.423 433.812 638.817 442.153 636.505 450.558C637.936 451.235 639.379 451.912 640.81 452.602C643.25 446.815 645.051 440.863 647.082 434.936C652.217 435.805 656.866 437.184 662.142 436.443C666.893 435.652 670.61 432.944 674.621 430.504C676.282 429.61 677.508 428.511 679.501 429.227C685.798 430.849 692.261 433.723 698.852 431.807C706.529 429.776 713.797 425.599 720.682 421.703C732.765 415.201 741.796 403.067 750.176 392.401C757.252 383.306 761.723 373.381 766.832 363.15C771.52 353.314 772.427 342.01 776.821 332.187C783.029 328.738 789.3 325.737 794.933 321.292C794.078 320.321 793.235 319.337 792.379 318.354C787.027 320.908 780.678 325.916 774.611 325.583C771.213 324.74 768.339 321.292 765.619 319.197C765.925 318.596 766.232 318.009 766.551 317.421Z" fill="#C68C6D"/>
<path d="M618.865 318.456C620.015 318.98 621.139 319.516 622.263 320.065C618.814 323.693 615.161 327.052 610.984 329.824C608.046 332.06 604.636 333.401 604.227 337.539C603.295 346.098 604.266 355.09 606.028 363.482C607.178 368.77 610.627 372.87 614.944 375.962C615.915 376.613 617.077 376.971 618.418 377.022C622.864 374.046 625.725 368.809 629.876 365.373C634.194 361.847 639.52 359.101 645.268 359.867C648.845 359.982 651.949 363.635 653.417 366.612C654.682 370.788 653.66 375.796 653.711 380.126C658.655 379.551 663.585 378.325 668.541 378.108C675.452 378.223 680.752 385.184 679.156 391.826C677.687 397.536 673.203 402.85 670.036 407.767C673.242 410.756 677.38 413.234 678.696 417.667C680.408 421.703 680.127 426.046 685.274 427.17C693.654 428.575 702.659 426.621 710.118 422.661C716.812 419.187 723.76 415.074 729.151 409.747C733.698 405.328 737.888 400.538 741.809 395.556C748.796 386.487 754.123 375.898 759.219 365.679C763.881 356.393 765.951 346.762 768.799 336.875C769.336 334.768 770.064 332.494 770.038 330.31C769.055 327.218 766.321 324.523 764.226 322.109C764.686 321.126 765.159 320.168 765.619 319.197C768.339 321.292 771.213 324.74 774.611 325.583C780.678 325.916 787.027 320.908 792.379 318.354C793.235 319.337 794.078 320.321 794.934 321.292C789.301 325.737 783.029 328.739 776.821 332.187C772.427 342.01 771.52 353.314 766.832 363.15C761.723 373.381 757.252 383.306 750.176 392.401C741.796 403.067 732.766 415.201 720.682 421.703C713.797 425.599 706.529 429.776 698.852 431.807C692.261 433.723 685.798 430.849 679.501 429.227C677.508 428.511 676.282 429.61 674.621 430.504C670.61 432.944 666.893 435.652 662.142 436.444C656.866 437.184 652.217 435.805 647.082 434.936C645.051 440.863 643.25 446.815 640.81 452.602C639.38 451.912 637.936 451.235 636.506 450.558C638.817 442.153 641.423 433.812 643.901 425.458C646.826 427.719 649.573 430.491 652.83 432.279C660.519 434.591 670.214 431.922 673.689 424.13C674.902 420.834 675.068 415.674 671.275 413.962C664.901 410.616 656.841 411.063 649.7 409.045C653.992 406.452 658.591 406.158 663.393 405.366C669.32 402.85 673.076 397.561 673.995 391.239C674.149 388.48 675.311 384.852 672.207 383.383C666.114 382.208 658.514 383.153 652.919 385.874C647.171 388.697 644.029 393.244 638.881 397.204C637.949 395.786 637.042 394.368 636.148 392.937C644.042 385.631 650.007 376.243 648.806 365.04C643.684 364.785 639.035 364.466 634.551 367.467C625.073 373.215 622.416 382.834 618.584 392.49C617.499 392.248 616.426 391.992 615.366 391.737C613.858 386.96 613.296 380.854 610.256 376.792C606.641 373.318 599.373 373.177 594.979 375.055C588.184 379.155 584.314 388.467 586.664 396.105C590.994 404.574 599.986 408.853 607.88 413.337C601.558 420.413 594.967 427.17 589.372 434.872C588.056 434.476 586.74 434.068 585.425 433.672C588.861 427.285 594.098 422.559 598.377 416.836C600.293 414.231 598.518 412.659 596.576 410.922C589.985 405.545 581.146 398.737 579.587 389.821C579.741 383.779 583.496 377.264 587.865 373.19C591.531 369.626 595.861 369.256 600.625 368.285C600.076 360.327 597.572 353.276 597.751 345.216C597.802 340.222 599.067 335.726 600.242 330.91C597.815 328.253 595.337 325.66 592.718 323.195C594.047 322.799 595.388 322.39 596.716 321.981C599.616 324.74 603.525 327.87 607.804 326.656C611.955 325.047 615.493 321.317 618.865 318.456Z" fill="#080000"/>
<path d="M760.841 318.597C761.978 319.746 763.115 320.921 764.226 322.109C766.321 324.523 769.055 327.219 770.038 330.31C770.064 332.494 769.336 334.768 768.799 336.875C765.951 346.762 763.882 356.393 759.219 365.679C754.123 375.898 748.796 386.487 741.809 395.556C737.888 400.538 733.698 405.328 729.151 409.747C723.76 415.074 716.812 419.187 710.118 422.661C702.659 426.621 693.654 428.575 685.274 427.17C680.127 426.046 680.408 421.703 678.696 417.667C677.38 413.234 673.242 410.756 670.036 407.767C673.203 402.85 677.687 397.536 679.156 391.826C680.752 385.184 675.452 378.223 668.541 378.108C663.585 378.325 658.655 379.551 653.711 380.126C653.66 375.796 654.682 370.789 653.417 366.612C651.949 363.635 648.845 359.982 645.268 359.867C639.52 359.101 634.194 361.847 629.876 365.373C625.725 368.809 622.864 374.046 618.418 377.022C617.077 376.971 615.915 376.613 614.944 375.962C610.627 372.871 607.178 368.77 606.028 363.482C604.266 355.09 603.295 346.098 604.227 337.539C604.636 333.401 608.046 332.06 610.984 329.824C615.161 327.053 618.814 323.693 622.263 320.066C623.311 320.295 624.345 320.513 625.393 320.73C620.705 326.133 614.842 330.067 609.771 334.998C606.629 338.063 607.191 342.496 607.114 346.519C607.344 351.68 607.421 357.083 608.685 362.115C609.911 366.318 612.939 371.108 617.294 372.526C620.871 370.239 623.898 366.701 627.079 363.865C631.958 359.331 638.792 356.559 645.472 356.814C649.266 357.019 652.638 359.944 654.771 362.895C657.62 366.675 657.313 371.593 657.607 376.064C662.55 375.515 668.12 374.378 672.999 375.451C679.539 377.546 683.869 385.44 681.966 392.069C680.612 397.076 677.687 401.841 675.375 406.465C678.338 410.82 680.74 415.457 683.218 420.094C684.508 422.022 685.146 424.207 687.854 424.219C696.349 425.177 705.354 421.678 712.724 417.692C720.682 413.439 726.749 407.193 733.008 400.806C739.638 393.998 744.364 385.708 749.46 377.597C755.783 367.531 759.947 356.048 763.639 344.769C764.827 340.567 766.577 335.534 765.772 331.153C764.673 326.823 762.4 322.786 760.841 318.597Z" fill="#CC8F6C"/>
<path d="M591.07 323.706L592.718 323.195C595.337 325.66 597.815 328.253 600.242 330.91C599.066 335.725 597.802 340.222 597.751 345.216C597.572 353.276 600.076 360.327 600.625 368.285C595.86 369.255 591.53 369.626 587.864 373.19C583.496 377.264 579.74 383.779 579.587 389.821C581.145 398.736 589.985 405.545 596.576 410.922C598.517 412.659 600.293 414.23 598.377 416.836C594.098 422.559 588.861 427.285 585.425 433.672C586.74 434.067 588.056 434.476 589.372 434.872C594.966 427.17 601.557 420.413 607.88 413.336C599.986 408.853 590.994 404.574 586.664 396.105C584.313 388.467 588.184 379.155 594.979 375.055C599.373 373.177 606.641 373.317 610.256 376.792C613.296 380.854 613.858 386.959 615.365 391.737C614.458 392.286 613.551 392.848 612.645 393.41C611.227 388.607 610.345 382.553 607.19 378.554C603.716 376.128 598.262 376.268 595.043 379.142C589.921 383.664 586.804 390.868 591.185 397.076C596.154 403.654 604.7 406.835 610.486 412.876C605.99 419.646 600.74 425.765 595.528 431.973C593.638 434.131 591.53 436.571 589.001 437.976C584.173 438.474 582.499 432.164 584.786 428.792C588.069 423.772 592.501 419.544 595.988 414.639C588.924 408.189 580.749 402.185 577.288 392.899C574.976 387.394 577.556 381.748 580.328 376.958C584.147 370.763 590.24 368.016 596.473 364.861C596.18 358.641 595.273 352.458 595.056 346.251C594.877 341.729 595.809 337.22 595.554 332.724C595.03 329.53 592.578 326.529 591.07 323.706Z" fill="#CC8F6D"/>
<path d="M648.806 365.04C650.007 376.243 644.042 385.631 636.148 392.937C635.33 393.589 634.487 394.227 633.631 394.841C636.007 389.642 639.201 384.992 642.126 380.126C644.438 376.396 645.012 372.347 645.626 368.093C641.385 368.821 637.387 369.077 633.9 371.861C628.522 376.076 626.695 381.684 623.796 387.56C622.135 391.149 619.555 393.972 616.847 396.782C617.422 395.351 617.997 393.921 618.584 392.49C622.416 382.834 625.073 373.215 634.551 367.467C639.034 364.465 643.684 364.785 648.806 365.04Z" fill="#C68A70"/>
<path d="M825.538 370.571C827.569 372.244 828.438 374.301 828.898 376.817C826.905 375.987 824.887 375.221 822.882 374.441C822.128 379.819 821.042 385.069 819.445 390.268C811.807 386.857 805.178 383.14 796.428 384.903C789.313 386.397 780.103 388.658 776.105 395.351C772.784 400.525 769.502 408.214 771.865 414.307C774.534 420.528 781.623 424.13 786.886 427.86C783.731 433.276 779.848 438.321 780.052 444.912C779.605 453.636 788.227 460.866 796.287 461.939C802.316 462.169 808.358 456.344 813.978 455.412C817.478 456.83 820.506 459.627 823.61 461.747C819.803 461.313 815.869 460.087 812.037 460.215C806.34 460.955 800.311 465.554 794.307 464.66C786.937 463.561 780.359 457.558 777.843 450.647C775.313 443.328 779.222 435.332 781.879 428.575C777.268 424.832 770.894 420.566 768.85 414.767C766.513 408.01 769.668 399.631 773.372 393.883C778.073 386.423 786.746 383.434 795.036 382.118C802.661 380.879 809.278 382.808 816.597 384.532C818.59 380.1 820.135 371.874 825.538 370.571Z" fill="#C98E6D"/>
<path d="M822.882 374.442C824.887 375.221 826.905 375.987 828.898 376.817L829.013 377.737C825.769 385.695 824.887 393.908 824.747 402.441C823.763 402.811 822.767 403.182 821.77 403.552C818.833 398.455 816.022 391.047 809.7 389.476C802.891 388.607 795.253 389.003 788.777 391.417C781.1 394.636 777.549 402.837 776.476 410.59C775.94 414.767 779.35 419.953 783.757 420.247C791.076 420.924 799.072 418.995 806.455 418.139C806.187 419.621 805.983 421.09 805.676 422.559C799.673 425.203 794.116 428.307 789.952 433.506C786.197 438.308 785.75 445.065 786.72 450.852C787.653 454.824 791.191 457.277 795.202 457.277C801.831 457.89 806.838 454.096 811.092 449.485C814.183 446.113 815.895 441.949 816.865 437.516C817.351 435.409 817.836 433.301 818.334 431.194C819.599 430.836 820.876 430.504 822.154 430.185C822.486 434.285 822.843 438.142 821.221 442.038C820.238 445.155 817.964 448.795 818.334 452.091C820.698 457.967 827.404 458.439 832.257 455.374C838.146 451.337 844.596 444.81 844.43 437.146C844.788 433.454 843.638 430.542 841.761 427.438C842.476 426.544 843.191 425.65 843.907 424.756C845.81 427.362 847.956 429.852 848.863 433.007C849.77 436.431 850.076 440.033 850.638 443.52C864.306 444.005 875.431 429.929 871.561 416.798C870.488 413.004 867.116 411.88 863.782 410.667C858.749 409.108 853.512 408.406 848.492 406.758C851.941 400.678 855.607 394.751 858.596 388.403C859.963 386.129 860.908 382.693 863.897 382.221C865.2 384.251 866.516 385.938 865.468 388.441C863.527 393.499 860.614 398.098 858.711 403.182C865.902 406.579 873.643 408.559 876.53 416.913C881.103 429.469 872.468 442.651 860.333 446.304C856.271 447.454 852.056 447.48 847.981 448.31C844.596 450.034 841.914 453.317 838.976 455.706C835.451 458.771 831.274 460.585 826.829 461.926C825.743 461.888 824.683 461.837 823.61 461.747C820.506 459.627 817.479 456.83 813.979 455.412C808.358 456.344 802.317 462.169 796.288 461.939C788.228 460.866 779.606 453.636 780.053 444.912C779.848 438.321 783.731 433.276 786.886 427.86C781.624 424.13 774.535 420.528 771.865 414.307C769.502 408.214 772.785 400.525 776.106 395.352C780.104 388.658 789.313 386.397 796.428 384.903C805.178 383.14 811.807 386.857 819.446 390.268C821.042 385.069 822.128 379.819 822.882 374.442Z" fill="#080000"/>
<path d="M829.013 377.737C830.354 385.171 829.882 392.912 827.978 400.193C827.059 403.935 824.312 405.723 821.617 408.138C818.577 403.782 815.55 398.558 811.398 395.173C808.231 392.529 804.169 392.58 800.247 392.707C795.611 392.976 790.195 393.908 786.375 396.731C782.045 400.052 780.18 406.4 780.589 411.663C780.934 414.678 782.147 417.552 785.66 417.373C793.362 417.117 799.839 413.988 807.669 416.083L806.455 418.139C799.072 418.995 791.076 420.924 783.757 420.247C779.35 419.953 775.94 414.767 776.476 410.59C777.549 402.837 781.1 394.636 788.777 391.417C795.253 389.003 802.891 388.607 809.7 389.476C816.022 391.047 818.832 398.455 821.77 403.552C822.767 403.182 823.763 402.811 824.747 402.441C824.887 393.908 825.768 385.695 829.013 377.737Z" fill="#C48A67"/>
<path d="M862.747 377.89C864.944 379.96 868.879 382.961 868.559 386.321C868.01 391.264 865.545 396.131 863.833 400.793C868.01 403.501 872.608 406.171 875.917 409.977C880.004 414.665 882.201 421.307 880.949 427.477C879.136 435.805 873.924 443.277 866.286 447.237C861.112 450.149 855.735 450.635 850.127 452.065C845.388 453.189 841.991 457.162 838.044 459.844C834.506 462.399 830.495 463.523 826.407 464.864C826.548 463.881 826.688 462.91 826.829 461.926C831.274 460.585 835.451 458.771 838.976 455.706C841.914 453.317 844.597 450.034 847.981 448.31C852.056 447.48 856.271 447.454 860.333 446.305C872.468 442.651 881.103 429.469 876.53 416.913C873.643 408.559 865.903 406.579 858.711 403.182C860.614 398.098 863.527 393.499 865.468 388.441C866.516 385.938 865.2 384.251 863.897 382.221C860.908 382.693 859.963 386.129 858.596 388.403C855.607 394.751 851.941 400.678 848.492 406.758C853.512 408.406 858.749 409.108 863.782 410.667C867.116 411.88 870.488 413.004 871.561 416.798C875.431 429.929 864.306 444.005 850.638 443.52C850.076 440.033 849.77 436.431 848.863 433.007C847.956 429.852 845.81 427.362 843.907 424.756C844.456 424.053 844.993 423.351 845.529 422.648C850.204 427.783 852.427 433.659 854.279 440.25C857.498 438.564 861.036 436.891 863.795 434.515C867.32 431.5 868.891 426.378 868.802 421.856C868.687 419.276 868.01 416.606 865.634 415.201C861.355 412.992 856.041 412.774 851.571 410.922C849.272 409.9 847.126 408.227 845.095 406.771C850.511 397.076 855.262 386.168 862.747 377.89Z" fill="#C68C6B"/>
<path d="M672.207 383.383C675.311 384.852 674.148 388.479 673.995 391.238C673.075 397.561 669.32 402.849 663.393 405.366C658.769 406.094 654.401 405.391 649.943 404.242C654.643 403.309 660.187 403.373 664.543 401.278C668.426 398.583 670.533 393.18 671.236 388.658C667.442 385.184 661.592 385.414 657.109 387.304C648.538 390.753 645.242 398.57 635.649 399.848C636.722 398.966 637.808 398.085 638.881 397.204C644.029 393.244 647.171 388.697 652.919 385.874C658.514 383.153 666.114 382.208 672.207 383.383Z" fill="#D29573"/>
<path d="M805.676 422.559C803.325 428.767 795.713 431.104 792.2 436.929C790.22 440.314 789.326 444.555 789.99 448.451C790.424 450.584 791.395 452.359 793.63 452.947C799.506 454.978 806.532 450.379 809.789 445.704C812.535 440.799 813.774 435.128 816.175 430.019C816.444 432.522 816.712 435 816.865 437.517C815.894 441.949 814.183 446.113 811.092 449.485C806.838 454.096 801.831 457.89 795.202 457.277C791.191 457.277 787.653 454.824 786.72 450.852C785.749 445.066 786.196 438.308 789.952 433.506C794.116 428.307 799.672 425.203 805.676 422.559Z" fill="#C68965"/>
<path d="M840.879 428.383C841.173 428.064 841.467 427.745 841.761 427.438C843.638 430.542 844.788 433.454 844.43 437.146C844.596 444.81 838.146 451.337 832.257 455.374C827.403 458.439 820.697 457.967 818.334 452.091C817.964 448.795 820.238 445.155 821.221 442.038C822.843 438.142 822.486 434.285 822.154 430.185C824.159 431.602 826.739 432.969 826.177 435.869C825.411 441.323 822.958 446.624 821.298 451.861C823.75 452.334 826.458 453.317 828.974 453.011C832.921 451.784 836.306 448.361 838.491 444.951C841.518 440.352 840.279 433.697 840.879 428.383Z" fill="#C68B6C"/>
<path d="M688.097 573.629C689.757 573.885 691.38 574.523 692.976 575.06C690.869 575.673 688.748 576.261 686.641 576.848C684.904 581.932 683.115 586.39 685.312 591.704C689.068 600.734 696.272 608.884 699.427 618.425C701.969 625.515 701.867 633.702 700.909 641.085C699.733 649.388 691.865 655.481 685.095 659.441C675.707 665.048 665.59 668.906 654.541 669.238C640.682 669.621 626.657 666.466 612.913 664.793C602.848 662.519 591.071 659.786 582.998 653.067C575.18 646.322 570.85 635.618 573.022 625.361C574.325 618.643 575.615 612.499 581.184 607.939C587.775 602.701 594.609 597.247 602.899 595.165C611.738 592.253 621.037 591.87 630.221 592.917C635.522 593.671 639.673 596.455 643.786 599.687C643.671 600.441 643.543 601.207 643.429 601.973C637.004 598.844 631.166 595.804 623.809 595.689C611.457 595.523 598.351 598.486 588.516 606.278C583.151 610.263 578.834 615.232 577.199 621.849C573.699 633.92 579.357 648.711 591.007 654.114C599.693 658.329 609.068 661.114 618.699 662.085C632.954 663.426 645.178 667.539 659.561 665.38C668.503 663.848 678.108 660.003 685.606 654.868C690.294 651.534 696.119 647.076 697.575 641.2C699.146 634.75 698.482 627.635 696.604 621.299C693.296 610.084 684.073 600.262 681.659 588.996C680.318 583.299 682.426 576.107 688.097 573.629Z" fill="#C68C6A"/>
<path d="M774.573 667.284C788.968 668.357 803.594 667.335 817.964 668.689C826.522 669.276 835.093 669.072 843.651 669.774C850.025 670.336 856.284 669.212 862.67 669.647C867.269 669.979 871.855 670.068 876.453 670.081C876.478 671.064 876.491 672.061 876.517 673.044C868.929 672.304 861.355 672.444 853.742 672.674C842.629 673.057 831.644 671.754 820.531 671.729C806.889 671.652 793.349 670.375 779.695 670.336C771.954 669.94 765.069 671.001 758.057 668.472C763.396 665.483 768.786 666.888 774.573 667.284Z" fill="#2F2F2F"/>
<path d="M665.603 678.103C669.18 678.026 672.743 678.307 676.307 678.703C692.006 679.942 707.73 680.274 723.415 681.59C739.574 682.075 755.885 682.114 771.992 680.645C780.512 680.274 788.994 681.168 797.526 680.657C804.96 680.606 812.292 679.546 819.701 679.227C819.701 680.083 819.701 680.938 819.714 681.807C810.223 683.8 800.988 682.995 791.152 683.455C781.304 683.276 771.609 682.995 761.799 684.247C745.347 684.592 729.572 685.32 713.273 683.621C703.361 682.727 693.551 683.736 683.741 682.318C679.194 681.781 674.634 682.011 670.099 681.59C667.519 681.603 667.098 679.776 665.603 678.103Z" fill="#212121"/>
</g>
<defs>
<clipPath id="clip0_2_640">
<rect width="1330" height="730" fill="white"/>
</clipPath>
</defs>
</svg>
