<svg width="1330" height="730" viewBox="0 0 1330 730" fill="none" xmlns="http://www.w3.org/2000/svg">
<g clip-path="url(#clip0_2_154)">
<path d="M0 0H1330V730H0V0Z" fill="#FEFEFE"/>
<path d="M975.642 60C976.873 61.1583 978.214 62.3044 979.19 63.67C985.713 85.9095 990.883 107.942 992.37 131.132C992.26 139.643 992.833 148.031 991.565 156.493C991.309 163.943 990.114 171.307 990.09 178.757C990.102 182.878 989.066 186.548 988.42 190.62C986.457 190.45 983.982 191.108 982.555 189.487C979.165 186.341 976.483 182.537 972.959 179.501C962.571 170.368 952.354 160.98 941.526 152.372C938.308 149.519 935.162 146.715 931.333 144.666C932.626 151.092 934.747 157.249 938.551 162.638C944.014 170.832 949.305 179.513 952.549 188.865C954.353 193.656 955.633 198.546 954.829 203.715C952.841 206.739 949.305 209.824 945.514 209.934C935.198 210.263 925.408 210.421 915.434 207.41C906.204 204.63 896.633 199.972 889.915 192.937C886.781 190.316 889.817 186.572 890.756 183.61C895.755 170.734 904.339 160.919 908.435 147.556C901.266 152.079 894.524 157.347 887.501 162.09C878.271 169.344 868.224 174.453 857.897 179.903C867.663 192.9 878.015 206.532 886.342 220.883C890.646 229.332 895.133 237.489 897.133 246.67C899.096 255.534 902.181 263.838 902.571 272.616C903.327 282.468 905.253 292.003 904.839 301.903C905.253 317.351 904.741 332.544 900.693 347.541C896.304 363.269 892.341 379.815 886.537 395.08C882.624 403.371 878.941 411.711 873.772 419.331C878.149 422.721 882.843 425.05 886.696 429.122C888.098 430.402 889.366 432.17 891.049 433.06C892.792 433.426 892.926 432.097 893.341 430.792C895.767 421.989 897.608 413.003 902.668 405.224C908.033 396.409 916.47 388.033 926.505 384.911C931.126 383.265 935.832 384.765 940.149 386.582C946.83 389.813 952.719 394.336 956.28 400.993C962.23 410.821 961.449 422.66 960.937 433.682C959.157 443.095 956.633 453.154 951.415 461.274C947.306 468.48 942.026 474.893 937.954 482.111C936.32 484.867 934.15 487.098 931.967 489.403C927.602 493.975 923.689 499.035 919.348 503.632C910.338 512.849 899.596 520.457 887.915 525.908C883.587 527.688 878.868 530.078 874.101 529.395C871.236 529.126 868.565 526.737 866.456 524.92C861.798 520.677 860.945 513.849 858.762 508.167C854.897 497.95 851.032 487.696 846.533 477.734C844.655 473.637 842.241 469.053 838.742 466.127C837.011 465.188 835.889 466.346 834.706 467.492C819.734 483.184 798.799 494.438 779.595 504.144C761.367 513.288 742.115 519.872 722.399 524.969C713.169 526.627 703.818 527.98 694.478 528.907C683.504 530.017 672.507 529.017 661.545 530.09C657.388 530.273 653.218 530.26 649.06 530.431C646.634 540.771 641.94 550.378 635.819 559.011C633.185 562.705 629.284 565.778 625.918 568.789C629.284 570.789 632.576 572.898 635.685 575.288C643.013 580.348 647.926 588.944 650.45 597.332C653.12 610.245 649.584 622.754 643.5 634.118C653.157 635.349 662.765 636.569 672.519 636.434C683.102 637.129 693.429 635.374 703.976 635.374C703.842 636.581 703.72 637.776 703.586 638.971C695.246 638.812 686.943 639.227 678.615 639.41C667.581 639.092 656.546 639.214 645.646 638.19C643.147 637.995 640.647 637.959 638.135 638.007C637.721 639.214 637.294 640.422 636.867 641.629C643.488 641.775 650.035 642.641 656.668 642.665C660.96 642.836 665.337 642.506 669.617 642.982C671.97 644.213 670.812 646.396 668.727 646.554C659.838 646.542 650.901 646.408 642.061 645.481C637.05 645.091 632.271 645.043 627.516 646.981C630.332 647.688 633.112 648.322 636.026 648.481C642.269 649.042 647.536 646.628 653.584 649.383C648.426 653.529 642.013 651.956 635.941 651.566C628.576 651.249 621.517 650.785 614.36 652.212C608.544 651.968 602.813 651.578 597.009 652.383C592.925 651.249 588.792 649.286 584.573 648.81C577.696 648.92 570.844 648.871 564.004 647.981C551.055 647.262 537.948 647.92 524.999 646.701C513.221 646.03 501.419 646.567 489.628 646.018C476.643 646.359 463.731 646.384 450.77 645.25C450.795 644.274 450.819 643.299 450.855 642.324C464.097 643.579 477.57 642.836 490.848 642.75C496.542 643.153 502.236 642.836 507.905 643.165C518.476 644.372 528.718 643.738 539.374 644.092C547.166 644.372 554.993 643.97 562.784 644.348C567.308 644.762 571.783 645.25 576.343 644.86C573.831 642.238 571.027 639.702 567.308 639.092C563.87 638.702 560.407 638.763 556.981 638.276C549.568 637.3 542.142 638.044 534.729 637.056C529.059 636.422 523.353 636.605 517.684 636.069C508.21 634.813 498.395 635.666 488.86 635.557C488.775 634.313 488.689 633.057 488.616 631.801C491.823 632.265 494.932 632.85 498.188 632.801C507.917 632.679 517.72 632.801 527.413 633.789C533.998 634.398 540.545 634.045 547.141 634.337C552.152 634.435 557.091 635.215 562.114 635.13C556.566 627.692 550.348 621.145 545.861 612.793C538.57 597.125 538.07 580.945 539.07 563.973C539.606 558.523 540.984 553.158 541.85 547.745C548.324 547.44 554.103 548.33 560.322 547.391C565.699 546.294 570.734 543.112 574.648 539.344C581.415 532.565 586.597 524.408 588.353 514.873C579.769 511.935 570.99 509.118 562.602 505.607C552.604 500.913 542.91 495.682 533.717 489.525C521.646 480.978 511.124 470.723 501.272 459.738C493.335 450.301 486.409 439.998 479.679 429.671C471.961 433.146 466.316 434.438 457.793 434.511C455.818 443.217 452.819 453.178 445.747 459.14C434.895 467.2 417.386 459.665 414.302 446.948C412.583 441.046 413.631 433.975 413.729 427.854C407.401 430.987 401.426 433.365 394.269 431.378C390.331 429.951 385.759 427.549 383.564 423.843C381.345 419.526 381.43 413.942 382.235 409.284C383.344 403.615 388.465 400.945 392.757 397.86C387.588 395.068 380.552 392.629 376.687 388.081C372.908 383.485 374.139 377.961 374.566 372.499C375.114 368.707 376.358 363.842 379.821 361.648C387.795 356.831 396.391 356.941 405.425 356.161C403.658 348.15 402.56 339.274 403.767 331.141C406.401 323.704 414.668 318.156 422.507 318.132C427.726 318.095 433.176 317.169 437.017 321.509C440.662 325.996 443.211 331.836 445.04 337.286C445.893 345.773 445.235 354.698 444.71 363.196C450.636 363.379 456.452 364.415 462.353 364.879C461.171 356.588 459.403 348.065 459.451 339.701C459.256 326.691 459.207 313.608 460.085 300.611C461.926 287.272 464.706 273.811 469.559 261.204C470.864 257.619 472.546 254.242 473.619 250.572C460.658 250.913 449.075 246.048 436.346 244.756C440.26 251.901 446.039 257.571 450.514 264.252C454.465 271.97 460.439 279.578 458.439 288.857C452.831 293.125 446.076 296.173 439.077 297.246C429.031 298.867 419.118 301.318 409.144 303.305C406.242 304.037 403.158 302.037 400.524 300.952C403.206 294.844 406.316 289.137 407.681 282.529C409.681 273.336 413.009 263.801 412.4 254.51C412.485 253.181 411.997 252.035 410.924 251.084C399.427 264.081 389.099 278.006 381.04 293.417C378.345 297.563 375.785 303.83 371.213 306.085C368.213 306.756 365.372 304.439 363.068 302.793C361.007 301.342 359.971 299.343 359.215 296.99C357.728 292.539 355.216 288.881 353.216 284.663C347.888 273.714 344.706 262.131 342.694 250.157C337.597 230.125 340.182 211.202 337 190.998C339.122 187.304 342.767 187.816 346.425 187.353C353.241 196.522 361.556 203.557 371.652 208.885C377.358 211.775 382.247 215.981 388.246 217.956C394.281 220.102 399.512 223.565 405.425 226.028C404.401 219.322 401.56 213.299 399.817 206.666C397.512 198.863 395.866 190.767 391.989 183.756C389.989 180.001 387.283 177.099 384.747 173.746C383.808 172.612 383.869 171.551 384.466 170.259C389.246 167.564 395.074 166.613 400.305 165.004C412.07 161.273 424.202 159.041 436.029 155.542C439.163 154.676 442.235 154.079 444.979 156.31C447.576 157.676 446.137 161.736 445.369 163.845C440.15 176.001 435.737 188.475 431.628 201.033C430.152 207.446 427.665 214.128 427.75 220.724C433.908 214.908 439.943 209.214 446.783 204.191C453.83 198.192 461.183 192.608 468.181 186.572C474.912 181.049 482.118 176.087 489.141 170.966C504.369 160.626 519.342 149.47 535.387 140.484C545.593 135.095 555.627 128.669 566.564 125.268C575.892 122.219 585.207 118.94 594.717 116.501C605.361 113.831 616.03 113.77 626.747 111.807C634.063 110.331 641.903 110.844 649.353 111.185C654.681 111.819 659.948 113.514 665.142 114.855C679.908 101.821 699.526 93.7006 718.595 89.4454C728.203 86.4704 738.067 84.5317 748.114 83.9221C764.818 83.4588 781.461 84.0928 798.152 84.6415C815.661 86.8727 832.731 90.5427 849.752 95.1516C859.287 98.5533 869.102 100.041 878.234 104.552C890.268 109.198 901.217 115.733 912.52 121.793C910.106 109.819 902.205 101.845 896.353 91.4816C893.414 85.69 887.001 84.4342 884.172 78.5817C891.39 75.8993 899.108 75.0336 906.497 72.7901C916.617 71.0466 926.432 68.1447 936.528 66.3158C941.819 65.4136 946.745 61.7679 951.976 63.9017C954.39 69.0226 949.976 75.1068 948.22 79.8985C944.282 90.055 938.356 99.3702 934.589 109.539C942.161 104.394 946.721 97.2365 952.415 90.433C957.548 84.8731 962.413 79.1791 966.253 72.6316C969.216 67.9862 971.033 63.2311 975.642 60Z" fill="#050D0D"/>
<path d="M941.783 73.1192C938.186 83.7147 933.004 93.9931 928.029 104.003C925.652 109.039 923.481 114.099 920.567 118.866C917.08 112.855 914.056 106.674 910.033 100.98C905.729 94.8222 901.608 88.5552 897.999 81.9589C906.607 79.5326 915.361 77.6427 924.018 75.4114C929.931 73.863 935.65 73.0948 941.783 73.1192Z" fill="#029DD8"/>
<path d="M973.191 80.0204C976.142 83.5319 976.873 89.104 977.934 93.4567C980.226 102.65 981.86 112.038 982.884 121.451C983.384 132.01 982.982 142.63 983.043 153.213C983.152 160.431 981.47 167.32 979.165 174.111C971.265 168.869 964.059 162.736 957.182 156.237C947.891 147.422 937.259 141.02 928.761 131.327C934.979 123.768 941.709 116.72 948.659 109.832C957.34 100.346 964.863 89.7989 973.191 80.0204Z" fill="#EC1F1C"/>
<path d="M752.942 90.5061C766.049 90.5427 779.083 90.0063 792.141 91.4084C807.406 91.2865 820.806 95.5661 835.535 99.0045C849.813 102.748 863.249 105.223 876.588 111.441C889.159 116.623 901.034 122.597 911.337 131.608C900.034 143.703 885.428 153.055 871.577 161.968C861.152 168.856 849.618 173.709 837.961 178.05C832.682 180.013 827.281 181.561 821.721 182.464C813.771 183.732 806.285 185.89 798.128 185.658C788.422 185.402 777.729 186.829 768.658 183.622C761.05 181.281 753.649 179.891 746.26 177.062C739.066 174.319 732.165 170.71 725.264 167.332C709.341 159.675 694.758 148.397 681.895 136.375C678.347 133.071 675.042 128.864 673.494 124.219C672.031 120.805 675.859 118.098 677.993 116.038C690.161 106.43 706.024 100.772 720.875 96.8464C731.653 93.8591 741.615 90.7134 752.942 90.5061Z" fill="#EC1F1C"/>
<path d="M981.531 92.9081C982.518 94.3102 983.494 95.7368 984.457 97.1511C983.591 97.8339 982.738 98.5167 981.872 99.1995C981.701 97.1024 981.567 95.0052 981.531 92.9081Z" fill="#FEFEFE"/>
<path d="M657.826 119.598C654.51 133.363 647.012 146.032 639.269 157.773C628.393 173.27 616.213 188.292 602.289 201.143C590.62 210.885 577.672 219.261 564.162 226.211C558.151 229.32 552.53 232.551 546.093 234.648C530.705 239.477 515.745 244.049 499.443 244.22C486.982 246.231 475.838 243.525 463.085 242.391C451.526 240.208 439.467 238.184 428.701 233.722C433.554 226.235 440.089 220.919 446.393 214.774C451.623 209.763 457.5 205.654 462.975 200.935C483.02 183.939 504.662 169.344 526.572 154.896C549.153 140.642 573.758 129.876 599.692 123.426C618.249 119.659 639.038 116.306 657.826 119.598Z" fill="#EC1F1C"/>
<path d="M665.593 129.108C669.032 132.79 671.982 136.826 675.555 140.35C690.978 154.64 707.719 166.991 726.813 175.965C733.104 178.879 738.932 182.098 745.492 184.366C759.94 189.255 774.255 193.266 789.605 193.717C794.495 193.534 799.347 192.888 804.249 192.839C811.991 192.754 819.221 191.34 826.951 190.23C832.121 189.511 837.071 188.096 841.997 186.402C845.058 185.536 848.679 184.097 851.556 186.219C856.348 189.682 859.762 195.412 863.505 199.972C871.516 209.97 877.649 220.907 883.721 232.137C887.878 239.83 889.403 247.694 891.695 256.059C894.414 266.447 894.914 276.701 895.987 287.308C896.694 295.6 895.401 303.403 895.365 311.657C895.292 315.742 895.34 319.839 895.084 323.923C894.743 329.568 892.938 335.397 891.67 340.944C889.281 351.089 886.342 361.074 883.465 371.097C878.441 387.533 871.796 403.603 863.7 418.758C855.202 432.828 844.277 445.582 832.56 457.08C822.221 467.029 811.418 477.064 798.981 484.379C789.3 489.939 779.949 495.743 769.548 499.961C751.771 507.984 732.653 515.471 713.413 519.067C695.758 522.067 678.152 522.408 660.289 521.86C655.473 521.713 650.84 518.958 646.122 519.275C642.842 520.652 640.22 523.957 639.769 527.541C637.977 538.856 632.624 550.512 624.126 558.34C620.102 562.4 615.14 564.229 610.007 566.424C611.324 568.338 612.47 570.85 614.347 572.264C617.347 573.947 620.895 574.495 623.931 576.202C629.576 579.214 633.904 584.006 638.062 588.785C642.488 594.101 642.915 601.405 642.378 608.013C641.635 614.548 640.037 621.364 636.77 627.119C633.087 633.142 626.686 637.837 620.663 641.311C613.543 645.347 605.41 646.054 597.448 644.762C584.39 641.397 572.173 634.788 563.333 624.449C554.493 614.439 549.567 601.953 548.043 588.749C546.983 577.653 546.458 566.985 550.177 556.292C558.7 555.487 566.662 555.853 574.124 551.098C586.926 543.014 595.217 529.139 598.826 514.666C599.192 512.752 599.033 510.85 598.631 508.947C596.997 507.972 595.205 507.594 593.339 507.35C585.67 506.448 578.196 503.412 570.954 500.839C557.956 495.17 545.471 489.159 534.327 480.282C522.378 470.943 511.343 459.921 502.418 447.618C497.688 441.241 491.652 434.67 488.75 427.281C487.458 424.33 486.421 420.526 484.117 418.222C480.313 417.331 478.033 419.404 475.472 421.843C471.364 426.354 464.023 429.158 458.086 426.976C453.904 425.903 450.307 423.94 446.673 427.5C447.076 431.146 449.282 435.304 448.356 438.888C447.21 443.558 445.222 448.216 442.259 452.032C439.906 455.019 436.346 456.811 432.518 455.812C426.738 453.897 422.142 448.191 421.885 442.058C421.617 437.193 422.02 432.28 423.044 427.525C424.202 420.941 428.104 416.295 426.787 409.26C424.141 409.735 420.874 409.467 418.91 411.564C414.046 416.295 410.79 422.013 404.218 424.964C400.341 426.525 394.793 426.257 392.123 422.599C388.77 418.209 390.002 410.894 393.379 406.846C398.524 401.908 405.95 401.639 412.009 399.567C412.985 396.104 412.229 392.751 407.986 392.8C399.475 392.824 391.123 392.312 384.637 386.082C382.381 384.082 382.759 381.509 382.613 378.778C382.71 374.438 382.564 369.756 386.173 366.683C391.062 362.879 398.512 362.806 404.413 363.147C408.644 362.903 411.314 368.841 415.265 369.609C417.764 369.682 420.166 368.122 419.63 365.342C418.825 362.94 417.167 360.757 415.887 358.587C412.582 353.478 411.375 346.87 411.132 340.895C411.046 335.592 412.485 330.093 417.167 327.069C421.703 323.948 426.336 324.301 431.567 324.009C434.09 328.898 436.834 334.177 437.76 339.64C438.37 345.663 438.248 352.381 435.895 358.051C435.078 360.696 433.127 363.659 434.98 366.305C436.724 369.829 441.162 369.536 444.466 369.987C454.221 370.658 463.426 373.877 473.217 374.401C473.07 369.097 471.534 364.184 470.351 359.063C467.145 342.249 467.925 325.082 468.267 307.987C469.108 294.636 472.058 281.346 476.119 268.617C478.167 263.289 480.301 256.924 484.385 252.828C487.568 252.254 490.86 252.279 494.066 251.901C502.309 250.999 509.856 252.023 518.001 250.365C527.499 248.524 536.887 245.89 546.129 243C551.457 241.513 556.676 239.842 561.602 237.306C575.831 230.198 590.279 222.443 603.02 212.884C611.165 206.776 617.993 199.509 624.796 191.998C632.051 184.475 637.648 175.684 644.293 167.601C652.547 155.554 660.314 142.764 665.593 129.108Z" fill="#E6BF06"/>
<path d="M922.104 139.204C923.177 144.508 923.859 149.568 926.018 154.591C931.455 167.015 940.844 177.416 945.148 190.23C946.452 193.961 946.891 197.875 946.123 201.777C944.429 202.74 942.795 203.508 940.807 203.63C930.59 204.52 920.324 202.703 910.862 198.789C906.936 197.022 902.754 194.815 899.767 191.657C897.657 189.779 898.352 186.853 898.925 184.463C901.144 176.879 906.534 169.978 910.167 162.845C914.52 154.859 916.654 146.605 922.104 139.204Z" fill="#029DD8"/>
<path d="M435.797 163.199C434.541 171.161 430.993 178.098 428.616 185.707C426.226 193.01 423.812 200.301 422.093 207.812C420.459 214.859 418.764 221.87 416.338 228.71C410.229 217.371 406.937 204.203 403.06 191.974C401.121 185.877 397.476 180.135 394.537 174.392C403.096 169.917 411.912 168.966 420.995 166.162C425.885 164.735 430.725 163.76 435.797 163.199Z" fill="#029DD8"/>
<path d="M672.848 193.376C676.274 191.84 681.078 192.547 684.785 192.62C688.906 192.547 692.003 196.839 693.99 199.972C698.441 207.849 699.977 217.956 697.039 226.613C694.978 233.49 686.102 237.318 679.566 234.697C674.165 232.966 670.495 228.564 667.947 223.687C665.618 219.432 665.703 213.713 665.533 208.958C665.313 203.118 668.093 196.826 672.848 193.376Z" fill="#050D0D"/>
<path d="M346.596 199.582C366.043 216.957 388.185 225.674 411.01 237.245C405.486 247.134 397.903 253.998 390.965 262.96C383.027 272.592 377.224 283.456 370.201 293.685C358.74 283.809 355.167 268.934 351.607 254.876C346.913 236.721 345.962 218.249 346.596 199.582Z" fill="#EC1F1C"/>
<path d="M630.429 206.434C633.929 205.874 637.904 205.678 640.72 208.19C647.304 214.238 649.133 223.894 648.792 232.454C648.34 240.976 643.024 248.853 634.697 251.316C629.137 251.328 623.918 248.316 621.029 243.573C615.81 236.197 616.322 226.321 619.151 218.127C620.919 213.128 624.87 207.446 630.429 206.434Z" fill="#050D0D"/>
<path d="M819.16 205.057C822.879 204.203 824.818 205.703 825.537 209.361C826.22 215.872 820.819 220.553 816.783 224.833C819.782 242.647 819.039 261.558 812.528 278.554C818.246 284.175 822.257 291.174 822.074 299.404C822.928 311.987 818.173 322.485 812.357 333.226C818.526 339.14 823.757 345.87 829.719 351.991C831.792 354.564 835.121 357.283 834.121 360.977C832.377 362.538 830.256 364.476 827.866 362.976C824.403 360.867 822.014 356.831 819.27 353.881C813.32 347.345 807.638 340.676 801.274 334.555C807.017 325.85 811.662 316.998 813.332 306.561C813.93 300.623 813.576 294.624 810.626 289.308C808.407 285.248 803.968 282.212 799.323 281.932C795.312 282.249 791.337 284.712 788.325 287.272C783.497 291.381 782.241 298.38 783.436 304.366C784.484 312.462 788.801 319.351 789.483 327.447C787.008 327.569 784.18 328.313 782.034 326.667C779.949 324.143 778.742 320.936 776.718 318.339C772.462 313.511 766.525 310.341 760.014 312.608C754.381 315.108 753.113 323.497 755.844 328.496C758.977 335.336 765.842 338.286 771.475 343.48C769.999 345.187 768.975 348.479 766.256 348.028C760.489 347.894 756.734 340.993 750.613 340.481C746.894 340.176 741.286 339.091 738.457 342.151C734.202 345.882 733.604 354.344 738.847 357.563C744.236 361.708 750.979 361.087 757.38 361.257C757.429 363.562 757.453 365.854 757.441 368.158C753.356 368.707 749.15 368.987 745.139 369.975C740.981 371.097 736.713 373.865 735.36 378.144C734.433 381.57 736.616 384.46 738.737 386.899C741.225 389.727 744.249 391.739 748.15 391.629C755.807 392.3 763.098 386.886 768.414 381.948C772.926 377.766 774.474 372.536 776.766 367.073C778.059 363.952 782.314 362.135 784.862 365.013C786.033 367.39 786.643 370.097 787.459 372.609C789.166 378.315 792.166 383.668 795.763 388.398C800.506 394.421 807.504 397.214 812.381 403.164C809.37 405.163 807.797 407.577 803.859 406.212C792.519 401.164 785.972 391.325 780.046 380.949C771.609 390.252 761.416 399.067 748.101 398.969C740.322 399.408 734.958 395.153 729.373 390.434C718.144 396.519 707.487 402.883 695.112 406.48C677.469 412.771 658.302 416.064 639.611 413.869C624.833 413.137 609.775 410.101 596.253 403.956C585.902 399.286 575.965 394.909 566.686 388.228C556.213 380.692 546.519 371.341 539.643 360.367C535.79 354.149 532.047 348.162 529.194 341.505C525.487 333.409 522.975 324.752 520.415 316.132C518.866 311.097 518.427 305.585 516.403 300.745C511.441 297.904 506.381 297.111 502.772 292.125C504.833 291.088 506.954 289.637 509.234 289.15C512.307 289.54 517.367 293.222 520.11 291.015C525.389 286.101 528.084 278.079 531.852 271.97C534.107 272.287 535.863 272.933 537.814 274.079C537.911 276.75 538.216 279.542 537.082 282.054C534.534 287.821 530.535 292.832 527.572 298.245C526.133 300.696 526.938 303.147 527.413 305.756C531.937 324.716 538.533 342.749 549.872 358.758C557.31 369.719 567.32 378.047 578.55 384.911C600.362 398.408 624.87 407.175 650.804 406.285C665.825 406.943 680.59 402.652 694.746 398.104C702.684 395.519 709.426 391.385 716.815 387.63C719.461 386.13 722.545 384.484 724.472 382.082C726.313 379.144 727.069 374.95 729.3 372.109C731.178 369.719 733.677 367.719 735.921 365.683C732.921 363.306 728.922 360.721 727.179 357.234C725.813 351.028 725.874 344.029 730.507 339.14C734.689 334.763 741.847 333.507 747.577 332.678C745.98 327.825 743.98 323.436 745.809 318.266C747.931 311.048 755.161 305.671 762.684 305.768C767.195 305.451 771.146 306.817 775.425 307.853C774.499 302.025 773.474 296.356 775.974 290.735C778.449 284.821 783.802 281.163 789.447 278.615C793.897 276.616 798.677 276.713 803.164 275.201C806.456 270.678 807.553 264.313 808.272 258.875C808.882 249.694 808.931 240.354 808.443 231.161C808.211 229.149 808.467 226.808 806.382 225.699C802.456 223.626 798.494 221.895 795.043 219.005C797.445 217.859 800.128 215.298 802.883 216.079C805.456 216.408 808.272 217.335 810.845 217.066C814.722 214.421 816.515 208.812 819.16 205.057Z" fill="#050D0D"/>
<path d="M755.295 216.944C755.746 218.944 756.112 220.968 756.27 223.016C754.075 223.309 751.881 223.26 749.674 223.102C749.832 221.102 749.979 219.103 750.186 217.115C751.893 217.005 753.588 216.944 755.295 216.944Z" fill="#050D0D"/>
<path d="M730.568 218.115C730.995 220.212 731.3 222.346 731.568 224.467C729.666 224.443 727.752 224.406 725.849 224.37C725.593 222.346 725.398 220.322 725.337 218.286C727.081 218.164 728.824 218.103 730.568 218.115Z" fill="#050D0D"/>
<path d="M741.164 235.014C741.651 237.001 741.786 238.708 741.542 240.745C739.993 241.123 738.457 241.537 736.921 241.988C736.311 240.684 735.701 239.379 735.104 238.074C736.311 234.575 738.14 235.538 741.164 235.014Z" fill="#050D0D"/>
<path d="M422.593 239.781C427.08 243.147 429.006 248.377 432.372 253.059C437.846 261.338 446.1 269.678 449.49 278.993C450.148 281.468 451.197 285.906 448.393 287.369C443.869 291.027 436.639 291.637 431.103 293.185C424.715 294.929 418.569 295.502 411.949 295.27C413.644 285.37 417.155 275.969 418.972 266.118C420.289 258.839 419.447 251.742 419.923 244.597C420.167 242.366 420.679 241.062 422.593 239.781Z" fill="#029DD8"/>
<path d="M716.01 241.635C716.071 244.293 715.717 246.756 715.242 249.353C713.315 248.609 711.401 247.865 709.487 247.121C709.67 245.317 709.84 243.525 710.072 241.732C712.047 241.61 714.035 241.598 716.01 241.635Z" fill="#050D0D"/>
<path d="M756.453 245.488C757.953 246.841 759.416 248.194 760.66 249.804C761.074 252.608 760.075 254.693 757.868 256.412C755.783 255.23 754.515 254.218 753.991 251.779C753.271 249.401 755.393 247.438 756.453 245.488Z" fill="#050D0D"/>
<path d="M681.59 256.046C684.821 255.62 687.43 257.071 690.296 258.314C695.075 260.607 699.611 262.204 702.94 266.581C708.329 273.177 709.914 280.761 711.548 288.906C712.596 294.076 711.292 298.831 709.926 303.793C707.085 314.291 699.087 322.85 689.077 326.947C684.078 328.971 677.774 328.471 672.446 328.361C665.74 328.264 659.57 325.508 654.803 320.851C647.524 314.462 643.829 305.207 642.854 295.746C643.073 285.906 646.073 276.189 652.767 268.788C659.497 259.936 671.263 257.729 681.59 256.046Z" fill="#050D0D"/>
<path d="M585.914 258.607C589.401 258.119 591.023 259.412 591.559 262.826C590.864 264.984 589.462 266.983 588.328 268.934C586.792 267.386 585.073 265.837 583.817 264.057C584.207 262.143 584.951 260.314 585.914 258.607Z" fill="#050D0D"/>
<path d="M611.433 260.326C612.969 261.606 614.53 262.887 615.956 264.301C616.054 266.227 615.774 267.91 614.688 269.544C612.579 269.715 610.75 270.629 609.531 268.312C606.995 265.191 609.604 262.887 611.433 260.326Z" fill="#050D0D"/>
<path d="M676.664 263.63C685.236 263.118 694.941 267.678 699.026 275.469C702.915 282.017 703.086 290.552 702.171 297.904C700.842 307.792 693.905 316.498 684.663 320.168C675.884 323.874 664.264 321.265 658.436 313.547C649.499 302.696 650.121 285.455 658.448 274.433C662.582 268.142 669.41 264.825 676.664 263.63Z" fill="#029743"/>
<path d="M727.727 261.631C729.141 263.094 730.568 264.667 731.629 266.41C730.775 268.227 729.763 269.958 728.739 271.69C726.447 269.373 724.35 267.751 724.021 264.289C725.252 263.374 726.483 262.496 727.727 261.631Z" fill="#050D0D"/>
<path d="M633.258 276.433C633.99 278.432 635.063 280.09 635.502 282.175C634.014 283.541 632.405 284.785 630.82 286.053C630.039 283.687 629.283 281.334 628.625 278.944C630.161 278.103 631.71 277.262 633.258 276.433Z" fill="#050D0D"/>
<path d="M606.886 282.041C608.336 284.48 608.434 287.028 608.702 289.759C606.569 290.491 604.996 290.662 602.789 290.064C602.521 287.431 602.204 284.809 602.143 282.163C603.728 281.993 605.301 281.895 606.886 282.041Z" fill="#050D0D"/>
<path d="M579.83 284.138C581.476 284.931 582.926 285.894 584.292 287.113C583.853 289.32 583.134 291.43 582.488 293.588C579.513 292.149 576.659 292.125 575.611 288.479C576.416 285.919 577.281 285.004 579.83 284.138Z" fill="#050D0D"/>
<path d="M608.873 305.378C610.836 306.475 612.921 307.646 614.64 309.121C614.433 311.328 613.518 313.462 613.067 315.632C610.97 314.632 608.885 313.693 607.032 312.267C606.763 309.645 607.971 307.731 608.873 305.378Z" fill="#050D0D"/>
<path d="M935.479 393.275C940.99 394.97 946.477 397.823 949.208 403.176C953.561 411.552 954.402 421.782 952.402 430.939C950.695 441.876 945.087 450.13 940.307 460.14C935.528 468.76 929.48 476.771 923.432 484.538C917.677 492 910.301 497.34 903.741 503.973C901.034 506.802 897.706 508.521 894.328 510.386C888.951 513.349 884.501 518.251 878.929 520.531C875.978 521.713 872.516 521.055 870.772 518.226C868.126 513.715 866.919 508.24 865.029 503.376C861.14 493.121 857.506 482.66 852.922 472.711C850.654 467.675 847.289 463.53 843.814 459.311C849.349 453.166 855.056 447.24 859.908 440.51C863.188 436.45 865.663 431.463 869.455 427.89C872.638 427.378 876.076 429.415 878.636 431.097C885.147 435.523 888.488 442.948 893.999 447.789C896.072 450.228 899.474 448.094 899.681 445.326C901.4 435.157 903.192 424.221 907.472 414.771C911.776 406.639 918.433 397.957 927.273 394.556C929.907 393.58 932.662 392.3 935.479 393.275Z" fill="#E6BF06"/>
<path d="M845.753 517.909C846.936 518.129 848.143 518.165 849.386 518.043C846.155 522.811 842.107 526.225 841.595 532.345C841.681 535.515 842.473 538.868 843.57 541.843C844.948 545.782 849.618 547.391 852.63 550.22C849.472 550.195 847.204 550 844.826 547.769C839.51 543.563 838.498 537.454 838.572 531.029C838.291 525.969 842.022 520.957 845.753 517.909Z" fill="#050D0D"/>
<path d="M829.732 528.139C827.586 533.357 823.599 537.247 824.599 543.258C825.355 548.598 829.183 550.573 832.17 554.585C827.537 553.402 823.818 550.805 822.136 546.209C819.478 539.417 821.953 530.09 829.732 528.139Z" fill="#050D0D"/>
<path d="M809.504 544.892C813.345 546.086 813.796 546.757 815.027 550.586C811.625 549.135 810.613 548.501 809.504 544.892Z" fill="#050D0D"/>
<path d="M679.31 642.58C686.333 641.811 693.515 643.531 700.611 643.079C709.536 642.604 718.376 641.677 727.35 641.958C727.447 643.762 727.557 645.579 727.667 647.383C720.863 648.408 714.255 648.2 707.439 647.432C714.12 647.347 720.741 647.274 727.35 646.103L726.057 643.14C720.241 642.287 713.803 643.592 707.927 643.726C700.099 643.921 691.893 644.518 684.151 643.372C681.859 643.25 680.42 642.287 678.92 644.567C680.444 647.262 683.139 646.42 685.833 647.127C683.163 646.945 680.493 646.823 677.823 646.652C678.274 645.274 678.762 643.921 679.31 642.58Z" fill="#FEFEFE"/>
<path d="M684.151 643.372C691.893 644.518 700.099 643.921 707.926 643.726C713.803 643.592 720.241 642.287 726.057 643.14L727.349 646.103C720.741 647.274 714.12 647.347 707.439 647.432C700.306 647.432 692.929 647.81 685.833 647.127C683.139 646.42 680.444 647.262 678.92 644.567C680.42 642.287 681.858 643.25 684.151 643.372Z" fill="#050D0D"/>
<path d="M525.682 651.48C533.997 653.077 542.191 652.37 550.567 652.846C563.418 654.138 576.696 653.126 589.596 653.626C592.327 653.809 594.485 653.358 597.009 652.382C602.813 651.578 608.543 651.968 614.359 652.212C609.385 652.992 604.544 652.821 599.533 652.529C599.679 654.272 599.838 656.004 599.972 657.747C585.548 656.625 571.112 657.735 556.7 656.406C546.092 656.077 535.631 656.077 525.072 654.76C525.267 653.663 525.462 652.578 525.682 651.48Z" fill="#050D0D"/>
<path d="M676.164 653.26C695.222 653.809 714.34 653.516 733.409 653.37C733.239 654.565 733.056 655.76 732.873 656.943C718.851 656.882 704.83 657.125 690.808 656.943C681.115 655.906 671.909 657.016 662.399 654.272C667.13 651.858 671.104 652.639 676.164 653.26Z" fill="#050D0D"/>
<path d="M496.834 659.722C508.258 660.21 519.634 660.113 531.047 659.491C542.825 659.723 554.713 659.345 566.393 660.503C573.611 660.966 580.842 660.417 588.06 660.832C588.023 662.064 587.974 663.295 587.926 664.539C580.744 664.222 573.55 664.673 566.418 663.905C556.273 663.002 546.105 663.453 535.948 662.515C531.388 662.112 527.096 663.1 522.56 663.21C510.99 663.417 499.577 663.6 488.153 661.405C487.665 660.369 487.202 659.32 486.738 658.272C490.128 658.735 493.383 659.649 496.834 659.722Z" fill="#050D0D"/>
<path d="M608.519 658.467C618.895 658.552 629.186 659.796 639.599 659.662C653.096 659.235 666.642 659.601 680.09 660.759C689.064 661.43 698.77 660.149 707.439 662.6C705.525 664.075 704.22 665.283 701.647 664.966C694.551 664.6 687.382 664.722 680.298 664.014C674.006 663.112 667.703 663.588 661.399 662.917C651.535 661.649 641.549 662.917 631.393 662.368C623.407 661.832 615.811 662.795 607.934 660.82C608.105 660.027 608.3 659.247 608.519 658.467Z" fill="#050D0D"/>
<path d="M614.189 664.831C623.943 664.526 633.527 666.087 643.256 665.49C647.146 665.282 651.413 664.636 655.278 665.136C656.327 666.038 657.351 666.965 658.351 667.916C651.694 670.013 644.085 669.135 637.16 669.013C630.161 668.074 623.151 669.099 616.237 667.794C615.542 666.819 614.86 665.831 614.189 664.831Z" fill="#050D0D"/>
</g>
<defs>
<clipPath id="clip0_2_154">
<rect width="1330" height="730" fill="white"/>
</clipPath>
</defs>
</svg>
